<?xml version="1.0" standalone="no"?>
<!DOCTYPE svg PUBLIC "-//W3C//DTD SVG 1.1//EN" "http://www.w3.org/Graphics/SVG/1.1/DTD/svg11.dtd" >
<svg xmlns="http://www.w3.org/2000/svg" xmlns:xlink="http://www.w3.org/1999/xlink" version="1.1" viewBox="0 -158 1000 1000">
  <g transform="matrix(1 0 0 -1 0 842)">
   <path fill="currentColor"
d="M236.266 739.148c0 14.9355 5.93359 29.2578 16.4961 39.8203s24.8887 16.4961 39.8242 16.4961h14.1719c23.0459 0 43.7676 -14.043 52.3076 -35.4473c8.5369 -21.394 3.18388 -45.8319 -13.5139 -61.6948l-65.8533 -43.9048
c-0.0549139 -0.0369249 -0.0970788 -0.0865987 -0.125177 -0.14266c-0.0266649 -0.0512474 -0.0418144 -0.109072 -0.0418152 -0.16984c0 -0.0275591 0.00900766 -0.0545129 0.00900766 -0.0805225c0.00937823 -0.0445158 0.0270436 -0.0878106 0.0534923 -0.127485
c0.0369249 -0.0549139 0.0865987 -0.0970788 0.14266 -0.125177c0.0512474 -0.0266649 0.109072 -0.0418144 0.16984 -0.0418152h90.2578v-27.5938h-140.984v27.7676l98.7168 65.8105c0.0116368 0.00782476 0.0227011 0.016222 0.0331814 0.0251301
c0.0126855 0.0105292 0.0247731 0.0220116 0.0361546 0.0344402c7.67285 8.40234 9.66406 20.5459 5.07227 30.959c-4.59082 10.4131 -14.8975 17.1338 -26.2803 17.1338h-14.1719c-15.8633 0 -28.7227 -12.8594 -28.7227 -28.7188v-6.71484h-27.5977v6.71484z
M235.516 739.148v-7.08984c0 -0.204102 0.170898 -0.375 0.375 -0.375h28.3477c0.204102 0 0.375 0.170898 0.375 0.375v7.08984c0 15.4453 12.5234 27.9688 27.9727 27.9688h14.1719c11.0859 0 21.123 -6.54492 25.5947 -16.6865
c4.46451 -10.1276 2.53759 -21.934 -4.91038 -30.1164l-98.8455 -65.8963c-0.0549139 -0.0369249 -0.0970788 -0.0865987 -0.125177 -0.14266c-0.0266649 -0.0512474 -0.0418144 -0.109072 -0.0418152 -0.16984v-28.3438c0 -0.204102 0.170898 -0.375 0.375 -0.375h141.734
c0.204102 0 0.375 0.170898 0.375 0.375v28.3438c0 0.204102 -0.170898 0.375 -0.375 0.375h-89.3936l64.8477 43.2344c0.0118624 0.00797644 0.0231299 0.0165478 0.0337886 0.0256506c0.00545191 0.00461111 0.0107937 0.00940694 0.0160161 0.0143884
c16.9395 16.0752 22.374 40.8506 13.7197 62.54c-8.65527 21.6895 -29.6523 35.9199 -53.0049 35.9199h-14.1719c-15.1348 0 -29.6523 -6.01172 -40.3555 -16.7148s-16.7148 -25.2168 -16.7148 -40.3516zM427.605 484.027v34.8388
c3.40058 44.03 40.0638 78.0606 84.2236 78.1729h42.585v-27.5977h-42.1445c-22.4326 0 -42.7852 -13.1406 -52.0137 -33.5879c-0.0224204 -0.0497942 -0.0328005 -0.102372 -0.0324224 -0.154297c0 -0.0519247 0.010002 -0.104503 0.0324224 -0.154297
c0.019077 -0.0423686 0.0454601 -0.079497 0.0770316 -0.110596c0.0310725 -0.0315151 0.0681576 -0.0578526 0.110468 -0.0769042c0.0497942 -0.0224204 0.102372 -0.0328005 0.154297 -0.0324224c0.0519247 0 0.104503 0.010002 0.154297 0.0324224
c7.2832 3.29102 15.1797 4.99023 23.1699 4.99023h28.3477c31.0977 -0.0078125 56.3047 -25.2188 56.3047 -56.3203c0 -31.0977 -25.207 -56.3086 -56.3047 -56.3164h-28.3477c-31.1016 0 -56.3164 25.2148 -56.3164 56.3164zM426.855 484.027
c0 -31.5156 25.5508 -57.0664 57.0664 -57.0664h28.3477c31.5117 0.0078125 57.0547 25.5547 57.0547 57.0664c0 31.5156 -25.543 57.0625 -57.0547 57.0703h-28.3477c-7.76379 0 -15.4414 -1.5843 -22.5676 -4.65471c9.2922 19.6637 29.1078 32.2485 50.9153 32.2485
h42.5195c0.204102 0 0.375 0.170898 0.375 0.375v28.3477c0 0.204102 -0.170898 0.375 -0.375 0.375h-42.9584l-0.00310276 5.62e-007l-0.000378423 -5.62e-007c-44.5547 -0.114258 -81.5449 -34.4521 -84.9707 -78.877
c0 -0.0121955 -0.000976562 -0.0243177 -0.000976562 -0.0363353v-34.8484zM317.387 229.285h-35.4297c-22.5938 0 -42.6768 14.3779 -49.957 35.7617c-7.28308 21.3806 -0.151527 45.0217 17.7328 58.8085c0.0071879 0.0049426 0.0142439 0.0101723 0.0211526 0.015691
c0.15918 0.12793 0.186523 0.367188 0.0585938 0.527344c-10.9648 13.7158 -13.0986 32.5029 -5.49023 48.3262c7.60938 15.8271 23.6152 25.8887 41.1777 25.8887h28.3438c17.5586 0 33.5693 -10.0615 41.1777 -25.8887
c7.60938 -15.8232 5.47461 -34.6104 -5.49023 -48.3262c-0.12793 -0.160156 -0.100586 -0.399414 0.0585938 -0.527344c0.00690891 -0.0055187 0.013965 -0.0107485 0.0211528 -0.0156912c17.8843 -13.7868 25.0158 -37.4279 17.7337 -58.8085
c-7.28125 -21.3838 -27.3643 -35.7617 -49.958 -35.7617zM317.387 228.535c22.9141 0 43.2842 14.583 50.667 36.2695c7.34677 21.5712 0.230133 45.4101 -17.7003 59.423c10.9386 13.9137 13.0233 32.8525 5.34385 48.8212
c-7.7334 16.0869 -24.0059 26.3145 -41.8535 26.3145h-28.3438c-17.8516 0 -34.1191 -10.2275 -41.8535 -26.3145c-7.67844 -15.9687 -5.59478 -34.9075 5.34385 -48.8212c-17.9304 -14.0129 -25.0471 -37.8517 -17.7013 -59.423
c7.38379 -21.6865 27.7539 -36.2695 50.668 -36.2695h35.4297zM519.355 399.363h-42.5195c-27.5977 -0.0078125 -49.9648 -22.3828 -49.9648 -49.9805s22.3672 -49.9727 49.9648 -49.9805h42.5195c6.85494 0 13.6332 1.40878 19.9151 4.13637
c-4.99571 -26.5845 -28.2266 -45.9059 -55.3487 -45.9059h-42.5195c-0.204102 0 -0.375 -0.170898 -0.375 -0.375v-28.3477c0 -0.204102 0.170898 -0.375 0.375 -0.375h42.5195c47.1758 0 85.418 38.2422 85.418 85.4141v35.4336
c0 27.6055 -22.3789 49.9805 -49.9844 49.9805zM519.355 398.613c27.1914 0 49.2344 -22.0391 49.2344 -49.2305v-35.4336c0 -46.7578 -37.9062 -84.6641 -84.668 -84.6641h-42.1445v27.5977h42.1445c27.7207 0 51.4316 19.9199 56.2129 47.2207
c0.00550614 0.0315073 0.00415415 0.0629189 0.00415415 0.0936268c0 0.0423164 -0.0132696 0.0846399 -0.0314979 0.125123c-0.0299579 0.0665345 -0.0779334 0.120146 -0.135727 0.157776c-0.0417412 0.0280413 -0.0895886 0.0479764 -0.141617 0.057068
c-0.0315073 0.00550614 -0.0629189 0.00415415 -0.0936268 0.00415415c-0.0423164 0 -0.0846399 -0.0132696 -0.125123 -0.0314979c-6.36523 -2.87305 -13.2695 -4.35742 -20.2559 -4.35742h-42.5195c-27.1836 0.0078125 -49.2148 22.0469 -49.2148 49.2305
s22.0312 49.2227 49.2148 49.2305h42.5195zM476.836 370.27h42.5195c11.5312 -0.0078125 20.8789 -9.35547 20.8789 -20.8867s-9.34766 -20.8789 -20.8789 -20.8867h-42.5195c-11.5312 0.0078125 -20.875 9.35547 -20.875 20.8867s9.34375 20.8789 20.875 20.8867z
M476.836 371.02c-11.9453 -0.0078125 -21.625 -9.69141 -21.625 -21.6367s9.67969 -21.6289 21.625 -21.6367h42.5195c11.9453 0.0078125 21.6289 9.69141 21.6289 21.6367s-9.68359 21.6289 -21.6289 21.6367h-42.5195zM257.042 469.381
c6.76948 -8.86474 17.2885 -14.0725 28.4584 -14.0725h28.3438c15.8594 0.00292969 28.7148 12.8594 28.7148 28.7188s-12.8555 28.7188 -28.7148 28.7227h-66.9453v84.2891h94.918v-27.5977h-66.9492c-0.204102 0 -0.375 -0.170898 -0.375 -0.375v-28.3438
c0 -0.204102 0.170898 -0.375 0.375 -0.375h38.9766c31.1016 -0.0078125 56.3047 -25.2188 56.3047 -56.3203c0 -31.0977 -25.2031 -56.3086 -56.3047 -56.3164h-28.3438c-21.6197 0 -41.7411 11.0151 -53.3901 29.2015zM257.458 470.072
c-0.0060302 0.00849287 -0.0123931 0.016678 -0.0190587 0.024548c-0.0621357 0.0742688 -0.149605 0.118574 -0.241207 0.129922c-0.0713488 0.00916783 -0.145761 -0.00173766 -0.213688 -0.035882l-25.568 -12.7869
c-0.0157934 -0.00699973 -0.0312401 -0.0151826 -0.0462176 -0.0245753c-0.0817772 -0.051746 -0.136669 -0.131689 -0.16033 -0.219871c-0.0173125 -0.0637178 -0.000495193 -0.132008 -0.000495193 -0.197441
c0.00929352 -0.0347492 0.0237556 -0.0685588 0.0436382 -0.100266c11.7529 -18.6113 32.2314 -29.9004 54.2471 -29.9004h28.3438c31.5156 0.0078125 57.0547 25.5547 57.0547 57.0664c0 31.5156 -25.5391 57.0625 -57.0547 57.0703h-38.6016v27.5938h66.9492
c0.204102 0 0.375 0.170898 0.375 0.375v28.3477c0 0.204102 -0.170898 0.375 -0.375 0.375h-95.668c-0.204102 0 -0.375 -0.170898 -0.375 -0.375v-85.0391c0 -0.204102 0.170898 -0.375 0.375 -0.375h67.3203c15.4453 -0.00390625 27.9648 -12.5273 27.9648 -27.9727
s-12.5195 -27.9658 -27.9648 -27.9688h-28.3438c-11.0347 0 -21.4203 5.19111 -28.0417 14.0132zM430.536 655.339l24.9317 12.4677c6.76948 -8.86481 17.2885 -14.0764 28.4546 -14.0764h28.3477c15.8594 0.00390625 28.7148 12.8633 28.7148 28.7227
s-12.8555 28.7188 -28.7148 28.7227h-27.9727v27.8164l28.2383 28.2344c0.037029 0.0372809 0.0645066 0.0810592 0.0824313 0.127984c0.0173532 0.042796 0.0269453 0.0892865 0.0260892 0.137641c0 0.0483526 -0.00959148 0.0948418 -0.0260877 0.137637
c-0.0179262 0.0469255 -0.0454043 0.0907053 -0.0824328 0.127988c-0.0372809 0.037029 -0.0810592 0.0645066 -0.127984 0.0824313c-0.042796 0.0173532 -0.0892865 0.0269453 -0.137641 0.0260892c-18.7721 0 -37.5443 0.000854492 -56.3164 0.000854492v27.5977h98.4609
v-27.8164l-29.6836 -29.6836c-0.0314825 -0.0316967 -0.0560607 -0.0680902 -0.0737338 -0.107121c-0.0111045 -0.0234575 -0.0198528 -0.0483745 -0.0258756 -0.0745197c-0.0145104 -0.0629815 0.00534904 -0.126451 0.00534904 -0.185256
c0.0163904 -0.0605979 0.0478105 -0.117588 0.0942603 -0.164354c0.0316967 -0.0314825 0.0680902 -0.0560607 0.107121 -0.0737338c0.0234575 -0.0111045 0.0483745 -0.0198528 0.0745197 -0.0258756c27.9121 -6.42969 46.5488 -32.7822 43.3164 -61.2412
c-3.23535 -28.459 -27.3174 -49.9561 -55.959 -49.9561h-28.3477c-21.6159 0 -41.7372 11.0151 -53.3862 29.2024zM429.635 655.388c0.00929352 -0.0347492 0.0237556 -0.0685588 0.0436382 -0.100266c11.7529 -18.6123 32.2314 -29.9014 54.2432 -29.9014h28.3477
c29.0225 0 53.4248 21.7842 56.7051 50.6221c3.24996 28.614 -15.3194 55.1253 -43.2374 61.9003l29.3175 29.3175c0.037029 0.0372809 0.0645066 0.0810592 0.0824313 0.127984c0.0173532 0.042796 0.0269453 0.0892865 0.0260892 0.137641l0.000854492 28.3477
c0 0.204102 -0.170898 0.375 -0.375 0.375h-99.2109c-0.204102 0 -0.375 -0.170898 -0.375 -0.375v-28.3477c0 -0.204102 0.170898 -0.375 0.375 -0.375h55.7851l-27.7069 -27.7031c-0.037029 -0.0372809 -0.0645066 -0.0810592 -0.0824313 -0.127984
c-0.0173532 -0.042796 -0.0269453 -0.0892865 -0.0260892 -0.137641l-0.000854492 -28.3477c0 -0.204102 0.170898 -0.375 0.375 -0.375h28.3477c15.4453 -0.00390625 27.9648 -12.5273 27.9648 -27.9727s-12.5195 -27.9688 -27.9648 -27.9727h-28.3477
c-11.0307 0 -21.4164 5.19501 -28.0378 14.0172c-0.0060302 0.00849287 -0.0123931 0.016678 -0.0190587 0.024548c-0.0621357 0.0742688 -0.149605 0.118574 -0.241207 0.129922c-0.0713488 0.00916783 -0.145761 -0.00173766 -0.213688 -0.035882l-25.568 -12.786
c-0.0157966 -0.00700065 -0.0312465 -0.0151849 -0.046227 -0.0245794c-0.0817772 -0.051746 -0.136669 -0.131689 -0.16033 -0.219871c-0.0173125 -0.0637178 -0.000495193 -0.132008 -0.000495193 -0.197441zM317.387 306.488
c13.4922 0 24.4297 -10.9375 24.4297 -24.4297c0 -13.4883 -10.9375 -24.4258 -24.4297 -24.4258h-35.4297c-13.4922 0 -24.4297 10.9375 -24.4297 24.4258c0 13.4922 10.9375 24.4297 24.4297 24.4297h35.4297zM317.387 307.238h-35.4297
c-13.9062 0 -25.1797 -11.2734 -25.1797 -25.1797c0 -13.9023 11.2734 -25.1758 25.1797 -25.1758h35.4297c13.9062 0 25.1797 11.2734 25.1797 25.1758c0 13.9062 -11.2734 25.1797 -25.1797 25.1797zM257.527 101.352v28.3477
c0.0078125 23.2695 18.875 42.1289 42.1445 42.1289s42.1367 -18.8594 42.1445 -42.1289v-28.3477c-0.0078125 -23.2695 -18.875 -42.1328 -42.1445 -42.1328s-42.1367 18.8633 -42.1445 42.1328zM256.777 101.352c0.0078125 -23.6836 19.2109 -42.8828 42.8945 -42.8828
s42.8867 19.1992 42.8945 42.8828v28.3477c-0.0078125 23.6836 -19.2109 42.8789 -42.8945 42.8789s-42.8867 -19.1953 -42.8945 -42.8789v-28.3477zM370.164 129.699v-28.3477c0 -38.9297 -31.5625 -70.4922 -70.4922 -70.4922s-70.4922 31.5625 -70.4922 70.4922v28.3477
c0 38.9297 31.5625 70.4873 70.4922 70.4873s70.4922 -31.5576 70.4922 -70.4873zM370.914 129.699c0 39.3438 -31.8984 71.2373 -71.2422 71.2373s-71.2422 -31.8936 -71.2422 -71.2373v-28.3477c0 -39.3438 31.8984 -71.2422 71.2422 -71.2422
s71.2422 31.8984 71.2422 71.2422v28.3477zM483.922 456.059c-15.4453 0.00292969 -27.9648 12.5234 -27.9648 27.9688s12.5195 27.9688 27.9648 27.9727h28.3477c15.4453 -0.00390625 27.9648 -12.5273 27.9648 -27.9727s-12.5195 -27.9658 -27.9648 -27.9688h-28.3477z
M483.922 455.309h28.3477c15.8594 0.00292969 28.7148 12.8594 28.7148 28.7188s-12.8555 28.7188 -28.7148 28.7227h-28.3477c-15.8594 -0.00390625 -28.7148 -12.8633 -28.7148 -28.7227s12.8555 -28.7158 28.7148 -28.7188zM143.868 371.005
c-0.0327823 0.00962572 -0.0672959 0.0148014 -0.102815 0.0148015h-113.012v27.5938h140.984v-35.7165l-80.1654 -133.612h-32.184l84.6981 141.166c0.0173272 0.0288786 0.0302262 0.0593386 0.0389094 0.0905444
c0.00962571 0.0327823 0.0148014 0.0672959 0.0148015 0.102815c0 0.0606725 -0.0151018 0.118411 -0.0416867 0.169599c-0.0306281 0.0612869 -0.0779905 0.114648 -0.139954 0.15169c-0.0288786 0.0173272 -0.0593386 0.0302262 -0.0905444 0.0389094zM143.103 370.27
l-84.6981 -141.166c-0.0173272 -0.0288786 -0.0302262 -0.0593386 -0.0389094 -0.0905444c-0.00962571 -0.0327823 -0.0148014 -0.0672959 -0.0148015 -0.102815c0 -0.0606725 0.0151018 -0.118411 0.0416867 -0.169599
c0.0306281 -0.0612869 0.0779905 -0.114648 0.139954 -0.15169c0.0288786 -0.0173272 0.0593386 -0.0302262 0.0905444 -0.0389094c0.0327823 -0.00962571 0.0672959 -0.0148014 0.102815 -0.0148015h33.0586c0.0606725 0 0.118411 0.0151018 0.169599 0.0416867
c0.0612869 0.0306281 0.114648 0.0779905 0.15169 0.139954l80.3281 133.883c0.0173272 0.0288786 0.0302262 0.0593386 0.0389094 0.0905444c0.00962571 0.0327823 0.0148014 0.0672959 0.0148015 0.102815v36.1953c0 0.204102 -0.170898 0.375 -0.375 0.375h-141.734
c-0.204102 0 -0.375 -0.170898 -0.375 -0.375v-28.3438c0 -0.204102 0.170898 -0.375 0.375 -0.375h112.724zM122.84 552.633c-0.0227851 0.0449907 -0.0548625 0.0858703 -0.0958595 0.119274c-0.0340195 0.0277196 -0.0718321 0.0483043 -0.111515 0.0619674
c-0.039199 0.014232 -0.0812495 0.0220174 -0.124813 0.0220169c-0.0615213 0 -0.120026 -0.0155273 -0.171742 -0.0428124c-0.0449907 -0.0227851 -0.0858703 -0.0548625 -0.119274 -0.0958595l-55.6055 -68.4336
c-0.0277196 -0.0340195 -0.0483043 -0.0718321 -0.0619674 -0.111515c-0.014232 -0.039199 -0.0220174 -0.0812495 -0.0220169 -0.124813c0 -0.0615213 0.0155273 -0.120026 0.0428124 -0.171742c0.0227851 -0.0449907 0.0548625 -0.0858703 0.0958595 -0.119274
c0.0340195 -0.0277196 0.0718321 -0.0483043 0.111515 -0.0619674c0.039199 -0.014232 0.0812495 -0.0220174 0.124813 -0.0220169h55.6055c0.204102 0 0.375 0.170898 0.375 0.375v68.4336c0 0.0615213 -0.0155273 0.120026 -0.0428124 0.171742zM122.133 551.405v-67.0026
h-54.4427zM30.7539 483.894l91.9322 113.145h27.7904v-113.012c0 -0.204102 0.170898 -0.375 0.375 -0.375h35.0586v-27.5938h-35.0586c-0.204102 0 -0.375 -0.170898 -0.375 -0.375v-27.9727h-27.5938v27.9727c0 0.204102 -0.170898 0.375 -0.375 0.375h-91.7539v27.8358z
M30.3789 455.309h91.7539v-27.9727c0 -0.204102 0.170898 -0.375 0.375 -0.375h28.3438c0.204102 0 0.375 0.170898 0.375 0.375v27.9727h35.0586c0.204102 0 0.375 0.170898 0.375 0.375v28.3438c0 0.204102 -0.170898 0.375 -0.375 0.375h-35.0586v113.012
c0 0.204102 -0.170898 0.375 -0.375 0.375h-28.3438c-0.0615213 0 -0.120026 -0.0155273 -0.171742 -0.0428124c-0.0449907 -0.0227851 -0.0858703 -0.0548625 -0.119274 -0.0958595l-92.1289 -113.387c-0.0277196 -0.0340195 -0.0483043 -0.0718321 -0.0619674 -0.111515
c-0.014232 -0.039199 -0.0220174 -0.0812495 -0.0220169 -0.124813v-28.3438c0 -0.204102 0.170898 -0.375 0.375 -0.375zM87.0742 625.387h28.3438c0.204102 0 0.375 0.170898 0.375 0.375v170.078c0 0.204102 -0.170898 0.375 -0.375 0.375h-28.3438
c-0.204102 0 -0.375 -0.170898 -0.375 -0.375v-170.078c0 -0.204102 0.170898 -0.375 0.375 -0.375zM87.4492 626.137v169.328h27.5938v-169.328h-27.5938zM313.844 335.586h-28.3438c-9.57812 0.00390625 -17.3359 7.76562 -17.3359 17.3398
s7.75781 17.3359 17.3359 17.3438h28.3438c9.57422 -0.0078125 17.3359 -7.76953 17.3359 -17.3438s-7.76172 -17.3359 -17.3359 -17.3398zM313.844 371.02h-28.3438c-9.99219 -0.0078125 -18.0859 -8.10547 -18.0859 -18.0938s8.09375 -18.0859 18.0859 -18.0898h28.3438
c9.98828 0.00390625 18.0859 8.10156 18.0859 18.0898s-8.09766 18.0859 -18.0859 18.0938zM30.7539 639.559h13.4258v-13.4219h-13.4258v13.4219zM30.0039 639.934v-14.1719c0 -0.204102 0.170898 -0.375 0.375 -0.375h14.1758c0.204102 0 0.375 0.170898 0.375 0.375
v14.1719c0 0.204102 -0.170898 0.375 -0.375 0.375h-14.1758c-0.204102 0 -0.375 -0.170898 -0.375 -0.375z" />
  </g>

</svg>
