<?xml version="1.0" standalone="no"?>
<!DOCTYPE svg PUBLIC "-//W3C//DTD SVG 1.1//EN" "http://www.w3.org/Graphics/SVG/1.1/DTD/svg11.dtd" >
<svg xmlns="http://www.w3.org/2000/svg" xmlns:xlink="http://www.w3.org/1999/xlink" version="1.1" viewBox="0 -158 1000 1000">
  <g transform="matrix(1 0 0 -1 0 842)">
   <path fill="currentColor"
d="M94.2656 747.61c-0.0349806 0.0100939 -0.0704574 0.0146983 -0.105469 0.0143437c-0.0350113 0 -0.0704882 -0.0042498 -0.105469 -0.0143437c-0.0619998 -0.0182899 -0.116029 -0.052128 -0.159089 -0.0960774
c-0.0438113 -0.0430132 -0.077542 -0.0969419 -0.0957935 -0.158805l-18.8984 -64.7891c-0.00734758 -0.0254632 -0.0117864 -0.0511893 -0.0135211 -0.0768074c0 -0.00947019 -0.00112739 -0.0190288 -0.00112739 -0.0286614
c0 -0.0838958 0.0288752 -0.162181 0.0770643 -0.225293c0.0469432 -0.0628656 0.113188 -0.111673 0.192467 -0.135059c0.0254632 -0.00734758 0.0511893 -0.0117864 0.0768074 -0.0135211c0.00947019 0 0.0190288 -0.00112739 0.0286614 -0.00112739h37.7969
c0.00963185 0 0.0191898 0.00112723 0.0286592 0.00112723c0.0256188 0 0.0513456 0.00617352 0.0768095 0.0135212c0.079278 0.023387 0.145523 0.0721956 0.192468 0.135061c0.0481865 0.0631122 0.0770611 0.141397 0.0770629 0.225291
c0 0.00963185 -0.00112723 0.0191898 -0.00112723 0.0286592c0 0.0256188 -0.00617352 0.0513456 -0.0135212 0.0768095l-18.8984 64.7891c-0.01825 0.0618643 -0.0519802 0.115793 -0.0957922 0.158804c-0.0430594 0.0439514 -0.0970888 0.0777899 -0.159091 0.0960787z
M128.344 625.766c0 -0.204102 0.170898 -0.375 0.375 -0.375h29.2197c0.00963185 0 0.0191898 0.00112723 0.0286592 0.00112723c0.0256188 0 0.0513456 0.00617352 0.0768095 0.0135212c0.079278 0.023387 0.145523 0.0721956 0.192468 0.135061
c0.0481865 0.0631122 0.0770611 0.141397 0.0770629 0.225291c0 0.00963185 -0.00112723 0.0191898 -0.00112723 0.0286592c0 0.0256188 -0.00617352 0.0513456 -0.0135212 0.0768095l-49.6064 170.078c-0.023387 0.079278 -0.0721956 0.145523 -0.135061 0.192468
c-0.0631122 0.0481865 -0.141397 0.0770611 -0.225291 0.0770629h-28.3438c-0.0838958 0 -0.162181 -0.0288752 -0.225293 -0.0770643c-0.0628656 -0.0469432 -0.111673 -0.113188 -0.135059 -0.192467l-49.6094 -170.078
c-0.00734758 -0.0254632 -0.0117864 -0.0511893 -0.0135211 -0.0768074c0 -0.00947019 -0.00112739 -0.0190288 -0.00112739 -0.0286614c0 -0.0838958 0.0288752 -0.162181 0.0770643 -0.225293c0.0469432 -0.0628656 0.113188 -0.111673 0.192467 -0.135059
c0.0254632 -0.00734758 0.0511893 -0.0117864 0.0768074 -0.0135211c0.00947019 0 0.0190288 -0.00112739 0.0286614 -0.00112739h29.2188c0.204102 0 0.375 0.170898 0.375 0.375s-0.170898 0.375 -0.375 0.375h-0.370581l8.05074 27.5977h53.7647l8.05074 -27.5977
h-0.374487c-0.204102 0 -0.375 -0.170898 -0.375 -0.375zM30.7539 597.043h70.4922c31.1055 0 56.3174 -25.2109 56.3174 -56.3164v-56.6914c0 -14.9395 -5.93457 -29.2617 -16.4932 -39.8252c-10.5615 -10.5625 -24.8887 -16.4951 -39.8242 -16.4951h-70.4922v169.328z
M30.3789 597.793c-0.204102 0 -0.375 -0.170898 -0.375 -0.375v-170.078c0 -0.204102 0.170898 -0.375 0.375 -0.375h70.8672c15.1348 0 29.6514 6.01074 40.3555 16.7158c10.6992 10.7021 16.7119 25.2158 16.7119 40.3545v56.6914
c0 31.5195 -25.5479 57.0664 -57.0674 57.0664h-70.8672zM59.1016 456.062v112.638h42.1445c15.4492 0 27.9727 -12.5234 27.9727 -27.9727v-56.6914c0 -7.41992 -2.94922 -14.5352 -8.19531 -19.7812c-5.24512 -5.24219 -12.3574 -8.19238 -19.7773 -8.19238h-42.1445z
M58.7266 455.312h42.5195c7.61914 0 14.9209 3.02832 20.3086 8.41113c5.38672 5.38672 8.41406 12.6934 8.41406 20.3125v56.6914c0 15.8633 -12.8594 28.7227 -28.7227 28.7227h-42.5195c-0.204102 0 -0.375 -0.170898 -0.375 -0.375v-113.388
c0 -0.204102 0.170898 -0.375 0.375 -0.375zM505.559 398.996c0 0.204102 -0.170898 0.375 -0.375 0.375h-28.3477c-0.204102 0 -0.375 -0.170898 -0.375 -0.375v-170.082c0 -0.204102 0.170898 -0.375 0.375 -0.375h28.3477c0.204102 0 0.375 0.170898 0.375 0.375v170.082
zM504.809 398.621v-169.332h-27.5977v169.332h27.5977zM285.911 123.805l69.7025 -92.938h-34.4971c-18.0327 24.0436 -36.0654 48.0872 -54.0981 72.1309c-0.0103918 0.0139534 -0.0218783 0.0272836 -0.0344397 0.0398713
c-0.0056803 0.0056894 -0.0115234 0.0111642 -0.0175148 0.0164231c-0.0487841 0.0430278 -0.106654 0.0709504 -0.167231 0.0839601c-0.101607 0.0222261 -0.211905 0.00311417 -0.300597 -0.0616199c-0.0156544 -0.0112754 -0.0305575 -0.0239025 -0.0445304 -0.0378748
c-0.00461264 -0.00460527 -0.00908422 -0.00931758 -0.0134138 -0.0141301l-9.56487 -10.4358c-0.0286237 -0.0312627 -0.0508751 -0.0664501 -0.0668087 -0.103816c-0.0204244 -0.0459093 -0.0318225 -0.0964048 -0.0318241 -0.149114v-61.4688h-27.5977v169.328h27.5977
v-69.2031c0 -0.0532221 0.0116206 -0.104186 0.03242 -0.150452c0.0201122 -0.0467404 0.0500308 -0.0898738 0.0896503 -0.125915c0.0312627 -0.0286237 0.0664501 -0.0508751 0.103816 -0.0668087c0.0459093 -0.0204244 0.0964048 -0.0318225 0.149114 -0.0318241
c0.0532221 0 0.104186 0.0116206 0.150452 0.03242c0.0467404 0.0201122 0.0898738 0.0500308 0.125915 0.0896503l63.6655 69.4561h34.4172l-69.5776 -75.9039l-0.00758864 -0.00838055c-0.0430278 -0.0487841 -0.0709504 -0.106654 -0.0839601 -0.167231
c-0.0222261 -0.101607 -0.00311418 -0.211905 0.0616199 -0.300597c0 -0.00337097 0.00747081 -0.00670711 0.00747081 -0.0100075zM286.693 124.011l69.9464 76.3062c0.0286237 0.0312627 0.0508751 0.0664501 0.0668087 0.103816
c0.0204244 0.0459093 0.0318225 0.0964048 0.0318241 0.149114c0 0.0532221 -0.0116206 0.104186 -0.03242 0.150452c-0.0201122 0.0467404 -0.0500308 0.0898738 -0.0896503 0.125915c-0.0312627 0.0286237 -0.0664501 0.0508751 -0.103816 0.0668087
c-0.0459093 0.0204244 -0.0964048 0.0318225 -0.149114 0.0318241h-35.4336c-0.0532221 0 -0.104186 -0.0116206 -0.150452 -0.03242c-0.0467404 -0.0201122 -0.0898738 -0.0500308 -0.125915 -0.0896503l-63.126 -68.8675v68.6146c0 0.204102 -0.170898 0.375 -0.375 0.375
h-28.3477c-0.204102 0 -0.375 -0.170898 -0.375 -0.375v-170.078c0 -0.204102 0.170898 -0.375 0.375 -0.375h28.3477c0.204102 0 0.375 0.170898 0.375 0.375v61.6984l9.16258 9.9969l53.94 -71.9199c0.0373419 -0.0501875 0.08565 -0.0882209 0.13939 -0.113316
c0.0488684 -0.0237139 0.103343 -0.037076 0.160415 -0.0370746h35.4336c0.0414809 0 0.0815903 0.00705897 0.119173 0.0200198c0.0371608 0.01225 0.0728217 0.0305693 0.105437 0.0551755c0.0501875 0.0373419 0.0882209 0.08565 0.113316 0.13939
c0.0237138 0.0488684 0.037076 0.103343 0.0370746 0.160415c0 0.0414809 -0.00705897 0.0815903 -0.0200198 0.119173c-0.01225 0.0371608 -0.0305693 0.0728217 -0.0551755 0.105437zM30.0039 83.6406c0.00390625 -29.5586 23.9688 -53.5195 53.5273 -53.5195
s53.5195 23.9609 53.5234 53.5195v88.207h20.8838c0.204102 0 0.375 0.170898 0.375 0.375v28.3477c0 0.204102 -0.170898 0.375 -0.375 0.375h-113.384c-0.204102 0 -0.375 -0.170898 -0.375 -0.375v-28.3477c0 -0.204102 0.170898 -0.375 0.375 -0.375h63.4023v-88.207
c0 -13.4883 -10.9375 -24.4258 -24.4258 -24.4258c-13.4922 0 -24.4258 10.9375 -24.4297 24.4258v3.54297c0 0.204102 -0.170898 0.375 -0.375 0.375h-28.3477c-0.204102 0 -0.375 -0.170898 -0.375 -0.375v-3.54297zM30.7539 83.6406v3.16797h27.5977v-3.16797
c0.00390625 -13.9023 11.2734 -25.1758 25.1797 -25.1758c13.9023 0 25.1758 11.2734 25.1758 25.1758v88.582c0 0.204102 -0.170898 0.375 -0.375 0.375h-63.4023v27.5977h112.634v-27.5977h-20.8838c-0.204102 0 -0.375 -0.170898 -0.375 -0.375v-88.582
c-0.00390625 -29.1445 -23.6289 -52.7695 -52.7734 -52.7695s-52.7734 23.625 -52.7773 52.7695zM306.758 626.141h-77.5781v169.328h77.5781c20.0039 0 38.0186 -12.1035 45.5781 -30.6221c7.56415 -18.5188 3.16441 -39.7737 -11.1204 -53.7728l-0.00408121 -0.00402118
c-0.0632512 -0.063129 -0.0989657 -0.145099 -0.106812 -0.229502c0 -0.0118759 -0.00165589 -0.0237949 -0.00165589 -0.0357115c0 -0.0119165 0.00165588 -0.0238355 0.00165588 -0.0357113c0.00784633 -0.0844027 0.0435608 -0.166373 0.106812 -0.229502
l0.00408086 -0.00402084c14.2848 -13.999 18.6836 -35.2501 11.1214 -53.7689c-7.56055 -18.5234 -25.5752 -30.626 -45.5791 -30.626zM306.758 625.391c20.3086 0 38.5986 12.2881 46.2725 31.0928c7.63165 18.6832 3.26734 40.1071 -11.02 54.3213
c14.2873 14.2142 18.6507 35.642 11.021 54.3252c-7.6748 18.8018 -25.9648 31.0889 -46.2734 31.0889h-77.9531c-0.204102 0 -0.375 -0.170898 -0.375 -0.375v-170.078c0 -0.204102 0.170898 -0.375 0.375 -0.375h77.9531zM257.527 725.355v41.7695h49.2305
c11.5312 -0.0078125 20.875 -9.35547 20.875 -20.8867s-9.34375 -20.8789 -20.875 -20.8828h-49.2305zM256.777 724.98c0 -0.204102 0.170898 -0.375 0.375 -0.375h49.6055c11.9453 0.00390625 21.625 9.6875 21.625 21.6328s-9.67969 21.6289 -21.625 21.6367h-49.6055
c-0.204102 0 -0.375 -0.170898 -0.375 -0.375v-42.5195zM256.777 696.633v-42.5195c0 -0.204102 0.170898 -0.375 0.375 -0.375h49.6055c11.9453 0.00390625 21.6289 9.6875 21.6289 21.6328s-9.68359 21.6328 -21.6289 21.6367h-49.6055
c-0.204102 0 -0.375 -0.170898 -0.375 -0.375zM257.527 696.258h49.2305c11.5312 -0.00390625 20.8789 -9.35547 20.8789 -20.8867s-9.34766 -20.8789 -20.8789 -20.8828h-49.2305v41.7695zM108.05 795.469l49.3877 -169.328h-27.5625l-8.1909 28.0781
c-0.023387 0.079278 -0.0721956 0.145523 -0.135061 0.192468c-0.0631122 0.0481865 -0.141397 0.0770611 -0.225291 0.0770629h-54.3281c-0.0838958 0 -0.162181 -0.0288752 -0.225293 -0.0770643c-0.0628656 -0.0469432 -0.111673 -0.113188 -0.135059 -0.192467
l-8.1909 -28.0781h-27.5654l49.3906 169.328h27.7803zM112.558 682.836h-36.7959l18.3979 63.0732zM129.594 289.527h-27.9727v24.0547h55.9424v-35.0586c0 -13.0566 -5.18457 -25.5791 -14.4189 -34.8125c-9.23438 -9.23438 -21.7559 -14.4219 -34.8125 -14.4219h-28.3438
c-13.0566 0 -25.582 5.1875 -34.8125 14.4209c-9.23535 9.23535 -14.4219 21.7568 -14.4219 34.8135v70.8633c0 27.1914 22.043 49.2344 49.2344 49.2344h28.3438c27.1914 0 49.2314 -22.043 49.2314 -49.2344v-6.71094h-27.5947v6.71094
c0 11.9492 -9.6875 21.6367 -21.6367 21.6367h-28.3438c-11.9492 0 -21.6367 -9.6875 -21.6367 -21.6367v-70.8633c0 -11.9492 9.6875 -21.6367 21.6367 -21.6367h28.3438c5.74023 0 11.2412 2.28125 15.3008 6.33691c4.05371 4.05762 6.33594 9.55957 6.33594 15.2998
v10.6289c0 0.204102 -0.170898 0.375 -0.375 0.375zM129.219 288.777v-10.2539c0 -5.54102 -2.20215 -10.8516 -6.11719 -14.7705c-3.91699 -3.91309 -9.22852 -6.11621 -14.7695 -6.11621h-28.3438c-11.5352 0 -20.8867 9.35156 -20.8867 20.8867v70.8633
c0 11.5352 9.35156 20.8867 20.8867 20.8867h28.3438c11.5352 0 20.8867 -9.35156 20.8867 -20.8867v-7.08594c0 -0.204102 0.170898 -0.375 0.375 -0.375h28.3447c0.204102 0 0.375 0.170898 0.375 0.375v7.08594c0 27.6055 -22.376 49.9844 -49.9814 49.9844h-28.3438
c-27.6055 0 -49.9844 -22.3789 -49.9844 -49.9844v-70.8633c0 -13.2559 5.2666 -25.9688 14.6406 -35.3428c9.37109 -9.37598 22.0879 -14.6416 35.3438 -14.6416h28.3438c13.2559 0 25.9688 5.26562 35.3438 14.6406c9.375 9.37598 14.6377 22.0879 14.6377 35.3438
v35.4336c0 0.204102 -0.170898 0.375 -0.375 0.375h-56.6924c-0.204102 0 -0.375 -0.170898 -0.375 -0.375v-24.8047c0 -0.204102 0.170898 -0.375 0.375 -0.375h27.9727zM328.395 328.129v70.4922h27.5938v-169.332h-27.5938v70.4922
c0 0.204102 -0.170898 0.375 -0.375 0.375h-70.8672c-0.204102 0 -0.375 -0.170898 -0.375 -0.375v-70.4922h-27.5977v169.332h27.5977v-70.4922c0 -0.204102 0.170898 -0.375 0.375 -0.375h70.8672c0.204102 0 0.375 0.170898 0.375 0.375zM327.645 328.504h-70.1172
v70.4922c0 0.204102 -0.170898 0.375 -0.375 0.375h-28.3477c-0.204102 0 -0.375 -0.170898 -0.375 -0.375v-170.082c0 -0.204102 0.170898 -0.375 0.375 -0.375h28.3477c0.204102 0 0.375 0.170898 0.375 0.375v70.4922h70.1172v-70.4922
c0 -0.204102 0.170898 -0.375 0.375 -0.375h28.3438c0.204102 0 0.375 0.170898 0.375 0.375v170.082c0 0.204102 -0.170898 0.375 -0.375 0.375h-28.3438c-0.204102 0 -0.375 -0.170898 -0.375 -0.375v-70.4922zM327.645 526.18v-27.5977h-70.4922
c-0.204102 0 -0.375 -0.170898 -0.375 -0.375v-42.5205c0 -0.204102 0.170898 -0.375 0.375 -0.375h98.8359v-27.5967h-126.809v169.328h126.809v-27.5938h-98.8359c-0.204102 0 -0.375 -0.170898 -0.375 -0.375v-42.5195c0 -0.204102 0.170898 -0.375 0.375 -0.375h70.4922
zM328.02 526.93h-70.4922v41.7695h98.8359c0.204102 0 0.375 0.170898 0.375 0.375v28.3438c0 0.204102 -0.170898 0.375 -0.375 0.375h-127.559c-0.204102 0 -0.375 -0.170898 -0.375 -0.375v-170.078c0 -0.204102 0.170898 -0.375 0.375 -0.375h127.559
c0.204102 0 0.375 0.170898 0.375 0.375v28.3467c0 0.204102 -0.170898 0.375 -0.375 0.375h-98.8359v41.7705h70.4922c0.204102 0 0.375 0.170898 0.375 0.375v28.3477c0 0.204102 -0.170898 0.375 -0.375 0.375zM526.816 746.238
c0 11.9492 -9.68359 21.6367 -21.6328 21.6367h-28.3477c-11.9492 0 -21.6328 -9.6875 -21.6328 -21.6367v-70.8672c0 -11.9453 9.68359 -21.6328 21.6328 -21.6328h28.3477c11.9492 0 21.6328 9.6875 21.6328 21.6328v6.71484h27.5977v-6.71484
c0 -13.0566 -5.18652 -25.5781 -14.418 -34.8086c-9.23438 -9.23438 -21.7559 -14.4219 -34.8125 -14.4219h-28.3477c-13.0566 0 -25.5771 5.1875 -34.8086 14.4209c-9.23535 9.23145 -14.4219 21.7529 -14.4219 34.8096v70.8672c0 27.1914 22.043 49.2305 49.2305 49.2305
h28.3477c27.1914 0 49.2305 -22.0391 49.2305 -49.2305v-6.71094h-27.5977v6.71094zM526.441 738.777h28.3477c0.204102 0 0.375 0.170898 0.375 0.375v7.08594c0 27.6055 -22.375 49.9805 -49.9805 49.9805h-28.3477c-27.6016 0 -49.9805 -22.375 -49.9805 -49.9805
v-70.8672c0 -13.2559 5.2666 -25.9688 14.6406 -35.3389c9.37207 -9.37598 22.084 -14.6416 35.3398 -14.6416h28.3477c13.2559 0 25.9688 5.26562 35.3438 14.6406c9.37207 9.37109 14.6367 22.084 14.6367 35.3398v7.08984c0 0.204102 -0.170898 0.375 -0.375 0.375
h-28.3477c-0.204102 0 -0.375 -0.170898 -0.375 -0.375v-7.08984c0 -11.5312 -9.34766 -20.8828 -20.8828 -20.8828h-28.3477c-11.5352 0 -20.8828 9.35156 -20.8828 20.8828v70.8672c0 11.5352 9.34766 20.8867 20.8828 20.8867h28.3477
c11.5352 0 20.8828 -9.35156 20.8828 -20.8867v-7.08594c0 -0.204102 0.170898 -0.375 0.375 -0.375zM555.164 597.418c0 0.204102 -0.170898 0.375 -0.375 0.375h-127.559c-0.204102 0 -0.375 -0.170898 -0.375 -0.375v-170.078c0 -0.204102 0.170898 -0.375 0.375 -0.375
h28.3477c0.204102 0 0.375 0.170898 0.375 0.375v70.4922h70.4883c0.204102 0 0.375 0.170898 0.375 0.375v28.3477c0 0.204102 -0.170898 0.375 -0.375 0.375h-70.4883v41.7695h98.8359c0.204102 0 0.375 0.170898 0.375 0.375v28.3438zM554.414 597.043v-27.5938h-98.8359
c-0.204102 0 -0.375 -0.170898 -0.375 -0.375v-42.5195c0 -0.204102 0.170898 -0.375 0.375 -0.375h70.4883v-27.5977h-70.4883c-0.204102 0 -0.375 -0.170898 -0.375 -0.375v-70.4922h-27.5977v169.328h126.809zM554.414 30.8672h-126.809v169.328h27.5977v-141.359
c0 -0.204102 0.170898 -0.375 0.375 -0.375h98.8359v-27.5938zM554.789 30.1172c0.204102 0 0.375 0.170898 0.375 0.375v28.3438c0 0.204102 -0.170898 0.375 -0.375 0.375h-98.8359v141.359c0 0.204102 -0.170898 0.375 -0.375 0.375h-28.3477
c-0.204102 0 -0.375 -0.170898 -0.375 -0.375v-170.078c0 -0.204102 0.170898 -0.375 0.375 -0.375h127.559zM427.605 242.715h13.4219v-13.4258h-13.4219v13.4258zM426.855 243.09v-14.1758c0 -0.204102 0.170898 -0.375 0.375 -0.375h14.1719
c0.204102 0 0.375 0.170898 0.375 0.375v14.1758c0 0.204102 -0.170898 0.375 -0.375 0.375h-14.1719c-0.204102 0 -0.375 -0.170898 -0.375 -0.375z" />
  </g>

</svg>
