<?xml version="1.0" standalone="no"?>
<!DOCTYPE svg PUBLIC "-//W3C//DTD SVG 1.1//EN" "http://www.w3.org/Graphics/SVG/1.1/DTD/svg11.dtd" >
<svg xmlns="http://www.w3.org/2000/svg" xmlns:xlink="http://www.w3.org/1999/xlink" version="1.1" viewBox="0 -158 1000 1000">
  <g transform="matrix(1 0 0 -1 0 842)">
   <path fill="currentColor"
d="M93.9717 734.777c0.0587253 -0.0342564 0.123881 -0.0502017 0.188477 -0.0496566c0.0645953 0 0.129751 0.0154002 0.188477 0.0496566c0.0285992 0.0167487 0.0541817 0.0368976 0.0765425 0.0596507c0.0225687 0.0222526 0.0425608 0.0476846 0.0591997 0.0760915
l35.3248 60.5557h27.7543v-169.328h-27.5947v113.445c0 0.0655172 -0.0176099 0.127613 -0.0482747 0.181733c-0.031386 0.0575501 -0.0777869 0.107455 -0.137272 0.142485c-0.0339199 0.0196773 -0.0699256 0.0333128 -0.106699 0.0412591
c-0.0266983 0.00622475 -0.054406 0.0095221 -0.0827542 0.0095221c-0.0655172 0 -0.127613 -0.0176099 -0.181733 -0.0482747c-0.0575501 -0.031386 -0.107455 -0.0777869 -0.142485 -0.137272l-24.9503 -42.7676h-20.3181l-24.9503 42.7676
c-0.0350304 0.0594855 -0.0849347 0.105886 -0.142485 0.137272c-0.0541201 0.0306654 -0.116216 0.0482754 -0.181734 0.048275c-0.0283493 0 -0.0560579 -0.00952273 -0.082757 -0.00952273c-0.0367725 -0.00794588 -0.0727772 -0.0215813 -0.106696 -0.0412585
c-0.0594855 -0.0350304 -0.105886 -0.0849347 -0.137272 -0.142485c-0.0306654 -0.0541201 -0.0482754 -0.116216 -0.048275 -0.181734v-113.445h-27.5977v169.328h27.7572l35.3248 -60.5557c0.0166365 -0.0284076 0.0366278 -0.0538388 0.0591973 -0.0760891
c0.0223595 -0.0227559 0.0479428 -0.0429056 0.0765449 -0.0596531zM292.754 130.038c-0.0535203 0.0269032 -0.111067 0.0393793 -0.167969 0.0389768c-0.056902 0 -0.114448 -0.0120736 -0.167969 -0.0389768
c-0.0368742 -0.0183385 -0.0694084 -0.0423309 -0.0970979 -0.0704479c-0.0278786 -0.0275683 -0.0516752 -0.0599158 -0.0698943 -0.0965443l-24.7107 -49.4213l-10.0139 120.152c0 0.0325278 -0.00988709 0.0634278 -0.0206178 0.0923877
c-0.0521138 0.145057 -0.192434 0.251362 -0.353406 0.251362h-28.3361c-0.0141477 0 -0.0284486 -0.000976562 -0.0428517 -0.000976562c-0.105267 -0.00910963 -0.197945 -0.062806 -0.260499 -0.140837c-0.0391198 -0.0485633 -0.0665697 -0.106739 -0.0777122 -0.169892
c-0.00549727 -0.0306222 -0.00456257 -0.0623276 -0.00456257 -0.094544l14.1758 -170.078c0 -0.0325278 0.00988709 -0.0634278 0.0206178 -0.0923877c0.0521138 -0.145057 0.192434 -0.251362 0.353406 -0.251362h28.3438
c0.0693261 0 0.134822 0.0197169 0.191091 0.0537539c0.0602115 0.0352865 0.111079 0.0873445 0.14387 0.153277l20.9267 41.8496l20.9229 -41.8496c0.0327905 -0.0659336 0.0836577 -0.117991 0.143869 -0.153277
c0.0562689 -0.0340381 0.121765 -0.0537552 0.191092 -0.0537543h28.3477c0.160974 0 0.301295 0.106306 0.353407 0.251365c0.0107313 0.0289586 0.0178031 0.0598577 0.0206168 0.0923848l14.1719 170.078c0 0.0322157 -0.00456242 0.0639205 -0.00456242 0.0945431
c-0.0111435 0.0631523 -0.0385935 0.121328 -0.0777127 0.169893c-0.0625547 0.0780308 -0.155232 0.131727 -0.260498 0.140837c-0.0144031 0 -0.028704 0.000976562 -0.0428517 0.000976562h-28.3321c-0.160974 0 -0.301295 -0.106306 -0.353407 -0.251365
c-0.0107313 -0.0289586 -0.0178031 -0.0598577 -0.0206168 -0.0923848l-10.0139 -120.152l-24.7107 49.4213c-0.0182167 0.0366292 -0.0420124 0.068976 -0.0698918 0.0965418c-0.0276882 0.0281199 -0.0602233 0.0521131 -0.0971004 0.0704503zM292.754 73.3467
c-0.0535203 0.0269032 -0.111067 0.0393793 -0.167969 0.0389768c-0.056902 0 -0.114448 -0.0120736 -0.167969 -0.0389768c-0.0368742 -0.0183385 -0.0694084 -0.0423309 -0.0970979 -0.0704479c-0.0278786 -0.0275683 -0.0516752 -0.0599158 -0.0698943 -0.0965443
l-21.1582 -42.3125h-27.7669l-14.1133 169.328h27.5944l10.0964 -121.141c0.00563205 -0.0650815 0.0283067 -0.125351 0.0632368 -0.176666c0.0347981 -0.0528461 0.083121 -0.0973549 0.142818 -0.127045c0.0238253 -0.0119764 0.0484485 -0.0210937 0.0734577 -0.027488
c0.0400703 -0.0108381 0.082454 -0.0150977 0.125761 -0.0115745c0.0650815 0.00563205 0.125351 0.0283067 0.176666 0.0632368c0.0528461 0.0347981 0.0973549 0.083121 0.127045 0.142818l24.9736 49.9473l24.9736 -49.9473
c0.0296892 -0.0596977 0.0741975 -0.10802 0.127044 -0.142817c0.0513141 -0.0349319 0.111584 -0.0576069 0.176667 -0.0632377c0.043306 -0.00352249 0.0856887 0.000736738 0.125758 0.0115738c0.02501 0.00639491 0.0496341 0.0155124 0.0734604 0.0274887
c0.0596977 0.0296892 0.10802 0.0741975 0.142817 0.127044c0.0349319 0.0513141 0.0576069 0.111584 0.0632377 0.176667l10.0964 121.141h27.5905l-14.1094 -169.328h-27.7708l-21.1543 42.3125c-0.0182167 0.0366292 -0.0420124 0.068976 -0.0698918 0.0965418
c-0.0276882 0.0281199 -0.0602233 0.0521131 -0.0971004 0.0704503zM319.851 459.769c0.0295072 0.0587005 0.0416593 0.122244 0.0384994 0.184469c0 0.0732949 -0.0269396 0.146192 -0.0736556 0.208109c-0.0160019 0.0215065 -0.0340175 0.0407811 -0.0536128 0.0577605
c-0.0232651 0.0204951 -0.0494194 0.0382687 -0.0782232 0.0525911l-16.6731 8.34134l11.0009 22.0056l13.8402 -6.91819c0.021729 -0.0109226 0.0441216 -0.0194671 0.0668655 -0.0257365c0.0322711 -0.00930601 0.0662017 -0.0143033 0.101103 -0.0143026
c0.0693261 0 0.134822 0.0197169 0.191091 0.0537539c0.0602115 0.0352865 0.111079 0.0873445 0.14387 0.153277c0.0109226 0.021729 0.0194671 0.0441216 0.0257365 0.0668655c0.00930601 0.0322711 0.0143033 0.0662017 0.0143026 0.101103v63.7764
c0 11.9502 -9.6875 21.6377 -21.6367 21.6377h-28.3477c-11.9453 0 -21.6328 -9.6875 -21.6328 -21.6377v-70.8623c0 -11.9492 9.6875 -21.6377 21.6328 -21.6377h28.3477c4.68262 0 9.23828 1.51953 12.9824 4.3252
c0.0215065 0.0160019 0.0407811 0.0340175 0.0577605 0.0536128c0.0204951 0.0232651 0.0382687 0.0494194 0.0525911 0.0782232zM427.605 292.695v105.926h27.5977v-105.926c0.0078125 -19.7695 16.0352 -35.793 35.8086 -35.793c19.7695 0 35.7969 16.0234 35.8047 35.793
v105.926h27.5977v-105.926c-0.00390625 -35.0117 -28.3906 -63.3945 -63.4023 -63.3945c-35.0156 0 -63.4023 28.3828 -63.4062 63.3945zM426.855 292.695c0.00390625 -35.4258 28.7266 -64.1445 64.1562 -64.1445c35.4258 0 64.1484 28.7188 64.1523 64.1445v106.301
c0 0.204102 -0.170898 0.375 -0.375 0.375h-28.3477c-0.204102 0 -0.375 -0.170898 -0.375 -0.375v-106.301c-0.0078125 -19.3555 -15.6992 -35.043 -35.0547 -35.043c-19.3594 0 -35.0508 15.6875 -35.0586 35.043v106.301c0 0.204102 -0.170898 0.375 -0.375 0.375
h-28.3477c-0.204102 0 -0.375 -0.170898 -0.375 -0.375v-106.301zM327.645 680.256l-70.1719 115.782c-0.0351911 0.058326 -0.0847335 0.103605 -0.141626 0.134097c-0.0533986 0.0296104 -0.114395 0.0465674 -0.178687 0.0465674h-28.3477
c-0.204102 0 -0.375 -0.170898 -0.375 -0.375v-170.078c0 -0.204102 0.170898 -0.375 0.375 -0.375h28.3477c0.204102 0 0.375 0.170898 0.375 0.375v115.588l70.1719 -115.782c0.0351911 -0.058326 0.0847335 -0.103605 0.141626 -0.134097
c0.0533986 -0.0296104 0.114395 -0.0465674 0.178687 -0.0465674h28.3438c0.204102 0 0.375 0.170898 0.375 0.375v170.078c0 0.204102 -0.170898 0.375 -0.375 0.375h-28.3438c-0.204102 0 -0.375 -0.170898 -0.375 -0.375v-115.588zM328.348 678.735
c0.0296104 0.0533986 0.0465674 0.114395 0.0465674 0.178687v116.555h27.5938v-169.328h-27.7579l-70.7577 116.749c-0.0351911 0.058326 -0.0847335 0.103605 -0.141626 0.134097c-0.0533986 0.0296104 -0.114395 0.0465674 -0.178687 0.0465674
c-0.038439 0 -0.0757003 -0.00606163 -0.110864 -0.0172653c-0.0287639 -0.00876839 -0.0568108 -0.0211869 -0.0834719 -0.0374222c-0.058326 -0.0351911 -0.103605 -0.0847335 -0.134097 -0.141626c-0.0296104 -0.0533986 -0.0465674 -0.114395 -0.0465674 -0.178687
v-116.555h-27.5977v169.328h27.7618l70.7577 -116.749c0.0351911 -0.058326 0.0847335 -0.103605 0.141626 -0.134097c0.0533986 -0.0296104 0.114395 -0.0465674 0.178687 -0.0465674c0.038439 0 0.0757003 0.00606163 0.110864 0.0172653
c0.0287639 0.00876839 0.0568108 0.0211869 0.0834719 0.0374222c0.058326 0.0351911 0.103605 0.0847335 0.134097 0.141626zM104.717 696.306c0.0575501 0.031386 0.107455 0.0777869 0.142485 0.137272l24.3594 41.7546v-112.432
c0 -0.204102 0.170898 -0.375 0.375 -0.375h28.3447c0.204102 0 0.375 0.170898 0.375 0.375v170.078c0 0.204102 -0.170898 0.375 -0.375 0.375h-28.3447c-0.0709399 0 -0.137869 -0.0206455 -0.195003 -0.0561569
c-0.0519271 -0.0312341 -0.0969008 -0.0751842 -0.129215 -0.130367l-35.1094 -60.1864l-35.1094 60.1864c-0.0323163 0.0551816 -0.0772911 0.0991323 -0.129218 0.130368c-0.0571353 0.0355083 -0.124063 0.0561531 -0.195 0.056155h-28.3477
c-0.204102 0 -0.375 -0.170898 -0.375 -0.375v-170.078c0 -0.204102 0.170898 -0.375 0.375 -0.375h28.3477c0.204102 0 0.375 0.170898 0.375 0.375v112.432l24.3594 -41.7546c0.0350304 -0.0594855 0.0849347 -0.105886 0.142485 -0.137272
c0.0541201 -0.0306654 0.116216 -0.0482754 0.181734 -0.048275h20.75c0.0655172 0 0.127613 0.0176099 0.181733 0.0482747zM306.383 370.648v-141.359h-27.5977v141.359c0 0.204102 -0.170898 0.375 -0.375 0.375h-49.2305v27.5977h126.809v-27.5977h-49.2305
c-0.204102 0 -0.375 -0.170898 -0.375 -0.375zM307.133 370.273h49.2305c0.204102 0 0.375 0.170898 0.375 0.375v28.3477c0 0.204102 -0.170898 0.375 -0.375 0.375h-127.559c-0.204102 0 -0.375 -0.170898 -0.375 -0.375v-28.3477
c0 -0.204102 0.170898 -0.375 0.375 -0.375h49.2305v-141.359c0 -0.204102 0.170898 -0.375 0.375 -0.375h28.3477c0.204102 0 0.375 0.170898 0.375 0.375v141.359zM108.05 30.8672h-27.7803l-49.3906 169.328h28.7451l34.1753 -117.168
c0.01825 -0.0618643 0.0519802 -0.115793 0.0957922 -0.158804c0.0430594 -0.0439514 0.0970888 -0.0777899 0.159091 -0.0960787c0.0349806 -0.0100939 0.0704574 -0.0146983 0.105469 -0.0143437c0.0350113 0 0.0704882 0.0042498 0.105469 0.0143437
c0.0619998 0.0182899 0.116029 0.052128 0.159089 0.0960774c0.0438113 0.0430132 0.077542 0.0969419 0.0957935 0.158805l34.1714 117.168h28.7461zM108.557 30.1943c0.0628656 0.0469432 0.111673 0.113188 0.135059 0.192467l49.6064 170.078
c0.00734758 0.0254632 0.0117864 0.0511893 0.0135211 0.0768074c0 0.00947019 0.00112739 0.0190288 0.00112739 0.0286614c0 0.0838958 -0.0288752 0.162181 -0.0770643 0.225293c-0.0469432 0.0628656 -0.113188 0.111673 -0.192467 0.135059
c-0.0254632 0.00734758 -0.0511893 0.0117864 -0.0768074 0.0135211c-0.00947019 0 -0.0190288 0.00112738 -0.0286614 0.00112738h-29.5283c-0.0838958 0 -0.162181 -0.0288752 -0.225293 -0.0770643c-0.0628656 -0.0469432 -0.111673 -0.113188 -0.135059 -0.192467
l-33.8897 -116.202l-33.8935 116.202c-0.023387 0.079278 -0.0721956 0.145523 -0.135061 0.192468c-0.0631122 0.0481865 -0.141397 0.0770611 -0.225291 0.0770629h-29.5273c-0.00963185 0 -0.0191898 -0.00112723 -0.0286592 -0.00112723
c-0.0256188 0 -0.0513456 -0.00617352 -0.0768095 -0.0135212c-0.079278 -0.023387 -0.145523 -0.0721956 -0.192468 -0.135061c-0.0481865 -0.0631122 -0.0770611 -0.141397 -0.0770629 -0.225291c0 -0.00963185 0.00112723 -0.0191898 0.00112723 -0.0286592
c0 -0.0256188 0.00617351 -0.0513456 0.0135212 -0.0768095l49.6094 -170.078c0.023387 -0.079278 0.0721956 -0.145523 0.135061 -0.192468c0.0631122 -0.0481865 0.141397 -0.0770611 0.225291 -0.0770629h28.3438c0.0838958 0 0.162181 0.0288752 0.225293 0.0770643z
M489.859 89.62c-0.0651574 0 -0.13124 -0.0131591 -0.191116 -0.0467158c-0.0351067 -0.0197595 -0.0658041 -0.0446066 -0.0917128 -0.073129c-0.0183887 -0.0196383 -0.0348502 -0.0415261 -0.0489122 -0.0655428l-28.0742 -48.125
c-0.0181427 -0.0311018 -0.0311493 -0.0640073 -0.0392892 -0.0976783c-0.00749805 -0.0291617 -0.0114932 -0.0595917 -0.0114921 -0.0907983c0 -0.0709399 0.0206455 -0.137869 0.0561569 -0.195003c0.0312341 -0.0519271 0.0751842 -0.0969008 0.130367 -0.129215
c0.0311018 -0.0181427 0.0640073 -0.0311493 0.0976783 -0.0392892c0.0291617 -0.00749805 0.0595917 -0.0114932 0.0907983 -0.0114921h11.1406v-9.87891h-45.0461l47.5217 84.4805c0.0322661 0.0575729 0.0473174 0.120884 0.0468467 0.183594
c0 0.0627097 -0.0145806 0.126021 -0.0468467 0.183594l-47.5217 84.4805h31.0298l31.783 -56.5039c0.0171769 -0.0305181 0.0381983 -0.0577043 0.0621359 -0.0813101c0.0236312 -0.0239825 0.0508538 -0.0450419 0.0814188 -0.0622446
c0.0575729 -0.0322661 0.120884 -0.0473174 0.183594 -0.0468467c0.0627097 0 0.126021 0.0145806 0.183594 0.0468467c0.0305644 0.0172029 0.0577868 0.0382621 0.0814183 0.062244c0.0239374 0.0236063 0.044959 0.0507927 0.0621364 0.0813106l31.7791 56.5039h31.0182
l-48.3745 -82.9326c-0.0329271 -0.0564465 -0.0489367 -0.118834 -0.0496455 -0.180955c0 -0.0651574 0.0131591 -0.13124 0.0467158 -0.191116l48.3889 -86.0234h-31.0298l-32.9392 58.5625c-0.0197595 0.0351067 -0.0446066 0.0658041 -0.073129 0.0917128
c-0.0196383 0.0183887 -0.0415261 0.0348502 -0.0655428 0.0489122c-0.0564465 0.0329271 -0.118834 0.0489367 -0.180955 0.0496455zM489.846 88.4915l32.7257 -58.1829c0.0354191 -0.0629291 0.0871852 -0.111691 0.147154 -0.144111
c0.0537095 -0.0300605 0.115177 -0.0472958 0.179994 -0.0472955h31.8906c0.029683 0 0.0586637 0.0036146 0.0865184 0.0104214c0.0333634 0.0076545 0.0660526 0.0200426 0.0970754 0.0374302c0.0629291 0.0354191 0.111691 0.0871852 0.144111 0.147154
c0.0300605 0.0537095 0.0472958 0.115177 0.0472955 0.179994c0 0.029683 -0.0036146 0.0586637 -0.0104214 0.0865184c-0.0076545 0.0333634 -0.0200426 0.0660526 -0.0374302 0.0970754l-48.598 86.3952l48.5951 83.3109
c0.0181427 0.0311018 0.0311493 0.0640073 0.0392892 0.0976783c0.00749805 0.0291617 0.0114932 0.0595917 0.0114921 0.0907983c0 0.0709399 -0.0206455 0.137869 -0.0561569 0.195003c-0.0312341 0.0519271 -0.0751842 0.0969008 -0.130367 0.129215
c-0.0311018 0.0181427 -0.0640073 0.0311493 -0.0976783 0.0392892c-0.0291617 0.00749806 -0.0595917 0.0114932 -0.0907983 0.0114921h-31.8906c-0.0648165 0 -0.126284 -0.0172352 -0.179994 -0.0472954c-0.0599691 -0.03242 -0.111735 -0.0811819 -0.147155 -0.144111
l-31.5596 -56.1137l-31.5635 56.1137c-0.0354191 0.0629292 -0.0871852 0.111691 -0.147154 0.144111c-0.0537095 0.0300605 -0.115177 0.0472958 -0.179994 0.0472955h-31.8906c-0.029683 0 -0.0586637 -0.0036146 -0.0865184 -0.0104214
c-0.0333634 -0.0076545 -0.0660526 -0.0200426 -0.0970754 -0.0374302c-0.0629292 -0.0354191 -0.111691 -0.0871852 -0.144111 -0.147154c-0.0300605 -0.0537095 -0.0472958 -0.115177 -0.0472955 -0.179994c0 -0.029683 0.0036146 -0.0586637 0.0104214 -0.0865184
c0.0076545 -0.0333634 0.0200426 -0.0660526 0.0374302 -0.0970754l47.7327 -84.8555l-47.7327 -84.8555c-0.0173876 -0.031025 -0.0297762 -0.0637164 -0.0374317 -0.0970817c-0.00680466 -0.027853 -0.0104187 -0.0568316 -0.0104198 -0.086512
c0 -0.0648165 0.0172352 -0.126284 0.0472954 -0.179994c0.03242 -0.0599691 0.0811819 -0.111735 0.144111 -0.147155c0.031025 -0.0173876 0.0637164 -0.0297762 0.0970817 -0.0374317c0.027853 -0.00680466 0.0568316 -0.0104187 0.086512 -0.0104198h46.0625
c0.204102 0 0.375 0.170898 0.375 0.375v10.6289c0 0.204102 -0.170898 0.375 -0.375 0.375h-10.8627zM157.562 349.762h-27.5965c-0.200152 11.7762 -9.80957 21.2617 -21.6335 21.2617h-28.3438c-11.9453 -0.00390625 -21.6289 -9.69141 -21.6289 -21.6367
s9.68359 -21.6289 21.6289 -21.6328h28.3438c27.1914 0 49.2314 -22.043 49.2314 -49.2305v-7.08984c0 -11.1738 -4.43848 -21.8945 -12.3438 -29.7969c-7.90332 -7.90723 -18.624 -12.3477 -29.8018 -12.3477h-42.5195c-11.1738 0 -21.8945 4.44141 -29.7969 12.3467
c-7.90723 7.90332 -12.3477 18.624 -12.3477 29.7979v6.71484h27.5977v-6.71484c0 -3.85742 1.53223 -7.55859 4.26172 -10.2842c2.72656 -2.73145 6.42773 -4.2627 10.2852 -4.2627h42.5195c3.86133 0 7.5625 1.53223 10.2881 4.26172
c2.73145 2.72656 4.2627 6.42773 4.2627 10.2852v7.08984c0 11.9453 -9.6875 21.6328 -21.6367 21.6328h-28.3438c-27.1914 0 -49.2344 22.043 -49.2344 49.2305c0 27.1914 22.043 49.2344 49.2344 49.2344h28.3438c27.0663 0 49.0285 -21.8406 49.23 -48.8594z
M157.938 349.012c0.204102 0 0.375 0.170898 0.375 0.375c0 27.6055 -22.376 49.9844 -49.9814 49.9844h-28.3438c-27.6055 0 -49.9844 -22.3789 -49.9844 -49.9844c0 -27.6016 22.3789 -49.9805 49.9844 -49.9805h28.3438c11.5352 0 20.8867 -9.35156 20.8867 -20.8828
v-7.08984c0 -3.6582 -1.45312 -7.16797 -4.04199 -9.75391c-2.58691 -2.59082 -6.09668 -4.04297 -9.75879 -4.04297h-42.5195c-3.6582 0 -7.16797 1.45312 -9.75391 4.04199c-2.59082 2.58691 -4.04297 6.09668 -4.04297 9.75488v7.08984
c0 0.204102 -0.170898 0.375 -0.375 0.375h-28.3477c-0.204102 0 -0.375 -0.170898 -0.375 -0.375v-7.08984c0 -11.373 4.52051 -22.2852 12.5664 -30.3271c8.04297 -8.04785 18.9551 -12.5674 30.3281 -12.5674h42.5195c11.377 0 22.2891 4.52051 30.3311 12.5664
c8.04785 8.04297 12.5645 18.9551 12.5645 30.3281v7.08984c0 27.6016 -22.376 49.9805 -49.9814 49.9805h-28.3438c-11.5312 0.00390625 -20.8789 9.35156 -20.8789 20.8828s9.34766 20.8828 20.8789 20.8867h28.3438c11.5352 0 20.8867 -9.35156 20.8867 -20.8867
c0 -0.204102 0.170898 -0.375 0.375 -0.375h28.3447zM522.907 427.019c0.0562689 -0.0340381 0.121765 -0.0537552 0.191092 -0.0537543h31.6914c0.0349002 0 0.0688295 0.0049969 0.1011 0.0143016c0.0227449 0.00627019 0.0451387 0.014815 0.0668689 0.0257375
c0.0659336 0.0327905 0.117991 0.0836577 0.153277 0.143869c0.0340381 0.0562689 0.0537552 0.121765 0.0537543 0.191092c0 0.0349002 -0.0049969 0.0688295 -0.0143016 0.1011c-0.00627019 0.0227449 -0.014815 0.0451387 -0.0257375 0.0668689l-36.133 72.27
c23.8362 6.8475 39.0686 30.1634 35.7161 54.7808c-3.37207 24.7676 -24.5273 43.2344 -49.5234 43.2344h-77.9531c-0.204102 0 -0.375 -0.170898 -0.375 -0.375v-170.078c0 -0.204102 0.170898 -0.375 0.375 -0.375h28.3477c0.204102 0 0.375 0.170898 0.375 0.375v70.4922
h31.4795l35.3301 -70.6602c0.0327905 -0.0659336 0.0836577 -0.117991 0.143869 -0.153277zM523.329 427.715l-35.3301 70.6602c-0.0327905 0.0659336 -0.0836577 0.117991 -0.143869 0.153277c-0.0562689 0.0340381 -0.121765 0.0537552 -0.191092 0.0537543h-32.0859
c-0.204102 0 -0.375 -0.170898 -0.375 -0.375v-70.4922h-27.5977v169.328h77.5781c24.6211 0 45.458 -18.1895 48.7812 -42.5859c3.32227 -24.3965 -11.8867 -47.4932 -35.6123 -54.0801c-0.0287801 -0.00801833 -0.0559016 -0.0193747 -0.0810606 -0.0335381
c-0.0748813 -0.041303 -0.130472 -0.106534 -0.162128 -0.181686c-0.0325538 -0.0758146 -0.0409182 -0.162411 -0.0175535 -0.24669c0.00730185 -0.0262084 0.0173718 -0.0510415 0.0298101 -0.0742691l36.061 -72.1259h-30.8535zM505.184 526.93h-49.2305v41.7695h49.2305
c11.5312 -0.00390625 20.875 -9.35547 20.875 -20.8877c0 -11.5303 -9.34375 -20.8779 -20.875 -20.8818zM505.184 569.449h-49.6055c-0.204102 0 -0.375 -0.170898 -0.375 -0.375v-42.5195c0 -0.204102 0.170898 -0.375 0.375 -0.375h49.6055
c11.9453 0.00390625 21.625 9.6875 21.625 21.6318c0 11.9463 -9.67969 21.6338 -21.625 21.6377zM327.645 484.642l-13.6328 6.81453c-0.0526848 0.0264833 -0.109271 0.0389863 -0.165304 0.0389863c-0.138188 0 -0.273007 -0.0760461 -0.337626 -0.205978
l-11.3359 -22.6758c-0.0264833 -0.0526848 -0.0389863 -0.109271 -0.0389863 -0.165304c0 -0.138188 0.0760461 -0.273007 0.205978 -0.337626l0.00124892 -0.00062482l16.4556 -8.23253c-3.51819 -2.47832 -7.72244 -3.81568 -12.0389 -3.81568h-28.3477
c-11.5312 0 -20.8828 9.35254 -20.8828 20.8877v70.8623c0 11.5361 9.35156 20.8877 20.8828 20.8877h28.3477c11.5352 0 20.8867 -9.35156 20.8867 -20.8877v-63.17zM355.548 469.948c0.0338585 -0.0780535 0.0936822 -0.145053 0.174197 -0.185096l11.4777 -5.73886
l-11.0046 -22.0054l-9.9731 4.98844c-0.086216 0.0433385 -0.18288 0.0492383 -0.270467 0.0241737c-0.0668834 -0.0188646 -0.129019 -0.0559995 -0.177444 -0.11022c-0.0078262 -0.00870698 -0.0152677 -0.017828 -0.0222875 -0.0273483
c-9.3234 -12.0944 -23.7271 -19.1786 -38.9946 -19.1786h-28.3477c-13.0566 0 -25.5781 5.1875 -34.8086 14.4209c-9.23535 9.23145 -14.4219 21.7529 -14.4219 34.8135v70.8623c0 27.1924 22.043 49.2314 49.2305 49.2314h28.3477
c27.1914 0 49.2305 -22.0391 49.2305 -49.2314v-70.8623c0 -2.27637 -0.155273 -4.54785 -0.46875 -6.7998c-0.00988913 -0.070588 0.00141708 -0.139985 0.028928 -0.201623zM356.298 470.313c0.294808 2.19961 0.440045 4.41666 0.440045 6.63642v70.8623
c0 27.6064 -22.375 49.9814 -49.9805 49.9814h-28.3477c-27.6016 0 -49.9805 -22.375 -49.9805 -49.9814v-70.8623c0 -13.2598 5.2666 -25.9727 14.6406 -35.3428c9.37109 -9.37598 22.084 -14.6416 35.3398 -14.6416h28.3477c15.3999 0 29.9335 7.09904 39.4044 19.2343
l10.0331 -5.01847c0.0526848 -0.0264833 0.109271 -0.0389863 0.165304 -0.0389863c0.138188 0 0.273007 0.0760461 0.337626 0.205978l11.3398 22.6758c0.0264833 0.0526848 0.0389863 0.109271 0.0389863 0.165304c0 0.138188 -0.0760461 0.273007 -0.205978 0.337626z
M108.332 526.93h-49.2305v41.7695h49.2305c11.5312 -0.00390625 20.8789 -9.35547 20.8789 -20.8877c0 -11.5303 -9.34766 -20.8779 -20.8789 -20.8818zM108.332 569.449h-49.6055c-0.204102 0 -0.375 -0.170898 -0.375 -0.375v-42.5195
c0 -0.204102 0.170898 -0.375 0.375 -0.375h49.6055c11.9453 0.00390625 21.6289 9.6875 21.6289 21.6318c0 11.9463 -9.68359 21.6338 -21.6289 21.6377zM108.332 498.582h-49.6055c-0.204102 0 -0.375 -0.170898 -0.375 -0.375v-70.4922h-27.5977v169.328h77.5781
c27.1914 0 49.2314 -22.0391 49.2314 -49.2314c0 -27.1865 -22.04 -49.2295 -49.2314 -49.2295zM108.332 597.793h-77.9531c-0.204102 0 -0.375 -0.170898 -0.375 -0.375v-170.078c0 -0.204102 0.170898 -0.375 0.375 -0.375h28.3477c0.204102 0 0.375 0.170898 0.375 0.375
v70.4922h49.2305c27.6055 0 49.9814 22.3789 49.9814 49.9795c0 27.6064 -22.376 49.9814 -49.9814 49.9814zM554.414 753.324v-85.0391c0 -11.1777 -4.44141 -21.8945 -12.3438 -29.8018c-7.90137 -7.90137 -18.623 -12.3428 -29.8008 -12.3428h-42.5195
c-11.1777 0 -21.8945 4.44141 -29.8018 12.3438c-7.90137 7.90527 -12.3428 18.623 -12.3428 29.8008v85.0391c0 11.1777 4.44141 21.8984 12.3438 29.8008c7.90527 7.90234 18.623 12.3438 29.8008 12.3438h42.5195c11.1777 0 21.8984 -4.44141 29.8008 -12.3438
s12.3438 -18.623 12.3438 -29.8008zM555.164 753.324c0 11.377 -4.51953 22.2891 -12.5625 30.332s-18.9551 12.5625 -30.332 12.5625h-42.5195c-11.377 0 -22.2842 -4.51953 -30.332 -12.5625c-8.04297 -8.04297 -12.5625 -18.9551 -12.5625 -30.332v-85.0391
c0 -11.377 4.51953 -22.2842 12.5635 -30.332c8.0459 -8.04297 18.9541 -12.5625 30.3311 -12.5625h42.5195c11.377 0 22.2881 4.51953 30.332 12.5635c8.04297 8.0459 12.5625 18.9541 12.5625 30.3311v85.0391zM526.066 753.324v-85.0391
c0 -7.62109 -6.17578 -13.7969 -13.7969 -13.7969h-42.5195c-7.62109 0 -13.7969 6.17578 -13.7969 13.7969v85.0391c0 7.62109 6.17578 13.8008 13.7969 13.8008h42.5195c7.62109 0 13.7969 -6.17969 13.7969 -13.8008zM526.816 753.324
c0 8.03516 -6.51172 14.5508 -14.5469 14.5508h-42.5195c-8.03516 0 -14.5469 -6.51562 -14.5469 -14.5508v-85.0391c0 -8.03516 6.51172 -14.5469 14.5469 -14.5469h42.5195c8.03516 0 14.5469 6.51172 14.5469 14.5469v85.0391z" />
  </g>

</svg>
