<?xml version="1.0" standalone="no"?>
<!DOCTYPE svg PUBLIC "-//W3C//DTD SVG 1.1//EN" "http://www.w3.org/Graphics/SVG/1.1/DTD/svg11.dtd" >
<svg xmlns="http://www.w3.org/2000/svg" xmlns:xlink="http://www.w3.org/1999/xlink" version="1.1" viewBox="0 -158 1000 1000">
  <g transform="matrix(1 0 0 -1 0 842)">
   <path fill="currentColor"
d="M523.679 471.819c0.0609962 -0.0279299 0.126425 -0.0377076 0.189833 -0.0316577c0.0630691 0.00502453 0.125381 0.0258986 0.180284 0.0638842c0.0209406 0.014488 0.0399536 0.0308581 0.0569671 0.0487432
c0.0287246 0.0292932 0.0529383 0.0637018 0.0709626 0.102624c1.68881 3.65893 2.58481 7.63021 2.63721 11.6572h27.5988c-0.0885356 -13.3196 -4.89168 -26.1769 -13.5681 -36.291c-0.0602808 -0.069961 -0.0896344 -0.15717 -0.0894898 -0.24403
c0 -0.074038 0.0205284 -0.148614 0.0650757 -0.213002l13.2543 -19.1973h-33.538l-2.34908 3.4043c-0.0430537 0.0622289 -0.102728 0.107435 -0.16934 0.13378c-0.0840769 0.0339443 -0.180218 0.0383742 -0.270113 0.00489205
c-6.28613 -2.34375 -12.9414 -3.54297 -19.6504 -3.54297h-28.3477c-17.7949 0 -33.6729 11.1777 -39.6738 27.9307c-6.00195 16.7539 -0.836914 35.4697 12.9121 46.7715l16.293 13.3945c0.0641176 0.0529667 0.105985 0.124285 0.124345 0.200908
c0.0214131 0.0875409 0.012129 0.182334 -0.0315358 0.264972c-0.00926022 0.0178108 -0.0200635 0.0350239 -0.0324301 0.0514382l-10.0946 14.6223c-9.50586 13.7646 -9.97461 31.8418 -1.18945 46.0781c8.78125 14.2334 25.1514 21.9307 41.7148 19.6074
c16.5635 -2.31934 30.1885 -14.2178 34.7178 -30.3164c4.53418 -16.0986 -0.882812 -33.3555 -13.8027 -43.9756l-13.7422 -11.2969c-0.0641176 -0.0529667 -0.105985 -0.124285 -0.124345 -0.200908c-0.0214131 -0.0875409 -0.012129 -0.182334 0.0315358 -0.264972
c0.00926731 -0.0178244 0.02008 -0.0350503 0.0324586 -0.0514759l26.6424 -38.5832c0.014488 -0.0209406 0.0308581 -0.0399536 0.0487432 -0.0569671c0.0292932 -0.0287246 0.0637018 -0.0529383 0.102624 -0.0709626zM299.641 796.218
c-0.203125 0 -0.359375 -0.201172 -0.342773 -0.405273l3.54297 -42.5195c0.00910964 -0.105267 0.062806 -0.197945 0.140837 -0.260499c0.0485633 -0.0391198 0.106739 -0.0665697 0.169892 -0.0777122c0.0253188 -0.0045452 0.051378 -0.00553913 0.0778543 -0.00553913
h21.2472c0.160974 0 0.301295 0.106306 0.353407 0.251365c0.0107313 0.0289586 0.0178031 0.0598577 0.0206168 0.0923848l3.54297 42.5195c0 0.0322157 -0.00456242 0.0639205 -0.00456242 0.0945431c-0.0111435 0.0631523 -0.0385935 0.121328 -0.0777127 0.169893
c-0.0625547 0.0780308 -0.155232 0.131727 -0.260498 0.140837c-0.0144031 0 -0.028704 0.000976562 -0.0428517 0.000976562h-28.3361c-0.00902095 0 -0.017977 -0.000993897 -0.0268564 -0.000993897zM257.121 796.218
c-0.203125 0 -0.359375 -0.201172 -0.342773 -0.405273l3.54297 -42.5195c0.00910964 -0.105267 0.062806 -0.197945 0.140837 -0.260499c0.0485633 -0.0391198 0.106739 -0.0665697 0.169892 -0.0777122c0.0253188 -0.0045452 0.051378 -0.00553913 0.0778543 -0.00553913
h21.2472c0.160974 0 0.301295 0.106306 0.353407 0.251365c0.0107313 0.0289586 0.0178031 0.0598577 0.0206168 0.0923848l3.54297 42.5195c0 0.0322157 -0.00456242 0.0639205 -0.00456242 0.0945431c-0.0111435 0.0631523 -0.0385935 0.121328 -0.0777127 0.169893
c-0.0625547 0.0780308 -0.155232 0.131727 -0.260498 0.140837c-0.0144031 0 -0.028704 0.000976562 -0.0428517 0.000976562h-28.3361c-0.00902095 0 -0.017977 -0.000993897 -0.0268564 -0.000993897zM79.957 399.37c-0.203125 0 -0.359375 -0.201172 -0.342773 -0.405273
l3.54297 -42.5195c0.00910963 -0.105267 0.062806 -0.197945 0.140837 -0.260499c0.0485633 -0.0391198 0.106739 -0.0665697 0.169892 -0.0777122c0.0253188 -0.0045452 0.051378 -0.00553913 0.0778543 -0.00553913h21.2287
c0.0264757 0 0.0525343 0.00553898 0.0778535 0.00553898c0.0631523 0.0111435 0.121328 0.0385935 0.169893 0.0777127c0.0780308 0.0625547 0.131727 0.155232 0.140837 0.260498l3.54297 42.5195c0.0166016 0.204102 -0.139648 0.405273 -0.342773 0.405273
l-0.00439407 -1.7334e-005c-0.00887929 0 -0.0178353 0.000993896 -0.0268559 0.000993896h-28.3438c-0.00902095 0 -0.017977 -0.000993897 -0.0268564 -0.000993897zM30.3789 625.391h14.1758c0.204102 0 0.375 0.170898 0.375 0.375v14.1709
c0 0.204102 -0.170898 0.375 -0.375 0.375h-14.1758c-0.204102 0 -0.375 -0.170898 -0.375 -0.375v-14.1709c0 -0.204102 0.170898 -0.375 0.375 -0.375zM30.7539 626.141v13.4209h13.4258v-13.4209h-13.4258zM229.18 639.562h13.4258v-13.4209h-13.4258v13.4209z
M228.43 639.937v-14.1709c0 -0.204102 0.170898 -0.375 0.375 -0.375h14.1758c0.204102 0 0.375 0.170898 0.375 0.375v14.1709c0 0.204102 -0.170898 0.375 -0.375 0.375h-14.1758c-0.204102 0 -0.375 -0.170898 -0.375 -0.375zM427.605 44.2891h13.4219v-13.4219h-13.4219
v13.4219zM426.855 44.6641v-14.1719c0 -0.204102 0.170898 -0.375 0.375 -0.375h14.1719c0.204102 0 0.375 0.170898 0.375 0.375v14.1719c0 0.204102 -0.170898 0.375 -0.375 0.375h-14.1719c-0.204102 0 -0.375 -0.170898 -0.375 -0.375zM229.18 44.2891h13.4258v-13.4219
h-13.4258v13.4219zM228.43 44.6641v-14.1719c0 -0.204102 0.170898 -0.375 0.375 -0.375h14.1758c0.204102 0 0.375 0.170898 0.375 0.375v14.1719c0 0.204102 -0.170898 0.375 -0.375 0.375h-14.1758c-0.204102 0 -0.375 -0.170898 -0.375 -0.375zM427.605 242.715h13.4219
v-13.4258h-13.4219v13.4258zM426.855 243.09v-14.1758c0 -0.204102 0.170898 -0.375 0.375 -0.375h14.1719c0.204102 0 0.375 0.170898 0.375 0.375v14.1758c0 0.204102 -0.170898 0.375 -0.375 0.375h-14.1719c-0.204102 0 -0.375 -0.170898 -0.375 -0.375zM229.18 242.715
h13.4258v-13.4258h-13.4258v13.4258zM228.43 243.09v-14.1758c0 -0.204102 0.170898 -0.375 0.375 -0.375h14.1758c0.204102 0 0.375 0.170898 0.375 0.375v14.1758c0 0.204102 -0.170898 0.375 -0.375 0.375h-14.1758c-0.204102 0 -0.375 -0.170898 -0.375 -0.375z
M30.7539 242.715h13.4258v-13.4258h-13.4258v13.4258zM30.0039 243.09v-14.1758c0 -0.204102 0.170898 -0.375 0.375 -0.375h14.1758c0.204102 0 0.375 0.170898 0.375 0.375v14.1758c0 0.204102 -0.170898 0.375 -0.375 0.375h-14.1758
c-0.204102 0 -0.375 -0.170898 -0.375 -0.375zM471.584 39.3628c-0.549642 -2.22218 -0.0471433 -4.5727 1.36264 -6.37944c1.41504 -1.80957 3.58301 -2.86621 5.88184 -2.86621h3.42188c1.15918 0 2.30371 0.267578 3.33984 0.786133l11.7852 5.89453
c1.94257 0.971286 3.36236 2.73887 3.89689 4.83879c0 0.00739963 0.00643331 0.0149147 0.00643331 0.0225399l9.15625 36.6289c0.554688 2.22949 0.0527344 4.58984 -1.35742 6.39941c-1.41406 1.81445 -3.58691 2.87109 -5.88184 2.87109h-13.7383
c-3.42578 0 -6.4082 -2.33203 -7.23926 -5.65137l-10.6289 -42.5195c0 -0.00827228 -0.00521664 -0.0165599 -0.00521664 -0.0248531zM472.31 39.1815c0 0.00805424 0.00709154 0.0162466 0.00709154 0.02457l10.6289 42.5195
c0.74707 2.98535 3.42871 5.08301 6.51074 5.08301h13.7383c2.06445 0 4.01855 -0.951172 5.29004 -2.58203c1.26953 -1.62793 1.7207 -3.75195 1.2207 -5.75684l-9.15625 -36.6289c0 -0.00666741 -0.00434374 -0.0133448 -0.00434374 -0.0200284
c-0.481676 -1.88922 -1.75897 -3.4793 -3.5064 -4.35302l-11.7852 -5.89453c-0.930664 -0.46582 -1.95996 -0.706055 -3.00391 -0.706055h-3.42188c-2.06836 0 -4.01758 0.951172 -5.29004 2.5791c-1.26726 1.62323 -1.7209 3.73753 -1.22779 5.7352zM278.41 129.328
c0.204102 0 0.375 0.170898 0.375 0.375v49.2305h27.5977v-49.2305c0 -0.204102 0.170898 -0.375 0.375 -0.375h49.2305v-27.5977h-49.2305c-0.204102 0 -0.375 -0.170898 -0.375 -0.375v-49.2305h-27.5977v49.2305c0 0.204102 -0.170898 0.375 -0.375 0.375h-49.2305
v27.5977h49.2305zM278.035 130.078h-49.2305c-0.204102 0 -0.375 -0.170898 -0.375 -0.375v-28.3477c0 -0.204102 0.170898 -0.375 0.375 -0.375h49.2305v-49.2305c0 -0.204102 0.170898 -0.375 0.375 -0.375h28.3477c0.204102 0 0.375 0.170898 0.375 0.375v49.2305
h49.2305c0.204102 0 0.375 0.170898 0.375 0.375v28.3477c0 0.204102 -0.170898 0.375 -0.375 0.375h-49.2305v49.2305c0 0.204102 -0.170898 0.375 -0.375 0.375h-28.3477c-0.204102 0 -0.375 -0.170898 -0.375 -0.375v-49.2305zM137.895 51.3767
c0.0966797 0 0.193359 0.0358887 0.265625 0.107666l20.0439 20.043c0.0717773 0.0722656 0.107666 0.168945 0.107666 0.265625s-0.0358887 0.193359 -0.107666 0.265625l-43.4697 43.4726l43.4697 43.4688c0.0717773 0.0722656 0.107666 0.168945 0.107666 0.265625
s-0.0358887 0.193359 -0.107666 0.265625l-20.0439 20.043c-0.0722656 0.0717773 -0.168945 0.107666 -0.265625 0.107666s-0.193359 -0.0358887 -0.265625 -0.107666l-28.9219 -28.9219v49.918c0 0.204102 -0.170898 0.375 -0.375 0.375h-28.3438
c-0.204102 0 -0.375 -0.170898 -0.375 -0.375v-49.918l-28.9219 28.9219c-0.0722656 0.0717773 -0.168945 0.107666 -0.265625 0.107666s-0.193359 -0.0358887 -0.265625 -0.107666l-20.0469 -20.043c-0.0717773 -0.0722656 -0.107666 -0.168945 -0.107666 -0.265625
s0.0358887 -0.193359 0.107666 -0.265625l43.4726 -43.4688l-43.4726 -43.4726c-0.0717773 -0.0722656 -0.107666 -0.168945 -0.107666 -0.265625s0.0358887 -0.193359 0.107666 -0.265625l20.0469 -20.043c0.0722656 -0.0717773 0.168945 -0.107666 0.265625 -0.107666
s0.193359 0.0358887 0.265625 0.107666l28.9219 28.9209v-49.9131c0 -0.204102 0.170898 -0.375 0.375 -0.375h28.3438c0.204102 0 0.375 0.170898 0.375 0.375v49.9131l28.9219 -28.9209c0.0722656 -0.0717773 0.168945 -0.107666 0.265625 -0.107666zM137.895 52.2812
l-29.2969 29.2959c-0.0372809 0.037029 -0.0810592 0.0645066 -0.127984 0.0824313c-0.042796 0.0173532 -0.0892865 0.0269453 -0.137641 0.0260892c-0.0483526 0 -0.0948418 -0.00959148 -0.137637 -0.0260877
c-0.0469255 -0.0179262 -0.0907053 -0.0454043 -0.127988 -0.0824328c-0.037029 -0.0372809 -0.0645066 -0.0810592 -0.0824313 -0.127984c-0.0173532 -0.042796 -0.0269453 -0.0892865 -0.0260892 -0.137641c0 -16.8148 -0.000854492 -33.6296 -0.000854492 -50.4443
h-27.5938c0 16.8148 -0.000854492 33.6296 -0.000854492 50.4443c0 0.0483526 -0.00959148 0.0948418 -0.0260877 0.137637c-0.0179262 0.0469255 -0.0454043 0.0907053 -0.0824328 0.127988c-0.0372809 0.037029 -0.0810592 0.0645066 -0.127984 0.0824313
c-0.042796 0.0173532 -0.0892865 0.0269453 -0.137641 0.0260892c-0.0483526 0 -0.0948418 -0.00959148 -0.137637 -0.0260877c-0.0469255 -0.0179262 -0.0907053 -0.0454043 -0.127988 -0.0824328l-29.2969 -29.2959l-19.5156 19.5118l43.4726 43.4726
c0.0717773 0.0722656 0.107666 0.168945 0.107666 0.265625s-0.0358887 0.193359 -0.107666 0.265625l-43.4726 43.4687l19.5156 19.5118l29.2969 -29.2969c0.0372809 -0.037029 0.0810592 -0.0645066 0.127984 -0.0824313
c0.042796 -0.0173532 0.0892865 -0.0269453 0.137641 -0.0260892c0.0483526 0 0.0948418 0.00959148 0.137637 0.0260877c0.0469255 0.0179262 0.0907053 0.0454043 0.127988 0.0824328c0.037029 0.0372809 0.0645066 0.0810592 0.0824313 0.127984
c0.0173532 0.042796 0.0269453 0.0892865 0.0260892 0.137641c0 16.8164 0.000854492 33.6328 0.000854492 50.4492h27.5938c0 -16.8164 0.000854492 -33.6328 0.000854492 -50.4492c0 -0.0483526 0.00959148 -0.0948418 0.0260877 -0.137637
c0.0179262 -0.0469255 0.0454043 -0.0907053 0.0824328 -0.127988c0.0372809 -0.037029 0.0810592 -0.0645066 0.127984 -0.0824313c0.042796 -0.0173532 0.0892865 -0.0269453 0.137641 -0.0260892c0.0483526 0 0.0948418 0.00959148 0.137637 0.0260877
c0.0469255 0.0179262 0.0907053 0.0454043 0.127988 0.0824328l29.2969 29.2969l19.5127 -19.5117l-43.4697 -43.4687c-0.0717773 -0.0722656 -0.107666 -0.168945 -0.107666 -0.265625s0.0358887 -0.193359 0.107666 -0.265625l43.4697 -43.4726zM328.139 399.351
c-0.0375835 0.0129632 -0.0776947 0.0200228 -0.119178 0.0200216h-33.9062c-0.0663776 0 -0.129243 -0.0180754 -0.183861 -0.0494895c-0.0572119 -0.0317118 -0.106726 -0.0783537 -0.141334 -0.13801c-30.4492 -52.7412 -30.4492 -117.716 0 -170.457
c0.0346077 -0.059657 0.0841216 -0.106299 0.141334 -0.13801c0.0546177 -0.0314146 0.117484 -0.0494902 0.183862 -0.0494898h33.9062c0.0414809 0 0.0815903 0.00705897 0.119173 0.0200198c0.0371608 0.01225 0.0728217 0.0305693 0.105437 0.0551755
c0.0501875 0.0373419 0.0882209 0.08565 0.113316 0.13939c0.0237138 0.0488684 0.037076 0.103343 0.0370746 0.160415c0 0.0414809 -0.00705897 0.0815903 -0.0200198 0.119173c-0.01225 0.0371608 -0.0305693 0.0728217 -0.0551755 0.105437
c-37.6963 50.2617 -37.6963 119.371 0 169.633c0.0246062 0.032613 0.042925 0.0682721 0.0551738 0.105431c0.0129632 0.0375835 0.0200228 0.0776947 0.0200216 0.119178c0 0.0570698 -0.0133616 0.111544 -0.0370732 0.160412
c-0.0250965 0.0537403 -0.0631303 0.102049 -0.113317 0.139393c-0.032613 0.0246062 -0.0682721 0.042925 -0.105431 0.0551738zM327.272 398.621c-37.3011 -50.2761 0 -119.056 0 -169.332h-32.9421c-30.1723 52.4127 0 116.919 0 169.332h32.9421zM455.223 229.033
c-0.0129632 -0.0375835 -0.0200228 -0.0776947 -0.0200216 -0.119178c0 -0.0570698 0.0133616 -0.111544 0.0370732 -0.160412c0.0250965 -0.0537403 0.0631303 -0.102049 0.113317 -0.139393c0.032613 -0.0246062 0.0682721 -0.042925 0.105431 -0.0551738
c0.0375835 -0.0129632 0.0776947 -0.0200228 0.119178 -0.0200216h33.9062c0.0663776 0 0.129243 0.0180754 0.183861 0.0494895c0.0572119 0.0317118 0.106726 0.0783537 0.141334 0.13801c30.4492 52.7412 30.4492 117.716 0 170.457
c-0.0346077 0.059657 -0.0841216 0.106299 -0.141334 0.13801c-0.0546177 0.0314146 -0.117484 0.0494902 -0.183862 0.0494898h-33.9062c-0.0414809 0 -0.0815903 -0.00705897 -0.119173 -0.0200198c-0.0371608 -0.01225 -0.0728217 -0.0305693 -0.105437 -0.0551755
c-0.0501875 -0.0373419 -0.0882209 -0.08565 -0.113316 -0.13939c-0.0237138 -0.0488684 -0.037076 -0.103343 -0.0370746 -0.160415c0 -0.0414809 0.00705897 -0.0815903 0.0200198 -0.119173c0.01225 -0.0371608 0.0305693 -0.0728217 0.0551755 -0.105437
c37.6924 -50.2617 37.6924 -119.371 0 -169.633c-0.0246062 -0.032613 -0.042925 -0.0682721 -0.0551738 -0.105431zM456.325 229.289c37.2972 50.2761 0 119.056 0 169.332h32.9421c30.1723 -52.4127 0 -116.919 0 -169.332h-32.9421zM526.066 484.035
c0 -3.82685 -0.782064 -7.60832 -2.30081 -11.1133l-26.0773 37.7649l13.4758 11.0779c13.1504 10.8096 18.6631 28.373 14.0488 44.7588c-4.61133 16.3857 -18.4785 28.4951 -35.3369 30.8555c-16.8584 2.36426 -33.5195 -5.46973 -42.457 -19.9551
c-8.94141 -14.4902 -8.46484 -32.8896 1.21094 -46.8984l9.90846 -14.3528l-16.0266 -13.1756c-13.9932 -11.5029 -19.25 -30.5527 -13.1426 -47.6035c6.1084 -17.0518 22.2695 -28.4287 40.3809 -28.4287h28.3477c6.70148 0 13.3489 1.1803 19.6382 3.48854
l2.29535 -3.32643c0.0341109 -0.0493031 0.0786548 -0.0879207 0.128817 -0.114937c0.0536577 -0.0299851 0.115047 -0.0471738 0.179777 -0.0471721h34.4492c0.0377914 0 0.0744445 0.00585911 0.109085 0.0167046
c0.036276 0.0107561 0.0713366 0.0272359 0.103806 0.0497017c0.0493031 0.0341108 0.0879207 0.0786548 0.114937 0.128817c0.0299851 0.0536577 0.0471738 0.115047 0.0471721 0.179777c0 0.0377914 -0.00585911 0.0744445 -0.0167046 0.109085
c-0.0107561 0.036276 -0.0272359 0.0713366 -0.0497017 0.103806l-13.4966 19.5483c8.75588 10.3121 13.563 23.3978 13.563 36.9341c0 0.204102 -0.170898 0.375 -0.375 0.375h-28.3477c-0.204102 0 -0.375 -0.170898 -0.375 -0.375zM500.006 456.127
c-0.634932 -0.0432102 -1.27176 -0.065019 -1.90805 -0.065019h-28.3477c-5.82617 0 -11.0244 3.65918 -12.9912 9.14746c-1.96191 5.4834 -0.269531 11.6094 4.22949 15.3096l14.1422 11.6279zM501.044 455.907
c-0.0106631 0.0388109 -0.0278035 0.0763443 -0.0517379 0.110937l-25.4693 36.8801c-0.00779768 0.0123567 -0.016401 0.0243507 -0.0258172 0.035907c-0.0529667 0.0641176 -0.124285 0.105985 -0.200908 0.124345
c-0.0875409 0.0214131 -0.182334 0.012129 -0.264972 -0.0315358c-0.0218351 -0.0113526 -0.042772 -0.0250243 -0.0624403 -0.0410517l-14.457 -11.8867c-4.74316 -3.90137 -6.52734 -10.3613 -4.45801 -16.1436c2.07227 -5.78516 7.55371 -9.64355 13.6963 -9.64355
h28.3477c0.875 0 1.74902 0.0410156 2.62012 0.120117c0.0232962 0 0.04595 0.00643972 0.0677743 0.0127152c0.0388109 0.0106631 0.0763443 0.0278035 0.110937 0.0517379c0.058437 0.0404302 0.101862 0.0955173 0.128755 0.157242
c0.025521 0.0566121 0.0373521 0.120067 0.031401 0.185531c0 0.0232962 -0.00643972 0.04595 -0.0127152 0.0677743zM481.195 533.833c0.0218351 0.0113526 0.042772 0.0250243 0.0624403 0.0410517l11.9023 9.78906c4.46289 3.66504 6.33105 9.62305 4.76758 15.1807
c-1.56445 5.55762 -6.26758 9.66309 -11.9854 10.4639c-5.71777 0.798828 -11.3672 -1.85547 -14.3984 -6.7666c-3.03516 -4.91602 -2.87109 -11.1592 0.40918 -15.9062l8.75054 -12.6731c0.00780104 -0.0123638 0.0164086 -0.0243645 0.0258299 -0.0359271
c0.0529667 -0.0641176 0.124285 -0.105985 0.200908 -0.124345c0.0875409 -0.0214131 0.182334 -0.012129 0.264972 0.0315358zM481.096 534.713l-8.52576 12.3475c-3.11035 4.50293 -3.2666 10.4238 -0.387695 15.0859c2.875 4.65918 8.2334 7.17676 13.6562 6.41895
c5.42285 -0.759766 9.88379 -4.6543 11.3662 -9.9248c1.4834 -5.27051 -0.289062 -10.9219 -4.52148 -14.3975zM229.446 427.715l95.25 169.328h31.0259l-95.2461 -169.328h-31.0298zM228.718 426.975c0.027853 -0.00680466 0.0568316 -0.0104187 0.086512 -0.0104198
h31.8906c0.0648165 0 0.126284 0.0172352 0.179994 0.0472954c0.0599691 0.03242 0.111735 0.0811819 0.147155 0.144111l95.668 170.078c0.0173876 0.031025 0.0297762 0.0637164 0.0374317 0.0970817c0.00680466 0.027853 0.0104187 0.0568316 0.0104198 0.086512
c0 0.0648165 -0.0172352 0.126284 -0.0472954 0.179994c-0.03242 0.0599691 -0.0811819 0.111735 -0.144111 0.147155c-0.031025 0.0173876 -0.0637164 0.0297762 -0.0970817 0.0374317c-0.027853 0.00680466 -0.0568316 0.0104187 -0.086512 0.0104198h-31.8867
c-0.0648165 0 -0.126284 -0.0172352 -0.179994 -0.0472954c-0.0599691 -0.03242 -0.111735 -0.0811819 -0.147155 -0.144111l-95.6719 -170.078c-0.0173876 -0.031025 -0.0297762 -0.0637164 -0.0374317 -0.0970817
c-0.00680466 -0.027853 -0.0104187 -0.0568316 -0.0104198 -0.086512c0 -0.0648165 0.0172352 -0.126284 0.0472954 -0.179994c0.03242 -0.0599691 0.0811819 -0.111735 0.144111 -0.147155c0.031025 -0.0173876 0.0637164 -0.0297762 0.0970817 -0.0374317z
M339.023 469.859c0 2.91992 -1.15625 5.72168 -3.22266 7.78906c-2.0625 2.06152 -4.86133 3.22266 -7.78125 3.22266s-5.72168 -1.16016 -7.78516 -3.22266c-2.06641 -2.06738 -3.22266 -4.86914 -3.22266 -7.78906c0 -2.91895 1.15723 -5.71875 3.22266 -7.78418
c2.0625 -2.06738 4.86523 -3.22754 7.78516 -3.22754s5.71875 1.16113 7.78125 3.22656c2.06641 2.06738 3.22266 4.86523 3.22266 7.78516zM338.273 469.859c0 -2.7207 -1.07812 -5.3291 -3.00391 -7.25391c-1.92188 -1.92676 -4.5293 -3.00781 -7.25 -3.00781
s-5.33203 1.08203 -7.25391 3.00684c-1.92676 1.92676 -3.00391 4.5332 -3.00391 7.25488c0 2.7207 1.07812 5.33301 3.00391 7.25781c1.9209 1.92188 4.5332 3.00391 7.25391 3.00391s5.32812 -1.08105 7.25 -3.00391c1.92578 -1.9248 3.00391 -4.53711 3.00391 -7.25781z
M356.738 469.859c0 7.61914 -3.02344 14.9248 -8.40918 20.3154c-5.38379 5.3877 -12.6904 8.41504 -20.3096 8.41504s-14.9248 -3.02734 -20.3125 -8.41504c-5.38672 -5.39062 -8.41016 -12.6963 -8.41016 -20.3154s3.02344 -14.9248 8.41016 -20.3135
c5.38672 -5.38574 12.6934 -8.41309 20.3125 -8.41309s14.9258 3.02734 20.3096 8.41406c5.38574 5.38672 8.40918 12.6934 8.40918 20.3125zM355.988 469.859c0 -7.41992 -2.94531 -14.5352 -8.19043 -19.7832c-5.24316 -5.24414 -12.3584 -8.19336 -19.7783 -8.19336
s-14.5352 2.94922 -19.7812 8.19434c-5.24609 5.24609 -8.19141 12.3623 -8.19141 19.7822s2.94531 14.5361 8.19141 19.7861c5.24512 5.24512 12.3613 8.19434 19.7812 8.19434s14.5352 -2.94922 19.7783 -8.19434c5.24512 -5.25 8.19043 -12.3662 8.19043 -19.7861z
M268.156 554.898c0 2.91992 -1.15625 5.72168 -3.21875 7.78906c-2.06738 2.06641 -4.86523 3.22266 -7.78516 3.22266c-2.91895 0 -5.72168 -1.15625 -7.78516 -3.22363c-2.06152 -2.06543 -3.22266 -4.86914 -3.21875 -7.78711
c-0.00390625 -2.9209 1.15723 -5.71875 3.21875 -7.78516c2.0625 -2.06738 4.86523 -3.22754 7.78516 -3.22754s5.71777 1.16016 7.78516 3.22754c2.06152 2.06641 3.21875 4.86426 3.21875 7.78418zM267.406 554.898c0 -2.7207 -1.07715 -5.3291 -3 -7.25488
c-1.9248 -1.9248 -4.5332 -3.00684 -7.25391 -3.00684s-5.33203 1.08203 -7.25391 3.00684c-1.92285 1.92578 -3.00391 4.53418 -3 7.25391c-0.00390625 2.72266 1.07715 5.33301 3 7.25977c1.9209 1.9248 4.53223 3.00293 7.25391 3.00293
c2.7207 0 5.3291 -1.07812 7.25391 -3.00391c1.92188 -1.9248 3 -4.53711 3 -7.25781zM285.875 554.898c0 7.61914 -3.02344 14.9248 -8.41016 20.3164c-5.38672 5.38672 -12.6934 8.41406 -20.3125 8.41406s-14.9248 -3.02734 -20.3125 -8.41504
c-5.38672 -5.39062 -8.41016 -12.6963 -8.41016 -20.3154c0 -7.61523 3.02344 -14.9248 8.41016 -20.3125c5.38672 -5.38672 12.6934 -8.41406 20.3125 -8.41406s14.9258 3.02734 20.3125 8.41406c5.38672 5.3877 8.41016 12.6973 8.41016 20.3125zM285.125 554.898
c0 -7.41602 -2.94531 -14.5361 -8.19141 -19.7812c-5.24609 -5.24609 -12.3613 -8.19531 -19.7812 -8.19531s-14.5352 2.94922 -19.7812 8.19531c-5.24609 5.24512 -8.19141 12.3652 -8.19141 19.7812c0 7.41992 2.94531 14.5361 8.19141 19.7861
c5.24512 5.24512 12.3613 8.19434 19.7812 8.19434s14.5352 -2.94922 19.7812 -8.19531c5.24609 -5.24902 8.19141 -12.3652 8.19141 -19.7852zM107.957 554.898v-28.3438c0 -0.204102 0.170898 -0.375 0.375 -0.375h7.08594c23.2773 0 42.1455 -18.8711 42.1455 -42.1445
c0 -23.2773 -18.8682 -42.1445 -42.1455 -42.1445h-7.08594c-0.204102 0 -0.375 -0.170898 -0.375 -0.375v-13.8008h-27.5938v13.8008c0 0.204102 -0.170898 0.375 -0.375 0.375h-7.08984c-11.1738 0 -21.8945 4.4375 -29.7969 12.3428
c-7.81876 7.8149 -12.2479 18.3845 -12.346 29.4268h27.6008c0.095786 -3.72504 1.6159 -7.27211 4.2569 -9.91406c2.72656 -2.72559 6.42773 -4.26172 10.2852 -4.26172h7.08984c0.204102 0 0.375 0.170898 0.375 0.375v28.3477c0 0.204102 -0.170898 0.375 -0.375 0.375
h-7.08984c-23.2734 0 -42.1445 18.8672 -42.1445 42.1445s18.8711 42.1445 42.1445 42.1445h7.08984c0.204102 0 0.375 0.170898 0.375 0.375v13.7969h27.5938v-13.7969c0 -0.204102 0.170898 -0.375 0.375 -0.375h7.08594c23.1522 0 41.9425 -18.6649 42.1439 -41.7695
h-27.5978c-0.198964 7.86178 -6.63626 14.1719 -14.546 14.1719h-7.08594c-0.204102 0 -0.375 -0.170898 -0.375 -0.375zM108.707 554.523h6.71094c7.62109 0 13.8008 -6.17578 13.8008 -13.7969c0 -0.204102 0.170898 -0.375 0.375 -0.375h28.3447
c0.204102 0 0.375 0.170898 0.375 0.375c0 23.6914 -19.2041 42.8945 -42.8955 42.8945h-6.71094v13.7969c0 0.204102 -0.170898 0.375 -0.375 0.375h-28.3438c-0.204102 0 -0.375 -0.170898 -0.375 -0.375v-13.7969h-6.71484
c-23.6875 0 -42.8945 -19.2031 -42.8945 -42.8945s19.207 -42.8945 42.8945 -42.8945h6.71484v-27.5977h-6.71484c-3.6582 0 -7.16797 1.45605 -9.75391 4.04297c-2.59082 2.58984 -4.04297 6.0957 -4.04297 9.75781c0 0.204102 -0.170898 0.375 -0.375 0.375h-28.3477
c-0.204102 0 -0.375 -0.170898 -0.375 -0.375c0 -11.377 4.52051 -22.2891 12.5664 -30.3311c8.04297 -8.04785 18.9551 -12.5635 30.3281 -12.5635h6.71484v-13.8008c0 -0.204102 0.170898 -0.375 0.375 -0.375h28.3438c0.204102 0 0.375 0.170898 0.375 0.375v13.8008
h6.71094c23.6914 0 42.8955 19.2031 42.8955 42.8945c0 23.6875 -19.2041 42.8945 -42.8955 42.8945h-6.71094v27.5938zM79.9883 555.273h-7.08984c-8.03125 -0.00390625 -14.5391 -6.51562 -14.5391 -14.5469s6.50781 -14.543 14.5391 -14.5469h7.08984
c0.204102 0 0.375 0.170898 0.375 0.375v28.3438c0 0.204102 -0.170898 0.375 -0.375 0.375zM79.6133 554.523v-27.5938h-6.71484c-7.61719 0.00390625 -13.7891 6.17969 -13.7891 13.7969s6.17188 13.793 13.7891 13.7969h6.71484zM107.957 498.207v-28.3477
c0 -0.204102 0.170898 -0.375 0.375 -0.375h7.08594c8.03516 0.00390625 14.543 6.51953 14.543 14.5508s-6.50781 14.543 -14.543 14.5469h-7.08594c-0.204102 0 -0.375 -0.170898 -0.375 -0.375zM108.707 497.832h6.71094
c7.62109 -0.00390625 13.793 -6.17969 13.793 -13.7969s-6.17188 -13.7969 -13.793 -13.8008h-6.71094v27.5977zM419.876 753.584c-0.0519272 -0.0529516 -0.0888797 -0.121199 -0.101986 -0.198354l-4.72656 -28.3438
c0 -0.0190068 -0.00485167 -0.03797 -0.00485167 -0.056757l-3.1138e-005 -0.00476644c0 -0.104108 0.0444647 -0.199578 0.115122 -0.268131c0.0529516 -0.0519272 0.121199 -0.0888797 0.198354 -0.101986c0.0190068 0 0.03797 -0.00485167 0.056757 -0.00485167
l0.00476644 -3.1138e-005h27.9048l-4.59771 -27.5977h-28.0298c-0.104108 0 -0.199578 -0.0444647 -0.268131 -0.115122c-0.0519272 -0.0529516 -0.0888797 -0.121199 -0.101986 -0.198354l-4.72266 -28.3477c0 -0.0190068 -0.00485167 -0.03797 -0.00485167 -0.056757
l-3.1138e-005 -0.00476644c0 -0.104108 0.0444647 -0.199578 0.115122 -0.268131c0.0529516 -0.0519272 0.121199 -0.0888797 0.198354 -0.101986c0.0190068 0 0.03797 -0.00485167 0.056757 -0.00485167l0.00476644 -3.1138e-005h27.9009l-7.01319 -42.083
c0 -0.0190068 -0.00485167 -0.03797 -0.00485167 -0.056757l-3.1138e-005 -0.00476644c0 -0.104108 0.0444647 -0.199578 0.115122 -0.268131c0.0529516 -0.0519272 0.121199 -0.0888797 0.198354 -0.101986c0.0190068 0 0.03797 -0.00485167 0.056757 -0.00485167
l0.00476644 -3.1138e-005h28.3477c0.104108 0 0.199578 0.0444647 0.268131 0.115122c0.0519272 0.0529516 0.0888797 0.121199 0.101986 0.198354l7.0337 42.2061h27.5869l-7.01706 -42.083c0 -0.0190068 -0.00485167 -0.03797 -0.00485167 -0.056757
l-3.1138e-005 -0.00476644c0 -0.104108 0.0444647 -0.199578 0.115122 -0.268131c0.0529516 -0.0519272 0.121199 -0.0888797 0.198354 -0.101986c0.0190068 0 0.03797 -0.00485167 0.056757 -0.00485167l0.00476644 -3.1138e-005h28.3477
c0.104108 0 0.199578 0.0444647 0.268131 0.115122c0.0519272 0.0529516 0.0888797 0.121199 0.101986 0.198354l7.0337 42.2061h28.0298c0.104108 0 0.199578 0.0444647 0.268131 0.115122c0.0519272 0.0529516 0.0888797 0.121199 0.101986 0.198354l4.72266 28.3477
c0 0.0190068 0.00485167 0.03797 0.00485167 0.056757l3.1138e-005 0.00476644c0 0.104108 -0.0444647 0.199578 -0.115122 0.268131c-0.0529516 0.0519272 -0.121199 0.0888797 -0.198354 0.101986c-0.0190068 0 -0.03797 0.00485167 -0.056757 0.00485167
l-0.00476644 3.1138e-005h-27.9009l4.59771 27.5977h28.0298c0.104108 0 0.199578 0.0444647 0.268131 0.115122c0.0519272 0.0529516 0.0888797 0.121199 0.101986 0.198354l4.72266 28.3438c0 0.0190068 0.00485167 0.03797 0.00485167 0.056757l3.1138e-005 0.00476644
c0 0.104108 -0.0444647 0.199578 -0.115122 0.268131c-0.0529516 0.0519272 -0.121199 0.0888797 -0.198354 0.101986c-0.0190068 0 -0.03797 0.00485167 -0.056757 0.00485167l-0.00476644 3.1138e-005h-27.9009l7.01319 42.083
c0 0.0190068 0.00485167 0.03797 0.00485167 0.056757l3.1138e-005 0.00476644c0 0.104108 -0.0444647 0.199578 -0.115122 0.268131c-0.0529516 0.0519272 -0.121199 0.0888797 -0.198354 0.101986c-0.0190068 0 -0.03797 0.00485167 -0.056757 0.00485167
l-0.00476644 3.1138e-005h-28.3477c-0.104108 0 -0.199578 -0.0444647 -0.268131 -0.115122c-0.0519272 -0.0529516 -0.0888797 -0.121199 -0.101986 -0.198354l-7.0337 -42.2061h-27.5869l7.01319 42.083c0 0.0190068 0.00485167 0.03797 0.00485167 0.056757
l3.1138e-005 0.00476644c0 0.104108 -0.0444647 0.199578 -0.115122 0.268131c-0.0529516 0.0519272 -0.121199 0.0888797 -0.198354 0.101986c-0.0190068 0 -0.03797 0.00485167 -0.056757 0.00485167l-0.00476644 3.1138e-005h-28.3438
c-0.104108 0 -0.199578 -0.0444647 -0.268131 -0.115122c-0.0519272 -0.0529516 -0.0888797 -0.121199 -0.101986 -0.198354l-7.0337 -42.2061h-28.0298c-0.104108 0 -0.199578 -0.0444647 -0.268131 -0.115122zM448.76 753.064
c0.0519272 0.0529516 0.0888797 0.121199 0.101986 0.198354l7.0337 42.2061h27.583l-7.01319 -42.083c0 -0.0190068 -0.00485167 -0.03797 -0.00485167 -0.056757l-3.1138e-005 -0.00476644c0 -0.104108 0.0444647 -0.199578 0.115122 -0.268131
c0.0529516 -0.0519272 0.121199 -0.0888797 0.198354 -0.101986c0.0190068 0 0.03797 -0.00485167 0.056757 -0.00485167l0.00476644 -3.1138e-005h28.3477c0.104108 0 0.199578 0.0444647 0.268131 0.115122c0.0519272 0.0529516 0.0888797 0.121199 0.101986 0.198354
l7.0337 42.2061h27.5869l-7.01319 -42.083c0 -0.0190068 -0.00485167 -0.03797 -0.00485167 -0.056757l-3.1138e-005 -0.00476644c0 -0.104108 0.0444647 -0.199578 0.115122 -0.268131c0.0529516 -0.0519272 0.121199 -0.0888797 0.198354 -0.101986
c0.0190068 0 0.03797 -0.00485167 0.056757 -0.00485167l0.00476644 -3.1138e-005h27.9009l-4.59769 -27.5938h-28.0298c-0.104108 0 -0.199578 -0.0444647 -0.268131 -0.115122c-0.0519272 -0.0529516 -0.0888797 -0.121199 -0.101986 -0.198354l-4.72266 -28.3477
c0 -0.0190068 -0.00485167 -0.03797 -0.00485167 -0.056757l-3.1138e-005 -0.00476644c0 -0.104108 0.0444647 -0.199578 0.115122 -0.268131c0.0529516 -0.0519272 0.121199 -0.0888797 0.198354 -0.101986c0.0190068 0 0.03797 -0.00485167 0.056757 -0.00485167
l0.00476644 -3.1138e-005h27.9009l-4.59771 -27.5977h-28.0298c-0.104108 0 -0.199578 -0.0444647 -0.268131 -0.115122c-0.0519272 -0.0529516 -0.0888797 -0.121199 -0.101986 -0.198354l-7.0337 -42.2061h-27.5869l7.01706 42.083
c0 0.0190068 0.00485167 0.03797 0.00485167 0.056757l3.1138e-005 0.00476644c0 0.104108 -0.0444647 0.199578 -0.115122 0.268131c-0.0529516 0.0519272 -0.121199 0.0888797 -0.198354 0.101986c-0.0190068 0 -0.03797 0.00485167 -0.056757 0.00485167
l-0.00476644 3.1138e-005h-28.3477c-0.104108 0 -0.199578 -0.0444647 -0.268131 -0.115122c-0.0519272 -0.0529516 -0.0888797 -0.121199 -0.101986 -0.198354l-7.0337 -42.2061h-27.5869l7.01319 42.083c0 0.0190068 0.00485167 0.03797 0.00485167 0.056757
l3.1138e-005 0.00476644c0 0.104108 -0.0444647 0.199578 -0.115122 0.268131c-0.0529516 0.0519272 -0.121199 0.0888797 -0.198354 0.101986c-0.0190068 0 -0.03797 0.00485167 -0.056757 0.00485167l-0.00476644 3.1138e-005h-27.9009l4.59771 27.5977h28.0298
c0.104108 0 0.199578 0.0444647 0.268131 0.115122c0.0519272 0.0529516 0.0888797 0.121199 0.101986 0.198354l4.72266 28.3477c0 0.0190068 0.00485167 0.03797 0.00485167 0.056757l3.1138e-005 0.00476644c0 0.104108 -0.0444647 0.199578 -0.115122 0.268131
c-0.0529516 0.0519272 -0.121199 0.0888797 -0.198354 0.101986c-0.0190068 0 -0.03797 0.00485167 -0.056757 0.00485167l-0.00476644 3.1138e-005h-27.9047l4.60149 27.5938h28.0298c0.104108 0 0.199578 0.0444647 0.268131 0.115122zM472.431 724.605h27.5869
l-4.60151 -27.5977h-27.5869zM471.845 725.24c-0.0519272 -0.0529516 -0.0888797 -0.121199 -0.101986 -0.198354l-4.72656 -28.3477c0 -0.0190068 -0.00485167 -0.03797 -0.00485167 -0.056757l-3.1138e-005 -0.00476644
c0 -0.104108 0.0444647 -0.199578 0.115122 -0.268131c0.0529516 -0.0519272 0.121199 -0.0888797 0.198354 -0.101986c0.0190068 0 0.03797 -0.00485167 0.056757 -0.00485167l0.00476644 -3.1138e-005h28.3477c0.104108 0 0.199578 0.0444647 0.268131 0.115122
c0.0519272 0.0529516 0.0888797 0.121199 0.101986 0.198354l4.72656 28.3477c0 0.0190068 0.00485167 0.03797 0.00485167 0.056757l3.1138e-005 0.00476644c0 0.104108 -0.0444647 0.199578 -0.115122 0.268131
c-0.0529516 0.0519272 -0.121199 0.0888797 -0.198354 0.101986c-0.0190068 0 -0.03797 0.00485167 -0.056757 0.00485167l-0.00476644 3.1138e-005h-28.3477c-0.104108 0 -0.199578 -0.0444647 -0.268131 -0.115122zM324.131 753.699h-20.571l-3.48047 41.7695h27.5319z
M281.612 753.699h-20.571l-3.48047 41.7695h27.5319zM111.489 795.469l-3.52214 -126.809h-27.614l-3.52602 126.809h34.6622zM111.88 796.219l-0.00520331 3.8187e-005h-35.4234h-0.0209557c-0.204102 -0.00585938 -0.370117 -0.181641 -0.364258 -0.385742
l3.54688 -127.559c0 -0.0447295 0.0107292 -0.0873484 0.026842 -0.126635c0.0558274 -0.137981 0.192315 -0.237622 0.348158 -0.237623h0.0107422h28.3223c0.204102 -0.00585938 0.379883 0.160156 0.385742 0.364258l3.54297 127.559
c0.00585938 0.204102 -0.160156 0.385742 -0.364258 0.385742zM87.0742 653.738h14.1719c1.7793 0 3.48828 -0.707031 4.74609 -1.96777c1.25879 -1.25879 1.96484 -2.96387 1.96484 -4.74316v-14.1758c0 -1.7793 -0.707031 -3.48438 -1.96484 -4.74219
c-1.25781 -1.2627 -2.9668 -1.96875 -4.74609 -1.96875h-14.1719c-1.7793 0 -3.48828 0.707031 -4.74512 1.96777c-1.25977 1.25879 -1.96582 2.96387 -1.96582 4.74316v14.1758c0 1.7793 0.706055 3.48438 1.96484 4.74219c1.25781 1.2627 2.96582 1.96875 4.74609 1.96875
zM79.6133 647.027v-14.1758c0 -1.97852 0.786133 -3.875 2.18457 -5.27246c1.39746 -1.40332 3.29785 -2.18848 5.27637 -2.18848h14.1719c1.97852 0 3.87891 0.786133 5.27734 2.1875c1.39844 1.39844 2.18359 3.29492 2.18359 5.27344v14.1758
c0 1.97852 -0.786133 3.875 -2.18359 5.27246c-1.39844 1.40332 -3.29883 2.18848 -5.27734 2.18848h-14.1719c-1.97754 0 -3.87891 -0.786133 -5.27539 -2.1875c-1.39941 -1.39844 -2.18555 -3.29492 -2.18555 -5.27344zM107.924 398.621l-3.48047 -41.7695h-20.5671
l-3.48047 41.7695h27.528z" />
  </g>

</svg>
