<?xml version="1.0" standalone="no"?>
<!DOCTYPE svg PUBLIC "-//W3C//DTD SVG 1.1//EN" "http://www.w3.org/Graphics/SVG/1.1/DTD/svg11.dtd" >
<svg xmlns="http://www.w3.org/2000/svg" xmlns:xlink="http://www.w3.org/1999/xlink" version="1.1" viewBox="0 -158 1000 1000">
  <g transform="matrix(1 0 0 -1 0 842)">
   <path fill="currentColor"
d="M229.18 235.852h6.73828v-6.5625h-6.73828v6.5625zM228.43 236.227v-7.3125c0 -0.204102 0.170898 -0.375 0.375 -0.375h7.48828c0.204102 0 0.375 0.170898 0.375 0.375v7.3125c0 0.204102 -0.170898 0.375 -0.375 0.375h-7.48828
c-0.204102 0 -0.375 -0.170898 -0.375 -0.375zM30.3789 228.539h14.1758c0.204102 0 0.375 0.170898 0.375 0.375v14.1758c0 0.204102 -0.170898 0.375 -0.375 0.375h-14.1758c-0.204102 0 -0.375 -0.170898 -0.375 -0.375v-14.1758
c0 -0.204102 0.170898 -0.375 0.375 -0.375zM30.7539 229.289v13.4258h13.4258v-13.4258h-13.4258zM427.23 30.1172h14.1719c0.204102 0 0.375 0.170898 0.375 0.375v14.1719c0 0.204102 -0.170898 0.375 -0.375 0.375h-14.1719c-0.204102 0 -0.375 -0.170898 -0.375 -0.375
v-14.1719c0 -0.204102 0.170898 -0.375 0.375 -0.375zM427.605 30.8672v13.4219h13.4219v-13.4219h-13.4219zM228.805 30.1172h14.1758c0.204102 0 0.375 0.170898 0.375 0.375v14.1719c0 0.204102 -0.170898 0.375 -0.375 0.375h-14.1758
c-0.204102 0 -0.375 -0.170898 -0.375 -0.375v-14.1719c0 -0.204102 0.170898 -0.375 0.375 -0.375zM229.18 30.8672v13.4219h13.4258v-13.4219h-13.4258zM427.23 426.965h14.1719c0.204102 0 0.375 0.170898 0.375 0.375v14.1758c0 0.204102 -0.170898 0.375 -0.375 0.375
h-14.1719c-0.204102 0 -0.375 -0.170898 -0.375 -0.375v-14.1758c0 -0.204102 0.170898 -0.375 0.375 -0.375zM427.605 427.715v13.4258h13.4219v-13.4258h-13.4219zM228.805 426.965h14.1758c0.204102 0 0.375 0.170898 0.375 0.375v14.1758
c0 0.204102 -0.170898 0.375 -0.375 0.375h-14.1758c-0.204102 0 -0.375 -0.170898 -0.375 -0.375v-14.1758c0 -0.204102 0.170898 -0.375 0.375 -0.375zM229.18 427.715v13.4258h13.4258v-13.4258h-13.4258zM30.3789 426.965h14.1758
c0.204102 0 0.375 0.170898 0.375 0.375v14.1758c0 0.204102 -0.170898 0.375 -0.375 0.375h-14.1758c-0.204102 0 -0.375 -0.170898 -0.375 -0.375v-14.1758c0 -0.204102 0.170898 -0.375 0.375 -0.375zM30.7539 427.715v13.4258h13.4258v-13.4258h-13.4258z
M228.805 625.391h14.1758c0.204102 0 0.375 0.170898 0.375 0.375v14.1709c0 0.204102 -0.170898 0.375 -0.375 0.375h-14.1758c-0.204102 0 -0.375 -0.170898 -0.375 -0.375v-14.1709c0 -0.204102 0.170898 -0.375 0.375 -0.375zM229.18 626.141v13.4209h13.4258v-13.4209
h-13.4258zM30.3789 625.391h14.1758c0.204102 0 0.375 0.170898 0.375 0.375v14.1709c0 0.204102 -0.170898 0.375 -0.375 0.375h-14.1758c-0.204102 0 -0.375 -0.170898 -0.375 -0.375v-14.1709c0 -0.204102 0.170898 -0.375 0.375 -0.375zM30.7539 626.141v13.4209
h13.4258v-13.4209h-13.4258zM427.144 200.935c-0.0333634 -0.0076545 -0.0660526 -0.0200426 -0.0970754 -0.0374302c-0.0629292 -0.0354191 -0.111691 -0.0871852 -0.144111 -0.147154c-0.0300605 -0.0537095 -0.0472958 -0.115177 -0.0472955 -0.179994
c0 -0.029683 0.0036146 -0.0586637 0.0104214 -0.0865184c0.0076545 -0.0333634 0.0200426 -0.0660526 0.0374302 -0.0970754l95.668 -170.078c0.0354191 -0.0629291 0.0871852 -0.111691 0.147154 -0.144111c0.0537095 -0.0300605 0.115177 -0.0472958 0.179994 -0.0472955
h31.8906c0.029683 0 0.0586637 0.0036146 0.0865184 0.0104214c0.0333634 0.0076545 0.0660526 0.0200426 0.0970754 0.0374302c0.0629291 0.0354191 0.111691 0.0871852 0.144111 0.147154c0.0300605 0.0537095 0.0472958 0.115177 0.0472955 0.179994
c0 0.029683 -0.0036146 0.0586637 -0.0104214 0.0865184c-0.0076545 0.0333634 -0.0200426 0.0660526 -0.0374302 0.0970754l-95.668 170.078c-0.0354191 0.0629292 -0.0871852 0.111691 -0.147154 0.144111c-0.0537095 0.0300605 -0.115177 0.0472958 -0.179994 0.0472955
h-31.8906c-0.029683 0 -0.0586637 -0.0036146 -0.0865184 -0.0104214zM523.118 30.8672l-95.2461 169.328h31.0298l95.2461 -169.328h-31.0298zM257.152 30.1172h70.8672c0.204102 0 0.375 0.170898 0.375 0.375v28.3438c0 0.204102 -0.170898 0.375 -0.375 0.375h-42.1445
v112.637h42.1445c0.204102 0 0.375 0.170898 0.375 0.375v28.3477c0 0.204102 -0.170898 0.375 -0.375 0.375h-70.8672c-0.204102 0 -0.375 -0.170898 -0.375 -0.375v-170.078c0 -0.204102 0.170898 -0.375 0.375 -0.375zM257.527 30.8672v169.328h70.1172v-27.5977
h-42.1445c-0.204102 0 -0.375 -0.170898 -0.375 -0.375v-113.387c0 -0.204102 0.170898 -0.375 0.375 -0.375h42.1445v-27.5938h-70.1172zM132.762 97.8115c-0.00390625 -3.70215 -3.00781 -6.70605 -6.71094 -6.70605c-3.70703 0 -6.71094 3.00391 -6.71094 6.70605
v57.4033c0 1.77344 -1.4375 3.21094 -3.21094 3.21094h-12.0469c-1.77344 0 -3.21094 -1.4375 -3.21094 -3.21094v-2.22774c-8.72644 3.33771 -18.545 2.22395 -26.3115 -3.01249c-7.91504 -5.33887 -12.665 -14.2637 -12.665 -23.8145v-28.3486
c0 -10.4326 5.66016 -20.0459 14.7832 -25.1084c9.05969 -5.03025 20.1177 -4.78879 28.945 0.622053c11.0595 -5.91759 24.4124 -5.61608 35.1976 0.805681c10.8486 6.4541 17.4932 18.1475 17.4932 30.7676v60.2383c0 19.7773 -16.0322 35.8086 -35.8057 35.8086h-56.6943
c-19.7744 0 -35.8096 -16.0312 -35.8096 -35.8086v-99.2148c0 -9.49414 3.77344 -18.6006 10.4883 -25.3203c6.71582 -6.71484 15.8223 -10.4844 25.3213 -10.4844h77.9521c0.204102 0 0.375 0.170898 0.375 0.375v21.2578c0 0.204102 -0.170898 0.375 -0.375 0.375
h-77.9521c-7.62207 0 -13.7979 6.17969 -13.7979 13.7969v99.2148c0 7.62109 6.17578 13.7969 13.7979 13.7969h53.1514c7.61719 0 13.7969 -6.17578 13.7969 -13.7969v-67.3252zM133.512 97.8115v67.3252c0 8.03516 -6.51562 14.5469 -14.5469 14.5469h-53.1514
c-8.03613 0 -14.5479 -6.51172 -14.5479 -14.5469v-99.2148c0 -8.03125 6.51172 -14.5469 14.5479 -14.5469h77.5771v-20.5078h-77.5771c-9.2998 0 -18.2168 3.69141 -24.79 10.2656c-6.57422 6.57715 -10.2695 15.4941 -10.2695 24.7891v99.2148
c0 19.3633 15.6992 35.0586 35.0596 35.0586h56.6943c19.3594 0 35.0557 -15.6953 35.0557 -35.0586v-60.2383c0 -12.3564 -6.50586 -23.8037 -17.126 -30.123c-10.6211 -6.32422 -23.7852 -6.58594 -34.6494 -0.688477
c-0.0455805 0.024772 -0.0944913 0.0388615 -0.143688 0.0431612c-0.0795076 0.00788276 -0.161737 -0.009047 -0.233265 -0.0539033c-8.62695 -5.37695 -19.4854 -5.65137 -28.3701 -0.716797c-8.88477 4.92969 -14.3965 14.293 -14.3965 24.4521v28.3486
c0 9.30078 4.625 17.9932 12.335 23.1934c7.71289 5.19922 17.5029 6.22461 26.126 2.73535c0.0205768 -0.00827316 0.0415338 -0.0145418 0.0626444 -0.0189013c0.0252223 -0.00552583 0.0513181 -0.00844243 0.0779806 -0.00844243
c0.079259 0 0.153511 0.0257717 0.214691 0.0692529c0.0577635 0.040012 0.104917 0.0962412 0.132965 0.165122c0.00827315 0.0205768 0.0145418 0.0415338 0.0189013 0.0626444c0.00552583 0.0252223 0.00844243 0.0513181 0.00844243 0.0779806v2.77832
c0 1.35938 1.10156 2.46094 2.46094 2.46094h12.0469c1.35938 0 2.46094 -1.10156 2.46094 -2.46094v-57.4033c0 -4.11621 3.33984 -7.45605 7.46094 -7.45605c4.11719 0 7.45703 3.33984 7.46094 7.45605zM95.5781 91.1016h-6.37891
c-2.92578 0 -5.29297 2.37109 -5.29297 5.29297v31.1836c0 1.4043 0.558594 2.75 1.55078 3.74219s2.33789 1.55078 3.74219 1.55078h6.37891c1.4043 0 2.75 -0.558594 3.74219 -1.55078s1.55078 -2.33789 1.55078 -3.74219v-31.1836
c0 -2.92188 -2.37109 -5.29297 -5.29297 -5.29297zM95.5781 90.3516c3.33594 0 6.04297 2.70703 6.04297 6.04297v31.1836c0 1.60352 -0.636719 3.14062 -1.76953 4.27344s-2.66992 1.76953 -4.27344 1.76953h-6.37891c-1.60352 0 -3.14062 -0.636719 -4.27344 -1.76953
s-1.76953 -2.66992 -1.76953 -4.27344v-31.1836c0 -3.33594 2.70312 -6.04297 6.04297 -6.04297h6.37891zM498.098 256.887c3.70703 0 6.71094 -3.00391 6.71094 -6.71094v-14.1719c0 -3.70703 -3.00391 -6.71484 -6.71094 -6.71484h-14.1758
c-1.7793 0 -3.48438 0.709961 -4.74219 1.96875c-1.2627 1.25781 -1.96875 2.96289 -1.96875 4.74609v14.1719c0 1.7793 0.707031 3.48828 1.96777 4.74512c1.25879 1.25977 2.96387 1.96582 4.74316 1.96582h14.1758zM498.098 257.637h-14.1758
c-1.97852 0 -3.875 -0.786133 -5.27246 -2.18457c-1.40332 -1.39746 -2.18848 -3.29785 -2.18848 -5.27637v-14.1719c0 -1.98242 0.786133 -3.87891 2.1875 -5.27734c1.39844 -1.39746 3.29492 -2.1875 5.27344 -2.1875h14.1758c4.12109 0 7.46094 3.34375 7.46094 7.46484
v14.1719c0 4.12109 -3.33984 7.46094 -7.46094 7.46094zM477.211 285.609c0 11.5947 5.73145 22.4395 15.3135 28.9678l24.8428 16.9336c7.84668 5.34668 11.29 15.1807 8.49121 24.252c-2.79883 9.07129 -11.1816 15.2607 -20.6748 15.2607h-28.3477
c-11.824 0 -21.4296 -9.48548 -21.6296 -21.2617h-27.5994c0.201553 27.0188 22.1667 48.8594 49.2291 48.8594h28.3477c21.6006 0 40.6787 -14.084 47.0439 -34.7236c6.36523 -20.6436 -1.46582 -43.0244 -19.3174 -55.1895l-24.8277 -16.9227
c-0.00573556 -0.00346498 -0.0114031 -0.00710411 -0.0169958 -0.0109188c-2.03516 -1.38965 -3.25684 -3.69727 -3.25684 -6.16504v-13.8008h-27.5977v13.8008zM476.461 285.609v-14.1758c0 -0.204102 0.170898 -0.375 0.375 -0.375h28.3477
c0.204102 0 0.375 0.170898 0.375 0.375v14.1758c0 2.21973 1.09863 4.29492 2.93066 5.5459c0.00523807 0.00359356 0.0103565 0.00730583 0.0153541 0.011131l24.8274 16.9225c18.125 12.3506 26.0752 35.0713 19.6123 56.0293
c-6.46289 20.9541 -25.8301 35.2529 -47.7607 35.2529h-28.3477c-27.6016 0 -49.9805 -22.3789 -49.9805 -49.9844c0 -0.204102 0.170898 -0.375 0.375 -0.375h28.3477c0.204102 0 0.375 0.170898 0.375 0.375c0 11.5352 9.34766 20.8867 20.8828 20.8867h28.3477
c9.16309 0 17.2568 -5.97461 19.958 -14.7314c2.70117 -8.75684 -0.621094 -18.251 -8.19629 -23.4121l-24.8428 -16.9336c-9.78711 -6.66699 -15.6416 -17.7441 -15.6416 -29.5869zM30.3789 271.059h127.56c0.204102 0 0.375 0.170898 0.375 0.375v28.3477
c0 0.204102 -0.170898 0.375 -0.375 0.375h-127.56c-0.204102 0 -0.375 -0.170898 -0.375 -0.375v-28.3477c0 -0.204102 0.170898 -0.375 0.375 -0.375zM30.7539 271.809v27.5977h126.81v-27.5977h-126.81zM30.7539 356.102h126.81v-27.5977h-126.81v27.5977z
M30.0039 356.477v-28.3477c0 -0.204102 0.170898 -0.375 0.375 -0.375h127.56c0.204102 0 0.375 0.170898 0.375 0.375v28.3477c0 0.204102 -0.170898 0.375 -0.375 0.375h-127.56c-0.204102 0 -0.375 -0.170898 -0.375 -0.375zM257.152 398.465l84.5078 -84.5078
l-84.5078 -84.5117l-19.5118 19.5156l64.7266 64.7305c0.0717773 0.0722656 0.107666 0.168945 0.107666 0.265625s-0.0358887 0.193359 -0.107666 0.265625l-64.7266 64.7266zM256.887 399.262l-20.043 -20.0469
c-0.0717773 -0.0722656 -0.107666 -0.168945 -0.107666 -0.265625s0.0358887 -0.193359 0.107666 -0.265625l64.7266 -64.7266l-64.7266 -64.7305c-0.0717773 -0.0722656 -0.107666 -0.168945 -0.107666 -0.265625s0.0358887 -0.193359 0.107666 -0.265625l20.043 -20.0469
c0.0722656 -0.0717773 0.168945 -0.107666 0.265625 -0.107666s0.193359 0.0358887 0.265625 0.107666l85.0391 85.043c0.0717773 0.0722656 0.107666 0.168945 0.107666 0.265625s-0.0358887 0.193359 -0.107666 0.265625l-85.0391 85.0391
c-0.0722656 0.0717773 -0.168945 0.107666 -0.265625 0.107666s-0.193359 -0.0358887 -0.265625 -0.107666zM526.18 597.684l-85.043 -85.0391c-0.0717773 -0.0722656 -0.107666 -0.168945 -0.107666 -0.265625s0.0358887 -0.193359 0.107666 -0.265625l85.043 -85.0391
c0.0722656 -0.0717773 0.168945 -0.107666 0.265625 -0.107666s0.193359 0.0358887 0.265625 0.107666l20.043 20.0469c0.0717773 0.0722656 0.107666 0.168945 0.107666 0.265625s-0.0358887 0.193359 -0.107666 0.265625l-64.7305 64.7266l64.7305 64.7305
c0.0717773 0.0722656 0.107666 0.168945 0.107666 0.265625s-0.0358887 0.193359 -0.107666 0.265625l-20.043 20.043c-0.0722656 0.0717773 -0.168945 0.107666 -0.265625 0.107666s-0.193359 -0.0358887 -0.265625 -0.107666zM526.445 596.887l19.5117 -19.5117
l-64.7305 -64.7305c-0.0717773 -0.0722656 -0.107666 -0.168945 -0.107666 -0.265625s0.0358887 -0.193359 0.107666 -0.265625l64.7305 -64.7266l-19.5118 -19.5156l-84.5117 84.5078zM273.159 436.214c-0.550672 -2.22006 -0.0473642 -4.57462 1.36199 -6.37914
c1.41504 -1.80859 3.58203 -2.87012 5.88184 -2.87012h3.42188c1.16016 0 2.30371 0.271484 3.33984 0.790039l11.7852 5.89062c1.94128 0.970642 3.36048 2.73653 3.89582 4.83943c0 0.00844977 0.00749639 0.0170525 0.00749639 0.0257999l9.15625 36.6289
c0.554688 2.22461 0.0576172 4.58984 -1.35742 6.40039c-1.41504 1.80859 -3.58594 2.87012 -5.88184 2.87012h-13.7383c-3.42188 0 -6.4082 -2.33203 -7.23926 -5.65137l-10.6289 -42.5234c0 -0.00707579 -0.00457239 -0.0141628 -0.00457239 -0.0212508zM273.886 436.032
c0 0.00706025 0.00610032 0.014225 0.00610032 0.0214894l10.6289 42.5234c0.74707 2.98535 3.43262 5.08301 6.51074 5.08301h13.7383c2.06348 0 4.01758 -0.954102 5.29004 -2.58301c1.27246 -1.62695 1.7207 -3.75391 1.2207 -5.75586l-9.15625 -36.6289
c0 -0.00785924 -0.00499843 -0.0157323 -0.00499843 -0.0236094c-0.482178 -1.89099 -1.7591 -3.48002 -3.50574 -4.35334l-11.7852 -5.89062c-0.932617 -0.46582 -1.96094 -0.709961 -3.00391 -0.709961h-3.42188c-2.06738 0 -4.01758 0.954102 -5.29004 2.58301
c-1.26908 1.62139 -1.72152 3.74034 -1.2268 5.73437zM306.758 554.523c3.70703 0 6.71094 -3.00391 6.71094 -6.71191v-14.1709c0 -1.7793 -0.707031 -3.48926 -1.96484 -4.74609c-1.25684 -1.25781 -2.9668 -1.96484 -4.74609 -1.96484h-14.1719
c-3.70703 0 -6.71094 3.00391 -6.71094 6.71094v14.1709c0 3.70801 3.00391 6.71191 6.71094 6.71191h14.1719zM306.758 555.273h-14.1719c-4.12109 0 -7.46094 -3.33984 -7.46094 -7.46191v-14.1709c0 -4.12109 3.33984 -7.46094 7.46094 -7.46094h14.1719
c1.97852 0 3.87793 0.785156 5.27734 2.18359c1.39844 1.39941 2.18359 3.29883 2.18359 5.27734v14.1709c0 4.12207 -3.33984 7.46191 -7.46094 7.46191zM108.332 483.66c1.7793 0 3.48828 -0.707031 4.74609 -1.96777c1.25879 -1.25879 1.96484 -2.96387 1.96484 -4.74316
v-14.1758c0 -1.7793 -0.706055 -3.48535 -1.96484 -4.74707c-1.25684 -1.25684 -2.9668 -1.96484 -4.74609 -1.96484h-14.1719c-3.70703 0 -6.71094 3.00488 -6.71094 6.71191v14.1758c0 3.70312 3.00391 6.71094 6.71094 6.71094h14.1719zM108.332 484.41h-14.1719
c-4.12109 0 -7.46094 -3.34375 -7.46094 -7.46094v-14.1758c0 -4.12109 3.33984 -7.46191 7.46094 -7.46191h14.1719c1.97852 0 3.87793 0.786133 5.27734 2.18555c1.39746 1.40234 2.18359 3.29785 2.18359 5.27637v14.1758c0 1.97852 -0.786133 3.875 -2.18359 5.27246
c-1.39844 1.40332 -3.29883 2.18848 -5.27734 2.18848zM108.332 554.523c3.70703 0 6.71094 -3.00391 6.71094 -6.71191v-14.1709c0 -1.7793 -0.707031 -3.48926 -1.96484 -4.74609c-1.25684 -1.25781 -2.9668 -1.96484 -4.74609 -1.96484h-14.1719
c-3.70703 0 -6.71094 3.00391 -6.71094 6.71094v14.1709c0 3.70801 3.00391 6.71191 6.71094 6.71191h14.1719zM108.332 555.273h-14.1719c-4.12109 0 -7.46094 -3.33984 -7.46094 -7.46191v-14.1709c0 -4.12109 3.33984 -7.46094 7.46094 -7.46094h14.1719
c1.97852 0 3.87793 0.785156 5.27734 2.18359c1.39844 1.39941 2.18359 3.29883 2.18359 5.27734v14.1709c0 4.12207 -3.33984 7.46191 -7.46094 7.46191zM555.117 796.024c-0.03242 0.0599691 -0.0811819 0.111735 -0.144111 0.147155
c-0.031025 0.0173876 -0.0637164 0.0297762 -0.0970817 0.0374317c-0.027853 0.00680466 -0.0568316 0.0104187 -0.086512 0.0104198h-31.8906c-0.0648165 0 -0.126284 -0.0172352 -0.179994 -0.0472954c-0.0599691 -0.03242 -0.111735 -0.0811819 -0.147155 -0.144111
l-95.668 -170.078c-0.0173876 -0.031025 -0.0297762 -0.0637164 -0.0374317 -0.0970817c-0.00680466 -0.027853 -0.0104187 -0.0568316 -0.0104198 -0.086512c0 -0.0648165 0.0172352 -0.126284 0.0472954 -0.179994
c0.03242 -0.0599691 0.0811819 -0.111735 0.144111 -0.147155c0.031025 -0.0173876 0.0637164 -0.0297762 0.0970817 -0.0374317c0.027853 -0.00680466 0.0568316 -0.0104187 0.086512 -0.0104198h31.8906c0.0648165 0 0.126284 0.0172352 0.179994 0.0472954
c0.0599691 0.03242 0.111735 0.0811819 0.147155 0.144111l95.668 170.078c0.0173876 0.031025 0.0297762 0.0637164 0.0374317 0.0970817c0.00680466 0.027853 0.0104187 0.0568316 0.0104198 0.086512c0 0.0648165 -0.0172352 0.126284 -0.0472954 0.179994z
M458.902 626.141h-31.0298l95.2461 169.328h31.0298zM299.672 653.738c3.70703 0 6.71094 -3.00391 6.71094 -6.71094v-14.1758c0 -3.70801 -3.00391 -6.71094 -6.71094 -6.71094h-14.1719c-1.7832 0 -3.48828 0.706055 -4.74609 1.96777
c-1.25879 1.25879 -1.96875 2.96387 -1.96875 4.74316v14.1758c0 1.7793 0.709961 3.48438 1.96875 4.74219c1.25781 1.2627 2.96289 1.96875 4.74609 1.96875h14.1719zM299.672 654.488h-14.1719c-1.98242 0 -3.87891 -0.786133 -5.27734 -2.1875
c-1.39746 -1.39844 -2.1875 -3.29492 -2.1875 -5.27344v-14.1758c0 -1.97852 0.790039 -3.875 2.1875 -5.27246c1.39844 -1.40234 3.29492 -2.18848 5.27734 -2.18848h14.1719c4.12109 0 7.46094 3.33887 7.46094 7.46094v14.1758
c0 4.12109 -3.33984 7.46094 -7.46094 7.46094zM30.3789 696.258h127.56c0.204102 0 0.375 0.170898 0.375 0.375v28.3477c0 0.204102 -0.170898 0.375 -0.375 0.375h-127.56c-0.204102 0 -0.375 -0.170898 -0.375 -0.375v-28.3477
c0 -0.204102 0.170898 -0.375 0.375 -0.375zM30.7539 697.008v27.5977h126.81v-27.5977h-126.81z" />
  </g>

</svg>
