<?xml version="1.0" standalone="no"?>
<!DOCTYPE svg PUBLIC "-//W3C//DTD SVG 1.1//EN" "http://www.w3.org/Graphics/SVG/1.1/DTD/svg11.dtd" >
<svg xmlns="http://www.w3.org/2000/svg" xmlns:xlink="http://www.w3.org/1999/xlink" version="1.1" viewBox="0 -158 1000 1000">
  <g transform="matrix(1 0 0 -1 0 842)">
   <path fill="currentColor"
d="M86.915 117.727c0.0510668 -0.0237771 0.105423 -0.034696 0.15918 -0.0341425c0.0537568 0 0.108113 0.0103653 0.15918 0.0341425c0.0403113 0.0189826 0.0757314 0.0446732 0.105579 0.0751586c0.0304533 0.029832 0.0561176 0.0652272 0.0750851 0.105505
l25.2855 53.9404h44.8639v-27.5977h-27.083c-0.0764967 0 -0.148329 -0.0240066 -0.208248 -0.0647704c-0.0554635 -0.0365373 -0.101795 -0.0877664 -0.131595 -0.15105l-41.6797 -88.9102c-6.9375 -14.8057 -21.8135 -24.2568 -38.1602 -24.2568h-19.5469v27.5938h19.5469
c5.64551 0 10.7783 3.26367 13.1719 8.37598l8.28906 17.6758c0.0237771 0.0510668 0.034696 0.105423 0.0341424 0.15918c0 0.0537568 -0.0103653 0.108113 -0.0341424 0.15918l-40.7926 87.0166h30.4806l25.2846 -53.9404
c0.0189671 -0.0402784 0.0446311 -0.0756735 0.0750846 -0.105505c0.0298473 -0.0304861 0.0652675 -0.0561768 0.105579 -0.0751591zM30.3789 625.391h14.1758c0.204102 0 0.375 0.170898 0.375 0.375v14.1709c0 0.204102 -0.170898 0.375 -0.375 0.375h-14.1758
c-0.204102 0 -0.375 -0.170898 -0.375 -0.375v-14.1709c0 -0.204102 0.170898 -0.375 0.375 -0.375zM30.7539 626.141v13.4209h13.4258v-13.4209h-13.4258zM272.004 58.7289c0.0142366 -0.0492797 0.0387407 -0.0961606 0.0737819 -0.137127
c0.0398397 -0.0462374 0.0891183 -0.0803515 0.142781 -0.101956c0.0440931 -0.018588 0.092232 -0.0289029 0.142375 -0.0289034h83.625v-27.5938h-126.809v27.7958l99.084 84.9269c0.0462374 0.0398397 0.0803515 0.0891183 0.101956 0.142781
c0.018588 0.0440931 0.0289029 0.092232 0.0289034 0.142375c0 0.0370389 -0.00562811 0.0729844 -0.0160618 0.107013c-0.0142366 0.0492797 -0.0387407 0.0961606 -0.0737819 0.137127c-0.0398397 0.0462374 -0.0891183 0.0803515 -0.142781 0.101956
c-0.0440931 0.018588 -0.092232 0.0289029 -0.142375 0.0289034h-98.8398v27.5977h126.809v-40.8348l-83.8691 -71.8917c-0.0462374 -0.0398397 -0.0803515 -0.0891183 -0.101956 -0.142781c-0.018588 -0.0440931 -0.0289029 -0.092232 -0.0289034 -0.142375
c0 -0.0370389 0.00562811 -0.0729844 0.0160618 -0.107013zM273.378 59.2109l83.2299 71.3438c0.0462374 0.0398397 0.0803515 0.0891183 0.101956 0.142781c0.018588 0.0440931 0.0289029 0.092232 0.0289034 0.142375v41.3828c0 0.204102 -0.170898 0.375 -0.375 0.375
h-127.559c-0.204102 0 -0.375 -0.170898 -0.375 -0.375v-28.3477c0 -0.204102 0.170898 -0.375 0.375 -0.375h98.2005l-98.4446 -84.3789c-0.0462374 -0.0398397 -0.0803515 -0.0891183 -0.101956 -0.142781
c-0.018588 -0.0440931 -0.0289029 -0.092232 -0.0289034 -0.142375v-28.3438c0 -0.204102 0.170898 -0.375 0.375 -0.375h127.559c0.204102 0 0.375 0.170898 0.375 0.375v28.3438c0 0.204102 -0.170898 0.375 -0.375 0.375h-82.9857zM130.719 143.5h27.2193
c0.204102 0 0.375 0.170898 0.375 0.375v28.3477c0 0.204102 -0.170898 0.375 -0.375 0.375h-45.4775c-0.0764967 0 -0.148329 -0.0240066 -0.208248 -0.0647704c-0.0554635 -0.0365373 -0.101795 -0.0877664 -0.131595 -0.15105l-25.0469 -53.4313l-25.0459 53.4313
c-0.0298002 0.0632835 -0.0761321 0.114513 -0.131596 0.15105c-0.0599189 0.0407637 -0.131752 0.0647704 -0.208248 0.0647704h-31.3096c-0.0261612 0 -0.0517769 -0.00813265 -0.0765573 -0.00813265
c-0.0280725 -0.00559496 -0.0558011 -0.0145361 -0.0826224 -0.0270236c-0.0632835 -0.0298002 -0.114513 -0.0761321 -0.15105 -0.131596c-0.0407637 -0.0599189 -0.0647704 -0.131752 -0.0647704 -0.208248c0 -0.0261612 0.00813265 -0.0517769 0.00813265 -0.0765573
c0.00559496 -0.0280725 0.0145361 -0.0558011 0.0270236 -0.0826224l40.9683 -87.3916l-8.21443 -17.5166c-2.27051 -4.84863 -7.1377 -7.94434 -12.4922 -7.94434h-19.9219c-0.204102 0 -0.375 -0.170898 -0.375 -0.375v-28.3438c0 -0.204102 0.170898 -0.375 0.375 -0.375
h19.9219c16.6377 0 31.7773 9.61914 38.8398 24.6885zM30.3789 228.539h14.1758c0.204102 0 0.375 0.170898 0.375 0.375v14.1758c0 0.204102 -0.170898 0.375 -0.375 0.375h-14.1758c-0.204102 0 -0.375 -0.170898 -0.375 -0.375v-14.1758
c0 -0.204102 0.170898 -0.375 0.375 -0.375zM30.7539 229.289v13.4258h13.4258v-13.4258h-13.4258zM228.805 426.965h17.7188c0.204102 0 0.375 0.170898 0.375 0.375v14.1758c0 0.204102 -0.170898 0.375 -0.375 0.375h-17.7188
c-0.204102 0 -0.375 -0.170898 -0.375 -0.375v-14.1758c0 -0.204102 0.170898 -0.375 0.375 -0.375zM229.18 427.715v13.4258h16.9688v-13.4258h-16.9688zM85.7309 313.996c-0.0057759 0.0588904 -0.0254348 0.116984 -0.0600339 0.168883
c-3.46191 5.18066 -5.30762 11.2725 -5.30762 17.5068v35.4336c0 2.16406 -1.75781 3.91797 -3.92188 3.91797h-13.7969v27.5977h13.7969c8.36133 0 16.375 -3.32324 22.2852 -9.23438c5.91016 -5.91016 9.23047 -13.9248 9.23047 -22.2812v-35.4336
c0 -2.16406 1.75391 -3.91797 3.91797 -3.91797h13.8008v-27.5977h-13.8008c-2.16406 0 -3.91797 -1.75391 -3.91797 -3.91797v-35.4336c0 -8.35742 -3.32031 -16.3711 -9.23047 -22.2812c-5.91016 -5.91113 -13.9238 -9.23438 -22.2852 -9.23438h-13.7969v27.5977h13.7969
c2.16406 0 3.92188 1.75293 3.92188 3.91797v35.4336c0 6.23438 1.8457 12.3262 5.30762 17.5107c0.0503541 0.0748855 0.069223 0.162669 0.0600339 0.247133zM84.91 313.957c-3.45697 -5.26218 -5.29672 -11.4191 -5.29672 -17.7187v-35.4336
c0 -1.74902 -1.42188 -3.16797 -3.17188 -3.16797h-14.1719c-0.204102 0 -0.375 -0.170898 -0.375 -0.375v-28.3477c0 -0.204102 0.170898 -0.375 0.375 -0.375h14.1719c8.56055 0 16.7656 3.40332 22.8164 9.45312c6.05078 6.05078 9.44922 14.2559 9.44922 22.8125
v35.4336c0 1.75 1.41797 3.16797 3.16797 3.16797h14.1758c0.204102 0 0.375 0.170898 0.375 0.375v28.3477c0 0.204102 -0.170898 0.375 -0.375 0.375h-14.1758c-1.75 0 -3.16797 1.41797 -3.16797 3.16797v35.4336c0 8.55566 -3.39844 16.7617 -9.44922 22.8125
c-6.05078 6.0498 -14.2559 9.45312 -22.8164 9.45312h-14.1719c-0.204102 0 -0.375 -0.170898 -0.375 -0.375v-28.3477c0 -0.204102 0.170898 -0.375 0.375 -0.375h14.1719c1.75 0 3.17188 -1.41992 3.17188 -3.16797v-35.4336
c0 -6.29959 1.83974 -12.4565 5.29672 -17.7149zM301.011 512.34c0.0057759 -0.0588904 0.0254348 -0.116984 0.0600339 -0.168883c3.46289 -5.18066 5.31152 -11.2725 5.31152 -17.5068v-35.4336c0 -2.16406 1.75391 -3.91895 3.91797 -3.91895h13.8008v-27.5967h-13.8008
c-8.35742 0 -16.3711 3.32031 -22.2812 9.23047c-5.91113 5.91016 -9.23438 13.9277 -9.23438 22.2852v35.4336c0 2.16406 -1.75391 3.91797 -3.91797 3.91797h-13.7969v27.5977h13.7969c2.16406 0 3.91797 1.75391 3.91797 3.91797v35.4336
c0 8.35742 3.32324 16.3711 9.23438 22.2812c5.91016 5.91016 13.9238 9.23047 22.2812 9.23047h13.8008v-27.5938h-13.8008c-2.16406 0 -3.91797 -1.75391 -3.91797 -3.91797v-35.4336c0 -6.23438 -1.84863 -12.3262 -5.31152 -17.5107
c-0.0503541 -0.0748855 -0.069223 -0.162669 -0.0600339 -0.247133zM301.832 512.379c3.45616 5.26218 5.30066 11.4191 5.30066 17.7187v35.4336c0 1.75 1.41797 3.16797 3.16797 3.16797h14.1758c0.204102 0 0.375 0.170898 0.375 0.375v28.3438
c0 0.204102 -0.170898 0.375 -0.375 0.375h-14.1758c-8.55664 0 -16.7617 -3.39844 -22.8125 -9.44922c-6.0498 -6.05078 -9.45312 -14.2559 -9.45312 -22.8125v-35.4336c0 -1.75 -1.41797 -3.16797 -3.16797 -3.16797h-14.1719c-0.204102 0 -0.375 -0.170898 -0.375 -0.375
v-28.3477c0 -0.204102 0.170898 -0.375 0.375 -0.375h14.1719c1.75 0 3.16797 -1.41797 3.16797 -3.16797v-35.4336c0 -8.55664 3.40332 -16.7656 9.45312 -22.8164c6.05078 -6.05078 14.2559 -9.44922 22.8125 -9.44922h14.1758c0.204102 0 0.375 0.170898 0.375 0.375
v28.3467c0 0.204102 -0.170898 0.375 -0.375 0.375h-14.1758c-1.75 0 -3.16797 1.41895 -3.16797 3.16895v35.4336c0 6.29959 -1.8445 12.4565 -5.30066 17.7149zM335.106 718.421l-42.2544 42.2544c-0.0722656 0.0717773 -0.168945 0.107666 -0.265625 0.107666
s-0.193359 -0.0358887 -0.265625 -0.107666l-42.2539 -42.2539l-17.1875 17.1875l59.707 59.7031l59.7037 -59.7037zM335.371 717.626c0.00487211 0.00492136 0.00957822 0.00995543 0.0143615 0.0148512l17.6848 17.6887
c0.00526721 0.00465524 0.010424 0.00948492 0.0154622 0.014489c0.143555 0.144531 0.143555 0.386719 0 0.53125l-60.2344 60.2344c-0.0722656 0.0717773 -0.168945 0.107666 -0.265625 0.107666s-0.193359 -0.0358887 -0.265625 -0.107666l-60.2383 -60.2344
c-0.0717773 -0.0722656 -0.107666 -0.168945 -0.107666 -0.265625s0.0358887 -0.193359 0.107666 -0.265625l17.7188 -17.7188c0.0722656 -0.0717773 0.168945 -0.107666 0.265625 -0.107666s0.193359 0.0358887 0.265625 0.107666l42.2539 42.2539l42.2539 -42.2539
l0.000667815 -0.000177746c0.144581 -0.143134 0.386436 0.000177746 0.530582 0.000177746zM228.805 625.391h14.1758c0.204102 0 0.375 0.170898 0.375 0.375v14.1709c0 0.204102 -0.170898 0.375 -0.375 0.375h-14.1758c-0.204102 0 -0.375 -0.170898 -0.375 -0.375
v-14.1709c0 -0.204102 0.170898 -0.375 0.375 -0.375zM229.18 626.141v13.4209h13.4258v-13.4209h-13.4258zM427.23 426.965h14.1719c0.204102 0 0.375 0.170898 0.375 0.375v14.1758c0 0.204102 -0.170898 0.375 -0.375 0.375h-14.1719
c-0.204102 0 -0.375 -0.170898 -0.375 -0.375v-14.1758c0 -0.204102 0.170898 -0.375 0.375 -0.375zM427.605 427.715v13.4258h13.4219v-13.4258h-13.4219zM228.805 228.539h14.1758c0.204102 0 0.375 0.170898 0.375 0.375v14.1758
c0 0.204102 -0.170898 0.375 -0.375 0.375h-14.1758c-0.204102 0 -0.375 -0.170898 -0.375 -0.375v-14.1758c0 -0.204102 0.170898 -0.375 0.375 -0.375zM229.18 229.289v13.4258h13.4258v-13.4258h-13.4258zM355.365 299.921l-26.9782 -6.74645
c-0.158207 4.81203 -2.69374 9.25003 -6.78022 11.8269c-4.22087 2.66243 -9.50918 2.97377 -14.0121 0.829969c-0.00578124 0 -0.0115256 -0.00770353 -0.0172268 -0.00770353l-18.0898 -8.63672c-0.00524712 0 -0.0104106 -0.00790885 -0.0154892 -0.00790885
c-11.9489 -5.70283 -25.8887 -5.45739 -37.63 0.665135c-11.6446 6.07256 -19.7896 17.2233 -22.0387 30.1459l26.9821 6.74647c0.15795 -4.8126 2.68995 -9.2453 6.78023 -11.8269c4.22087 -2.66243 9.50918 -2.97377 14.0121 -0.829969
c0.00578124 0 0.0115256 0.00770353 0.0172268 0.00770353l18.0859 8.63574c0.0052471 0 0.0104105 0.00790831 0.0154892 0.00790831c11.9528 5.70381 25.8887 5.45837 37.6349 -0.665135c11.6437 -6.07159 19.7848 -17.2224 22.0338 -30.1449zM356.167 299.669
c0 0.0144846 -0.00561677 0.0290155 -0.00561677 0.0435279c-2.2057 13.2955 -10.5307 24.7863 -22.4846 31.0191c-11.9541 6.23032 -26.1364 6.48217 -38.3013 0.676579c-0.0057247 0 -0.0114131 -0.00763395 -0.0170592 -0.00763395l-18.0859 -8.63574
c-0.00517586 0 -0.0102703 -0.00779992 -0.0152819 -0.00779992c-4.27131 -2.03451 -9.28802 -1.73938 -13.2914 0.787097c-4.00879 2.52832 -6.43848 6.93262 -6.43848 11.6709l-0.000243898 0.0133458c0 0.0257298 -0.00414413 0.0516766 -0.0104983 0.0774746
c-0.0225043 0.089576 -0.0771095 0.163999 -0.1485 0.214169c-0.0613838 0.0439392 -0.136038 0.0700112 -0.215758 0.070011l-0.0133458 -0.000243898c-0.0257298 0 -0.0516766 -0.00414413 -0.0774746 -0.0104983l-27.7773 -6.94531
c-0.0813525 -0.0204383 -0.150206 -0.0673541 -0.199743 -0.129276c-0.0583605 -0.0725762 -0.0904285 -0.166195 -0.0834762 -0.263194c0 -0.0144846 0.00561677 -0.0290155 0.00561677 -0.0435279c2.2057 -13.2955 10.5346 -24.7863 22.4876 -31.0181
c11.9512 -6.23132 26.1375 -6.48315 38.2985 -0.678466c0.00567389 0 0.0113121 0.00756802 0.0169102 0.00756802l18.0898 8.63672c0.00517586 0 0.0102703 0.00779992 0.0152819 0.00779992c4.27131 2.03451 9.28802 1.73938 13.2914 -0.787097
c4.00488 -2.52539 6.43848 -6.93359 6.43848 -11.6709l0.000243898 -0.0133458c0 -0.0257298 0.00414413 -0.0516766 0.0104983 -0.0774746c0.0225043 -0.089576 0.0771095 -0.163999 0.1485 -0.214169c0.0613838 -0.0439392 0.136038 -0.0700112 0.215758 -0.070011
l0.0133458 0.000243898c0.0257298 0 0.0516766 0.00414413 0.0774746 0.0104983l27.7734 6.94531c0.0813525 0.0204383 0.150206 0.0673541 0.199743 0.129276c0.0583605 0.0725762 0.0904285 0.166195 0.0834762 0.263194zM504.809 597.043v-169.328h-27.5977v169.328
h27.5977zM505.184 597.793h-28.3477c-0.204102 0 -0.375 -0.170898 -0.375 -0.375v-170.078c0 -0.204102 0.170898 -0.375 0.375 -0.375h28.3477c0.204102 0 0.375 0.170898 0.375 0.375v170.078c0 0.204102 -0.170898 0.375 -0.375 0.375zM30.3789 426.965h14.1758
c0.204102 0 0.375 0.170898 0.375 0.375v14.1758c0 0.204102 -0.170898 0.375 -0.375 0.375h-14.1758c-0.204102 0 -0.375 -0.170898 -0.375 -0.375v-14.1758c0 -0.204102 0.170898 -0.375 0.375 -0.375zM30.7539 427.715v13.4258h13.4258v-13.4258h-13.4258z
M93.9691 554.577c0.0562689 -0.0340381 0.121765 -0.0537552 0.191092 -0.0537543h21.2578c0.034943 0 0.0689128 0.00500917 0.101219 0.0143361c0.00566464 0 0.0113145 0.00519519 0.0169455 0.00519519c0.0729001 0.0241779 0.13357 0.0696559 0.177524 0.127258
c0.0495365 0.0636096 0.0793115 0.143018 0.0793116 0.228211c0 0.034943 -0.00500917 0.0689128 -0.0143361 0.101219c0 0.00566464 -0.00519519 0.0113145 -0.00519519 0.0169455l-14.1719 42.5195c-0.0241779 0.0729001 -0.0696559 0.13357 -0.127258 0.177524
c-0.0636096 0.0495365 -0.143018 0.0793115 -0.228211 0.0793116h-28.3477c-0.0349002 0 -0.0688295 -0.0049969 -0.1011 -0.0143016c-0.0227449 -0.00627019 -0.0451387 -0.014815 -0.0668689 -0.0257375c-0.0659336 -0.0327905 -0.117991 -0.0836577 -0.153277 -0.143869
c-0.0340381 -0.0562689 -0.0537552 -0.121765 -0.0537543 -0.191092c0 -0.0349002 0.0049969 -0.0688295 0.0143016 -0.1011c0.00627019 -0.0227449 0.014815 -0.0451387 0.0257375 -0.0668689l21.2617 -42.5195
c0.0327905 -0.0659336 0.0836577 -0.117991 0.143869 -0.153277zM94.3916 555.273l-20.8867 41.7695h27.4713l13.9219 -41.7695h-20.5065zM427.23 625.391h127.559c0.204102 0 0.375 0.170898 0.375 0.375v28.3477c0 0.204102 -0.170898 0.375 -0.375 0.375h-127.559
c-0.204102 0 -0.375 -0.170898 -0.375 -0.375v-28.3477c0 -0.204102 0.170898 -0.375 0.375 -0.375zM427.605 626.141v27.5977h126.809v-27.5977h-126.809zM59.1016 795.469h70.1172v-169.328h-70.1172v27.5977h42.1445c0.204102 0 0.375 0.170898 0.375 0.375v113.387
c0 0.204102 -0.170898 0.375 -0.375 0.375h-42.1445v27.5938zM58.7266 796.219c-0.204102 0 -0.375 -0.170898 -0.375 -0.375v-28.3438c0 -0.204102 0.170898 -0.375 0.375 -0.375h42.1445v-112.637h-42.1445c-0.204102 0 -0.375 -0.170898 -0.375 -0.375v-28.3477
c0 -0.204102 0.170898 -0.375 0.375 -0.375h70.8672c0.204102 0 0.375 0.170898 0.375 0.375v170.078c0 0.204102 -0.170898 0.375 -0.375 0.375h-70.8672z" />
  </g>

</svg>
