<?xml version="1.0" standalone="no"?>
<!DOCTYPE svg PUBLIC "-//W3C//DTD SVG 1.1//EN" "http://www.w3.org/Graphics/SVG/1.1/DTD/svg11.dtd" >
<svg xmlns="http://www.w3.org/2000/svg" xmlns:xlink="http://www.w3.org/1999/xlink" version="1.1" viewBox="0 -158 1000 1000">
  <g transform="matrix(1 0 0 -1 0 842)">
   <path fill="currentColor"
d="M229.18 519.469c0 27.1875 22.043 49.2305 49.2305 49.2305h28.3477c27.1914 0 49.2305 -22.043 49.2305 -49.2305v-35.0586h-98.8359c-0.204102 0 -0.375 -0.170898 -0.375 -0.375v-14.1758c0 -8.03516 6.51172 -14.5479 14.5469 -14.5479h42.5195
c3.86133 0 7.55859 1.5332 10.2891 4.2627c2.63714 2.63809 4.16077 6.18855 4.25688 9.91016h27.5969c-0.0980645 -11.0422 -4.52429 -21.608 -12.3421 -29.4258c-7.90137 -7.90234 -18.623 -12.3438 -29.8008 -12.3438h-42.5195
c-11.1777 0 -21.8945 4.44141 -29.8018 12.3438c-7.90137 7.90527 -12.3428 18.623 -12.3428 29.8008v49.6094zM228.43 519.469v-49.6094c0 -11.377 4.51953 -22.2842 12.5635 -30.332c8.0459 -8.04297 18.9541 -12.5625 30.3311 -12.5625h42.5195
c11.377 0 22.29 4.51953 30.332 12.5625c8.04688 8.04688 12.5625 18.9551 12.5625 30.332c0 0.204102 -0.170898 0.375 -0.375 0.375h-28.3438c-0.204102 0 -0.375 -0.170898 -0.375 -0.375c0 -3.6582 -1.45605 -7.16797 -4.04297 -9.75391
c-2.58984 -2.59082 -6.0957 -4.04395 -9.75781 -4.04395h-42.5195c-7.62109 0 -13.7969 6.17676 -13.7969 13.7979v13.8008h98.8359c0.204102 0 0.375 0.170898 0.375 0.375v35.4336c0 27.6016 -22.375 49.9805 -49.9805 49.9805h-28.3477
c-27.6016 0 -49.9805 -22.3789 -49.9805 -49.9805zM455.203 171.848v-98.8359c0 -23.6914 19.2031 -42.8945 42.8945 -42.8945h56.6914c0.204102 0 0.375 0.170898 0.375 0.375v28.3438c0 0.204102 -0.170898 0.375 -0.375 0.375h-56.6914
c-7.62109 0 -13.8008 6.17969 -13.8008 13.8008v127.559c0 0.204102 -0.170898 0.375 -0.375 0.375h-56.6914c-0.204102 0 -0.375 -0.170898 -0.375 -0.375v-28.3477c0 -0.204102 0.170898 -0.375 0.375 -0.375h27.9727zM455.953 172.223
c0 0.204102 -0.170898 0.375 -0.375 0.375h-27.9727v27.5977h55.9414v-127.184c0 -8.03516 6.51562 -14.5508 14.5508 -14.5508h56.3164v-27.5938h-56.3164c-23.2773 0 -42.1445 18.8672 -42.1445 42.1445v99.2109zM427.605 682.461v28.3438
c0 31.1055 25.2148 56.3203 56.3164 56.3203h24.8047c17.6007 0 34.1837 -8.22952 44.83 -22.2305l-22.0811 -16.5599c-5.43074 7.05471 -13.8339 11.1927 -22.7489 11.1927h-24.8047c-15.8594 0 -28.7188 -12.8594 -28.7188 -28.7227v-28.3438
c0 -15.8633 12.8594 -28.7227 28.7188 -28.7227h24.8047c8.91504 0 17.3182 4.13708 22.7489 11.1918l22.0811 -16.5589c-10.6463 -14.001 -27.2293 -22.2305 -44.83 -22.2305h-24.8047c-31.1016 0 -56.3164 25.2148 -56.3164 56.3203zM426.855 682.461
c0 -31.5195 25.5508 -57.0703 57.0664 -57.0703h24.8047c17.9619 0 34.8779 8.45801 45.6553 22.8301c0.0499091 0.0661494 0.0739513 0.14483 0.0739513 0.22314c0 0.114757 -0.0516296 0.228716 -0.149147 0.301274l-22.6797 17.0078
c-0.0661494 0.0499091 -0.14483 0.0739513 -0.22314 0.0739513c-0.114757 0 -0.228716 -0.0516296 -0.301274 -0.149147c-5.28125 -7.04688 -13.5723 -11.1895 -22.376 -11.1895h-24.8047c-15.4453 0 -27.9688 12.5234 -27.9688 27.9727v28.3438
c0 15.4492 12.5234 27.9727 27.9688 27.9727h24.8047c8.80371 0 17.0947 -4.14355 22.376 -11.1904c0.0725573 -0.097517 0.186517 -0.149147 0.301274 -0.149147c0.0783099 0 0.156991 0.0240422 0.22314 0.0739513l22.6797 17.0088
c0.097517 0.0725573 0.149147 0.186517 0.149147 0.301274c0 0.0783099 -0.0240422 0.156991 -0.0739513 0.22314c-10.7773 14.3721 -27.6934 22.8301 -45.6553 22.8301h-24.8047c-31.5156 0 -57.0664 -25.5508 -57.0664 -57.0703v-28.3438zM257.211 325.325
c0.0224204 0.00342284 0.0447703 0.00898229 0.0667877 0.0168055c4.51074 1.59473 9.26172 2.41211 14.0469 2.41211h42.5195c23.2773 0 42.1445 -18.8711 42.1445 -42.1445v-56.3203h-27.5938v56.3203c0 8.03418 -6.51562 14.5469 -14.5508 14.5469h-42.5195
c-8.03516 0 -14.5469 -6.5127 -14.5469 -14.5469v-56.3203h-27.5977v169.332h27.5977v-72.9258c0 -0.0197569 0.00467889 -0.0392026 0.00467889 -0.0582123c0.00342284 -0.0224204 0.00898229 -0.0447703 0.0168055 -0.0667877
c0.0260394 -0.0732823 0.0737587 -0.133812 0.133496 -0.176893c0.0621755 -0.0458076 0.138446 -0.0731068 0.22002 -0.0731073c0.0197569 0 0.0392026 0.00467889 0.0582123 0.00467889zM257.527 326.222v72.7739c0 0.204102 -0.170898 0.375 -0.375 0.375h-28.3477
c-0.204102 0 -0.375 -0.170898 -0.375 -0.375v-170.082c0 -0.204102 0.170898 -0.375 0.375 -0.375h28.3477c0.204102 0 0.375 0.170898 0.375 0.375v56.6953c0 7.62012 6.17578 13.7969 13.7969 13.7969h42.5195c7.62109 0 13.8008 -6.17676 13.8008 -13.7969v-56.6953
c0 -0.204102 0.170898 -0.375 0.375 -0.375h28.3438c0.204102 0 0.375 0.170898 0.375 0.375v56.6953c0 23.6875 -19.2031 42.8945 -42.8945 42.8945h-42.5195c-4.69459 0 -9.35562 -0.771919 -13.7969 -2.28166zM257.527 512.754v6.71484
c0 11.5312 9.35156 20.8828 20.8828 20.8828h28.3477c5.54102 0 10.8516 -2.19922 14.7695 -6.11719c3.91406 -3.91699 6.11719 -9.22852 6.11719 -14.7656v-6.71484h-70.1172zM328.395 512.379v7.08984c0 5.73633 -2.28125 11.2373 -6.33594 15.2969
c-4.05859 4.05859 -9.56055 6.33594 -15.3008 6.33594h-28.3477c-11.9453 0 -21.6328 -9.6875 -21.6328 -21.6328v-7.08984c0 -0.204102 0.170898 -0.375 0.375 -0.375h70.8672c0.204102 0 0.375 0.170898 0.375 0.375zM476.461 327.754v-56.3203
c0 -11.373 4.51953 -22.2852 12.5625 -30.3281c8.04688 -8.0459 18.9551 -12.5664 30.332 -12.5664h35.4336c0.204102 0 0.375 0.170898 0.375 0.375v28.3477c0 0.204102 -0.170898 0.375 -0.375 0.375h-35.4336c-3.6582 0 -7.16797 1.45312 -9.75391 4.04199
c-2.59082 2.58691 -4.04297 6.09668 -4.04297 9.75488v85.043c0 0.204102 -0.170898 0.375 -0.375 0.375h-77.9531c-0.204102 0 -0.375 -0.170898 -0.375 -0.375v-28.3477c0 -0.204102 0.170898 -0.375 0.375 -0.375h49.2305zM477.211 328.129
c0 0.204102 -0.170898 0.375 -0.375 0.375h-49.2305v27.5977h77.2031v-84.668c0 -3.85742 1.53223 -7.55859 4.26172 -10.2842c2.72656 -2.73145 6.42773 -4.2627 10.2852 -4.2627h35.0586v-27.5977h-35.0586c-11.1777 0 -21.8945 4.44043 -29.8008 12.3477
c-7.90234 7.90234 -12.3438 18.623 -12.3438 29.7969v56.6953zM285.234 101.09l70.2227 -70.2227h-39.0234l-50.7148 50.71c-0.0722656 0.0717773 -0.168945 0.107666 -0.265625 0.107666s-0.193359 -0.0358887 -0.265625 -0.107666l-8.30078 -8.2998
c-0.037029 -0.0372809 -0.0645066 -0.0810592 -0.0824313 -0.127984c-0.0173532 -0.042796 -0.0269453 -0.0892865 -0.0260892 -0.137641c0 -14.0482 -0.000854492 -28.0964 -0.000854492 -42.1445h-27.5977v169.328h27.5977
c0 -29.0326 0.000854492 -58.0651 0.000854492 -87.0977c0 -0.0483526 0.00959148 -0.0948418 0.0260877 -0.137637c0.0179262 -0.0469255 0.0454043 -0.0907053 0.0824328 -0.127988c0.0372809 -0.037029 0.0810592 -0.0645066 0.127984 -0.0824313
c0.042796 -0.0173532 0.0892865 -0.0269453 0.137641 -0.0260892c0.0483526 0 0.0948418 0.00959148 0.137637 0.0260877c0.0469255 0.0179262 0.0907053 0.0454043 0.127988 0.0824328l59.0156 59.0156h39.0235l-70.2227 -70.2266
c-0.0717773 -0.0722656 -0.107666 -0.168945 -0.107666 -0.265625s0.0358887 -0.193359 0.107666 -0.265625zM286.031 101.355l70.5977 70.6016c0.037029 0.0372809 0.0645066 0.0810592 0.0824313 0.127984c0.0173532 0.042796 0.0269453 0.0892865 0.0260892 0.137641
c0 0.0483526 -0.00959148 0.0948418 -0.0260877 0.137637c-0.0179262 0.0469255 -0.0454043 0.0907053 -0.0824328 0.127988c-0.0372809 0.037029 -0.0810592 0.0645066 -0.127984 0.0824313c-0.042796 0.0173532 -0.0892865 0.0269453 -0.137641 0.0260892h-40.0859
c-0.0483526 0 -0.0948418 -0.00959148 -0.137637 -0.0260877c-0.0469255 -0.0179262 -0.0907053 -0.0454043 -0.127988 -0.0824328l-58.4844 -58.4844v86.5664c0 0.204102 -0.170898 0.375 -0.375 0.375h-28.3477c-0.204102 0 -0.375 -0.170898 -0.375 -0.375v-170.078
c0 -0.204102 0.170898 -0.375 0.375 -0.375h28.3477c0.204102 0 0.375 0.170898 0.375 0.375v42.3633l7.92578 7.92485l50.5586 -50.5537c0.0372809 -0.037029 0.0810592 -0.0645066 0.127984 -0.0824313c0.042796 -0.0173532 0.0892865 -0.0269453 0.137641 -0.0260892
h40.0859c0.0483526 0 0.0948418 0.00959148 0.137637 0.0260877c0.0469255 0.0179262 0.0907053 0.0454043 0.127988 0.0824328c0.037029 0.0372809 0.0645066 0.0810592 0.0824313 0.127984c0.0173532 0.042796 0.0269453 0.0892865 0.0260892 0.137641
c0 0.0483526 -0.00959148 0.0948418 -0.0260877 0.137637c-0.0179262 0.0469255 -0.0454043 0.0907053 -0.0824328 0.127988zM122.133 101.355c0 -38.9297 -31.5625 -70.4883 -70.4922 -70.4883h-20.8867v27.5938h20.8867c23.6914 0 42.8945 19.207 42.8945 42.8945v56.3203
h63.0283v-27.5977h-35.0557c-0.204102 0 -0.375 -0.170898 -0.375 -0.375v-28.3477zM122.883 101.355v27.9727h35.0557c0.204102 0 0.375 0.170898 0.375 0.375v28.3477c0 0.204102 -0.170898 0.375 -0.375 0.375h-63.7783c-0.204102 0 -0.375 -0.170898 -0.375 -0.375
v-56.6953c0 -23.2734 -18.8672 -42.1445 -42.1445 -42.1445h-21.2617c-0.204102 0 -0.375 -0.170898 -0.375 -0.375v-28.3438c0 -0.204102 0.170898 -0.375 0.375 -0.375h21.2617c39.3438 0 71.2422 31.8945 71.2422 71.2383zM93.7852 179.309
c0 -4.12109 3.33984 -7.46094 7.46094 -7.46094h14.1719c4.12109 0 7.46484 3.33984 7.46484 7.46094v14.1758c0 1.97852 -0.790039 3.875 -2.1875 5.27246c-1.39844 1.40234 -3.29492 2.18848 -5.27734 2.18848h-14.1719c-1.97852 0 -3.875 -0.786133 -5.27734 -2.1875
c-1.39844 -1.39844 -2.18359 -3.29492 -2.18359 -5.27344v-14.1758zM94.5352 179.309v14.1758c0 1.7793 0.707031 3.48438 1.96484 4.74219c1.26172 1.2627 2.9668 1.96875 4.74609 1.96875h14.1719c1.7832 0 3.48828 -0.706055 4.74609 -1.96777
c1.25879 -1.25879 1.96875 -2.96387 1.96875 -4.74316v-14.1758c0 -3.70703 -3.00781 -6.71094 -6.71484 -6.71094h-14.1719c-3.70703 0 -6.71094 3.00391 -6.71094 6.71094zM476.461 377.734c0 -1.97852 0.786133 -3.87891 2.1875 -5.27734
c1.39844 -1.39844 3.29492 -2.18359 5.27344 -2.18359h14.1758c1.97852 0 3.87402 0.785156 5.27637 2.18359c1.40039 1.39941 2.18457 3.29883 2.18457 5.27734v14.1719c0 1.98242 -0.78418 3.87793 -2.18457 5.27734c-1.40137 1.39746 -3.29785 2.1875 -5.27637 2.1875
h-14.1758c-1.97852 0 -3.875 -0.790039 -5.27246 -2.1875c-1.40234 -1.39844 -2.18848 -3.29492 -2.18848 -5.27734v-14.1719zM477.211 377.734v14.1719c0 1.7832 0.706055 3.48828 1.96777 4.74609c1.25879 1.25879 2.96387 1.96875 4.74316 1.96875h14.1758
c1.7793 0 3.48438 -0.709961 4.74707 -1.96875c1.25781 -1.25684 1.96387 -2.96289 1.96387 -4.74609v-14.1719c0 -1.7793 -0.706055 -3.48926 -1.96387 -4.74609c-1.26172 -1.25781 -2.96777 -1.96484 -4.74707 -1.96484h-14.1758
c-1.7793 0 -3.48438 0.707031 -4.74219 1.96484c-1.2627 1.25781 -1.96875 2.9668 -1.96875 4.74609zM129.814 360.827c0.0597373 0.0430806 0.107456 0.10361 0.133496 0.176892c0.00782314 0.0220166 0.0133825 0.0443657 0.0168051 0.0667853
c0 0.0190105 0.00467925 0.038457 0.00467925 0.0582147v9.14453h27.5947v-98.8398c0 -11.1738 -4.43848 -21.8945 -12.3438 -29.7969c-7.90332 -7.90723 -18.624 -12.3477 -29.8018 -12.3477h-42.5195c-11.1738 0 -21.8945 4.44141 -29.7969 12.3467
c-7.81873 7.81487 -12.2478 18.3844 -12.346 29.4229h27.6008c0.0958737 -3.7216 1.61597 -7.27204 4.25689 -9.90918c2.72656 -2.73145 6.42773 -4.2627 10.2852 -4.2627h42.5195c3.86133 0 7.5625 1.53223 10.2881 4.26172c2.73145 2.72656 4.2627 6.42773 4.2627 10.2852
v9.51953c0 0.0197569 -0.00467889 0.0392026 -0.00467889 0.0582124c-0.00342284 0.0224204 -0.00898229 0.0447703 -0.0168055 0.0667876c-0.0260394 0.0732823 -0.0737587 0.133812 -0.133496 0.176893c-0.0621755 0.0458076 -0.138446 0.0731068 -0.22002 0.0731073
c-0.0197569 0 -0.0392026 -0.00467889 -0.0582123 -0.00467889c-0.0224204 -0.00342284 -0.0447703 -0.00898229 -0.0667877 -0.0168055c-4.51465 -1.59473 -9.26465 -2.4082 -14.0508 -2.4082h-42.5195c-23.2695 0.0078125 -42.1289 18.875 -42.1289 42.1445
s18.8594 42.1328 42.1289 42.1436h42.5195c4.78516 0 9.53613 -0.816406 14.0508 -2.41113c0.0220166 -0.00782314 0.0443657 -0.0133825 0.0667853 -0.0168051c0.0190105 0 0.038457 -0.00467925 0.0582147 -0.00467925c0.0815744 0 0.157845 0.0272994 0.22002 0.0731075z
M129.219 361.656c-4.44488 1.50977 -9.10605 2.28083 -13.8008 2.28083h-42.5195c-23.6836 -0.0107422 -42.8789 -19.21 -42.8789 -42.8936s19.1953 -42.8867 42.8789 -42.8945h42.5195c4.69379 0 9.35584 0.768338 13.8008 2.27791v-8.99276
c0 -3.6582 -1.45312 -7.16797 -4.04199 -9.75391c-2.58691 -2.59082 -6.09668 -4.04297 -9.75879 -4.04297h-42.5195c-3.6582 0 -7.16797 1.45312 -9.75391 4.04199c-2.59082 2.58691 -4.04297 6.09668 -4.04297 9.75488c0 0.204102 -0.170898 0.375 -0.375 0.375h-28.3477
c-0.204102 0 -0.375 -0.170898 -0.375 -0.375c0 -11.373 4.52051 -22.2852 12.5664 -30.3271c8.04297 -8.04785 18.9551 -12.5674 30.3281 -12.5674h42.5195c11.377 0 22.2891 4.52051 30.3311 12.5664c8.04785 8.04297 12.5645 18.9551 12.5645 30.3281v99.2148
c0 0.204102 -0.170898 0.375 -0.375 0.375h-28.3447c-0.204102 0 -0.375 -0.170898 -0.375 -0.375v-8.99274zM115.418 307.242h-42.5195c-7.61719 0 -13.7969 6.17969 -13.7969 13.8008s6.17969 13.7969 13.7969 13.7969h42.5195
c7.62109 0 13.8008 -6.17578 13.8008 -13.7969s-6.17969 -13.8008 -13.8008 -13.8008zM115.418 306.492c8.03516 0 14.5508 6.51562 14.5508 14.5508s-6.51562 14.5469 -14.5508 14.5469h-42.5195c-8.03125 0 -14.5469 -6.51172 -14.5469 -14.5469
s6.51562 -14.5508 14.5469 -14.5508h42.5195zM129.594 426.965h28.3447c0.204102 0 0.375 0.170898 0.375 0.375v170.078c0 0.204102 -0.170898 0.375 -0.375 0.375h-28.3447c-0.204102 0 -0.375 -0.170898 -0.375 -0.375v-67.9739
c-6.54817 3.00868 -13.6716 4.57157 -20.8867 4.57157h-28.3438c-27.6055 0 -49.9844 -22.3789 -49.9844 -49.9805c0 -27.6055 22.3789 -49.9844 49.9844 -49.9844h28.3438c7.21475 0 14.3379 1.56182 20.8867 4.57469v-11.2856c0 -0.204102 0.170898 -0.375 0.375 -0.375z
M129.969 427.715v11.5c0 0.020069 -0.00482642 0.0398169 -0.00482642 0.0591128c-0.00528945 0.0346841 -0.0156003 0.0690381 -0.0313064 0.10202c-0.034709 0.0728889 -0.0911969 0.129634 -0.158217 0.166205
c-0.0538646 0.0302876 -0.115569 0.0476635 -0.18065 0.0476625c-0.020069 0 -0.0398169 -0.00482642 -0.0591128 -0.00482642c-0.0346841 -0.00528945 -0.0690381 -0.0156003 -0.10202 -0.0313064c-6.59375 -3.12988 -13.7998 -4.75293 -21.1006 -4.75293h-28.3438
c-27.1914 0 -49.2344 22.043 -49.2344 49.2344c0 27.1875 22.043 49.2305 49.2344 49.2305h28.3438c7.30078 0 14.5068 -1.62402 21.1016 -4.74902c0.0263041 -0.0125258 0.053461 -0.0216003 0.0809479 -0.027419
c0.0256029 -0.00570157 0.0521131 -0.0087138 0.0792084 -0.0087138c0.0772605 0 0.149763 0.0244884 0.210039 0.0659979c0.0540433 0.0363132 0.099276 0.0867819 0.128829 0.148846c0.0125258 0.0263041 0.0216003 0.053461 0.027419 0.0809479
c0.00570158 0.0256029 0.0087138 0.0521131 0.0087138 0.0792084v68.1875h27.5947v-169.328h-27.5947zM108.332 462.398c11.9453 0.00390625 21.6289 9.69141 21.6289 21.6367s-9.68359 21.6289 -21.6289 21.6328h-28.3438
c-11.9453 -0.00390625 -21.6289 -9.6875 -21.6289 -21.6328s9.68359 -21.6328 21.6289 -21.6367h28.3438zM108.332 463.148h-28.3438c-11.5312 0.00390625 -20.8789 9.35547 -20.8789 20.8867s9.34766 20.8789 20.8789 20.8828h28.3438
c11.5312 -0.00390625 20.8789 -9.35156 20.8789 -20.8828s-9.34766 -20.8828 -20.8789 -20.8867zM129.969 626.141v11.5c0 0.020069 -0.00482642 0.0398169 -0.00482642 0.0591128c-0.00528945 0.0346841 -0.0156003 0.0690381 -0.0313064 0.10202
c-0.034709 0.0728889 -0.0911969 0.129634 -0.158217 0.166205c-0.0538646 0.0302876 -0.115569 0.0476635 -0.18065 0.0476625c-0.020069 0 -0.0398169 -0.00482642 -0.0591128 -0.00482642c-0.0346841 -0.00528945 -0.0690381 -0.0156003 -0.10202 -0.0313064
c-6.59375 -3.12891 -13.7998 -4.75293 -21.1006 -4.75293h-28.3438c-27.1914 0 -49.2344 22.042 -49.2344 49.2344c0 27.1875 22.043 49.2305 49.2344 49.2305h38.7773c0.0453849 0 0.0891281 0.00845023 0.129716 0.0238352
c0.0433459 0.0156666 0.0842944 0.0395715 0.120284 0.0718679c0.0426927 0.0380403 0.0744949 0.0843634 0.0951487 0.134692c0.0191852 0.0446979 0.0298513 0.093615 0.0298513 0.144604c0 0.0453849 -0.00845023 0.0891281 -0.0238352 0.129716
c-0.0156666 0.0433459 -0.0395715 0.0842944 -0.0718679 0.120284c-8.1377 9.09473 -19.7666 14.2969 -31.9707 14.2969h-42.1445v27.5977h42.1445c38.9297 0 70.4893 -31.5625 70.4893 -70.4922v-77.5781h-27.5947zM158.313 625.766v77.9531
c0 39.3438 -31.8955 71.2422 -71.2393 71.2422h-42.5195c-0.204102 0 -0.375 -0.170898 -0.375 -0.375v-28.3477c0 -0.204102 0.170898 -0.375 0.375 -0.375h42.5195c11.7088 0 22.8785 -4.87248 30.8416 -13.4219h-37.9275c-27.6055 0 -49.9844 -22.3789 -49.9844 -49.9805
c0 -27.6064 22.3789 -49.9844 49.9844 -49.9844h28.3438c7.21475 0 14.3379 1.56275 20.8867 4.57476v-11.2857c0 -0.204102 0.170898 -0.375 0.375 -0.375h28.3447c0.204102 0 0.375 0.170898 0.375 0.375zM256.777 626.141h-27.5977v169.328h27.5977v-68.1914
c0 -0.020069 0.00482642 -0.0398169 0.00482642 -0.0591128c0.00528945 -0.0346841 0.0156003 -0.0690381 0.0313064 -0.10202c0.034709 -0.0728889 0.0911969 -0.129634 0.158217 -0.166205c0.0538646 -0.0302876 0.115569 -0.0476635 0.18065 -0.0476625
c0.020069 0 0.0398169 0.00482642 0.0591128 0.00482642c0.0346841 0.00528945 0.0690381 0.0156003 0.10202 0.0313064c6.59375 3.12891 13.8008 4.75293 21.0967 4.75293h28.3477c27.1914 0 49.2305 -22.043 49.2305 -49.2305
c0 -27.1924 -22.0391 -49.2344 -49.2305 -49.2344h-28.3477c-7.2959 0 -14.5029 1.62402 -21.0967 4.75293c-0.032983 0.0157062 -0.0673382 0.0260172 -0.102023 0.0313069c-0.0192949 0 -0.0390417 0.00482589 -0.0591095 0.00482589
c-0.0650799 0 -0.126784 -0.0173756 -0.180649 -0.0476618c-0.0670202 -0.0365716 -0.123509 -0.093317 -0.158218 -0.166205c-0.0157062 -0.032983 -0.0260172 -0.0673382 -0.0313069 -0.102023c0 -0.0192949 -0.00482589 -0.0390417 -0.00482589 -0.0591095v-11.5z
M257.527 625.766v11.2857c6.54887 -3.01202 13.6728 -4.57476 20.8828 -4.57476h28.3477c27.6055 0 49.9805 22.3779 49.9805 49.9844c0 27.6016 -22.375 49.9805 -49.9805 49.9805h-28.3477c-7.21 0 -14.3339 -1.56275 -20.8828 -4.57476v67.9771
c0 0.204102 -0.170898 0.375 -0.375 0.375h-28.3477c-0.204102 0 -0.375 -0.170898 -0.375 -0.375v-170.078c0 -0.204102 0.170898 -0.375 0.375 -0.375h28.3477c0.204102 0 0.375 0.170898 0.375 0.375zM108.332 661.574h-28.3438
c-11.5312 0.00390625 -20.8789 9.35547 -20.8789 20.8867s9.34766 20.8789 20.8789 20.8828h28.3438c11.5312 -0.00390625 20.8789 -9.35156 20.8789 -20.8828s-9.34766 -20.8828 -20.8789 -20.8867zM108.332 660.824c11.9453 0.00390625 21.6289 9.69141 21.6289 21.6367
s-9.68359 21.6289 -21.6289 21.6328h-28.3438c-11.9453 -0.00390625 -21.6289 -9.6875 -21.6289 -21.6328s9.68359 -21.6328 21.6289 -21.6367h28.3438zM278.41 661.574c-11.5312 0.00390625 -20.875 9.35547 -20.875 20.8867s9.34375 20.8789 20.875 20.8828h28.3477
c11.5312 -0.00390625 20.8789 -9.35156 20.8789 -20.8828s-9.34766 -20.8828 -20.8789 -20.8867h-28.3477zM278.41 660.824h28.3477c11.9453 0.00390625 21.6289 9.69141 21.6289 21.6367s-9.68359 21.6289 -21.6289 21.6328h-28.3477
c-11.9453 -0.00390625 -21.625 -9.6875 -21.625 -21.6328s9.67969 -21.6328 21.625 -21.6367zM463.039 512.379c0 0.204102 -0.170898 0.375 -0.375 0.375h-35.0586v27.5977h35.0586c0.204102 0 0.375 0.170898 0.375 0.375v14.1719
c0 11.1777 4.44141 21.8984 12.3438 29.8008c7.90234 7.90625 18.623 12.3438 29.8008 12.3438h49.2305v-27.5938h-49.2305c-3.85742 0 -7.55762 -1.53516 -10.2891 -4.26172c-2.72656 -2.72754 -4.25781 -6.42773 -4.25781 -10.2891v-14.1719
c0 -0.204102 0.170898 -0.375 0.375 -0.375h63.4023v-27.5977h-63.4023c-0.204102 0 -0.375 -0.170898 -0.375 -0.375v-84.6641h-27.5977v84.6641zM462.289 512.004v-84.6641c0 -0.204102 0.170898 -0.375 0.375 -0.375h28.3477c0.204102 0 0.375 0.170898 0.375 0.375
v84.6641h63.4023c0.204102 0 0.375 0.170898 0.375 0.375v28.3477c0 0.204102 -0.170898 0.375 -0.375 0.375h-63.4023v13.7969c0 3.66211 1.45312 7.17285 4.03906 9.75781c2.58887 2.58594 6.09961 4.04297 9.75781 4.04297h49.6055
c0.204102 0 0.375 0.170898 0.375 0.375v28.3438c0 0.204102 -0.170898 0.375 -0.375 0.375h-49.6055c-11.377 0 -22.2891 -4.51562 -30.332 -12.5625c-8.04297 -8.04297 -12.5625 -18.9551 -12.5625 -30.332v-13.7969h-35.0586c-0.204102 0 -0.375 -0.170898 -0.375 -0.375
v-28.3477c0 -0.204102 0.170898 -0.375 0.375 -0.375h35.0586z" />
  </g>

</svg>
