<?xml version="1.0" encoding="UTF-8" standalone="no"?>
<svg
   xmlns:dc="http://purl.org/dc/elements/1.1/"
   xmlns:cc="http://creativecommons.org/ns#"
   xmlns:rdf="http://www.w3.org/1999/02/22-rdf-syntax-ns#"
   xmlns:svg="http://www.w3.org/2000/svg"
   xmlns="http://www.w3.org/2000/svg"
   xmlns:sodipodi="http://sodipodi.sourceforge.net/DTD/sodipodi-0.dtd"
   xmlns:inkscape="http://www.inkscape.org/namespaces/inkscape"
   version="1.1"
   viewBox="0 -158 1000 1000"
   id="svg6"
   sodipodi:docname="H_A4EPSCONB.svg"
   inkscape:version="0.92.3 (2405546, 2018-03-11)">
  <metadata
     id="metadata12">
    <rdf:RDF>
      <cc:Work
         rdf:about="">
        <dc:format>image/svg+xml</dc:format>
        <dc:type
           rdf:resource="http://purl.org/dc/dcmitype/StillImage" />
      </cc:Work>
    </rdf:RDF>
  </metadata>
  <defs
     id="defs10" />
  <sodipodi:namedview
     pagecolor="#ffffff"
     bordercolor="#666666"
     borderopacity="1"
     objecttolerance="10"
     gridtolerance="10"
     guidetolerance="10"
     inkscape:pageopacity="0"
     inkscape:pageshadow="2"
     inkscape:window-width="2560"
     inkscape:window-height="1377"
     id="namedview8"
     showgrid="false"
     inkscape:zoom="0.944"
     inkscape:cx="56.575234"
     inkscape:cy="400.82347"
     inkscape:window-x="2552"
     inkscape:window-y="-8"
     inkscape:window-maximized="1"
     inkscape:current-layer="svg6" />
  <path
     style="fill:currentColor"
     d="m 356.437,669.409 c -0.0281,-0.006 -0.0561,-0.007 -0.0838,-0.007 h -28.3187 c -0.0177,0 -0.0353,0.002 -0.0526,0.002 -0.0586,0.006 -0.11352,0.0263 -0.16138,0.057 -0.0844,0.0534 -0.14806,0.13939 -0.16875,0.24282 l -15.4225,77.101 -15.7357,-62.9467 c -0.0225,-0.0896 -0.0771,-0.164 -0.1485,-0.21417 -0.0614,-0.0439 -0.13603,-0.07 -0.21575,-0.07 h -7.08594 c -0.0797,0 -0.15438,0.0261 -0.21576,0.07 -0.0714,0.0502 -0.126,0.1246 -0.1485,0.21417 l -15.7395,62.9467 -15.4187,-77.101 c -0.0207,-0.10343 -0.0844,-0.1894 -0.16875,-0.24282 -0.0479,-0.0306 -0.10281,-0.0508 -0.16138,-0.057 -0.0173,0 -0.0349,-0.002 -0.0526,-0.002 h -28.3226 c -0.0276,0 -0.0557,0.007 -0.0838,0.007 -0.10344,0.0207 -0.18941,0.0844 -0.24282,0.16875 -0.0307,0.0478 -0.0508,0.10281 -0.057,0.16138 -0.004,0.0364 0.005,0.0739 0.005,0.11128 l 28.3477,141.73 c 0.0207,0.10343 0.0844,0.1894 0.16875,0.24282 0.0479,0.0307 0.10281,0.0508 0.16138,0.057 0.0173,0 0.0349,0.002 0.0526,0.002 h 28.3185 c 0.0177,0 0.0353,-0.002 0.0526,-0.002 0.0586,-0.006 0.11352,-0.0263 0.16137,-0.057 0.0844,-0.0534 0.14806,-0.13939 0.16875,-0.24282 l 6.71777,-33.5889 6.71777,33.5889 c 0.0207,0.10343 0.0844,0.1894 0.16875,0.24282 0.0479,0.0307 0.10281,0.0508 0.16138,0.057 0.0173,0 0.0349,0.002 0.0526,0.002 h 28.3185 c 0.0177,0 0.0353,-0.002 0.0526,-0.002 0.0586,-0.006 0.11352,-0.0263 0.16138,-0.057 0.0844,-0.0534 0.14806,-0.13939 0.16875,-0.24282 l 28.3438,-141.73 c 0.007,-0.0374 0.005,-0.0749 0.005,-0.11128 -0.006,-0.0586 -0.0263,-0.11353 -0.0569,-0.16138 -0.0534,-0.0844 -0.13939,-0.14806 -0.24283,-0.16875 z"
     id="path881" />
  <path
     style="fill:currentColor"
     d="m 507.409,740.645 47.6903,-70.6572 c 0.0182,-0.027 0.0323,-0.0558 0.0425,-0.0854 0.0142,-0.0391 0.0219,-0.0811 0.0219,-0.12455 0,-0.0647 -0.0172,-0.12614 -0.0472,-0.17981 -0.0275,-0.0512 -0.0672,-0.0965 -0.11785,-0.13074 -0.027,-0.0182 -0.0558,-0.0323 -0.0854,-0.0425 -0.0391,-0.0142 -0.0811,-0.0219 -0.12456,-0.0219 h -31.8906 c -0.0647,0 -0.12614,0.0172 -0.1798,0.0472 -0.0512,0.0275 -0.0965,0.0671 -0.13074,0.11785 l -31.5762,46.7821 -31.5801,-46.7821 c -0.0343,-0.0507 -0.0796,-0.0903 -0.13075,-0.11785 -0.0537,-0.03 -0.11506,-0.0472 -0.1798,-0.0472 h -31.8906 c -0.0435,0 -0.0854,0.008 -0.12456,0.0219 -0.0296,0.0102 -0.0584,0.0243 -0.0854,0.0425 -0.0507,0.0343 -0.0903,0.0796 -0.11785,0.13074 -0.03,0.0537 -0.0472,0.11507 -0.0472,0.17981 0,0.0435 0.008,0.0854 0.0219,0.12455 0.0102,0.0297 0.0244,0.0584 0.0425,0.0854 l 47.6942,70.6572 -47.6942,70.6533 c -0.0182,0.027 -0.0323,0.0558 -0.0425,0.0854 -0.0142,0.0391 -0.0219,0.0811 -0.0219,0.12455 0,0.0647 0.0172,0.12614 0.0472,0.17981 0.0275,0.0512 0.0671,0.0965 0.11785,0.13074 0.027,0.0182 0.0558,0.0323 0.0854,0.0425 0.0391,0.0142 0.0811,0.0219 0.12456,0.0219 h 31.8906 c 0.0647,0 0.12614,-0.0172 0.1798,-0.0472 0.0512,-0.0275 0.0965,-0.0671 0.13075,-0.11785 l 31.5801,-46.7821 31.5762,46.7821 c 0.0343,0.0507 0.0796,0.0903 0.13074,0.11785 0.0537,0.03 0.11506,0.0472 0.1798,0.0472 h 31.8906 c 0.0435,0 0.0854,-0.008 0.12456,-0.0219 0.0296,-0.0102 0.0584,-0.0244 0.0854,-0.0425 0.0507,-0.0343 0.0903,-0.0796 0.11785,-0.13074 0.03,-0.0537 0.0472,-0.11507 0.0472,-0.1798 0,-0.0435 -0.008,-0.0854 -0.0219,-0.12456 -0.0102,-0.0296 -0.0244,-0.0584 -0.0425,-0.0854 z"
     id="path875" />
  <path
     style="fill:currentColor"
     d="M 94.1602,769.8816 59.0801,669.6536 c -0.02651,-0.0757 -0.07615,-0.13793 -0.138394,-0.18142 -0.06126,-0.0437 -0.135677,-0.0696 -0.215121,-0.0696 h -28.3477 c -0.0307,0 -0.06064,0.004 -0.08936,0.0111 -0.01161,0 -0.02318,0.006 -0.03466,0.0104 -0.07569,0.0265 -0.13793,0.0761 -0.18142,0.13839 -0.04367,0.0613 -0.06956,0.13568 -0.06956,0.21512 0,0.0307 0.0039,0.0606 0.01113,0.0894 0,0.0116 0.0063,0.0232 0.01036,0.0347 l 49.6094,141.73 c 0.02651,0.0757 0.07615,0.13793 0.138394,0.18142 0.06126,0.0437 0.135677,0.0696 0.215121,0.0696 h 28.3438 c 0.0794,0 0.15386,-0.0259 0.21513,-0.0696 0.0622,-0.0435 0.11188,-0.10573 0.13839,-0.18142 L 158.292,669.90165 c 0.004,-0.0115 0.007,-0.023 0.0104,-0.0347 0.007,-0.0287 0.0111,-0.0587 0.0111,-0.0894 0,-0.0794 -0.0259,-0.15386 -0.0695,-0.21512 -0.0435,-0.0622 -0.10573,-0.11188 -0.18142,-0.13839 -0.0115,-0.004 -0.0231,-0.008 -0.0347,-0.0104 -0.0287,-0.007 -0.0587,-0.0111 -0.0894,-0.0111 h -28.3447 c -0.0794,0 -0.15385,0.0259 -0.21512,0.0696 -0.0622,0.0435 -0.11188,0.10573 -0.13839,0.18142 z"
     id="path871" />
  <path
     style="fill:currentColor"
     d="m 555.164,131.195 c 0,-31.5195 -25.5508,-57.0703 -57.0664,-57.0703 h -14.1758 c -31.5156,0 -57.0664,25.5508 -57.0664,57.0703 v 28.3438 c 0,31.5195 25.5508,57.0703 57.0664,57.0703 h 14.1758 c 31.5156,0 57.0664,-25.5508 57.0664,-57.0703 z"
     id="path867" />
  <path
     style="fill:currentColor"
     d="m 526.066,131.195 v 28.3438 c 0,15.4492 -12.5195,27.9727 -27.9688,27.9727 h -14.1758 c -15.4453,0 -27.9688,-12.5234 -27.9688,-27.9727 V 131.195 c 0,-15.4492 12.5234,-27.9727 27.9688,-27.9727 h 14.1758 c 15.4492,0 27.9688,12.5234 27.9688,27.9727 z"
     id="path865" />
  <path
     style="fill:currentColor"
     d="M 58.7266,74.125 H 30.3789 c -0.204102,0 -0.375,0.1709 -0.375,0.375 v 141.734 c 0,0.2041 0.170898,0.375 0.375,0.375 h 28.3477 c 0.204102,0 0.375,-0.1709 0.375,-0.375 v -95.668 c 0.0039,-5.66406 4.59375,-10.25 10.2539,-10.25 5.66406,0 10.2539,4.58594 10.2578,10.25 v 95.668 c 0,0.2041 0.170898,0.375 0.375,0.375 h 28.3438 c 0.2041,0 0.375,-0.1709 0.375,-0.375 v -95.668 c 0,-5.66406 4.59375,-10.2578 10.2578,-10.2578 5.66016,0 10.2539,4.59375 10.2539,10.2578 v 95.668 c 0,0.2041 0.1709,0.375 0.375,0.375 h 28.3447 c 0.2041,0 0.375,-0.1709 0.375,-0.375 v -95.668 c 0,-15.2354 -8.79199,-29.1016 -22.5713,-35.5967 C 122.0548,78.517 105.8934,80.48902 94.1602,90.01548 84.34455,82.04389 71.302,79.27858 59.1016,82.57345 v -8.07387 c 0,-0.2041 -0.170898,-0.375 -0.375,-0.375 z"
     id="path861" />
  <path
     style="fill:currentColor"
     d="M 257.527,88.538 V 74.5002 c 0,-0.2041 -0.1709,-0.375 -0.375,-0.375 h -28.3477 c -0.2041,0 -0.375,0.1709 -0.375,0.375 v 141.734 c 0,0.2041 0.1709,0.375 0.375,0.375 h 28.3477 c 0.2041,0 0.375,-0.1709 0.375,-0.375 v -77.9531 c 0,-15.4492 12.5234,-27.9727 27.9727,-27.9727 h 14.1719 c 7.41992,0 14.5312,2.94824 19.7773,8.19531 5.24707,5.24609 8.19531,12.3574 8.19531,19.7773 v 77.9531 c 0,0.2041 0.1709,0.375 0.375,0.375 h 28.3438 c 0.2041,0 0.375,-0.1709 0.375,-0.375 v -77.9531 c 0,-31.5195 -25.5508,-57.0664 -57.0664,-57.0664 h -14.1719 c -9.80261,0 -19.4369,2.52241 -27.9727,7.32298 z"
     id="path857" />
  <path
     style="fill:currentColor"
     d="M 441.027,309.777 V 414.66 c 0,0.2041 0.1709,0.375 0.375,0.375 h 28.3477 c 0.2041,0 0.375,-0.1709 0.375,-0.375 v -56.6953 c 0,-11.1768 4.44141,-21.8945 12.3438,-29.8018 7.90527,-7.90137 18.623,-12.3428 29.8008,-12.3428 h 42.5195 c 0.2041,0 0.375,-0.1709 0.375,-0.375 v -28.3438 c 0,-0.2041 -0.1709,-0.375 -0.375,-0.375 h -42.5195 c -15.1631,0 -29.9293,4.83882 -42.1445,13.8022 v -4.92332 c 0,-6.11523 -2.42969,-11.9795 -6.75,-16.3008 -4.32422,-4.32422 -10.1895,-6.75391 -16.3008,-6.75391 h -19.8438 c -0.2041,0 -0.375,0.1709 -0.375,0.375 v 28.3477 c 0,0.2041 0.1709,0.375 0.375,0.375 h 5.66797 c 2.1582,0 4.22656,0.85547 5.75,2.38184 1.52441,1.52441 2.37891,3.59277 2.37891,5.74707 z"
     id="path851" />
  <path
     style="fill:currentColor"
     d="m 526.066,471.352 v 77.9531 c 0,15.4492 -12.5195,27.9727 -27.9688,27.9727 h -14.1758 c -15.4453,0 -27.9688,-12.5234 -27.9688,-27.9727 V 471.352 c 0,-0.2041 -0.1709,-0.375 -0.375,-0.375 h -28.3477 c -0.2041,0 -0.375,0.1709 -0.375,0.375 v 77.9531 c 0,15.1348 6.01172,29.6514 16.7158,40.3555 10.7031,10.6992 25.2158,16.7109 40.3506,16.7109 h 14.1758 c 9.79879,0 19.433,-2.52241 27.9688,-7.32298 v 14.0378 c 0,0.2041 0.1709,0.375 0.375,0.375 h 28.3477 c 0.2041,0 0.375,-0.1709 0.375,-0.375 v -141.734 c 0,-0.2041 -0.1709,-0.375 -0.375,-0.375 h -28.3477 c -0.2041,0 -0.375,0.1709 -0.375,0.375 z"
     id="path847" />
  <path
     style="fill:currentColor"
     d="m 328.02,613.461 h 28.3438 c 0.2041,0 0.375,-0.1709 0.375,-0.375 v -28.3477 c 0,-0.2041 -0.1709,-0.375 -0.375,-0.375 H 328.02 c -7.41992,0 -14.5352,-2.94922 -19.7812,-8.19531 -5.24609,-5.24219 -8.19141,-12.3574 -8.19141,-19.7773 v -42.1445 h 56.3164 c 0.2041,0 0.375,-0.1709 0.375,-0.375 v -28.3477 c 0,-0.2041 -0.1709,-0.375 -0.375,-0.375 h -56.3164 v -42.1445 c 0,-0.2041 -0.1709,-0.375 -0.375,-0.375 h -28.3477 c -0.2041,0 -0.375,0.1709 -0.375,0.375 v 42.1445 h -42.1445 c -0.2041,0 -0.375,0.1709 -0.375,0.375 v 28.3477 c 0,0.2041 0.1709,0.375 0.375,0.375 h 42.1445 v 42.1445 c 0,15.1348 6.01172,29.6514 16.7158,40.3555 10.7031,10.6982 25.2158,16.7148 40.3545,16.7148 z"
     id="path843" />
  <path
     style="fill:currentColor"
     d="m 157.938,470.977 h -85.04 c -23.6836,0.008 -42.8789,19.2109 -42.8789,42.8945 0,23.6836 19.1953,42.8867 42.8789,42.8945 h 42.5195 c 7.62109,0 13.8008,6.17969 13.8008,13.8008 0,7.61719 -6.17969,13.7969 -13.8008,13.7969 H 30.3784 c -0.204102,0 -0.375,0.1709 -0.375,0.375 v 28.3477 c 0,0.2041 0.170898,0.375 0.375,0.375 h 85.0391 c 23.6914,0 42.8955,-19.207 42.8955,-42.8945 0,-23.6914 -19.2041,-42.8984 -42.8955,-42.8984 H 72.898 c -7.61719,0 -13.7969,-6.17578 -13.7969,-13.7969 0,-7.62112 6.17969,-13.7969 13.7969,-13.7969 h 85.04 c 0.2041,0 0.375,-0.1709 0.375,-0.375 V 471.352 c 0,-0.2041 -0.1709,-0.375 -0.375,-0.375 z"
     id="path839" />
  <path
     style="fill:currentColor"
     d="m 349.277,415.035 h 7.08594 c 0.2041,0 0.375,-0.1709 0.375,-0.375 v -28.3467 c 0,-0.2041 -0.1709,-0.375 -0.375,-0.375 H 349.277 c -3.6582,0 -7.16797,-1.4541 -9.75391,-4.04297 -2.59082,-2.58691 -4.04297,-6.09668 -4.04297,-9.75488 v -99.2148 c 0,-0.2041 -0.1709,-0.375 -0.375,-0.375 h -28.3477 c -0.2041,0 -0.375,0.1709 -0.375,0.375 v 5.44963 c -4.44126,-1.50974 -9.10229,-2.28166 -13.7969,-2.28166 h -21.2617 c -23.6836,0.008 -42.8789,19.2109 -42.8789,42.8945 0,23.6875 19.1953,42.8867 42.8789,42.8945 h 21.2617 c 4.69365,0 9.35555,-0.76738 13.7969,-2.27767 v 12.5355 c 0,11.377 4.51953,22.2842 12.5635,30.332 8.04688,8.04199 18.9541,12.5625 30.3311,12.5625 z"
     id="path835" />
  <path
     style="fill:currentColor"
     d="m 271.324,332.789 c -7.62109,0 -13.7969,-6.17969 -13.7969,-13.8008 0,-7.61719 6.17578,-13.7969 13.7969,-13.7969 h 21.2617 c 7.62109,0 13.7969,6.17969 13.7969,13.7969 0,7.62109 -6.17578,13.8008 -13.7969,13.8008 z"
     id="path833" />
  <path
     style="fill:currentColor"
     d="m 72.8984,332.789 c -7.61719,0 -13.7969,-6.17969 -13.7969,-13.8008 0,-7.61719 6.17969,-13.7969 13.7969,-13.7969 h 42.5195 c 7.62109,0 13.8008,6.17969 13.8008,13.7969 0,7.62109 -6.17969,13.8008 -13.8008,13.8008 z"
     id="path829" />
  <path
     style="fill:currentColor"
     d="m 59.1016,278.375 v -5.44963 c 0,-0.2041 -0.170898,-0.375 -0.375,-0.375 H 30.3789 c -0.204102,0 -0.375,0.1709 -0.375,0.375 v 141.734 c 0,0.2041 0.170898,0.375 0.375,0.375 h 28.3477 c 0.204102,0 0.375,-0.1709 0.375,-0.375 v -55.055 c 4.44133,1.51029 9.10323,2.27767 13.7969,2.27767 h 42.5195 c 23.6836,-0.008 42.8789,-19.2109 42.8789,-42.8945 0,-23.6836 -19.1953,-42.8828 -42.8789,-42.8945 H 72.8985 c -4.69459,0 -9.35562,0.77192 -13.7969,2.28166 z"
     id="path2" />
</svg>
