<?xml version="1.0" standalone="no"?>
<!DOCTYPE svg PUBLIC "-//W3C//DTD SVG 1.1//EN" "http://www.w3.org/Graphics/SVG/1.1/DTD/svg11.dtd" >
<svg xmlns="http://www.w3.org/2000/svg" xmlns:xlink="http://www.w3.org/1999/xlink" version="1.1" viewBox="0 -158 1000 1000">
  <g transform="matrix(1 0 0 -1 0 842)">
   <path fill="currentColor"
d="M505.184 398.621c27.1914 0 49.2305 -22.043 49.2305 -49.2344v-35.4297c0 -46.7617 -37.9062 -84.668 -84.6641 -84.668h-27.9727v27.5977h27.9727c27.7207 0 51.4316 19.9199 56.2129 47.2246c0.00550614 0.0315073 0.00415415 0.0629189 0.00415415 0.0936268
c0 0.0423164 -0.0132696 0.0846399 -0.0314979 0.125123c-0.0299579 0.0665345 -0.0779334 0.120146 -0.135727 0.157776c-0.0417412 0.0280413 -0.0895886 0.0479764 -0.141617 0.057068c-0.0315073 0.00550614 -0.0629189 0.00415415 -0.0936268 0.00415415
c-0.0423164 0 -0.0846399 -0.0132696 -0.125123 -0.0314979c-6.36523 -2.87305 -13.2705 -4.36133 -20.2559 -4.36133h-28.3477c-27.1836 0.0078125 -49.2148 22.0469 -49.2148 49.2305s22.0312 49.2227 49.2148 49.2344h28.3477zM505.184 399.371h-28.3477
c-27.5977 -0.0117188 -49.9648 -22.3867 -49.9648 -49.9844s22.3672 -49.9727 49.9648 -49.9805h28.3477c6.85589 0 13.6333 1.41243 19.9151 4.14027c-4.99567 -26.5883 -28.2266 -45.9098 -55.3487 -45.9098h-28.3477c-0.204102 0 -0.375 -0.170898 -0.375 -0.375
v-28.3477c0 -0.204102 0.170898 -0.375 0.375 -0.375h28.3477c47.1719 0 85.4141 38.2422 85.4141 85.418v35.4297c0 27.6055 -22.375 49.9844 -49.9805 49.9844zM462.332 58.6642c0.0227851 -0.0449907 0.0548625 -0.0858703 0.0958595 -0.119274
c0.0340195 -0.0277196 0.0718321 -0.0483043 0.111515 -0.0619674c0.039199 -0.014232 0.0812495 -0.0220174 0.124813 -0.0220169h91.75v-27.5938h-126.809v27.8358l92.041 113.283c0.0277196 0.0340195 0.0483043 0.0718321 0.0619674 0.111515
c0.014232 0.039199 0.0220174 0.0812495 0.0220169 0.124813c0 0.0615213 -0.0155273 0.120026 -0.0428124 0.171742c-0.0227851 0.0449907 -0.0548625 0.0858703 -0.0958595 0.119274c-0.0340195 0.0277196 -0.0718321 0.0483043 -0.111515 0.0619674
c-0.039199 0.014232 -0.0812495 0.0220174 -0.124813 0.0220169h-91.75v27.5977h126.809v-27.8397l-92.041 -113.283c-0.0277196 -0.0340195 -0.0483043 -0.0718321 -0.0619674 -0.111515c-0.014232 -0.039199 -0.0220174 -0.0812495 -0.0220169 -0.124813
c0 -0.0615213 0.0155273 -0.120026 0.0428124 -0.171742zM463.452 59.2109l91.6283 112.775c0.0277196 0.0340195 0.0483043 0.0718321 0.0619674 0.111515c0.014232 0.039199 0.0220174 0.0812495 0.0220169 0.124813v28.3477c0 0.204102 -0.170898 0.375 -0.375 0.375
h-127.559c-0.204102 0 -0.375 -0.170898 -0.375 -0.375v-28.3477c0 -0.204102 0.170898 -0.375 0.375 -0.375h91.3373l-91.6283 -112.775c-0.0277196 -0.0340195 -0.0483043 -0.0718321 -0.0619674 -0.111515
c-0.014232 -0.039199 -0.0220174 -0.0812495 -0.0220169 -0.124813v-28.3438c0 -0.204102 0.170898 -0.375 0.375 -0.375h127.559c0.204102 0 0.375 0.170898 0.375 0.375v28.3438c0 0.204102 -0.170898 0.375 -0.375 0.375h-91.3373zM80.3529 112.465
c-0.0076545 0.0333634 -0.0200426 0.0660526 -0.0374302 0.0970754l-49.2952 87.6328h31.0298l31.783 -56.5039c0.0171769 -0.0305181 0.0381983 -0.0577043 0.0621359 -0.0813101c0.0236312 -0.0239825 0.0508538 -0.0450419 0.0814188 -0.0622445
c0.0575729 -0.0322661 0.120884 -0.0473174 0.183594 -0.0468467c0.0627097 0 0.126021 0.0145806 0.183594 0.0468467c0.0305644 0.0172029 0.0577868 0.0382621 0.0814183 0.062244c0.0239374 0.0236063 0.044959 0.0507927 0.0621364 0.0813106l31.783 56.5039h31.0269
l-49.2922 -87.6328c-0.0173876 -0.031025 -0.0297762 -0.0637164 -0.0374317 -0.0970817c-0.00680466 -0.027853 -0.0104187 -0.0568316 -0.0104198 -0.086512v-81.5117h-27.5938v81.5117c0 0.029683 -0.0036146 0.0586637 -0.0104214 0.0865184zM79.6133 112.28v-81.7882
c0 -0.204102 0.170898 -0.375 0.375 -0.375h28.3438c0.204102 0 0.375 0.170898 0.375 0.375v81.7882l49.5586 88.1063c0.0173876 0.031025 0.0297762 0.0637164 0.0374317 0.0970817c0.00680466 0.027853 0.0104187 0.0568316 0.0104198 0.086512
c0 0.0648165 -0.0172352 0.126284 -0.0472954 0.179994c-0.03242 0.0599691 -0.0811819 0.111735 -0.144111 0.147155c-0.031025 0.0173876 -0.0637164 0.0297762 -0.0970817 0.0374317c-0.027853 0.00680466 -0.0568316 0.0104187 -0.086512 0.0104198h-31.8877
c-0.0648165 0 -0.126284 -0.0172352 -0.179994 -0.0472954c-0.0599691 -0.03242 -0.111735 -0.0811819 -0.147155 -0.144111l-31.5635 -56.1137l-31.5635 56.1137c-0.0354191 0.0629291 -0.0871852 0.111691 -0.147154 0.144111
c-0.0537095 0.0300605 -0.115177 0.0472958 -0.179994 0.0472955h-31.8906c-0.029683 0 -0.0586637 -0.0036146 -0.0865184 -0.0104214c-0.0333634 -0.0076545 -0.0660526 -0.0200426 -0.0970754 -0.0374302
c-0.0629291 -0.0354191 -0.111691 -0.0871852 -0.144111 -0.147154c-0.0300605 -0.0537095 -0.0472958 -0.115177 -0.0472955 -0.179994c0 -0.029683 0.0036146 -0.0586637 0.0104214 -0.0865184c0.0076545 -0.0333634 0.0200426 -0.0660526 0.0374302 -0.0970754z
M505.184 328.504h-28.3477c-11.5312 0.00390625 -20.875 9.35156 -20.875 20.8828s9.34375 20.8828 20.875 20.8867h28.3477c11.5312 -0.00390625 20.875 -9.35547 20.875 -20.8867s-9.34375 -20.8789 -20.875 -20.8828zM505.184 327.754
c11.9453 0.00390625 21.625 9.6875 21.625 21.6328s-9.67969 21.6328 -21.625 21.6367h-28.3477c-11.9453 -0.00390625 -21.625 -9.69141 -21.625 -21.6367s9.67969 -21.6289 21.625 -21.6328h28.3477zM90.6091 228.593
c0.0602115 0.0352865 0.111079 0.0873445 0.14387 0.153277l67.5205 135.043c0.0109226 0.021729 0.0194671 0.0441216 0.0257365 0.0668655c0.00930601 0.0322711 0.0143033 0.0662017 0.0143026 0.101103v35.0391c0 0.204102 -0.170898 0.375 -0.375 0.375h-127.56
c-0.204102 0 -0.375 -0.170898 -0.375 -0.375v-28.3477c0 -0.204102 0.170898 -0.375 0.375 -0.375h98.6084l-70.5957 -141.191c-0.0109226 -0.021729 -0.0194671 -0.0441216 -0.0257365 -0.0668655c-0.00930601 -0.0322711 -0.0143033 -0.0662017 -0.0143026 -0.101103
c0 -0.0693261 0.0197169 -0.134822 0.0537539 -0.191091c0.0352865 -0.0602115 0.0873445 -0.111079 0.153277 -0.14387c0.021729 -0.0109226 0.0441216 -0.0194671 0.0668655 -0.0257365c0.0322711 -0.00930601 0.0662017 -0.0143033 0.101103 -0.0143026h31.6914
c0.0693261 0 0.134822 0.0197169 0.191091 0.0537539zM90.1865 229.289h-30.8535l70.5957 141.191c0.0109226 0.021729 0.0194671 0.0441216 0.0257365 0.0668655c0.00930601 0.0322711 0.0143033 0.0662017 0.0143026 0.101103
c0 0.0693261 -0.0197169 0.134822 -0.0537539 0.191091c-0.0352865 0.0602115 -0.0873445 0.111079 -0.153277 0.14387c-0.021729 0.0109226 -0.0441216 0.0194671 -0.0668655 0.0257365c-0.0322711 0.00930601 -0.0662017 0.0143033 -0.101103 0.0143026h-98.8398v27.5977
h126.81v-34.5762zM461.354 536.45c9.29213 19.6603 29.1078 32.249 50.9154 32.249h28.3477c0.204102 0 0.375 0.170898 0.375 0.375v28.3438c0 0.204102 -0.170898 0.375 -0.375 0.375h-28.3477c-47.1719 0 -85.4141 -38.2383 -85.4141 -85.4141v-28.3438
c0 -31.5195 25.5508 -57.0703 57.0664 -57.0703h14.1758c30.2242 0.00749329 54.9574 23.5097 56.9281 53.2385c0.0839808 0.0692867 0.138313 0.173812 0.138312 0.288893v3.54297c0 0.0316167 -0.0041009 0.0624367 -0.0117911 0.091947
c-0.0496291 31.4695 -25.5736 56.9667 -57.0546 56.9745h-14.1758c-7.76386 0 -15.4415 -1.58433 -22.5678 -4.65134zM460.598 535.333c0.0519247 0 0.104503 0.010002 0.154297 0.0324224c7.2832 3.28711 15.1797 4.98633 23.1699 4.98633h14.1758
c31.0977 -0.0078125 56.3047 -25.2188 56.3047 -56.3164c0 -31.1016 -25.207 -56.3125 -56.3047 -56.3203h-14.1758c-31.1016 0 -56.3164 25.2148 -56.3164 56.3203v28.3438c0 46.7617 37.9062 84.6641 84.6641 84.6641h27.9727v-27.5938h-27.9727
c-22.4326 0 -42.7852 -13.1445 -52.0137 -33.5879c-0.0224204 -0.0497942 -0.0328005 -0.102372 -0.0324224 -0.154297c0 -0.0519247 0.010002 -0.104503 0.0324224 -0.154297c0.019077 -0.0423687 0.0454601 -0.079497 0.0770316 -0.110596
c0.0310725 -0.0315151 0.0681576 -0.0578526 0.110468 -0.0769042c0.0497942 -0.0224204 0.102372 -0.0328005 0.154297 -0.0324224zM498.098 512.754h-14.1758c-15.8594 -0.00390625 -28.7148 -12.8604 -28.7148 -28.7188c0 -15.8594 12.8555 -28.7188 28.7148 -28.7236
h14.1758c15.8594 0.00488281 28.7158 12.8643 28.7158 28.7236c0 15.8584 -12.8564 28.7148 -28.7158 28.7188zM498.098 512.004c15.4453 -0.00390625 27.9658 -12.5244 27.9658 -27.9688c0 -15.4453 -12.5205 -27.9688 -27.9658 -27.9736h-14.1758
c-15.4453 0.00488281 -27.9648 12.5283 -27.9648 27.9736c0 15.4443 12.5195 27.9648 27.9648 27.9688h14.1758zM278.41 427.715c-20.0688 0 -38.61 10.6809 -48.6875 28.0146l24.7798 12.388c5.324 -7.99366 14.2909 -12.806 23.9077 -12.806h21.2617
c15.8594 0.00488281 28.7148 12.8643 28.7148 28.7236c0 15.8584 -12.8555 28.7148 -28.7148 28.7188h-52.7734v84.2891h91.375v-27.5938h-63.4062c-0.204102 0 -0.375 -0.170898 -0.375 -0.375v-28.3477c0 -0.204102 0.170898 -0.375 0.375 -0.375h24.8047
c31.0977 -0.0078125 56.3047 -25.2188 56.3047 -56.3164c0 -31.1016 -25.207 -56.3125 -56.3047 -56.3203h-21.2617zM278.41 426.965h21.2617c31.5117 0.0078125 57.0547 25.5547 57.0547 57.0703c0 31.5117 -25.543 57.0586 -57.0547 57.0664h-24.4297v27.5977h63.4062
c0.204102 0 0.375 0.170898 0.375 0.375v28.3438c0 0.204102 -0.170898 0.375 -0.375 0.375h-92.125c-0.204102 0 -0.375 -0.170898 -0.375 -0.375v-85.0391c0 -0.204102 0.170898 -0.375 0.375 -0.375h53.1484c15.4453 -0.00390625 27.9648 -12.5244 27.9648 -27.9688
c0 -15.4453 -12.5195 -27.9688 -27.9648 -27.9736h-21.2617c-9.47461 0 -18.3018 4.7959 -23.4629 12.7441c-0.0621762 0.0959913 -0.163342 0.153907 -0.270324 0.166942c-0.0514163 0.00638771 -0.104385 0.00235206 -0.155339 -0.013288
c-0.0228868 -0.0069633 -0.0452875 -0.0162211 -0.0668574 -0.0278431l-25.4152 -12.7057l-0.00827671 -0.0040653c-0.00622519 0 -0.0123934 -0.00982375 -0.0185261 -0.00982375c-0.0347238 -0.0199518 -0.0650759 -0.0449537 -0.0906632 -0.0735997
c-0.0916766 -0.102507 -0.123193 -0.252646 -0.0729053 -0.385152c0.00678417 -0.0180557 0.015067 -0.0357675 0.0248966 -0.0529666c10.1641 -17.7686 29.0654 -28.7354 49.5361 -28.7354zM276.085 654.26
c-0.0196927 -0.0452009 -0.030658 -0.0947702 -0.0306588 -0.146469c0 -0.0354693 0.0051612 -0.0699359 0.0147607 -0.102677c0.0117209 -0.0426021 0.0311096 -0.08365 0.0584815 -0.120956c0.0410314 -0.0551461 0.0951925 -0.0957281 0.155288 -0.120708
c0.0452009 -0.0196927 0.0947702 -0.030658 0.146469 -0.0306588h79.5586v-27.5977h-126.809v27.783l85.7549 63.5207c0.011724 0.00872322 0.0227897 0.0180399 0.0331878 0.0278778c9.04357 7.86103 12.2571 20.5049 8.0674 31.729
c-4.19531 11.2285 -14.9219 18.6738 -26.9062 18.6738h-7.08594c-15.7381 0 -28.5195 -12.6572 -28.7203 -28.3477h-27.5988c0.201709 30.929 25.3387 55.9414 56.3191 55.9414h7.08594c23.7363 0 44.9238 -14.8818 52.9756 -37.209
c8.05381 -22.323 1.24435 -47.299 -17.0147 -62.4485l-55.8837 -41.3962c-0.0551461 -0.0410314 -0.0957281 -0.0951925 -0.120708 -0.155288zM277.567 654.488l54.9731 40.7217c0.00930392 0.00692256 0.0181933 0.0142188 0.0266633 0.0218528
c18.5044 15.3525 25.4043 40.6614 17.2429 63.2819c-8.15918 22.626 -29.6279 37.7051 -53.6807 37.7051h-7.08594c-31.5195 0 -57.0703 -25.5508 -57.0703 -57.0664c0 -0.204102 0.170898 -0.375 0.375 -0.375h28.3477c0.204102 0 0.375 0.170898 0.375 0.375
c0 15.4492 12.5234 27.9727 27.9727 27.9727h7.08594c11.6719 0 22.1172 -7.25 26.2031 -18.1855c4.07972 -10.9294 0.951783 -23.241 -7.85224 -30.8972l-85.8987 -63.6272c-0.0551461 -0.0410314 -0.0957281 -0.0951925 -0.120708 -0.155288
c-0.0196927 -0.0452009 -0.030658 -0.0947702 -0.0306588 -0.146469v-28.3477c0 -0.204102 0.170898 -0.375 0.375 -0.375h127.559c0.204102 0 0.375 0.170898 0.375 0.375v28.3477c0 0.204102 -0.170898 0.375 -0.375 0.375h-78.7964zM452.928 666.543
c5.32032 -7.99358 14.291 -12.8049 23.9077 -12.8049h21.2617c15.8594 0.00390625 28.7158 12.8594 28.7158 28.7227c0 15.8594 -12.8564 28.7148 -28.7158 28.7188h-20.8867v27.8164l28.2383 28.2383c0.037029 0.0372809 0.0645066 0.0810592 0.0824313 0.127984
c0.0173532 0.042796 0.0269453 0.0892865 0.0260892 0.137641c0 0.0483526 -0.00959148 0.0948418 -0.0260877 0.137637c-0.0179262 0.0469255 -0.0454043 0.0907053 -0.0824328 0.127988c-0.0372809 0.037029 -0.0810592 0.0645066 -0.127984 0.0824313
c-0.042796 0.0173532 -0.0892865 0.0269453 -0.137641 0.0260892c-16.4102 0 -32.8203 0.000854492 -49.2305 0.000854492v27.5938h84.2891v-27.8125l-29.6836 -29.6836c-0.0314825 -0.0316967 -0.0560607 -0.0680902 -0.0737338 -0.107121
c-0.0111045 -0.0234575 -0.0198528 -0.0483745 -0.0258756 -0.0745197c-0.0145104 -0.0629815 0.00534904 -0.126451 0.00534904 -0.185256c0.0163904 -0.0605979 0.0478105 -0.117588 0.0942603 -0.164354c0.0316967 -0.0314825 0.0680902 -0.0560607 0.107121 -0.0737338
c0.0234575 -0.0111045 0.0483745 -0.0198528 0.0745197 -0.0258756c27.9121 -6.42969 46.5488 -32.7861 43.3125 -61.2451c-3.23535 -28.459 -27.3135 -49.9561 -55.9551 -49.9561h-21.2617c-20.0689 0 -38.6101 10.6771 -48.6875 28.0108zM452.881 667.357
l-25.4154 -12.7097l-0.00823823 -0.00404732c-0.00622519 0 -0.0123934 -0.00982375 -0.0185261 -0.00982375c-0.0347238 -0.0199518 -0.0650759 -0.0449537 -0.0906632 -0.0735997c-0.0916766 -0.102507 -0.123193 -0.252646 -0.0729053 -0.385152
c0.00678417 -0.0180557 0.015067 -0.0357675 0.0248966 -0.0529666c10.1641 -17.7686 29.0654 -28.7314 49.5361 -28.7314h21.2617c29.0225 0 53.4209 21.7842 56.7012 50.6221c3.25384 28.614 -15.3155 55.1291 -43.2335 61.9042l29.3175 29.3175
c0.037029 0.0372809 0.0645066 0.0810592 0.0824313 0.127984c0.0173532 0.042796 0.0269453 0.0892865 0.0260892 0.137641l0.000854492 28.3438c0 0.204102 -0.170898 0.375 -0.375 0.375h-85.0391c-0.204102 0 -0.375 -0.170898 -0.375 -0.375v-28.3438
c0 -0.204102 0.170898 -0.375 0.375 -0.375h48.6992l-27.707 -27.707c-0.037029 -0.0372809 -0.0645066 -0.0810592 -0.0824313 -0.127984c-0.0173532 -0.042796 -0.0269453 -0.0892865 -0.0260892 -0.137641l-0.000854492 -28.3477
c0 -0.204102 0.170898 -0.375 0.375 -0.375h21.2617c15.4453 -0.00390625 27.9658 -12.5234 27.9658 -27.9688c0 -15.4492 -12.5205 -27.9688 -27.9658 -27.9727h-21.2617c-9.47461 0 -18.3057 4.79492 -23.4629 12.7432
c-0.030507 0.0468309 -0.0704003 0.084642 -0.115761 0.11257c-0.0955725 0.0590485 -0.216289 0.0750031 -0.325781 0.0358052c-0.0173288 -0.00612817 -0.0343259 -0.0136148 -0.0508363 -0.022495zM101.58 544.104
c-0.0295388 0.0601677 -0.0751125 0.112937 -0.134978 0.150479c-0.0324507 0.0200538 -0.0670455 0.034492 -0.102558 0.0435881c-0.0309374 0.00850217 -0.063357 0.0130524 -0.0966606 0.0130525c-0.059995 0 -0.117121 -0.0147665 -0.167881 -0.0408033
c-0.0601677 -0.0295388 -0.112937 -0.0751125 -0.150479 -0.134978l-37.4375 -59.9014c-0.0200538 -0.0324507 -0.034492 -0.0670455 -0.0435881 -0.102558c-0.00850217 -0.0309374 -0.0130524 -0.063357 -0.0130525 -0.0966606
c0 -0.059995 0.0147665 -0.117121 0.0408033 -0.167881c0.0295388 -0.0601677 0.0751125 -0.112937 0.134978 -0.150479c0.0324507 -0.0200538 0.0670455 -0.034492 0.102558 -0.0435881c0.0309374 -0.00850217 0.063357 -0.0130524 0.0966606 -0.0130525h37.4375
c0.204102 0 0.375 0.170898 0.375 0.375v59.9014c0 0.059995 -0.0147665 0.117121 -0.0408033 0.167881zM100.871 542.628v-58.2177h-36.3853zM101.621 455.687c0 0.204102 -0.170898 0.375 -0.375 0.375h-70.4922v27.865l70.7007 113.116h27.7642v-113.008
c0 -0.204102 0.170898 -0.375 0.375 -0.375h27.9697v-27.5986h-27.9697c-0.204102 0 -0.375 -0.170898 -0.375 -0.375v-27.9717h-27.5977v27.9717zM100.871 455.312v-27.9717c0 -0.204102 0.170898 -0.375 0.375 -0.375h28.3477c0.204102 0 0.375 0.170898 0.375 0.375
v27.9717h27.9697c0.204102 0 0.375 0.170898 0.375 0.375v28.3486c0 0.204102 -0.170898 0.375 -0.375 0.375h-27.9697v113.008c0 0.204102 -0.170898 0.375 -0.375 0.375h-28.3477c-0.059995 0 -0.117121 -0.0147665 -0.167881 -0.0408033
c-0.0601677 -0.0295388 -0.112937 -0.0751125 -0.150479 -0.134978l-70.8672 -113.383c-0.0200538 -0.0324507 -0.034492 -0.0670455 -0.0435881 -0.102558c-0.00850217 -0.0309374 -0.0130524 -0.063357 -0.0130525 -0.0966606v-28.3486
c0 -0.204102 0.170898 -0.375 0.375 -0.375h70.4922zM355.988 136.789v-42.5195c0 -35.0156 -28.3867 -63.4023 -63.4023 -63.4023c-35.0195 0 -63.4062 28.3867 -63.4062 63.4023v42.5195c0 35.0195 28.3867 63.4062 63.4062 63.4062
c35.0156 0 63.4023 -28.3867 63.4023 -63.4062zM228.43 136.789v-42.5195c0 -35.4297 28.7227 -64.1523 64.1562 -64.1523c35.4297 0 64.1523 28.7227 64.1523 64.1523v42.5195c0 35.4336 -28.7227 64.1562 -64.1523 64.1562
c-35.4336 0 -64.1562 -28.7227 -64.1562 -64.1562zM327.645 136.789v-42.5195c0 -19.3633 -15.6992 -35.0586 -35.0586 -35.0586c-19.3633 0 -35.0586 15.6953 -35.0586 35.0586v42.5195c0 19.3633 15.6953 35.0586 35.0586 35.0586
c19.3594 0 35.0586 -15.6953 35.0586 -35.0586zM256.777 136.789v-42.5195c0 -19.7773 16.0312 -35.8086 35.8086 -35.8086c19.7734 0 35.8086 16.0312 35.8086 35.8086v42.5195c0 19.7773 -16.0352 35.8086 -35.8086 35.8086
c-19.7773 0 -35.8086 -16.0312 -35.8086 -35.8086zM285.5 335.59c-9.57812 0.00390625 -17.3359 7.76562 -17.3359 17.3398c0 9.57812 7.75781 17.3398 17.3359 17.3438h14.1719c9.57422 -0.00390625 17.3359 -7.76562 17.3359 -17.3438
c0 -9.57422 -7.76172 -17.3359 -17.3359 -17.3398h-14.1719zM285.5 334.84h14.1719c9.98828 0.00390625 18.0859 8.10156 18.0859 18.0898c0 9.99219 -8.09766 18.0898 -18.0859 18.0938h-14.1719c-9.99219 -0.00390625 -18.0859 -8.10156 -18.0859 -18.0938
c0 -9.98828 8.09375 -18.0859 18.0859 -18.0898zM281.957 306.492h21.2578c13.4922 0 24.4297 -10.9336 24.4297 -24.4258s-10.9375 -24.4297 -24.4297 -24.4297h-21.2578c-13.4922 0 -24.4297 10.9375 -24.4297 24.4297s10.9375 24.4258 24.4297 24.4258zM281.957 307.242
c-13.9062 0 -25.1797 -11.2695 -25.1797 -25.1758s11.2734 -25.1797 25.1797 -25.1797h21.2578c13.9062 0 25.1797 11.2734 25.1797 25.1797s-11.2734 25.1758 -25.1797 25.1758h-21.2578zM281.957 229.289c-22.5938 0 -42.6768 14.3779 -49.957 35.7656
c-7.28308 21.3767 -0.151527 45.0178 17.7328 58.8046c0.0071879 0.0049426 0.0142439 0.0101723 0.0211526 0.015691c0.15918 0.12793 0.186523 0.367188 0.0585938 0.527344c-10.9648 13.7148 -13.0986 32.502 -5.49023 48.3301
c7.60938 15.8232 23.6152 25.8887 41.1777 25.8887h14.1719c17.5586 0 33.5645 -10.0654 41.1738 -25.8887c7.60938 -15.8281 5.47852 -34.6152 -5.48633 -48.3301c-0.12793 -0.160156 -0.100586 -0.399414 0.0585938 -0.527344
c0.00690891 -0.0055187 0.013965 -0.0107485 0.0211528 -0.0156912c17.8843 -13.7868 25.0119 -37.4279 17.7328 -58.8046c-7.28027 -21.3877 -27.3672 -35.7656 -49.957 -35.7656h-21.2578zM281.957 228.539h21.2578c22.9102 0 43.2842 14.583 50.668 36.2734
c7.34191 21.5674 0.229111 45.4062 -17.7013 59.4191c10.9386 13.9146 13.0194 32.8515 5.33996 48.8251c-7.73438 16.083 -24.002 26.3145 -41.8496 26.3145h-14.1719c-17.8516 0 -34.1191 -10.2314 -41.8535 -26.3145
c-7.67845 -15.9736 -5.59478 -34.9104 5.34386 -48.8251c-17.9304 -14.0129 -25.0471 -37.8517 -17.7013 -59.4191c7.38379 -21.6904 27.7539 -36.2734 50.668 -36.2734zM79.9883 625.391h28.3438c0.204102 0 0.375 0.170898 0.375 0.375v170.078
c0 0.204102 -0.170898 0.375 -0.375 0.375h-28.3438c-0.204102 0 -0.375 -0.170898 -0.375 -0.375v-170.078c0 -0.204102 0.170898 -0.375 0.375 -0.375zM80.3633 626.141v169.328h27.5938v-169.328h-27.5938zM30.7539 639.562h13.4258v-13.4209h-13.4258v13.4209z
M30.0039 639.937v-14.1709c0 -0.204102 0.170898 -0.375 0.375 -0.375h14.1758c0.204102 0 0.375 0.170898 0.375 0.375v14.1709c0 0.204102 -0.170898 0.375 -0.375 0.375h-14.1758c-0.204102 0 -0.375 -0.170898 -0.375 -0.375z" />
  </g>

</svg>
