<?xml version="1.0" standalone="no"?>
<!DOCTYPE svg PUBLIC "-//W3C//DTD SVG 1.1//EN" "http://www.w3.org/Graphics/SVG/1.1/DTD/svg11.dtd" >
<svg xmlns="http://www.w3.org/2000/svg" xmlns:xlink="http://www.w3.org/1999/xlink" version="1.1" viewBox="0 -158 1000 1000">
  <g transform="matrix(1 0 0 -1 0 842)">
   <path fill="currentColor"
d="M86.6709 33.8359c0.0295072 0.0587005 0.0416593 0.122244 0.0384994 0.184469c0 0.0732949 -0.0269396 0.146192 -0.0736557 0.208109c-0.0160019 0.0215065 -0.0340175 0.0407811 -0.0536128 0.0577605
c-0.0232651 0.0204951 -0.0494194 0.0382687 -0.0782232 0.0525911l-16.673 8.33652l9.58669 19.1734l9.58245 -4.79311c0.021729 -0.0109226 0.0441216 -0.0194671 0.0668655 -0.0257365c0.0322711 -0.00930601 0.0662017 -0.0143033 0.101103 -0.0143026
c0.0693261 0 0.134822 0.0197169 0.191091 0.0537539c0.0602115 0.0352865 0.111079 0.0873445 0.14387 0.153277c0.0109226 0.021729 0.0194671 0.0441216 0.0257365 0.0668655c0.00930601 0.0322711 0.0143033 0.0662017 0.0143026 0.101103v53.1484
c0 4.12109 -3.33984 7.46094 -7.46094 7.46094h-42.5186c-4.12207 0 -7.46191 -3.33984 -7.46191 -7.46094v-70.8672c0 -4.11719 3.33984 -7.46094 7.46191 -7.46094h42.5186c1.61621 0 3.1875 0.526367 4.47852 1.49316
c0.0215065 0.0160019 0.0407811 0.0340175 0.0577605 0.0536128c0.0204951 0.0232651 0.0382687 0.0494194 0.0525911 0.0782232zM60.9316 779.402c-0.0355703 0.0106711 -0.0717237 0.0156091 -0.107422 0.0153626
c-0.0356982 0 -0.0718515 -0.00469152 -0.107422 -0.0153626c-0.06138 -0.0183224 -0.114739 -0.0517323 -0.1573 -0.0949732c-0.0430855 -0.0425082 -0.0763747 -0.095754 -0.0946526 -0.15698l-15.5898 -51.9688
c-0.00709196 -0.0236399 -0.0116517 -0.0475372 -0.0138404 -0.0713874c0 -0.0118748 -0.00178463 -0.0238959 -0.00178463 -0.0360345c0 -0.0724672 0.0215441 -0.140749 0.0584705 -0.19868c0.0467695 -0.0748669 0.119365 -0.133907 0.209108 -0.160695
c0.0236399 -0.00709196 0.0475372 -0.0116517 0.0713874 -0.0138404c0.0118748 0 0.0238959 -0.00178463 0.0360345 -0.00178463h31.1797c0.0121394 0 0.0241614 0.00178485 0.0360369 0.00178485c0.0238493 0 0.0477459 0.00674828 0.071385 0.0138401
c0.0897421 0.0267887 0.162337 0.0858294 0.209108 0.160696c0.0369245 0.0579323 0.0584683 0.126213 0.0584697 0.198679c0 0.0121394 -0.00178486 0.0241614 -0.00178486 0.0360369c0 0.0238493 -0.00674828 0.0477459 -0.0138401 0.071385l-15.5898 51.9688
c-0.0182766 0.0612266 -0.0515654 0.114472 -0.0946515 0.156979c-0.0425607 0.0432426 -0.0959199 0.076653 -0.157302 0.0949744zM60.6162 273.219c0.0633601 -0.0422401 0.135953 -0.0620766 0.208008 -0.0615347c0.0720547 0 0.144648 0.0192946 0.208008 0.0615347
c0.0208993 0.014053 0.0399519 0.0299525 0.0570851 0.0473482c0.0174187 0.0171485 0.0333384 0.0362207 0.0474071 0.057144l28.2324 42.3525h27.7715v-140.98h-27.5977v95.3633c0 0.0607688 -0.0151498 0.118594 -0.0418158 0.169842
c-0.0280975 0.0560609 -0.0702621 0.105734 -0.125176 0.142658c-0.0396729 0.0264486 -0.0829657 0.0441136 -0.12748 0.0534911c-0.0260111 0.00589352 -0.0529667 0.00900886 -0.080528 0.00900886c-0.0607688 0 -0.118594 -0.0151498 -0.169842 -0.0418158
c-0.0560609 -0.0280975 -0.105734 -0.0702621 -0.142658 -0.125176l-16.4707 -24.708h-23.125l-16.4707 24.708c-0.0369249 0.0549139 -0.0865987 0.0970788 -0.14266 0.125177c-0.0512474 0.0266649 -0.109072 0.0418144 -0.16984 0.0418152
c-0.0275591 0 -0.0545129 -0.00900766 -0.0805226 -0.00900766c-0.0445158 -0.00937823 -0.0878106 -0.0270436 -0.127485 -0.0534923c-0.0549139 -0.0369249 -0.0970788 -0.0865987 -0.125177 -0.14266c-0.0266649 -0.0512474 -0.0418144 -0.109072 -0.0418152 -0.16984
v-95.3633h-27.5977v140.98h27.7715l28.2363 -42.3525c0.014069 -0.0209232 0.0299889 -0.0399955 0.0474074 -0.0571443c0.0171333 -0.0173954 0.0361859 -0.0332948 0.0570848 -0.0473479zM400.605 556.621v-6.71094c0 -3.70703 -3.00391 -6.71094 -6.71094 -6.71094
h-42.5195c-1.7793 0 -3.48926 0.707031 -4.74609 1.96484c-1.25781 1.25684 -1.96484 2.9668 -1.96484 4.74609v70.8672c0 1.7793 0.707031 3.48438 1.96484 4.74219c1.25781 1.2627 2.9668 1.96875 4.74609 1.96875h42.5195c3.70703 0 6.71094 -3.00391 6.71094 -6.71094
v-7.09082c0 -0.204102 0.170898 -0.375 0.375 -0.375h28.3477c0.204102 0 0.375 0.170898 0.375 0.375v7.09082c0 19.7734 -16.0312 35.8086 -35.8086 35.8086h-42.5195c-9.49805 0 -18.6055 -3.77344 -25.3203 -10.4883
c-6.71484 -6.71582 -10.4883 -15.8262 -10.4883 -25.3203v-70.8672c0 -9.49805 3.77344 -18.6055 10.4883 -25.3203s15.8223 -10.4883 25.3203 -10.4883h42.5195c9.49805 0 18.6055 3.77344 25.3203 10.4883s10.4883 15.8223 10.4883 25.3203v35.4336
c0 0.204102 -0.170898 0.375 -0.375 0.375h-56.6953c-0.204102 0 -0.375 -0.170898 -0.375 -0.375v-28.3477c0 -0.204102 0.170898 -0.375 0.375 -0.375h27.9727zM401.355 556.996c0 0.204102 -0.170898 0.375 -0.375 0.375h-27.9727v27.5977h55.9453v-35.0586
c0 -9.29883 -3.69531 -18.2148 -10.2695 -24.7891s-15.4902 -10.2695 -24.7891 -10.2695h-42.5195c-9.29883 0 -18.2148 3.69531 -24.7891 10.2695s-10.2695 15.4902 -10.2695 24.7891v70.8672c0 9.29492 3.69531 18.2139 10.2695 24.7891
c6.57422 6.57422 15.4902 10.2695 24.7891 10.2695h42.5195c19.3633 0 35.0586 -15.6992 35.0586 -35.0586v-6.71582h-27.5977v6.71582c0 4.12109 -3.33984 7.46094 -7.46094 7.46094h-42.5195c-1.97852 0 -3.87891 -0.786133 -5.27734 -2.1875
c-1.39844 -1.39844 -2.18359 -3.29492 -2.18359 -5.27344v-70.8672c0 -1.97852 0.785156 -3.87793 2.18359 -5.27734c1.39941 -1.39844 3.29883 -2.18359 5.27734 -2.18359h42.5195c4.12109 0 7.46094 3.33984 7.46094 7.46094v7.08594zM393.895 4.61719h-42.5195
c-9.29883 0 -18.2158 3.69141 -24.7891 10.2656c-6.57422 6.57715 -10.2695 15.4941 -10.2695 24.7891v6.71484h27.5977v-6.71484c0 -4.11719 3.33984 -7.46094 7.46094 -7.46094h42.5195c4.12109 0 7.46094 3.34375 7.46094 7.46094v14.1758
c0 4.12109 -3.33984 7.46094 -7.46094 7.46094h-42.5195c-19.3633 0 -35.0586 15.6953 -35.0586 35.0586v14.1719c0 9.29785 3.69531 18.2148 10.2695 24.7891s15.4902 10.2695 24.7891 10.2695h42.5195c9.29883 0 18.2148 -3.69531 24.7891 -10.2695
s10.2695 -15.4912 10.2695 -24.7891v-6.71094h-27.5977v6.71094c0 4.12109 -3.33984 7.46094 -7.46094 7.46094h-42.5195c-4.12109 0 -7.46094 -3.33984 -7.46094 -7.46094v-14.1719c0 -1.97852 0.785156 -3.87793 2.18359 -5.27734
c1.39941 -1.39844 3.29883 -2.18359 5.27734 -2.18359h42.5195c19.3633 0 35.0586 -15.6953 35.0586 -35.0586v-14.1758c0 -9.29492 -3.69434 -18.2109 -10.2695 -24.79c-6.57324 -6.57324 -15.4902 -10.2646 -24.7891 -10.2646zM393.895 3.86719
c9.49805 0 18.6045 3.76953 25.3203 10.4854c6.71387 6.71777 10.4883 15.8252 10.4883 25.3193v14.1758c0 19.7773 -16.0312 35.8086 -35.8086 35.8086h-42.5195c-1.7793 0 -3.48926 0.707031 -4.74609 1.96484c-1.25781 1.25684 -1.96484 2.9668 -1.96484 4.74609v14.1719
c0 3.70703 3.00391 6.71094 6.71094 6.71094h42.5195c3.70703 0 6.71094 -3.00391 6.71094 -6.71094v-7.08594c0 -0.204102 0.170898 -0.375 0.375 -0.375h28.3477c0.204102 0 0.375 0.170898 0.375 0.375v7.08594c0 9.49707 -3.77344 18.6055 -10.4883 25.3203
s-15.8223 10.4883 -25.3203 10.4883h-42.5195c-9.49805 0 -18.6055 -3.77344 -25.3203 -10.4883s-10.4883 -15.8232 -10.4883 -25.3203v-14.1719c0 -19.7773 16.0312 -35.8086 35.8086 -35.8086h42.5195c3.70703 0 6.71094 -3.00391 6.71094 -6.71094v-14.1758
c0 -3.70312 -3.00391 -6.71094 -6.71094 -6.71094h-42.5195c-3.70703 0 -6.71094 3.00781 -6.71094 6.71094v7.08984c0 0.204102 -0.170898 0.375 -0.375 0.375h-28.3477c-0.204102 0 -0.375 -0.170898 -0.375 -0.375v-7.08984
c0 -9.49414 3.77344 -18.6006 10.4883 -25.3203c6.71582 -6.71484 15.8223 -10.4844 25.3203 -10.4844h42.5195zM241.962 4.61719l-28.2441 56.4844c-0.0327905 0.0659336 -0.0836577 0.117991 -0.143869 0.153277
c-0.0562689 0.0340381 -0.121765 0.0537552 -0.191092 0.0537543h-25c-0.204102 0 -0.375 -0.170898 -0.375 -0.375v-56.3164h-27.5977v140.98h77.5781c9.29883 0 18.2148 -3.69531 24.7891 -10.2695c6.5752 -6.57422 10.2695 -15.4912 10.2695 -24.7891v-14.1719
c0 -16.7852 -11.8965 -31.2129 -28.3682 -34.4131c-0.0298432 -0.00579479 -0.058225 -0.0151356 -0.084795 -0.0274957c-0.00398206 0 -0.00794416 -0.00570741 -0.0118847 -0.00570741c-0.0700648 -0.0348451 -0.124461 -0.090103 -0.159714 -0.155294
c-0.0411396 -0.0744492 -0.0577008 -0.162703 -0.0404817 -0.250956c0.00579479 -0.0298432 0.0151356 -0.058225 0.0274957 -0.084795c0 -0.00398206 0.00570741 -0.00794416 0.00570741 -0.0118847l28.4004 -56.8008h-30.8535zM241.539 3.92094
c0.0562689 -0.0340381 0.121765 -0.0537552 0.191092 -0.0537543h31.6914c0.0349002 0 0.0688295 0.0049969 0.1011 0.0143016c0.0227449 0.00627019 0.0451387 0.014815 0.0668689 0.0257375c0.0659336 0.0327905 0.117991 0.0836577 0.153277 0.143869
c0.0340381 0.0562689 0.0537552 0.121765 0.0537543 0.191092c0 0.0349002 -0.0049969 0.0688295 -0.0143016 0.1011c-0.00627019 0.0227449 -0.014815 0.0451387 -0.0257375 0.0668689l-28.4524 56.9049c16.5742 3.45436 28.4925 18.0722 28.4925 35.0522v14.1719
c0 9.49707 -3.77246 18.6055 -10.4883 25.3203c-6.71484 6.71484 -15.8223 10.4883 -25.3203 10.4883h-77.9531c-0.204102 0 -0.375 -0.170898 -0.375 -0.375v-141.73c0 -0.204102 0.170898 -0.375 0.375 -0.375h28.3477c0.204102 0 0.375 0.170898 0.375 0.375v56.3164
h24.3936l28.2441 -56.4844c0.0327905 -0.0659336 0.0836577 -0.117991 0.143869 -0.153277zM117.194 43.0277c0.0352865 -0.0602115 0.0873445 -0.111079 0.153277 -0.14387l9.58807 -4.79356l-9.58732 -19.1728l-4.94996 2.47315
c-0.0711238 0.0353718 -0.149358 0.045413 -0.223798 0.0337004c-0.0967121 -0.0148978 -0.187481 -0.0664702 -0.247702 -0.148883c-0.00779174 -0.0105641 -0.0150666 -0.0216186 -0.0217711 -0.0331463c-6.38583 -10.3331 -17.6716 -16.6251 -29.8231 -16.6251h-42.5186
c-9.2998 0 -18.2168 3.69141 -24.79 10.2656c-6.57422 6.57715 -10.2695 15.4941 -10.2695 24.7891v70.8672c0 9.29785 3.69531 18.2148 10.2695 24.7891s15.4902 10.2695 24.79 10.2695h42.5186c19.3633 0 35.0586 -15.6953 35.0586 -35.0586v-67.3203
c0 -0.0693261 0.0197169 -0.134822 0.0537539 -0.191091zM117.891 43.4502v67.0889c0 19.7773 -16.0312 35.8086 -35.8086 35.8086h-42.5186c-9.49902 0 -18.6064 -3.77344 -25.3213 -10.4883s-10.4883 -15.8232 -10.4883 -25.3203v-70.8672
c0 -9.49414 3.77344 -18.6006 10.4883 -25.3203c6.71582 -6.71484 15.8223 -10.4844 25.3213 -10.4844h42.5186c12.3005 0 23.7334 6.31252 30.2859 16.6989l4.97968 -2.488c0.182617 -0.0908203 0.412109 -0.0146484 0.503906 0.167969
c0.00365736 0.00735405 0.00704391 0.0147841 0.0101636 0.0222781l9.91171 19.8215c0.0264833 0.0526848 0.0389863 0.109271 0.0389863 0.165304c0 0.138188 -0.0760461 0.273007 -0.205978 0.337626zM78.915 62.5195l-9.92188 -19.8438
c-0.0264833 -0.0526848 -0.0389863 -0.109271 -0.0389863 -0.165304c0 -0.138188 0.0760461 -0.273007 0.205978 -0.337626l16.4366 -8.21829c-1.05347 -0.646046 -2.26904 -0.993626 -3.5147 -0.993626h-42.5186c-3.70801 0 -6.71191 3.00781 -6.71191 6.71094v70.8672
c0 3.70703 3.00391 6.71094 6.71191 6.71094h42.5186c3.70703 0 6.71094 -3.00391 6.71094 -6.71094v-52.5419l-9.375 4.68935c-0.0526848 0.0264833 -0.109271 0.0389863 -0.165304 0.0389863c-0.138188 0 -0.273007 -0.0760461 -0.337626 -0.205978zM89.4471 684.93
l-5.23227 17.4512c-0.0267887 0.0897421 -0.0858294 0.162337 -0.160696 0.209108c-0.0579323 0.0369245 -0.126213 0.0584683 -0.198679 0.0584697h-46.0625c-0.0724672 0 -0.140749 -0.0215441 -0.19868 -0.0584705
c-0.0748668 -0.0467695 -0.133907 -0.119365 -0.160695 -0.209108l-5.23612 -17.4512h-27.5645l42.2945 140.984h27.7895l42.2945 -140.984h-27.5644zM88.9693 684.238c0.0579323 -0.0369245 0.126213 -0.0584683 0.198679 -0.0584697h28.3477
c0.0121394 0 0.0241614 0.00178485 0.0360369 0.00178485c0.0238493 0 0.0477459 0.00674828 0.071385 0.0138401c0.0897421 0.0267887 0.162337 0.0858294 0.209108 0.160696c0.0369245 0.0579323 0.0584683 0.126213 0.0584697 0.198679
c0 0.0121394 -0.00178485 0.0241614 -0.00178485 0.0360369c0 0.0238493 -0.00674828 0.0477459 -0.0138401 0.071385l-42.5195 141.734c-0.0267887 0.0897421 -0.0858294 0.162337 -0.160696 0.209108c-0.0579323 0.0369245 -0.126213 0.0584683 -0.198679 0.0584697
h-28.3477c-0.0724672 0 -0.140749 -0.0215441 -0.19868 -0.0584705c-0.0748668 -0.0467695 -0.133907 -0.119365 -0.160695 -0.209108l-42.5195 -141.734c-0.00709196 -0.0236399 -0.0116517 -0.0475372 -0.0138404 -0.0713874
c0 -0.0118748 -0.00178463 -0.0238959 -0.00178463 -0.0360345c0 -0.0724672 0.0215441 -0.140749 0.0584705 -0.19868c0.0467695 -0.0748669 0.119365 -0.133907 0.209108 -0.160695c0.0236399 -0.00709196 0.0475372 -0.0116517 0.0713874 -0.0138404
c0.0118748 0 0.0238959 -0.00178463 0.0360345 -0.00178463h28.3477c0.0724672 0 0.140749 0.0215441 0.19868 0.0584705c0.0748668 0.0467695 0.133907 0.119365 0.160695 0.209108l5.23612 17.4512h45.5043l5.23227 -17.4512
c0.0267887 -0.0897421 0.0858294 -0.162337 0.160696 -0.209108zM75.91 727.449h-30.1715l15.0857 50.2884zM344.451 428.526c0.0438109 0.0206589 0.0840882 0.0500278 0.117843 0.0879129l50.7904 57.1396h33.1334l-59.1243 -66.5119l-0.000666852 -0.000750174
c-0.0519925 -0.0583513 -0.0819216 -0.12974 -0.0905011 -0.203246c-0.0121271 -0.0973974 0.0127824 -0.199245 0.0778058 -0.280152l59.1921 -73.9844h-31.7109l-44.0906 55.1094c-0.0132812 0.0165255 -0.0277729 0.0316301 -0.0432592 0.0452868
l-0.000686088 0.000611589c-0.0583513 0.0519925 -0.12974 0.0819216 -0.203246 0.0905011c-0.0973974 0.0121271 -0.199245 -0.0127824 -0.280152 -0.0778058c-0.0165255 -0.0132812 -0.0316301 -0.0277729 -0.0452868 -0.0432592l-0.000611589 -0.000686088
l-8.16406 -9.1875c-0.0312546 -0.0350771 -0.0545362 -0.0748654 -0.0700014 -0.116992c-0.0159484 -0.0412376 -0.0247236 -0.0857822 -0.0247252 -0.132031v-45.6875h-27.5977v140.98h27.5977v-56.8906c0 -0.0578574 0.0137329 -0.113047 0.0380637 -0.162431
c0.0206589 -0.0438109 0.0500278 -0.0840882 0.0879129 -0.117843c0.0350771 -0.0312546 0.0748654 -0.0545362 0.116992 -0.0700014c0.0412376 -0.0159484 0.0857822 -0.0247236 0.132031 -0.0247252c0.0578574 0 0.113047 0.0137329 0.162431 0.0380637zM344.664 429.849
v56.2794c0 0.204102 -0.170898 0.375 -0.375 0.375h-28.3477c-0.204102 0 -0.375 -0.170898 -0.375 -0.375v-141.73c0 -0.204102 0.170898 -0.375 0.375 -0.375h28.3477c0.204102 0 0.375 0.170898 0.375 0.375v45.9201l7.77385 8.74837l43.9254 -54.9028
c0.0367451 -0.045721 0.0827553 -0.0805654 0.133448 -0.103979c0.0486387 -0.0234442 0.102798 -0.0366441 0.159521 -0.0366456h32.6719c0.0361282 0 0.0712161 0.00535474 0.1045 0.0153007c0.0462943 0.0130056 0.0905574 0.0351313 0.129875 0.0667305
c0.045721 0.0367451 0.0805654 0.0827553 0.103979 0.133448c0.0234442 0.0486387 0.0366441 0.102798 0.0366456 0.159521c0 0.0361282 -0.00535474 0.0712161 -0.0153007 0.1045c-0.0130056 0.0462943 -0.0351313 0.0905574 -0.0667305 0.129875l-59.4822 74.3469
l59.4695 66.9002c0.0312546 0.0350771 0.0545362 0.0748654 0.0700014 0.116992c0.0159484 0.0412376 0.0247236 0.0857822 0.0247252 0.132031c0 0.0578574 -0.0137329 0.113047 -0.0380637 0.162431c-0.0206589 0.0438109 -0.0500278 0.0840882 -0.0879129 0.117843
c-0.0350771 0.0312546 -0.0748654 0.0545362 -0.116992 0.0700014c-0.0412376 0.0159484 -0.0857822 0.0247236 -0.132031 0.0247252h-34.1367c-0.0578574 0 -0.113047 -0.0137329 -0.162431 -0.0380637c-0.0438109 -0.0206589 -0.0840882 -0.0500278 -0.117843 -0.0879129z
M32.8516 268.819l15.8945 -23.8437c0.0369249 -0.0549139 0.0865987 -0.0970788 0.14266 -0.125177c0.0512474 -0.0266649 0.109072 -0.0418144 0.16984 -0.0418152h23.5273c0.0607688 0 0.118594 0.0151498 0.169842 0.0418158
c0.0560609 0.0280975 0.105734 0.0702621 0.142658 0.125176l15.8945 23.8437v-94.4989c0 -0.204102 0.170898 -0.375 0.375 -0.375h28.3477c0.204102 0 0.375 0.170898 0.375 0.375v141.73c0 0.204102 -0.170898 0.375 -0.375 0.375h-28.3477
c-0.0607688 0 -0.118594 -0.0151498 -0.169842 -0.0418158c-0.0560609 -0.0280975 -0.105734 -0.0702621 -0.142658 -0.125176l-28.0313 -42.0508l-28.0351 42.0508c-0.0369249 0.0549139 -0.0865987 0.0970788 -0.14266 0.125177
c-0.0512474 0.0266649 -0.109072 0.0418144 -0.16984 0.0418152h-28.3477c-0.204102 0 -0.375 -0.170898 -0.375 -0.375v-141.73c0 -0.204102 0.170898 -0.375 0.375 -0.375h28.3477c0.204102 0 0.375 0.170898 0.375 0.375v94.4989zM244.699 232.251l-56.0039 84.0078
c-0.0369249 0.0549139 -0.0865987 0.0970788 -0.14266 0.125177c-0.0512474 0.0266649 -0.109072 0.0418144 -0.16984 0.0418152h-28.3477c-0.204102 0 -0.375 -0.170898 -0.375 -0.375v-141.73c0 -0.204102 0.170898 -0.375 0.375 -0.375h28.3477
c0.204102 0 0.375 0.170898 0.375 0.375v83.7998l56.0039 -84.0078c0.0369249 -0.0549139 0.0865987 -0.0970788 0.14266 -0.125177c0.0512474 -0.0266649 0.109072 -0.0418144 0.16984 -0.0418152h28.3477c0.204102 0 0.375 0.170898 0.375 0.375v141.73
c0 0.204102 -0.170898 0.375 -0.375 0.375h-28.3477c-0.204102 0 -0.375 -0.170898 -0.375 -0.375v-83.7998zM245.407 230.842c0.0266649 0.0512474 0.0418144 0.109072 0.0418152 0.16984v84.6641h27.5977v-140.98h-27.7715l-56.5801 84.8721
c-0.0369249 0.0549139 -0.0865987 0.0970788 -0.14266 0.125177c-0.0512474 0.0266649 -0.109072 0.0418144 -0.16984 0.0418152c-0.0275591 0 -0.0545129 -0.00900766 -0.0805226 -0.00900766c-0.0445158 -0.00937823 -0.0878106 -0.0270436 -0.127485 -0.0534923
c-0.0549139 -0.0369249 -0.0970788 -0.0865987 -0.125177 -0.14266c-0.0266649 -0.0512474 -0.0418144 -0.109072 -0.0418152 -0.16984v-84.6641h-27.5977v140.98h27.7715l56.5801 -84.8721c0.0369249 -0.0549139 0.0865987 -0.0970788 0.14266 -0.125177
c0.0512474 -0.0266649 0.109072 -0.0418144 0.16984 -0.0418152c0.0275591 0 0.0545129 0.00900766 0.0805226 0.00900766c0.0445158 0.00937824 0.0878106 0.0270436 0.127485 0.0534923c0.0549139 0.0369249 0.0970788 0.0865987 0.125177 0.14266zM400.98 727.449
c-0.204102 0 -0.375 -0.170898 -0.375 -0.375v-7.08594c0 -3.70703 -3.00391 -6.71094 -6.71094 -6.71094h-42.5195c-1.7793 0 -3.48926 0.707031 -4.74609 1.96484c-1.25781 1.25684 -1.96484 2.9668 -1.96484 4.74609v70.8672c0 1.7793 0.706055 3.48535 1.96484 4.74707
c1.25684 1.25684 2.9668 1.96387 4.74609 1.96387h42.5195c3.70703 0 6.71094 -3.00391 6.71094 -6.71094v-7.08594c0 -0.204102 0.170898 -0.375 0.375 -0.375h28.3477c0.204102 0 0.375 0.170898 0.375 0.375v7.08594c0 9.49805 -3.77344 18.6055 -10.4883 25.3203
s-15.8223 10.4883 -25.3203 10.4883h-42.5195c-9.49805 0 -18.6055 -3.77344 -25.3203 -10.4883s-10.4883 -15.8223 -10.4883 -25.3203v-70.8672c0 -9.49805 3.77344 -18.6055 10.4883 -25.3203s15.8223 -10.4883 25.3203 -10.4883h42.5195
c19.7773 0 35.8086 16.0312 35.8086 35.8086v7.08594c0 0.204102 -0.170898 0.375 -0.375 0.375h-28.3477zM401.355 726.699h27.5977v-6.71094c0 -19.3633 -15.6953 -35.0586 -35.0586 -35.0586h-42.5195c-9.29883 0 -18.2148 3.69531 -24.7891 10.2695
s-10.2695 15.4902 -10.2695 24.7891v70.8672c0 9.29883 3.69531 18.2148 10.2695 24.7891s15.4902 10.2695 24.7891 10.2695h42.5195c9.29883 0 18.2148 -3.69531 24.7891 -10.2695s10.2695 -15.4902 10.2695 -24.7891v-6.71094h-27.5977v6.71094
c0 4.12109 -3.33984 7.46094 -7.46094 7.46094h-42.5195c-1.97852 0 -3.87793 -0.785156 -5.27734 -2.18457c-1.39746 -1.40234 -2.18359 -3.29785 -2.18359 -5.27637v-70.8672c0 -1.97852 0.785156 -3.87793 2.18359 -5.27734
c1.39941 -1.39844 3.29883 -2.18359 5.27734 -2.18359h42.5195c4.12109 0 7.46094 3.33984 7.46094 7.46094v6.71094zM585.605 145.973c0 0.204102 -0.170898 0.375 -0.375 0.375h-113.383c-0.204102 0 -0.375 -0.170898 -0.375 -0.375v-28.3477
c0 -0.204102 0.170898 -0.375 0.375 -0.375h42.1445v-113.008c0 -0.204102 0.170898 -0.375 0.375 -0.375h28.3438c0.204102 0 0.375 0.170898 0.375 0.375v113.008h42.1445c0.204102 0 0.375 0.170898 0.375 0.375v28.3477zM584.855 145.598v-27.5977h-42.1445
c-0.204102 0 -0.375 -0.170898 -0.375 -0.375v-113.008h-27.5938v113.008c0 0.204102 -0.170898 0.375 -0.375 0.375h-42.1445v27.5977h112.633zM549.801 288.082h-49.6094c-0.204102 0 -0.375 -0.170898 -0.375 -0.375v-28.3477c0 -0.204102 0.170898 -0.375 0.375 -0.375
h49.6094c4.12109 0 7.46094 3.33984 7.46094 7.46094v14.1719c0 1.97852 -0.786133 3.87891 -2.1875 5.27734c-1.39844 1.39746 -3.29492 2.1875 -5.27344 2.1875zM549.801 287.332c1.7793 0 3.48438 -0.709961 4.74219 -1.96875
c1.2627 -1.25781 1.96875 -2.9668 1.96875 -4.74609v-14.1719c0 -3.70703 -3.00391 -6.71094 -6.71094 -6.71094h-49.2344v27.5977h49.2344zM585.605 280.617c0 19.7764 -16.0312 35.8086 -35.8047 35.8086h-77.9531c-0.204102 0 -0.375 -0.170898 -0.375 -0.375v-141.73
c0 -0.204102 0.170898 -0.375 0.375 -0.375h28.3438c0.204102 0 0.375 0.170898 0.375 0.375v56.3164h49.2344c9.49414 0 18.6055 3.77344 25.3203 10.4883c6.71484 6.71582 10.4844 15.8223 10.4844 25.3203v14.1719zM584.855 266.445
c0 -9.29883 -3.69141 -18.2158 -10.2656 -24.7891c-6.57422 -6.57422 -15.4941 -10.2695 -24.7891 -10.2695h-49.6094c-0.204102 0 -0.375 -0.170898 -0.375 -0.375v-56.3164h-27.5938v140.98h77.5781c19.3594 0 35.0547 -15.6963 35.0547 -35.0586v-14.1719z
M472.223 344.773v140.98h27.5938v-113.008c0 -0.204102 0.170898 -0.375 0.375 -0.375h84.6641v-27.5977h-112.633zM471.473 344.398c0 -0.204102 0.170898 -0.375 0.375 -0.375h113.383c0.204102 0 0.375 0.170898 0.375 0.375v28.3477
c0 0.204102 -0.170898 0.375 -0.375 0.375h-84.6641v113.008c0 0.204102 -0.170898 0.375 -0.375 0.375h-28.3438c-0.204102 0 -0.375 -0.170898 -0.375 -0.375v-141.73zM472.223 514.852v140.984h27.5938v-56.3203c0 -0.204102 0.170898 -0.375 0.375 -0.375h56.6953
c0.204102 0 0.375 0.170898 0.375 0.375v56.3203h27.5938v-140.984h-27.5938v56.3164c0 0.204102 -0.170898 0.375 -0.375 0.375h-56.6953c-0.204102 0 -0.375 -0.170898 -0.375 -0.375v-56.3164h-27.5938zM471.473 514.477c0 -0.204102 0.170898 -0.375 0.375 -0.375
h28.3438c0.204102 0 0.375 0.170898 0.375 0.375v56.3164h55.9453v-56.3164c0 -0.204102 0.170898 -0.375 0.375 -0.375h28.3438c0.204102 0 0.375 0.170898 0.375 0.375v141.734c0 0.204102 -0.170898 0.375 -0.375 0.375h-28.3438
c-0.204102 0 -0.375 -0.170898 -0.375 -0.375v-56.3203h-55.9453v56.3203c0 0.204102 -0.170898 0.375 -0.375 0.375h-28.3438c-0.204102 0 -0.375 -0.170898 -0.375 -0.375v-141.734zM500.566 713.277v84.2891h49.2344c1.7793 0 3.48438 -0.707031 4.74219 -1.96484
c1.2627 -1.26172 1.96875 -2.9668 1.96875 -4.74609v-70.8672c0 -1.7793 -0.707031 -3.48828 -1.96777 -4.74609c-1.25879 -1.25879 -2.96387 -1.96484 -4.74316 -1.96484h-49.2344zM549.801 712.527c1.97852 0 3.875 0.786133 5.27246 2.18359
c1.40332 1.39844 2.18848 3.29883 2.18848 5.27734v70.8672c0 1.97852 -0.786133 3.875 -2.1875 5.27734c-1.39844 1.39844 -3.29492 2.18359 -5.27344 2.18359h-49.6094c-0.204102 0 -0.375 -0.170898 -0.375 -0.375v-85.0391c0 -0.204102 0.170898 -0.375 0.375 -0.375
h49.6094zM471.848 826.664c-0.204102 0 -0.375 -0.170898 -0.375 -0.375v-141.734c0 -0.204102 0.170898 -0.375 0.375 -0.375h77.9531c19.7734 0 35.8047 16.0312 35.8047 35.8086v70.8672c0 9.49805 -3.76953 18.6045 -10.4844 25.3203
c-6.71484 6.71484 -15.8262 10.4883 -25.3203 10.4883h-77.9531zM549.801 825.914c9.29492 0 18.2148 -3.69531 24.7891 -10.2695c6.57422 -6.57324 10.2656 -15.4902 10.2656 -24.7891v-70.8672c0 -19.3633 -15.6953 -35.0586 -35.0547 -35.0586h-77.5781v140.984h77.5781z
M351.375 316.426c-9.49805 0 -18.6055 -3.77051 -25.3203 -10.4883c-6.71484 -6.71484 -10.4883 -15.8223 -10.4883 -25.3203v-70.8633c0 -9.49805 3.77441 -18.6055 10.4883 -25.3193c6.71484 -6.71973 15.8223 -10.4893 25.3203 -10.4893h42.5195
c9.49805 0 18.6055 3.77051 25.3203 10.4883c6.71484 6.71484 10.4883 15.8223 10.4883 25.3203v70.8633c0 19.7764 -16.0312 35.8086 -35.8086 35.8086h-42.5195zM393.895 315.676c19.3633 0 35.0586 -15.6963 35.0586 -35.0586v-70.8633
c0 -9.29883 -3.69531 -18.2148 -10.2695 -24.7891c-6.57422 -6.5791 -15.4902 -10.2695 -24.7891 -10.2695h-42.5195c-9.29883 0 -18.2148 3.69141 -24.7891 10.2686c-6.5752 6.5752 -10.2695 15.4912 -10.2695 24.79v70.8633c0 9.29883 3.69531 18.2148 10.2695 24.7891
c6.57422 6.5791 15.4902 10.2695 24.7891 10.2695h42.5195zM393.895 287.332c3.70703 0 6.71094 -3.00781 6.71094 -6.71484v-70.8633c0 -3.70703 -3.00391 -6.71484 -6.71094 -6.71484h-42.5195c-3.70703 0 -6.71094 3.00781 -6.71094 6.71484v70.8633
c0 1.7793 0.707031 3.48926 1.96484 4.74609c1.25781 1.25879 2.9668 1.96875 4.74609 1.96875h42.5195zM351.375 288.082c-1.97852 0 -3.87891 -0.790039 -5.27734 -2.1875c-1.39844 -1.39941 -2.18359 -3.29883 -2.18359 -5.27734v-70.8633
c0 -4.12109 3.33984 -7.46484 7.46094 -7.46484h42.5195c4.12109 0 7.46094 3.34375 7.46094 7.46484v70.8633c0 4.12109 -3.33984 7.46484 -7.46094 7.46484h-42.5195zM245.449 110.539c0 4.12109 -3.33984 7.46094 -7.46094 7.46094h-49.6055
c-0.204102 0 -0.375 -0.170898 -0.375 -0.375v-28.3438c0 -0.204102 0.170898 -0.375 0.375 -0.375h49.6055c1.97852 0 3.87793 0.785156 5.27734 2.18359c1.39844 1.39941 2.18359 3.29883 2.18359 5.27734v14.1719zM244.699 96.3672
c0 -1.7793 -0.707031 -3.48926 -1.96484 -4.74609c-1.25684 -1.25781 -2.9668 -1.96484 -4.74609 -1.96484h-49.2305v27.5938h49.2305c3.70703 0 6.71094 -3.00391 6.71094 -6.71094v-14.1719zM159.66 457.785c0 -0.204102 0.170898 -0.375 0.375 -0.375h56.3203v-70.4922
c0 -7.62109 -6.17969 -13.7969 -13.8008 -13.7969s-13.7969 6.17578 -13.7969 13.7969c0 0.204102 -0.170898 0.375 -0.375 0.375h-28.3477c-0.204102 0 -0.375 -0.170898 -0.375 -0.375c0 -23.6914 19.207 -42.8945 42.8945 -42.8945
c23.6914 0 42.8945 19.2031 42.8945 42.8945v70.4922h27.9727c0.204102 0 0.375 0.170898 0.375 0.375v28.3438c0 0.204102 -0.170898 0.375 -0.375 0.375h-113.387c-0.204102 0 -0.375 -0.170898 -0.375 -0.375v-28.3438zM160.41 458.16v27.5938h112.637v-27.5938h-27.9727
c-0.204102 0 -0.375 -0.170898 -0.375 -0.375v-70.8672c0 -23.2773 -18.8672 -42.1445 -42.1445 -42.1445c-23.1483 0 -41.9415 18.6649 -42.1429 41.7695h27.6008c0.198846 -7.86178 6.63236 -14.1719 14.5421 -14.1719c8.03516 0 14.5508 6.51172 14.5508 14.5469v70.8672
c0 0.204102 -0.170898 0.375 -0.375 0.375h-56.3203zM273.797 656.211c0 0.204102 -0.170898 0.375 -0.375 0.375h-113.387c-0.204102 0 -0.375 -0.170898 -0.375 -0.375v-141.734c0 -0.204102 0.170898 -0.375 0.375 -0.375h28.3477c0.204102 0 0.375 0.170898 0.375 0.375
v56.3164h56.3164c0.204102 0 0.375 0.170898 0.375 0.375v28.3477c0 0.204102 -0.170898 0.375 -0.375 0.375h-56.3164v27.5977h84.6641c0.204102 0 0.375 0.170898 0.375 0.375v28.3477zM273.047 655.836v-27.5977h-84.6641c-0.204102 0 -0.375 -0.170898 -0.375 -0.375
v-28.3477c0 -0.204102 0.170898 -0.375 0.375 -0.375h56.3164v-27.5977h-56.3164c-0.204102 0 -0.375 -0.170898 -0.375 -0.375v-56.3164h-27.5977v140.984h112.637zM160.41 825.914h70.4922c16.6182 0 31.6865 -9.76855 38.4736 -24.9424
c6.78457 -15.1686 4.02001 -32.911 -7.05866 -45.2966c-0.00350394 -0.00383096 -0.0069144 -0.00772466 -0.0102331 -0.0116751c-0.0584625 -0.0693043 -0.0871091 -0.155545 -0.0869769 -0.241528c0 -0.0859841 0.0285141 -0.172224 0.0869767 -0.241528
c0 -0.00395378 0.0067285 -0.00784818 0.0102352 -0.011678c11.0787 -12.3895 13.8432 -30.128 7.05866 -45.3005c-6.78711 -15.1699 -21.8555 -24.9385 -38.4736 -24.9385h-70.4922v140.984zM160.035 826.664c-0.204102 0 -0.375 -0.170898 -0.375 -0.375v-141.734
c0 -0.204102 0.170898 -0.375 0.375 -0.375h70.8672c16.9131 0 32.251 9.94238 39.1592 25.3818c6.85879 15.3416 4.12652 33.2621 -6.96659 45.8603c11.0931 12.5944 13.8254 30.5188 6.96659 45.8565c-6.9082 15.4434 -22.2461 25.3857 -39.1592 25.3857h-70.8672z
M230.902 769.969h-42.1445v27.5977h42.1445c7.61719 -0.00488281 13.793 -6.17969 13.793 -13.7969c0 -7.62109 -6.17578 -13.7969 -13.793 -13.8008zM230.902 798.316h-42.5195c-0.204102 0 -0.375 -0.170898 -0.375 -0.375v-28.3477
c0 -0.204102 0.170898 -0.375 0.375 -0.375h42.5195c8.03125 0.00390625 14.543 6.51562 14.543 14.5508c0 8.03125 -6.51172 14.542 -14.543 14.5469zM230.902 713.277h-42.1445v27.5977h42.1445c7.62109 0 13.7969 -6.17969 13.7969 -13.8008
s-6.17578 -13.7969 -13.7969 -13.7969zM230.902 741.625h-42.5195c-0.204102 0 -0.375 -0.170898 -0.375 -0.375v-28.3477c0 -0.204102 0.170898 -0.375 0.375 -0.375h42.5195c8.03516 0 14.5469 6.51172 14.5469 14.5469s-6.51172 14.5508 -14.5469 14.5508z
M47.0234 344.773v140.98h27.5977v-140.98h-27.5977zM46.2734 344.398c0 -0.204102 0.170898 -0.375 0.375 -0.375h28.3477c0.204102 0 0.375 0.170898 0.375 0.375v141.73c0 0.204102 -0.170898 0.375 -0.375 0.375h-28.3477c-0.204102 0 -0.375 -0.170898 -0.375 -0.375
v-141.73zM117.891 656.211c0 0.204102 -0.170898 0.375 -0.375 0.375h-113.387c-0.204102 0 -0.375 -0.170898 -0.375 -0.375v-141.734c0 -0.204102 0.170898 -0.375 0.375 -0.375h113.387c0.204102 0 0.375 0.170898 0.375 0.375v28.3477
c0 0.204102 -0.170898 0.375 -0.375 0.375h-84.6641v27.5938h56.3164c0.204102 0 0.375 0.170898 0.375 0.375v28.3477c0 0.204102 -0.170898 0.375 -0.375 0.375h-56.3164v27.5977h84.6641c0.204102 0 0.375 0.170898 0.375 0.375v28.3477zM117.141 655.836v-27.5977
h-84.6641c-0.204102 0 -0.375 -0.170898 -0.375 -0.375v-28.3477c0 -0.204102 0.170898 -0.375 0.375 -0.375h56.3164v-27.5977h-56.3164c-0.204102 0 -0.375 -0.170898 -0.375 -0.375v-28.3438c0 -0.204102 0.170898 -0.375 0.375 -0.375h84.6641v-27.5977h-112.637
v140.984h112.637zM4.50391 358.195h13.4258v-13.4219h-13.4258v13.4219zM3.75391 358.57v-14.1719c0 -0.204102 0.170898 -0.375 0.375 -0.375h14.1758c0.204102 0 0.375 0.170898 0.375 0.375v14.1719c0 0.204102 -0.170898 0.375 -0.375 0.375h-14.1758
c-0.204102 0 -0.375 -0.170898 -0.375 -0.375z" />
  </g>

</svg>
