<?xml version="1.0" standalone="no"?>
<!DOCTYPE svg PUBLIC "-//W3C//DTD SVG 1.1//EN" "http://www.w3.org/Graphics/SVG/1.1/DTD/svg11.dtd" >
<svg xmlns="http://www.w3.org/2000/svg" xmlns:xlink="http://www.w3.org/1999/xlink" version="1.1" viewBox="0 -158 1000 1000">
  <g transform="matrix(1 0 0 -1 0 842)">
   <path fill="currentColor"
d="M372.81 777.011c-0.0559596 0.0296435 -0.116697 0.0433592 -0.176758 0.0428303c-0.0600603 0 -0.120798 -0.0131869 -0.176758 -0.0428303c-0.0332712 -0.0179013 -0.0627925 -0.0403896 -0.0882053 -0.0662984
c-0.0258218 -0.0253656 -0.0482374 -0.0548177 -0.0660916 -0.0879985l-19.1102 -35.836l-8.52866 85.2943c-0.015553 0.190748 -0.179653 0.345374 -0.373795 0.345374h-28.3477c-0.0127297 0 -0.0253303 -0.00195741 -0.0377687 -0.00195741
c-0.169913 0 -0.304845 -0.145609 -0.332089 -0.312036c-0.00338035 -0.019897 -0.00514262 -0.0402805 -0.00514262 -0.0610064c0 -0.0144755 0.00252977 -0.028784 0.00252977 -0.0428763l14.1706 -141.717c0 -0.0150534 0.00639662 -0.0298818 0.00639662 -0.0444276
c0.0143463 -0.0697921 0.0484707 -0.132339 0.095679 -0.182084c0.0687926 -0.0728248 0.165783 -0.118864 0.27172 -0.118862h28.3477c0.0693261 0 0.134822 0.0197169 0.191091 0.0537539c0.0602115 0.0352865 0.111079 0.0873445 0.14387 0.153277l13.837 27.6777
l13.8408 -27.6777c0.0327905 -0.0659336 0.0836577 -0.117991 0.143869 -0.153277c0.0562689 -0.0340381 0.121765 -0.0537552 0.191092 -0.0537543h28.3438c0.194138 0 0.358236 0.15462 0.373794 0.345363c4.72501 47.241 9.45002 94.482 14.1751 141.723
c0 0.0122261 0.00192335 0.0246085 0.00192335 0.0371126c0 0.105934 -0.0460382 0.202924 -0.118861 0.271718c-0.0497458 0.0472104 -0.112293 0.0813353 -0.182084 0.0956804c-0.0240009 0.00498252 -0.0487729 0.00760175 -0.074055 0.00760175h-28.3477
c-0.194142 0 -0.358242 -0.154627 -0.373795 -0.345374l-8.52868 -85.2945l-19.1141 35.8361c-0.017853 0.0331812 -0.0402681 0.0626328 -0.0660902 0.0879972c-0.0254121 0.0259103 -0.0549339 0.048399 -0.0882066 0.0662997zM216.623 731.438
c0.0355703 -0.0106711 0.0717237 -0.0156091 0.107422 -0.0153626c0.0356982 0 0.0718515 0.00469152 0.107422 0.0153626c0.06138 0.0183224 0.114739 0.0517323 0.1573 0.0949732c0.0430855 0.0425082 0.0763747 0.095754 0.0946526 0.15698l28.2635 94.2207h27.5644
l-42.2945 -140.98h-27.7895l-42.2945 140.98h27.5645l28.2674 -94.2207c0.0182766 -0.0612266 0.0515654 -0.114472 0.0946515 -0.156979c0.0425607 -0.0432426 0.0959199 -0.076653 0.157302 -0.0949744zM60.6562 599.181
c0.0535203 -0.0269032 0.111067 -0.0393793 0.167969 -0.0389768c0.056902 0 0.114448 0.0120736 0.167969 0.0389768c0.0368742 0.0183385 0.0694084 0.0423309 0.0970979 0.0704479c0.0278786 0.0275683 0.0516752 0.0599158 0.0698942 0.0965443l28.2402 56.4844h27.5098
l-42.248 -84.4961c-0.0109226 -0.021729 -0.0194671 -0.0441216 -0.0257365 -0.0668655c-0.00930601 -0.0322711 -0.0143033 -0.0662017 -0.0143026 -0.101103v-56.3164h-27.5977v56.3164c0 0.0349002 -0.0049969 0.0688295 -0.0143016 0.1011
c-0.00627019 0.0227449 -0.014815 0.0451387 -0.0257375 0.0668689l-42.248 84.4961h27.5098l28.2441 -56.4844c0.0182167 -0.0366292 0.0420124 -0.068976 0.0698918 -0.0965418c0.0276882 -0.0281199 0.0602233 -0.0521131 0.0971004 -0.0704503zM67.5352 238.473
h-27.8184l27.8184 34.0006v-34.0006zM68.2852 238.098v35.4258c0 0.055533 -0.0126517 0.108608 -0.0351812 0.156452c-0.0228795 0.0506312 -0.0572115 0.0966738 -0.102514 0.133587c-0.0339755 0.0278935 -0.0717344 0.0486706 -0.111362 0.0625329
c-0.0395203 0.0144938 -0.0819603 0.0224296 -0.125943 0.0224281c-0.055533 0 -0.108608 -0.0126517 -0.156452 -0.0351812c-0.0506312 -0.0228795 -0.0966738 -0.0572115 -0.133587 -0.102514l-28.9844 -35.4258
c-0.0278935 -0.0339755 -0.0486706 -0.0717344 -0.0625329 -0.111362c-0.0144938 -0.0395203 -0.0224296 -0.0819603 -0.0224281 -0.125943c0 -0.055533 0.0126517 -0.108608 0.0351812 -0.156452c0.0228795 -0.0506312 0.0572115 -0.0966738 0.102514 -0.133587
c0.0339755 -0.0278935 0.0717344 -0.0486706 0.111362 -0.0625329c0.0395203 -0.0144938 0.0819603 -0.0224296 0.125943 -0.0224281h28.9844c0.204102 0 0.375 0.170898 0.375 0.375zM369.018 259.472c-0.0114712 -0.0355469 -0.017684 -0.0732552 -0.017683 -0.112171
c0 -0.067933 0.0189325 -0.132188 0.0517204 -0.187687c0.0282626 -0.0495306 0.0680094 -0.0930933 0.118201 -0.12579c0.0292963 -0.0193625 0.0605956 -0.0339062 0.0929072 -0.0438404c0.0355469 -0.0114712 0.0732552 -0.017684 0.112171 -0.017683h17.4336
c23.2617 -0.015625 42.1133 -18.8828 42.1133 -42.1445c0 -23.2656 -18.8516 -42.1289 -42.1133 -42.1445h-28.3477c-15.4834 0 -29.7197 8.4873 -37.0801 22.1084c-7.35645 13.6201 -6.65527 30.1807 1.82715 43.1318l49.6269 75.7402h32.9949l-36.7683 -56.1113
c-0.0193625 -0.0292963 -0.0339062 -0.0605956 -0.0438404 -0.0929072zM370.069 259.734l36.7683 56.1113c0.0193625 0.0292963 0.0339062 0.0605956 0.0438404 0.0929072c0.0114712 0.0355469 0.017684 0.0732552 0.017683 0.112171
c0 0.067933 -0.0189325 0.132188 -0.0517204 0.187687c-0.0282626 0.0495306 -0.0680094 0.0930933 -0.118201 0.12579c-0.0292963 0.0193625 -0.0605956 0.0339062 -0.0929072 0.0438404c-0.0355469 0.0114712 -0.0732552 0.017684 -0.112171 0.017683h-33.8906
c-0.0657423 0 -0.12804 -0.0177311 -0.18229 -0.0485933c-0.0517427 -0.0284271 -0.0972674 -0.0692562 -0.131187 -0.121329l-49.7383 -75.9102c-8.63477 -13.1816 -9.34766 -30.0352 -1.86035 -43.8994c7.49121 -13.8633 21.9814 -22.501 37.7402 -22.501h28.3477
c23.6758 0.015625 42.8633 19.2148 42.8633 42.8945c0 23.6758 -19.1875 42.8789 -42.8633 42.8945h-16.74zM220.315 61.1159c-0.0284271 0.0517427 -0.0692562 0.0972674 -0.121329 0.131187c-0.02722 0.0178874 -0.0560998 0.0316623 -0.0858702 0.0414903
c-0.0375923 0.0129698 -0.077714 0.0200333 -0.119208 0.0200331h-17.4336c-23.2656 0.0117188 -42.1211 18.8789 -42.1211 42.1445s18.8555 42.1289 42.1211 42.1445h28.3477c15.4834 0 29.7197 -8.49121 37.0762 -22.1113
c7.36035 -13.6221 6.66016 -30.1816 -1.82324 -43.1328l-49.6269 -75.7402h-32.9949l36.7684 56.1152c0.0178874 0.02722 0.0316623 0.0560998 0.0414903 0.0858702c0.0129698 0.0375923 0.0200333 0.077714 0.0200331 0.119208
c0 0.0657423 -0.0177311 0.12804 -0.0485933 0.18229zM219.295 60.5586l-36.7684 -56.1152c-0.0178874 -0.02722 -0.0316623 -0.0560998 -0.0414903 -0.0858702c-0.0129698 -0.0375923 -0.0200333 -0.077714 -0.0200331 -0.119208
c0 -0.0657423 0.0177311 -0.12804 0.0485933 -0.18229c0.0284271 -0.0517427 0.0692562 -0.0972674 0.121329 -0.131187c0.02722 -0.0178874 0.0560998 -0.0316623 0.0858702 -0.0414903c0.0375923 -0.0129698 0.077714 -0.0200333 0.119208 -0.0200331h33.8906
c0.0657423 0 0.12804 0.0177311 0.18229 0.0485933c0.0517427 0.0284271 0.0972674 0.0692562 0.131187 0.121329l49.7383 75.9102c8.63379 13.1816 9.34766 30.0361 1.85645 43.8984c-7.4873 13.8643 -21.9775 22.5059 -37.7363 22.5059h-28.3477
c-23.6797 -0.015625 -42.8711 -19.2148 -42.8711 -42.8945s19.1914 -42.8828 42.8711 -42.8945h16.74zM160.035 344.023h14.1758c0.204102 0 0.375 0.170898 0.375 0.375v14.1719c0 0.204102 -0.170898 0.375 -0.375 0.375h-14.1758
c-0.204102 0 -0.375 -0.170898 -0.375 -0.375v-14.1719c0 -0.204102 0.170898 -0.375 0.375 -0.375zM160.41 344.773v13.4219h13.4258v-13.4219h-13.4258zM392.643 739.552c0.0316705 0.0484205 0.0525431 0.104556 0.0586569 0.165119l8.61856 86.1934h27.5941
l-14.1008 -140.98h-27.7731l-14.0723 28.1406c-0.0182167 0.0366292 -0.0420124 0.068976 -0.0698918 0.0965418c-0.0276882 0.0281199 -0.0602233 0.0521131 -0.0971004 0.0704503c-0.0535203 0.0269032 -0.111067 0.0393793 -0.167969 0.0389768
c-0.056902 0 -0.114448 -0.0120736 -0.167969 -0.0389768c-0.0368742 -0.0183385 -0.0694084 -0.0423309 -0.0970979 -0.0704479c-0.0278786 -0.0275683 -0.0516752 -0.0599158 -0.0698943 -0.0965443l-14.0684 -28.1406h-27.7769l-14.0969 140.98h27.5941l8.61856 -86.1934
c0.00611445 -0.0605622 0.0269868 -0.116697 0.0586563 -0.165118c0.0332853 -0.0527228 0.0797928 -0.0977064 0.137633 -0.128828c0.0339412 -0.0179797 0.0696402 -0.0300998 0.10588 -0.0367367c0.0348556 -0.00697594 0.0711486 -0.00525547 0.107988 -0.00525547
c0.0605622 0.00611445 0.116697 0.0269868 0.165118 0.0586563c0.0527228 0.0332853 0.0977064 0.0797928 0.128828 0.137633l19.3604 36.305l19.3642 -36.305c0.0311206 -0.0578403 0.0761038 -0.104348 0.128827 -0.137632
c0.0484205 -0.0316705 0.104556 -0.0525431 0.165119 -0.0586569c0.0368407 -0.00371949 0.0731352 0.00525634 0.107992 0.00525634c0.0362379 0.00663644 0.0719354 0.0187563 0.105875 0.0367358c0.0578403 0.0311206 0.104348 0.0761038 0.137632 0.128827z
M238.331 628.014c-0.0201122 0.0467404 -0.0500308 0.0898738 -0.0896503 0.125915c-0.0312627 0.0286237 -0.0664501 0.0508751 -0.103816 0.0668087c-0.0459093 0.0204244 -0.0964048 0.0318225 -0.149114 0.0318241h-77.5781v27.5938h112.637v-27.8234l-77.8545 -84.9315
c-0.0286237 -0.0312627 -0.0508751 -0.0664501 -0.0668087 -0.103816c-0.0204244 -0.0459093 -0.0318225 -0.0964048 -0.0318241 -0.149114c0 -0.0532221 0.0116206 -0.104186 0.03242 -0.150452c0.0201122 -0.0467404 0.0500308 -0.0898738 0.0896503 -0.125915
c0.0312627 -0.0286237 0.0664501 -0.0508751 0.103816 -0.0668087c0.0459093 -0.0204244 0.0964048 -0.0318225 0.149114 -0.0318241h77.5781v-27.5977h-112.637v27.8273l77.8545 84.9315c0.0286237 0.0312627 0.0508751 0.0664501 0.0668087 0.103816
c0.0204244 0.0459093 0.0318225 0.0964048 0.0318241 0.149114c0 0.0532221 -0.0116206 0.104186 -0.03242 0.150452zM237.136 627.488l-77.3775 -84.4111c-0.0286237 -0.0312627 -0.0508751 -0.0664501 -0.0668087 -0.103816
c-0.0204244 -0.0459093 -0.0318225 -0.0964048 -0.0318241 -0.149114v-28.3477c0 -0.204102 0.170898 -0.375 0.375 -0.375h113.387c0.204102 0 0.375 0.170898 0.375 0.375v28.3477c0 0.204102 -0.170898 0.375 -0.375 0.375h-77.1012l77.3775 84.4111
c0.0286237 0.0312627 0.0508751 0.0664501 0.0668087 0.103816c0.0204244 0.0459093 0.0318225 0.0964048 0.0318241 0.149114v28.3438c0 0.204102 -0.170898 0.375 -0.375 0.375h-113.387c-0.204102 0 -0.375 -0.170898 -0.375 -0.375v-28.3438
c0 -0.204102 0.170898 -0.375 0.375 -0.375h77.1012zM517.535 684.93h-45.0394l40.4232 70.3057c0.0334671 0.0582456 0.0491195 0.122641 0.0487038 0.186444c0 0.0638544 -0.0152083 0.128309 -0.0487038 0.186603l-40.4232 70.3018h31.0257l24.6924 -42.9443
c0.016806 -0.0294105 0.0372219 -0.0556656 0.0603929 -0.078545c0.0228164 -0.0230614 0.0489826 -0.0433848 0.078279 -0.0601269c0.0582456 -0.0334671 0.122641 -0.0491195 0.186444 -0.0487038c0.0638544 0 0.128309 0.0152083 0.186603 0.0487038
c0.0292977 0.0167415 0.0554642 0.0370653 0.07828 0.0601279c0.0231714 0.0228784 0.0435869 0.0491332 0.0603918 0.078544l24.6963 42.9443h31.0257l-40.4271 -70.3018c-0.0334949 -0.0582941 -0.0491455 -0.122749 -0.0487038 -0.186603
c0 -0.0638023 0.0152372 -0.128198 0.0487038 -0.186444l40.4271 -70.3057h-31.0257l-24.6963 42.9482c-0.016806 0.0294105 -0.0372219 0.0556656 -0.0603929 0.078545c-0.0228164 0.0230614 -0.0489826 0.0433848 -0.078279 0.0601269
c-0.0582941 0.0334949 -0.122749 0.0491455 -0.186603 0.0487038c-0.0638023 0 -0.128198 -0.0152372 -0.186444 -0.0487038c-0.0292977 -0.0167415 -0.0554642 -0.0370653 -0.07828 -0.0601279c-0.0231714 -0.0228784 -0.0435869 -0.0491332 -0.0603918 -0.078544
l-18.6914 -32.5078c-0.0161822 -0.0281633 -0.0281994 -0.0577646 -0.036248 -0.0880417c-0.00882713 -0.0314853 -0.0135578 -0.0645238 -0.0135567 -0.0984817c0 -0.0642239 0.0169215 -0.12516 0.0464747 -0.178518
c0.031882 -0.059625 0.0799098 -0.111196 0.142002 -0.146677c0.0281633 -0.0161822 0.0577646 -0.0281994 0.0880417 -0.036248c0.0314853 -0.00882713 0.0645238 -0.0135578 0.0984817 -0.0135567h7.6875v-9.87891zM518.285 684.555v10.6289
c0 0.204102 -0.170898 0.375 -0.375 0.375h-7.41444l18.0434 31.3807l24.4795 -42.5712c0.0354811 -0.0620919 0.0870523 -0.11012 0.146677 -0.142002c0.0533584 -0.0295527 0.114295 -0.0464741 0.178518 -0.0464744h31.8906
c0.0339554 0 0.0669918 0.00473003 0.0984756 0.013555c0.030279 0.00804966 0.0598823 0.0200674 0.0880479 0.0362497c0.0620919 0.0354811 0.11012 0.0870523 0.142002 0.146677c0.0295527 0.0533584 0.0464741 0.114295 0.0464744 0.178518
c0 0.0339554 -0.00473003 0.0669918 -0.013555 0.0984756c-0.00804966 0.030279 -0.0200674 0.0598823 -0.0362497 0.0880479l-40.6427 70.6807l40.6427 70.6768c0.0161822 0.0281633 0.0281994 0.0577646 0.036248 0.0880417
c0.00882713 0.0314853 0.0135578 0.0645238 0.0135567 0.0984817c0 0.0642239 -0.0169215 0.12516 -0.0464747 0.178518c-0.031882 0.059625 -0.0799098 0.111196 -0.142002 0.146677c-0.0281633 0.0161822 -0.0577646 0.0281994 -0.0880417 0.036248
c-0.0314853 0.00882713 -0.0645238 0.0135578 -0.0984817 0.0135567h-31.8906c-0.0642239 0 -0.12516 -0.0169215 -0.178518 -0.0464747c-0.059625 -0.031882 -0.111196 -0.0799098 -0.146677 -0.142002l-24.4795 -42.5673l-24.4756 42.5673
c-0.0354811 0.0620919 -0.0870523 0.11012 -0.146677 0.142002c-0.0533584 0.0295527 -0.114295 0.0464741 -0.178518 0.0464744h-31.8906c-0.0339554 0 -0.0669918 -0.00473003 -0.0984756 -0.013555c-0.030279 -0.00804966 -0.0598823 -0.0200674 -0.0880479 -0.0362497
c-0.0620919 -0.0354811 -0.11012 -0.0870523 -0.142002 -0.146677c-0.0295527 -0.0533584 -0.0464741 -0.114295 -0.0464744 -0.178518c0 -0.0339554 0.00473003 -0.0669918 0.013555 -0.0984756c0.00804966 -0.030279 0.0200674 -0.0598823 0.0362497 -0.0880479
l40.6388 -70.6768l-40.6388 -70.6807c-0.0161822 -0.0281633 -0.0281994 -0.0577646 -0.036248 -0.0880417c-0.00882713 -0.0314853 -0.0135578 -0.0645238 -0.0135567 -0.0984817c0 -0.0642239 0.0169215 -0.12516 0.0464747 -0.178518
c0.031882 -0.059625 0.0799098 -0.111196 0.142002 -0.146677c0.0281633 -0.0161822 0.0577646 -0.0281994 0.0880417 -0.036248c0.0314853 -0.00882713 0.0645238 -0.0135578 0.0984817 -0.0135567h46.0625c0.204102 0 0.375 0.170898 0.375 0.375zM478.934 486.504
c-0.204102 0 -0.375 -0.170898 -0.375 -0.375v-28.3477c0 -0.204102 0.170898 -0.375 0.375 -0.375h55.622l-34.5986 -27.6768c-0.045721 -0.0367451 -0.0805654 -0.0827553 -0.103979 -0.133448c-0.0234442 -0.0486387 -0.0366441 -0.102798 -0.0366456 -0.159521v-28.3467
c0 -0.204102 0.170898 -0.375 0.375 -0.375h42.5234c7.61719 -0.00390625 13.7891 -6.17969 13.7891 -13.7969s-6.17188 -13.793 -13.7891 -13.8008h-35.4336c-1.7793 0 -3.48828 0.709961 -4.74609 1.96875c-1.25879 1.25781 -1.96875 2.96289 -1.96875 4.74609
l-0.000243898 0.0133458c0 0.0257298 -0.00414413 0.0516766 -0.0104983 0.0774746c-0.0225043 0.089576 -0.0771095 0.163999 -0.1485 0.214169c-0.0613838 0.0439392 -0.136038 0.0700112 -0.215758 0.070011l-0.0133458 -0.000243898
c-0.0257298 0 -0.0516766 -0.00414413 -0.0774746 -0.0104983l-27.6641 -6.91797c-0.135212 -0.0339696 -0.235898 -0.141081 -0.270762 -0.268659c-0.014763 -0.0538029 -0.00658156 -0.111362 -0.00658156 -0.168841c3.33594 -16.7539 18.041 -28.8174 35.1221 -28.8174
h35.4336c23.6875 0 42.8945 19.2031 42.8945 42.8945c0 23.3353 -18.6402 42.3215 -41.8411 42.8809l34.6106 27.6894c0.045721 0.0367451 0.0805654 0.0827553 0.103979 0.133448c0.0234442 0.0486387 0.0366441 0.102798 0.0366456 0.159521v28.3477
c0 0.204102 -0.170898 0.375 -0.375 0.375h-99.2109zM479.309 485.754h98.4609v-27.7922l-35.2891 -28.2322c-0.045721 -0.0367451 -0.0805654 -0.0827553 -0.103979 -0.133448c-0.0234442 -0.0486387 -0.0366441 -0.102798 -0.0366456 -0.159521
c0 -0.0361282 0.00535474 -0.0712161 0.0153007 -0.1045c0.0130056 -0.0462943 0.0351313 -0.0905574 0.0667305 -0.129875c0.0367451 -0.045721 0.0827553 -0.0805654 0.133448 -0.103979c0.0486387 -0.0234442 0.102798 -0.0366441 0.159521 -0.0366456
c23.2734 0 42.1445 -18.8701 42.1445 -42.1436c0 -23.2773 -18.8711 -42.1445 -42.1445 -42.1445h-35.4336c-16.6044 0 -30.9146 11.6436 -34.3142 27.8636l26.8646 6.71805c0.115882 -1.80764 0.887281 -3.51457 2.17223 -4.80042
c1.39844 -1.39746 3.29883 -2.1875 5.27734 -2.1875h35.4336c8.03125 0.0078125 14.5391 6.51953 14.5391 14.5508s-6.50781 14.543 -14.5391 14.5469h-42.1484v27.7912l35.293 28.2322c0.045721 0.0367451 0.0805654 0.0827553 0.103979 0.133448
c0.0234442 0.0486387 0.0366441 0.102798 0.0366456 0.159521c0 0.0361282 -0.00535474 0.0712161 -0.0153007 0.1045c-0.0130056 0.0462943 -0.0351313 0.0905574 -0.0667305 0.129875c-0.0367451 0.045721 -0.0827553 0.0805654 -0.133448 0.103979
c-0.0486387 0.0234442 -0.102798 0.0366441 -0.159521 0.0366456h-56.3164v27.5977zM472.223 288.078v27.5977h112.637v-27.8848l-56.5518 -113.096h-34.5957l56.4238 112.84c0.0109226 0.021729 0.0194671 0.0441216 0.0257365 0.0668655
c0.00930601 0.0322711 0.0143033 0.0662017 0.0143026 0.101103c0 0.0693261 -0.0197169 0.134822 -0.0537539 0.191091c-0.0352865 0.0602115 -0.0873445 0.111079 -0.153277 0.14387c-0.021729 0.0109226 -0.0441216 0.0194671 -0.0668655 0.0257365
c-0.0322711 0.00930601 -0.0662017 0.0143033 -0.101103 0.0143026h-77.5781zM471.473 287.703c0 -0.204102 0.170898 -0.375 0.375 -0.375h77.3467l-56.4238 -112.84c-0.0109226 -0.021729 -0.0194671 -0.0441216 -0.0257365 -0.0668655
c-0.00930601 -0.0322711 -0.0143033 -0.0662017 -0.0143026 -0.101103c0 -0.0693261 0.0197169 -0.134822 0.0537539 -0.191091c0.0352865 -0.0602115 0.0873445 -0.111079 0.153277 -0.14387c0.021729 -0.0109226 0.0441216 -0.0194671 0.0668655 -0.0257365
c0.0322711 -0.00930601 0.0662017 -0.0143033 0.101103 -0.0143026h35.4336c0.0693261 0 0.134822 0.0197169 0.191091 0.0537539c0.0602115 0.0352865 0.111079 0.0873445 0.14387 0.153277l56.6953 113.383c0.0109226 0.021729 0.0194671 0.0441216 0.0257365 0.0668655
c0.00930601 0.0322711 0.0143033 0.0662017 0.0143026 0.101103v28.3477c0 0.204102 -0.170898 0.375 -0.375 0.375h-113.387c-0.204102 0 -0.375 -0.170898 -0.375 -0.375v-28.3477zM315.941 344.023h113.387c0.204102 0 0.375 0.170898 0.375 0.375v28.3438
c0 0.204102 -0.170898 0.375 -0.375 0.375h-62.6569l51.5991 38.6974c0.0273028 0.0188733 0.052385 0.041638 0.0743198 0.0681907c7.34375 8.94238 11.3584 20.1553 11.3584 31.7266c0 11.377 -4.51953 22.2881 -12.5635 30.332
c-8.0459 8.04297 -18.9541 12.5625 -30.3311 12.5625h-21.2617c-24.887 0 -45.9781 -18.3077 -49.4816 -42.9433c-0.00502844 -0.0261553 -0.00647787 -0.0523736 -0.00647787 -0.0782768c0 -0.0764573 0.026913 -0.149369 0.0698375 -0.209867
c0.0501698 -0.0713632 0.124577 -0.125946 0.214131 -0.148444l27.8555 -6.96484c0.0257976 -0.00635408 0.051744 -0.00978106 0.0774734 -0.0104983l0.0133469 -0.000243935c0.0797195 0 0.154374 0.026072 0.215758 0.0700108
c0.0713905 0.0501703 0.125996 0.124593 0.1485 0.214169c0.00635408 0.0257976 0.00978106 0.051744 0.0104983 0.0774734l0.000243935 0.0133469c0 11.5352 9.34766 20.8828 20.8828 20.8828h21.2617c5.93652 0 11.2109 -3.79883 13.0898 -9.43457
c1.87793 -5.63281 -0.0615234 -11.8389 -4.80957 -15.4023l-79.3721 -59.5273c-0.0501875 -0.0373419 -0.0882209 -0.08565 -0.113316 -0.13939c-0.0237139 -0.0488684 -0.037076 -0.103343 -0.0370746 -0.160415v-28.3438c0 -0.204102 0.170898 -0.375 0.375 -0.375z
M316.316 344.773v27.7817l79.2217 59.4146c5.00781 3.75684 7.05273 10.3008 5.07129 16.2383c-1.98047 5.94238 -7.54199 9.94824 -13.8008 9.94824h-21.2617c-11.789 0 -21.3727 -9.42565 -21.6276 -21.1534l-27.066 6.76744
c3.58509 24.1073 24.2859 41.9836 48.6936 41.9836h21.2617c11.1777 0 21.8945 -4.44141 29.8018 -12.3438c7.90137 -7.90137 12.3428 -18.623 12.3428 -29.8008c0 -11.3835 -3.94442 -22.4153 -11.1619 -31.2176l-52.469 -39.3498
c-0.0501875 -0.0373419 -0.0882209 -0.08565 -0.113316 -0.13939c-0.0237139 -0.0488684 -0.037076 -0.103343 -0.0370746 -0.160415c0 -0.0414809 0.00705897 -0.0815903 0.0200198 -0.119173c0.01225 -0.0371608 0.0305693 -0.0728217 0.0551755 -0.105437
c0.0373419 -0.0501875 0.08565 -0.0882209 0.13939 -0.113316c0.0488684 -0.0237139 0.103343 -0.037076 0.160415 -0.0370746h63.4062v-27.5938h-112.637zM358.46 231.387l-0.00050354 3.25377e-007c-8.02246 -0.015625 -14.5186 -6.52344 -14.5186 -14.5469
s6.49512 -14.5352 14.5186 -14.5508l0.00050354 3.25377e-007l0.000473023 -3.25377e-007h28.3477l0.000473023 3.25377e-007l0.00050354 -3.25377e-007c8.02344 0.015625 14.5186 6.52734 14.5186 14.5508s-6.49512 14.5312 -14.5186 14.5469l-0.00050354 -3.25377e-007
l-0.000473023 3.25377e-007h-28.3477zM386.809 230.637c7.60891 -0.0161691 13.7695 -6.18783 13.7695 -13.7969c0 -7.60938 -6.16113 -13.7852 -13.7705 -13.8008h-28.3457l-0.00101019 1.05448e-006c-7.60891 0.0161695 -13.7695 6.19174 -13.7695 13.8008
c0 7.60938 6.16016 13.7812 13.7705 13.7969h28.3457zM202.555 89.6523c-7.62109 0 -13.7969 6.17969 -13.7969 13.8008s6.17578 13.7969 13.7969 13.7969h28.3477c7.62109 0 13.7969 -6.17578 13.7969 -13.7969s-6.17578 -13.8008 -13.7969 -13.8008h-28.3477z
M230.902 88.9023c8.03516 0 14.5469 6.51562 14.5469 14.5508s-6.51172 14.5469 -14.5469 14.5469h-28.3477c-8.03516 0 -14.5469 -6.51172 -14.5469 -14.5469s6.51172 -14.5508 14.5469 -14.5508h28.3477zM231.277 486.129c0 0.204102 -0.170898 0.375 -0.375 0.375
h-28.3477c-0.204102 0 -0.375 -0.170898 -0.375 -0.375v-141.73c0 -0.204102 0.170898 -0.375 0.375 -0.375h28.3477c0.204102 0 0.375 0.170898 0.375 0.375v141.73zM230.527 485.754v-140.98h-27.5977v140.98h27.5977zM259.625 316.051
c0 0.204102 -0.170898 0.375 -0.375 0.375h-99.2148c-0.204102 0 -0.375 -0.170898 -0.375 -0.375v-85.0391c0 -0.204102 0.170898 -0.375 0.375 -0.375h70.8662l0.00101019 -1.05447e-006c7.60891 -0.0161691 13.7695 -6.18783 13.7695 -13.7969
c0 -7.60938 -6.16113 -13.7852 -13.7705 -13.8008h-35.4326c-3.70703 0 -6.71094 3.00391 -6.71094 6.71094c0 0.00446495 -0.000243898 0.00891402 -0.000243898 0.0133458c0 0.0257298 -0.00414413 0.0516766 -0.0104983 0.0774746
c-0.0225043 0.089576 -0.0771095 0.163999 -0.1485 0.214169c-0.0613838 0.0439392 -0.136038 0.0700112 -0.215758 0.070011c-0.00446495 0 -0.00891402 -0.000243898 -0.0133458 -0.000243898c-0.0257298 0 -0.0516766 -0.00414413 -0.0774746 -0.0104983
l-27.6641 -6.91406c-0.135213 -0.0339696 -0.235898 -0.141081 -0.270762 -0.268659c-0.014763 -0.0538029 -0.00658154 -0.111362 -0.00658154 -0.168841c3.33203 -16.7539 18.0371 -28.8174 35.1182 -28.8174h35.4336c23.6797 0.015625 42.8672 19.2148 42.8672 42.8945
c0 23.6758 -19.1875 42.8789 -42.8672 42.8945h-42.1445v27.5938h70.4922c0.204102 0 0.375 0.170898 0.375 0.375v28.3477zM258.875 315.676v-27.5977h-70.4922c-0.204102 0 -0.375 -0.170898 -0.375 -0.375v-28.3438c0 -0.204102 0.170898 -0.375 0.375 -0.375h42.5195
c23.2656 -0.015625 42.1172 -18.8828 42.1172 -42.1445c0 -23.2656 -18.8516 -42.1289 -42.1172 -42.1445h-35.4336c-16.6043 0 -30.9146 11.6436 -34.3103 27.8636l26.8644 6.7142c0.245863 -3.89879 3.48506 -6.984 7.44595 -6.984h35.4336l0.000473023 3.25377e-007
l0.00050354 -3.25377e-007c8.02344 0.015625 14.5186 6.52734 14.5186 14.5508s-6.49512 14.5312 -14.5186 14.5469l-0.00050354 -3.25377e-007l-0.000473023 3.25377e-007h-70.4922v84.2891h98.4648zM159.999 826.658
c-0.0238493 0 -0.0477459 -0.00674828 -0.071385 -0.0138401c-0.0897421 -0.0267887 -0.162337 -0.0858294 -0.209108 -0.160696c-0.0369245 -0.0579323 -0.0584683 -0.126213 -0.0584697 -0.198679c0 -0.0121394 0.00178486 -0.0241614 0.00178486 -0.0360369
c0 -0.0238493 0.00674828 -0.0477459 0.0138401 -0.071385l42.5195 -141.73c0.0267887 -0.0897421 0.0858294 -0.162337 0.160696 -0.209108c0.0579323 -0.0369245 0.126213 -0.0584683 0.198679 -0.0584697h28.3477c0.0724672 0 0.140749 0.0215441 0.19868 0.0584705
c0.0748668 0.0467695 0.133907 0.119365 0.160695 0.209108l42.5195 141.73c0.00709196 0.0236399 0.0116517 0.0475372 0.0138404 0.0713874c0 0.0118748 0.00178463 0.0238959 0.00178463 0.0360345c0 0.0724672 -0.0215441 0.140749 -0.0584705 0.19868
c-0.0467695 0.0748668 -0.119365 0.133907 -0.209108 0.160695c-0.0236399 0.00709196 -0.0475372 0.0116517 -0.0713874 0.0138404c-0.0118748 0 -0.0238959 0.00178463 -0.0360345 0.00178463h-28.3477c-0.0724672 0 -0.140749 -0.0215441 -0.19868 -0.0584705
c-0.0748668 -0.0467695 -0.133907 -0.119365 -0.160695 -0.209108l-27.9844 -93.2903l-27.9883 93.2903c-0.0267887 0.0897421 -0.0858294 0.162337 -0.160696 0.209108c-0.0579323 0.0369245 -0.126213 0.0584683 -0.198679 0.0584697h-28.3477
c-0.0121394 0 -0.0241614 -0.00178486 -0.0360369 -0.00178486zM46.6484 32.9609c-7.61719 0 -13.7969 6.17969 -13.7969 13.7969c0 7.62109 6.17969 13.8008 13.7969 13.8008h28.3477c7.62109 0 13.7969 -6.17969 13.7969 -13.8008
c0 -7.61719 -6.17578 -13.7969 -13.7969 -13.7969h-28.3477zM74.9961 32.2109c8.03516 0 14.5469 6.51562 14.5469 14.5469c0 8.03516 -6.51172 14.5508 -14.5469 14.5508h-28.3477c-8.03125 0 -14.5469 -6.51562 -14.5469 -14.5508
c0 -8.03125 6.51562 -14.5469 14.5469 -14.5469h28.3477zM53.7383 89.6523c-7.62109 0 -13.7998 6.17969 -13.7998 13.8008s6.17871 13.7969 13.7998 13.7969h14.1719c7.62109 0 13.7969 -6.17578 13.7969 -13.7969s-6.17578 -13.8008 -13.7969 -13.8008h-14.1719z
M67.9102 88.9023c8.03516 0 14.5469 6.51562 14.5469 14.5508s-6.51172 14.5469 -14.5469 14.5469h-14.1719c-8.03516 0 -14.5498 -6.51172 -14.5498 -14.5469s6.51465 -14.5508 14.5498 -14.5508h14.1719zM53.7383 145.598h14.1719
c15.7275 0 30.1455 -8.75781 37.3975 -22.7119c7.25195 -13.958 6.12891 -30.7891 -2.91113 -43.6582c-0.0258728 -0.0368687 -0.0440341 -0.0772124 -0.0548312 -0.11896c-0.0292716 -0.112423 -0.00554869 -0.236202 0.0678186 -0.329457
c0.0177094 -0.0227136 0.0382637 -0.0435617 0.0615605 -0.0619347c13.3639 -11.4891 18.1678 -30.0786 12.0446 -46.6029c-6.12402 -16.5283 -21.8916 -27.501 -39.5195 -27.501h-28.3477c-17.6279 0 -33.3906 10.9727 -39.5156 27.501
c-6.12316 16.5243 -1.31929 35.1138 12.0407 46.6029c0.026933 0.0212294 0.0502004 0.0457423 0.0696439 0.0726105c0.0811914 0.111371 0.0946924 0.262107 0.0351905 0.385784c-0.00855409 0.0178809 -0.0186398 0.0352628 -0.0302879 0.0519599
c-9.03613 12.8691 -10.1592 29.7002 -2.90723 43.6582c7.25195 13.9541 21.6699 22.7119 37.3975 22.7119zM53.7383 146.348c-16.0068 0 -30.6826 -8.91406 -38.0635 -23.1162c-7.32873 -14.1057 -6.25399 -31.0941 2.76628 -44.1574
c-13.4125 -11.708 -18.2065 -30.5033 -12.0114 -47.2195c6.23438 -16.8232 22.2764 -27.9912 40.2188 -27.9912h28.3477c17.9424 0 33.9893 11.168 40.2227 27.9912c6.19509 16.7163 1.40108 35.5116 -12.0152 47.2195c9.02411 13.0633 10.0988 30.0517 2.77011 44.1574
c-7.38086 14.2021 -22.0566 23.1162 -38.0635 23.1162h-14.1719zM32.8516 429.437c0 15.4502 12.5234 27.9697 27.9727 27.9697s27.9688 -12.5195 27.9688 -27.9697v-28.3467c0 -15.4492 -12.5195 -27.9727 -27.9688 -27.9727s-27.9727 12.5234 -27.9727 27.9727v28.3467z
M32.1016 401.09c0 -15.8633 12.8594 -28.7227 28.7227 -28.7227s28.7188 12.8594 28.7188 28.7227v28.3467c0 15.8643 -12.8555 28.7197 -28.7188 28.7197s-28.7227 -12.8555 -28.7227 -28.7197v-28.3467zM4.50391 429.437
c0.0078125 31.0986 25.2188 56.3057 56.3203 56.3057c31.0977 0 56.3086 -25.207 56.3164 -56.3057v-28.3467c-0.0078125 -31.0977 -25.2188 -56.3047 -56.3164 -56.3047c-31.1016 0 -56.3125 25.207 -56.3203 56.3047v28.3467zM3.75391 401.09
c0.0078125 -31.5117 25.5547 -57.0547 57.0703 -57.0547c31.5117 0 57.0586 25.543 57.0664 57.0547v28.3467c-0.0078125 31.5127 -25.5547 57.0557 -57.0664 57.0557c-31.5156 0 -57.0625 -25.543 -57.0703 -57.0557v-28.3467zM96.6328 238.473v77.5781
c0 0.204102 -0.170898 0.375 -0.375 0.375h-28.3477c-0.055533 0 -0.108608 -0.0126517 -0.156452 -0.0351812c-0.0506312 -0.0228795 -0.0966738 -0.0572115 -0.133587 -0.102514l-63.7812 -77.9531c-0.0278935 -0.0339755 -0.0486706 -0.0717344 -0.0625329 -0.111362
c-0.0144938 -0.0395203 -0.0224296 -0.0819603 -0.0224281 -0.125943v-28.3477c0 -0.204102 0.170898 -0.375 0.375 -0.375h63.4062v-35.0547c0 -0.204102 0.170898 -0.375 0.375 -0.375h28.3477c0.204102 0 0.375 0.170898 0.375 0.375v35.0547h20.8828
c0.204102 0 0.375 0.170898 0.375 0.375v28.3477c0 0.204102 -0.170898 0.375 -0.375 0.375h-20.8828zM95.8828 238.098c0 -0.204102 0.170898 -0.375 0.375 -0.375h20.8828v-27.5977h-20.8828c-0.204102 0 -0.375 -0.170898 -0.375 -0.375v-35.0547h-27.5977v35.0547
c0 0.204102 -0.170898 0.375 -0.375 0.375h-63.4062l-8.88178e-016 27.8392l63.5836 77.7116h27.7953v-77.5781zM32.6677 656.528c-0.0562689 0.0340381 -0.121765 0.0537552 -0.191092 0.0537543h-28.3477c-0.0349002 0 -0.0688295 -0.0049969 -0.1011 -0.0143016
c-0.0227449 -0.00627019 -0.0451387 -0.014815 -0.0668689 -0.0257375c-0.0659336 -0.0327905 -0.117991 -0.0836577 -0.153277 -0.143869c-0.0340381 -0.0562689 -0.0537552 -0.121765 -0.0537543 -0.191092c0 -0.0349002 0.0049969 -0.0688295 0.0143016 -0.1011
c0.00627019 -0.0227449 0.014815 -0.0451387 0.0257375 -0.0668689l42.4795 -84.959v-56.6035c0 -0.204102 0.170898 -0.375 0.375 -0.375h28.3477c0.204102 0 0.375 0.170898 0.375 0.375v56.6035l42.4795 84.959
c0.0109226 0.021729 0.0194671 0.0441216 0.0257365 0.0668655c0.00930601 0.0322711 0.0143033 0.0662017 0.0143026 0.101103c0 0.0693261 -0.0197169 0.134822 -0.0537539 0.191091c-0.0352865 0.0602115 -0.0873445 0.111079 -0.153277 0.14387
c-0.021729 0.0109226 -0.0441216 0.0194671 -0.0668655 0.0257365c-0.0322711 0.00930601 -0.0662017 0.0143033 -0.101103 0.0143026h-28.3477c-0.0693261 0 -0.134822 -0.0197169 -0.191091 -0.0537539c-0.0602115 -0.0352865 -0.111079 -0.0873445 -0.14387 -0.153277
l-28.0088 -56.0215l-28.0127 56.0215c-0.0327905 0.0659336 -0.0836577 0.117991 -0.143869 0.153277zM4.12891 826.66c-0.204102 0 -0.375 -0.170898 -0.375 -0.375v-85.0391c0.0078125 -31.5117 25.5547 -57.0547 57.0703 -57.0547
c31.5117 0 57.0586 25.543 57.0664 57.0547v85.0391c0 0.204102 -0.170898 0.375 -0.375 0.375h-28.3477c-0.204102 0 -0.375 -0.170898 -0.375 -0.375v-85.0391c0 -15.4453 -12.5195 -27.9688 -27.9688 -27.9688s-27.9727 12.5234 -27.9727 27.9688v85.0391
c0 0.204102 -0.170898 0.375 -0.375 0.375h-28.3477zM4.50391 825.91h27.5977v-84.6641c0 -15.8594 12.8594 -28.7188 28.7227 -28.7188s28.7188 12.8594 28.7188 28.7188v84.6641h27.5977v-84.6641c-0.0078125 -31.0977 -25.2188 -56.3047 -56.3164 -56.3047
c-31.1016 0 -56.3125 25.207 -56.3203 56.3047v84.6641z" />
  </g>

</svg>
