  0
SECTION
  2
HEADER
  9
$ACADVER
  1
AC1009
  9
$INSBASE
 10
0
 20
0
 30
0
  9
$EXTMIN
 10
0
 20
0
  9
$EXTMAX
 10
297
 20
210
  9
$LIMMIN
 10
0
 20
0
  9
$LIMMAX
 10
297
 20
210
  9
$LTSCALE
 40
1
  0
ENDSEC
  0
SECTION
  2
TABLES
  0
TABLE
  2
LTYPE
 70
     9
  0
LTYPE
  2
CONTINUOUS
 70
    64
  3
実線
 72
    65
 73
     0
 40
0.0
  0
LTYPE
  2
DASHED1
 70
    64
  3
--  --  --  --  --  --  --  --  
 72
    65
 73
     2
 40
2.5
 49
1.25
 49
-1.25
  0
LTYPE
  2
DASHED2
 70
    64
  3
----    ----    ----    ----    
 72
    65
 73
     2
 40
5.0
 49
2.5
 49
-2.5
  0
LTYPE
  2
DASHED3
 70
    64
  3
------  ------  ------  ------  
 72
    65
 73
     2
 40
5.0
 49
3.75
 49
-1.25
  0
LTYPE
  2
CENTER1
 70
    64
  3
----- - ----- - ----- - ----- - 
 72
    65
 73
     4
 40
10.0
 49
6.25
 49
-1.25
 49
1.25
 49
-1.25
  0
LTYPE
  2
CENTER2
 70
    64
  3
----------  --  ----------  --  
 72
    65
 73
     4
 40
20.0
 49
12.5
 49
-2.5
 49
2.5
 49
-2.5
  0
LTYPE
  2
PHANTOM1
 70
    64
  3
--- - - --- - - --- - - --- - - 
 72
    65
 73
     6
 40
10.0
 49
3.25
 49
-1.25
 49
1.25
 49
-1.25
 49
1.25
 49
-1.25
  0
LTYPE
  2
PHANTOM2
 70
    64
  3
--------  -  -  --------  -  -  
 72
    65
 73
     6
 40
20.0
 49
10.0
 49
-2.5
 49
1.25
 49
-2.5
 49
1.25
 49
-2.5
  0
LTYPE
  2
DOT
 70
    64
  3
-   -   -   -   -   -   -   -   
 72
    65
 73
     2
 40
2.5
 49
0.625
 49
-1.875
  0
LTYPE
  2
DUMMY
 70
    64
  3
ダミー
 72
    65
 73
     0
 40
0.0
  0
LTYPE
  2
RAND1
 70
    64
  3
ランダム線1
 72
    65
 73
     4
 40
10.0
 49
1.0
 49
-2.0
 49
3.0
 49
-4.0
  0
LTYPE
  2
RAND2
 70
    64
  3
ランダム線2
 72
    65
 73
     4
 40
14.0
 49
2.0
 49
-3.0
 49
4.0
 49
-5.0
  0
LTYPE
  2
RAND3
 70
    64
  3
ランダム線3
 72
    65
 73
     4
 40
18.0
 49
3.0
 49
-4.0
 49
5.0
 49
-6.0
  0
LTYPE
  2
RAND4
 70
    64
  3
ランダム線4
 72
    65
 73
     4
 40
22.0
 49
4.0
 49
-5.0
 49
6.0
 49
-7.0
  0
LTYPE
  2
RAND5
 70
    64
  3
ランダム線5
 72
    65
 73
     4
 40
26.0
 49
5.0
 49
-6.0
 49
7.0
 49
-8.0
  0
LTYPE
  2
LONG1
 70
    64
  3
----------  --  ----------  --  
 72
    65
 73
     4
 40
40.0
 49
32.5
 49
-2.5
 49
2.5
 49
-2.5
  0
LTYPE
  2
LONG2
 70
    64
  3
--------  -  -  --------  -  -  
 72
    65
 73
     6
 40
40.0
 49
30.0
 49
-2.5
 49
1.25
 49
-2.5
 49
1.25
 49
-2.5
  0
LTYPE
  2
LONG3
 70
    64
  3
+++++++++++++++..+++++++++++++++
 72
    65
 73
     2
 40
40.0
 49
37.5
 49
-2.5
  0
LTYPE
  2
LONG4
 70
    64
  3
+++++++++++++++..+++++++++++++++
 72
    65
 73
     2
 40
80.0
 49
75.0
 49
-5.0
  0
LTYPE
  2
LONG5
 70
    64
  3
----------  --  ----------  --  
 72
    65
 73
     4
 40
60.0
 49
37.5
 49
-7.5
 49
7.5
 49
-7.5
  0
LTYPE
  2
dashed
 70
   64
  3
-------   -------------   ------
 72
   65
 73
    2
 40
7.5
 49
6
 49
-1.5
  0
LTYPE
  2
dashed_spaced
 70
   64
  3
----        --------        ----
 72
   65
 73
    2
 40
12
 49
6
 49
-6
  0
LTYPE
  2
long_dashed_dotted
 70
   64
  3
------------- --- --------------
 72
   65
 73
    4
 40
15.25
 49
12
 49
-1.5
 49
0.25
 49
-1.5
  0
LTYPE
  2
long_dashed_double-dotted
 70
   64
  3
----------- --- --- ------------
 72
   65
 73
    6
 40
17
 49
12
 49
-1.5
 49
0.25
 49
-1.5
 49
0.25
 49
-1.5
  0
LTYPE
  2
long_dashed_triplicate-dotted
 70
   64
  3
--------- --- --- --- ----------
 72
   65
 73
    8
 40
18.75
 49
12
 49
-1.5
 49
0.25
 49
-1.5
 49
0.25
 49
-1.5
 49
0.25
 49
-1.5
  0
LTYPE
  2
dotted
 70
   64
  3
   -       -       -       -    
 72
   65
 73
    2
 40
1.75
 49
0.25
 49
-1.5
  0
LTYPE
  2
chain
 70
   64
  3
-------------- -- --------------
 72
   65
 73
    4
 40
18.5
 49
12
 49
-1.5
 49
3.5
 49
-1.5
  0
LTYPE
  2
chain_double_dash
 70
   64
  3
------------ -- -- -------------
 72
   65
 73
    6
 40
23.5
 49
12
 49
-1.5
 49
3.5
 49
-1.5
 49
3.5
 49
-1.5
  0
LTYPE
  2
dashed_dotted
 70
   64
  3
-----------     -     ----------
 72
   65
 73
    4
 40
9.25
 49
6
 49
-1.5
 49
0.25
 49
-1.5
  0
LTYPE
  2
double-dashed_dotted
 70
   64
  3
------   -----------   -   -----
 72
   65
 73
    6
 40
16.75
 49
6
 49
-1.5
 49
6
 49
-1.5
 49
0.25
 49
-1.5
  0
LTYPE
  2
dashed_double-dotted
 70
   64
  3
---------    -    -    ---------
 72
   65
 73
    6
 40
11
 49
6
 49
-1.5
 49
0.25
 49
-1.5
 49
0.25
 49
-1.5
  0
LTYPE
  2
double-dashed_double-dotted
 70
   64
  3
-----   ---------   -   -   ----
 72
   65
 73
    8
 40
18.5
 49
6
 49
-1.5
 49
6
 49
-1.5
 49
0.25
 49
-1.5
 49
0.25
 49
-1.5
  0
LTYPE
  2
dashed_triplicate-dotted
 70
   64
  3
-------    -    -    -    ------
 72
   65
 73
    8
 40
12.75
 49
6
 49
-1.5
 49
0.25
 49
-1.5
 49
0.25
 49
-1.5
 49
0.25
 49
-1.5
  0
LTYPE
  2
double-dashed_triplicate-dotted
 70
   64
  3
-----  ---------  -  -  -  -----
 72
   65
 73
   10
 40
20.25
 49
6
 49
-1.5
 49
6
 49
-1.5
 49
0.25
 49
-1.5
 49
0.25
 49
-1.5
 49
0.25
 49
-1.5
  0
LTYPE
  2
undefined
 70
   64
  3
--------------------------------
 72
   65
 73
    0
 40
0
  0
LTYPE
  2
_
 70
   64
  3
                                
 72
   65
 73
    0
 40
0
  0
LTYPE
  2
__18
 70
   64
  3
                                
 72
   65
 73
    0
 40
0
  0
LTYPE
  2
__19
 70
   64
  3
                                
 72
   65
 73
    0
 40
0
  0
LTYPE
  2
__20
 70
   64
  3
                                
 72
   65
 73
    0
 40
0
  0
LTYPE
  2
__21
 70
   64
  3
                                
 72
   65
 73
    0
 40
0
  0
LTYPE
  2
__22
 70
   64
  3
                                
 72
   65
 73
    0
 40
0
  0
LTYPE
  2
__23
 70
   64
  3
                                
 72
   65
 73
    0
 40
0
  0
LTYPE
  2
__24
 70
   64
  3
                                
 72
   65
 73
    0
 40
0
  0
LTYPE
  2
__25
 70
   64
  3
                                
 72
   65
 73
    0
 40
0
  0
LTYPE
  2
__26
 70
   64
  3
                                
 72
   65
 73
    0
 40
0
  0
LTYPE
  2
__27
 70
   64
  3
                                
 72
   65
 73
    0
 40
0
  0
LTYPE
  2
__28
 70
   64
  3
                                
 72
   65
 73
    0
 40
0
  0
LTYPE
  2
__29
 70
   64
  3
                                
 72
   65
 73
    0
 40
0
  0
LTYPE
  2
__30
 70
   64
  3
                                
 72
   65
 73
    0
 40
0
  0
LTYPE
  2
__31
 70
   64
  3
                                
 72
   65
 73
    0
 40
0
  0
LTYPE
  2
__32
 70
   64
  3
                                
 72
   65
 73
    0
 40
0
  0
ENDTAB
  0
TABLE
  2
STYLE
  5
3
100
AcDbSymbolTable
 70
     1
  0
STYLE
  5
10
100
AcDbSymbolTableRecord
100
AcDbTextStyleTableRecord
  2
STANDARD
 70
     0
 40
0.0
 41
1.0
 50
0.0
 71
     0
 42
0.2
  3
txt
  4
bigfont.shx
  0
STYLE
  5
26
100
AcDbSymbolTableRecord
100
AcDbTextStyleTableRecord
  2
TATEGAKI
 70
    68
 40
0.0
 41
1.0
 50
0.0
 71
     0
 42
1.0
  3
txt
  4
bigfont.shx
  0
ENDTAB
  0
TABLE
  2
LAYER
 70
    3
  0
LAYER
  2
_0-0_
 70
   64
 62
    7
  6
CONTINUOUS
  0
LAYER
  2
_0-3_
 70
   64
 62
    7
  6
CONTINUOUS
  0
LAYER
  2
ADD_LINE
 70
   64
 62
    7
  6
CONTINUOUS
  0
ENDTAB
  0
ENDSEC
  0
SECTION
  2
BLOCKS
  0
ENDSEC
  0
SECTION
  2
ENTITIES
  0
LINE
  8
_0-3_
  6
CONTINUOUS
 62
    7
 10
128.5
 20
245
 11
128.5
 21
185
  0
LINE
  8
_0-3_
  6
CONTINUOUS
 62
    7
 10
128.5
 20
175
 11
128.5
 21
115
  0
LINE
  8
_0-3_
  6
CONTINUOUS
 62
    7
 10
138.5
 20
150
 11
138.5
 21
165
  0
LINE
  8
_0-3_
  6
CONTINUOUS
 62
    7
 10
138.5
 20
140
 11
138.5
 21
125
  0
LINE
  8
_0-3_
  6
CONTINUOUS
 62
    7
 10
128.5
 20
105
 11
128.5
 21
45
  0
LINE
  8
_0-3_
  6
CONTINUOUS
 62
    7
 10
128.5
 20
45
 11
138.5
 21
45
  0
LINE
  8
_0-3_
  6
CONTINUOUS
 62
    7
 10
138.5
 20
45
 11
138.5
 21
70
  0
LINE
  8
_0-3_
  6
CONTINUOUS
 62
    7
 10
138.5
 20
80
 11
138.5
 21
105
  0
LINE
  8
_0-3_
  6
CONTINUOUS
 62
    7
 10
138.5
 20
105
 11
128.5
 21
105
  0
LINE
  8
_0-3_
  6
CONTINUOUS
 62
    7
 10
128.5
 20
35
 11
128.5
 21
-25
  0
LINE
  8
_0-3_
  6
CONTINUOUS
 62
    7
 10
128.5
 20
-25
 11
138.5
 21
-25
  0
LINE
  8
_0-3_
  6
CONTINUOUS
 62
    7
 10
128.5
 20
35
 11
138.5
 21
35
  0
LINE
  8
_0-3_
  6
CONTINUOUS
 62
    7
 10
58.5
 20
185
 11
68.80776406404415
 21
185
  0
ARC
  8
_0-3_
  6
CONTINUOUS
 62
    7
 10
76
 20
87.5
 40
7.5
 50
90
 51
180
  0
ARC
  8
_0-3_
  6
CONTINUOUS
 62
    7
 10
76
 20
87.5
 40
17.5
 50
90
 51
180
  0
LINE
  8
_0-3_
  6
CONTINUOUS
 62
    7
 10
68.5
 20
62.5
 11
68.5
 21
87.5
  0
ARC
  8
_0-3_
  6
CONTINUOUS
 62
    7
 10
76
 20
62.5
 40
7.5
 50
180
 51
270
  0
LINE
  8
_0-3_
  6
CONTINUOUS
 62
    7
 10
58.5
 20
87.5
 11
58.5
 21
62.5
  0
ARC
  8
_0-3_
  6
CONTINUOUS
 62
    7
 10
76
 20
62.5
 40
17.5
 50
180
 51
270
  0
LINE
  8
_0-3_
  6
CONTINUOUS
 62
    7
 10
58.5
 20
-5
 11
68.5
 21
-5
  0
LINE
  8
_0-3_
  6
CONTINUOUS
 62
    7
 10
63.5
 20
35
 11
63.5
 21
25
  0
LINE
  8
_0-3_
  6
CONTINUOUS
 62
    7
 10
208.5
 20
35
 11
198.5
 21
35
  0
LINE
  8
_0-3_
  6
CONTINUOUS
 62
    7
 10
208.5
 20
-15
 11
208.5
 21
35
  0
LINE
  8
_0-3_
  6
CONTINUOUS
 62
    7
 10
198.5
 20
35
 11
198.5
 21
-25
  0
LINE
  8
_0-3_
  6
CONTINUOUS
 62
    7
 10
208.5
 20
150
 11
208.5
 21
165
  0
LINE
  8
_0-3_
  6
CONTINUOUS
 62
    7
 10
208.5
 20
115
 11
208.5
 21
140
  0
LINE
  8
_0-3_
  6
CONTINUOUS
 62
    7
 10
198.5
 20
115
 11
208.5
 21
115
  0
LINE
  8
_0-3_
  6
CONTINUOUS
 62
    7
 10
198.5
 20
175
 11
198.5
 21
115
  0
ARC
  8
_0-3_
  6
CONTINUOUS
 62
    7
 10
216
 20
202.5
 40
17.5
 50
180
 51
270
  0
LINE
  8
_0-3_
  6
CONTINUOUS
 62
    7
 10
198.5
 20
227.5
 11
198.5
 21
202.5
  0
ARC
  8
_0-3_
  6
CONTINUOUS
 62
    7
 10
216
 20
202.5
 40
7.5
 50
180
 51
270
  0
LINE
  8
_0-3_
  6
CONTINUOUS
 62
    7
 10
208.5
 20
202.5
 11
208.5
 21
227.5
  0
ARC
  8
_0-3_
  6
CONTINUOUS
 62
    7
 10
216
 20
227.5
 40
17.5
 50
90
 51
180
  0
ARC
  8
_0-3_
  6
CONTINUOUS
 62
    7
 10
216
 20
227.5
 40
7.5
 50
90
 51
180
  0
LINE
  8
_0-3_
  6
CONTINUOUS
 62
    7
 10
243.5
 20
-15
 11
208.5
 21
-15
  0
LINE
  8
_0-3_
  6
CONTINUOUS
 62
    7
 10
243.5
 20
-25
 11
243.5
 21
-15
  0
LINE
  8
_0-3_
  6
CONTINUOUS
 62
    7
 10
198.5
 20
-25
 11
243.5
 21
-25
  0
LINE
  8
_0-3_
  6
CONTINUOUS
 62
    7
 10
233.5
 20
150
 11
208.5
 21
150
  0
LINE
  8
_0-3_
  6
CONTINUOUS
 62
    7
 10
233.5
 20
140
 11
233.5
 21
150
  0
LINE
  8
_0-3_
  6
CONTINUOUS
 62
    7
 10
208.5
 20
140
 11
233.5
 21
140
  0
LINE
  8
_0-3_
  6
CONTINUOUS
 62
    7
 10
243.5
 20
165
 11
208.5
 21
165
  0
LINE
  8
_0-3_
  6
CONTINUOUS
 62
    7
 10
243.5
 20
175
 11
243.5
 21
165
  0
LINE
  8
_0-3_
  6
CONTINUOUS
 62
    7
 10
198.5
 20
175
 11
243.5
 21
175
  0
LINE
  8
_0-3_
  6
CONTINUOUS
 62
    7
 10
216
 20
185
 11
226
 21
185
  0
ARC
  8
_0-3_
  6
CONTINUOUS
 62
    7
 10
226
 20
202.5
 40
17.5
 50
270
 51
0
  0
LINE
  8
_0-3_
  6
CONTINUOUS
 62
    7
 10
243.5
 20
205
 11
243.5
 21
202.5
  0
LINE
  8
_0-3_
  6
CONTINUOUS
 62
    7
 10
216
 20
195
 11
226
 21
195
  0
ARC
  8
_0-3_
  6
CONTINUOUS
 62
    7
 10
226
 20
202.5
 40
7.5
 50
270
 51
0
  0
LINE
  8
_0-3_
  6
CONTINUOUS
 62
    7
 10
233.5
 20
202.5
 11
233.5
 21
205
  0
LINE
  8
_0-3_
  6
CONTINUOUS
 62
    7
 10
216
 20
235
 11
226
 21
235
  0
ARC
  8
_0-3_
  6
CONTINUOUS
 62
    7
 10
226
 20
227.5
 40
17.5
 50
0
 51
90
  0
LINE
  8
_0-3_
  6
CONTINUOUS
 62
    7
 10
243.5
 20
225
 11
243.5
 21
227.5
  0
LINE
  8
_0-3_
  6
CONTINUOUS
 62
    7
 10
233.5
 20
227.5
 11
233.5
 21
225
  0
ARC
  8
_0-3_
  6
CONTINUOUS
 62
    7
 10
226
 20
227.5
 40
7.5
 50
0
 51
90
  0
LINE
  8
_0-3_
  6
CONTINUOUS
 62
    7
 10
216
 20
245
 11
226
 21
245
  0
LINE
  8
_0-3_
  6
CONTINUOUS
 62
    7
 10
233.5
 20
225
 11
243.5
 21
225
  0
LINE
  8
_0-3_
  6
CONTINUOUS
 62
    7
 10
233.5
 20
205
 11
243.5
 21
205
  0
LINE
  8
_0-3_
  6
CONTINUOUS
 62
    7
 10
128.5
 20
175
 11
173.5
 21
175
  0
LINE
  8
_0-3_
  6
CONTINUOUS
 62
    7
 10
173.5
 20
175
 11
173.5
 21
165
  0
LINE
  8
_0-3_
  6
CONTINUOUS
 62
    7
 10
173.5
 20
165
 11
138.5
 21
165
  0
LINE
  8
_0-3_
  6
CONTINUOUS
 62
    7
 10
128.5
 20
115
 11
173.5
 21
115
  0
LINE
  8
_0-3_
  6
CONTINUOUS
 62
    7
 10
173.5
 20
115
 11
173.5
 21
125
  0
LINE
  8
_0-3_
  6
CONTINUOUS
 62
    7
 10
173.5
 20
125
 11
138.5
 21
125
  0
LINE
  8
_0-3_
  6
CONTINUOUS
 62
    7
 10
138.5
 20
140
 11
163.5
 21
140
  0
LINE
  8
_0-3_
  6
CONTINUOUS
 62
    7
 10
163.5
 20
140
 11
163.5
 21
150
  0
LINE
  8
_0-3_
  6
CONTINUOUS
 62
    7
 10
163.5
 20
150
 11
138.5
 21
150
  0
LINE
  8
_0-3_
  6
CONTINUOUS
 62
    7
 10
138.5
 20
70
 11
163.5
 21
70
  0
LINE
  8
_0-3_
  6
CONTINUOUS
 62
    7
 10
163.5
 20
70
 11
163.5
 21
45
  0
LINE
  8
_0-3_
  6
CONTINUOUS
 62
    7
 10
163.5
 20
45
 11
173.5
 21
45
  0
LINE
  8
_0-3_
  6
CONTINUOUS
 62
    7
 10
173.5
 20
45
 11
173.5
 21
105
  0
LINE
  8
_0-3_
  6
CONTINUOUS
 62
    7
 10
173.5
 20
105
 11
163.5
 21
105
  0
LINE
  8
_0-3_
  6
CONTINUOUS
 62
    7
 10
163.5
 20
105
 11
163.5
 21
80
  0
LINE
  8
_0-3_
  6
CONTINUOUS
 62
    7
 10
163.5
 20
80
 11
138.5
 21
80
  0
LINE
  8
_0-3_
  6
CONTINUOUS
 62
    7
 10
103.5
 20
35
 11
103.5
 21
25
  0
LINE
  8
_0-3_
  6
CONTINUOUS
 62
    7
 10
103.5
 20
25
 11
96
 21
25
  0
LINE
  8
_0-3_
  6
CONTINUOUS
 62
    7
 10
63.5
 20
25
 11
86
 21
25
  0
LINE
  8
_0-3_
  6
CONTINUOUS
 62
    7
 10
63.5
 20
35
 11
103.5
 21
35
  0
LINE
  8
_0-3_
  6
CONTINUOUS
 62
    7
 10
93.5
 20
85
 11
103.5
 21
85
  0
LINE
  8
_0-3_
  6
CONTINUOUS
 62
    7
 10
76
 20
105
 11
86
 21
105
  0
ARC
  8
_0-3_
  6
CONTINUOUS
 62
    7
 10
86
 20
87.5
 40
7.5
 50
0
 51
90
  0
LINE
  8
_0-3_
  6
CONTINUOUS
 62
    7
 10
93.5
 20
87.5
 11
93.5
 21
85
  0
LINE
  8
_0-3_
  6
CONTINUOUS
 62
    7
 10
103.5
 20
85
 11
103.5
 21
87.5
  0
ARC
  8
_0-3_
  6
CONTINUOUS
 62
    7
 10
86
 20
87.5
 40
17.5
 50
0
 51
90
  0
LINE
  8
_0-3_
  6
CONTINUOUS
 62
    7
 10
76
 20
95
 11
86
 21
95
  0
ARC
  8
_0-3_
  6
CONTINUOUS
 62
    7
 10
86
 20
62.5
 40
7.5
 50
270
 51
0
  0
LINE
  8
_0-3_
  6
CONTINUOUS
 62
    7
 10
76
 20
55
 11
86
 21
55
  0
ARC
  8
_0-3_
  6
CONTINUOUS
 62
    7
 10
86
 20
62.5
 40
17.5
 50
270
 51
0
  0
LINE
  8
_0-3_
  6
CONTINUOUS
 62
    7
 10
76
 20
45
 11
86
 21
45
  0
LINE
  8
_0-3_
  6
CONTINUOUS
 62
    7
 10
83.5
 20
75
 11
103.5
 21
75
  0
LINE
  8
_0-3_
  6
CONTINUOUS
 62
    7
 10
103.5
 20
75
 11
103.5
 21
62.5
  0
LINE
  8
_0-3_
  6
CONTINUOUS
 62
    7
 10
83.5
 20
75
 11
83.5
 21
66.25
  0
LINE
  8
_0-3_
  6
CONTINUOUS
 62
    7
 10
83.5
 20
66.25
 11
93.5
 21
66.25
  0
LINE
  8
_0-3_
  6
CONTINUOUS
 62
    7
 10
93.5
 20
62.5
 11
93.5
 21
66.25
  0
LINE
  8
_0-3_
  6
CONTINUOUS
 62
    7
 10
93.19223593595585
 20
185
 11
103.5
 21
185
  0
LINE
  8
_0-3_
  6
CONTINUOUS
 62
    7
 10
81
 20
227.85714285714286
 11
74.333333333333329
 21
205
  0
LINE
  8
_0-3_
  6
CONTINUOUS
 62
    7
 10
74.333333333333329
 20
205
 11
87.666666666666671
 21
205
  0
LINE
  8
_0-3_
  6
CONTINUOUS
 62
    7
 10
81
 20
227.85714285714286
 11
87.666666666666671
 21
205
  0
LINE
  8
_0-3_
  6
CONTINUOUS
 62
    7
 10
90.583333333333343
 20
195
 11
93.5
 21
185
  0
LINE
  8
_0-3_
  6
CONTINUOUS
 62
    7
 10
71.416666666666671
 20
195
 11
90.583333333333343
 21
195
  0
LINE
  8
_0-3_
  6
CONTINUOUS
 62
    7
 10
71.416666666666671
 20
195
 11
68.5
 21
185
  0
LINE
  8
_0-3_
  6
CONTINUOUS
 62
    7
 10
76
 20
245
 11
58.5
 21
185
  0
LINE
  8
_0-3_
  6
CONTINUOUS
 62
    7
 10
76
 20
245
 11
86
 21
245
  0
LINE
  8
_0-3_
  6
CONTINUOUS
 62
    7
 10
86
 20
245
 11
103.5
 21
185
  0
LINE
  8
_0-3_
  6
CONTINUOUS
 62
    7
 10
128.5
 20
245
 11
156
 21
245
  0
LINE
  8
_0-3_
  6
CONTINUOUS
 62
    7
 10
138.5
 20
235
 11
156
 21
235
  0
ARC
  8
_0-3_
  6
CONTINUOUS
 62
    7
 10
156
 20
227.5
 40
7.5
 50
270
 51
90
  0
ARC
  8
_0-3_
  6
CONTINUOUS
 62
    7
 10
156
 20
227.5
 40
17.5
 50
314.41530859719296
 51
90
  0
LINE
  8
_0-3_
  6
CONTINUOUS
 62
    7
 10
138.5
 20
195
 11
156
 21
195
  0
ARC
  8
_0-3_
  6
CONTINUOUS
 62
    7
 10
156
 20
202.5
 40
7.5
 50
270
 51
90
  0
LINE
  8
_0-3_
  6
CONTINUOUS
 62
    7
 10
138.5
 20
195
 11
138.5
 21
210
  0
LINE
  8
_0-3_
  6
CONTINUOUS
 62
    7
 10
138.5
 20
210
 11
156
 21
210
  0
LINE
  8
_0-3_
  6
CONTINUOUS
 62
    7
 10
138.5
 20
220
 11
156
 21
220
  0
LINE
  8
_0-3_
  6
CONTINUOUS
 62
    7
 10
138.5
 20
235
 11
138.5
 21
220
  0
ARC
  8
_0-3_
  6
CONTINUOUS
 62
    7
 10
156
 20
202.5
 40
17.5
 50
270
 51
45.584691402807039
  0
LINE
  8
_0-3_
  6
CONTINUOUS
 62
    7
 10
128.5
 20
185
 11
156
 21
185
  0
LINE
  8
_0-3_
  6
CONTINUOUS
 62
    7
 10
86
 20
25
 11
86
 21
-6.25
  0
LINE
  8
_0-3_
  6
CONTINUOUS
 62
    7
 10
96
 20
25
 11
96
 21
-6.25
  0
LINE
  8
_0-3_
  6
CONTINUOUS
 62
    7
 10
68.5
 20
-5
 11
68.5
 21
-6.25
  0
LINE
  8
_0-3_
  6
CONTINUOUS
 62
    7
 10
58.5
 20
-6.25
 11
58.5
 21
-5
  0
ARC
  8
_0-3_
  6
CONTINUOUS
 62
    7
 10
77.25
 20
-6.25
 40
8.75
 50
180
 51
0
  0
ARC
  8
_0-3_
  6
CONTINUOUS
 62
    7
 10
77.25
 20
-6.25
 40
18.75
 50
180
 51
0
  0
LINE
  8
_0-3_
  6
CONTINUOUS
 62
    7
 10
161
 20
35
 11
173.5
 21
35
  0
LINE
  8
_0-3_
  6
CONTINUOUS
 62
    7
 10
138.5
 20
35
 11
138.5
 21
10.454545454545453
  0
LINE
  8
_0-3_
  6
CONTINUOUS
 62
    7
 10
161
 20
35
 11
138.5
 21
10.454545454545453
  0
LINE
  8
_0-3_
  6
CONTINUOUS
 62
    7
 10
138.5
 20
-3.181818181818187
 11
138.5
 21
-25
  0
LINE
  8
_0-3_
  6
CONTINUOUS
 62
    7
 10
161
 20
-25
 11
173.5
 21
-25
  0
LINE
  8
_0-3_
  6
CONTINUOUS
 62
    7
 10
141.875
 20
0.4999999999999857
 11
138.5
 21
-3.181818181818187
  0
LINE
  8
_0-3_
  6
CONTINUOUS
 62
    7
 10
161
 20
-25
 11
141.875
 21
0.4999999999999857
  0
LINE
  8
_0-3_
  6
CONTINUOUS
 62
    7
 10
173.5
 20
-25
 11
148.75
 21
8
  0
LINE
  8
_0-3_
  6
CONTINUOUS
 62
    7
 10
173.5
 20
35
 11
148.75
 21
8
  0
LINE
  8
_0-3_
  6
CONTINUOUS
 62
    7
 10
216
 20
45
 11
216
 21
105
  0
LINE
  8
_0-3_
  6
CONTINUOUS
 62
    7
 10
226
 20
45
 11
216
 21
45
  0
LINE
  8
_0-3_
  6
CONTINUOUS
 62
    7
 10
226
 20
105
 11
226
 21
45
  0
LINE
  8
_0-3_
  6
CONTINUOUS
 62
    7
 10
216
 20
105
 11
226
 21
105
  0
ARC
  8
_0-3_
  6
CONTINUOUS
 62
    7
 10
83.5
 20
155
 40
10
 50
0
 51
90
  0
LINE
  8
_0-3_
  6
CONTINUOUS
 62
    7
 10
93.5
 20
155
 11
93.5
 21
135
  0
ARC
  8
_0-3_
  6
CONTINUOUS
 62
    7
 10
83.5
 20
135
 40
10
 50
270
 51
0
  0
ARC
  8
_0-3_
  6
CONTINUOUS
 62
    7
 10
83.5
 20
155
 40
20
 50
0
 51
90
  0
LINE
  8
_0-3_
  6
CONTINUOUS
 62
    7
 10
103.5
 20
155
 11
103.5
 21
135
  0
ARC
  8
_0-3_
  6
CONTINUOUS
 62
    7
 10
83.5
 20
135
 40
20
 50
270
 51
0
  0
LINE
  8
_0-3_
  6
CONTINUOUS
 62
    7
 10
68.5
 20
165
 11
68.5
 21
125
  0
LINE
  8
_0-3_
  6
CONTINUOUS
 62
    7
 10
58.5
 20
115
 11
83.5
 21
115
  0
LINE
  8
_0-3_
  6
CONTINUOUS
 62
    7
 10
68.5
 20
125
 11
83.5
 21
125
  0
LINE
  8
_0-3_
  6
CONTINUOUS
 62
    7
 10
68.5
 20
165
 11
83.5
 21
165
  0
LINE
  8
_0-3_
  6
CONTINUOUS
 62
    7
 10
58.5
 20
175
 11
58.5
 21
115
  0
LINE
  8
_0-3_
  6
CONTINUOUS
 62
    7
 10
58.5
 20
175
 11
83.5
 21
175
  0
LINE
  8
_0-0_
  6
CONTINUOUS
 62
    7
 10
198.5
 20
45
 11
203.5
 21
45
  0
LINE
  8
_0-0_
  6
CONTINUOUS
 62
    7
 10
203.5
 20
45
 11
203.5
 21
50
  0
LINE
  8
_0-0_
  6
CONTINUOUS
 62
    7
 10
203.5
 20
50
 11
198.5
 21
50
  0
LINE
  8
_0-0_
  6
CONTINUOUS
 62
    7
 10
198.5
 20
50
 11
198.5
 21
45
  0
ENDSEC
  0
EOF
