  0
SECTION
  2
HEADER
  9
$ACADVER
  1
AC1009
  9
$INSBASE
 10
0
 20
0
 30
0
  9
$EXTMIN
 10
0
 20
0
  9
$EXTMAX
 10
297
 20
210
  9
$LIMMIN
 10
0
 20
0
  9
$LIMMAX
 10
297
 20
210
  9
$LTSCALE
 40
1
  0
ENDSEC
  0
SECTION
  2
TABLES
  0
TABLE
  2
LTYPE
 70
     9
  0
LTYPE
  2
CONTINUOUS
 70
    64
  3
実線
 72
    65
 73
     0
 40
0.0
  0
LTYPE
  2
DASHED1
 70
    64
  3
--  --  --  --  --  --  --  --  
 72
    65
 73
     2
 40
2.5
 49
1.25
 49
-1.25
  0
LTYPE
  2
DASHED2
 70
    64
  3
----    ----    ----    ----    
 72
    65
 73
     2
 40
5.0
 49
2.5
 49
-2.5
  0
LTYPE
  2
DASHED3
 70
    64
  3
------  ------  ------  ------  
 72
    65
 73
     2
 40
5.0
 49
3.75
 49
-1.25
  0
LTYPE
  2
CENTER1
 70
    64
  3
----- - ----- - ----- - ----- - 
 72
    65
 73
     4
 40
10.0
 49
6.25
 49
-1.25
 49
1.25
 49
-1.25
  0
LTYPE
  2
CENTER2
 70
    64
  3
----------  --  ----------  --  
 72
    65
 73
     4
 40
20.0
 49
12.5
 49
-2.5
 49
2.5
 49
-2.5
  0
LTYPE
  2
PHANTOM1
 70
    64
  3
--- - - --- - - --- - - --- - - 
 72
    65
 73
     6
 40
10.0
 49
3.25
 49
-1.25
 49
1.25
 49
-1.25
 49
1.25
 49
-1.25
  0
LTYPE
  2
PHANTOM2
 70
    64
  3
--------  -  -  --------  -  -  
 72
    65
 73
     6
 40
20.0
 49
10.0
 49
-2.5
 49
1.25
 49
-2.5
 49
1.25
 49
-2.5
  0
LTYPE
  2
DOT
 70
    64
  3
-   -   -   -   -   -   -   -   
 72
    65
 73
     2
 40
2.5
 49
0.625
 49
-1.875
  0
LTYPE
  2
DUMMY
 70
    64
  3
ダミー
 72
    65
 73
     0
 40
0.0
  0
LTYPE
  2
RAND1
 70
    64
  3
ランダム線1
 72
    65
 73
     4
 40
10.0
 49
1.0
 49
-2.0
 49
3.0
 49
-4.0
  0
LTYPE
  2
RAND2
 70
    64
  3
ランダム線2
 72
    65
 73
     4
 40
14.0
 49
2.0
 49
-3.0
 49
4.0
 49
-5.0
  0
LTYPE
  2
RAND3
 70
    64
  3
ランダム線3
 72
    65
 73
     4
 40
18.0
 49
3.0
 49
-4.0
 49
5.0
 49
-6.0
  0
LTYPE
  2
RAND4
 70
    64
  3
ランダム線4
 72
    65
 73
     4
 40
22.0
 49
4.0
 49
-5.0
 49
6.0
 49
-7.0
  0
LTYPE
  2
RAND5
 70
    64
  3
ランダム線5
 72
    65
 73
     4
 40
26.0
 49
5.0
 49
-6.0
 49
7.0
 49
-8.0
  0
LTYPE
  2
LONG1
 70
    64
  3
----------  --  ----------  --  
 72
    65
 73
     4
 40
40.0
 49
32.5
 49
-2.5
 49
2.5
 49
-2.5
  0
LTYPE
  2
LONG2
 70
    64
  3
--------  -  -  --------  -  -  
 72
    65
 73
     6
 40
40.0
 49
30.0
 49
-2.5
 49
1.25
 49
-2.5
 49
1.25
 49
-2.5
  0
LTYPE
  2
LONG3
 70
    64
  3
+++++++++++++++..+++++++++++++++
 72
    65
 73
     2
 40
40.0
 49
37.5
 49
-2.5
  0
LTYPE
  2
LONG4
 70
    64
  3
+++++++++++++++..+++++++++++++++
 72
    65
 73
     2
 40
80.0
 49
75.0
 49
-5.0
  0
LTYPE
  2
LONG5
 70
    64
  3
----------  --  ----------  --  
 72
    65
 73
     4
 40
60.0
 49
37.5
 49
-7.5
 49
7.5
 49
-7.5
  0
LTYPE
  2
dashed
 70
   64
  3
-------   -------------   ------
 72
   65
 73
    2
 40
7.5
 49
6
 49
-1.5
  0
LTYPE
  2
dashed_spaced
 70
   64
  3
----        --------        ----
 72
   65
 73
    2
 40
12
 49
6
 49
-6
  0
LTYPE
  2
long_dashed_dotted
 70
   64
  3
------------- --- --------------
 72
   65
 73
    4
 40
15.25
 49
12
 49
-1.5
 49
0.25
 49
-1.5
  0
LTYPE
  2
long_dashed_double-dotted
 70
   64
  3
----------- --- --- ------------
 72
   65
 73
    6
 40
17
 49
12
 49
-1.5
 49
0.25
 49
-1.5
 49
0.25
 49
-1.5
  0
LTYPE
  2
long_dashed_triplicate-dotted
 70
   64
  3
--------- --- --- --- ----------
 72
   65
 73
    8
 40
18.75
 49
12
 49
-1.5
 49
0.25
 49
-1.5
 49
0.25
 49
-1.5
 49
0.25
 49
-1.5
  0
LTYPE
  2
dotted
 70
   64
  3
   -       -       -       -    
 72
   65
 73
    2
 40
1.75
 49
0.25
 49
-1.5
  0
LTYPE
  2
chain
 70
   64
  3
-------------- -- --------------
 72
   65
 73
    4
 40
18.5
 49
12
 49
-1.5
 49
3.5
 49
-1.5
  0
LTYPE
  2
chain_double_dash
 70
   64
  3
------------ -- -- -------------
 72
   65
 73
    6
 40
23.5
 49
12
 49
-1.5
 49
3.5
 49
-1.5
 49
3.5
 49
-1.5
  0
LTYPE
  2
dashed_dotted
 70
   64
  3
-----------     -     ----------
 72
   65
 73
    4
 40
9.25
 49
6
 49
-1.5
 49
0.25
 49
-1.5
  0
LTYPE
  2
double-dashed_dotted
 70
   64
  3
------   -----------   -   -----
 72
   65
 73
    6
 40
16.75
 49
6
 49
-1.5
 49
6
 49
-1.5
 49
0.25
 49
-1.5
  0
LTYPE
  2
dashed_double-dotted
 70
   64
  3
---------    -    -    ---------
 72
   65
 73
    6
 40
11
 49
6
 49
-1.5
 49
0.25
 49
-1.5
 49
0.25
 49
-1.5
  0
LTYPE
  2
double-dashed_double-dotted
 70
   64
  3
-----   ---------   -   -   ----
 72
   65
 73
    8
 40
18.5
 49
6
 49
-1.5
 49
6
 49
-1.5
 49
0.25
 49
-1.5
 49
0.25
 49
-1.5
  0
LTYPE
  2
dashed_triplicate-dotted
 70
   64
  3
-------    -    -    -    ------
 72
   65
 73
    8
 40
12.75
 49
6
 49
-1.5
 49
0.25
 49
-1.5
 49
0.25
 49
-1.5
 49
0.25
 49
-1.5
  0
LTYPE
  2
double-dashed_triplicate-dotted
 70
   64
  3
-----  ---------  -  -  -  -----
 72
   65
 73
   10
 40
20.25
 49
6
 49
-1.5
 49
6
 49
-1.5
 49
0.25
 49
-1.5
 49
0.25
 49
-1.5
 49
0.25
 49
-1.5
  0
LTYPE
  2
undefined
 70
   64
  3
--------------------------------
 72
   65
 73
    0
 40
0
  0
LTYPE
  2
_
 70
   64
  3
                                
 72
   65
 73
    0
 40
0
  0
LTYPE
  2
__18
 70
   64
  3
                                
 72
   65
 73
    0
 40
0
  0
LTYPE
  2
__19
 70
   64
  3
                                
 72
   65
 73
    0
 40
0
  0
LTYPE
  2
__20
 70
   64
  3
                                
 72
   65
 73
    0
 40
0
  0
LTYPE
  2
__21
 70
   64
  3
                                
 72
   65
 73
    0
 40
0
  0
LTYPE
  2
__22
 70
   64
  3
                                
 72
   65
 73
    0
 40
0
  0
LTYPE
  2
__23
 70
   64
  3
                                
 72
   65
 73
    0
 40
0
  0
LTYPE
  2
__24
 70
   64
  3
                                
 72
   65
 73
    0
 40
0
  0
LTYPE
  2
__25
 70
   64
  3
                                
 72
   65
 73
    0
 40
0
  0
LTYPE
  2
__26
 70
   64
  3
                                
 72
   65
 73
    0
 40
0
  0
LTYPE
  2
__27
 70
   64
  3
                                
 72
   65
 73
    0
 40
0
  0
LTYPE
  2
__28
 70
   64
  3
                                
 72
   65
 73
    0
 40
0
  0
LTYPE
  2
__29
 70
   64
  3
                                
 72
   65
 73
    0
 40
0
  0
LTYPE
  2
__30
 70
   64
  3
                                
 72
   65
 73
    0
 40
0
  0
LTYPE
  2
__31
 70
   64
  3
                                
 72
   65
 73
    0
 40
0
  0
LTYPE
  2
__32
 70
   64
  3
                                
 72
   65
 73
    0
 40
0
  0
ENDTAB
  0
TABLE
  2
STYLE
  5
3
100
AcDbSymbolTable
 70
     1
  0
STYLE
  5
10
100
AcDbSymbolTableRecord
100
AcDbTextStyleTableRecord
  2
STANDARD
 70
     0
 40
0.0
 41
1.0
 50
0.0
 71
     0
 42
0.2
  3
txt
  4
bigfont.shx
  0
STYLE
  5
26
100
AcDbSymbolTableRecord
100
AcDbTextStyleTableRecord
  2
TATEGAKI
 70
    68
 40
0.0
 41
1.0
 50
0.0
 71
     0
 42
1.0
  3
txt
  4
bigfont.shx
  0
ENDTAB
  0
TABLE
  2
LAYER
 70
    2
  0
LAYER
  2
_0-3_
 70
   64
 62
    7
  6
CONTINUOUS
  0
LAYER
  2
ADD_LINE
 70
   64
 62
    7
  6
CONTINUOUS
  0
ENDTAB
  0
ENDSEC
  0
SECTION
  2
BLOCKS
  0
ENDSEC
  0
SECTION
  2
ENTITIES
  0
LINE
  8
_0-3_
  6
CONTINUOUS
 62
    7
 10
58.5
 20
220
 11
103.5
 21
220
  0
LINE
  8
_0-3_
  6
CONTINUOUS
 62
    7
 10
103.5
 20
220
 11
103.5
 21
210
  0
LINE
  8
_0-3_
  6
CONTINUOUS
 62
    7
 10
103.5
 20
210
 11
58.5
 21
210
  0
LINE
  8
_0-3_
  6
CONTINUOUS
 62
    7
 10
58.5
 20
210
 11
58.5
 21
220
  0
ARC
  8
_0-3_
  6
CONTINUOUS
 62
    7
 10
148.5
 20
192.5
 40
2.5
 50
90
 51
180
  0
LINE
  8
_0-3_
  6
CONTINUOUS
 62
    7
 10
146
 20
187.5
 11
146
 21
192.5
  0
ARC
  8
_0-3_
  6
CONTINUOUS
 62
    7
 10
148.5
 20
187.5
 40
2.5
 50
180
 51
270
  0
LINE
  8
_0-3_
  6
CONTINUOUS
 62
    7
 10
153.5
 20
185
 11
148.5
 21
185
  0
ARC
  8
_0-3_
  6
CONTINUOUS
 62
    7
 10
153.5
 20
187.5
 40
2.5
 50
270
 51
0
  0
LINE
  8
_0-3_
  6
CONTINUOUS
 62
    7
 10
156
 20
192.5
 11
156
 21
187.5
  0
LINE
  8
_0-3_
  6
CONTINUOUS
 62
    7
 10
153.5
 20
195
 11
148.5
 21
195
  0
ARC
  8
_0-3_
  6
CONTINUOUS
 62
    7
 10
153.5
 20
192.5
 40
2.5
 50
0
 51
90
  0
LINE
  8
_0-3_
  6
CONTINUOUS
 62
    7
 10
232.25
 20
245
 11
198.5
 21
185
  0
LINE
  8
_0-3_
  6
CONTINUOUS
 62
    7
 10
243.5
 20
245
 11
209.75
 21
185
  0
LINE
  8
_0-3_
  6
CONTINUOUS
 62
    7
 10
209.75
 20
185
 11
198.5
 21
185
  0
LINE
  8
_0-3_
  6
CONTINUOUS
 62
    7
 10
232.25
 20
245
 11
243.5
 21
245
  0
ARC
  8
_0-3_
  6
CONTINUOUS
 62
    7
 10
81
 20
157.5
 40
2.5
 50
90
 51
180
  0
LINE
  8
_0-3_
  6
CONTINUOUS
 62
    7
 10
78.5
 20
152.5
 11
78.5
 21
157.5
  0
ARC
  8
_0-3_
  6
CONTINUOUS
 62
    7
 10
81
 20
152.5
 40
2.5
 50
180
 51
270
  0
LINE
  8
_0-3_
  6
CONTINUOUS
 62
    7
 10
86
 20
150
 11
81
 21
150
  0
ARC
  8
_0-3_
  6
CONTINUOUS
 62
    7
 10
86
 20
152.5
 40
2.5
 50
270
 51
0
  0
LINE
  8
_0-3_
  6
CONTINUOUS
 62
    7
 10
88.5
 20
157.5
 11
88.5
 21
152.5
  0
LINE
  8
_0-3_
  6
CONTINUOUS
 62
    7
 10
86
 20
160
 11
81
 21
160
  0
ARC
  8
_0-3_
  6
CONTINUOUS
 62
    7
 10
86
 20
157.5
 40
2.5
 50
0
 51
90
  0
ARC
  8
_0-3_
  6
CONTINUOUS
 62
    7
 10
81
 20
132.5
 40
2.5
 50
90
 51
180
  0
LINE
  8
_0-3_
  6
CONTINUOUS
 62
    7
 10
78.5
 20
127.5
 11
78.5
 21
132.5
  0
ARC
  8
_0-3_
  6
CONTINUOUS
 62
    7
 10
81
 20
127.5
 40
2.5
 50
180
 51
270
  0
LINE
  8
_0-3_
  6
CONTINUOUS
 62
    7
 10
86
 20
125
 11
81
 21
125
  0
ARC
  8
_0-3_
  6
CONTINUOUS
 62
    7
 10
86
 20
127.5
 40
2.5
 50
270
 51
0
  0
LINE
  8
_0-3_
  6
CONTINUOUS
 62
    7
 10
88.5
 20
132.5
 11
88.5
 21
127.5
  0
LINE
  8
_0-3_
  6
CONTINUOUS
 62
    7
 10
86
 20
135
 11
81
 21
135
  0
ARC
  8
_0-3_
  6
CONTINUOUS
 62
    7
 10
86
 20
132.5
 40
2.5
 50
0
 51
90
  0
ARC
  8
_0-3_
  6
CONTINUOUS
 62
    7
 10
151
 20
157.5
 40
2.5
 50
90
 51
180
  0
LINE
  8
_0-3_
  6
CONTINUOUS
 62
    7
 10
148.5
 20
152.5
 11
148.5
 21
157.5
  0
ARC
  8
_0-3_
  6
CONTINUOUS
 62
    7
 10
151
 20
152.5
 40
2.5
 50
180
 51
270
  0
LINE
  8
_0-3_
  6
CONTINUOUS
 62
    7
 10
156
 20
150
 11
151
 21
150
  0
ARC
  8
_0-3_
  6
CONTINUOUS
 62
    7
 10
156
 20
152.5
 40
2.5
 50
270
 51
0
  0
LINE
  8
_0-3_
  6
CONTINUOUS
 62
    7
 10
158.5
 20
157.5
 11
158.5
 21
152.5
  0
LINE
  8
_0-3_
  6
CONTINUOUS
 62
    7
 10
156
 20
160
 11
151
 21
160
  0
ARC
  8
_0-3_
  6
CONTINUOUS
 62
    7
 10
156
 20
157.5
 40
2.5
 50
0
 51
90
  0
ARC
  8
_0-3_
  6
CONTINUOUS
 62
    7
 10
150.45194101601103
 20
132.5
 40
2.5
 50
90
 51
165.96375653207352
  0
LINE
  8
_0-3_
  6
CONTINUOUS
 62
    7
 10
155.29805898398897
 20
135
 11
150.45194101601103
 21
135
  0
ARC
  8
_0-3_
  6
CONTINUOUS
 62
    7
 10
155.29805898398897
 20
132.5
 40
2.5
 50
345.96375653207349
 51
90
  0
LINE
  8
_0-3_
  6
CONTINUOUS
 62
    7
 10
154.49316222402922
 20
118.97264889611685
 11
157.7234152343523
 21
131.89366093740915
  0
ARC
  8
_0-3_
  6
CONTINUOUS
 62
    7
 10
152.06780597366588
 20
119.57898795870769
 40
2.5
 50
296.56505117707803
 51
345.96375653207349
  0
LINE
  8
_0-3_
  6
CONTINUOUS
 62
    7
 10
149.02786404500043
 20
115.26393202250021
 11
153.18583996241577
 21
117.3429199812079
  0
ARC
  8
_0-3_
  6
CONTINUOUS
 62
    7
 10
147.90983005625051
 20
117.5
 40
2.5
 50
270
 51
296.56505117707803
  0
LINE
  8
_0-3_
  6
CONTINUOUS
 62
    7
 10
146.70194101601103
 20
115
 11
147.90983005625051
 21
115
  0
LINE
  8
_0-3_
  6
CONTINUOUS
 62
    7
 10
144.2765847656477
 20
118.10633906259083
 11
148.0265847656477
 21
133.10633906259085
  0
ARC
  8
_0-3_
  6
CONTINUOUS
 62
    7
 10
146.70194101601103
 20
117.5
 40
2.5
 50
165.96375653207352
 51
270
  0
LINE
  8
_0-3_
  6
CONTINUOUS
 62
    7
 10
203.5
 20
145
 11
233.5
 21
115
  0
LINE
  8
_0-3_
  6
CONTINUOUS
 62
    7
 10
233.5
 20
115
 11
240.57106781186548
 21
122.07106781186548
  0
LINE
  8
_0-3_
  6
CONTINUOUS
 62
    7
 10
217.64213562373095
 20
145
 11
240.57106781186548
 21
122.07106781186548
  0
LINE
  8
_0-3_
  6
CONTINUOUS
 62
    7
 10
217.64213562373095
 20
145
 11
240.57106781186548
 21
167.92893218813452
  0
LINE
  8
_0-3_
  6
CONTINUOUS
 62
    7
 10
203.5
 20
145
 11
233.5
 21
175
  0
LINE
  8
_0-3_
  6
CONTINUOUS
 62
    7
 10
240.57106781186548
 20
167.92893218813452
 11
233.5
 21
175
  0
LINE
  8
_0-3_
  6
CONTINUOUS
 62
    7
 10
168.5
 20
75
 11
138.5
 21
45
  0
LINE
  8
_0-3_
  6
CONTINUOUS
 62
    7
 10
138.5
 20
45
 11
131.42893218813452
 21
52.071067811865483
  0
LINE
  8
_0-3_
  6
CONTINUOUS
 62
    7
 10
154.35786437626905
 20
75
 11
131.42893218813452
 21
52.071067811865483
  0
LINE
  8
_0-3_
  6
CONTINUOUS
 62
    7
 10
154.35786437626905
 20
75
 11
131.42893218813452
 21
97.928932188134524
  0
LINE
  8
_0-3_
  6
CONTINUOUS
 62
    7
 10
168.5
 20
75
 11
138.5
 21
105
  0
LINE
  8
_0-3_
  6
CONTINUOUS
 62
    7
 10
131.42893218813452
 20
97.928932188134524
 11
138.5
 21
105
  0
LINE
  8
_0-3_
  6
CONTINUOUS
 62
    7
 10
58.5
 20
80
 11
103.5
 21
80
  0
LINE
  8
_0-3_
  6
CONTINUOUS
 62
    7
 10
103.5
 20
80
 11
103.5
 21
90
  0
LINE
  8
_0-3_
  6
CONTINUOUS
 62
    7
 10
103.5
 20
90
 11
58.5
 21
90
  0
LINE
  8
_0-3_
  6
CONTINUOUS
 62
    7
 10
58.5
 20
90
 11
58.5
 21
80
  0
LINE
  8
_0-3_
  6
CONTINUOUS
 62
    7
 10
58.5
 20
70
 11
103.5
 21
70
  0
LINE
  8
_0-3_
  6
CONTINUOUS
 62
    7
 10
103.5
 20
70
 11
103.5
 21
60
  0
LINE
  8
_0-3_
  6
CONTINUOUS
 62
    7
 10
103.5
 20
60
 11
58.5
 21
60
  0
LINE
  8
_0-3_
  6
CONTINUOUS
 62
    7
 10
58.5
 20
60
 11
58.5
 21
70
  0
LINE
  8
_0-3_
  6
CONTINUOUS
 62
    7
 10
226
 20
105
 11
216
 21
105
  0
ARC
  8
_0-3_
  6
CONTINUOUS
 62
    7
 10
216
 20
87.5
 40
7.5
 50
90
 51
180
  0
ARC
  8
_0-3_
  6
CONTINUOUS
 62
    7
 10
216
 20
87.5
 40
17.5
 50
90
 51
180
  0
LINE
  8
_0-3_
  6
CONTINUOUS
 62
    7
 10
226
 20
95
 11
216
 21
95
  0
LINE
  8
_0-3_
  6
CONTINUOUS
 62
    7
 10
208.5
 20
87.5
 11
198.5
 21
87.5
  0
LINE
  8
_0-3_
  6
CONTINUOUS
 62
    7
 10
216
 20
60
 11
226
 21
60
  0
LINE
  8
_0-3_
  6
CONTINUOUS
 62
    7
 10
221.45979174023267
 20
75.328865748914737
 11
230.22412495586039
 21
81.302680550651161
  0
ARC
  8
_0-3_
  6
CONTINUOUS
 62
    7
 10
226
 20
87.5
 40
7.5
 50
304.27854447551226
 51
89.999999999999972
  0
ARC
  8
_0-3_
  6
CONTINUOUS
 62
    7
 10
226
 20
87.5
 40
17.5
 50
304.27854447551226
 51
89.999999999999972
  0
LINE
  8
_0-3_
  6
CONTINUOUS
 62
    7
 10
227.09195834804655
 20
67.065773149782956
 11
235.85629156367423
 21
73.039587951519366
  0
ARC
  8
_0-3_
  6
CONTINUOUS
 62
    7
 10
228.5
 20
65
 40
2.5
 50
124.27854447551229
 51
180
  0
LINE
  8
_0-3_
  6
CONTINUOUS
 62
    7
 10
226
 20
60
 11
226
 21
65
  0
LINE
  8
_0-3_
  6
CONTINUOUS
 62
    7
 10
216
 20
65
 11
216
 21
60
  0
ARC
  8
_0-3_
  6
CONTINUOUS
 62
    7
 10
228.5
 20
65
 40
12.5
 50
124.27854447551229
 51
180
  0
ARC
  8
_0-3_
  6
CONTINUOUS
 62
    7
 10
218.5
 20
52.5
 40
2.5
 50
90
 51
180
  0
LINE
  8
_0-3_
  6
CONTINUOUS
 62
    7
 10
216
 20
47.5
 11
216
 21
52.5
  0
ARC
  8
_0-3_
  6
CONTINUOUS
 62
    7
 10
218.5
 20
47.5
 40
2.5
 50
180
 51
270
  0
LINE
  8
_0-3_
  6
CONTINUOUS
 62
    7
 10
223.5
 20
45
 11
218.5
 21
45
  0
ARC
  8
_0-3_
  6
CONTINUOUS
 62
    7
 10
223.5
 20
47.5
 40
2.5
 50
270
 51
0
  0
LINE
  8
_0-3_
  6
CONTINUOUS
 62
    7
 10
226
 20
52.5
 11
226
 21
47.5
  0
LINE
  8
_0-3_
  6
CONTINUOUS
 62
    7
 10
223.5
 20
55
 11
218.5
 21
55
  0
ARC
  8
_0-3_
  6
CONTINUOUS
 62
    7
 10
223.5
 20
52.5
 40
2.5
 50
0
 51
90
  0
LINE
  8
_0-3_
  6
CONTINUOUS
 62
    7
 10
98.5
 20
-25
 11
98.5
 21
-17.5
  0
LINE
  8
_0-3_
  6
CONTINUOUS
 62
    7
 10
71
 20
35
 11
91
 21
35
  0
ARC
  8
_0-3_
  6
CONTINUOUS
 62
    7
 10
71
 20
22.5
 40
12.5
 50
90
 51
180
  0
LINE
  8
_0-3_
  6
CONTINUOUS
 62
    7
 10
58.5
 20
-12.5
 11
58.5
 21
22.5
  0
LINE
  8
_0-3_
  6
CONTINUOUS
 62
    7
 10
71
 20
-25
 11
98.5
 21
-25
  0
ARC
  8
_0-3_
  6
CONTINUOUS
 62
    7
 10
71
 20
-12.5
 40
12.5
 50
180
 51
270
  0
LINE
  8
_0-3_
  6
CONTINUOUS
 62
    7
 10
71
 20
-17.5
 11
98.5
 21
-17.5
  0
ARC
  8
_0-3_
  6
CONTINUOUS
 62
    7
 10
71
 20
-12.5
 40
5
 50
180
 51
270
  0
LINE
  8
_0-3_
  6
CONTINUOUS
 62
    7
 10
66
 20
22.5
 11
66
 21
-12.5
  0
ARC
  8
_0-3_
  6
CONTINUOUS
 62
    7
 10
71
 20
22.5
 40
5
 50
90
 51
180
  0
LINE
  8
_0-3_
  6
CONTINUOUS
 62
    7
 10
89.75
 20
27.5
 11
71
 21
27.5
  0
ARC
  8
_0-3_
  6
CONTINUOUS
 62
    7
 10
89.75
 20
22.5
 40
5
 50
0
 51
90
  0
LINE
  8
_0-3_
  6
CONTINUOUS
 62
    7
 10
103.5
 20
1.25
 11
103.5
 21
22.5
  0
ARC
  8
_0-3_
  6
CONTINUOUS
 62
    7
 10
91
 20
22.5
 40
12.5
 50
0
 51
90
  0
ARC
  8
_0-3_
  6
CONTINUOUS
 62
    7
 10
79.25
 20
9.25
 40
2
 50
90
 51
180
  0
LINE
  8
_0-3_
  6
CONTINUOUS
 62
    7
 10
77.25
 20
-1.75
 11
77.25
 21
9.25
  0
ARC
  8
_0-3_
  6
CONTINUOUS
 62
    7
 10
79.25
 20
-1.75
 40
2
 50
180
 51
270
  0
LINE
  8
_0-3_
  6
CONTINUOUS
 62
    7
 10
69.75
 20
-1.25
 11
69.75
 21
8.75
  0
ARC
  8
_0-3_
  6
CONTINUOUS
 62
    7
 10
79.75
 20
-1.25
 40
10
 50
180
 51
301.92963576184678
  0
ARC
  8
_0-3_
  6
CONTINUOUS
 62
    7
 10
91
 20
1.25
 40
12.5
 50
241.51699341479377
 51
0
  0
LINE
  8
_0-3_
  6
CONTINUOUS
 62
    7
 10
81.5
 20
11.25
 11
79.25
 21
11.25
  0
ARC
  8
_0-3_
  6
CONTINUOUS
 62
    7
 10
81.5
 20
9.25
 40
2
 50
0
 51
90
  0
LINE
  8
_0-3_
  6
CONTINUOUS
 62
    7
 10
83.5
 20
-1.75
 11
83.5
 21
9.25
  0
ARC
  8
_0-3_
  6
CONTINUOUS
 62
    7
 10
81.5
 20
-1.75
 40
2
 50
270
 51
0
  0
LINE
  8
_0-3_
  6
CONTINUOUS
 62
    7
 10
79.25
 20
-3.75
 11
81.5
 21
-3.75
  0
ARC
  8
_0-3_
  6
CONTINUOUS
 62
    7
 10
79.75
 20
8.75
 40
10
 50
67.97568716295784
 51
180
  0
ARC
  8
_0-3_
  6
CONTINUOUS
 62
    7
 10
88.75
 20
19
 40
1
 50
0
 51
90
  0
LINE
  8
_0-3_
  6
CONTINUOUS
 62
    7
 10
84.5
 20
20
 11
88.75
 21
20
  0
ARC
  8
_0-3_
  6
CONTINUOUS
 62
    7
 10
84.5
 20
19
 40
1
 50
90
 51
180
  0
LINE
  8
_0-3_
  6
CONTINUOUS
 62
    7
 10
83.5
 20
19
 11
83.5
 21
18.020248108869581
  0
LINE
  8
_0-3_
  6
CONTINUOUS
 62
    7
 10
89.75
 20
-1.25
 11
89.75
 21
19
  0
ARC
  8
_0-3_
  6
CONTINUOUS
 62
    7
 10
92.25
 20
-1.25
 40
2.5
 50
180
 51
0
  0
LINE
  8
_0-3_
  6
CONTINUOUS
 62
    7
 10
94.75
 20
22.5
 11
94.75
 21
-1.25
  0
LINE
  8
_0-3_
  6
CONTINUOUS
 62
    7
 10
138.5
 20
35
 11
163.5
 21
35
  0
LINE
  8
_0-3_
  6
CONTINUOUS
 62
    7
 10
163.5
 20
35
 11
163.5
 21
25
  0
LINE
  8
_0-3_
  6
CONTINUOUS
 62
    7
 10
163.5
 20
25
 11
148.5
 21
25
  0
LINE
  8
_0-3_
  6
CONTINUOUS
 62
    7
 10
148.5
 20
25
 11
148.5
 21
-15
  0
LINE
  8
_0-3_
  6
CONTINUOUS
 62
    7
 10
148.5
 20
-15
 11
163.5
 21
-15
  0
LINE
  8
_0-3_
  6
CONTINUOUS
 62
    7
 10
163.5
 20
-15
 11
163.5
 21
-25
  0
LINE
  8
_0-3_
  6
CONTINUOUS
 62
    7
 10
163.5
 20
-25
 11
138.5
 21
-25
  0
LINE
  8
_0-3_
  6
CONTINUOUS
 62
    7
 10
138.5
 20
-25
 11
138.5
 21
35
  0
LINE
  8
_0-3_
  6
CONTINUOUS
 62
    7
 10
209.75
 20
35
 11
243.5
 21
-25
  0
LINE
  8
_0-3_
  6
CONTINUOUS
 62
    7
 10
198.5
 20
35
 11
232.25
 21
-25
  0
LINE
  8
_0-3_
  6
CONTINUOUS
 62
    7
 10
232.25
 20
-25
 11
243.5
 21
-25
  0
LINE
  8
_0-3_
  6
CONTINUOUS
 62
    7
 10
209.75
 20
35
 11
198.5
 21
35
  0
LINE
  8
_0-3_
  6
CONTINUOUS
 62
    7
 10
58.5
 20
190
 11
63.5
 21
190
  0
LINE
  8
_0-3_
  6
CONTINUOUS
 62
    7
 10
63.5
 20
190
 11
63.5
 21
185
  0
LINE
  8
_0-3_
  6
CONTINUOUS
 62
    7
 10
63.5
 20
185
 11
58.5
 21
185
  0
LINE
  8
_0-3_
  6
CONTINUOUS
 62
    7
 10
58.5
 20
185
 11
58.5
 21
190
  0
LINE
  8
_0-3_
  6
CONTINUOUS
 62
    7
 10
128.5
 20
190
 11
133.5
 21
190
  0
LINE
  8
_0-3_
  6
CONTINUOUS
 62
    7
 10
133.5
 20
190
 11
133.5
 21
185
  0
LINE
  8
_0-3_
  6
CONTINUOUS
 62
    7
 10
133.5
 20
185
 11
128.5
 21
185
  0
LINE
  8
_0-3_
  6
CONTINUOUS
 62
    7
 10
128.5
 20
185
 11
128.5
 21
190
  0
LINE
  8
_0-3_
  6
CONTINUOUS
 62
    7
 10
58.5
 20
120
 11
63.5
 21
120
  0
LINE
  8
_0-3_
  6
CONTINUOUS
 62
    7
 10
63.5
 20
120
 11
63.5
 21
115
  0
LINE
  8
_0-3_
  6
CONTINUOUS
 62
    7
 10
63.5
 20
115
 11
58.5
 21
115
  0
LINE
  8
_0-3_
  6
CONTINUOUS
 62
    7
 10
58.5
 20
115
 11
58.5
 21
120
  0
LINE
  8
_0-3_
  6
CONTINUOUS
 62
    7
 10
128.5
 20
120
 11
133.5
 21
120
  0
LINE
  8
_0-3_
  6
CONTINUOUS
 62
    7
 10
133.5
 20
120
 11
133.5
 21
115
  0
LINE
  8
_0-3_
  6
CONTINUOUS
 62
    7
 10
133.5
 20
115
 11
128.5
 21
115
  0
LINE
  8
_0-3_
  6
CONTINUOUS
 62
    7
 10
128.5
 20
115
 11
128.5
 21
120
  0
LINE
  8
_0-3_
  6
CONTINUOUS
 62
    7
 10
198.5
 20
120
 11
203.5
 21
120
  0
LINE
  8
_0-3_
  6
CONTINUOUS
 62
    7
 10
203.5
 20
120
 11
203.5
 21
115
  0
LINE
  8
_0-3_
  6
CONTINUOUS
 62
    7
 10
203.5
 20
115
 11
198.5
 21
115
  0
LINE
  8
_0-3_
  6
CONTINUOUS
 62
    7
 10
198.5
 20
115
 11
198.5
 21
120
  0
LINE
  8
_0-3_
  6
CONTINUOUS
 62
    7
 10
128.5
 20
-20
 11
133.5
 21
-20
  0
LINE
  8
_0-3_
  6
CONTINUOUS
 62
    7
 10
133.5
 20
-20
 11
133.5
 21
-25
  0
LINE
  8
_0-3_
  6
CONTINUOUS
 62
    7
 10
133.5
 20
-25
 11
128.5
 21
-25
  0
LINE
  8
_0-3_
  6
CONTINUOUS
 62
    7
 10
128.5
 20
-25
 11
128.5
 21
-20
  0
LINE
  8
_0-3_
  6
CONTINUOUS
 62
    7
 10
198.5
 20
-20
 11
203.5
 21
-20
  0
LINE
  8
_0-3_
  6
CONTINUOUS
 62
    7
 10
203.5
 20
-20
 11
203.5
 21
-25
  0
LINE
  8
_0-3_
  6
CONTINUOUS
 62
    7
 10
203.5
 20
-25
 11
198.5
 21
-25
  0
LINE
  8
_0-3_
  6
CONTINUOUS
 62
    7
 10
198.5
 20
-25
 11
198.5
 21
-20
  0
LINE
  8
_0-3_
  6
CONTINUOUS
 62
    7
 10
58.5
 20
50
 11
63.5
 21
50
  0
LINE
  8
_0-3_
  6
CONTINUOUS
 62
    7
 10
63.5
 20
50
 11
63.5
 21
45
  0
LINE
  8
_0-3_
  6
CONTINUOUS
 62
    7
 10
63.5
 20
45
 11
58.5
 21
45
  0
LINE
  8
_0-3_
  6
CONTINUOUS
 62
    7
 10
58.5
 20
45
 11
58.5
 21
50
  0
LINE
  8
_0-3_
  6
CONTINUOUS
 62
    7
 10
128.5
 20
45
 11
131.14089146555199
 21
45
  0
LINE
  8
_0-3_
  6
CONTINUOUS
 62
    7
 10
131.14089146555199
 20
45
 11
131.14089146555199
 21
47.579616797989729
  0
LINE
  8
_0-3_
  6
CONTINUOUS
 62
    7
 10
131.14089146555199
 20
47.579616797989729
 11
128.5
 21
47.579616797989729
  0
LINE
  8
_0-3_
  6
CONTINUOUS
 62
    7
 10
128.5
 20
47.579616797989729
 11
128.5
 21
45
  0
ENDSEC
  0
EOF
