  0
SECTION
  2
HEADER
  9
$ACADVER
  1
AC1009
  9
$INSBASE
 10
0
 20
0
 30
0
  9
$EXTMIN
 10
0
 20
0
  9
$EXTMAX
 10
297
 20
210
  9
$LIMMIN
 10
0
 20
0
  9
$LIMMAX
 10
297
 20
210
  9
$LTSCALE
 40
1
  0
ENDSEC
  0
SECTION
  2
TABLES
  0
TABLE
  2
LTYPE
 70
     9
  0
LTYPE
  2
CONTINUOUS
 70
    64
  3
実線
 72
    65
 73
     0
 40
0.0
  0
LTYPE
  2
DASHED1
 70
    64
  3
--  --  --  --  --  --  --  --  
 72
    65
 73
     2
 40
2.5
 49
1.25
 49
-1.25
  0
LTYPE
  2
DASHED2
 70
    64
  3
----    ----    ----    ----    
 72
    65
 73
     2
 40
5.0
 49
2.5
 49
-2.5
  0
LTYPE
  2
DASHED3
 70
    64
  3
------  ------  ------  ------  
 72
    65
 73
     2
 40
5.0
 49
3.75
 49
-1.25
  0
LTYPE
  2
CENTER1
 70
    64
  3
----- - ----- - ----- - ----- - 
 72
    65
 73
     4
 40
10.0
 49
6.25
 49
-1.25
 49
1.25
 49
-1.25
  0
LTYPE
  2
CENTER2
 70
    64
  3
----------  --  ----------  --  
 72
    65
 73
     4
 40
20.0
 49
12.5
 49
-2.5
 49
2.5
 49
-2.5
  0
LTYPE
  2
PHANTOM1
 70
    64
  3
--- - - --- - - --- - - --- - - 
 72
    65
 73
     6
 40
10.0
 49
3.25
 49
-1.25
 49
1.25
 49
-1.25
 49
1.25
 49
-1.25
  0
LTYPE
  2
PHANTOM2
 70
    64
  3
--------  -  -  --------  -  -  
 72
    65
 73
     6
 40
20.0
 49
10.0
 49
-2.5
 49
1.25
 49
-2.5
 49
1.25
 49
-2.5
  0
LTYPE
  2
DOT
 70
    64
  3
-   -   -   -   -   -   -   -   
 72
    65
 73
     2
 40
2.5
 49
0.625
 49
-1.875
  0
LTYPE
  2
DUMMY
 70
    64
  3
ダミー
 72
    65
 73
     0
 40
0.0
  0
LTYPE
  2
RAND1
 70
    64
  3
ランダム線1
 72
    65
 73
     4
 40
10.0
 49
1.0
 49
-2.0
 49
3.0
 49
-4.0
  0
LTYPE
  2
RAND2
 70
    64
  3
ランダム線2
 72
    65
 73
     4
 40
14.0
 49
2.0
 49
-3.0
 49
4.0
 49
-5.0
  0
LTYPE
  2
RAND3
 70
    64
  3
ランダム線3
 72
    65
 73
     4
 40
18.0
 49
3.0
 49
-4.0
 49
5.0
 49
-6.0
  0
LTYPE
  2
RAND4
 70
    64
  3
ランダム線4
 72
    65
 73
     4
 40
22.0
 49
4.0
 49
-5.0
 49
6.0
 49
-7.0
  0
LTYPE
  2
RAND5
 70
    64
  3
ランダム線5
 72
    65
 73
     4
 40
26.0
 49
5.0
 49
-6.0
 49
7.0
 49
-8.0
  0
LTYPE
  2
LONG1
 70
    64
  3
----------  --  ----------  --  
 72
    65
 73
     4
 40
40.0
 49
32.5
 49
-2.5
 49
2.5
 49
-2.5
  0
LTYPE
  2
LONG2
 70
    64
  3
--------  -  -  --------  -  -  
 72
    65
 73
     6
 40
40.0
 49
30.0
 49
-2.5
 49
1.25
 49
-2.5
 49
1.25
 49
-2.5
  0
LTYPE
  2
LONG3
 70
    64
  3
+++++++++++++++..+++++++++++++++
 72
    65
 73
     2
 40
40.0
 49
37.5
 49
-2.5
  0
LTYPE
  2
LONG4
 70
    64
  3
+++++++++++++++..+++++++++++++++
 72
    65
 73
     2
 40
80.0
 49
75.0
 49
-5.0
  0
LTYPE
  2
LONG5
 70
    64
  3
----------  --  ----------  --  
 72
    65
 73
     4
 40
60.0
 49
37.5
 49
-7.5
 49
7.5
 49
-7.5
  0
LTYPE
  2
dashed
 70
   64
  3
-------   -------------   ------
 72
   65
 73
    2
 40
7.5
 49
6
 49
-1.5
  0
LTYPE
  2
dashed_spaced
 70
   64
  3
----        --------        ----
 72
   65
 73
    2
 40
12
 49
6
 49
-6
  0
LTYPE
  2
long_dashed_dotted
 70
   64
  3
------------- --- --------------
 72
   65
 73
    4
 40
15.25
 49
12
 49
-1.5
 49
0.25
 49
-1.5
  0
LTYPE
  2
long_dashed_double-dotted
 70
   64
  3
----------- --- --- ------------
 72
   65
 73
    6
 40
17
 49
12
 49
-1.5
 49
0.25
 49
-1.5
 49
0.25
 49
-1.5
  0
LTYPE
  2
long_dashed_triplicate-dotted
 70
   64
  3
--------- --- --- --- ----------
 72
   65
 73
    8
 40
18.75
 49
12
 49
-1.5
 49
0.25
 49
-1.5
 49
0.25
 49
-1.5
 49
0.25
 49
-1.5
  0
LTYPE
  2
dotted
 70
   64
  3
   -       -       -       -    
 72
   65
 73
    2
 40
1.75
 49
0.25
 49
-1.5
  0
LTYPE
  2
chain
 70
   64
  3
-------------- -- --------------
 72
   65
 73
    4
 40
18.5
 49
12
 49
-1.5
 49
3.5
 49
-1.5
  0
LTYPE
  2
chain_double_dash
 70
   64
  3
------------ -- -- -------------
 72
   65
 73
    6
 40
23.5
 49
12
 49
-1.5
 49
3.5
 49
-1.5
 49
3.5
 49
-1.5
  0
LTYPE
  2
dashed_dotted
 70
   64
  3
-----------     -     ----------
 72
   65
 73
    4
 40
9.25
 49
6
 49
-1.5
 49
0.25
 49
-1.5
  0
LTYPE
  2
double-dashed_dotted
 70
   64
  3
------   -----------   -   -----
 72
   65
 73
    6
 40
16.75
 49
6
 49
-1.5
 49
6
 49
-1.5
 49
0.25
 49
-1.5
  0
LTYPE
  2
dashed_double-dotted
 70
   64
  3
---------    -    -    ---------
 72
   65
 73
    6
 40
11
 49
6
 49
-1.5
 49
0.25
 49
-1.5
 49
0.25
 49
-1.5
  0
LTYPE
  2
double-dashed_double-dotted
 70
   64
  3
-----   ---------   -   -   ----
 72
   65
 73
    8
 40
18.5
 49
6
 49
-1.5
 49
6
 49
-1.5
 49
0.25
 49
-1.5
 49
0.25
 49
-1.5
  0
LTYPE
  2
dashed_triplicate-dotted
 70
   64
  3
-------    -    -    -    ------
 72
   65
 73
    8
 40
12.75
 49
6
 49
-1.5
 49
0.25
 49
-1.5
 49
0.25
 49
-1.5
 49
0.25
 49
-1.5
  0
LTYPE
  2
double-dashed_triplicate-dotted
 70
   64
  3
-----  ---------  -  -  -  -----
 72
   65
 73
   10
 40
20.25
 49
6
 49
-1.5
 49
6
 49
-1.5
 49
0.25
 49
-1.5
 49
0.25
 49
-1.5
 49
0.25
 49
-1.5
  0
LTYPE
  2
undefined
 70
   64
  3
--------------------------------
 72
   65
 73
    0
 40
0
  0
LTYPE
  2
_
 70
   64
  3
                                
 72
   65
 73
    0
 40
0
  0
LTYPE
  2
__18
 70
   64
  3
                                
 72
   65
 73
    0
 40
0
  0
LTYPE
  2
__19
 70
   64
  3
                                
 72
   65
 73
    0
 40
0
  0
LTYPE
  2
__20
 70
   64
  3
                                
 72
   65
 73
    0
 40
0
  0
LTYPE
  2
__21
 70
   64
  3
                                
 72
   65
 73
    0
 40
0
  0
LTYPE
  2
__22
 70
   64
  3
                                
 72
   65
 73
    0
 40
0
  0
LTYPE
  2
__23
 70
   64
  3
                                
 72
   65
 73
    0
 40
0
  0
LTYPE
  2
__24
 70
   64
  3
                                
 72
   65
 73
    0
 40
0
  0
LTYPE
  2
__25
 70
   64
  3
                                
 72
   65
 73
    0
 40
0
  0
LTYPE
  2
__26
 70
   64
  3
                                
 72
   65
 73
    0
 40
0
  0
LTYPE
  2
__27
 70
   64
  3
                                
 72
   65
 73
    0
 40
0
  0
LTYPE
  2
__28
 70
   64
  3
                                
 72
   65
 73
    0
 40
0
  0
LTYPE
  2
__29
 70
   64
  3
                                
 72
   65
 73
    0
 40
0
  0
LTYPE
  2
__30
 70
   64
  3
                                
 72
   65
 73
    0
 40
0
  0
LTYPE
  2
__31
 70
   64
  3
                                
 72
   65
 73
    0
 40
0
  0
LTYPE
  2
__32
 70
   64
  3
                                
 72
   65
 73
    0
 40
0
  0
ENDTAB
  0
TABLE
  2
STYLE
  5
3
100
AcDbSymbolTable
 70
     1
  0
STYLE
  5
10
100
AcDbSymbolTableRecord
100
AcDbTextStyleTableRecord
  2
STANDARD
 70
     0
 40
0.0
 41
1.0
 50
0.0
 71
     0
 42
0.2
  3
txt
  4
bigfont.shx
  0
STYLE
  5
26
100
AcDbSymbolTableRecord
100
AcDbTextStyleTableRecord
  2
TATEGAKI
 70
    68
 40
0.0
 41
1.0
 50
0.0
 71
     0
 42
1.0
  3
txt
  4
bigfont.shx
  0
ENDTAB
  0
TABLE
  2
LAYER
 70
    2
  0
LAYER
  2
_0-3_
 70
   64
 62
    7
  6
CONTINUOUS
  0
LAYER
  2
ADD_LINE
 70
   64
 62
    7
  6
CONTINUOUS
  0
ENDTAB
  0
ENDSEC
  0
SECTION
  2
BLOCKS
  0
ENDSEC
  0
SECTION
  2
ENTITIES
  0
LINE
  8
_0-3_
  6
CONTINUOUS
 62
    7
 10
76
 20
105
 11
77.25
 21
90
  0
LINE
  8
_0-3_
  6
CONTINUOUS
 62
    7
 10
77.25
 20
90
 11
84.75
 21
90
  0
LINE
  8
_0-3_
  6
CONTINUOUS
 62
    7
 10
86
 20
105
 11
84.75
 21
90
  0
LINE
  8
_0-3_
  6
CONTINUOUS
 62
    7
 10
76
 20
105
 11
86
 21
105
  0
LINE
  8
_0-3_
  6
CONTINUOUS
 62
    7
 10
192.66666666666669
 20
210
 11
202.66666666666669
 21
210
  0
LINE
  8
_0-3_
  6
CONTINUOUS
 62
    7
 10
204.33333333333334
 20
220
 11
202.66666666666669
 21
210
  0
LINE
  8
_0-3_
  6
CONTINUOUS
 62
    7
 10
194.33333333333334
 20
220
 11
204.33333333333334
 21
220
  0
LINE
  8
_0-3_
  6
CONTINUOUS
 62
    7
 10
246
 20
230
 11
244.33333333333331
 21
220
  0
LINE
  8
_0-3_
  6
CONTINUOUS
 62
    7
 10
234.33333333333331
 20
220
 11
244.33333333333331
 21
220
  0
LINE
  8
_0-3_
  6
CONTINUOUS
 62
    7
 10
234.33333333333331
 20
220
 11
232.66666666666669
 21
210
  0
LINE
  8
_0-3_
  6
CONTINUOUS
 62
    7
 10
242.66666666666669
 20
210
 11
241
 21
200
  0
LINE
  8
_0-3_
  6
CONTINUOUS
 62
    7
 10
232.66666666666669
 20
210
 11
242.66666666666669
 21
210
  0
LINE
  8
_0-3_
  6
CONTINUOUS
 62
    7
 10
231
 20
200
 11
241
 21
200
  0
LINE
  8
_0-3_
  6
CONTINUOUS
 62
    7
 10
231
 20
200
 11
228.5
 21
185
  0
LINE
  8
_0-3_
  6
CONTINUOUS
 62
    7
 10
221
 20
200
 11
218.5
 21
185
  0
LINE
  8
_0-3_
  6
CONTINUOUS
 62
    7
 10
211
 20
200
 11
221
 21
200
  0
LINE
  8
_0-3_
  6
CONTINUOUS
 62
    7
 10
211
 20
200
 11
208.5
 21
185
  0
LINE
  8
_0-3_
  6
CONTINUOUS
 62
    7
 10
201
 20
200
 11
198.5
 21
185
  0
LINE
  8
_0-3_
  6
CONTINUOUS
 62
    7
 10
191
 20
200
 11
201
 21
200
  0
LINE
  8
_0-3_
  6
CONTINUOUS
 62
    7
 10
192.66666666666669
 20
210
 11
191
 21
200
  0
LINE
  8
_0-3_
  6
CONTINUOUS
 62
    7
 10
76
 20
200
 11
86
 21
200
  0
ARC
  8
_0-3_
  6
CONTINUOUS
 62
    7
 10
83.5
 20
192.5
 40
2.5
 50
0
 51
90
  0
ARC
  8
_0-3_
  6
CONTINUOUS
 62
    7
 10
83.5
 20
187.5
 40
2.5
 50
270
 51
0
  0
ARC
  8
_0-3_
  6
CONTINUOUS
 62
    7
 10
78.5
 20
187.5
 40
2.5
 50
180
 51
270
  0
ARC
  8
_0-3_
  6
CONTINUOUS
 62
    7
 10
78.5
 20
192.5
 40
2.5
 50
90
 51
180
  0
LINE
  8
_0-3_
  6
CONTINUOUS
 62
    7
 10
76
 20
192.5
 11
76
 21
187.5
  0
LINE
  8
_0-3_
  6
CONTINUOUS
 62
    7
 10
83.5
 20
185
 11
78.5
 21
185
  0
LINE
  8
_0-3_
  6
CONTINUOUS
 62
    7
 10
86
 20
192.5
 11
86
 21
187.5
  0
LINE
  8
_0-3_
  6
CONTINUOUS
 62
    7
 10
78.5
 20
195
 11
83.5
 21
195
  0
LINE
  8
_0-3_
  6
CONTINUOUS
 62
    7
 10
138.5
 20
245
 11
148.5
 21
245
  0
LINE
  8
_0-3_
  6
CONTINUOUS
 62
    7
 10
163.5
 20
245
 11
153.5
 21
245
  0
LINE
  8
_0-3_
  6
CONTINUOUS
 62
    7
 10
76
 20
200
 11
74.75
 21
245
  0
LINE
  8
_0-3_
  6
CONTINUOUS
 62
    7
 10
87.25
 20
245
 11
74.75
 21
245
  0
LINE
  8
_0-3_
  6
CONTINUOUS
 62
    7
 10
87.25
 20
245
 11
86
 21
200
  0
LINE
  8
_0-3_
  6
CONTINUOUS
 62
    7
 10
138.5
 20
245
 11
139.75
 21
230
  0
LINE
  8
_0-3_
  6
CONTINUOUS
 62
    7
 10
147.25
 20
230
 11
139.75
 21
230
  0
LINE
  8
_0-3_
  6
CONTINUOUS
 62
    7
 10
147.25
 20
230
 11
148.5
 21
245
  0
LINE
  8
_0-3_
  6
CONTINUOUS
 62
    7
 10
153.5
 20
245
 11
154.75
 21
230
  0
LINE
  8
_0-3_
  6
CONTINUOUS
 62
    7
 10
154.75
 20
230
 11
162.25
 21
230
  0
LINE
  8
_0-3_
  6
CONTINUOUS
 62
    7
 10
162.25
 20
230
 11
163.5
 21
245
  0
LINE
  8
_0-3_
  6
CONTINUOUS
 62
    7
 10
208.5
 20
245
 11
218.5
 21
245
  0
LINE
  8
_0-3_
  6
CONTINUOUS
 62
    7
 10
228.5
 20
245
 11
238.5
 21
245
  0
LINE
  8
_0-3_
  6
CONTINUOUS
 62
    7
 10
198.5
 20
185
 11
208.5
 21
185
  0
LINE
  8
_0-3_
  6
CONTINUOUS
 62
    7
 10
218.5
 20
185
 11
228.5
 21
185
  0
LINE
  8
_0-3_
  6
CONTINUOUS
 62
    7
 10
224.33333333333331
 20
220
 11
222.66666666666669
 21
210
  0
LINE
  8
_0-3_
  6
CONTINUOUS
 62
    7
 10
212.66666666666669
 20
210
 11
222.66666666666669
 21
210
  0
LINE
  8
_0-3_
  6
CONTINUOUS
 62
    7
 10
214.33333333333331
 20
220
 11
212.66666666666669
 21
210
  0
LINE
  8
_0-3_
  6
CONTINUOUS
 62
    7
 10
214.33333333333331
 20
220
 11
224.33333333333331
 21
220
  0
LINE
  8
_0-3_
  6
CONTINUOUS
 62
    7
 10
218.5
 20
245
 11
216
 21
230
  0
LINE
  8
_0-3_
  6
CONTINUOUS
 62
    7
 10
216
 20
230
 11
226
 21
230
  0
LINE
  8
_0-3_
  6
CONTINUOUS
 62
    7
 10
228.5
 20
245
 11
226
 21
230
  0
LINE
  8
_0-3_
  6
CONTINUOUS
 62
    7
 10
238.5
 20
245
 11
236
 21
230
  0
LINE
  8
_0-3_
  6
CONTINUOUS
 62
    7
 10
236
 20
230
 11
246
 21
230
  0
LINE
  8
_0-3_
  6
CONTINUOUS
 62
    7
 10
196
 20
230
 11
206
 21
230
  0
LINE
  8
_0-3_
  6
CONTINUOUS
 62
    7
 10
208.5
 20
245
 11
206
 21
230
  0
LINE
  8
_0-3_
  6
CONTINUOUS
 62
    7
 10
196
 20
230
 11
194.33333333333334
 21
220
  0
ARC
  8
_0-3_
  6
CONTINUOUS
 62
    7
 10
88.5
 20
155
 40
5
 50
0
 51
90
  0
ARC
  8
_0-3_
  6
CONTINUOUS
 62
    7
 10
88.5
 20
155
 40
15
 50
0
 51
90
  0
ARC
  8
_0-3_
  6
CONTINUOUS
 62
    7
 10
73.5
 20
135
 40
5
 50
180
 51
270
  0
ARC
  8
_0-3_
  6
CONTINUOUS
 62
    7
 10
73.5
 20
135
 40
15
 50
180
 51
270
  0
ARC
  8
_0-3_
  6
CONTINUOUS
 62
    7
 10
88.5
 20
135
 40
5
 50
270
 51
90
  0
ARC
  8
_0-3_
  6
CONTINUOUS
 62
    7
 10
73.5
 20
155
 40
5
 50
90
 51
270
  0
ARC
  8
_0-3_
  6
CONTINUOUS
 62
    7
 10
88.5
 20
135
 40
15
 50
270
 51
90
  0
ARC
  8
_0-3_
  6
CONTINUOUS
 62
    7
 10
73.5
 20
155
 40
15
 50
90
 51
270
  0
LINE
  8
_0-3_
  6
CONTINUOUS
 62
    7
 10
93.5
 20
155
 11
103.5
 21
155
  0
LINE
  8
_0-3_
  6
CONTINUOUS
 62
    7
 10
68.5
 20
135
 11
58.5
 21
135
  0
LINE
  8
_0-3_
  6
CONTINUOUS
 62
    7
 10
76
 20
115
 11
86
 21
115
  0
LINE
  8
_0-3_
  6
CONTINUOUS
 62
    7
 10
86
 20
175
 11
76
 21
175
  0
LINE
  8
_0-3_
  6
CONTINUOUS
 62
    7
 10
73.5
 20
120
 11
76
 21
120
  0
LINE
  8
_0-3_
  6
CONTINUOUS
 62
    7
 10
76
 20
120
 11
76
 21
115
  0
LINE
  8
_0-3_
  6
CONTINUOUS
 62
    7
 10
86
 20
115
 11
86
 21
120
  0
LINE
  8
_0-3_
  6
CONTINUOUS
 62
    7
 10
86
 20
120
 11
88.5
 21
120
  0
LINE
  8
_0-3_
  6
CONTINUOUS
 62
    7
 10
88.5
 20
130
 11
86
 21
130
  0
LINE
  8
_0-3_
  6
CONTINUOUS
 62
    7
 10
76
 20
130
 11
73.5
 21
130
  0
LINE
  8
_0-3_
  6
CONTINUOUS
 62
    7
 10
73.5
 20
140
 11
76
 21
140
  0
LINE
  8
_0-3_
  6
CONTINUOUS
 62
    7
 10
76
 20
140
 11
76
 21
130
  0
LINE
  8
_0-3_
  6
CONTINUOUS
 62
    7
 10
86
 20
130
 11
86
 21
140
  0
LINE
  8
_0-3_
  6
CONTINUOUS
 62
    7
 10
86
 20
140
 11
88.5
 21
140
  0
LINE
  8
_0-3_
  6
CONTINUOUS
 62
    7
 10
86
 20
150
 11
88.5
 21
150
  0
LINE
  8
_0-3_
  6
CONTINUOUS
 62
    7
 10
73.5
 20
150
 11
76
 21
150
  0
LINE
  8
_0-3_
  6
CONTINUOUS
 62
    7
 10
73.5
 20
160
 11
76
 21
160
  0
LINE
  8
_0-3_
  6
CONTINUOUS
 62
    7
 10
76
 20
160
 11
76
 21
150
  0
LINE
  8
_0-3_
  6
CONTINUOUS
 62
    7
 10
73.5
 20
170
 11
76
 21
170
  0
LINE
  8
_0-3_
  6
CONTINUOUS
 62
    7
 10
76
 20
175
 11
76
 21
170
  0
LINE
  8
_0-3_
  6
CONTINUOUS
 62
    7
 10
86
 20
170
 11
86
 21
175
  0
LINE
  8
_0-3_
  6
CONTINUOUS
 62
    7
 10
86
 20
170
 11
88.5
 21
170
  0
LINE
  8
_0-3_
  6
CONTINUOUS
 62
    7
 10
86
 20
150
 11
86
 21
160
  0
LINE
  8
_0-3_
  6
CONTINUOUS
 62
    7
 10
86
 20
160
 11
88.5
 21
160
  0
CIRCLE
  8
_0-3_
  6
CONTINUOUS
 62
    7
 10
138.5
 20
160
 40
10
  0
CIRCLE
  8
_0-3_
  6
CONTINUOUS
 62
    7
 10
138.5
 20
160
 40
3.75
  0
CIRCLE
  8
_0-3_
  6
CONTINUOUS
 62
    7
 10
163.5
 20
130
 40
10
  0
CIRCLE
  8
_0-3_
  6
CONTINUOUS
 62
    7
 10
163.5
 20
130
 40
3.75
  0
LINE
  8
_0-3_
  6
CONTINUOUS
 62
    7
 10
173.5
 20
175
 11
139.75
 21
115
  0
LINE
  8
_0-3_
  6
CONTINUOUS
 62
    7
 10
162.25
 20
175
 11
128.5
 21
115
  0
LINE
  8
_0-3_
  6
CONTINUOUS
 62
    7
 10
128.5
 20
115
 11
139.75
 21
115
  0
LINE
  8
_0-3_
  6
CONTINUOUS
 62
    7
 10
162.25
 20
175
 11
173.5
 21
175
  0
ARC
  8
_0-3_
  6
CONTINUOUS
 62
    7
 10
213.5
 20
130
 40
15
 50
129.42089487623051
 51
270
  0
LINE
  8
_0-3_
  6
CONTINUOUS
 62
    7
 10
213.5
 20
115
 11
223.5
 21
115
  0
ARC
  8
_0-3_
  6
CONTINUOUS
 62
    7
 10
213.5
 20
130
 40
5
 50
129.42089487623048
 51
270
  0
ARC
  8
_0-3_
  6
CONTINUOUS
 62
    7
 10
218.5
 20
160
 40
15
 50
309.42089487623048
 51
214.62844960830583
  0
ARC
  8
_0-3_
  6
CONTINUOUS
 62
    7
 10
218.5
 20
160
 40
5
 50
309.42089487623053
 51
214.62844960830586
  0
LINE
  8
_0-3_
  6
CONTINUOUS
 62
    7
 10
231.34718038829544
 20
115
 11
243.5
 21
115
  0
LINE
  8
_0-3_
  6
CONTINUOUS
 62
    7
 10
217.47516881527636
 20
152.68509331126211
 11
214.38572844841337
 21
157.15873802689632
  0
LINE
  8
_0-3_
  6
CONTINUOUS
 62
    7
 10
217.47516881527636
 20
152.68509331126211
 11
221.67506137428853
 21
156.1374897709519
  0
LINE
  8
_0-3_
  6
CONTINUOUS
 62
    7
 10
209.72304603611539
 20
146.31269190770075
 11
206.15718534524012
 21
151.47621408068898
  0
LINE
  8
_0-3_
  6
CONTINUOUS
 62
    7
 10
203.97481587713446
 20
141.58753068714427
 11
209.72304603611539
 21
146.31269190770075
  0
LINE
  8
_0-3_
  6
CONTINUOUS
 62
    7
 10
210.32493862571147
 20
133.8625102290481
 11
215.42550644582906
 21
138.05527993378632
  0
LINE
  8
_0-3_
  6
CONTINUOUS
 62
    7
 10
223.17762922499003
 20
144.42768133734768
 11
228.02518412286554
 21
148.41246931285573
  0
LINE
  8
_0-3_
  6
CONTINUOUS
 62
    7
 10
232.58064691759233
 20
130.81170063653266
 11
223.17762922499003
 21
144.42768133734768
  0
LINE
  8
_0-3_
  6
CONTINUOUS
 62
    7
 10
243.5
 20
115
 11
238.68052918211401
 21
121.97880444233385
  0
ARC
  8
_0-3_
  6
CONTINUOUS
 62
    7
 10
223.5
 20
135
 40
20
 50
270
 51
290.42308912206533
  0
LINE
  8
_0-3_
  6
CONTINUOUS
 62
    7
 10
231.34718038829544
 20
115
 11
230.47899452061648
 21
116.25717109182274
  0
LINE
  8
_0-3_
  6
CONTINUOUS
 62
    7
 10
223.5
 20
125
 11
213.5
 21
125
  0
ARC
  8
_0-3_
  6
CONTINUOUS
 62
    7
 10
223.5
 20
135
 40
10
 50
270
 51
275.23552474004623
  0
LINE
  8
_0-3_
  6
CONTINUOUS
 62
    7
 10
224.41250034646714
 20
125.04171987149903
 11
215.42550644582906
 21
138.05527993378632
  0
ARC
  8
_0-3_
  6
CONTINUOUS
 62
    7
 10
223.5
 20
135
 40
20
 50
319.37844768220816
 51
0
  0
ARC
  8
_0-3_
  6
CONTINUOUS
 62
    7
 10
223.5
 20
135
 40
10
 50
335.23926150072629
 51
0
  0
LINE
  8
_0-3_
  6
CONTINUOUS
 62
    7
 10
233.5
 20
135
 11
243.5
 21
135
  0
LINE
  8
_0-3_
  6
CONTINUOUS
 62
    7
 10
151.53847577293368
 20
45
 11
163.5
 21
45
  0
ARC
  8
_0-3_
  6
CONTINUOUS
 62
    7
 10
203.5
 20
75
 40
60
 50
150
 51
209.99999999999994
  0
LINE
  8
_0-3_
  6
CONTINUOUS
 62
    7
 10
208.5
 20
105
 11
220.46152422706632
 21
105
  0
ARC
  8
_0-3_
  6
CONTINUOUS
 62
    7
 10
168.5
 20
75
 40
60
 50
330
 51
29.999999999999996
  0
LINE
  8
_0-3_
  6
CONTINUOUS
 62
    7
 10
208.5
 20
45
 11
220.46152422706632
 21
45
  0
ARC
  8
_0-3_
  6
CONTINUOUS
 62
    7
 10
168.5
 20
75
 40
50
 50
323.13010235415595
 51
36.86989764584402
  0
LINE
  8
_0-3_
  6
CONTINUOUS
 62
    7
 10
151.53847577293368
 20
105
 11
163.5
 21
105
  0
ARC
  8
_0-3_
  6
CONTINUOUS
 62
    7
 10
203.5
 20
75
 40
50
 50
143.13010235415598
 51
216.86989764584396
  0
LINE
  8
_0-3_
  6
CONTINUOUS
 62
    7
 10
76
 20
35
 11
86
 21
35
  0
LINE
  8
_0-3_
  6
CONTINUOUS
 62
    7
 10
76
 20
-25
 11
86
 21
-25
  0
LINE
  8
_0-3_
  6
CONTINUOUS
 62
    7
 10
76
 20
35
 11
76
 21
17.071067811865476
  0
LINE
  8
_0-3_
  6
CONTINUOUS
 62
    7
 10
86
 20
35
 11
86
 21
17.071067811865476
  0
LINE
  8
_0-3_
  6
CONTINUOUS
 62
    7
 10
88.071067811865476
 20
5
 11
103.5
 21
20.428932188134524
  0
LINE
  8
_0-3_
  6
CONTINUOUS
 62
    7
 10
58.5
 20
20.428932188134524
 11
73.928932188134524
 21
5
  0
LINE
  8
_0-3_
  6
CONTINUOUS
 62
    7
 10
58.5
 20
20.428932188134524
 11
65.571067811865476
 21
27.5
  0
LINE
  8
_0-3_
  6
CONTINUOUS
 62
    7
 10
76
 20
17.071067811865476
 11
65.571067811865476
 21
27.5
  0
LINE
  8
_0-3_
  6
CONTINUOUS
 62
    7
 10
96.428932188134524
 20
27.5
 11
86
 21
17.071067811865476
  0
LINE
  8
_0-3_
  6
CONTINUOUS
 62
    7
 10
103.5
 20
20.428932188134524
 11
96.428932188134524
 21
27.5
  0
LINE
  8
_0-3_
  6
CONTINUOUS
 62
    7
 10
76
 20
-25
 11
86
 21
-25
  0
LINE
  8
_0-3_
  6
CONTINUOUS
 62
    7
 10
76
 20
-25
 11
76
 21
-7.0710678118654755
  0
LINE
  8
_0-3_
  6
CONTINUOUS
 62
    7
 10
86
 20
-25
 11
86
 21
-7.0710678118654755
  0
LINE
  8
_0-3_
  6
CONTINUOUS
 62
    7
 10
88.071067811865476
 20
5
 11
103.5
 21
-10.428932188134524
  0
LINE
  8
_0-3_
  6
CONTINUOUS
 62
    7
 10
58.5
 20
-10.428932188134524
 11
73.928932188134524
 21
5
  0
LINE
  8
_0-3_
  6
CONTINUOUS
 62
    7
 10
58.5
 20
-10.428932188134524
 11
65.571067811865476
 21
-17.5
  0
LINE
  8
_0-3_
  6
CONTINUOUS
 62
    7
 10
76
 20
-7.0710678118654755
 11
65.571067811865476
 21
-17.5
  0
LINE
  8
_0-3_
  6
CONTINUOUS
 62
    7
 10
96.428932188134524
 20
-17.5
 11
86
 21
-7.0710678118654755
  0
LINE
  8
_0-3_
  6
CONTINUOUS
 62
    7
 10
103.5
 20
-10.428932188134524
 11
96.428932188134524
 21
-17.5
  0
LINE
  8
_0-3_
  6
CONTINUOUS
 62
    7
 10
128.5
 20
10
 11
128.5
 21
0
  0
LINE
  8
_0-3_
  6
CONTINUOUS
 62
    7
 10
173.5
 20
10
 11
173.5
 21
0
  0
LINE
  8
_0-3_
  6
CONTINUOUS
 62
    7
 10
146
 20
-17.5
 11
156
 21
-17.5
  0
LINE
  8
_0-3_
  6
CONTINUOUS
 62
    7
 10
128.5
 20
0
 11
146
 21
0
  0
LINE
  8
_0-3_
  6
CONTINUOUS
 62
    7
 10
146
 20
-17.5
 11
146
 21
0
  0
LINE
  8
_0-3_
  6
CONTINUOUS
 62
    7
 10
156
 20
-17.5
 11
156
 21
0
  0
LINE
  8
_0-3_
  6
CONTINUOUS
 62
    7
 10
173.5
 20
0
 11
156
 21
0
  0
LINE
  8
_0-3_
  6
CONTINUOUS
 62
    7
 10
156
 20
10
 11
173.5
 21
10
  0
LINE
  8
_0-3_
  6
CONTINUOUS
 62
    7
 10
156
 20
27.5
 11
156
 21
10
  0
LINE
  8
_0-3_
  6
CONTINUOUS
 62
    7
 10
146
 20
27.5
 11
156
 21
27.5
  0
LINE
  8
_0-3_
  6
CONTINUOUS
 62
    7
 10
146
 20
10
 11
128.5
 21
10
  0
LINE
  8
_0-3_
  6
CONTINUOUS
 62
    7
 10
146
 20
27.5
 11
146
 21
10
  0
ARC
  8
_0-3_
  6
CONTINUOUS
 62
    7
 10
220.45194101601103
 20
-7.5
 40
2.5
 50
90
 51
165.96375653207352
  0
LINE
  8
_0-3_
  6
CONTINUOUS
 62
    7
 10
225.29805898398897
 20
-5
 11
220.45194101601103
 21
-5
  0
ARC
  8
_0-3_
  6
CONTINUOUS
 62
    7
 10
225.29805898398897
 20
-7.5
 40
2.5
 50
345.96375653207349
 51
90
  0
LINE
  8
_0-3_
  6
CONTINUOUS
 62
    7
 10
224.49316222402922
 20
-21.027351103883149
 11
227.72341523435227
 21
-8.106339062590834
  0
ARC
  8
_0-3_
  6
CONTINUOUS
 62
    7
 10
222.06780597366588
 20
-20.421012041292315
 40
2.5
 50
296.56505117707803
 51
345.96375653207349
  0
LINE
  8
_0-3_
  6
CONTINUOUS
 62
    7
 10
219.02786404500043
 20
-24.7360679774998
 11
223.18583996241577
 21
-22.657080018792101
  0
ARC
  8
_0-3_
  6
CONTINUOUS
 62
    7
 10
217.90983005625054
 20
-22.5
 40
2.5
 50
270
 51
296.56505117707809
  0
LINE
  8
_0-3_
  6
CONTINUOUS
 62
    7
 10
216.70194101601103
 20
-25
 11
217.90983005625054
 21
-25
  0
LINE
  8
_0-3_
  6
CONTINUOUS
 62
    7
 10
214.27658476564773
 20
-21.893660937409166
 11
218.02658476564773
 21
-6.893660937409166
  0
ARC
  8
_0-3_
  6
CONTINUOUS
 62
    7
 10
216.70194101601103
 20
-22.5
 40
2.5
 50
165.96375653207352
 51
270
  0
LINE
  8
_0-3_
  6
CONTINUOUS
 62
    7
 10
58.5
 20
45
 11
63.5
 21
45
  0
LINE
  8
_0-3_
  6
CONTINUOUS
 62
    7
 10
63.5
 20
45
 11
63.5
 21
50
  0
LINE
  8
_0-3_
  6
CONTINUOUS
 62
    7
 10
63.5
 20
50
 11
58.5
 21
50
  0
LINE
  8
_0-3_
  6
CONTINUOUS
 62
    7
 10
58.5
 20
50
 11
58.5
 21
45
  0
LINE
  8
_0-3_
  6
CONTINUOUS
 62
    7
 10
128.5
 20
45
 11
133.5
 21
45
  0
LINE
  8
_0-3_
  6
CONTINUOUS
 62
    7
 10
133.5
 20
45
 11
133.5
 21
50
  0
LINE
  8
_0-3_
  6
CONTINUOUS
 62
    7
 10
133.5
 20
50
 11
128.5
 21
50
  0
LINE
  8
_0-3_
  6
CONTINUOUS
 62
    7
 10
128.5
 20
50
 11
128.5
 21
45
  0
LINE
  8
_0-3_
  6
CONTINUOUS
 62
    7
 10
198.5
 20
45
 11
203.5
 21
45
  0
LINE
  8
_0-3_
  6
CONTINUOUS
 62
    7
 10
203.5
 20
45
 11
203.5
 21
50
  0
LINE
  8
_0-3_
  6
CONTINUOUS
 62
    7
 10
203.5
 20
50
 11
198.5
 21
50
  0
LINE
  8
_0-3_
  6
CONTINUOUS
 62
    7
 10
198.5
 20
50
 11
198.5
 21
45
  0
LINE
  8
_0-3_
  6
CONTINUOUS
 62
    7
 10
128.5
 20
-25
 11
133.5
 21
-25
  0
LINE
  8
_0-3_
  6
CONTINUOUS
 62
    7
 10
133.5
 20
-25
 11
133.5
 21
-20
  0
LINE
  8
_0-3_
  6
CONTINUOUS
 62
    7
 10
133.5
 20
-20
 11
128.5
 21
-20
  0
LINE
  8
_0-3_
  6
CONTINUOUS
 62
    7
 10
128.5
 20
-20
 11
128.5
 21
-25
  0
LINE
  8
_0-3_
  6
CONTINUOUS
 62
    7
 10
198.5
 20
-25
 11
203.5
 21
-25
  0
LINE
  8
_0-3_
  6
CONTINUOUS
 62
    7
 10
203.5
 20
-25
 11
203.5
 21
-20
  0
LINE
  8
_0-3_
  6
CONTINUOUS
 62
    7
 10
203.5
 20
-20
 11
198.5
 21
-20
  0
LINE
  8
_0-3_
  6
CONTINUOUS
 62
    7
 10
198.5
 20
-20
 11
198.5
 21
-25
  0
LINE
  8
_0-3_
  6
CONTINUOUS
 62
    7
 10
128.5
 20
185
 11
133.5
 21
185
  0
LINE
  8
_0-3_
  6
CONTINUOUS
 62
    7
 10
133.5
 20
185
 11
133.5
 21
190
  0
LINE
  8
_0-3_
  6
CONTINUOUS
 62
    7
 10
133.5
 20
190
 11
128.5
 21
190
  0
LINE
  8
_0-3_
  6
CONTINUOUS
 62
    7
 10
128.5
 20
190
 11
128.5
 21
185
  0
LINE
  8
_0-3_
  6
CONTINUOUS
 62
    7
 10
58.5
 20
190
 11
63.5
 21
190
  0
LINE
  8
_0-3_
  6
CONTINUOUS
 62
    7
 10
63.5
 20
190
 11
63.5
 21
185
  0
LINE
  8
_0-3_
  6
CONTINUOUS
 62
    7
 10
63.5
 20
185
 11
58.5
 21
185
  0
LINE
  8
_0-3_
  6
CONTINUOUS
 62
    7
 10
58.5
 20
185
 11
58.5
 21
190
  0
ENDSEC
  0
EOF
