  0
SECTION
  2
HEADER
  9
$ACADVER
  1
AC1009
  9
$INSBASE
 10
0
 20
0
 30
0
  9
$EXTMIN
 10
0
 20
0
  9
$EXTMAX
 10
297
 20
210
  9
$LIMMIN
 10
0
 20
0
  9
$LIMMAX
 10
297
 20
210
  9
$LTSCALE
 40
1
  0
ENDSEC
  0
SECTION
  2
TABLES
  0
TABLE
  2
LTYPE
 70
     9
  0
LTYPE
  2
CONTINUOUS
 70
    64
  3
実線
 72
    65
 73
     0
 40
0.0
  0
LTYPE
  2
DASHED1
 70
    64
  3
--  --  --  --  --  --  --  --  
 72
    65
 73
     2
 40
2.5
 49
1.25
 49
-1.25
  0
LTYPE
  2
DASHED2
 70
    64
  3
----    ----    ----    ----    
 72
    65
 73
     2
 40
5.0
 49
2.5
 49
-2.5
  0
LTYPE
  2
DASHED3
 70
    64
  3
------  ------  ------  ------  
 72
    65
 73
     2
 40
5.0
 49
3.75
 49
-1.25
  0
LTYPE
  2
CENTER1
 70
    64
  3
----- - ----- - ----- - ----- - 
 72
    65
 73
     4
 40
10.0
 49
6.25
 49
-1.25
 49
1.25
 49
-1.25
  0
LTYPE
  2
CENTER2
 70
    64
  3
----------  --  ----------  --  
 72
    65
 73
     4
 40
20.0
 49
12.5
 49
-2.5
 49
2.5
 49
-2.5
  0
LTYPE
  2
PHANTOM1
 70
    64
  3
--- - - --- - - --- - - --- - - 
 72
    65
 73
     6
 40
10.0
 49
3.25
 49
-1.25
 49
1.25
 49
-1.25
 49
1.25
 49
-1.25
  0
LTYPE
  2
PHANTOM2
 70
    64
  3
--------  -  -  --------  -  -  
 72
    65
 73
     6
 40
20.0
 49
10.0
 49
-2.5
 49
1.25
 49
-2.5
 49
1.25
 49
-2.5
  0
LTYPE
  2
DOT
 70
    64
  3
-   -   -   -   -   -   -   -   
 72
    65
 73
     2
 40
2.5
 49
0.625
 49
-1.875
  0
LTYPE
  2
DUMMY
 70
    64
  3
ダミー
 72
    65
 73
     0
 40
0.0
  0
LTYPE
  2
RAND1
 70
    64
  3
ランダム線1
 72
    65
 73
     4
 40
10.0
 49
1.0
 49
-2.0
 49
3.0
 49
-4.0
  0
LTYPE
  2
RAND2
 70
    64
  3
ランダム線2
 72
    65
 73
     4
 40
14.0
 49
2.0
 49
-3.0
 49
4.0
 49
-5.0
  0
LTYPE
  2
RAND3
 70
    64
  3
ランダム線3
 72
    65
 73
     4
 40
18.0
 49
3.0
 49
-4.0
 49
5.0
 49
-6.0
  0
LTYPE
  2
RAND4
 70
    64
  3
ランダム線4
 72
    65
 73
     4
 40
22.0
 49
4.0
 49
-5.0
 49
6.0
 49
-7.0
  0
LTYPE
  2
RAND5
 70
    64
  3
ランダム線5
 72
    65
 73
     4
 40
26.0
 49
5.0
 49
-6.0
 49
7.0
 49
-8.0
  0
LTYPE
  2
LONG1
 70
    64
  3
----------  --  ----------  --  
 72
    65
 73
     4
 40
40.0
 49
32.5
 49
-2.5
 49
2.5
 49
-2.5
  0
LTYPE
  2
LONG2
 70
    64
  3
--------  -  -  --------  -  -  
 72
    65
 73
     6
 40
40.0
 49
30.0
 49
-2.5
 49
1.25
 49
-2.5
 49
1.25
 49
-2.5
  0
LTYPE
  2
LONG3
 70
    64
  3
+++++++++++++++..+++++++++++++++
 72
    65
 73
     2
 40
40.0
 49
37.5
 49
-2.5
  0
LTYPE
  2
LONG4
 70
    64
  3
+++++++++++++++..+++++++++++++++
 72
    65
 73
     2
 40
80.0
 49
75.0
 49
-5.0
  0
LTYPE
  2
LONG5
 70
    64
  3
----------  --  ----------  --  
 72
    65
 73
     4
 40
60.0
 49
37.5
 49
-7.5
 49
7.5
 49
-7.5
  0
LTYPE
  2
dashed
 70
   64
  3
-------   -------------   ------
 72
   65
 73
    2
 40
7.5
 49
6
 49
-1.5
  0
LTYPE
  2
dashed_spaced
 70
   64
  3
----        --------        ----
 72
   65
 73
    2
 40
12
 49
6
 49
-6
  0
LTYPE
  2
long_dashed_dotted
 70
   64
  3
------------- --- --------------
 72
   65
 73
    4
 40
15.25
 49
12
 49
-1.5
 49
0.25
 49
-1.5
  0
LTYPE
  2
long_dashed_double-dotted
 70
   64
  3
----------- --- --- ------------
 72
   65
 73
    6
 40
17
 49
12
 49
-1.5
 49
0.25
 49
-1.5
 49
0.25
 49
-1.5
  0
LTYPE
  2
long_dashed_triplicate-dotted
 70
   64
  3
--------- --- --- --- ----------
 72
   65
 73
    8
 40
18.75
 49
12
 49
-1.5
 49
0.25
 49
-1.5
 49
0.25
 49
-1.5
 49
0.25
 49
-1.5
  0
LTYPE
  2
dotted
 70
   64
  3
   -       -       -       -    
 72
   65
 73
    2
 40
1.75
 49
0.25
 49
-1.5
  0
LTYPE
  2
chain
 70
   64
  3
-------------- -- --------------
 72
   65
 73
    4
 40
18.5
 49
12
 49
-1.5
 49
3.5
 49
-1.5
  0
LTYPE
  2
chain_double_dash
 70
   64
  3
------------ -- -- -------------
 72
   65
 73
    6
 40
23.5
 49
12
 49
-1.5
 49
3.5
 49
-1.5
 49
3.5
 49
-1.5
  0
LTYPE
  2
dashed_dotted
 70
   64
  3
-----------     -     ----------
 72
   65
 73
    4
 40
9.25
 49
6
 49
-1.5
 49
0.25
 49
-1.5
  0
LTYPE
  2
double-dashed_dotted
 70
   64
  3
------   -----------   -   -----
 72
   65
 73
    6
 40
16.75
 49
6
 49
-1.5
 49
6
 49
-1.5
 49
0.25
 49
-1.5
  0
LTYPE
  2
dashed_double-dotted
 70
   64
  3
---------    -    -    ---------
 72
   65
 73
    6
 40
11
 49
6
 49
-1.5
 49
0.25
 49
-1.5
 49
0.25
 49
-1.5
  0
LTYPE
  2
double-dashed_double-dotted
 70
   64
  3
-----   ---------   -   -   ----
 72
   65
 73
    8
 40
18.5
 49
6
 49
-1.5
 49
6
 49
-1.5
 49
0.25
 49
-1.5
 49
0.25
 49
-1.5
  0
LTYPE
  2
dashed_triplicate-dotted
 70
   64
  3
-------    -    -    -    ------
 72
   65
 73
    8
 40
12.75
 49
6
 49
-1.5
 49
0.25
 49
-1.5
 49
0.25
 49
-1.5
 49
0.25
 49
-1.5
  0
LTYPE
  2
double-dashed_triplicate-dotted
 70
   64
  3
-----  ---------  -  -  -  -----
 72
   65
 73
   10
 40
20.25
 49
6
 49
-1.5
 49
6
 49
-1.5
 49
0.25
 49
-1.5
 49
0.25
 49
-1.5
 49
0.25
 49
-1.5
  0
LTYPE
  2
undefined
 70
   64
  3
--------------------------------
 72
   65
 73
    0
 40
0
  0
LTYPE
  2
_
 70
   64
  3
                                
 72
   65
 73
    0
 40
0
  0
LTYPE
  2
__18
 70
   64
  3
                                
 72
   65
 73
    0
 40
0
  0
LTYPE
  2
__19
 70
   64
  3
                                
 72
   65
 73
    0
 40
0
  0
LTYPE
  2
__20
 70
   64
  3
                                
 72
   65
 73
    0
 40
0
  0
LTYPE
  2
__21
 70
   64
  3
                                
 72
   65
 73
    0
 40
0
  0
LTYPE
  2
__22
 70
   64
  3
                                
 72
   65
 73
    0
 40
0
  0
LTYPE
  2
__23
 70
   64
  3
                                
 72
   65
 73
    0
 40
0
  0
LTYPE
  2
__24
 70
   64
  3
                                
 72
   65
 73
    0
 40
0
  0
LTYPE
  2
__25
 70
   64
  3
                                
 72
   65
 73
    0
 40
0
  0
LTYPE
  2
__26
 70
   64
  3
                                
 72
   65
 73
    0
 40
0
  0
LTYPE
  2
__27
 70
   64
  3
                                
 72
   65
 73
    0
 40
0
  0
LTYPE
  2
__28
 70
   64
  3
                                
 72
   65
 73
    0
 40
0
  0
LTYPE
  2
__29
 70
   64
  3
                                
 72
   65
 73
    0
 40
0
  0
LTYPE
  2
__30
 70
   64
  3
                                
 72
   65
 73
    0
 40
0
  0
LTYPE
  2
__31
 70
   64
  3
                                
 72
   65
 73
    0
 40
0
  0
LTYPE
  2
__32
 70
   64
  3
                                
 72
   65
 73
    0
 40
0
  0
ENDTAB
  0
TABLE
  2
STYLE
  5
3
100
AcDbSymbolTable
 70
     1
  0
STYLE
  5
10
100
AcDbSymbolTableRecord
100
AcDbTextStyleTableRecord
  2
STANDARD
 70
     0
 40
0.0
 41
1.0
 50
0.0
 71
     0
 42
0.2
  3
txt
  4
bigfont.shx
  0
STYLE
  5
26
100
AcDbSymbolTableRecord
100
AcDbTextStyleTableRecord
  2
TATEGAKI
 70
    68
 40
0.0
 41
1.0
 50
0.0
 71
     0
 42
1.0
  3
txt
  4
bigfont.shx
  0
ENDTAB
  0
TABLE
  2
LAYER
 70
    2
  0
LAYER
  2
_0-3_
 70
   64
 62
    7
  6
CONTINUOUS
  0
LAYER
  2
ADD_LINE
 70
   64
 62
    7
  6
CONTINUOUS
  0
ENDTAB
  0
ENDSEC
  0
SECTION
  2
BLOCKS
  0
ENDSEC
  0
SECTION
  2
ENTITIES
  0
ARC
  8
_0-3_
  6
CONTINUOUS
 62
    7
 10
73.5
 20
77.5
 40
15
 50
90
 51
270
  0
LINE
  8
_0-3_
  6
CONTINUOUS
 62
    7
 10
159.35786437626905
 20
-25
 11
141.42893218813452
 21
-7.0710678118654755
  0
LINE
  8
_0-3_
  6
CONTINUOUS
 62
    7
 10
141.42893218813452
 20
-7.0710678118654755
 11
138.5
 21
-10
  0
LINE
  8
_0-3_
  6
CONTINUOUS
 62
    7
 10
138.5
 20
-25
 11
138.5
 21
-10
  0
LINE
  8
_0-3_
  6
CONTINUOUS
 62
    7
 10
58.5
 20
-25
 11
58.5
 21
-15
  0
LINE
  8
_0-3_
  6
CONTINUOUS
 62
    7
 10
103.5
 20
175
 11
93.5
 21
175
  0
ARC
  8
_0-3_
  6
CONTINUOUS
 62
    7
 10
143.5
 20
130
 40
15
 50
180
 51
270
  0
ARC
  8
_0-3_
  6
CONTINUOUS
 62
    7
 10
143.5
 20
130
 40
5
 50
180
 51
270
  0
LINE
  8
_0-3_
  6
CONTINUOUS
 62
    7
 10
128.5
 20
245
 11
138.5
 21
245
  0
LINE
  8
_0-3_
  6
CONTINUOUS
 62
    7
 10
235.25
 20
199
 11
243.25
 21
193
  0
ARC
  8
_0-3_
  6
CONTINUOUS
 62
    7
 10
227.25
 20
205
 40
20
 50
270
 51
323.13010235415595
  0
ARC
  8
_0-3_
  6
CONTINUOUS
 62
    7
 10
227.25
 20
205
 40
10
 50
270
 51
323.13010235415595
  0
LINE
  8
_0-3_
  6
CONTINUOUS
 62
    7
 10
218.5
 20
195
 11
227.25
 21
195
  0
LINE
  8
_0-3_
  6
CONTINUOUS
 62
    7
 10
218.5
 20
185
 11
227.25
 21
185
  0
LINE
  8
_0-3_
  6
CONTINUOUS
 62
    7
 10
158.5
 20
115
 11
143.5
 21
115
  0
LINE
  8
_0-3_
  6
CONTINUOUS
 62
    7
 10
158.5
 20
125
 11
143.5
 21
125
  0
ARC
  8
_0-3_
  6
CONTINUOUS
 62
    7
 10
158.5
 20
130
 40
5
 50
270
 51
0
  0
LINE
  8
_0-3_
  6
CONTINUOUS
 62
    7
 10
163.5
 20
130
 11
173.5
 21
130
  0
ARC
  8
_0-3_
  6
CONTINUOUS
 62
    7
 10
158.5
 20
130
 40
15
 50
270
 51
0
  0
ARC
  8
_0-3_
  6
CONTINUOUS
 62
    7
 10
88.5
 20
60
 40
15
 50
270
 51
0
  0
ARC
  8
_0-3_
  6
CONTINUOUS
 62
    7
 10
88.5
 20
60
 40
5
 50
270
 51
0
  0
LINE
  8
_0-3_
  6
CONTINUOUS
 62
    7
 10
93.5
 20
95
 11
103.5
 21
95
  0
LINE
  8
_0-3_
  6
CONTINUOUS
 62
    7
 10
103.5
 20
60
 11
103.5
 21
95
  0
LINE
  8
_0-3_
  6
CONTINUOUS
 62
    7
 10
68.5
 20
60
 11
58.5
 21
60
  0
LINE
  8
_0-3_
  6
CONTINUOUS
 62
    7
 10
73.5
 20
45
 11
88.5
 21
45
  0
ARC
  8
_0-3_
  6
CONTINUOUS
 62
    7
 10
73.5
 20
60
 40
15
 50
180
 51
270
  0
LINE
  8
_0-3_
  6
CONTINUOUS
 62
    7
 10
73.5
 20
55
 11
88.5
 21
55
  0
ARC
  8
_0-3_
  6
CONTINUOUS
 62
    7
 10
73.5
 20
60
 40
5
 50
180
 51
270
  0
LINE
  8
_0-3_
  6
CONTINUOUS
 62
    7
 10
128.5
 20
105
 11
128.5
 21
45
  0
LINE
  8
_0-3_
  6
CONTINUOUS
 62
    7
 10
128.5
 20
45
 11
138.5
 21
45
  0
LINE
  8
_0-3_
  6
CONTINUOUS
 62
    7
 10
138.5
 20
105
 11
128.5
 21
105
  0
LINE
  8
_0-3_
  6
CONTINUOUS
 62
    7
 10
163.5
 20
45
 11
173.5
 21
45
  0
LINE
  8
_0-3_
  6
CONTINUOUS
 62
    7
 10
243.5
 20
155
 11
243.5
 21
145
  0
LINE
  8
_0-3_
  6
CONTINUOUS
 62
    7
 10
243.5
 20
175
 11
243.5
 21
165
  0
LINE
  8
_0-3_
  6
CONTINUOUS
 62
    7
 10
198.5
 20
145
 11
198.5
 21
155
  0
LINE
  8
_0-3_
  6
CONTINUOUS
 62
    7
 10
211
 20
115
 11
221
 21
115
  0
ARC
  8
_0-3_
  6
CONTINUOUS
 62
    7
 10
226
 20
160
 40
15
 50
90
 51
180
  0
ARC
  8
_0-3_
  6
CONTINUOUS
 62
    7
 10
226
 20
160
 40
5
 50
90
 51
180
  0
LINE
  8
_0-3_
  6
CONTINUOUS
 62
    7
 10
211
 20
160
 11
211
 21
155
  0
LINE
  8
_0-3_
  6
CONTINUOUS
 62
    7
 10
221
 20
160
 11
221
 21
155
  0
LINE
  8
_0-3_
  6
CONTINUOUS
 62
    7
 10
221
 20
145
 11
221
 21
115
  0
LINE
  8
_0-3_
  6
CONTINUOUS
 62
    7
 10
211
 20
145
 11
211
 21
115
  0
LINE
  8
_0-3_
  6
CONTINUOUS
 62
    7
 10
221
 20
155
 11
243.5
 21
155
  0
LINE
  8
_0-3_
  6
CONTINUOUS
 62
    7
 10
243.5
 20
145
 11
221
 21
145
  0
LINE
  8
_0-3_
  6
CONTINUOUS
 62
    7
 10
226
 20
175
 11
243.5
 21
175
  0
LINE
  8
_0-3_
  6
CONTINUOUS
 62
    7
 10
226
 20
165
 11
243.5
 21
165
  0
LINE
  8
_0-3_
  6
CONTINUOUS
 62
    7
 10
198.5
 20
155
 11
211
 21
155
  0
LINE
  8
_0-3_
  6
CONTINUOUS
 62
    7
 10
211
 20
145
 11
198.5
 21
145
  0
LINE
  8
_0-3_
  6
CONTINUOUS
 62
    7
 10
146
 20
212.5
 11
156
 21
212.5
  0
ARC
  8
_0-3_
  6
CONTINUOUS
 62
    7
 10
156
 20
205
 40
7.5
 50
270
 51
90
  0
LINE
  8
_0-3_
  6
CONTINUOUS
 62
    7
 10
146
 20
197.5
 11
156
 21
197.5
  0
LINE
  8
_0-3_
  6
CONTINUOUS
 62
    7
 10
146
 20
222.5
 11
156
 21
222.5
  0
ARC
  8
_0-3_
  6
CONTINUOUS
 62
    7
 10
156
 20
205
 40
17.5
 50
270
 51
90
  0
LINE
  8
_0-3_
  6
CONTINUOUS
 62
    7
 10
146
 20
187.5
 11
156
 21
187.5
  0
ARC
  8
_0-3_
  6
CONTINUOUS
 62
    7
 10
146
 20
205
 40
7.5
 50
90
 51
270
  0
ARC
  8
_0-3_
  6
CONTINUOUS
 62
    7
 10
146
 20
205
 40
17.5
 50
90.000000000000028
 51
115.37693352515234
  0
LINE
  8
_0-3_
  6
CONTINUOUS
 62
    7
 10
138.5
 20
245
 11
138.5
 21
220.81138830084188
  0
ARC
  8
_0-3_
  6
CONTINUOUS
 62
    7
 10
146
 20
205
 40
17.5
 50
244.62306647484766
 51
270
  0
LINE
  8
_0-3_
  6
CONTINUOUS
 62
    7
 10
76
 20
212.5
 11
86
 21
212.5
  0
ARC
  8
_0-3_
  6
CONTINUOUS
 62
    7
 10
86
 20
205
 40
17.5
 50
270
 51
295.37693352515231
  0
ARC
  8
_0-3_
  6
CONTINUOUS
 62
    7
 10
78.5
 20
212.5
 40
15
 50
41.810314895778603
 51
90
  0
LINE
  8
_0-3_
  6
CONTINUOUS
 62
    7
 10
76
 20
222.5
 11
89.680339887498945
 21
222.5
  0
ARC
  8
_0-3_
  6
CONTINUOUS
 62
    7
 10
78.5
 20
212.5
 40
25
 50
0
 51
90
  0
ARC
  8
_0-3_
  6
CONTINUOUS
 62
    7
 10
76
 20
205
 40
7.5
 50
90
 51
270
  0
LINE
  8
_0-3_
  6
CONTINUOUS
 62
    7
 10
76
 20
197.5
 11
86
 21
197.5
  0
ARC
  8
_0-3_
  6
CONTINUOUS
 62
    7
 10
86
 20
205
 40
7.5
 50
270
 51
90
  0
ARC
  8
_0-3_
  6
CONTINUOUS
 62
    7
 10
76
 20
205
 40
17.5
 50
90
 51
270
  0
LINE
  8
_0-3_
  6
CONTINUOUS
 62
    7
 10
86
 20
187.5
 11
76
 21
187.5
  0
LINE
  8
_0-3_
  6
CONTINUOUS
 62
    7
 10
63.5
 20
227.5
 11
63.5
 21
237.5
  0
LINE
  8
_0-3_
  6
CONTINUOUS
 62
    7
 10
78.5
 20
227.5
 11
63.5
 21
227.5
  0
LINE
  8
_0-3_
  6
CONTINUOUS
 62
    7
 10
78.5
 20
237.5
 11
63.5
 21
237.5
  0
LINE
  8
_0-3_
  6
CONTINUOUS
 62
    7
 10
128.5
 20
185
 11
128.5
 21
245
  0
LINE
  8
_0-3_
  6
CONTINUOUS
 62
    7
 10
128.5
 20
185
 11
138.5
 21
185
  0
LINE
  8
_0-3_
  6
CONTINUOUS
 62
    7
 10
138.5
 20
185
 11
138.5
 21
189.18861169915812
  0
LINE
  8
_0-3_
  6
CONTINUOUS
 62
    7
 10
93.5
 20
185
 11
103.5
 21
185
  0
LINE
  8
_0-3_
  6
CONTINUOUS
 62
    7
 10
93.5
 20
185
 11
93.5
 21
189.18861169915812
  0
LINE
  8
_0-3_
  6
CONTINUOUS
 62
    7
 10
103.5
 20
185
 11
103.5
 21
212.5
  0
LINE
  8
_0-3_
  6
CONTINUOUS
 62
    7
 10
86
 20
142.5
 11
76
 21
142.5
  0
ARC
  8
_0-3_
  6
CONTINUOUS
 62
    7
 10
76
 20
135
 40
7.5
 50
90
 51
270
  0
LINE
  8
_0-3_
  6
CONTINUOUS
 62
    7
 10
86
 20
127.5
 11
76
 21
127.5
  0
LINE
  8
_0-3_
  6
CONTINUOUS
 62
    7
 10
86
 20
152.5
 11
76
 21
152.5
  0
ARC
  8
_0-3_
  6
CONTINUOUS
 62
    7
 10
76
 20
135
 40
17.5
 50
90
 51
270
  0
LINE
  8
_0-3_
  6
CONTINUOUS
 62
    7
 10
86
 20
117.5
 11
76
 21
117.5
  0
ARC
  8
_0-3_
  6
CONTINUOUS
 62
    7
 10
86
 20
135
 40
7.5
 50
270
 51
90
  0
ARC
  8
_0-3_
  6
CONTINUOUS
 62
    7
 10
86
 20
135
 40
17.5
 50
64.62306647484769
 51
89.999999999999986
  0
LINE
  8
_0-3_
  6
CONTINUOUS
 62
    7
 10
93.5
 20
175
 11
93.5
 21
150.81138830084188
  0
ARC
  8
_0-3_
  6
CONTINUOUS
 62
    7
 10
86
 20
135
 40
17.5
 50
270
 51
295.37693352515231
  0
LINE
  8
_0-3_
  6
CONTINUOUS
 62
    7
 10
103.5
 20
115
 11
103.5
 21
175
  0
LINE
  8
_0-3_
  6
CONTINUOUS
 62
    7
 10
103.5
 20
115
 11
93.5
 21
115
  0
LINE
  8
_0-3_
  6
CONTINUOUS
 62
    7
 10
93.5
 20
115
 11
93.5
 21
119.1886116991581
  0
ARC
  8
_0-3_
  6
CONTINUOUS
 62
    7
 10
73.5
 20
77.5
 40
5
 50
90
 51
270
  0
LINE
  8
_0-3_
  6
CONTINUOUS
 62
    7
 10
88.5
 20
82.5
 11
73.5
 21
82.5
  0
ARC
  8
_0-3_
  6
CONTINUOUS
 62
    7
 10
88.5
 20
77.5
 40
5
 50
270
 51
90
  0
LINE
  8
_0-3_
  6
CONTINUOUS
 62
    7
 10
73.5
 20
72.5
 11
88.5
 21
72.5
  0
LINE
  8
_0-3_
  6
CONTINUOUS
 62
    7
 10
73.5
 20
92.5
 11
88.5
 21
92.5
  0
ARC
  8
_0-3_
  6
CONTINUOUS
 62
    7
 10
88.5
 20
77.5
 40
15
 50
270
 51
289.47122063449069
  0
LINE
  8
_0-3_
  6
CONTINUOUS
 62
    7
 10
93.5
 20
60
 11
93.5
 21
63.357864376269049
  0
ARC
  8
_0-3_
  6
CONTINUOUS
 62
    7
 10
88.5
 20
77.5
 40
15
 50
70.528779365509308
 51
90
  0
LINE
  8
_0-3_
  6
CONTINUOUS
 62
    7
 10
93.5
 20
91.642135623730951
 11
93.5
 21
95
  0
LINE
  8
_0-3_
  6
CONTINUOUS
 62
    7
 10
73.5
 20
62.5
 11
88.5
 21
62.5
  0
LINE
  8
_0-3_
  6
CONTINUOUS
 62
    7
 10
198.5
 20
90
 11
226
 21
90
  0
LINE
  8
_0-3_
  6
CONTINUOUS
 62
    7
 10
243.5
 20
55
 11
243.5
 21
45
  0
LINE
  8
_0-3_
  6
CONTINUOUS
 62
    7
 10
198.5
 20
80
 11
198.5
 21
90
  0
ARC
  8
_0-3_
  6
CONTINUOUS
 62
    7
 10
218.5
 20
102.5
 40
2.5
 50
90
 51
180
  0
LINE
  8
_0-3_
  6
CONTINUOUS
 62
    7
 10
223.5
 20
105
 11
218.5
 21
105
  0
ARC
  8
_0-3_
  6
CONTINUOUS
 62
    7
 10
223.5
 20
102.5
 40
2.5
 50
0
 51
90
  0
LINE
  8
_0-3_
  6
CONTINUOUS
 62
    7
 10
226
 20
97.5
 11
226
 21
102.5
  0
ARC
  8
_0-3_
  6
CONTINUOUS
 62
    7
 10
223.5
 20
97.5
 40
2.5
 50
270
 51
0
  0
LINE
  8
_0-3_
  6
CONTINUOUS
 62
    7
 10
218.5
 20
95
 11
223.5
 21
95
  0
LINE
  8
_0-3_
  6
CONTINUOUS
 62
    7
 10
216
 20
97.5
 11
216
 21
102.5
  0
ARC
  8
_0-3_
  6
CONTINUOUS
 62
    7
 10
218.5
 20
97.5
 40
2.5
 50
180
 51
270
  0
LINE
  8
_0-3_
  6
CONTINUOUS
 62
    7
 10
103.5
 20
20
 11
103.5
 21
10
  0
ARC
  8
_0-3_
  6
CONTINUOUS
 62
    7
 10
83.5
 20
32.5
 40
2.5
 50
90
 51
180
  0
LINE
  8
_0-3_
  6
CONTINUOUS
 62
    7
 10
88.5
 20
35
 11
83.5
 21
35
  0
ARC
  8
_0-3_
  6
CONTINUOUS
 62
    7
 10
88.5
 20
32.5
 40
2.5
 50
0
 51
90
  0
LINE
  8
_0-3_
  6
CONTINUOUS
 62
    7
 10
91
 20
27.5
 11
91
 21
32.5
  0
ARC
  8
_0-3_
  6
CONTINUOUS
 62
    7
 10
88.5
 20
27.5
 40
2.5
 50
270
 51
0
  0
LINE
  8
_0-3_
  6
CONTINUOUS
 62
    7
 10
83.5
 20
25
 11
88.5
 21
25
  0
LINE
  8
_0-3_
  6
CONTINUOUS
 62
    7
 10
81
 20
27.5
 11
81
 21
32.5
  0
ARC
  8
_0-3_
  6
CONTINUOUS
 62
    7
 10
83.5
 20
27.5
 40
2.5
 50
180
 51
270
  0
LINE
  8
_0-3_
  6
CONTINUOUS
 62
    7
 10
81
 20
20
 11
103.5
 21
20
  0
LINE
  8
_0-3_
  6
CONTINUOUS
 62
    7
 10
103.5
 20
10
 11
91
 21
10
  0
LINE
  8
_0-3_
  6
CONTINUOUS
 62
    7
 10
81
 20
0
 11
81
 21
20
  0
LINE
  8
_0-3_
  6
CONTINUOUS
 62
    7
 10
66
 20
-15
 11
58.5
 21
-15
  0
ARC
  8
_0-3_
  6
CONTINUOUS
 62
    7
 10
66
 20
0
 40
15
 50
270
 51
0
  0
LINE
  8
_0-3_
  6
CONTINUOUS
 62
    7
 10
66
 20
-25
 11
58.5
 21
-25
  0
LINE
  8
_0-3_
  6
CONTINUOUS
 62
    7
 10
91
 20
0
 11
91
 21
10
  0
ARC
  8
_0-3_
  6
CONTINUOUS
 62
    7
 10
66
 20
0
 40
25
 50
270
 51
0
  0
LINE
  8
_0-3_
  6
CONTINUOUS
 62
    7
 10
128.5
 20
35
 11
138.5
 21
35
  0
LINE
  8
_0-3_
  6
CONTINUOUS
 62
    7
 10
128.5
 20
35
 11
128.5
 21
-25
  0
LINE
  8
_0-3_
  6
CONTINUOUS
 62
    7
 10
128.5
 20
-25
 11
138.5
 21
-25
  0
LINE
  8
_0-3_
  6
CONTINUOUS
 62
    7
 10
159.35786437626905
 20
-25
 11
173.5
 21
-25
  0
LINE
  8
_0-3_
  6
CONTINUOUS
 62
    7
 10
173.5
 20
25
 11
159.35786437626905
 21
25
  0
LINE
  8
_0-3_
  6
CONTINUOUS
 62
    7
 10
138.5
 20
35
 11
138.5
 21
4.142135623730951
  0
LINE
  8
_0-3_
  6
CONTINUOUS
 62
    7
 10
159.35786437626905
 20
25
 11
138.5
 21
4.142135623730951
  0
LINE
  8
_0-3_
  6
CONTINUOUS
 62
    7
 10
173.5
 20
-25
 11
148.5
 21
0
  0
LINE
  8
_0-3_
  6
CONTINUOUS
 62
    7
 10
173.5
 20
25
 11
148.5
 21
0
  0
LINE
  8
_0-3_
  6
CONTINUOUS
 62
    7
 10
243.5
 20
-15
 11
243.5
 21
-25
  0
LINE
  8
_0-3_
  6
CONTINUOUS
 62
    7
 10
198.5
 20
25
 11
198.5
 21
35
  0
LINE
  8
_0-3_
  6
CONTINUOUS
 62
    7
 10
226
 20
60
 11
226
 21
90
  0
LINE
  8
_0-3_
  6
CONTINUOUS
 62
    7
 10
231
 20
55
 11
243.5
 21
55
  0
ARC
  8
_0-3_
  6
CONTINUOUS
 62
    7
 10
231
 20
60
 40
5
 50
180
 51
270
  0
LINE
  8
_0-3_
  6
CONTINUOUS
 62
    7
 10
231
 20
45
 11
243.5
 21
45
  0
ARC
  8
_0-3_
  6
CONTINUOUS
 62
    7
 10
231
 20
60
 40
15
 50
180
 51
270
  0
LINE
  8
_0-3_
  6
CONTINUOUS
 62
    7
 10
216
 20
80
 11
198.5
 21
80
  0
LINE
  8
_0-3_
  6
CONTINUOUS
 62
    7
 10
216
 20
60
 11
216
 21
80
  0
ARC
  8
_0-3_
  6
CONTINUOUS
 62
    7
 10
146
 20
147.5
 40
7.5
 50
90
 51
180
  0
LINE
  8
_0-3_
  6
CONTINUOUS
 62
    7
 10
156
 20
155
 11
146
 21
155
  0
ARC
  8
_0-3_
  6
CONTINUOUS
 62
    7
 10
156
 20
147.5
 40
7.5
 50
0
 51
90
  0
LINE
  8
_0-3_
  6
CONTINUOUS
 62
    7
 10
156
 20
165
 11
146
 21
165
  0
LINE
  8
_0-3_
  6
CONTINUOUS
 62
    7
 10
138.5
 20
135
 11
138.5
 21
130
  0
LINE
  8
_0-3_
  6
CONTINUOUS
 62
    7
 10
138.5
 20
135
 11
173.5
 21
135
  0
LINE
  8
_0-3_
  6
CONTINUOUS
 62
    7
 10
138.5
 20
145
 11
163.5
 21
145
  0
LINE
  8
_0-3_
  6
CONTINUOUS
 62
    7
 10
138.5
 20
147.5
 11
138.5
 21
145
  0
LINE
  8
_0-3_
  6
CONTINUOUS
 62
    7
 10
163.5
 20
147.5
 11
163.5
 21
145
  0
LINE
  8
_0-3_
  6
CONTINUOUS
 62
    7
 10
163.5
 20
65
 11
163.5
 21
45
  0
LINE
  8
_0-3_
  6
CONTINUOUS
 62
    7
 10
173.5
 20
45
 11
173.5
 21
65
  0
LINE
  8
_0-3_
  6
CONTINUOUS
 62
    7
 10
143.5
 20
80
 11
158.5
 21
80
  0
ARC
  8
_0-3_
  6
CONTINUOUS
 62
    7
 10
158.5
 20
65
 40
15
 50
0
 51
90
  0
ARC
  8
_0-3_
  6
CONTINUOUS
 62
    7
 10
158.5
 20
65
 40
5
 50
0
 51
90
  0
LINE
  8
_0-3_
  6
CONTINUOUS
 62
    7
 10
138.5
 20
65
 11
138.5
 21
45
  0
LINE
  8
_0-3_
  6
CONTINUOUS
 62
    7
 10
143.5
 20
70
 11
158.5
 21
70
  0
ARC
  8
_0-3_
  6
CONTINUOUS
 62
    7
 10
143.5
 20
65
 40
5
 50
90
 51
180
  0
ARC
  8
_0-3_
  6
CONTINUOUS
 62
    7
 10
143.5
 20
65
 40
15
 50
90
 51
109.47122063449069
  0
LINE
  8
_0-3_
  6
CONTINUOUS
 62
    7
 10
138.5
 20
105
 11
138.5
 21
79.142135623730951
  0
LINE
  8
_0-3_
  6
CONTINUOUS
 62
    7
 10
235.25
 20
221
 11
243.25
 21
227
  0
ARC
  8
_0-3_
  6
CONTINUOUS
 62
    7
 10
227.25
 20
215
 40
20
 50
36.86989764584402
 51
90
  0
LINE
  8
_0-3_
  6
CONTINUOUS
 62
    7
 10
218.5
 20
235
 11
227.25
 21
235
  0
LINE
  8
_0-3_
  6
CONTINUOUS
 62
    7
 10
218.5
 20
225
 11
227.25
 21
225
  0
ARC
  8
_0-3_
  6
CONTINUOUS
 62
    7
 10
227.25
 20
215
 40
10
 50
36.86989764584402
 51
90
  0
ARC
  8
_0-3_
  6
CONTINUOUS
 62
    7
 10
218.5
 20
215
 40
20
 50
90
 51
180
  0
ARC
  8
_0-3_
  6
CONTINUOUS
 62
    7
 10
218.5
 20
215
 40
10
 50
90
 51
180
  0
LINE
  8
_0-3_
  6
CONTINUOUS
 62
    7
 10
208.5
 20
215
 11
208.5
 21
205
  0
ARC
  8
_0-3_
  6
CONTINUOUS
 62
    7
 10
218.5
 20
205
 40
10
 50
180
 51
270
  0
LINE
  8
_0-3_
  6
CONTINUOUS
 62
    7
 10
198.5
 20
215
 11
198.5
 21
205
  0
ARC
  8
_0-3_
  6
CONTINUOUS
 62
    7
 10
218.5
 20
205
 40
20
 50
180
 51
270
  0
LINE
  8
_0-3_
  6
CONTINUOUS
 62
    7
 10
198.5
 20
35
 11
218.5
 21
35
  0
LINE
  8
_0-3_
  6
CONTINUOUS
 62
    7
 10
218.5
 20
-10
 11
218.5
 21
35
  0
LINE
  8
_0-3_
  6
CONTINUOUS
 62
    7
 10
223.5
 20
-15
 11
243.5
 21
-15
  0
ARC
  8
_0-3_
  6
CONTINUOUS
 62
    7
 10
223.5
 20
-10
 40
5
 50
180
 51
270
  0
LINE
  8
_0-3_
  6
CONTINUOUS
 62
    7
 10
223.5
 20
-25
 11
243.5
 21
-25
  0
ARC
  8
_0-3_
  6
CONTINUOUS
 62
    7
 10
223.5
 20
-10
 40
15
 50
180
 51
270
  0
LINE
  8
_0-3_
  6
CONTINUOUS
 62
    7
 10
208.5
 20
25
 11
198.5
 21
25
  0
LINE
  8
_0-3_
  6
CONTINUOUS
 62
    7
 10
208.5
 20
-10
 11
208.5
 21
25
  0
LINE
  8
_0-3_
  6
CONTINUOUS
 62
    7
 10
173.5
 20
147.5
 11
173.5
 21
135
  0
ARC
  8
_0-3_
  6
CONTINUOUS
 62
    7
 10
156
 20
147.5
 40
17.5
 50
0
 51
90
  0
LINE
  8
_0-3_
  6
CONTINUOUS
 62
    7
 10
128.5
 20
147.5
 11
128.5
 21
130
  0
ARC
  8
_0-3_
  6
CONTINUOUS
 62
    7
 10
146
 20
147.5
 40
17.5
 50
90
 51
180
  0
ENDSEC
  0
EOF
