  0
SECTION
  2
HEADER
  9
$ACADVER
  1
AC1009
  9
$INSBASE
 10
0
 20
0
 30
0
  9
$EXTMIN
 10
0
 20
0
  9
$EXTMAX
 10
297
 20
210
  9
$LIMMIN
 10
0
 20
0
  9
$LIMMAX
 10
297
 20
210
  9
$LTSCALE
 40
1
  0
ENDSEC
  0
SECTION
  2
TABLES
  0
TABLE
  2
LTYPE
 70
     9
  0
LTYPE
  2
CONTINUOUS
 70
    64
  3
実線
 72
    65
 73
     0
 40
0.0
  0
LTYPE
  2
DASHED1
 70
    64
  3
--  --  --  --  --  --  --  --  
 72
    65
 73
     2
 40
2.5
 49
1.25
 49
-1.25
  0
LTYPE
  2
DASHED2
 70
    64
  3
----    ----    ----    ----    
 72
    65
 73
     2
 40
5.0
 49
2.5
 49
-2.5
  0
LTYPE
  2
DASHED3
 70
    64
  3
------  ------  ------  ------  
 72
    65
 73
     2
 40
5.0
 49
3.75
 49
-1.25
  0
LTYPE
  2
CENTER1
 70
    64
  3
----- - ----- - ----- - ----- - 
 72
    65
 73
     4
 40
10.0
 49
6.25
 49
-1.25
 49
1.25
 49
-1.25
  0
LTYPE
  2
CENTER2
 70
    64
  3
----------  --  ----------  --  
 72
    65
 73
     4
 40
20.0
 49
12.5
 49
-2.5
 49
2.5
 49
-2.5
  0
LTYPE
  2
PHANTOM1
 70
    64
  3
--- - - --- - - --- - - --- - - 
 72
    65
 73
     6
 40
10.0
 49
3.25
 49
-1.25
 49
1.25
 49
-1.25
 49
1.25
 49
-1.25
  0
LTYPE
  2
PHANTOM2
 70
    64
  3
--------  -  -  --------  -  -  
 72
    65
 73
     6
 40
20.0
 49
10.0
 49
-2.5
 49
1.25
 49
-2.5
 49
1.25
 49
-2.5
  0
LTYPE
  2
DOT
 70
    64
  3
-   -   -   -   -   -   -   -   
 72
    65
 73
     2
 40
2.5
 49
0.625
 49
-1.875
  0
LTYPE
  2
DUMMY
 70
    64
  3
ダミー
 72
    65
 73
     0
 40
0.0
  0
LTYPE
  2
RAND1
 70
    64
  3
ランダム線1
 72
    65
 73
     4
 40
10.0
 49
1.0
 49
-2.0
 49
3.0
 49
-4.0
  0
LTYPE
  2
RAND2
 70
    64
  3
ランダム線2
 72
    65
 73
     4
 40
14.0
 49
2.0
 49
-3.0
 49
4.0
 49
-5.0
  0
LTYPE
  2
RAND3
 70
    64
  3
ランダム線3
 72
    65
 73
     4
 40
18.0
 49
3.0
 49
-4.0
 49
5.0
 49
-6.0
  0
LTYPE
  2
RAND4
 70
    64
  3
ランダム線4
 72
    65
 73
     4
 40
22.0
 49
4.0
 49
-5.0
 49
6.0
 49
-7.0
  0
LTYPE
  2
RAND5
 70
    64
  3
ランダム線5
 72
    65
 73
     4
 40
26.0
 49
5.0
 49
-6.0
 49
7.0
 49
-8.0
  0
LTYPE
  2
LONG1
 70
    64
  3
----------  --  ----------  --  
 72
    65
 73
     4
 40
40.0
 49
32.5
 49
-2.5
 49
2.5
 49
-2.5
  0
LTYPE
  2
LONG2
 70
    64
  3
--------  -  -  --------  -  -  
 72
    65
 73
     6
 40
40.0
 49
30.0
 49
-2.5
 49
1.25
 49
-2.5
 49
1.25
 49
-2.5
  0
LTYPE
  2
LONG3
 70
    64
  3
+++++++++++++++..+++++++++++++++
 72
    65
 73
     2
 40
40.0
 49
37.5
 49
-2.5
  0
LTYPE
  2
LONG4
 70
    64
  3
+++++++++++++++..+++++++++++++++
 72
    65
 73
     2
 40
80.0
 49
75.0
 49
-5.0
  0
LTYPE
  2
LONG5
 70
    64
  3
----------  --  ----------  --  
 72
    65
 73
     4
 40
60.0
 49
37.5
 49
-7.5
 49
7.5
 49
-7.5
  0
LTYPE
  2
dashed
 70
   64
  3
-------   -------------   ------
 72
   65
 73
    2
 40
7.5
 49
6
 49
-1.5
  0
LTYPE
  2
dashed_spaced
 70
   64
  3
----        --------        ----
 72
   65
 73
    2
 40
12
 49
6
 49
-6
  0
LTYPE
  2
long_dashed_dotted
 70
   64
  3
------------- --- --------------
 72
   65
 73
    4
 40
15.25
 49
12
 49
-1.5
 49
0.25
 49
-1.5
  0
LTYPE
  2
long_dashed_double-dotted
 70
   64
  3
----------- --- --- ------------
 72
   65
 73
    6
 40
17
 49
12
 49
-1.5
 49
0.25
 49
-1.5
 49
0.25
 49
-1.5
  0
LTYPE
  2
long_dashed_triplicate-dotted
 70
   64
  3
--------- --- --- --- ----------
 72
   65
 73
    8
 40
18.75
 49
12
 49
-1.5
 49
0.25
 49
-1.5
 49
0.25
 49
-1.5
 49
0.25
 49
-1.5
  0
LTYPE
  2
dotted
 70
   64
  3
   -       -       -       -    
 72
   65
 73
    2
 40
1.75
 49
0.25
 49
-1.5
  0
LTYPE
  2
chain
 70
   64
  3
-------------- -- --------------
 72
   65
 73
    4
 40
18.5
 49
12
 49
-1.5
 49
3.5
 49
-1.5
  0
LTYPE
  2
chain_double_dash
 70
   64
  3
------------ -- -- -------------
 72
   65
 73
    6
 40
23.5
 49
12
 49
-1.5
 49
3.5
 49
-1.5
 49
3.5
 49
-1.5
  0
LTYPE
  2
dashed_dotted
 70
   64
  3
-----------     -     ----------
 72
   65
 73
    4
 40
9.25
 49
6
 49
-1.5
 49
0.25
 49
-1.5
  0
LTYPE
  2
double-dashed_dotted
 70
   64
  3
------   -----------   -   -----
 72
   65
 73
    6
 40
16.75
 49
6
 49
-1.5
 49
6
 49
-1.5
 49
0.25
 49
-1.5
  0
LTYPE
  2
dashed_double-dotted
 70
   64
  3
---------    -    -    ---------
 72
   65
 73
    6
 40
11
 49
6
 49
-1.5
 49
0.25
 49
-1.5
 49
0.25
 49
-1.5
  0
LTYPE
  2
double-dashed_double-dotted
 70
   64
  3
-----   ---------   -   -   ----
 72
   65
 73
    8
 40
18.5
 49
6
 49
-1.5
 49
6
 49
-1.5
 49
0.25
 49
-1.5
 49
0.25
 49
-1.5
  0
LTYPE
  2
dashed_triplicate-dotted
 70
   64
  3
-------    -    -    -    ------
 72
   65
 73
    8
 40
12.75
 49
6
 49
-1.5
 49
0.25
 49
-1.5
 49
0.25
 49
-1.5
 49
0.25
 49
-1.5
  0
LTYPE
  2
double-dashed_triplicate-dotted
 70
   64
  3
-----  ---------  -  -  -  -----
 72
   65
 73
   10
 40
20.25
 49
6
 49
-1.5
 49
6
 49
-1.5
 49
0.25
 49
-1.5
 49
0.25
 49
-1.5
 49
0.25
 49
-1.5
  0
LTYPE
  2
undefined
 70
   64
  3
--------------------------------
 72
   65
 73
    0
 40
0
  0
LTYPE
  2
_
 70
   64
  3
                                
 72
   65
 73
    0
 40
0
  0
LTYPE
  2
__18
 70
   64
  3
                                
 72
   65
 73
    0
 40
0
  0
LTYPE
  2
__19
 70
   64
  3
                                
 72
   65
 73
    0
 40
0
  0
LTYPE
  2
__20
 70
   64
  3
                                
 72
   65
 73
    0
 40
0
  0
LTYPE
  2
__21
 70
   64
  3
                                
 72
   65
 73
    0
 40
0
  0
LTYPE
  2
__22
 70
   64
  3
                                
 72
   65
 73
    0
 40
0
  0
LTYPE
  2
__23
 70
   64
  3
                                
 72
   65
 73
    0
 40
0
  0
LTYPE
  2
__24
 70
   64
  3
                                
 72
   65
 73
    0
 40
0
  0
LTYPE
  2
__25
 70
   64
  3
                                
 72
   65
 73
    0
 40
0
  0
LTYPE
  2
__26
 70
   64
  3
                                
 72
   65
 73
    0
 40
0
  0
LTYPE
  2
__27
 70
   64
  3
                                
 72
   65
 73
    0
 40
0
  0
LTYPE
  2
__28
 70
   64
  3
                                
 72
   65
 73
    0
 40
0
  0
LTYPE
  2
__29
 70
   64
  3
                                
 72
   65
 73
    0
 40
0
  0
LTYPE
  2
__30
 70
   64
  3
                                
 72
   65
 73
    0
 40
0
  0
LTYPE
  2
__31
 70
   64
  3
                                
 72
   65
 73
    0
 40
0
  0
LTYPE
  2
__32
 70
   64
  3
                                
 72
   65
 73
    0
 40
0
  0
ENDTAB
  0
TABLE
  2
STYLE
  5
3
100
AcDbSymbolTable
 70
     1
  0
STYLE
  5
10
100
AcDbSymbolTableRecord
100
AcDbTextStyleTableRecord
  2
STANDARD
 70
     0
 40
0.0
 41
1.0
 50
0.0
 71
     0
 42
0.2
  3
txt
  4
bigfont.shx
  0
STYLE
  5
26
100
AcDbSymbolTableRecord
100
AcDbTextStyleTableRecord
  2
TATEGAKI
 70
    68
 40
0.0
 41
1.0
 50
0.0
 71
     0
 42
1.0
  3
txt
  4
bigfont.shx
  0
ENDTAB
  0
TABLE
  2
LAYER
 70
    3
  0
LAYER
  2
_0-0_
 70
   64
 62
    7
  6
CONTINUOUS
  0
LAYER
  2
_0-3_
 70
   64
 62
    7
  6
CONTINUOUS
  0
LAYER
  2
ADD_LINE
 70
   64
 62
    7
  6
CONTINUOUS
  0
ENDTAB
  0
ENDSEC
  0
SECTION
  2
BLOCKS
  0
ENDSEC
  0
SECTION
  2
ENTITIES
  0
LINE
  8
_0-3_
  6
CONTINUOUS
 62
    7
 10
58.5
 20
185
 11
68.5
 21
185
  0
LINE
  8
_0-3_
  6
CONTINUOUS
 62
    7
 10
93.5
 20
185
 11
103.5
 21
185
  0
LINE
  8
_0-3_
  6
CONTINUOUS
 62
    7
 10
128.5
 20
185
 11
138.5
 21
185
  0
LINE
  8
_0-3_
  6
CONTINUOUS
 62
    7
 10
163.5
 20
185
 11
173.5
 21
185
  0
ARC
  8
_0-3_
  6
CONTINUOUS
 62
    7
 10
223.5
 20
205
 40
10
 50
270
 51
0
  0
LINE
  8
_0-3_
  6
CONTINUOUS
 62
    7
 10
218.5
 20
195
 11
223.5
 21
195
  0
ARC
  8
_0-3_
  6
CONTINUOUS
 62
    7
 10
218.5
 20
205
 40
10
 50
180
 51
270
  0
ARC
  8
_0-3_
  6
CONTINUOUS
 62
    7
 10
223.5
 20
205
 40
20
 50
270
 51
0
  0
LINE
  8
_0-3_
  6
CONTINUOUS
 62
    7
 10
218.5
 20
185
 11
223.5
 21
185
  0
ARC
  8
_0-3_
  6
CONTINUOUS
 62
    7
 10
218.5
 20
205
 40
20
 50
180
 51
270
  0
LINE
  8
_0-3_
  6
CONTINUOUS
 62
    7
 10
68.5
 20
115
 11
58.5
 21
115
  0
LINE
  8
_0-3_
  6
CONTINUOUS
 62
    7
 10
73.5
 20
133.75
 11
88.5
 21
133.75
  0
LINE
  8
_0-3_
  6
CONTINUOUS
 62
    7
 10
73.5
 20
163.75
 11
88.5
 21
163.75
  0
ARC
  8
_0-3_
  6
CONTINUOUS
 62
    7
 10
88.5
 20
148.75
 40
15
 50
270
 51
90
  0
LINE
  8
_0-3_
  6
CONTINUOUS
 62
    7
 10
73.5
 20
153.75
 11
88.5
 21
153.75
  0
ARC
  8
_0-3_
  6
CONTINUOUS
 62
    7
 10
88.5
 20
148.75
 40
5
 50
270
 51
90
  0
LINE
  8
_0-3_
  6
CONTINUOUS
 62
    7
 10
68.5
 20
134.60786437626905
 11
68.5
 21
115
  0
ARC
  8
_0-3_
  6
CONTINUOUS
 62
    7
 10
73.5
 20
148.75
 40
15
 50
250.52877936550931
 51
270
  0
LINE
  8
_0-3_
  6
CONTINUOUS
 62
    7
 10
58.5
 20
115
 11
58.5
 21
165
  0
LINE
  8
_0-3_
  6
CONTINUOUS
 62
    7
 10
68.5
 20
165
 11
58.5
 21
165
  0
ARC
  8
_0-3_
  6
CONTINUOUS
 62
    7
 10
73.5
 20
148.75
 40
15
 50
90
 51
109.47122063449069
  0
LINE
  8
_0-3_
  6
CONTINUOUS
 62
    7
 10
68.5
 20
165
 11
68.5
 21
162.89213562373095
  0
ARC
  8
_0-3_
  6
CONTINUOUS
 62
    7
 10
73.5
 20
148.75
 40
5
 50
90
 51
270
  0
LINE
  8
_0-3_
  6
CONTINUOUS
 62
    7
 10
88.5
 20
143.75
 11
73.5
 21
143.75
  0
ARC
  8
_0-3_
  6
CONTINUOUS
 62
    7
 10
151
 20
148.75
 40
15
 50
270
 51
289.47122063449069
  0
LINE
  8
_0-3_
  6
CONTINUOUS
 62
    7
 10
156
 20
165
 11
166
 21
165
  0
ARC
  8
_0-3_
  6
CONTINUOUS
 62
    7
 10
151
 20
148.75
 40
15
 50
70.528779365509308
 51
90
  0
LINE
  8
_0-3_
  6
CONTINUOUS
 62
    7
 10
156
 20
165
 11
156
 21
162.89213562373095
  0
ARC
  8
_0-3_
  6
CONTINUOUS
 62
    7
 10
151
 20
148.75
 40
5
 50
270
 51
90
  0
LINE
  8
_0-3_
  6
CONTINUOUS
 62
    7
 10
151
 20
133.75
 11
143.5
 21
133.75
  0
LINE
  8
_0-3_
  6
CONTINUOUS
 62
    7
 10
151
 20
163.75
 11
143.5
 21
163.75
  0
ARC
  8
_0-3_
  6
CONTINUOUS
 62
    7
 10
143.5
 20
148.75
 40
15
 50
90
 51
270
  0
LINE
  8
_0-3_
  6
CONTINUOUS
 62
    7
 10
151
 20
153.75
 11
143.5
 21
153.75
  0
ARC
  8
_0-3_
  6
CONTINUOUS
 62
    7
 10
143.5
 20
148.75
 40
5
 50
90
 51
270
  0
LINE
  8
_0-3_
  6
CONTINUOUS
 62
    7
 10
143.5
 20
143.75
 11
151
 21
143.75
  0
LINE
  8
_0-3_
  6
CONTINUOUS
 62
    7
 10
173.5
 20
125
 11
173.5
 21
115
  0
LINE
  8
_0-3_
  6
CONTINUOUS
 62
    7
 10
166
 20
130
 11
166
 21
165
  0
LINE
  8
_0-3_
  6
CONTINUOUS
 62
    7
 10
171
 20
125
 11
173.5
 21
125
  0
ARC
  8
_0-3_
  6
CONTINUOUS
 62
    7
 10
171
 20
130
 40
5
 50
180
 51
270
  0
LINE
  8
_0-3_
  6
CONTINUOUS
 62
    7
 10
156
 20
130
 11
156
 21
134.60786437626905
  0
LINE
  8
_0-3_
  6
CONTINUOUS
 62
    7
 10
171
 20
115
 11
173.5
 21
115
  0
ARC
  8
_0-3_
  6
CONTINUOUS
 62
    7
 10
171
 20
130
 40
15
 50
180
 51
270
  0
LINE
  8
_0-3_
  6
CONTINUOUS
 62
    7
 10
203.5
 20
115
 11
213.5
 21
115
  0
LINE
  8
_0-3_
  6
CONTINUOUS
 62
    7
 10
58.5
 20
55
 11
58.5
 21
45
  0
ARC
  8
_0-3_
  6
CONTINUOUS
 62
    7
 10
73.5
 20
80
 40
5
 50
90
 51
270
  0
ARC
  8
_0-3_
  6
CONTINUOUS
 62
    7
 10
73.5
 20
80
 40
15
 50
90
 51
270
  0
LINE
  8
_0-3_
  6
CONTINUOUS
 62
    7
 10
58.5
 20
55
 11
88.5
 21
55
  0
LINE
  8
_0-3_
  6
CONTINUOUS
 62
    7
 10
58.5
 20
45
 11
88.5
 21
45
  0
ARC
  8
_0-3_
  6
CONTINUOUS
 62
    7
 10
88.5
 20
60
 40
5
 50
270
 51
90
  0
ARC
  8
_0-3_
  6
CONTINUOUS
 62
    7
 10
88.5
 20
60
 40
15
 50
270
 51
90
  0
LINE
  8
_0-3_
  6
CONTINUOUS
 62
    7
 10
73.5
 20
75
 11
88.5
 21
75
  0
LINE
  8
_0-3_
  6
CONTINUOUS
 62
    7
 10
73.5
 20
65
 11
88.5
 21
65
  0
LINE
  8
_0-3_
  6
CONTINUOUS
 62
    7
 10
73.5
 20
85
 11
103.5
 21
85
  0
LINE
  8
_0-3_
  6
CONTINUOUS
 62
    7
 10
103.5
 20
85
 11
103.5
 21
95
  0
LINE
  8
_0-3_
  6
CONTINUOUS
 62
    7
 10
103.5
 20
95
 11
73.5
 21
95
  0
LINE
  8
_0-3_
  6
CONTINUOUS
 62
    7
 10
143.5
 20
90
 11
128.5
 21
90
  0
LINE
  8
_0-3_
  6
CONTINUOUS
 62
    7
 10
128.5
 20
90
 11
128.5
 21
80
  0
LINE
  8
_0-3_
  6
CONTINUOUS
 62
    7
 10
128.5
 20
80
 11
143.5
 21
80
  0
LINE
  8
_0-3_
  6
CONTINUOUS
 62
    7
 10
173.5
 20
45
 11
173.5
 21
55
  0
LINE
  8
_0-3_
  6
CONTINUOUS
 62
    7
 10
153.5
 20
80
 11
173.5
 21
80
  0
LINE
  8
_0-3_
  6
CONTINUOUS
 62
    7
 10
173.5
 20
80
 11
173.5
 21
90
  0
LINE
  8
_0-3_
  6
CONTINUOUS
 62
    7
 10
173.5
 20
90
 11
153.5
 21
90
  0
LINE
  8
_0-3_
  6
CONTINUOUS
 62
    7
 10
153.5
 20
90
 11
153.5
 21
105
  0
LINE
  8
_0-3_
  6
CONTINUOUS
 62
    7
 10
153.5
 20
105
 11
143.5
 21
105
  0
LINE
  8
_0-3_
  6
CONTINUOUS
 62
    7
 10
143.5
 20
105
 11
143.5
 21
90
  0
LINE
  8
_0-3_
  6
CONTINUOUS
 62
    7
 10
153.5
 20
65
 11
153.5
 21
80
  0
LINE
  8
_0-3_
  6
CONTINUOUS
 62
    7
 10
163.5
 20
55
 11
173.5
 21
55
  0
ARC
  8
_0-3_
  6
CONTINUOUS
 62
    7
 10
163.5
 20
65
 40
10
 50
180
 51
270
  0
LINE
  8
_0-3_
  6
CONTINUOUS
 62
    7
 10
143.5
 20
65
 11
143.5
 21
80
  0
LINE
  8
_0-3_
  6
CONTINUOUS
 62
    7
 10
163.5
 20
45
 11
173.5
 21
45
  0
ARC
  8
_0-3_
  6
CONTINUOUS
 62
    7
 10
163.5
 20
65
 40
20
 50
180
 51
270
  0
ARC
  8
_0-3_
  6
CONTINUOUS
 62
    7
 10
218.5
 20
67.5
 40
10
 50
180
 51
270
  0
LINE
  8
_0-3_
  6
CONTINUOUS
 62
    7
 10
223.5
 20
57.5
 11
218.5
 21
57.5
  0
ARC
  8
_0-3_
  6
CONTINUOUS
 62
    7
 10
223.5
 20
67.5
 40
10
 50
270
 51
0
  0
ARC
  8
_0-3_
  6
CONTINUOUS
 62
    7
 10
218.5
 20
67.5
 40
20
 50
180
 51
270
  0
LINE
  8
_0-3_
  6
CONTINUOUS
 62
    7
 10
223.5
 20
47.5
 11
218.5
 21
47.5
  0
ARC
  8
_0-3_
  6
CONTINUOUS
 62
    7
 10
223.5
 20
67.5
 40
20
 50
270
 51
300
  0
LINE
  8
_0-3_
  6
CONTINUOUS
 62
    7
 10
233.5
 20
50.179491924311222
 11
233.5
 21
45
  0
LINE
  8
_0-3_
  6
CONTINUOUS
 62
    7
 10
233.5
 20
45
 11
243.5
 21
45
  0
LINE
  8
_0-3_
  6
CONTINUOUS
 62
    7
 10
198.5
 20
95
 11
208.5
 21
95
  0
LINE
  8
_0-3_
  6
CONTINUOUS
 62
    7
 10
243.5
 20
95
 11
233.5
 21
95
  0
LINE
  8
_0-3_
  6
CONTINUOUS
 62
    7
 10
208.5
 20
67.5
 11
208.5
 21
95
  0
LINE
  8
_0-3_
  6
CONTINUOUS
 62
    7
 10
233.5
 20
67.5
 11
233.5
 21
95
  0
LINE
  8
_0-3_
  6
CONTINUOUS
 62
    7
 10
198.5
 20
67.5
 11
198.5
 21
95
  0
LINE
  8
_0-3_
  6
CONTINUOUS
 62
    7
 10
243.5
 20
45
 11
243.5
 21
95
  0
LINE
  8
_0-3_
  6
CONTINUOUS
 62
    7
 10
243.5
 20
160
 11
243.5
 21
150
  0
LINE
  8
_0-3_
  6
CONTINUOUS
 62
    7
 10
213.5
 20
135
 11
213.5
 21
115
  0
LINE
  8
_0-3_
  6
CONTINUOUS
 62
    7
 10
228.5
 20
150
 11
243.5
 21
150
  0
ARC
  8
_0-3_
  6
CONTINUOUS
 62
    7
 10
228.5
 20
135
 40
15
 50
90
 51
180
  0
LINE
  8
_0-3_
  6
CONTINUOUS
 62
    7
 10
228.5
 20
160
 11
243.5
 21
160
  0
ARC
  8
_0-3_
  6
CONTINUOUS
 62
    7
 10
228.5
 20
135
 40
25
 50
90
 51
126.86989764584402
  0
LINE
  8
_0-3_
  6
CONTINUOUS
 62
    7
 10
198.5
 20
155
 11
198.5
 21
165
  0
LINE
  8
_0-3_
  6
CONTINUOUS
 62
    7
 10
213.5
 20
157
 11
213.5
 21
155
  0
LINE
  8
_0-3_
  6
CONTINUOUS
 62
    7
 10
205.5
 20
165
 11
198.5
 21
165
  0
ARC
  8
_0-3_
  6
CONTINUOUS
 62
    7
 10
205.5
 20
157
 40
8
 50
0
 51
90
  0
LINE
  8
_0-3_
  6
CONTINUOUS
 62
    7
 10
200.5
 20
155
 11
198.5
 21
155
  0
LINE
  8
_0-3_
  6
CONTINUOUS
 62
    7
 10
203.5
 20
152
 11
203.5
 21
115
  0
ARC
  8
_0-3_
  6
CONTINUOUS
 62
    7
 10
200.5
 20
152
 40
3
 50
0
 51
90
  0
LINE
  8
_0-3_
  6
CONTINUOUS
 62
    7
 10
128.5
 20
235
 11
138.5
 21
235
  0
LINE
  8
_0-3_
  6
CONTINUOUS
 62
    7
 10
128.5
 20
235
 11
128.5
 21
185
  0
LINE
  8
_0-3_
  6
CONTINUOUS
 62
    7
 10
148.5
 20
222.5
 11
153.5
 21
222.5
  0
LINE
  8
_0-3_
  6
CONTINUOUS
 62
    7
 10
138.5
 20
185
 11
138.5
 21
212.5
  0
ARC
  8
_0-3_
  6
CONTINUOUS
 62
    7
 10
148.5
 20
212.5
 40
10
 50
90
 51
180
  0
ARC
  8
_0-3_
  6
CONTINUOUS
 62
    7
 10
153.5
 20
212.5
 40
10
 50
0
 51
90
  0
LINE
  8
_0-3_
  6
CONTINUOUS
 62
    7
 10
163.5
 20
212.5
 11
163.5
 21
185
  0
LINE
  8
_0-3_
  6
CONTINUOUS
 62
    7
 10
173.5
 20
185
 11
173.5
 21
212.5
  0
ARC
  8
_0-3_
  6
CONTINUOUS
 62
    7
 10
153.5
 20
212.5
 40
20
 50
0
 51
90
  0
LINE
  8
_0-3_
  6
CONTINUOUS
 62
    7
 10
148.5
 20
232.5
 11
153.5
 21
232.5
  0
LINE
  8
_0-3_
  6
CONTINUOUS
 62
    7
 10
138.5
 20
235
 11
138.5
 21
229.82050807568879
  0
ARC
  8
_0-3_
  6
CONTINUOUS
 62
    7
 10
148.5
 20
212.5
 40
20
 50
90
 51
119.99999999999999
  0
LINE
  8
_0-3_
  6
CONTINUOUS
 62
    7
 10
68.5
 20
185
 11
68.5
 21
218.75
  0
LINE
  8
_0-3_
  6
CONTINUOUS
 62
    7
 10
76
 20
185
 11
76
 21
218.75
  0
LINE
  8
_0-3_
  6
CONTINUOUS
 62
    7
 10
86
 20
185
 11
86
 21
218.75
  0
LINE
  8
_0-3_
  6
CONTINUOUS
 62
    7
 10
93.5
 20
185
 11
93.5
 21
218.75
  0
LINE
  8
_0-3_
  6
CONTINUOUS
 62
    7
 10
103.5
 20
185
 11
103.5
 21
218.75
  0
ARC
  8
_0-3_
  6
CONTINUOUS
 62
    7
 10
72.25
 20
218.75
 40
3.75
 50
0
 51
180
  0
ARC
  8
_0-3_
  6
CONTINUOUS
 62
    7
 10
89.75
 20
218.75
 40
3.75
 50
0
 51
180
  0
ARC
  8
_0-3_
  6
CONTINUOUS
 62
    7
 10
72.25
 20
218.75
 40
13.75
 50
50.478803641357828
 51
105.82662013187236
  0
ARC
  8
_0-3_
  6
CONTINUOUS
 62
    7
 10
89.75
 20
218.75
 40
13.75
 50
0
 51
129.52119635864219
  0
LINE
  8
_0-3_
  6
CONTINUOUS
 62
    7
 10
58.5
 20
235
 11
58.5
 21
185
  0
LINE
  8
_0-3_
  6
CONTINUOUS
 62
    7
 10
58.5
 20
235
 11
68.5
 21
235
  0
LINE
  8
_0-3_
  6
CONTINUOUS
 62
    7
 10
68.5
 20
235
 11
68.5
 21
231.97875655532295
  0
ARC
  8
_0-3_
  6
CONTINUOUS
 62
    7
 10
218.5
 20
215
 40
10
 50
90
 51
180
  0
LINE
  8
_0-3_
  6
CONTINUOUS
 62
    7
 10
223.5
 20
225
 11
218.5
 21
225
  0
ARC
  8
_0-3_
  6
CONTINUOUS
 62
    7
 10
223.5
 20
215
 40
10
 50
0
 51
90
  0
LINE
  8
_0-3_
  6
CONTINUOUS
 62
    7
 10
233.5
 20
205
 11
233.5
 21
215
  0
LINE
  8
_0-3_
  6
CONTINUOUS
 62
    7
 10
208.5
 20
205
 11
208.5
 21
215
  0
ARC
  8
_0-3_
  6
CONTINUOUS
 62
    7
 10
218.5
 20
215
 40
20
 50
90
 51
180
  0
LINE
  8
_0-3_
  6
CONTINUOUS
 62
    7
 10
223.5
 20
235
 11
218.5
 21
235
  0
ARC
  8
_0-3_
  6
CONTINUOUS
 62
    7
 10
223.5
 20
215
 40
20
 50
0
 51
90
  0
LINE
  8
_0-3_
  6
CONTINUOUS
 62
    7
 10
243.5
 20
205
 11
243.5
 21
215
  0
LINE
  8
_0-3_
  6
CONTINUOUS
 62
    7
 10
198.5
 20
205
 11
198.5
 21
215
  0
LINE
  8
_0-3_
  6
CONTINUOUS
 62
    7
 10
58.5
 20
25
 11
68.5
 21
25
  0
LINE
  8
_0-3_
  6
CONTINUOUS
 62
    7
 10
93.5
 20
25
 11
103.5
 21
25
  0
LINE
  8
_0-3_
  6
CONTINUOUS
 62
    7
 10
103.5
 20
25
 11
86
 21
-25
  0
LINE
  8
_0-3_
  6
CONTINUOUS
 62
    7
 10
58.5
 20
25
 11
76
 21
-25
  0
LINE
  8
_0-3_
  6
CONTINUOUS
 62
    7
 10
76
 20
-25
 11
86
 21
-25
  0
LINE
  8
_0-3_
  6
CONTINUOUS
 62
    7
 10
68.5
 20
25
 11
81
 21
-10.714285714285722
  0
LINE
  8
_0-3_
  6
CONTINUOUS
 62
    7
 10
81
 20
-10.714285714285722
 11
93.5
 21
25
  0
LINE
  8
_0-3_
  6
CONTINUOUS
 62
    7
 10
128.5
 20
25
 11
138.5
 21
25
  0
LINE
  8
_0-3_
  6
CONTINUOUS
 62
    7
 10
163.5
 20
25
 11
173.5
 21
25
  0
LINE
  8
_0-3_
  6
CONTINUOUS
 62
    7
 10
128.5
 20
25
 11
138.5
 21
-25
  0
LINE
  8
_0-3_
  6
CONTINUOUS
 62
    7
 10
138.5
 20
-25
 11
148.5
 21
-25
  0
LINE
  8
_0-3_
  6
CONTINUOUS
 62
    7
 10
173.5
 20
25
 11
163.5
 21
-25
  0
LINE
  8
_0-3_
  6
CONTINUOUS
 62
    7
 10
163.5
 20
-25
 11
153.5
 21
-25
  0
LINE
  8
_0-3_
  6
CONTINUOUS
 62
    7
 10
148.5
 20
-25
 11
151
 21
-12.5
  0
LINE
  8
_0-3_
  6
CONTINUOUS
 62
    7
 10
153.5
 20
-25
 11
151
 21
-12.5
  0
LINE
  8
_0-3_
  6
CONTINUOUS
 62
    7
 10
138.5
 20
25
 11
144.05555555555554
 21
-2.7777777777777715
  0
LINE
  8
_0-3_
  6
CONTINUOUS
 62
    7
 10
163.5
 20
25
 11
157.94444444444446
 21
-2.7777777777777715
  0
LINE
  8
_0-3_
  6
CONTINUOUS
 62
    7
 10
149.75
 20
20
 11
144.05555555555554
 21
-2.7777777777777715
  0
LINE
  8
_0-3_
  6
CONTINUOUS
 62
    7
 10
149.75
 20
20
 11
152.25
 21
20
  0
LINE
  8
_0-3_
  6
CONTINUOUS
 62
    7
 10
152.25
 20
20
 11
157.94444444444446
 21
-2.7777777777777715
  0
LINE
  8
_0-3_
  6
CONTINUOUS
 62
    7
 10
198.5
 20
25
 11
209.75
 21
25
  0
LINE
  8
_0-3_
  6
CONTINUOUS
 62
    7
 10
243.5
 20
-25
 11
232.25
 21
-25
  0
LINE
  8
_0-3_
  6
CONTINUOUS
 62
    7
 10
243.5
 20
25
 11
232.25
 21
25
  0
LINE
  8
_0-3_
  6
CONTINUOUS
 62
    7
 10
198.5
 20
-25
 11
209.75
 21
-25
  0
LINE
  8
_0-3_
  6
CONTINUOUS
 62
    7
 10
209.75
 20
-25
 11
221
 21
-8.3333333333333428
  0
LINE
  8
_0-3_
  6
CONTINUOUS
 62
    7
 10
232.25
 20
-25
 11
221
 21
-8.3333333333333428
  0
LINE
  8
_0-3_
  6
CONTINUOUS
 62
    7
 10
215.375
 20
0
 11
198.5
 21
-25
  0
LINE
  8
_0-3_
  6
CONTINUOUS
 62
    7
 10
215.375
 20
0
 11
198.5
 21
25
  0
LINE
  8
_0-3_
  6
CONTINUOUS
 62
    7
 10
209.75
 20
25
 11
221
 21
8.3333333333333428
  0
LINE
  8
_0-3_
  6
CONTINUOUS
 62
    7
 10
232.25
 20
25
 11
221
 21
8.3333333333333428
  0
LINE
  8
_0-3_
  6
CONTINUOUS
 62
    7
 10
226.625
 20
0
 11
243.5
 21
25
  0
LINE
  8
_0-3_
  6
CONTINUOUS
 62
    7
 10
226.625
 20
0
 11
243.5
 21
-25
  0
LINE
  8
_0-0_
  6
CONTINUOUS
 62
    7
 10
76
 20
185
 11
86
 21
185
  0
ENDSEC
  0
EOF
