  0
SECTION
  2
HEADER
  9
$ACADVER
  1
AC1009
  9
$INSBASE
 10
0
 20
0
 30
0
  9
$EXTMIN
 10
0
 20
0
  9
$EXTMAX
 10
297
 20
210
  9
$LIMMIN
 10
0
 20
0
  9
$LIMMAX
 10
297
 20
210
  9
$LTSCALE
 40
1
  0
ENDSEC
  0
SECTION
  2
TABLES
  0
TABLE
  2
LTYPE
 70
     9
  0
LTYPE
  2
CONTINUOUS
 70
    64
  3
実線
 72
    65
 73
     0
 40
0.0
  0
LTYPE
  2
DASHED1
 70
    64
  3
--  --  --  --  --  --  --  --  
 72
    65
 73
     2
 40
2.5
 49
1.25
 49
-1.25
  0
LTYPE
  2
DASHED2
 70
    64
  3
----    ----    ----    ----    
 72
    65
 73
     2
 40
5.0
 49
2.5
 49
-2.5
  0
LTYPE
  2
DASHED3
 70
    64
  3
------  ------  ------  ------  
 72
    65
 73
     2
 40
5.0
 49
3.75
 49
-1.25
  0
LTYPE
  2
CENTER1
 70
    64
  3
----- - ----- - ----- - ----- - 
 72
    65
 73
     4
 40
10.0
 49
6.25
 49
-1.25
 49
1.25
 49
-1.25
  0
LTYPE
  2
CENTER2
 70
    64
  3
----------  --  ----------  --  
 72
    65
 73
     4
 40
20.0
 49
12.5
 49
-2.5
 49
2.5
 49
-2.5
  0
LTYPE
  2
PHANTOM1
 70
    64
  3
--- - - --- - - --- - - --- - - 
 72
    65
 73
     6
 40
10.0
 49
3.25
 49
-1.25
 49
1.25
 49
-1.25
 49
1.25
 49
-1.25
  0
LTYPE
  2
PHANTOM2
 70
    64
  3
--------  -  -  --------  -  -  
 72
    65
 73
     6
 40
20.0
 49
10.0
 49
-2.5
 49
1.25
 49
-2.5
 49
1.25
 49
-2.5
  0
LTYPE
  2
DOT
 70
    64
  3
-   -   -   -   -   -   -   -   
 72
    65
 73
     2
 40
2.5
 49
0.625
 49
-1.875
  0
LTYPE
  2
DUMMY
 70
    64
  3
ダミー
 72
    65
 73
     0
 40
0.0
  0
LTYPE
  2
RAND1
 70
    64
  3
ランダム線1
 72
    65
 73
     4
 40
10.0
 49
1.0
 49
-2.0
 49
3.0
 49
-4.0
  0
LTYPE
  2
RAND2
 70
    64
  3
ランダム線2
 72
    65
 73
     4
 40
14.0
 49
2.0
 49
-3.0
 49
4.0
 49
-5.0
  0
LTYPE
  2
RAND3
 70
    64
  3
ランダム線3
 72
    65
 73
     4
 40
18.0
 49
3.0
 49
-4.0
 49
5.0
 49
-6.0
  0
LTYPE
  2
RAND4
 70
    64
  3
ランダム線4
 72
    65
 73
     4
 40
22.0
 49
4.0
 49
-5.0
 49
6.0
 49
-7.0
  0
LTYPE
  2
RAND5
 70
    64
  3
ランダム線5
 72
    65
 73
     4
 40
26.0
 49
5.0
 49
-6.0
 49
7.0
 49
-8.0
  0
LTYPE
  2
LONG1
 70
    64
  3
----------  --  ----------  --  
 72
    65
 73
     4
 40
40.0
 49
32.5
 49
-2.5
 49
2.5
 49
-2.5
  0
LTYPE
  2
LONG2
 70
    64
  3
--------  -  -  --------  -  -  
 72
    65
 73
     6
 40
40.0
 49
30.0
 49
-2.5
 49
1.25
 49
-2.5
 49
1.25
 49
-2.5
  0
LTYPE
  2
LONG3
 70
    64
  3
+++++++++++++++..+++++++++++++++
 72
    65
 73
     2
 40
40.0
 49
37.5
 49
-2.5
  0
LTYPE
  2
LONG4
 70
    64
  3
+++++++++++++++..+++++++++++++++
 72
    65
 73
     2
 40
80.0
 49
75.0
 49
-5.0
  0
LTYPE
  2
LONG5
 70
    64
  3
----------  --  ----------  --  
 72
    65
 73
     4
 40
60.0
 49
37.5
 49
-7.5
 49
7.5
 49
-7.5
  0
LTYPE
  2
dashed
 70
   64
  3
-------   -------------   ------
 72
   65
 73
    2
 40
7.5
 49
6
 49
-1.5
  0
LTYPE
  2
dashed_spaced
 70
   64
  3
----        --------        ----
 72
   65
 73
    2
 40
12
 49
6
 49
-6
  0
LTYPE
  2
long_dashed_dotted
 70
   64
  3
------------- --- --------------
 72
   65
 73
    4
 40
15.25
 49
12
 49
-1.5
 49
0.25
 49
-1.5
  0
LTYPE
  2
long_dashed_double-dotted
 70
   64
  3
----------- --- --- ------------
 72
   65
 73
    6
 40
17
 49
12
 49
-1.5
 49
0.25
 49
-1.5
 49
0.25
 49
-1.5
  0
LTYPE
  2
long_dashed_triplicate-dotted
 70
   64
  3
--------- --- --- --- ----------
 72
   65
 73
    8
 40
18.75
 49
12
 49
-1.5
 49
0.25
 49
-1.5
 49
0.25
 49
-1.5
 49
0.25
 49
-1.5
  0
LTYPE
  2
dotted
 70
   64
  3
   -       -       -       -    
 72
   65
 73
    2
 40
1.75
 49
0.25
 49
-1.5
  0
LTYPE
  2
chain
 70
   64
  3
-------------- -- --------------
 72
   65
 73
    4
 40
18.5
 49
12
 49
-1.5
 49
3.5
 49
-1.5
  0
LTYPE
  2
chain_double_dash
 70
   64
  3
------------ -- -- -------------
 72
   65
 73
    6
 40
23.5
 49
12
 49
-1.5
 49
3.5
 49
-1.5
 49
3.5
 49
-1.5
  0
LTYPE
  2
dashed_dotted
 70
   64
  3
-----------     -     ----------
 72
   65
 73
    4
 40
9.25
 49
6
 49
-1.5
 49
0.25
 49
-1.5
  0
LTYPE
  2
double-dashed_dotted
 70
   64
  3
------   -----------   -   -----
 72
   65
 73
    6
 40
16.75
 49
6
 49
-1.5
 49
6
 49
-1.5
 49
0.25
 49
-1.5
  0
LTYPE
  2
dashed_double-dotted
 70
   64
  3
---------    -    -    ---------
 72
   65
 73
    6
 40
11
 49
6
 49
-1.5
 49
0.25
 49
-1.5
 49
0.25
 49
-1.5
  0
LTYPE
  2
double-dashed_double-dotted
 70
   64
  3
-----   ---------   -   -   ----
 72
   65
 73
    8
 40
18.5
 49
6
 49
-1.5
 49
6
 49
-1.5
 49
0.25
 49
-1.5
 49
0.25
 49
-1.5
  0
LTYPE
  2
dashed_triplicate-dotted
 70
   64
  3
-------    -    -    -    ------
 72
   65
 73
    8
 40
12.75
 49
6
 49
-1.5
 49
0.25
 49
-1.5
 49
0.25
 49
-1.5
 49
0.25
 49
-1.5
  0
LTYPE
  2
double-dashed_triplicate-dotted
 70
   64
  3
-----  ---------  -  -  -  -----
 72
   65
 73
   10
 40
20.25
 49
6
 49
-1.5
 49
6
 49
-1.5
 49
0.25
 49
-1.5
 49
0.25
 49
-1.5
 49
0.25
 49
-1.5
  0
LTYPE
  2
undefined
 70
   64
  3
--------------------------------
 72
   65
 73
    0
 40
0
  0
LTYPE
  2
_
 70
   64
  3
                                
 72
   65
 73
    0
 40
0
  0
LTYPE
  2
__18
 70
   64
  3
                                
 72
   65
 73
    0
 40
0
  0
LTYPE
  2
__19
 70
   64
  3
                                
 72
   65
 73
    0
 40
0
  0
LTYPE
  2
__20
 70
   64
  3
                                
 72
   65
 73
    0
 40
0
  0
LTYPE
  2
__21
 70
   64
  3
                                
 72
   65
 73
    0
 40
0
  0
LTYPE
  2
__22
 70
   64
  3
                                
 72
   65
 73
    0
 40
0
  0
LTYPE
  2
__23
 70
   64
  3
                                
 72
   65
 73
    0
 40
0
  0
LTYPE
  2
__24
 70
   64
  3
                                
 72
   65
 73
    0
 40
0
  0
LTYPE
  2
__25
 70
   64
  3
                                
 72
   65
 73
    0
 40
0
  0
LTYPE
  2
__26
 70
   64
  3
                                
 72
   65
 73
    0
 40
0
  0
LTYPE
  2
__27
 70
   64
  3
                                
 72
   65
 73
    0
 40
0
  0
LTYPE
  2
__28
 70
   64
  3
                                
 72
   65
 73
    0
 40
0
  0
LTYPE
  2
__29
 70
   64
  3
                                
 72
   65
 73
    0
 40
0
  0
LTYPE
  2
__30
 70
   64
  3
                                
 72
   65
 73
    0
 40
0
  0
LTYPE
  2
__31
 70
   64
  3
                                
 72
   65
 73
    0
 40
0
  0
LTYPE
  2
__32
 70
   64
  3
                                
 72
   65
 73
    0
 40
0
  0
ENDTAB
  0
TABLE
  2
STYLE
  5
3
100
AcDbSymbolTable
 70
     1
  0
STYLE
  5
10
100
AcDbSymbolTableRecord
100
AcDbTextStyleTableRecord
  2
STANDARD
 70
     0
 40
0.0
 41
1.0
 50
0.0
 71
     0
 42
0.2
  3
txt
  4
bigfont.shx
  0
STYLE
  5
26
100
AcDbSymbolTableRecord
100
AcDbTextStyleTableRecord
  2
TATEGAKI
 70
    68
 40
0.0
 41
1.0
 50
0.0
 71
     0
 42
1.0
  3
txt
  4
bigfont.shx
  0
ENDTAB
  0
TABLE
  2
LAYER
 70
    2
  0
LAYER
  2
_0-3_
 70
   64
 62
    7
  6
CONTINUOUS
  0
LAYER
  2
ADD_LINE
 70
   64
 62
    7
  6
CONTINUOUS
  0
ENDTAB
  0
ENDSEC
  0
SECTION
  2
BLOCKS
  0
ENDSEC
  0
SECTION
  2
ENTITIES
  0
LINE
  8
_0-3_
  6
CONTINUOUS
 62
    7
 10
93.5
 20
185
 11
93.5
 21
245
  0
LINE
  8
_0-3_
  6
CONTINUOUS
 62
    7
 10
68.5
 20
185
 11
93.5
 21
185
  0
LINE
  8
_0-3_
  6
CONTINUOUS
 62
    7
 10
68.5
 20
195
 11
68.5
 21
185
  0
LINE
  8
_0-3_
  6
CONTINUOUS
 62
    7
 10
83.5
 20
195
 11
68.5
 21
195
  0
LINE
  8
_0-3_
  6
CONTINUOUS
 62
    7
 10
83.5
 20
235
 11
83.5
 21
195
  0
LINE
  8
_0-3_
  6
CONTINUOUS
 62
    7
 10
68.5
 20
235
 11
83.5
 21
235
  0
LINE
  8
_0-3_
  6
CONTINUOUS
 62
    7
 10
68.5
 20
245
 11
68.5
 21
235
  0
LINE
  8
_0-3_
  6
CONTINUOUS
 62
    7
 10
93.5
 20
245
 11
68.5
 21
245
  0
LINE
  8
_0-3_
  6
CONTINUOUS
 62
    7
 10
198.5
 20
195
 11
243.5
 21
195
  0
LINE
  8
_0-3_
  6
CONTINUOUS
 62
    7
 10
243.5
 20
195
 11
243.5
 21
185
  0
LINE
  8
_0-3_
  6
CONTINUOUS
 62
    7
 10
243.5
 20
185
 11
198.5
 21
185
  0
LINE
  8
_0-3_
  6
CONTINUOUS
 62
    7
 10
198.5
 20
185
 11
198.5
 21
195
  0
LINE
  8
_0-3_
  6
CONTINUOUS
 62
    7
 10
73.5
 20
175
 11
83.5
 21
175
  0
LINE
  8
_0-3_
  6
CONTINUOUS
 62
    7
 10
83.5
 20
175
 11
88.5
 21
160
  0
LINE
  8
_0-3_
  6
CONTINUOUS
 62
    7
 10
88.5
 20
160
 11
81
 21
160
  0
LINE
  8
_0-3_
  6
CONTINUOUS
 62
    7
 10
81
 20
160
 11
73.5
 21
175
  0
LINE
  8
_0-3_
  6
CONTINUOUS
 62
    7
 10
58.5
 20
120
 11
63.5
 21
120
  0
LINE
  8
_0-3_
  6
CONTINUOUS
 62
    7
 10
63.5
 20
120
 11
63.5
 21
115
  0
LINE
  8
_0-3_
  6
CONTINUOUS
 62
    7
 10
63.5
 20
115
 11
58.5
 21
115
  0
LINE
  8
_0-3_
  6
CONTINUOUS
 62
    7
 10
58.5
 20
115
 11
58.5
 21
120
  0
LINE
  8
_0-3_
  6
CONTINUOUS
 62
    7
 10
216
 20
175
 11
216
 21
115
  0
LINE
  8
_0-3_
  6
CONTINUOUS
 62
    7
 10
216
 20
115
 11
226
 21
115
  0
LINE
  8
_0-3_
  6
CONTINUOUS
 62
    7
 10
226
 20
115
 11
226
 21
175
  0
LINE
  8
_0-3_
  6
CONTINUOUS
 62
    7
 10
226
 20
175
 11
216
 21
175
  0
ARC
  8
_0-3_
  6
CONTINUOUS
 62
    7
 10
143.5
 20
82.5
 40
5
 50
180
 51
295.52877936550919
  0
LINE
  8
_0-3_
  6
CONTINUOUS
 62
    7
 10
145.65482203135576
 20
77.988155364689078
 11
152.03553390593274
 21
81.035533905932738
  0
LINE
  8
_0-3_
  6
CONTINUOUS
 62
    7
 10
149.96446609406729
 20
68.964466094067262
 11
156.34517796864424
 21
72.011844635310922
  0
ARC
  8
_0-3_
  6
CONTINUOUS
 62
    7
 10
158.5
 20
67.5
 40
5
 50
0
 51
115.52877936550939
  0
ARC
  8
_0-3_
  6
CONTINUOUS
 62
    7
 10
143.5
 20
82.5
 40
15
 50
189.39909348831307
 51
295.52877936550937
  0
LINE
  8
_0-3_
  6
CONTINUOUS
 62
    7
 10
138.5
 20
82.5
 11
128.70137881654358
 21
80.050344704135895
  0
LINE
  8
_0-3_
  6
CONTINUOUS
 62
    7
 10
163.5
 20
67.5
 11
173.29862118345642
 21
69.949655295864105
  0
ARC
  8
_0-3_
  6
CONTINUOUS
 62
    7
 10
158.5
 20
67.5
 40
15
 50
9.3990934883130581
 51
115.52877936550931
  0
LINE
  8
_0-3_
  6
CONTINUOUS
 62
    7
 10
128.5
 20
50
 11
133.5
 21
50
  0
LINE
  8
_0-3_
  6
CONTINUOUS
 62
    7
 10
133.5
 20
50
 11
133.5
 21
45
  0
LINE
  8
_0-3_
  6
CONTINUOUS
 62
    7
 10
133.5
 20
45
 11
128.5
 21
45
  0
LINE
  8
_0-3_
  6
CONTINUOUS
 62
    7
 10
128.5
 20
45
 11
128.5
 21
50
  0
LINE
  8
_0-3_
  6
CONTINUOUS
 62
    7
 10
198.5
 20
120
 11
203.5
 21
120
  0
LINE
  8
_0-3_
  6
CONTINUOUS
 62
    7
 10
203.5
 20
120
 11
203.5
 21
115
  0
LINE
  8
_0-3_
  6
CONTINUOUS
 62
    7
 10
203.5
 20
115
 11
198.5
 21
115
  0
LINE
  8
_0-3_
  6
CONTINUOUS
 62
    7
 10
198.5
 20
115
 11
198.5
 21
120
  0
LINE
  8
_0-3_
  6
CONTINUOUS
 62
    7
 10
128.5
 20
190
 11
133.5
 21
190
  0
LINE
  8
_0-3_
  6
CONTINUOUS
 62
    7
 10
133.5
 20
190
 11
133.5
 21
185
  0
LINE
  8
_0-3_
  6
CONTINUOUS
 62
    7
 10
133.5
 20
185
 11
128.5
 21
185
  0
LINE
  8
_0-3_
  6
CONTINUOUS
 62
    7
 10
128.5
 20
185
 11
128.5
 21
190
  0
LINE
  8
_0-3_
  6
CONTINUOUS
 62
    7
 10
151
 20
245
 11
129.75
 21
223.75
  0
LINE
  8
_0-3_
  6
CONTINUOUS
 62
    7
 10
151
 20
245
 11
172.25
 21
223.75
  0
LINE
  8
_0-3_
  6
CONTINUOUS
 62
    7
 10
151
 20
232.5
 11
136
 21
217.5
  0
LINE
  8
_0-3_
  6
CONTINUOUS
 62
    7
 10
129.75
 20
223.75
 11
136
 21
217.5
  0
LINE
  8
_0-3_
  6
CONTINUOUS
 62
    7
 10
151
 20
232.5
 11
166
 21
217.5
  0
LINE
  8
_0-3_
  6
CONTINUOUS
 62
    7
 10
172.25
 20
223.75
 11
166
 21
217.5
  0
LINE
  8
_0-3_
  6
CONTINUOUS
 62
    7
 10
157.25
 20
175
 11
162.25
 21
175
  0
LINE
  8
_0-3_
  6
CONTINUOUS
 62
    7
 10
162.25
 20
175
 11
162.25
 21
165
  0
LINE
  8
_0-3_
  6
CONTINUOUS
 62
    7
 10
162.25
 20
165
 11
157.25
 21
165
  0
LINE
  8
_0-3_
  6
CONTINUOUS
 62
    7
 10
162.25
 20
125
 11
162.25
 21
115
  0
LINE
  8
_0-3_
  6
CONTINUOUS
 62
    7
 10
162.25
 20
115
 11
157.25
 21
115
  0
ARC
  8
_0-3_
  6
CONTINUOUS
 62
    7
 10
157.25
 20
163.75
 40
11.25
 50
90
 51
180
  0
ARC
  8
_0-3_
  6
CONTINUOUS
 62
    7
 10
157.25
 20
163.75
 40
1.25
 50
90
 51
180
  0
ARC
  8
_0-3_
  6
CONTINUOUS
 62
    7
 10
157.25
 20
126.25
 40
1.25
 50
180
 51
270
  0
LINE
  8
_0-3_
  6
CONTINUOUS
 62
    7
 10
157.25
 20
125
 11
162.25
 21
125
  0
ARC
  8
_0-3_
  6
CONTINUOUS
 62
    7
 10
157.25
 20
126.25
 40
11.25
 50
180
 51
270
  0
ARC
  8
_0-3_
  6
CONTINUOUS
 62
    7
 10
144.75
 20
151.25
 40
1.25
 50
270
 51
0
  0
LINE
  8
_0-3_
  6
CONTINUOUS
 62
    7
 10
146
 20
163.75
 11
146
 21
151.25
  0
LINE
  8
_0-3_
  6
CONTINUOUS
 62
    7
 10
144.75
 20
150
 11
139.75
 21
150
  0
LINE
  8
_0-3_
  6
CONTINUOUS
 62
    7
 10
139.75
 20
150
 11
139.75
 21
140
  0
LINE
  8
_0-3_
  6
CONTINUOUS
 62
    7
 10
139.75
 20
140
 11
144.75
 21
140
  0
ARC
  8
_0-3_
  6
CONTINUOUS
 62
    7
 10
144.75
 20
138.75
 40
1.25
 50
0
 51
90
  0
LINE
  8
_0-3_
  6
CONTINUOUS
 62
    7
 10
146
 20
126.25
 11
146
 21
138.75
  0
LINE
  8
_0-3_
  6
CONTINUOUS
 62
    7
 10
156
 20
126.25
 11
156
 21
138.75
  0
LINE
  8
_0-3_
  6
CONTINUOUS
 62
    7
 10
156
 20
163.75
 11
156
 21
151.25
  0
ARC
  8
_0-3_
  6
CONTINUOUS
 62
    7
 10
144.75
 20
138.75
 40
11.25
 50
0
 51
33.748988595888576
  0
ARC
  8
_0-3_
  6
CONTINUOUS
 62
    7
 10
144.75
 20
151.25
 40
11.25
 50
326.25101140411141
 51
0
  0
LINE
  8
_0-3_
  6
CONTINUOUS
 62
    7
 10
74.75
 20
105
 11
69.75
 21
105
  0
LINE
  8
_0-3_
  6
CONTINUOUS
 62
    7
 10
69.75
 20
105
 11
69.75
 21
95
  0
LINE
  8
_0-3_
  6
CONTINUOUS
 62
    7
 10
69.75
 20
95
 11
74.75
 21
95
  0
LINE
  8
_0-3_
  6
CONTINUOUS
 62
    7
 10
69.75
 20
55
 11
69.75
 21
45
  0
LINE
  8
_0-3_
  6
CONTINUOUS
 62
    7
 10
69.75
 20
45
 11
74.75
 21
45
  0
ARC
  8
_0-3_
  6
CONTINUOUS
 62
    7
 10
74.75
 20
93.75
 40
11.25
 50
0
 51
90
  0
ARC
  8
_0-3_
  6
CONTINUOUS
 62
    7
 10
74.75
 20
93.75
 40
1.25
 50
0
 51
90
  0
ARC
  8
_0-3_
  6
CONTINUOUS
 62
    7
 10
74.75
 20
56.25
 40
1.25
 50
270
 51
0
  0
LINE
  8
_0-3_
  6
CONTINUOUS
 62
    7
 10
74.75
 20
55
 11
69.75
 21
55
  0
ARC
  8
_0-3_
  6
CONTINUOUS
 62
    7
 10
74.75
 20
56.25
 40
11.25
 50
270
 51
0
  0
ARC
  8
_0-3_
  6
CONTINUOUS
 62
    7
 10
87.25
 20
81.25
 40
1.25
 50
180
 51
270
  0
LINE
  8
_0-3_
  6
CONTINUOUS
 62
    7
 10
86
 20
93.75
 11
86
 21
81.25
  0
LINE
  8
_0-3_
  6
CONTINUOUS
 62
    7
 10
87.25
 20
80
 11
92.25
 21
80
  0
LINE
  8
_0-3_
  6
CONTINUOUS
 62
    7
 10
92.25
 20
80
 11
92.25
 21
70
  0
LINE
  8
_0-3_
  6
CONTINUOUS
 62
    7
 10
92.25
 20
70
 11
87.25
 21
70
  0
ARC
  8
_0-3_
  6
CONTINUOUS
 62
    7
 10
87.25
 20
68.75
 40
1.25
 50
90
 51
180
  0
LINE
  8
_0-3_
  6
CONTINUOUS
 62
    7
 10
86
 20
56.25
 11
86
 21
68.75
  0
LINE
  8
_0-3_
  6
CONTINUOUS
 62
    7
 10
76
 20
56.25
 11
76
 21
68.75
  0
LINE
  8
_0-3_
  6
CONTINUOUS
 62
    7
 10
76
 20
93.75
 11
76
 21
81.25
  0
ARC
  8
_0-3_
  6
CONTINUOUS
 62
    7
 10
87.25
 20
68.75
 40
11.25
 50
146.25101140411141
 51
180
  0
ARC
  8
_0-3_
  6
CONTINUOUS
 62
    7
 10
87.25
 20
81.25
 40
11.25
 50
180
 51
213.74898859588859
  0
LINE
  8
_0-3_
  6
CONTINUOUS
 62
    7
 10
128.5
 20
120
 11
134.75
 21
120
  0
LINE
  8
_0-3_
  6
CONTINUOUS
 62
    7
 10
134.75
 20
120
 11
134.75
 21
115
  0
LINE
  8
_0-3_
  6
CONTINUOUS
 62
    7
 10
134.75
 20
115
 11
128.5
 21
115
  0
LINE
  8
_0-3_
  6
CONTINUOUS
 62
    7
 10
128.5
 20
115
 11
128.5
 21
120
  0
LINE
  8
_0-3_
  6
CONTINUOUS
 62
    7
 10
58.5
 20
50
 11
63.5
 21
50
  0
LINE
  8
_0-3_
  6
CONTINUOUS
 62
    7
 10
63.5
 20
50
 11
63.5
 21
45
  0
LINE
  8
_0-3_
  6
CONTINUOUS
 62
    7
 10
63.5
 20
45
 11
58.5
 21
45
  0
LINE
  8
_0-3_
  6
CONTINUOUS
 62
    7
 10
58.5
 20
45
 11
58.5
 21
50
  0
LINE
  8
_0-3_
  6
CONTINUOUS
 62
    7
 10
58.5
 20
-15
 11
58.5
 21
-25
  0
LINE
  8
_0-3_
  6
CONTINUOUS
 62
    7
 10
65.527565268369727
 20
-25
 11
58.5
 21
-25
  0
ARC
  8
_0-3_
  6
CONTINUOUS
 62
    7
 10
65.527565268369727
 20
-10
 40
15
 50
270
 51
334.88516511385546
  0
LINE
  8
_0-3_
  6
CONTINUOUS
 62
    7
 10
69.544123154420191
 20
25
 11
58.5
 21
25
  0
LINE
  8
_0-3_
  6
CONTINUOUS
 62
    7
 10
78.5
 20
5.894129396096389
 11
69.544123154420191
 21
25
  0
LINE
  8
_0-3_
  6
CONTINUOUS
 62
    7
 10
78.5
 20
5.894129396096389
 11
87.455876845579809
 21
25
  0
LINE
  8
_0-3_
  6
CONTINUOUS
 62
    7
 10
65.527565268369713
 20
-15
 11
58.5
 21
-15
  0
ARC
  8
_0-3_
  6
CONTINUOUS
 62
    7
 10
65.527565268369713
 20
-10
 40
5
 50
270
 51
334.88516511385546
  0
LINE
  8
_0-3_
  6
CONTINUOUS
 62
    7
 10
72.977938422789904
 20
-5.8862686352851341
 11
58.5
 21
25
  0
LINE
  8
_0-3_
  6
CONTINUOUS
 62
    7
 10
70.054859948164065
 20
-12.122169381153597
 11
72.977938422789904
 21
-5.8862686352851341
  0
LINE
  8
_0-3_
  6
CONTINUOUS
 62
    7
 10
87.455876845579809
 20
25
 11
103.5
 21
25
  0
LINE
  8
_0-3_
  6
CONTINUOUS
 62
    7
 10
103.5
 20
25
 11
103.5
 21
15
  0
LINE
  8
_0-3_
  6
CONTINUOUS
 62
    7
 10
79.109449307752755
 20
-16.366508143460791
 11
93.8125
 21
15
  0
LINE
  8
_0-3_
  6
CONTINUOUS
 62
    7
 10
103.5
 20
15
 11
93.8125
 21
15
  0
LINE
  8
_0-3_
  6
CONTINUOUS
 62
    7
 10
128.5
 20
25
 11
173.5
 21
25
  0
LINE
  8
_0-3_
  6
CONTINUOUS
 62
    7
 10
128.5
 20
25
 11
128.5
 21
15
  0
LINE
  8
_0-3_
  6
CONTINUOUS
 62
    7
 10
173.5
 20
-25
 11
173.5
 21
-15
  0
LINE
  8
_0-3_
  6
CONTINUOUS
 62
    7
 10
173.5
 20
-25
 11
128.5
 21
-25
  0
LINE
  8
_0-3_
  6
CONTINUOUS
 62
    7
 10
128.5
 20
-25
 11
128.5
 21
-15
  0
LINE
  8
_0-3_
  6
CONTINUOUS
 62
    7
 10
163.5
 20
15
 11
128.5
 21
-15
  0
LINE
  8
_0-3_
  6
CONTINUOUS
 62
    7
 10
128.5
 20
15
 11
163.5
 21
15
  0
LINE
  8
_0-3_
  6
CONTINUOUS
 62
    7
 10
173.5
 20
10.400650775295873
 11
173.5
 21
25
  0
LINE
  8
_0-3_
  6
CONTINUOUS
 62
    7
 10
173.5
 20
-15
 11
143.86590742882149
 21
-15
  0
LINE
  8
_0-3_
  6
CONTINUOUS
 62
    7
 10
173.5
 20
10.400650775295873
 11
143.86590742882149
 21
-15
  0
LINE
  8
_0-3_
  6
CONTINUOUS
 62
    7
 10
58.5
 20
190
 11
63.5
 21
190
  0
LINE
  8
_0-3_
  6
CONTINUOUS
 62
    7
 10
63.5
 20
190
 11
63.5
 21
185
  0
LINE
  8
_0-3_
  6
CONTINUOUS
 62
    7
 10
63.5
 20
185
 11
58.5
 21
185
  0
LINE
  8
_0-3_
  6
CONTINUOUS
 62
    7
 10
58.5
 20
185
 11
58.5
 21
190
  0
ENDSEC
  0
EOF
