  0
SECTION
  2
HEADER
  9
$ACADVER
  1
AC1009
  9
$INSBASE
 10
0
 20
0
 30
0
  9
$EXTMIN
 10
0
 20
0
  9
$EXTMAX
 10
297
 20
210
  9
$LIMMIN
 10
0
 20
0
  9
$LIMMAX
 10
297
 20
210
  9
$LTSCALE
 40
1
  0
ENDSEC
  0
SECTION
  2
TABLES
  0
TABLE
  2
LTYPE
 70
     9
  0
LTYPE
  2
CONTINUOUS
 70
    64
  3
実線
 72
    65
 73
     0
 40
0.0
  0
LTYPE
  2
DASHED1
 70
    64
  3
--  --  --  --  --  --  --  --  
 72
    65
 73
     2
 40
2.5
 49
1.25
 49
-1.25
  0
LTYPE
  2
DASHED2
 70
    64
  3
----    ----    ----    ----    
 72
    65
 73
     2
 40
5.0
 49
2.5
 49
-2.5
  0
LTYPE
  2
DASHED3
 70
    64
  3
------  ------  ------  ------  
 72
    65
 73
     2
 40
5.0
 49
3.75
 49
-1.25
  0
LTYPE
  2
CENTER1
 70
    64
  3
----- - ----- - ----- - ----- - 
 72
    65
 73
     4
 40
10.0
 49
6.25
 49
-1.25
 49
1.25
 49
-1.25
  0
LTYPE
  2
CENTER2
 70
    64
  3
----------  --  ----------  --  
 72
    65
 73
     4
 40
20.0
 49
12.5
 49
-2.5
 49
2.5
 49
-2.5
  0
LTYPE
  2
PHANTOM1
 70
    64
  3
--- - - --- - - --- - - --- - - 
 72
    65
 73
     6
 40
10.0
 49
3.25
 49
-1.25
 49
1.25
 49
-1.25
 49
1.25
 49
-1.25
  0
LTYPE
  2
PHANTOM2
 70
    64
  3
--------  -  -  --------  -  -  
 72
    65
 73
     6
 40
20.0
 49
10.0
 49
-2.5
 49
1.25
 49
-2.5
 49
1.25
 49
-2.5
  0
LTYPE
  2
DOT
 70
    64
  3
-   -   -   -   -   -   -   -   
 72
    65
 73
     2
 40
2.5
 49
0.625
 49
-1.875
  0
LTYPE
  2
DUMMY
 70
    64
  3
ダミー
 72
    65
 73
     0
 40
0.0
  0
LTYPE
  2
RAND1
 70
    64
  3
ランダム線1
 72
    65
 73
     4
 40
10.0
 49
1.0
 49
-2.0
 49
3.0
 49
-4.0
  0
LTYPE
  2
RAND2
 70
    64
  3
ランダム線2
 72
    65
 73
     4
 40
14.0
 49
2.0
 49
-3.0
 49
4.0
 49
-5.0
  0
LTYPE
  2
RAND3
 70
    64
  3
ランダム線3
 72
    65
 73
     4
 40
18.0
 49
3.0
 49
-4.0
 49
5.0
 49
-6.0
  0
LTYPE
  2
RAND4
 70
    64
  3
ランダム線4
 72
    65
 73
     4
 40
22.0
 49
4.0
 49
-5.0
 49
6.0
 49
-7.0
  0
LTYPE
  2
RAND5
 70
    64
  3
ランダム線5
 72
    65
 73
     4
 40
26.0
 49
5.0
 49
-6.0
 49
7.0
 49
-8.0
  0
LTYPE
  2
LONG1
 70
    64
  3
----------  --  ----------  --  
 72
    65
 73
     4
 40
40.0
 49
32.5
 49
-2.5
 49
2.5
 49
-2.5
  0
LTYPE
  2
LONG2
 70
    64
  3
--------  -  -  --------  -  -  
 72
    65
 73
     6
 40
40.0
 49
30.0
 49
-2.5
 49
1.25
 49
-2.5
 49
1.25
 49
-2.5
  0
LTYPE
  2
LONG3
 70
    64
  3
+++++++++++++++..+++++++++++++++
 72
    65
 73
     2
 40
40.0
 49
37.5
 49
-2.5
  0
LTYPE
  2
LONG4
 70
    64
  3
+++++++++++++++..+++++++++++++++
 72
    65
 73
     2
 40
80.0
 49
75.0
 49
-5.0
  0
LTYPE
  2
LONG5
 70
    64
  3
----------  --  ----------  --  
 72
    65
 73
     4
 40
60.0
 49
37.5
 49
-7.5
 49
7.5
 49
-7.5
  0
LTYPE
  2
dashed
 70
   64
  3
-------   -------------   ------
 72
   65
 73
    2
 40
7.5
 49
6
 49
-1.5
  0
LTYPE
  2
dashed_spaced
 70
   64
  3
----        --------        ----
 72
   65
 73
    2
 40
12
 49
6
 49
-6
  0
LTYPE
  2
long_dashed_dotted
 70
   64
  3
------------- --- --------------
 72
   65
 73
    4
 40
15.25
 49
12
 49
-1.5
 49
0.25
 49
-1.5
  0
LTYPE
  2
long_dashed_double-dotted
 70
   64
  3
----------- --- --- ------------
 72
   65
 73
    6
 40
17
 49
12
 49
-1.5
 49
0.25
 49
-1.5
 49
0.25
 49
-1.5
  0
LTYPE
  2
long_dashed_triplicate-dotted
 70
   64
  3
--------- --- --- --- ----------
 72
   65
 73
    8
 40
18.75
 49
12
 49
-1.5
 49
0.25
 49
-1.5
 49
0.25
 49
-1.5
 49
0.25
 49
-1.5
  0
LTYPE
  2
dotted
 70
   64
  3
   -       -       -       -    
 72
   65
 73
    2
 40
1.75
 49
0.25
 49
-1.5
  0
LTYPE
  2
chain
 70
   64
  3
-------------- -- --------------
 72
   65
 73
    4
 40
18.5
 49
12
 49
-1.5
 49
3.5
 49
-1.5
  0
LTYPE
  2
chain_double_dash
 70
   64
  3
------------ -- -- -------------
 72
   65
 73
    6
 40
23.5
 49
12
 49
-1.5
 49
3.5
 49
-1.5
 49
3.5
 49
-1.5
  0
LTYPE
  2
dashed_dotted
 70
   64
  3
-----------     -     ----------
 72
   65
 73
    4
 40
9.25
 49
6
 49
-1.5
 49
0.25
 49
-1.5
  0
LTYPE
  2
double-dashed_dotted
 70
   64
  3
------   -----------   -   -----
 72
   65
 73
    6
 40
16.75
 49
6
 49
-1.5
 49
6
 49
-1.5
 49
0.25
 49
-1.5
  0
LTYPE
  2
dashed_double-dotted
 70
   64
  3
---------    -    -    ---------
 72
   65
 73
    6
 40
11
 49
6
 49
-1.5
 49
0.25
 49
-1.5
 49
0.25
 49
-1.5
  0
LTYPE
  2
double-dashed_double-dotted
 70
   64
  3
-----   ---------   -   -   ----
 72
   65
 73
    8
 40
18.5
 49
6
 49
-1.5
 49
6
 49
-1.5
 49
0.25
 49
-1.5
 49
0.25
 49
-1.5
  0
LTYPE
  2
dashed_triplicate-dotted
 70
   64
  3
-------    -    -    -    ------
 72
   65
 73
    8
 40
12.75
 49
6
 49
-1.5
 49
0.25
 49
-1.5
 49
0.25
 49
-1.5
 49
0.25
 49
-1.5
  0
LTYPE
  2
double-dashed_triplicate-dotted
 70
   64
  3
-----  ---------  -  -  -  -----
 72
   65
 73
   10
 40
20.25
 49
6
 49
-1.5
 49
6
 49
-1.5
 49
0.25
 49
-1.5
 49
0.25
 49
-1.5
 49
0.25
 49
-1.5
  0
LTYPE
  2
undefined
 70
   64
  3
--------------------------------
 72
   65
 73
    0
 40
0
  0
LTYPE
  2
_
 70
   64
  3
                                
 72
   65
 73
    0
 40
0
  0
LTYPE
  2
__18
 70
   64
  3
                                
 72
   65
 73
    0
 40
0
  0
LTYPE
  2
__19
 70
   64
  3
                                
 72
   65
 73
    0
 40
0
  0
LTYPE
  2
__20
 70
   64
  3
                                
 72
   65
 73
    0
 40
0
  0
LTYPE
  2
__21
 70
   64
  3
                                
 72
   65
 73
    0
 40
0
  0
LTYPE
  2
__22
 70
   64
  3
                                
 72
   65
 73
    0
 40
0
  0
LTYPE
  2
__23
 70
   64
  3
                                
 72
   65
 73
    0
 40
0
  0
LTYPE
  2
__24
 70
   64
  3
                                
 72
   65
 73
    0
 40
0
  0
LTYPE
  2
__25
 70
   64
  3
                                
 72
   65
 73
    0
 40
0
  0
LTYPE
  2
__26
 70
   64
  3
                                
 72
   65
 73
    0
 40
0
  0
LTYPE
  2
__27
 70
   64
  3
                                
 72
   65
 73
    0
 40
0
  0
LTYPE
  2
__28
 70
   64
  3
                                
 72
   65
 73
    0
 40
0
  0
LTYPE
  2
__29
 70
   64
  3
                                
 72
   65
 73
    0
 40
0
  0
LTYPE
  2
__30
 70
   64
  3
                                
 72
   65
 73
    0
 40
0
  0
LTYPE
  2
__31
 70
   64
  3
                                
 72
   65
 73
    0
 40
0
  0
LTYPE
  2
__32
 70
   64
  3
                                
 72
   65
 73
    0
 40
0
  0
ENDTAB
  0
TABLE
  2
STYLE
  5
3
100
AcDbSymbolTable
 70
     1
  0
STYLE
  5
10
100
AcDbSymbolTableRecord
100
AcDbTextStyleTableRecord
  2
STANDARD
 70
     0
 40
0.0
 41
1.0
 50
0.0
 71
     0
 42
0.2
  3
txt
  4
bigfont.shx
  0
STYLE
  5
26
100
AcDbSymbolTableRecord
100
AcDbTextStyleTableRecord
  2
TATEGAKI
 70
    68
 40
0.0
 41
1.0
 50
0.0
 71
     0
 42
1.0
  3
txt
  4
bigfont.shx
  0
ENDTAB
  0
TABLE
  2
LAYER
 70
    2
  0
LAYER
  2
_0-3_
 70
   64
 62
    7
  6
CONTINUOUS
  0
LAYER
  2
ADD_LINE
 70
   64
 62
    7
  6
CONTINUOUS
  0
ENDTAB
  0
ENDSEC
  0
SECTION
  2
BLOCKS
  0
ENDSEC
  0
SECTION
  2
ENTITIES
  0
ARC
  8
_0-3_
  6
CONTINUOUS
 62
    7
 10
146
 20
157.5
 40
7.5
 50
90
 51
180
  0
ARC
  8
_0-3_
  6
CONTINUOUS
 62
    7
 10
146
 20
132.5
 40
7.5
 50
180
 51
270
  0
LINE
  8
_0-3_
  6
CONTINUOUS
 62
    7
 10
138.5
 20
132.5
 11
138.5
 21
157.5
  0
ARC
  8
_0-3_
  6
CONTINUOUS
 62
    7
 10
146
 20
132.5
 40
17.5
 50
180
 51
270
  0
LINE
  8
_0-3_
  6
CONTINUOUS
 62
    7
 10
128.5
 20
157.5
 11
128.5
 21
132.5
  0
ARC
  8
_0-3_
  6
CONTINUOUS
 62
    7
 10
146
 20
157.5
 40
17.5
 50
90
 51
180
  0
LINE
  8
_0-3_
  6
CONTINUOUS
 62
    7
 10
128.5
 20
105
 11
128.5
 21
95
  0
LINE
  8
_0-3_
  6
CONTINUOUS
 62
    7
 10
133.5
 20
-25
 11
143.5
 21
-25
  0
LINE
  8
_0-3_
  6
CONTINUOUS
 62
    7
 10
133.5
 20
-25
 11
128.5
 21
35
  0
LINE
  8
_0-3_
  6
CONTINUOUS
 62
    7
 10
128.5
 20
35
 11
138.5
 21
35
  0
LINE
  8
_0-3_
  6
CONTINUOUS
 62
    7
 10
128.5
 20
185
 11
128.5
 21
245
  0
LINE
  8
_0-3_
  6
CONTINUOUS
 62
    7
 10
128.5
 20
245
 11
138.5
 21
245
  0
LINE
  8
_0-3_
  6
CONTINUOUS
 62
    7
 10
128.5
 20
185
 11
138.5
 21
185
  0
ARC
  8
_0-3_
  6
CONTINUOUS
 62
    7
 10
76
 20
87.5
 40
7.5
 50
90
 51
270
  0
ARC
  8
_0-3_
  6
CONTINUOUS
 62
    7
 10
76
 20
87.5
 40
17.5
 50
90
 51
270
  0
LINE
  8
_0-3_
  6
CONTINUOUS
 62
    7
 10
58.5
 20
115
 11
68.5
 21
115
  0
LINE
  8
_0-3_
  6
CONTINUOUS
 62
    7
 10
68.5
 20
140
 11
68.5
 21
115
  0
LINE
  8
_0-3_
  6
CONTINUOUS
 62
    7
 10
68.5
 20
165
 11
68.5
 21
150
  0
LINE
  8
_0-3_
  6
CONTINUOUS
 62
    7
 10
58.5
 20
175
 11
58.5
 21
115
  0
LINE
  8
_0-3_
  6
CONTINUOUS
 62
    7
 10
58.5
 20
62.5
 11
68.5
 21
62.5
  0
LINE
  8
_0-3_
  6
CONTINUOUS
 62
    7
 10
58.5
 20
60
 11
58.5
 21
62.5
  0
ARC
  8
_0-3_
  6
CONTINUOUS
 62
    7
 10
73.5
 20
60
 40
5
 50
180
 51
270
  0
LINE
  8
_0-3_
  6
CONTINUOUS
 62
    7
 10
68.5
 20
62.5
 11
68.5
 21
60
  0
ARC
  8
_0-3_
  6
CONTINUOUS
 62
    7
 10
73.5
 20
60
 40
15
 50
180
 51
270
  0
LINE
  8
_0-3_
  6
CONTINUOUS
 62
    7
 10
58.5
 20
185
 11
68.5
 21
185
  0
LINE
  8
_0-3_
  6
CONTINUOUS
 62
    7
 10
58.5
 20
245
 11
58.5
 21
185
  0
ARC
  8
_0-3_
  6
CONTINUOUS
 62
    7
 10
213.5
 20
230
 40
5
 50
90
 51
180
  0
ARC
  8
_0-3_
  6
CONTINUOUS
 62
    7
 10
213.5
 20
230
 40
15
 50
90
 51
180
  0
ARC
  8
_0-3_
  6
CONTINUOUS
 62
    7
 10
213.5
 20
200
 40
5
 50
180
 51
270
  0
ARC
  8
_0-3_
  6
CONTINUOUS
 62
    7
 10
213.5
 20
200
 40
15
 50
180
 51
270
  0
LINE
  8
_0-3_
  6
CONTINUOUS
 62
    7
 10
198.5
 20
230
 11
198.5
 21
200
  0
LINE
  8
_0-3_
  6
CONTINUOUS
 62
    7
 10
208.5
 20
200
 11
208.5
 21
230
  0
LINE
  8
_0-3_
  6
CONTINUOUS
 62
    7
 10
198.5
 20
115
 11
208.5
 21
115
  0
LINE
  8
_0-3_
  6
CONTINUOUS
 62
    7
 10
208.5
 20
140
 11
208.5
 21
115
  0
LINE
  8
_0-3_
  6
CONTINUOUS
 62
    7
 10
208.5
 20
165
 11
208.5
 21
150
  0
LINE
  8
_0-3_
  6
CONTINUOUS
 62
    7
 10
198.5
 20
175
 11
198.5
 21
115
  0
LINE
  8
_0-3_
  6
CONTINUOUS
 62
    7
 10
198.5
 20
105
 11
208.5
 21
105
  0
LINE
  8
_0-3_
  6
CONTINUOUS
 62
    7
 10
214.75
 20
-25
 11
214.75
 21
-21.25
  0
LINE
  8
_0-3_
  6
CONTINUOUS
 62
    7
 10
214.75
 20
-25
 11
198.5
 21
-25
  0
LINE
  8
_0-3_
  6
CONTINUOUS
 62
    7
 10
198.5
 20
35
 11
209.75
 21
35
  0
LINE
  8
_0-3_
  6
CONTINUOUS
 62
    7
 10
93.5
 20
185
 11
103.5
 21
185
  0
LINE
  8
_0-3_
  6
CONTINUOUS
 62
    7
 10
103.5
 20
185
 11
103.5
 21
245
  0
LINE
  8
_0-3_
  6
CONTINUOUS
 62
    7
 10
163.5
 20
245
 11
173.5
 21
245
  0
LINE
  8
_0-3_
  6
CONTINUOUS
 62
    7
 10
173.5
 20
245
 11
173.5
 21
185
  0
LINE
  8
_0-3_
  6
CONTINUOUS
 62
    7
 10
173.5
 20
185
 11
163.5
 21
185
  0
ARC
  8
_0-3_
  6
CONTINUOUS
 62
    7
 10
228.5
 20
200
 40
5
 50
270
 51
0
  0
ARC
  8
_0-3_
  6
CONTINUOUS
 62
    7
 10
228.5
 20
200
 40
15
 50
270
 51
0
  0
LINE
  8
_0-3_
  6
CONTINUOUS
 62
    7
 10
213.5
 20
185
 11
228.5
 21
185
  0
LINE
  8
_0-3_
  6
CONTINUOUS
 62
    7
 10
213.5
 20
195
 11
228.5
 21
195
  0
LINE
  8
_0-3_
  6
CONTINUOUS
 62
    7
 10
213.5
 20
235
 11
228.5
 21
235
  0
LINE
  8
_0-3_
  6
CONTINUOUS
 62
    7
 10
213.5
 20
245
 11
228.5
 21
245
  0
ARC
  8
_0-3_
  6
CONTINUOUS
 62
    7
 10
228.5
 20
230
 40
5
 50
0
 51
90
  0
LINE
  8
_0-3_
  6
CONTINUOUS
 62
    7
 10
233.5
 20
200
 11
233.5
 21
230
  0
ARC
  8
_0-3_
  6
CONTINUOUS
 62
    7
 10
228.5
 20
230
 40
15
 50
0
 51
90
  0
LINE
  8
_0-3_
  6
CONTINUOUS
 62
    7
 10
243.5
 20
230
 11
243.5
 21
200
  0
ARC
  8
_0-3_
  6
CONTINUOUS
 62
    7
 10
86
 20
157.5
 40
17.5
 50
270
 51
90
  0
LINE
  8
_0-3_
  6
CONTINUOUS
 62
    7
 10
68.5
 20
140
 11
86
 21
140
  0
ARC
  8
_0-3_
  6
CONTINUOUS
 62
    7
 10
86
 20
157.5
 40
7.5
 50
270
 51
90
  0
LINE
  8
_0-3_
  6
CONTINUOUS
 62
    7
 10
68.5
 20
150
 11
86
 21
150
  0
LINE
  8
_0-3_
  6
CONTINUOUS
 62
    7
 10
68.5
 20
165
 11
86
 21
165
  0
LINE
  8
_0-3_
  6
CONTINUOUS
 62
    7
 10
58.5
 20
175
 11
86
 21
175
  0
LINE
  8
_0-3_
  6
CONTINUOUS
 62
    7
 10
146
 20
125
 11
156
 21
125
  0
LINE
  8
_0-3_
  6
CONTINUOUS
 62
    7
 10
146
 20
115
 11
156
 21
115
  0
LINE
  8
_0-3_
  6
CONTINUOUS
 62
    7
 10
146
 20
175
 11
156
 21
175
  0
ARC
  8
_0-3_
  6
CONTINUOUS
 62
    7
 10
156
 20
157.5
 40
17.5
 50
0
 51
90
  0
LINE
  8
_0-3_
  6
CONTINUOUS
 62
    7
 10
173.5
 20
157.5
 11
173.5
 21
132.5
  0
LINE
  8
_0-3_
  6
CONTINUOUS
 62
    7
 10
146
 20
165
 11
156
 21
165
  0
ARC
  8
_0-3_
  6
CONTINUOUS
 62
    7
 10
156
 20
157.5
 40
7.5
 50
0
 51
90
  0
LINE
  8
_0-3_
  6
CONTINUOUS
 62
    7
 10
154.50000000010201
 20
129.49999999994901
 11
158.50000000101997
 21
137.50000000076497
  0
LINE
  8
_0-3_
  6
CONTINUOUS
 62
    7
 10
173.5
 20
120
 11
177.50000000043349
 21
127.99999999984701
  0
ARC
  8
_0-3_
  6
CONTINUOUS
 62
    7
 10
156
 20
132.5
 40
17.5
 50
270
 51
322.38509969709645
  0
LINE
  8
_0-3_
  6
CONTINUOUS
 62
    7
 10
173.5
 20
120
 11
169.86229149573722
 21
121.81885425213139
  0
LINE
  8
_0-3_
  6
CONTINUOUS
 62
    7
 10
177.50000000043349
 20
127.99999999984701
 11
173.33239697423426
 21
130.08380151321231
  0
ARC
  8
_0-3_
  6
CONTINUOUS
 62
    7
 10
156
 20
132.5
 40
17.5
 50
352.06390682459624
 51
0
  0
LINE
  8
_0-3_
  6
CONTINUOUS
 62
    7
 10
160.5
 20
126.5
 11
154.50000000010201
 21
129.49999999994901
  0
ARC
  8
_0-3_
  6
CONTINUOUS
 62
    7
 10
156
 20
132.5
 40
7.5
 50
270
 51
306.86989764584405
  0
LINE
  8
_0-3_
  6
CONTINUOUS
 62
    7
 10
163.5
 20
135.00000000095622
 11
158.50000000101997
 21
137.50000000076497
  0
LINE
  8
_0-3_
  6
CONTINUOUS
 62
    7
 10
163.5
 20
135.00000000095622
 11
163.5
 21
157.5
  0
ARC
  8
_0-3_
  6
CONTINUOUS
 62
    7
 10
226
 20
157.5
 40
7.5
 50
270
 51
90
  0
LINE
  8
_0-3_
  6
CONTINUOUS
 62
    7
 10
208.5
 20
150
 11
226
 21
150
  0
LINE
  8
_0-3_
  6
CONTINUOUS
 62
    7
 10
208.5
 20
165
 11
226
 21
165
  0
LINE
  8
_0-3_
  6
CONTINUOUS
 62
    7
 10
198.5
 20
175
 11
226
 21
175
  0
LINE
  8
_0-3_
  6
CONTINUOUS
 62
    7
 10
208.5
 20
140
 11
219.81966011250105
 21
140
  0
LINE
  8
_0-3_
  6
CONTINUOUS
 62
    7
 10
243.5
 20
115
 11
230.68114574786861
 21
140.63770850426278
  0
ARC
  8
_0-3_
  6
CONTINUOUS
 62
    7
 10
226
 20
157.5
 40
17.5
 50
285.51520205125246
 51
90
  0
LINE
  8
_0-3_
  6
CONTINUOUS
 62
    7
 10
232.31966011250105
 20
115
 11
219.81966011250105
 21
140
  0
LINE
  8
_0-3_
  6
CONTINUOUS
 62
    7
 10
243.5
 20
115
 11
232.31966011250105
 21
115
  0
ARC
  8
_0-3_
  6
CONTINUOUS
 62
    7
 10
88.5
 20
60
 40
5
 50
270
 51
0
  0
LINE
  8
_0-3_
  6
CONTINUOUS
 62
    7
 10
93.5
 20
62.5
 11
93.5
 21
60
  0
ARC
  8
_0-3_
  6
CONTINUOUS
 62
    7
 10
88.5
 20
60
 40
15
 50
270
 51
0
  0
LINE
  8
_0-3_
  6
CONTINUOUS
 62
    7
 10
103.5
 20
62.5
 11
103.5
 21
60
  0
LINE
  8
_0-3_
  6
CONTINUOUS
 62
    7
 10
73.5
 20
55
 11
88.5
 21
55
  0
ARC
  8
_0-3_
  6
CONTINUOUS
 62
    7
 10
86
 20
62.5
 40
7.5
 50
0
 51
90
  0
LINE
  8
_0-3_
  6
CONTINUOUS
 62
    7
 10
73.5
 20
45
 11
88.5
 21
45
  0
ARC
  8
_0-3_
  6
CONTINUOUS
 62
    7
 10
86
 20
62.5
 40
17.5
 50
0
 51
90
  0
LINE
  8
_0-3_
  6
CONTINUOUS
 62
    7
 10
76
 20
80
 11
86
 21
80
  0
LINE
  8
_0-3_
  6
CONTINUOUS
 62
    7
 10
76
 20
70
 11
86
 21
70
  0
LINE
  8
_0-3_
  6
CONTINUOUS
 62
    7
 10
76
 20
105
 11
86
 21
105
  0
ARC
  8
_0-3_
  6
CONTINUOUS
 62
    7
 10
86
 20
87.5
 40
7.5
 50
0
 51
90
  0
ARC
  8
_0-3_
  6
CONTINUOUS
 62
    7
 10
86
 20
87.5
 40
17.5
 50
0
 51
90
  0
LINE
  8
_0-3_
  6
CONTINUOUS
 62
    7
 10
76
 20
95
 11
86
 21
95
  0
LINE
  8
_0-3_
  6
CONTINUOUS
 62
    7
 10
93.5
 20
87.5
 11
103.5
 21
87.5
  0
LINE
  8
_0-3_
  6
CONTINUOUS
 62
    7
 10
173.5
 20
95
 11
173.5
 21
105
  0
LINE
  8
_0-3_
  6
CONTINUOUS
 62
    7
 10
173.5
 20
105
 11
128.5
 21
105
  0
LINE
  8
_0-3_
  6
CONTINUOUS
 62
    7
 10
233.5
 20
105
 11
243.5
 21
105
  0
LINE
  8
_0-3_
  6
CONTINUOUS
 62
    7
 10
168.5
 20
-25
 11
158.5
 21
-25
  0
LINE
  8
_0-3_
  6
CONTINUOUS
 62
    7
 10
168.5
 20
-25
 11
173.5
 21
35
  0
LINE
  8
_0-3_
  6
CONTINUOUS
 62
    7
 10
163.5
 20
35
 11
173.5
 21
35
  0
LINE
  8
_0-3_
  6
CONTINUOUS
 62
    7
 10
232.25
 20
35
 11
243.5
 21
35
  0
LINE
  8
_0-3_
  6
CONTINUOUS
 62
    7
 10
232.25
 20
-25
 11
243.5
 21
-25
  0
LINE
  8
_0-3_
  6
CONTINUOUS
 62
    7
 10
214.75
 20
-21.25
 11
210.6875
 21
-21.25
  0
LINE
  8
_0-3_
  6
CONTINUOUS
 62
    7
 10
215.375
 20
5
 11
198.5
 21
-25
  0
LINE
  8
_0-3_
  6
CONTINUOUS
 62
    7
 10
198.5
 20
35
 11
215.375
 21
5
  0
LINE
  8
_0-3_
  6
CONTINUOUS
 62
    7
 10
209.75
 20
35
 11
221
 21
15
  0
LINE
  8
_0-3_
  6
CONTINUOUS
 62
    7
 10
232.25
 20
35
 11
221
 21
15
  0
LINE
  8
_0-3_
  6
CONTINUOUS
 62
    7
 10
243.5
 20
35
 11
226.31818181818181
 21
5.5454545454545325
  0
LINE
  8
_0-3_
  6
CONTINUOUS
 62
    7
 10
226.31818181818181
 20
5.5454545454545325
 11
243.5
 21
-25
  0
LINE
  8
_0-3_
  6
CONTINUOUS
 62
    7
 10
220.59090909090909
 20
-4.2727272727272663
 11
232.25
 21
-25
  0
LINE
  8
_0-3_
  6
CONTINUOUS
 62
    7
 10
220.59090909090909
 20
-4.2727272727272663
 11
210.6875
 21
-21.25
  0
LINE
  8
_0-3_
  6
CONTINUOUS
 62
    7
 10
138.5
 20
35
 11
142.07142857142856
 21
-7.8571428571428612
  0
LINE
  8
_0-3_
  6
CONTINUOUS
 62
    7
 10
163.5
 20
35
 11
159.92857142857144
 21
-7.8571428571428612
  0
LINE
  8
_0-3_
  6
CONTINUOUS
 62
    7
 10
151
 20
-10
 11
143.5
 21
-25
  0
LINE
  8
_0-3_
  6
CONTINUOUS
 62
    7
 10
158.5
 20
-25
 11
151
 21
-10
  0
LINE
  8
_0-3_
  6
CONTINUOUS
 62
    7
 10
151
 20
10
 11
142.07142857142856
 21
-7.8571428571428612
  0
LINE
  8
_0-3_
  6
CONTINUOUS
 62
    7
 10
151
 20
10
 11
159.92857142857144
 21
-7.8571428571428612
  0
LINE
  8
_0-3_
  6
CONTINUOUS
 62
    7
 10
58.5
 20
35
 11
68.916666666666657
 21
35
  0
LINE
  8
_0-3_
  6
CONTINUOUS
 62
    7
 10
103.5
 20
35
 11
93.083333333333329
 21
35
  0
LINE
  8
_0-3_
  6
CONTINUOUS
 62
    7
 10
68.916666666666657
 20
35
 11
81
 21
-6.4285714285714306
  0
LINE
  8
_0-3_
  6
CONTINUOUS
 62
    7
 10
93.083333333333329
 20
35
 11
81
 21
-6.4285714285714306
  0
LINE
  8
_0-3_
  6
CONTINUOUS
 62
    7
 10
58.5
 20
35
 11
76
 21
-25
  0
LINE
  8
_0-3_
  6
CONTINUOUS
 62
    7
 10
76
 20
-25
 11
86
 21
-25
  0
LINE
  8
_0-3_
  6
CONTINUOUS
 62
    7
 10
103.5
 20
35
 11
86
 21
-25
  0
LINE
  8
_0-3_
  6
CONTINUOUS
 62
    7
 10
128.5
 20
95
 11
146
 21
95
  0
LINE
  8
_0-3_
  6
CONTINUOUS
 62
    7
 10
146
 20
95
 11
146
 21
45
  0
LINE
  8
_0-3_
  6
CONTINUOUS
 62
    7
 10
146
 20
45
 11
156
 21
45
  0
LINE
  8
_0-3_
  6
CONTINUOUS
 62
    7
 10
156
 20
45
 11
156
 21
95
  0
LINE
  8
_0-3_
  6
CONTINUOUS
 62
    7
 10
156
 20
95
 11
173.5
 21
95
  0
LINE
  8
_0-3_
  6
CONTINUOUS
 62
    7
 10
58.5
 20
245
 11
68.5
 21
245
  0
LINE
  8
_0-3_
  6
CONTINUOUS
 62
    7
 10
68.5
 20
245
 11
81
 21
223.57142857142856
  0
LINE
  8
_0-3_
  6
CONTINUOUS
 62
    7
 10
81
 20
223.57142857142856
 11
93.5
 21
245
  0
LINE
  8
_0-3_
  6
CONTINUOUS
 62
    7
 10
103.5
 20
245
 11
93.5
 21
245
  0
LINE
  8
_0-3_
  6
CONTINUOUS
 62
    7
 10
68.5
 20
185
 11
68.5
 21
225.15365144364316
  0
LINE
  8
_0-3_
  6
CONTINUOUS
 62
    7
 10
93.5
 20
185
 11
93.5
 21
225.15365144364313
  0
LINE
  8
_0-3_
  6
CONTINUOUS
 62
    7
 10
68.5
 20
225.15365144364316
 11
77.339630008791843
 21
210
  0
LINE
  8
_0-3_
  6
CONTINUOUS
 62
    7
 10
77.339630008791843
 20
210
 11
84.660369991208171
 21
210
  0
LINE
  8
_0-3_
  6
CONTINUOUS
 62
    7
 10
93.5
 20
225.15365144364313
 11
84.660369991208171
 21
210
  0
LINE
  8
_0-3_
  6
CONTINUOUS
 62
    7
 10
138.5
 20
185
 11
138.5
 21
226.25
  0
LINE
  8
_0-3_
  6
CONTINUOUS
 62
    7
 10
163.5
 20
185
 11
138.5
 21
226.25
  0
LINE
  8
_0-3_
  6
CONTINUOUS
 62
    7
 10
138.5
 20
245
 11
163.5
 21
203.75
  0
LINE
  8
_0-3_
  6
CONTINUOUS
 62
    7
 10
163.5
 20
245
 11
163.5
 21
203.75
  0
LINE
  8
_0-3_
  6
CONTINUOUS
 62
    7
 10
233.5
 20
105
 11
233.5
 21
67.5
  0
LINE
  8
_0-3_
  6
CONTINUOUS
 62
    7
 10
243.5
 20
105
 11
243.5
 21
67.5
  0
ARC
  8
_0-3_
  6
CONTINUOUS
 62
    7
 10
221
 20
67.5
 40
12.5
 50
180
 51
0
  0
LINE
  8
_0-3_
  6
CONTINUOUS
 62
    7
 10
208.5
 20
105
 11
208.5
 21
67.5
  0
ARC
  8
_0-3_
  6
CONTINUOUS
 62
    7
 10
221
 20
67.5
 40
22.5
 50
180
 51
0
  0
LINE
  8
_0-3_
  6
CONTINUOUS
 62
    7
 10
198.5
 20
105
 11
198.5
 21
67.5
  0
ENDSEC
  0
EOF
