  0
SECTION
  2
HEADER
  9
$ACADVER
  1
AC1009
  9
$INSBASE
 10
0
 20
0
 30
0
  9
$EXTMIN
 10
0
 20
0
  9
$EXTMAX
 10
297
 20
210
  9
$LIMMIN
 10
0
 20
0
  9
$LIMMAX
 10
297
 20
210
  9
$LTSCALE
 40
1
  0
ENDSEC
  0
SECTION
  2
TABLES
  0
TABLE
  2
LTYPE
 70
     9
  0
LTYPE
  2
CONTINUOUS
 70
    64
  3
実線
 72
    65
 73
     0
 40
0.0
  0
LTYPE
  2
DASHED1
 70
    64
  3
--  --  --  --  --  --  --  --  
 72
    65
 73
     2
 40
2.5
 49
1.25
 49
-1.25
  0
LTYPE
  2
DASHED2
 70
    64
  3
----    ----    ----    ----    
 72
    65
 73
     2
 40
5.0
 49
2.5
 49
-2.5
  0
LTYPE
  2
DASHED3
 70
    64
  3
------  ------  ------  ------  
 72
    65
 73
     2
 40
5.0
 49
3.75
 49
-1.25
  0
LTYPE
  2
CENTER1
 70
    64
  3
----- - ----- - ----- - ----- - 
 72
    65
 73
     4
 40
10.0
 49
6.25
 49
-1.25
 49
1.25
 49
-1.25
  0
LTYPE
  2
CENTER2
 70
    64
  3
----------  --  ----------  --  
 72
    65
 73
     4
 40
20.0
 49
12.5
 49
-2.5
 49
2.5
 49
-2.5
  0
LTYPE
  2
PHANTOM1
 70
    64
  3
--- - - --- - - --- - - --- - - 
 72
    65
 73
     6
 40
10.0
 49
3.25
 49
-1.25
 49
1.25
 49
-1.25
 49
1.25
 49
-1.25
  0
LTYPE
  2
PHANTOM2
 70
    64
  3
--------  -  -  --------  -  -  
 72
    65
 73
     6
 40
20.0
 49
10.0
 49
-2.5
 49
1.25
 49
-2.5
 49
1.25
 49
-2.5
  0
LTYPE
  2
DOT
 70
    64
  3
-   -   -   -   -   -   -   -   
 72
    65
 73
     2
 40
2.5
 49
0.625
 49
-1.875
  0
LTYPE
  2
DUMMY
 70
    64
  3
ダミー
 72
    65
 73
     0
 40
0.0
  0
LTYPE
  2
RAND1
 70
    64
  3
ランダム線1
 72
    65
 73
     4
 40
10.0
 49
1.0
 49
-2.0
 49
3.0
 49
-4.0
  0
LTYPE
  2
RAND2
 70
    64
  3
ランダム線2
 72
    65
 73
     4
 40
14.0
 49
2.0
 49
-3.0
 49
4.0
 49
-5.0
  0
LTYPE
  2
RAND3
 70
    64
  3
ランダム線3
 72
    65
 73
     4
 40
18.0
 49
3.0
 49
-4.0
 49
5.0
 49
-6.0
  0
LTYPE
  2
RAND4
 70
    64
  3
ランダム線4
 72
    65
 73
     4
 40
22.0
 49
4.0
 49
-5.0
 49
6.0
 49
-7.0
  0
LTYPE
  2
RAND5
 70
    64
  3
ランダム線5
 72
    65
 73
     4
 40
26.0
 49
5.0
 49
-6.0
 49
7.0
 49
-8.0
  0
LTYPE
  2
LONG1
 70
    64
  3
----------  --  ----------  --  
 72
    65
 73
     4
 40
40.0
 49
32.5
 49
-2.5
 49
2.5
 49
-2.5
  0
LTYPE
  2
LONG2
 70
    64
  3
--------  -  -  --------  -  -  
 72
    65
 73
     6
 40
40.0
 49
30.0
 49
-2.5
 49
1.25
 49
-2.5
 49
1.25
 49
-2.5
  0
LTYPE
  2
LONG3
 70
    64
  3
+++++++++++++++..+++++++++++++++
 72
    65
 73
     2
 40
40.0
 49
37.5
 49
-2.5
  0
LTYPE
  2
LONG4
 70
    64
  3
+++++++++++++++..+++++++++++++++
 72
    65
 73
     2
 40
80.0
 49
75.0
 49
-5.0
  0
LTYPE
  2
LONG5
 70
    64
  3
----------  --  ----------  --  
 72
    65
 73
     4
 40
60.0
 49
37.5
 49
-7.5
 49
7.5
 49
-7.5
  0
LTYPE
  2
dashed
 70
   64
  3
-------   -------------   ------
 72
   65
 73
    2
 40
7.5
 49
6
 49
-1.5
  0
LTYPE
  2
dashed_spaced
 70
   64
  3
----        --------        ----
 72
   65
 73
    2
 40
12
 49
6
 49
-6
  0
LTYPE
  2
long_dashed_dotted
 70
   64
  3
------------- --- --------------
 72
   65
 73
    4
 40
15.25
 49
12
 49
-1.5
 49
0.25
 49
-1.5
  0
LTYPE
  2
long_dashed_double-dotted
 70
   64
  3
----------- --- --- ------------
 72
   65
 73
    6
 40
17
 49
12
 49
-1.5
 49
0.25
 49
-1.5
 49
0.25
 49
-1.5
  0
LTYPE
  2
long_dashed_triplicate-dotted
 70
   64
  3
--------- --- --- --- ----------
 72
   65
 73
    8
 40
18.75
 49
12
 49
-1.5
 49
0.25
 49
-1.5
 49
0.25
 49
-1.5
 49
0.25
 49
-1.5
  0
LTYPE
  2
dotted
 70
   64
  3
   -       -       -       -    
 72
   65
 73
    2
 40
1.75
 49
0.25
 49
-1.5
  0
LTYPE
  2
chain
 70
   64
  3
-------------- -- --------------
 72
   65
 73
    4
 40
18.5
 49
12
 49
-1.5
 49
3.5
 49
-1.5
  0
LTYPE
  2
chain_double_dash
 70
   64
  3
------------ -- -- -------------
 72
   65
 73
    6
 40
23.5
 49
12
 49
-1.5
 49
3.5
 49
-1.5
 49
3.5
 49
-1.5
  0
LTYPE
  2
dashed_dotted
 70
   64
  3
-----------     -     ----------
 72
   65
 73
    4
 40
9.25
 49
6
 49
-1.5
 49
0.25
 49
-1.5
  0
LTYPE
  2
double-dashed_dotted
 70
   64
  3
------   -----------   -   -----
 72
   65
 73
    6
 40
16.75
 49
6
 49
-1.5
 49
6
 49
-1.5
 49
0.25
 49
-1.5
  0
LTYPE
  2
dashed_double-dotted
 70
   64
  3
---------    -    -    ---------
 72
   65
 73
    6
 40
11
 49
6
 49
-1.5
 49
0.25
 49
-1.5
 49
0.25
 49
-1.5
  0
LTYPE
  2
double-dashed_double-dotted
 70
   64
  3
-----   ---------   -   -   ----
 72
   65
 73
    8
 40
18.5
 49
6
 49
-1.5
 49
6
 49
-1.5
 49
0.25
 49
-1.5
 49
0.25
 49
-1.5
  0
LTYPE
  2
dashed_triplicate-dotted
 70
   64
  3
-------    -    -    -    ------
 72
   65
 73
    8
 40
12.75
 49
6
 49
-1.5
 49
0.25
 49
-1.5
 49
0.25
 49
-1.5
 49
0.25
 49
-1.5
  0
LTYPE
  2
double-dashed_triplicate-dotted
 70
   64
  3
-----  ---------  -  -  -  -----
 72
   65
 73
   10
 40
20.25
 49
6
 49
-1.5
 49
6
 49
-1.5
 49
0.25
 49
-1.5
 49
0.25
 49
-1.5
 49
0.25
 49
-1.5
  0
LTYPE
  2
undefined
 70
   64
  3
--------------------------------
 72
   65
 73
    0
 40
0
  0
LTYPE
  2
_
 70
   64
  3
                                
 72
   65
 73
    0
 40
0
  0
LTYPE
  2
__18
 70
   64
  3
                                
 72
   65
 73
    0
 40
0
  0
LTYPE
  2
__19
 70
   64
  3
                                
 72
   65
 73
    0
 40
0
  0
LTYPE
  2
__20
 70
   64
  3
                                
 72
   65
 73
    0
 40
0
  0
LTYPE
  2
__21
 70
   64
  3
                                
 72
   65
 73
    0
 40
0
  0
LTYPE
  2
__22
 70
   64
  3
                                
 72
   65
 73
    0
 40
0
  0
LTYPE
  2
__23
 70
   64
  3
                                
 72
   65
 73
    0
 40
0
  0
LTYPE
  2
__24
 70
   64
  3
                                
 72
   65
 73
    0
 40
0
  0
LTYPE
  2
__25
 70
   64
  3
                                
 72
   65
 73
    0
 40
0
  0
LTYPE
  2
__26
 70
   64
  3
                                
 72
   65
 73
    0
 40
0
  0
LTYPE
  2
__27
 70
   64
  3
                                
 72
   65
 73
    0
 40
0
  0
LTYPE
  2
__28
 70
   64
  3
                                
 72
   65
 73
    0
 40
0
  0
LTYPE
  2
__29
 70
   64
  3
                                
 72
   65
 73
    0
 40
0
  0
LTYPE
  2
__30
 70
   64
  3
                                
 72
   65
 73
    0
 40
0
  0
LTYPE
  2
__31
 70
   64
  3
                                
 72
   65
 73
    0
 40
0
  0
LTYPE
  2
__32
 70
   64
  3
                                
 72
   65
 73
    0
 40
0
  0
ENDTAB
  0
TABLE
  2
STYLE
  5
3
100
AcDbSymbolTable
 70
     1
  0
STYLE
  5
10
100
AcDbSymbolTableRecord
100
AcDbTextStyleTableRecord
  2
STANDARD
 70
     0
 40
0.0
 41
1.0
 50
0.0
 71
     0
 42
0.2
  3
txt
  4
bigfont.shx
  0
STYLE
  5
26
100
AcDbSymbolTableRecord
100
AcDbTextStyleTableRecord
  2
TATEGAKI
 70
    68
 40
0.0
 41
1.0
 50
0.0
 71
     0
 42
1.0
  3
txt
  4
bigfont.shx
  0
ENDTAB
  0
TABLE
  2
LAYER
 70
    3
  0
LAYER
  2
_0-0_
 70
   64
 62
    7
  6
CONTINUOUS
  0
LAYER
  2
_0-3_
 70
   64
 62
    7
  6
CONTINUOUS
  0
LAYER
  2
ADD_LINE
 70
   64
 62
    7
  6
CONTINUOUS
  0
ENDTAB
  0
ENDSEC
  0
SECTION
  2
BLOCKS
  0
ENDSEC
  0
SECTION
  2
ENTITIES
  0
LINE
  8
_0-3_
  6
CONTINUOUS
 62
    7
 10
98.5
 20
30
 11
81
 21
-1.1111111111111143
  0
LINE
  8
_0-3_
  6
CONTINUOUS
 62
    7
 10
81
 20
-30
 11
81
 21
-1.1111111111111143
  0
LINE
  8
_0-3_
  6
CONTINUOUS
 62
    7
 10
211
 20
220
 11
211
 21
210
  0
LINE
  8
_0-3_
  6
CONTINUOUS
 62
    7
 10
203.5
 20
230
 11
221
 21
230
  0
LINE
  8
_0-3_
  6
CONTINUOUS
 62
    7
 10
144.75
 20
230
 11
147.25
 21
230
  0
LINE
  8
_0-3_
  6
CONTINUOUS
 62
    7
 10
144.75
 20
240
 11
147.25
 21
240
  0
LINE
  8
_0-3_
  6
CONTINUOUS
 62
    7
 10
71
 20
240
 11
81
 21
240
  0
LINE
  8
_0-3_
  6
CONTINUOUS
 62
    7
 10
81
 20
240
 11
81
 21
180
  0
LINE
  8
_0-3_
  6
CONTINUOUS
 62
    7
 10
81
 20
180
 11
71
 21
180
  0
LINE
  8
_0-3_
  6
CONTINUOUS
 62
    7
 10
71
 20
180
 11
71
 21
240
  0
LINE
  8
_0-3_
  6
CONTINUOUS
 62
    7
 10
53.5
 20
100
 11
53.5
 21
90
  0
LINE
  8
_0-3_
  6
CONTINUOUS
 62
    7
 10
53.5
 20
100
 11
98.5
 21
100
  0
LINE
  8
_0-3_
  6
CONTINUOUS
 62
    7
 10
88.5
 20
170
 11
78.5
 21
170
  0
LINE
  8
_0-3_
  6
CONTINUOUS
 62
    7
 10
78.5
 20
110
 11
88.5
 21
110
  0
LINE
  8
_0-3_
  6
CONTINUOUS
 62
    7
 10
123.5
 20
180
 11
123.5
 21
190
  0
LINE
  8
_0-3_
  6
CONTINUOUS
 62
    7
 10
168.5
 20
190
 11
168.5
 21
180
  0
LINE
  8
_0-3_
  6
CONTINUOUS
 62
    7
 10
168.5
 20
180
 11
123.5
 21
180
  0
LINE
  8
_0-3_
  6
CONTINUOUS
 62
    7
 10
153.80578439066909
 20
212.4487291782734
 11
123.5
 21
190
  0
ARC
  8
_0-3_
  6
CONTINUOUS
 62
    7
 10
147.25
 20
220
 40
10
 50
310.96352483145415
 51
89.999999999999943
  0
ARC
  8
_0-3_
  6
CONTINUOUS
 62
    7
 10
218.5
 20
200
 40
10
 50
270
 51
90
  0
LINE
  8
_0-3_
  6
CONTINUOUS
 62
    7
 10
233.5
 20
240
 11
233.5
 21
230
  0
LINE
  8
_0-3_
  6
CONTINUOUS
 62
    7
 10
233.5
 20
230
 11
222.98957880828181
 21
219.48957880828181
  0
ARC
  8
_0-3_
  6
CONTINUOUS
 62
    7
 10
218.5
 20
200
 40
20
 50
270
 51
77.027760113814992
  0
LINE
  8
_0-3_
  6
CONTINUOUS
 62
    7
 10
221
 20
230
 11
211
 21
220
  0
LINE
  8
_0-3_
  6
CONTINUOUS
 62
    7
 10
211
 20
210
 11
218.5
 21
210
  0
LINE
  8
_0-3_
  6
CONTINUOUS
 62
    7
 10
203.5
 20
240
 11
203.5
 21
230
  0
LINE
  8
_0-3_
  6
CONTINUOUS
 62
    7
 10
203.5
 20
240
 11
233.5
 21
240
  0
ARC
  8
_0-3_
  6
CONTINUOUS
 62
    7
 10
148.5
 20
83.75
 40
6.25
 50
270
 51
90
  0
ARC
  8
_0-3_
  6
CONTINUOUS
 62
    7
 10
148.5
 20
83.75
 40
16.25
 50
321.36135600191665
 51
90
  0
ARC
  8
_0-3_
  6
CONTINUOUS
 62
    7
 10
149.75
 20
58.75
 40
18.75
 50
270
 51
52.389797012912069
  0
ARC
  8
_0-3_
  6
CONTINUOUS
 62
    7
 10
149.75
 20
58.75
 40
8.75
 50
270
 51
90
  0
LINE
  8
_0-3_
  6
CONTINUOUS
 62
    7
 10
143.5
 20
100
 11
148.5
 21
100
  0
ARC
  8
_0-3_
  6
CONTINUOUS
 62
    7
 10
143.5
 20
83.75
 40
16.25
 50
90
 51
218.63864399808338
  0
LINE
  8
_0-3_
  6
CONTINUOUS
 62
    7
 10
142.25
 20
50
 11
149.75
 21
50
  0
LINE
  8
_0-3_
  6
CONTINUOUS
 62
    7
 10
142.25
 20
40
 11
149.75
 21
40
  0
ARC
  8
_0-3_
  6
CONTINUOUS
 62
    7
 10
142.25
 20
58.75
 40
18.75
 50
127.61020298708803
 51
270
  0
ARC
  8
_0-3_
  6
CONTINUOUS
 62
    7
 10
142.25
 20
58.75
 40
8.75
 50
90
 51
270
  0
LINE
  8
_0-3_
  6
CONTINUOUS
 62
    7
 10
142.25
 20
67.5
 11
149.75
 21
67.5
  0
LINE
  8
_0-3_
  6
CONTINUOUS
 62
    7
 10
143.5
 20
90
 11
148.5
 21
90
  0
ARC
  8
_0-3_
  6
CONTINUOUS
 62
    7
 10
143.5
 20
83.75
 40
6.25
 50
90.000000000000057
 51
270
  0
LINE
  8
_0-3_
  6
CONTINUOUS
 62
    7
 10
143.5
 20
77.5
 11
148.5
 21
77.5
  0
ARC
  8
_0-3_
  6
CONTINUOUS
 62
    7
 10
148.5
 20
130
 40
10
 50
270
 51
90
  0
ARC
  8
_0-3_
  6
CONTINUOUS
 62
    7
 10
148.5
 20
130
 40
20
 50
270
 51
90
  0
LINE
  8
_0-3_
  6
CONTINUOUS
 62
    7
 10
129.75
 20
170
 11
129.75
 21
140
  0
LINE
  8
_0-3_
  6
CONTINUOUS
 62
    7
 10
129.75
 20
140
 11
148.5
 21
140
  0
LINE
  8
_0-3_
  6
CONTINUOUS
 62
    7
 10
139.75
 20
150
 11
148.5
 21
150
  0
LINE
  8
_0-3_
  6
CONTINUOUS
 62
    7
 10
139.75
 20
160
 11
139.75
 21
150
  0
LINE
  8
_0-3_
  6
CONTINUOUS
 62
    7
 10
162.25
 20
170
 11
162.25
 21
160
  0
LINE
  8
_0-3_
  6
CONTINUOUS
 62
    7
 10
162.25
 20
170
 11
129.75
 21
170
  0
LINE
  8
_0-3_
  6
CONTINUOUS
 62
    7
 10
162.25
 20
160
 11
139.75
 21
160
  0
LINE
  8
_0-3_
  6
CONTINUOUS
 62
    7
 10
233.5
 20
170
 11
233.5
 21
160
  0
LINE
  8
_0-3_
  6
CONTINUOUS
 62
    7
 10
198.5
 20
40
 11
198.5
 21
50
  0
ARC
  8
_0-3_
  6
CONTINUOUS
 62
    7
 10
146
 20
-7.5
 40
22.5
 50
180
 51
0
  0
ARC
  8
_0-3_
  6
CONTINUOUS
 62
    7
 10
146
 20
-7.5
 40
12.5
 50
180
 51
0
  0
ARC
  8
_0-3_
  6
CONTINUOUS
 62
    7
 10
146
 20
7.5
 40
12.5
 50
0
 51
180
  0
ARC
  8
_0-3_
  6
CONTINUOUS
 62
    7
 10
146
 20
7.5
 40
22.5
 50
0
 51
180
  0
LINE
  8
_0-3_
  6
CONTINUOUS
 62
    7
 10
133.5
 20
7.5
 11
133.5
 21
-7.5
  0
LINE
  8
_0-3_
  6
CONTINUOUS
 62
    7
 10
123.5
 20
-7.5
 11
123.5
 21
7.5
  0
LINE
  8
_0-3_
  6
CONTINUOUS
 62
    7
 10
158.5
 20
7.5
 11
158.5
 21
-7.5
  0
LINE
  8
_0-3_
  6
CONTINUOUS
 62
    7
 10
168.5
 20
-7.5
 11
168.5
 21
7.5
  0
LINE
  8
_0-3_
  6
CONTINUOUS
 62
    7
 10
238.5
 20
130
 11
238.5
 21
128.75
  0
LINE
  8
_0-3_
  6
CONTINUOUS
 62
    7
 10
53.5
 20
130
 11
53.5
 21
120
  0
LINE
  8
_0-3_
  6
CONTINUOUS
 62
    7
 10
98.5
 20
120
 11
98.5
 21
130
  0
LINE
  8
_0-3_
  6
CONTINUOUS
 62
    7
 10
88.5
 20
110
 11
88.5
 21
120
  0
LINE
  8
_0-3_
  6
CONTINUOUS
 62
    7
 10
88.5
 20
120
 11
98.5
 21
120
  0
LINE
  8
_0-3_
  6
CONTINUOUS
 62
    7
 10
98.5
 20
130
 11
88.5
 21
130
  0
LINE
  8
_0-3_
  6
CONTINUOUS
 62
    7
 10
88.5
 20
170
 11
88.5
 21
130
  0
LINE
  8
_0-3_
  6
CONTINUOUS
 62
    7
 10
78.5
 20
120
 11
78.5
 21
110
  0
LINE
  8
_0-3_
  6
CONTINUOUS
 62
    7
 10
78.5
 20
170
 11
53.5
 21
130
  0
LINE
  8
_0-3_
  6
CONTINUOUS
 62
    7
 10
53.5
 20
120
 11
78.5
 21
120
  0
LINE
  8
_0-3_
  6
CONTINUOUS
 62
    7
 10
65.292476415070752
 20
130
 11
78.5
 21
130
  0
LINE
  8
_0-3_
  6
CONTINUOUS
 62
    7
 10
78.5
 20
151.1320377358868
 11
65.292476415070752
 21
130
  0
LINE
  8
_0-3_
  6
CONTINUOUS
 62
    7
 10
78.5
 20
151.1320377358868
 11
78.5
 21
130
  0
LINE
  8
_0-3_
  6
CONTINUOUS
 62
    7
 10
218.5
 20
180
 11
211
 21
180
  0
LINE
  8
_0-3_
  6
CONTINUOUS
 62
    7
 10
211
 20
190
 11
218.5
 21
190
  0
ARC
  8
_0-3_
  6
CONTINUOUS
 62
    7
 10
211
 20
200
 40
20
 50
209.7696531661864
 51
270
  0
LINE
  8
_0-3_
  6
CONTINUOUS
 62
    7
 10
202.61180558268441
 20
194.55590279134219
 11
193.63942890050825
 21
190.06971445025414
  0
ARC
  8
_0-3_
  6
CONTINUOUS
 62
    7
 10
211
 20
200
 40
10
 50
212.98433524756999
 51
270
  0
ARC
  8
_0-3_
  6
CONTINUOUS
 62
    7
 10
144.75
 20
220
 40
20
 50
90
 51
180
  0
LINE
  8
_0-3_
  6
CONTINUOUS
 62
    7
 10
124.75
 20
220
 11
134.75
 21
220
  0
ARC
  8
_0-3_
  6
CONTINUOUS
 62
    7
 10
144.75
 20
220
 40
10
 50
90
 51
180
  0
ARC
  8
_0-3_
  6
CONTINUOUS
 62
    7
 10
147.25
 20
220
 40
20
 50
309.6642487497906
 51
90
  0
LINE
  8
_0-3_
  6
CONTINUOUS
 62
    7
 10
140.30029761641143
 20
190
 11
168.5
 21
190
  0
LINE
  8
_0-3_
  6
CONTINUOUS
 62
    7
 10
160.01575211095778
 20
204.60404036633062
 11
140.30029761641143
 21
190
  0
LINE
  8
_0-3_
  6
CONTINUOUS
 62
    7
 10
132.61180558268441
 20
124.55590279134221
 11
123.63942890050825
 21
120.06971445025412
  0
ARC
  8
_0-3_
  6
CONTINUOUS
 62
    7
 10
141
 20
130
 40
10
 50
212.98433524756999
 51
270
  0
LINE
  8
_0-3_
  6
CONTINUOUS
 62
    7
 10
141
 20
120
 11
148.5
 21
120
  0
ARC
  8
_0-3_
  6
CONTINUOUS
 62
    7
 10
141
 20
130
 40
20
 50
209.7696531661864
 51
270
  0
LINE
  8
_0-3_
  6
CONTINUOUS
 62
    7
 10
148.5
 20
110
 11
141
 21
110
  0
LINE
  8
_0-3_
  6
CONTINUOUS
 62
    7
 10
233.5
 20
160
 11
223.5
 21
160
  0
LINE
  8
_0-3_
  6
CONTINUOUS
 62
    7
 10
223.5
 20
170
 11
233.5
 21
170
  0
LINE
  8
_0-3_
  6
CONTINUOUS
 62
    7
 10
213.5
 20
150
 11
218.5
 21
150
  0
LINE
  8
_0-3_
  6
CONTINUOUS
 62
    7
 10
213.5
 20
120
 11
218.5
 21
120
  0
ARC
  8
_0-3_
  6
CONTINUOUS
 62
    7
 10
213.5
 20
130
 40
10
 50
90
 51
270
  0
LINE
  8
_0-3_
  6
CONTINUOUS
 62
    7
 10
213.5
 20
140
 11
218.5
 21
140
  0
ARC
  8
_0-3_
  6
CONTINUOUS
 62
    7
 10
218.5
 20
130
 40
10
 50
270
 51
90
  0
ARC
  8
_0-3_
  6
CONTINUOUS
 62
    7
 10
218.5
 20
130
 40
20
 50
270
 51
90
  0
LINE
  8
_0-3_
  6
CONTINUOUS
 62
    7
 10
213.5
 20
110
 11
218.5
 21
110
  0
ARC
  8
_0-3_
  6
CONTINUOUS
 62
    7
 10
213.5
 20
130
 40
20
 50
180
 51
270
  0
LINE
  8
_0-3_
  6
CONTINUOUS
 62
    7
 10
193.5
 20
140
 11
193.5
 21
130
  0
ARC
  8
_0-3_
  6
CONTINUOUS
 62
    7
 10
223.5
 20
140
 40
30
 50
90
 51
180
  0
ARC
  8
_0-3_
  6
CONTINUOUS
 62
    7
 10
223.5
 20
140
 40
20
 50
90
 51
155.70481105463543
  0
ARC
  8
_0-3_
  6
CONTINUOUS
 62
    7
 10
213.5
 20
130
 40
20
 50
90
 51
114.29518894536457
  0
LINE
  8
_0-3_
  6
CONTINUOUS
 62
    7
 10
98.5
 20
100
 11
98.5
 21
87.639320225002109
  0
LINE
  8
_0-3_
  6
CONTINUOUS
 62
    7
 10
53.5
 20
90
 11
88.5
 21
90
  0
LINE
  8
_0-3_
  6
CONTINUOUS
 62
    7
 10
88.5
 20
90
 11
63.5
 21
40
  0
LINE
  8
_0-3_
  6
CONTINUOUS
 62
    7
 10
74.680339887498945
 20
40
 11
63.5
 21
40
  0
LINE
  8
_0-3_
  6
CONTINUOUS
 62
    7
 10
98.5
 20
87.639320225002109
 11
74.680339887498945
 21
40
  0
ARC
  8
_0-3_
  6
CONTINUOUS
 62
    7
 10
211
 20
82.5
 40
7.5
 50
90
 51
270
  0
LINE
  8
_0-3_
  6
CONTINUOUS
 62
    7
 10
221
 20
90
 11
211
 21
90
  0
ARC
  8
_0-3_
  6
CONTINUOUS
 62
    7
 10
221
 20
82.5
 40
7.5
 50
270
 51
90
  0
LINE
  8
_0-3_
  6
CONTINUOUS
 62
    7
 10
211
 20
75
 11
221
 21
75
  0
ARC
  8
_0-3_
  6
CONTINUOUS
 62
    7
 10
211
 20
82.5
 40
17.5
 50
90
 51
270
  0
LINE
  8
_0-3_
  6
CONTINUOUS
 62
    7
 10
211
 20
65
 11
221
 21
65
  0
ARC
  8
_0-3_
  6
CONTINUOUS
 62
    7
 10
221
 20
82.5
 40
17.5
 50
270
 51
294.29518894536454
  0
LINE
  8
_0-3_
  6
CONTINUOUS
 62
    7
 10
238.5
 20
70
 11
238.5
 21
82.5
  0
LINE
  8
_0-3_
  6
CONTINUOUS
 62
    7
 10
198.5
 20
50
 11
208.5
 21
50
  0
ARC
  8
_0-3_
  6
CONTINUOUS
 62
    7
 10
208.5
 20
70
 40
20
 50
270
 51
350.06632261755198
  0
LINE
  8
_0-3_
  6
CONTINUOUS
 62
    7
 10
208.5
 20
40
 11
198.5
 21
40
  0
ARC
  8
_0-3_
  6
CONTINUOUS
 62
    7
 10
208.5
 20
70
 40
30
 50
270
 51
0
  0
LINE
  8
_0-3_
  6
CONTINUOUS
 62
    7
 10
71
 20
-30
 11
81
 21
-30
  0
LINE
  8
_0-3_
  6
CONTINUOUS
 62
    7
 10
53.5
 20
30
 11
64.75
 21
30
  0
LINE
  8
_0-3_
  6
CONTINUOUS
 62
    7
 10
98.5
 20
30
 11
87.25
 21
30
  0
LINE
  8
_0-3_
  6
CONTINUOUS
 62
    7
 10
64.75
 20
30
 11
76
 21
10
  0
LINE
  8
_0-3_
  6
CONTINUOUS
 62
    7
 10
87.25
 20
30
 11
76
 21
10
  0
LINE
  8
_0-3_
  6
CONTINUOUS
 62
    7
 10
53.5
 20
30
 11
71
 21
-1.1111111111111143
  0
LINE
  8
_0-3_
  6
CONTINUOUS
 62
    7
 10
71
 20
-30
 11
71
 21
-1.1111111111111143
  0
LINE
  8
_0-3_
  6
CONTINUOUS
 62
    7
 10
193.5
 20
30
 11
238.5
 21
30
  0
LINE
  8
_0-3_
  6
CONTINUOUS
 62
    7
 10
238.5
 20
30
 11
238.5
 21
20
  0
LINE
  8
_0-3_
  6
CONTINUOUS
 62
    7
 10
193.5
 20
30
 11
193.5
 21
20
  0
LINE
  8
_0-3_
  6
CONTINUOUS
 62
    7
 10
193.5
 20
-20
 11
193.5
 21
-30
  0
LINE
  8
_0-3_
  6
CONTINUOUS
 62
    7
 10
193.5
 20
-30
 11
238.5
 21
-30
  0
LINE
  8
_0-3_
  6
CONTINUOUS
 62
    7
 10
238.5
 20
-30
 11
238.5
 21
-20
  0
LINE
  8
_0-3_
  6
CONTINUOUS
 62
    7
 10
193.5
 20
20
 11
226
 21
20
  0
LINE
  8
_0-3_
  6
CONTINUOUS
 62
    7
 10
193.5
 20
-20
 11
226
 21
20
  0
LINE
  8
_0-3_
  6
CONTINUOUS
 62
    7
 10
238.5
 20
-20
 11
206
 21
-20
  0
LINE
  8
_0-3_
  6
CONTINUOUS
 62
    7
 10
238.5
 20
20
 11
206
 21
-20
  0
LINE
  8
_0-0_
  6
CONTINUOUS
 62
    7
 10
53.5
 20
180
 11
58.5
 21
180
  0
LINE
  8
_0-0_
  6
CONTINUOUS
 62
    7
 10
58.5
 20
180
 11
58.5
 21
185
  0
LINE
  8
_0-0_
  6
CONTINUOUS
 62
    7
 10
58.5
 20
185
 11
53.5
 21
185
  0
LINE
  8
_0-0_
  6
CONTINUOUS
 62
    7
 10
53.5
 20
185
 11
53.5
 21
180
  0
LINE
  8
_0-3_
  6
CONTINUOUS
 62
    7
 10
221
 20
100
 11
211
 21
100
  0
ARC
  8
_0-3_
  6
CONTINUOUS
 62
    7
 10
221
 20
82.5
 40
17.5
 50
0
 51
90
  0
ENDSEC
  0
EOF
