  0
SECTION
  2
HEADER
  9
$ACADVER
  1
AC1009
  9
$INSBASE
 10
0
 20
0
 30
0
  9
$EXTMIN
 10
0
 20
0
  9
$EXTMAX
 10
297
 20
210
  9
$LIMMIN
 10
0
 20
0
  9
$LIMMAX
 10
297
 20
210
  9
$LTSCALE
 40
1
  0
ENDSEC
  0
SECTION
  2
TABLES
  0
TABLE
  2
LTYPE
 70
     9
  0
LTYPE
  2
CONTINUOUS
 70
    64
  3
実線
 72
    65
 73
     0
 40
0.0
  0
LTYPE
  2
DASHED1
 70
    64
  3
--  --  --  --  --  --  --  --  
 72
    65
 73
     2
 40
2.5
 49
1.25
 49
-1.25
  0
LTYPE
  2
DASHED2
 70
    64
  3
----    ----    ----    ----    
 72
    65
 73
     2
 40
5.0
 49
2.5
 49
-2.5
  0
LTYPE
  2
DASHED3
 70
    64
  3
------  ------  ------  ------  
 72
    65
 73
     2
 40
5.0
 49
3.75
 49
-1.25
  0
LTYPE
  2
CENTER1
 70
    64
  3
----- - ----- - ----- - ----- - 
 72
    65
 73
     4
 40
10.0
 49
6.25
 49
-1.25
 49
1.25
 49
-1.25
  0
LTYPE
  2
CENTER2
 70
    64
  3
----------  --  ----------  --  
 72
    65
 73
     4
 40
20.0
 49
12.5
 49
-2.5
 49
2.5
 49
-2.5
  0
LTYPE
  2
PHANTOM1
 70
    64
  3
--- - - --- - - --- - - --- - - 
 72
    65
 73
     6
 40
10.0
 49
3.25
 49
-1.25
 49
1.25
 49
-1.25
 49
1.25
 49
-1.25
  0
LTYPE
  2
PHANTOM2
 70
    64
  3
--------  -  -  --------  -  -  
 72
    65
 73
     6
 40
20.0
 49
10.0
 49
-2.5
 49
1.25
 49
-2.5
 49
1.25
 49
-2.5
  0
LTYPE
  2
DOT
 70
    64
  3
-   -   -   -   -   -   -   -   
 72
    65
 73
     2
 40
2.5
 49
0.625
 49
-1.875
  0
LTYPE
  2
DUMMY
 70
    64
  3
ダミー
 72
    65
 73
     0
 40
0.0
  0
LTYPE
  2
RAND1
 70
    64
  3
ランダム線1
 72
    65
 73
     4
 40
10.0
 49
1.0
 49
-2.0
 49
3.0
 49
-4.0
  0
LTYPE
  2
RAND2
 70
    64
  3
ランダム線2
 72
    65
 73
     4
 40
14.0
 49
2.0
 49
-3.0
 49
4.0
 49
-5.0
  0
LTYPE
  2
RAND3
 70
    64
  3
ランダム線3
 72
    65
 73
     4
 40
18.0
 49
3.0
 49
-4.0
 49
5.0
 49
-6.0
  0
LTYPE
  2
RAND4
 70
    64
  3
ランダム線4
 72
    65
 73
     4
 40
22.0
 49
4.0
 49
-5.0
 49
6.0
 49
-7.0
  0
LTYPE
  2
RAND5
 70
    64
  3
ランダム線5
 72
    65
 73
     4
 40
26.0
 49
5.0
 49
-6.0
 49
7.0
 49
-8.0
  0
LTYPE
  2
LONG1
 70
    64
  3
----------  --  ----------  --  
 72
    65
 73
     4
 40
40.0
 49
32.5
 49
-2.5
 49
2.5
 49
-2.5
  0
LTYPE
  2
LONG2
 70
    64
  3
--------  -  -  --------  -  -  
 72
    65
 73
     6
 40
40.0
 49
30.0
 49
-2.5
 49
1.25
 49
-2.5
 49
1.25
 49
-2.5
  0
LTYPE
  2
LONG3
 70
    64
  3
+++++++++++++++..+++++++++++++++
 72
    65
 73
     2
 40
40.0
 49
37.5
 49
-2.5
  0
LTYPE
  2
LONG4
 70
    64
  3
+++++++++++++++..+++++++++++++++
 72
    65
 73
     2
 40
80.0
 49
75.0
 49
-5.0
  0
LTYPE
  2
LONG5
 70
    64
  3
----------  --  ----------  --  
 72
    65
 73
     4
 40
60.0
 49
37.5
 49
-7.5
 49
7.5
 49
-7.5
  0
LTYPE
  2
dashed
 70
   64
  3
-------   -------------   ------
 72
   65
 73
    2
 40
7.5
 49
6
 49
-1.5
  0
LTYPE
  2
dashed_spaced
 70
   64
  3
----        --------        ----
 72
   65
 73
    2
 40
12
 49
6
 49
-6
  0
LTYPE
  2
long_dashed_dotted
 70
   64
  3
------------- --- --------------
 72
   65
 73
    4
 40
15.25
 49
12
 49
-1.5
 49
0.25
 49
-1.5
  0
LTYPE
  2
long_dashed_double-dotted
 70
   64
  3
----------- --- --- ------------
 72
   65
 73
    6
 40
17
 49
12
 49
-1.5
 49
0.25
 49
-1.5
 49
0.25
 49
-1.5
  0
LTYPE
  2
long_dashed_triplicate-dotted
 70
   64
  3
--------- --- --- --- ----------
 72
   65
 73
    8
 40
18.75
 49
12
 49
-1.5
 49
0.25
 49
-1.5
 49
0.25
 49
-1.5
 49
0.25
 49
-1.5
  0
LTYPE
  2
dotted
 70
   64
  3
   -       -       -       -    
 72
   65
 73
    2
 40
1.75
 49
0.25
 49
-1.5
  0
LTYPE
  2
chain
 70
   64
  3
-------------- -- --------------
 72
   65
 73
    4
 40
18.5
 49
12
 49
-1.5
 49
3.5
 49
-1.5
  0
LTYPE
  2
chain_double_dash
 70
   64
  3
------------ -- -- -------------
 72
   65
 73
    6
 40
23.5
 49
12
 49
-1.5
 49
3.5
 49
-1.5
 49
3.5
 49
-1.5
  0
LTYPE
  2
dashed_dotted
 70
   64
  3
-----------     -     ----------
 72
   65
 73
    4
 40
9.25
 49
6
 49
-1.5
 49
0.25
 49
-1.5
  0
LTYPE
  2
double-dashed_dotted
 70
   64
  3
------   -----------   -   -----
 72
   65
 73
    6
 40
16.75
 49
6
 49
-1.5
 49
6
 49
-1.5
 49
0.25
 49
-1.5
  0
LTYPE
  2
dashed_double-dotted
 70
   64
  3
---------    -    -    ---------
 72
   65
 73
    6
 40
11
 49
6
 49
-1.5
 49
0.25
 49
-1.5
 49
0.25
 49
-1.5
  0
LTYPE
  2
double-dashed_double-dotted
 70
   64
  3
-----   ---------   -   -   ----
 72
   65
 73
    8
 40
18.5
 49
6
 49
-1.5
 49
6
 49
-1.5
 49
0.25
 49
-1.5
 49
0.25
 49
-1.5
  0
LTYPE
  2
dashed_triplicate-dotted
 70
   64
  3
-------    -    -    -    ------
 72
   65
 73
    8
 40
12.75
 49
6
 49
-1.5
 49
0.25
 49
-1.5
 49
0.25
 49
-1.5
 49
0.25
 49
-1.5
  0
LTYPE
  2
double-dashed_triplicate-dotted
 70
   64
  3
-----  ---------  -  -  -  -----
 72
   65
 73
   10
 40
20.25
 49
6
 49
-1.5
 49
6
 49
-1.5
 49
0.25
 49
-1.5
 49
0.25
 49
-1.5
 49
0.25
 49
-1.5
  0
LTYPE
  2
undefined
 70
   64
  3
--------------------------------
 72
   65
 73
    0
 40
0
  0
LTYPE
  2
_
 70
   64
  3
                                
 72
   65
 73
    0
 40
0
  0
LTYPE
  2
__18
 70
   64
  3
                                
 72
   65
 73
    0
 40
0
  0
LTYPE
  2
__19
 70
   64
  3
                                
 72
   65
 73
    0
 40
0
  0
LTYPE
  2
__20
 70
   64
  3
                                
 72
   65
 73
    0
 40
0
  0
LTYPE
  2
__21
 70
   64
  3
                                
 72
   65
 73
    0
 40
0
  0
LTYPE
  2
__22
 70
   64
  3
                                
 72
   65
 73
    0
 40
0
  0
LTYPE
  2
__23
 70
   64
  3
                                
 72
   65
 73
    0
 40
0
  0
LTYPE
  2
__24
 70
   64
  3
                                
 72
   65
 73
    0
 40
0
  0
LTYPE
  2
__25
 70
   64
  3
                                
 72
   65
 73
    0
 40
0
  0
LTYPE
  2
__26
 70
   64
  3
                                
 72
   65
 73
    0
 40
0
  0
LTYPE
  2
__27
 70
   64
  3
                                
 72
   65
 73
    0
 40
0
  0
LTYPE
  2
__28
 70
   64
  3
                                
 72
   65
 73
    0
 40
0
  0
LTYPE
  2
__29
 70
   64
  3
                                
 72
   65
 73
    0
 40
0
  0
LTYPE
  2
__30
 70
   64
  3
                                
 72
   65
 73
    0
 40
0
  0
LTYPE
  2
__31
 70
   64
  3
                                
 72
   65
 73
    0
 40
0
  0
LTYPE
  2
__32
 70
   64
  3
                                
 72
   65
 73
    0
 40
0
  0
ENDTAB
  0
TABLE
  2
STYLE
  5
3
100
AcDbSymbolTable
 70
     1
  0
STYLE
  5
10
100
AcDbSymbolTableRecord
100
AcDbTextStyleTableRecord
  2
STANDARD
 70
     0
 40
0.0
 41
1.0
 50
0.0
 71
     0
 42
0.2
  3
txt
  4
bigfont.shx
  0
STYLE
  5
26
100
AcDbSymbolTableRecord
100
AcDbTextStyleTableRecord
  2
TATEGAKI
 70
    68
 40
0.0
 41
1.0
 50
0.0
 71
     0
 42
1.0
  3
txt
  4
bigfont.shx
  0
ENDTAB
  0
TABLE
  2
LAYER
 70
    3
  0
LAYER
  2
_0-0_
 70
   64
 62
    7
  6
CONTINUOUS
  0
LAYER
  2
_0-2_
 70
   64
 62
    7
  6
CONTINUOUS
  0
LAYER
  2
ADD_LINE
 70
   64
 62
    7
  6
CONTINUOUS
  0
ENDTAB
  0
ENDSEC
  0
SECTION
  2
BLOCKS
  0
ENDSEC
  0
SECTION
  2
ENTITIES
  0
LINE
  8
_0-2_
  6
CONTINUOUS
 62
    7
 10
136
 20
217.5
 11
136
 21
220
  0
ARC
  8
_0-2_
  6
CONTINUOUS
 62
    7
 10
146
 20
220
 40
10
 50
90
 51
180
  0
ARC
  8
_0-2_
  6
CONTINUOUS
 62
    7
 10
143.5
 20
83.75
 40
6.25
 50
90
 51
270
  0
ARC
  8
_0-2_
  6
CONTINUOUS
 62
    7
 10
153.5
 20
83.75
 40
6.25
 50
270
 51
90
  0
ARC
  8
_0-2_
  6
CONTINUOUS
 62
    7
 10
153.5
 20
83.75
 40
16.25
 50
321.36135600191665
 51
90
  0
ARC
  8
_0-2_
  6
CONTINUOUS
 62
    7
 10
143.5
 20
83.75
 40
16.25
 50
90
 51
218.63864399808335
  0
LINE
  8
_0-2_
  6
CONTINUOUS
 62
    7
 10
143.5
 20
100
 11
153.5
 21
100
  0
ARC
  8
_0-2_
  6
CONTINUOUS
 62
    7
 10
142.25
 20
58.75
 40
18.75
 50
127.61020298708796
 51
270
  0
LINE
  8
_0-2_
  6
CONTINUOUS
 62
    7
 10
143.5
 20
90
 11
153.5
 21
90
  0
LINE
  8
_0-2_
  6
CONTINUOUS
 62
    7
 10
143.5
 20
77.5
 11
153.5
 21
77.5
  0
LINE
  8
_0-2_
  6
CONTINUOUS
 62
    7
 10
129.75
 20
170
 11
129.75
 21
140
  0
LINE
  8
_0-2_
  6
CONTINUOUS
 62
    7
 10
129.75
 20
140
 11
153.5
 21
140
  0
LINE
  8
_0-2_
  6
CONTINUOUS
 62
    7
 10
163.5
 20
170
 11
129.75
 21
170
  0
LINE
  8
_0-2_
  6
CONTINUOUS
 62
    7
 10
139.75
 20
160
 11
139.75
 21
150
  0
LINE
  8
_0-2_
  6
CONTINUOUS
 62
    7
 10
139.75
 20
150
 11
153.5
 21
150
  0
LINE
  8
_0-2_
  6
CONTINUOUS
 62
    7
 10
163.5
 20
160
 11
139.75
 21
160
  0
LINE
  8
_0-2_
  6
CONTINUOUS
 62
    7
 10
53.5
 20
100
 11
53.5
 21
90
  0
LINE
  8
_0-2_
  6
CONTINUOUS
 62
    7
 10
198.5
 20
40
 11
198.5
 21
50
  0
LINE
  8
_0-2_
  6
CONTINUOUS
 62
    7
 10
73.5
 20
240
 11
83.5
 21
240
  0
LINE
  8
_0-2_
  6
CONTINUOUS
 62
    7
 10
83.5
 20
240
 11
83.5
 21
180
  0
LINE
  8
_0-2_
  6
CONTINUOUS
 62
    7
 10
83.5
 20
180
 11
73.5
 21
180
  0
LINE
  8
_0-2_
  6
CONTINUOUS
 62
    7
 10
73.5
 20
180
 11
73.5
 21
240
  0
LINE
  8
_0-2_
  6
CONTINUOUS
 62
    7
 10
53.5
 20
100
 11
103.5
 21
100
  0
LINE
  8
_0-2_
  6
CONTINUOUS
 62
    7
 10
123.5
 20
180
 11
173.5
 21
180
  0
LINE
  8
_0-2_
  6
CONTINUOUS
 62
    7
 10
173.5
 20
180
 11
173.5
 21
190
  0
LINE
  8
_0-2_
  6
CONTINUOUS
 62
    7
 10
123.5
 20
180
 11
123.5
 21
190
  0
LINE
  8
_0-2_
  6
CONTINUOUS
 62
    7
 10
96
 20
170
 11
86
 21
170
  0
LINE
  8
_0-2_
  6
CONTINUOUS
 62
    7
 10
86
 20
110
 11
96
 21
110
  0
LINE
  8
_0-2_
  6
CONTINUOUS
 62
    7
 10
96
 20
110
 11
96
 21
120
  0
LINE
  8
_0-2_
  6
CONTINUOUS
 62
    7
 10
96
 20
170
 11
96
 21
130
  0
LINE
  8
_0-2_
  6
CONTINUOUS
 62
    7
 10
86
 20
120
 11
86
 21
110
  0
LINE
  8
_0-2_
  6
CONTINUOUS
 62
    7
 10
108.5
 20
120
 11
108.5
 21
130
  0
LINE
  8
_0-2_
  6
CONTINUOUS
 62
    7
 10
96
 20
120
 11
108.5
 21
120
  0
LINE
  8
_0-2_
  6
CONTINUOUS
 62
    7
 10
108.5
 20
130
 11
96
 21
130
  0
LINE
  8
_0-2_
  6
CONTINUOUS
 62
    7
 10
53.5
 20
130
 11
53.5
 21
120
  0
LINE
  8
_0-2_
  6
CONTINUOUS
 62
    7
 10
86
 20
170
 11
53.5
 21
130
  0
LINE
  8
_0-2_
  6
CONTINUOUS
 62
    7
 10
53.5
 20
120
 11
86
 21
120
  0
LINE
  8
_0-2_
  6
CONTINUOUS
 62
    7
 10
66.384705080055184
 20
130
 11
86
 21
130
  0
LINE
  8
_0-2_
  6
CONTINUOUS
 62
    7
 10
86
 20
154.14190143993207
 11
66.384705080055184
 21
130
  0
LINE
  8
_0-2_
  6
CONTINUOUS
 62
    7
 10
86
 20
154.14190143993207
 11
86
 21
130
  0
ARC
  8
_0-2_
  6
CONTINUOUS
 62
    7
 10
153.5
 20
130
 40
10
 50
270
 51
90
  0
ARC
  8
_0-2_
  6
CONTINUOUS
 62
    7
 10
153.5
 20
130
 40
20
 50
270
 51
90
  0
LINE
  8
_0-2_
  6
CONTINUOUS
 62
    7
 10
163.5
 20
170
 11
163.5
 21
160
  0
LINE
  8
_0-2_
  6
CONTINUOUS
 62
    7
 10
238.5
 20
170
 11
238.5
 21
160
  0
LINE
  8
_0-2_
  6
CONTINUOUS
 62
    7
 10
238.5
 20
160
 11
223.5
 21
160
  0
LINE
  8
_0-2_
  6
CONTINUOUS
 62
    7
 10
223.34427450765469
 20
170
 11
238.5
 21
170
  0
ARC
  8
_0-2_
  6
CONTINUOUS
 62
    7
 10
223.42213725382749
 20
139.98916271066435
 40
30.010938296131638
 50
90.148652857766905
 51
175.59126473381792
  0
LINE
  8
_0-2_
  6
CONTINUOUS
 62
    7
 10
75.161903789690598
 20
40
 11
63.5
 21
40
  0
LINE
  8
_0-2_
  6
CONTINUOUS
 62
    7
 10
103.5
 20
87.230160350515661
 11
75.161903789690598
 21
40
  0
LINE
  8
_0-2_
  6
CONTINUOUS
 62
    7
 10
103.5
 20
100
 11
103.5
 21
87.230160350515661
  0
LINE
  8
_0-2_
  6
CONTINUOUS
 62
    7
 10
53.5
 20
90
 11
93.5
 21
90
  0
LINE
  8
_0-2_
  6
CONTINUOUS
 62
    7
 10
93.5
 20
90
 11
63.5
 21
40
  0
ARC
  8
_0-2_
  6
CONTINUOUS
 62
    7
 10
223.5
 20
200
 40
10
 50
270
 51
90
  0
LINE
  8
_0-2_
  6
CONTINUOUS
 62
    7
 10
238.5
 20
240
 11
238.5
 21
230
  0
LINE
  8
_0-2_
  6
CONTINUOUS
 62
    7
 10
238.5
 20
230
 11
227.98957880828181
 21
219.48957880828181
  0
ARC
  8
_0-2_
  6
CONTINUOUS
 62
    7
 10
223.5
 20
200
 40
20
 50
270
 51
77.027760113814992
  0
LINE
  8
_0-2_
  6
CONTINUOUS
 62
    7
 10
203.5
 20
240
 11
203.5
 21
230
  0
LINE
  8
_0-2_
  6
CONTINUOUS
 62
    7
 10
203.5
 20
240
 11
238.5
 21
240
  0
LINE
  8
_0-2_
  6
CONTINUOUS
 62
    7
 10
213.5
 20
220
 11
213.5
 21
210
  0
LINE
  8
_0-2_
  6
CONTINUOUS
 62
    7
 10
213.5
 20
210
 11
223.5
 21
210
  0
LINE
  8
_0-2_
  6
CONTINUOUS
 62
    7
 10
203.5
 20
230
 11
223.5
 21
230
  0
LINE
  8
_0-2_
  6
CONTINUOUS
 62
    7
 10
213.5
 20
220
 11
223.5
 21
230
  0
LINE
  8
_0-2_
  6
CONTINUOUS
 62
    7
 10
143.5
 20
120
 11
153.5
 21
120
  0
LINE
  8
_0-2_
  6
CONTINUOUS
 62
    7
 10
153.5
 20
110
 11
143.5
 21
110
  0
LINE
  8
_0-2_
  6
CONTINUOUS
 62
    7
 10
213.5
 20
190
 11
223.5
 21
190
  0
LINE
  8
_0-2_
  6
CONTINUOUS
 62
    7
 10
223.5
 20
180
 11
213.5
 21
180
  0
ARC
  8
_0-2_
  6
CONTINUOUS
 62
    7
 10
223.5
 20
140
 40
20
 50
90
 51
155.70481105463543
  0
ARC
  8
_0-2_
  6
CONTINUOUS
 62
    7
 10
213.5
 20
130
 40
20
 50
90
 51
114.29518894536457
  0
LINE
  8
_0-2_
  6
CONTINUOUS
 62
    7
 10
213.5
 20
150
 11
223.5
 21
150
  0
ARC
  8
_0-2_
  6
CONTINUOUS
 62
    7
 10
223.5
 20
130
 40
10
 50
270
 51
90
  0
ARC
  8
_0-2_
  6
CONTINUOUS
 62
    7
 10
223.5
 20
130
 40
20
 50
270
 51
90
  0
LINE
  8
_0-2_
  6
CONTINUOUS
 62
    7
 10
213.5
 20
110
 11
223.5
 21
110
  0
LINE
  8
_0-2_
  6
CONTINUOUS
 62
    7
 10
213.5
 20
140
 11
223.5
 21
140
  0
ARC
  8
_0-2_
  6
CONTINUOUS
 62
    7
 10
213.5
 20
130
 40
10
 50
90
 51
270
  0
LINE
  8
_0-2_
  6
CONTINUOUS
 62
    7
 10
213.5
 20
120
 11
223.5
 21
120
  0
LINE
  8
_0-2_
  6
CONTINUOUS
 62
    7
 10
123.5
 20
-5
 11
123.5
 21
5
  0
ARC
  8
_0-2_
  6
CONTINUOUS
 62
    7
 10
148.5
 20
-5
 40
25
 50
180.00000000000006
 51
0.0000000000000254
  0
ARC
  8
_0-2_
  6
CONTINUOUS
 62
    7
 10
148.5
 20
5
 40
25
 50
0
 51
180
  0
LINE
  8
_0-2_
  6
CONTINUOUS
 62
    7
 10
173.5
 20
5
 11
173.5
 21
-5
  0
ARC
  8
_0-2_
  6
CONTINUOUS
 62
    7
 10
148.5
 20
5
 40
15
 50
0
 51
180
  0
LINE
  8
_0-2_
  6
CONTINUOUS
 62
    7
 10
163.5
 20
5
 11
163.5
 21
-5
  0
ARC
  8
_0-2_
  6
CONTINUOUS
 62
    7
 10
148.5
 20
-5
 40
15
 50
180
 51
0
  0
LINE
  8
_0-2_
  6
CONTINUOUS
 62
    7
 10
133.5
 20
5
 11
133.5
 21
-5
  0
ARC
  8
_0-2_
  6
CONTINUOUS
 62
    7
 10
142.25
 20
58.75
 40
8.75
 50
90
 51
270
  0
LINE
  8
_0-2_
  6
CONTINUOUS
 62
    7
 10
142.25
 20
50
 11
154.75
 21
50
  0
ARC
  8
_0-2_
  6
CONTINUOUS
 62
    7
 10
154.75
 20
58.75
 40
8.75
 50
270
 51
90
  0
LINE
  8
_0-2_
  6
CONTINUOUS
 62
    7
 10
142.25
 20
67.5
 11
154.75
 21
67.5
  0
ARC
  8
_0-2_
  6
CONTINUOUS
 62
    7
 10
213.5
 20
202.5
 40
12.5
 50
216.86989764584402
 51
270
  0
LINE
  8
_0-2_
  6
CONTINUOUS
 62
    7
 10
203.5
 20
195
 11
194.47501560549921
 21
190.4875078027496
  0
ARC
  8
_0-2_
  6
CONTINUOUS
 62
    7
 10
213.5
 20
202.5
 40
22.5
 50
212.26856643346099
 51
270
  0
ARC
  8
_0-2_
  6
CONTINUOUS
 62
    7
 10
143.5
 20
132.5
 40
22.5
 50
212.26856643346099
 51
270
  0
LINE
  8
_0-2_
  6
CONTINUOUS
 62
    7
 10
133.5
 20
125
 11
124.47501560549921
 21
120.4875078027496
  0
ARC
  8
_0-2_
  6
CONTINUOUS
 62
    7
 10
143.5
 20
132.5
 40
12.5
 50
216.86989764584402
 51
270
  0
LINE
  8
_0-2_
  6
CONTINUOUS
 62
    7
 10
198.5
 20
50
 11
213.5
 21
50
  0
LINE
  8
_0-2_
  6
CONTINUOUS
 62
    7
 10
213.5
 20
40
 11
198.5
 21
40
  0
ARC
  8
_0-2_
  6
CONTINUOUS
 62
    7
 10
213.5
 20
70
 40
30
 50
270
 51
0
  0
LINE
  8
_0-2_
  6
CONTINUOUS
 62
    7
 10
243.5
 20
82.5
 11
243.5
 21
70
  0
ARC
  8
_0-2_
  6
CONTINUOUS
 62
    7
 10
226
 20
82.5
 40
17.5
 50
270
 51
294.29518894536454
  0
ARC
  8
_0-2_
  6
CONTINUOUS
 62
    7
 10
213.5
 20
70
 40
20
 50
270
 51
350.06632261755198
  0
ARC
  8
_0-2_
  6
CONTINUOUS
 62
    7
 10
226
 20
82.5
 40
7.5
 50
270
 51
90
  0
LINE
  8
_0-2_
  6
CONTINUOUS
 62
    7
 10
211
 20
75
 11
226
 21
75
  0
ARC
  8
_0-2_
  6
CONTINUOUS
 62
    7
 10
211
 20
82.5
 40
7.5
 50
90
 51
270
  0
LINE
  8
_0-2_
  6
CONTINUOUS
 62
    7
 10
211
 20
90
 11
226
 21
90
  0
LINE
  8
_0-2_
  6
CONTINUOUS
 62
    7
 10
211
 20
65
 11
226
 21
65
  0
LINE
  8
_0-2_
  6
CONTINUOUS
 62
    7
 10
123.5
 20
190
 11
158.38313554719488
 21
213.25542369812993
  0
ARC
  8
_0-2_
  6
CONTINUOUS
 62
    7
 10
151
 20
220
 40
10
 50
317.58795377399395
 51
90
  0
ARC
  8
_0-2_
  6
CONTINUOUS
 62
    7
 10
151
 20
220
 40
20
 50
313.5052800374429
 51
90.000000000000057
  0
LINE
  8
_0-2_
  6
CONTINUOUS
 62
    7
 10
173.5
 20
190
 11
141.52775637731992
 21
190
  0
LINE
  8
_0-2_
  6
CONTINUOUS
 62
    7
 10
141.52775637731992
 20
190
 11
164.76842837896271
 21
205.49378133442855
  0
LINE
  8
_0-2_
  6
CONTINUOUS
 62
    7
 10
126
 20
217.5
 11
136
 21
217.5
  0
LINE
  8
_0-2_
  6
CONTINUOUS
 62
    7
 10
146
 20
240
 11
151
 21
240
  0
LINE
  8
_0-2_
  6
CONTINUOUS
 62
    7
 10
146
 20
230
 11
151
 21
230
  0
ARC
  8
_0-2_
  6
CONTINUOUS
 62
    7
 10
211
 20
82.5
 40
17.5
 50
90
 51
270
  0
LINE
  8
_0-2_
  6
CONTINUOUS
 62
    7
 10
211
 20
100
 11
226
 21
100
  0
ARC
  8
_0-2_
  6
CONTINUOUS
 62
    7
 10
226
 20
82.5
 40
17.5
 50
0
 51
90
  0
LINE
  8
_0-2_
  6
CONTINUOUS
 62
    7
 10
142.25
 20
40
 11
154.75
 21
40
  0
ARC
  8
_0-2_
  6
CONTINUOUS
 62
    7
 10
154.75
 20
58.75
 40
18.75
 50
270
 51
52.389797012912041
  0
LINE
  8
_0-2_
  6
CONTINUOUS
 62
    7
 10
193.5
 20
142.29613466050012
 11
193.5
 21
130
  0
ARC
  8
_0-2_
  6
CONTINUOUS
 62
    7
 10
213.5
 20
130
 40
20
 50
180
 51
270
  0
LINE
  8
_0-2_
  6
CONTINUOUS
 62
    7
 10
126
 20
220
 11
126
 21
217.5
  0
ARC
  8
_0-2_
  6
CONTINUOUS
 62
    7
 10
146
 20
220
 40
20
 50
90
 51
180
  0
LINE
  8
_0-0_
  6
CONTINUOUS
 62
    7
 10
53.5
 20
180
 11
58.5
 21
180
  0
LINE
  8
_0-0_
  6
CONTINUOUS
 62
    7
 10
58.5
 20
180
 11
58.5
 21
185
  0
LINE
  8
_0-0_
  6
CONTINUOUS
 62
    7
 10
58.5
 20
185
 11
53.5
 21
185
  0
LINE
  8
_0-0_
  6
CONTINUOUS
 62
    7
 10
53.5
 20
185
 11
53.5
 21
180
  0
ENDSEC
  0
EOF
