  0
SECTION
  2
HEADER
  9
$ACADVER
  1
AC1009
  9
$INSBASE
 10
0
 20
0
 30
0
  9
$EXTMIN
 10
0
 20
0
  9
$EXTMAX
 10
297
 20
210
  9
$LIMMIN
 10
0
 20
0
  9
$LIMMAX
 10
297
 20
210
  9
$LTSCALE
 40
1
  0
ENDSEC
  0
SECTION
  2
TABLES
  0
TABLE
  2
LTYPE
 70
     9
  0
LTYPE
  2
CONTINUOUS
 70
    64
  3
実線
 72
    65
 73
     0
 40
0.0
  0
LTYPE
  2
DASHED1
 70
    64
  3
--  --  --  --  --  --  --  --  
 72
    65
 73
     2
 40
2.5
 49
1.25
 49
-1.25
  0
LTYPE
  2
DASHED2
 70
    64
  3
----    ----    ----    ----    
 72
    65
 73
     2
 40
5.0
 49
2.5
 49
-2.5
  0
LTYPE
  2
DASHED3
 70
    64
  3
------  ------  ------  ------  
 72
    65
 73
     2
 40
5.0
 49
3.75
 49
-1.25
  0
LTYPE
  2
CENTER1
 70
    64
  3
----- - ----- - ----- - ----- - 
 72
    65
 73
     4
 40
10.0
 49
6.25
 49
-1.25
 49
1.25
 49
-1.25
  0
LTYPE
  2
CENTER2
 70
    64
  3
----------  --  ----------  --  
 72
    65
 73
     4
 40
20.0
 49
12.5
 49
-2.5
 49
2.5
 49
-2.5
  0
LTYPE
  2
PHANTOM1
 70
    64
  3
--- - - --- - - --- - - --- - - 
 72
    65
 73
     6
 40
10.0
 49
3.25
 49
-1.25
 49
1.25
 49
-1.25
 49
1.25
 49
-1.25
  0
LTYPE
  2
PHANTOM2
 70
    64
  3
--------  -  -  --------  -  -  
 72
    65
 73
     6
 40
20.0
 49
10.0
 49
-2.5
 49
1.25
 49
-2.5
 49
1.25
 49
-2.5
  0
LTYPE
  2
DOT
 70
    64
  3
-   -   -   -   -   -   -   -   
 72
    65
 73
     2
 40
2.5
 49
0.625
 49
-1.875
  0
LTYPE
  2
DUMMY
 70
    64
  3
ダミー
 72
    65
 73
     0
 40
0.0
  0
LTYPE
  2
RAND1
 70
    64
  3
ランダム線1
 72
    65
 73
     4
 40
10.0
 49
1.0
 49
-2.0
 49
3.0
 49
-4.0
  0
LTYPE
  2
RAND2
 70
    64
  3
ランダム線2
 72
    65
 73
     4
 40
14.0
 49
2.0
 49
-3.0
 49
4.0
 49
-5.0
  0
LTYPE
  2
RAND3
 70
    64
  3
ランダム線3
 72
    65
 73
     4
 40
18.0
 49
3.0
 49
-4.0
 49
5.0
 49
-6.0
  0
LTYPE
  2
RAND4
 70
    64
  3
ランダム線4
 72
    65
 73
     4
 40
22.0
 49
4.0
 49
-5.0
 49
6.0
 49
-7.0
  0
LTYPE
  2
RAND5
 70
    64
  3
ランダム線5
 72
    65
 73
     4
 40
26.0
 49
5.0
 49
-6.0
 49
7.0
 49
-8.0
  0
LTYPE
  2
LONG1
 70
    64
  3
----------  --  ----------  --  
 72
    65
 73
     4
 40
40.0
 49
32.5
 49
-2.5
 49
2.5
 49
-2.5
  0
LTYPE
  2
LONG2
 70
    64
  3
--------  -  -  --------  -  -  
 72
    65
 73
     6
 40
40.0
 49
30.0
 49
-2.5
 49
1.25
 49
-2.5
 49
1.25
 49
-2.5
  0
LTYPE
  2
LONG3
 70
    64
  3
+++++++++++++++..+++++++++++++++
 72
    65
 73
     2
 40
40.0
 49
37.5
 49
-2.5
  0
LTYPE
  2
LONG4
 70
    64
  3
+++++++++++++++..+++++++++++++++
 72
    65
 73
     2
 40
80.0
 49
75.0
 49
-5.0
  0
LTYPE
  2
LONG5
 70
    64
  3
----------  --  ----------  --  
 72
    65
 73
     4
 40
60.0
 49
37.5
 49
-7.5
 49
7.5
 49
-7.5
  0
LTYPE
  2
dashed
 70
   64
  3
-------   -------------   ------
 72
   65
 73
    2
 40
7.5
 49
6
 49
-1.5
  0
LTYPE
  2
dashed_spaced
 70
   64
  3
----        --------        ----
 72
   65
 73
    2
 40
12
 49
6
 49
-6
  0
LTYPE
  2
long_dashed_dotted
 70
   64
  3
------------- --- --------------
 72
   65
 73
    4
 40
15.25
 49
12
 49
-1.5
 49
0.25
 49
-1.5
  0
LTYPE
  2
long_dashed_double-dotted
 70
   64
  3
----------- --- --- ------------
 72
   65
 73
    6
 40
17
 49
12
 49
-1.5
 49
0.25
 49
-1.5
 49
0.25
 49
-1.5
  0
LTYPE
  2
long_dashed_triplicate-dotted
 70
   64
  3
--------- --- --- --- ----------
 72
   65
 73
    8
 40
18.75
 49
12
 49
-1.5
 49
0.25
 49
-1.5
 49
0.25
 49
-1.5
 49
0.25
 49
-1.5
  0
LTYPE
  2
dotted
 70
   64
  3
   -       -       -       -    
 72
   65
 73
    2
 40
1.75
 49
0.25
 49
-1.5
  0
LTYPE
  2
chain
 70
   64
  3
-------------- -- --------------
 72
   65
 73
    4
 40
18.5
 49
12
 49
-1.5
 49
3.5
 49
-1.5
  0
LTYPE
  2
chain_double_dash
 70
   64
  3
------------ -- -- -------------
 72
   65
 73
    6
 40
23.5
 49
12
 49
-1.5
 49
3.5
 49
-1.5
 49
3.5
 49
-1.5
  0
LTYPE
  2
dashed_dotted
 70
   64
  3
-----------     -     ----------
 72
   65
 73
    4
 40
9.25
 49
6
 49
-1.5
 49
0.25
 49
-1.5
  0
LTYPE
  2
double-dashed_dotted
 70
   64
  3
------   -----------   -   -----
 72
   65
 73
    6
 40
16.75
 49
6
 49
-1.5
 49
6
 49
-1.5
 49
0.25
 49
-1.5
  0
LTYPE
  2
dashed_double-dotted
 70
   64
  3
---------    -    -    ---------
 72
   65
 73
    6
 40
11
 49
6
 49
-1.5
 49
0.25
 49
-1.5
 49
0.25
 49
-1.5
  0
LTYPE
  2
double-dashed_double-dotted
 70
   64
  3
-----   ---------   -   -   ----
 72
   65
 73
    8
 40
18.5
 49
6
 49
-1.5
 49
6
 49
-1.5
 49
0.25
 49
-1.5
 49
0.25
 49
-1.5
  0
LTYPE
  2
dashed_triplicate-dotted
 70
   64
  3
-------    -    -    -    ------
 72
   65
 73
    8
 40
12.75
 49
6
 49
-1.5
 49
0.25
 49
-1.5
 49
0.25
 49
-1.5
 49
0.25
 49
-1.5
  0
LTYPE
  2
double-dashed_triplicate-dotted
 70
   64
  3
-----  ---------  -  -  -  -----
 72
   65
 73
   10
 40
20.25
 49
6
 49
-1.5
 49
6
 49
-1.5
 49
0.25
 49
-1.5
 49
0.25
 49
-1.5
 49
0.25
 49
-1.5
  0
LTYPE
  2
undefined
 70
   64
  3
--------------------------------
 72
   65
 73
    0
 40
0
  0
LTYPE
  2
_
 70
   64
  3
                                
 72
   65
 73
    0
 40
0
  0
LTYPE
  2
__18
 70
   64
  3
                                
 72
   65
 73
    0
 40
0
  0
LTYPE
  2
__19
 70
   64
  3
                                
 72
   65
 73
    0
 40
0
  0
LTYPE
  2
__20
 70
   64
  3
                                
 72
   65
 73
    0
 40
0
  0
LTYPE
  2
__21
 70
   64
  3
                                
 72
   65
 73
    0
 40
0
  0
LTYPE
  2
__22
 70
   64
  3
                                
 72
   65
 73
    0
 40
0
  0
LTYPE
  2
__23
 70
   64
  3
                                
 72
   65
 73
    0
 40
0
  0
LTYPE
  2
__24
 70
   64
  3
                                
 72
   65
 73
    0
 40
0
  0
LTYPE
  2
__25
 70
   64
  3
                                
 72
   65
 73
    0
 40
0
  0
LTYPE
  2
__26
 70
   64
  3
                                
 72
   65
 73
    0
 40
0
  0
LTYPE
  2
__27
 70
   64
  3
                                
 72
   65
 73
    0
 40
0
  0
LTYPE
  2
__28
 70
   64
  3
                                
 72
   65
 73
    0
 40
0
  0
LTYPE
  2
__29
 70
   64
  3
                                
 72
   65
 73
    0
 40
0
  0
LTYPE
  2
__30
 70
   64
  3
                                
 72
   65
 73
    0
 40
0
  0
LTYPE
  2
__31
 70
   64
  3
                                
 72
   65
 73
    0
 40
0
  0
LTYPE
  2
__32
 70
   64
  3
                                
 72
   65
 73
    0
 40
0
  0
ENDTAB
  0
TABLE
  2
STYLE
  5
3
100
AcDbSymbolTable
 70
     1
  0
STYLE
  5
10
100
AcDbSymbolTableRecord
100
AcDbTextStyleTableRecord
  2
STANDARD
 70
     0
 40
0.0
 41
1.0
 50
0.0
 71
     0
 42
0.2
  3
txt
  4
bigfont.shx
  0
STYLE
  5
26
100
AcDbSymbolTableRecord
100
AcDbTextStyleTableRecord
  2
TATEGAKI
 70
    68
 40
0.0
 41
1.0
 50
0.0
 71
     0
 42
1.0
  3
txt
  4
bigfont.shx
  0
ENDTAB
  0
TABLE
  2
LAYER
 70
    3
  0
LAYER
  2
_0-0_
 70
   64
 62
    7
  6
CONTINUOUS
  0
LAYER
  2
_0-3_
 70
   64
 62
    7
  6
CONTINUOUS
  0
LAYER
  2
ADD_LINE
 70
   64
 62
    7
  6
CONTINUOUS
  0
ENDTAB
  0
ENDSEC
  0
SECTION
  2
BLOCKS
  0
ENDSEC
  0
SECTION
  2
ENTITIES
  0
LINE
  8
_0-3_
  6
CONTINUOUS
 62
    7
 10
238.5
 20
85
 11
238.5
 21
75
  0
LINE
  8
_0-3_
  6
CONTINUOUS
 62
    7
 10
251
 20
95
 11
231
 21
95
  0
LINE
  8
_0-3_
  6
CONTINUOUS
 62
    7
 10
238.5
 20
85
 11
251
 21
95
  0
ARC
  8
_0-3_
  6
CONTINUOUS
 62
    7
 10
83.5
 20
195
 40
20
 50
180
 51
0
  0
ARC
  8
_0-3_
  6
CONTINUOUS
 62
    7
 10
83.5
 20
195
 40
10
 50
180
 51
0
  0
LINE
  8
_0-3_
  6
CONTINUOUS
 62
    7
 10
103.5
 20
225
 11
103.5
 21
195
  0
LINE
  8
_0-3_
  6
CONTINUOUS
 62
    7
 10
93.5
 20
225
 11
103.5
 21
225
  0
LINE
  8
_0-3_
  6
CONTINUOUS
 62
    7
 10
93.5
 20
195
 11
93.5
 21
225
  0
LINE
  8
_0-3_
  6
CONTINUOUS
 62
    7
 10
73.5
 20
225
 11
73.5
 21
195
  0
LINE
  8
_0-3_
  6
CONTINUOUS
 62
    7
 10
63.5
 20
225
 11
73.5
 21
225
  0
LINE
  8
_0-3_
  6
CONTINUOUS
 62
    7
 10
63.5
 20
195
 11
63.5
 21
225
  0
LINE
  8
_0-3_
  6
CONTINUOUS
 62
    7
 10
78.5
 20
135
 11
63.5
 21
165
  0
LINE
  8
_0-3_
  6
CONTINUOUS
 62
    7
 10
78.5
 20
115
 11
78.5
 21
135
  0
LINE
  8
_0-3_
  6
CONTINUOUS
 62
    7
 10
88.5
 20
115
 11
78.5
 21
115
  0
LINE
  8
_0-3_
  6
CONTINUOUS
 62
    7
 10
88.5
 20
135
 11
88.5
 21
115
  0
LINE
  8
_0-3_
  6
CONTINUOUS
 62
    7
 10
103.5
 20
165
 11
88.5
 21
135
  0
LINE
  8
_0-3_
  6
CONTINUOUS
 62
    7
 10
93.5
 20
165
 11
103.5
 21
165
  0
LINE
  8
_0-3_
  6
CONTINUOUS
 62
    7
 10
83.5
 20
145
 11
93.5
 21
165
  0
LINE
  8
_0-3_
  6
CONTINUOUS
 62
    7
 10
73.5
 20
165
 11
83.5
 21
145
  0
LINE
  8
_0-3_
  6
CONTINUOUS
 62
    7
 10
63.5
 20
165
 11
73.5
 21
165
  0
LINE
  8
_0-3_
  6
CONTINUOUS
 62
    7
 10
86
 20
45
 11
96
 21
45
  0
LINE
  8
_0-3_
  6
CONTINUOUS
 62
    7
 10
63.5
 20
17.5
 11
86
 21
45
  0
LINE
  8
_0-3_
  6
CONTINUOUS
 62
    7
 10
63.5
 20
7.5
 11
63.5
 21
17.5
  0
LINE
  8
_0-3_
  6
CONTINUOUS
 62
    7
 10
86
 20
7.5
 11
63.5
 21
7.5
  0
LINE
  8
_0-3_
  6
CONTINUOUS
 62
    7
 10
86
 20
-5
 11
86
 21
7.5
  0
LINE
  8
_0-3_
  6
CONTINUOUS
 62
    7
 10
96
 20
-5
 11
86
 21
-5
  0
LINE
  8
_0-3_
  6
CONTINUOUS
 62
    7
 10
96
 20
7.5
 11
96
 21
-5
  0
LINE
  8
_0-3_
  6
CONTINUOUS
 62
    7
 10
103.5
 20
7.5
 11
96
 21
7.5
  0
LINE
  8
_0-3_
  6
CONTINUOUS
 62
    7
 10
103.5
 20
17.5
 11
103.5
 21
7.5
  0
LINE
  8
_0-3_
  6
CONTINUOUS
 62
    7
 10
96
 20
17.5
 11
103.5
 21
17.5
  0
LINE
  8
_0-3_
  6
CONTINUOUS
 62
    7
 10
96
 20
45
 11
96
 21
17.5
  0
LINE
  8
_0-3_
  6
CONTINUOUS
 62
    7
 10
103.5
 20
85
 11
103.5
 21
75
  0
LINE
  8
_0-3_
  6
CONTINUOUS
 62
    7
 10
63.5
 20
85
 11
63.5
 21
75
  0
ARC
  8
_0-3_
  6
CONTINUOUS
 62
    7
 10
83.5
 20
75
 40
20
 50
180
 51
0
  0
ARC
  8
_0-3_
  6
CONTINUOUS
 62
    7
 10
83.5
 20
85
 40
20
 50
0
 51
180
  0
LINE
  8
_0-3_
  6
CONTINUOUS
 62
    7
 10
93.5
 20
85
 11
93.5
 21
75
  0
LINE
  8
_0-3_
  6
CONTINUOUS
 62
    7
 10
73.5
 20
85
 11
73.5
 21
75
  0
ARC
  8
_0-3_
  6
CONTINUOUS
 62
    7
 10
83.5
 20
75
 40
10
 50
180
 51
0
  0
ARC
  8
_0-3_
  6
CONTINUOUS
 62
    7
 10
83.5
 20
85
 40
10
 50
0
 51
180
  0
LINE
  8
_0-3_
  6
CONTINUOUS
 62
    7
 10
78.5
 20
-45
 11
88.5
 21
-45
  0
ARC
  8
_0-3_
  6
CONTINUOUS
 62
    7
 10
86
 20
-30
 40
15
 50
324.91463433272486
 51
89.999999999999943
  0
ARC
  8
_0-3_
  6
CONTINUOUS
 62
    7
 10
88.5
 20
-50
 40
15
 50
270
 51
49.335398365078674
  0
ARC
  8
_0-3_
  6
CONTINUOUS
 62
    7
 10
78.5
 20
-50
 40
15
 50
130.66460163492133
 51
270
  0
ARC
  8
_0-3_
  6
CONTINUOUS
 62
    7
 10
81
 20
-30
 40
15
 50
90
 51
215.08536566727514
  0
LINE
  8
_0-3_
  6
CONTINUOUS
 62
    7
 10
81
 20
-15
 11
86
 21
-15
  0
LINE
  8
_0-3_
  6
CONTINUOUS
 62
    7
 10
81
 20
-25
 11
86
 21
-25
  0
LINE
  8
_0-3_
  6
CONTINUOUS
 62
    7
 10
81
 20
-35
 11
86
 21
-35
  0
LINE
  8
_0-3_
  6
CONTINUOUS
 62
    7
 10
78.5
 20
-55
 11
88.5
 21
-55
  0
LINE
  8
_0-3_
  6
CONTINUOUS
 62
    7
 10
78.5
 20
-65
 11
88.5
 21
-65
  0
ARC
  8
_0-3_
  6
CONTINUOUS
 62
    7
 10
78.5
 20
-50
 40
5
 50
90
 51
270
  0
ARC
  8
_0-3_
  6
CONTINUOUS
 62
    7
 10
88.5
 20
-50
 40
5
 50
270
 51
90
  0
ARC
  8
_0-3_
  6
CONTINUOUS
 62
    7
 10
86
 20
-30
 40
5
 50
270
 51
90
  0
ARC
  8
_0-3_
  6
CONTINUOUS
 62
    7
 10
81
 20
-30
 40
5
 50
90
 51
270
  0
LINE
  8
_0-3_
  6
CONTINUOUS
 62
    7
 10
138.5
 20
191.66666666666666
 11
148.5
 21
225
  0
LINE
  8
_0-3_
  6
CONTINUOUS
 62
    7
 10
128.5
 20
225
 11
138.5
 21
191.66666666666666
  0
LINE
  8
_0-3_
  6
CONTINUOUS
 62
    7
 10
133.5
 20
175
 11
143.5
 21
175
  0
LINE
  8
_0-3_
  6
CONTINUOUS
 62
    7
 10
148.5
 20
225
 11
158.5
 21
225
  0
LINE
  8
_0-3_
  6
CONTINUOUS
 62
    7
 10
158.5
 20
225
 11
143.5
 21
175
  0
LINE
  8
_0-3_
  6
CONTINUOUS
 62
    7
 10
118.5
 20
225
 11
133.5
 21
175
  0
LINE
  8
_0-3_
  6
CONTINUOUS
 62
    7
 10
118.5
 20
225
 11
128.5
 21
225
  0
LINE
  8
_0-3_
  6
CONTINUOUS
 62
    7
 10
128.5
 20
7.5
 11
118.7404351282506
 21
5.0601087820626276
  0
ARC
  8
_0-3_
  6
CONTINUOUS
 62
    7
 10
131
 20
7.5
 40
12.5
 50
191.25589886971383
 51
270
  0
LINE
  8
_0-3_
  6
CONTINUOUS
 62
    7
 10
128.5
 20
25
 11
143.5
 21
25
  0
LINE
  8
_0-3_
  6
CONTINUOUS
 62
    7
 10
131
 20
5
 11
143.5
 21
5
  0
LINE
  8
_0-3_
  6
CONTINUOUS
 62
    7
 10
131
 20
-5
 11
143.5
 21
-5
  0
ARC
  8
_0-3_
  6
CONTINUOUS
 62
    7
 10
131
 20
7.5
 40
2.5
 50
180
 51
270
  0
ARC
  8
_0-3_
  6
CONTINUOUS
 62
    7
 10
143.5
 20
10
 40
15
 50
270
 51
90
  0
ARC
  8
_0-3_
  6
CONTINUOUS
 62
    7
 10
143.5
 20
10
 40
5
 50
270
 51
90
  0
LINE
  8
_0-3_
  6
CONTINUOUS
 62
    7
 10
118.5
 20
15
 11
143.5
 21
15
  0
LINE
  8
_0-3_
  6
CONTINUOUS
 62
    7
 10
118.5
 20
45
 11
118.5
 21
15
  0
LINE
  8
_0-3_
  6
CONTINUOUS
 62
    7
 10
128.5
 20
35
 11
128.5
 21
25
  0
LINE
  8
_0-3_
  6
CONTINUOUS
 62
    7
 10
153.5
 20
35
 11
128.5
 21
35
  0
LINE
  8
_0-3_
  6
CONTINUOUS
 62
    7
 10
153.5
 20
45
 11
153.5
 21
35
  0
LINE
  8
_0-3_
  6
CONTINUOUS
 62
    7
 10
118.5
 20
45
 11
153.5
 21
45
  0
LINE
  8
_0-3_
  6
CONTINUOUS
 62
    7
 10
158.5
 20
165
 11
118.5
 21
165
  0
LINE
  8
_0-3_
  6
CONTINUOUS
 62
    7
 10
158.5
 20
155
 11
158.5
 21
165
  0
LINE
  8
_0-3_
  6
CONTINUOUS
 62
    7
 10
158.5
 20
115
 11
158.5
 21
125
  0
LINE
  8
_0-3_
  6
CONTINUOUS
 62
    7
 10
118.5
 20
115
 11
158.5
 21
115
  0
LINE
  8
_0-3_
  6
CONTINUOUS
 62
    7
 10
118.5
 20
125
 11
118.5
 21
115
  0
LINE
  8
_0-3_
  6
CONTINUOUS
 62
    7
 10
118.5
 20
165
 11
118.5
 21
155
  0
LINE
  8
_0-3_
  6
CONTINUOUS
 62
    7
 10
133.5
 20
55
 11
133.5
 21
105
  0
LINE
  8
_0-3_
  6
CONTINUOUS
 62
    7
 10
143.5
 20
55
 11
133.5
 21
55
  0
LINE
  8
_0-3_
  6
CONTINUOUS
 62
    7
 10
143.5
 20
105
 11
143.5
 21
55
  0
LINE
  8
_0-3_
  6
CONTINUOUS
 62
    7
 10
133.5
 20
105
 11
143.5
 21
105
  0
LINE
  8
_0-3_
  6
CONTINUOUS
 62
    7
 10
133.5
 20
-15
 11
143.5
 21
-15
  0
LINE
  8
_0-3_
  6
CONTINUOUS
 62
    7
 10
133.5
 20
-25
 11
143.5
 21
-25
  0
LINE
  8
_0-3_
  6
CONTINUOUS
 62
    7
 10
133.5
 20
-35
 11
143.5
 21
-35
  0
ARC
  8
_0-3_
  6
CONTINUOUS
 62
    7
 10
133.5
 20
-30
 40
15
 50
90
 51
270
  0
ARC
  8
_0-3_
  6
CONTINUOUS
 62
    7
 10
143.5
 20
-30
 40
5
 50
270
 51
90
  0
ARC
  8
_0-3_
  6
CONTINUOUS
 62
    7
 10
133.5
 20
-30
 40
5
 50
90
 51
270
  0
LINE
  8
_0-3_
  6
CONTINUOUS
 62
    7
 10
193.5
 20
185
 11
198.5
 21
175
  0
LINE
  8
_0-3_
  6
CONTINUOUS
 62
    7
 10
188.5
 20
175
 11
193.5
 21
185
  0
LINE
  8
_0-3_
  6
CONTINUOUS
 62
    7
 10
188.5
 20
175
 11
178.5
 21
175
  0
LINE
  8
_0-3_
  6
CONTINUOUS
 62
    7
 10
208.5
 20
175
 11
198.5
 21
175
  0
LINE
  8
_0-3_
  6
CONTINUOUS
 62
    7
 10
213.5
 20
225
 11
203.5
 21
225
  0
LINE
  8
_0-3_
  6
CONTINUOUS
 62
    7
 10
208.5
 20
175
 11
213.5
 21
225
  0
LINE
  8
_0-3_
  6
CONTINUOUS
 62
    7
 10
173.5
 20
225
 11
183.5
 21
225
  0
LINE
  8
_0-3_
  6
CONTINUOUS
 62
    7
 10
173.5
 20
225
 11
178.5
 21
175
  0
LINE
  8
_0-3_
  6
CONTINUOUS
 62
    7
 10
188.5
 20
-5
 11
198.5
 21
-5
  0
LINE
  8
_0-3_
  6
CONTINUOUS
 62
    7
 10
188.5
 20
5
 11
198.5
 21
5
  0
LINE
  8
_0-3_
  6
CONTINUOUS
 62
    7
 10
188.5
 20
15
 11
198.5
 21
15
  0
ARC
  8
_0-3_
  6
CONTINUOUS
 62
    7
 10
198.5
 20
10
 40
15
 50
270
 51
90
  0
ARC
  8
_0-3_
  6
CONTINUOUS
 62
    7
 10
198.5
 20
10
 40
5
 50
270
 51
90
  0
ARC
  8
_0-3_
  6
CONTINUOUS
 62
    7
 10
188.5
 20
10
 40
5
 50
90
 51
270
  0
LINE
  8
_0-3_
  6
CONTINUOUS
 62
    7
 10
191
 20
65
 11
209.52264954516721
 21
78.891987158875395
  0
LINE
  8
_0-3_
  6
CONTINUOUS
 62
    7
 10
191
 20
65
 11
213.5
 21
65
  0
ARC
  8
_0-3_
  6
CONTINUOUS
 62
    7
 10
196
 20
90
 40
17.5
 50
320.59903032125663
 51
0
  0
ARC
  8
_0-3_
  6
CONTINUOUS
 62
    7
 10
198.5
 20
90
 40
15
 50
0
 51
90
  0
ARC
  8
_0-3_
  6
CONTINUOUS
 62
    7
 10
198.5
 20
90
 40
5
 50
306.86989764584393
 51
90
  0
LINE
  8
_0-3_
  6
CONTINUOUS
 62
    7
 10
201.5
 20
86
 11
173.5
 21
65
  0
ARC
  8
_0-3_
  6
CONTINUOUS
 62
    7
 10
191
 20
87.5
 40
17.5
 50
90
 51
171.93007657667476
  0
LINE
  8
_0-3_
  6
CONTINUOUS
 62
    7
 10
183.5
 20
87.5
 11
173.67329400657962
 21
89.956676498355108
  0
ARC
  8
_0-3_
  6
CONTINUOUS
 62
    7
 10
191
 20
87.5
 40
7.5
 50
90
 51
180
  0
LINE
  8
_0-3_
  6
CONTINUOUS
 62
    7
 10
191
 20
95
 11
198.5
 21
95
  0
LINE
  8
_0-3_
  6
CONTINUOUS
 62
    7
 10
191
 20
105
 11
198.5
 21
105
  0
LINE
  8
_0-3_
  6
CONTINUOUS
 62
    7
 10
213.5
 20
65
 11
213.5
 21
55
  0
LINE
  8
_0-3_
  6
CONTINUOUS
 62
    7
 10
213.5
 20
55
 11
173.5
 21
55
  0
LINE
  8
_0-3_
  6
CONTINUOUS
 62
    7
 10
173.5
 20
55
 11
173.5
 21
65
  0
LINE
  8
_0-3_
  6
CONTINUOUS
 62
    7
 10
239.75
 20
225
 11
248.5
 21
209.78260869565219
  0
LINE
  8
_0-3_
  6
CONTINUOUS
 62
    7
 10
257.25
 20
225
 11
248.5
 21
209.78260869565219
  0
LINE
  8
_0-3_
  6
CONTINUOUS
 62
    7
 10
254.125
 20
200
 11
268.5
 21
225
  0
LINE
  8
_0-3_
  6
CONTINUOUS
 62
    7
 10
254.125
 20
200
 11
268.5
 21
175
  0
LINE
  8
_0-3_
  6
CONTINUOUS
 62
    7
 10
248.5
 20
190.21739130434784
 11
257.25
 21
175
  0
LINE
  8
_0-3_
  6
CONTINUOUS
 62
    7
 10
228.5
 20
225
 11
242.875
 21
200
  0
LINE
  8
_0-3_
  6
CONTINUOUS
 62
    7
 10
242.875
 20
200
 11
228.5
 21
175
  0
LINE
  8
_0-3_
  6
CONTINUOUS
 62
    7
 10
257.25
 20
225
 11
268.5
 21
225
  0
LINE
  8
_0-3_
  6
CONTINUOUS
 62
    7
 10
228.5
 20
225
 11
239.75
 21
225
  0
LINE
  8
_0-3_
  6
CONTINUOUS
 62
    7
 10
257.25
 20
175
 11
268.5
 21
175
  0
LINE
  8
_0-3_
  6
CONTINUOUS
 62
    7
 10
248.5
 20
-5
 11
236
 21
-5
  0
LINE
  8
_0-3_
  6
CONTINUOUS
 62
    7
 10
268.5
 20
35
 11
248.5
 21
-5
  0
LINE
  8
_0-3_
  6
CONTINUOUS
 62
    7
 10
268.5
 20
45
 11
268.5
 21
35
  0
LINE
  8
_0-3_
  6
CONTINUOUS
 62
    7
 10
228.5
 20
45
 11
268.5
 21
45
  0
LINE
  8
_0-3_
  6
CONTINUOUS
 62
    7
 10
256
 20
35
 11
236
 21
-5
  0
LINE
  8
_0-3_
  6
CONTINUOUS
 62
    7
 10
228.5
 20
35
 11
256
 21
35
  0
LINE
  8
_0-3_
  6
CONTINUOUS
 62
    7
 10
228.5
 20
45
 11
228.5
 21
35
  0
LINE
  8
_0-3_
  6
CONTINUOUS
 62
    7
 10
238.5
 20
67.5
 11
228.7404351282506
 21
65.060108782062628
  0
ARC
  8
_0-3_
  6
CONTINUOUS
 62
    7
 10
241
 20
67.5
 40
12.5
 50
191.25589886971383
 51
270
  0
LINE
  8
_0-3_
  6
CONTINUOUS
 62
    7
 10
266
 20
95
 11
253.5
 21
85
  0
LINE
  8
_0-3_
  6
CONTINUOUS
 62
    7
 10
266
 20
105
 11
266
 21
95
  0
LINE
  8
_0-3_
  6
CONTINUOUS
 62
    7
 10
241
 20
55
 11
253.5
 21
55
  0
ARC
  8
_0-3_
  6
CONTINUOUS
 62
    7
 10
253.5
 20
70
 40
15
 50
270
 51
90
  0
LINE
  8
_0-3_
  6
CONTINUOUS
 62
    7
 10
241
 20
65
 11
253.5
 21
65
  0
ARC
  8
_0-3_
  6
CONTINUOUS
 62
    7
 10
241
 20
67.5
 40
2.5
 50
180
 51
270
  0
ARC
  8
_0-3_
  6
CONTINUOUS
 62
    7
 10
253.5
 20
70
 40
5
 50
270
 51
90
  0
LINE
  8
_0-3_
  6
CONTINUOUS
 62
    7
 10
238.5
 20
75
 11
253.5
 21
75
  0
LINE
  8
_0-3_
  6
CONTINUOUS
 62
    7
 10
231
 20
105
 11
266
 21
105
  0
LINE
  8
_0-3_
  6
CONTINUOUS
 62
    7
 10
231
 20
105
 11
231
 21
95
  0
LINE
  8
_0-3_
  6
CONTINUOUS
 62
    7
 10
241.90625
 20
178.75
 11
248.5
 21
190.21739130434784
  0
LINE
  8
_0-3_
  6
CONTINUOUS
 62
    7
 10
241.90625
 20
178.75
 11
244.75
 21
178.75
  0
LINE
  8
_0-3_
  6
CONTINUOUS
 62
    7
 10
228.5
 20
175
 11
244.75
 21
175
  0
LINE
  8
_0-3_
  6
CONTINUOUS
 62
    7
 10
244.75
 20
178.75
 11
244.75
 21
175
  0
LINE
  8
_0-3_
  6
CONTINUOUS
 62
    7
 10
158.5
 20
125
 11
131
 21
125
  0
LINE
  8
_0-3_
  6
CONTINUOUS
 62
    7
 10
131
 20
125
 11
158.5
 21
155
  0
LINE
  8
_0-3_
  6
CONTINUOUS
 62
    7
 10
146
 20
155
 11
118.5
 21
125
  0
LINE
  8
_0-3_
  6
CONTINUOUS
 62
    7
 10
118.5
 20
155
 11
146
 21
155
  0
LINE
  8
_0-3_
  6
CONTINUOUS
 62
    7
 10
183.5
 20
225
 11
186.55263157894737
 21
194.4736842105263
  0
LINE
  8
_0-3_
  6
CONTINUOUS
 62
    7
 10
193.5
 20
207.5
 11
186.55263157894737
 21
194.4736842105263
  0
LINE
  8
_0-3_
  6
CONTINUOUS
 62
    7
 10
193.5
 20
207.5
 11
200.44736842105263
 21
194.4736842105263
  0
LINE
  8
_0-3_
  6
CONTINUOUS
 62
    7
 10
203.5
 20
225
 11
200.44736842105263
 21
194.4736842105263
  0
LINE
  8
_0-3_
  6
CONTINUOUS
 62
    7
 10
118.5
 20
60
 11
123.5
 21
60
  0
LINE
  8
_0-3_
  6
CONTINUOUS
 62
    7
 10
123.5
 20
60
 11
123.5
 21
55
  0
LINE
  8
_0-3_
  6
CONTINUOUS
 62
    7
 10
123.5
 20
55
 11
118.5
 21
55
  0
LINE
  8
_0-3_
  6
CONTINUOUS
 62
    7
 10
118.5
 20
55
 11
118.5
 21
60
  0
LINE
  8
_0-3_
  6
CONTINUOUS
 62
    7
 10
138.5
 20
-65
 11
156.04656089860899
 21
-38.220937271229843
  0
ARC
  8
_0-3_
  6
CONTINUOUS
 62
    7
 10
143.5
 20
-30
 40
15
 50
326.76580739562269
 51
90
  0
LINE
  8
_0-3_
  6
CONTINUOUS
 62
    7
 10
126.54453258449252
 20
-65
 11
138.5
 21
-65
  0
LINE
  8
_0-3_
  6
CONTINUOUS
 62
    7
 10
133.5
 20
-45
 11
139.64921894064179
 21
-45
  0
LINE
  8
_0-3_
  6
CONTINUOUS
 62
    7
 10
126.54453258449252
 20
-65
 11
139.64921894064179
 21
-45
  0
ARC
  8
_0-3_
  6
CONTINUOUS
 62
    7
 10
188.5
 20
10
 40
15
 50
146.76580739562269
 51
270
  0
LINE
  8
_0-3_
  6
CONTINUOUS
 62
    7
 10
193.5
 20
45
 11
175.95343910139101
 21
18.220937271229843
  0
LINE
  8
_0-3_
  6
CONTINUOUS
 62
    7
 10
193.5
 20
45
 11
205.45546741550748
 21
45
  0
LINE
  8
_0-3_
  6
CONTINUOUS
 62
    7
 10
192.35078105935821
 20
25
 11
198.5
 21
25
  0
LINE
  8
_0-3_
  6
CONTINUOUS
 62
    7
 10
205.45546741550748
 20
45
 11
192.35078105935821
 21
25
  0
LINE
  8
_0-3_
  6
CONTINUOUS
 62
    7
 10
75.774578984885721
 20
17.5
 11
86
 21
17.5
  0
LINE
  8
_0-0_
  6
CONTINUOUS
 62
    7
 10
75.774578984885721
 20
17.5
 11
86
 21
29.997736796250777
  0
LINE
  8
_0-3_
  6
CONTINUOUS
 62
    7
 10
86
 20
17.5
 11
86
 21
29.997736796250777
  0
ENDSEC
  0
EOF
