  0
SECTION
  2
HEADER
  9
$ACADVER
  1
AC1009
  9
$INSBASE
 10
0
 20
0
 30
0
  9
$EXTMIN
 10
0
 20
0
  9
$EXTMAX
 10
297
 20
210
  9
$LIMMIN
 10
0
 20
0
  9
$LIMMAX
 10
297
 20
210
  9
$LTSCALE
 40
1
  0
ENDSEC
  0
SECTION
  2
TABLES
  0
TABLE
  2
LTYPE
 70
     9
  0
LTYPE
  2
CONTINUOUS
 70
    64
  3
実線
 72
    65
 73
     0
 40
0.0
  0
LTYPE
  2
DASHED1
 70
    64
  3
--  --  --  --  --  --  --  --  
 72
    65
 73
     2
 40
2.5
 49
1.25
 49
-1.25
  0
LTYPE
  2
DASHED2
 70
    64
  3
----    ----    ----    ----    
 72
    65
 73
     2
 40
5.0
 49
2.5
 49
-2.5
  0
LTYPE
  2
DASHED3
 70
    64
  3
------  ------  ------  ------  
 72
    65
 73
     2
 40
5.0
 49
3.75
 49
-1.25
  0
LTYPE
  2
CENTER1
 70
    64
  3
----- - ----- - ----- - ----- - 
 72
    65
 73
     4
 40
10.0
 49
6.25
 49
-1.25
 49
1.25
 49
-1.25
  0
LTYPE
  2
CENTER2
 70
    64
  3
----------  --  ----------  --  
 72
    65
 73
     4
 40
20.0
 49
12.5
 49
-2.5
 49
2.5
 49
-2.5
  0
LTYPE
  2
PHANTOM1
 70
    64
  3
--- - - --- - - --- - - --- - - 
 72
    65
 73
     6
 40
10.0
 49
3.25
 49
-1.25
 49
1.25
 49
-1.25
 49
1.25
 49
-1.25
  0
LTYPE
  2
PHANTOM2
 70
    64
  3
--------  -  -  --------  -  -  
 72
    65
 73
     6
 40
20.0
 49
10.0
 49
-2.5
 49
1.25
 49
-2.5
 49
1.25
 49
-2.5
  0
LTYPE
  2
DOT
 70
    64
  3
-   -   -   -   -   -   -   -   
 72
    65
 73
     2
 40
2.5
 49
0.625
 49
-1.875
  0
LTYPE
  2
DUMMY
 70
    64
  3
ダミー
 72
    65
 73
     0
 40
0.0
  0
LTYPE
  2
RAND1
 70
    64
  3
ランダム線1
 72
    65
 73
     4
 40
10.0
 49
1.0
 49
-2.0
 49
3.0
 49
-4.0
  0
LTYPE
  2
RAND2
 70
    64
  3
ランダム線2
 72
    65
 73
     4
 40
14.0
 49
2.0
 49
-3.0
 49
4.0
 49
-5.0
  0
LTYPE
  2
RAND3
 70
    64
  3
ランダム線3
 72
    65
 73
     4
 40
18.0
 49
3.0
 49
-4.0
 49
5.0
 49
-6.0
  0
LTYPE
  2
RAND4
 70
    64
  3
ランダム線4
 72
    65
 73
     4
 40
22.0
 49
4.0
 49
-5.0
 49
6.0
 49
-7.0
  0
LTYPE
  2
RAND5
 70
    64
  3
ランダム線5
 72
    65
 73
     4
 40
26.0
 49
5.0
 49
-6.0
 49
7.0
 49
-8.0
  0
LTYPE
  2
LONG1
 70
    64
  3
----------  --  ----------  --  
 72
    65
 73
     4
 40
40.0
 49
32.5
 49
-2.5
 49
2.5
 49
-2.5
  0
LTYPE
  2
LONG2
 70
    64
  3
--------  -  -  --------  -  -  
 72
    65
 73
     6
 40
40.0
 49
30.0
 49
-2.5
 49
1.25
 49
-2.5
 49
1.25
 49
-2.5
  0
LTYPE
  2
LONG3
 70
    64
  3
+++++++++++++++..+++++++++++++++
 72
    65
 73
     2
 40
40.0
 49
37.5
 49
-2.5
  0
LTYPE
  2
LONG4
 70
    64
  3
+++++++++++++++..+++++++++++++++
 72
    65
 73
     2
 40
80.0
 49
75.0
 49
-5.0
  0
LTYPE
  2
LONG5
 70
    64
  3
----------  --  ----------  --  
 72
    65
 73
     4
 40
60.0
 49
37.5
 49
-7.5
 49
7.5
 49
-7.5
  0
LTYPE
  2
dashed
 70
   64
  3
-------   -------------   ------
 72
   65
 73
    2
 40
7.5
 49
6
 49
-1.5
  0
LTYPE
  2
dashed_spaced
 70
   64
  3
----        --------        ----
 72
   65
 73
    2
 40
12
 49
6
 49
-6
  0
LTYPE
  2
long_dashed_dotted
 70
   64
  3
------------- --- --------------
 72
   65
 73
    4
 40
15.25
 49
12
 49
-1.5
 49
0.25
 49
-1.5
  0
LTYPE
  2
long_dashed_double-dotted
 70
   64
  3
----------- --- --- ------------
 72
   65
 73
    6
 40
17
 49
12
 49
-1.5
 49
0.25
 49
-1.5
 49
0.25
 49
-1.5
  0
LTYPE
  2
long_dashed_triplicate-dotted
 70
   64
  3
--------- --- --- --- ----------
 72
   65
 73
    8
 40
18.75
 49
12
 49
-1.5
 49
0.25
 49
-1.5
 49
0.25
 49
-1.5
 49
0.25
 49
-1.5
  0
LTYPE
  2
dotted
 70
   64
  3
   -       -       -       -    
 72
   65
 73
    2
 40
1.75
 49
0.25
 49
-1.5
  0
LTYPE
  2
chain
 70
   64
  3
-------------- -- --------------
 72
   65
 73
    4
 40
18.5
 49
12
 49
-1.5
 49
3.5
 49
-1.5
  0
LTYPE
  2
chain_double_dash
 70
   64
  3
------------ -- -- -------------
 72
   65
 73
    6
 40
23.5
 49
12
 49
-1.5
 49
3.5
 49
-1.5
 49
3.5
 49
-1.5
  0
LTYPE
  2
dashed_dotted
 70
   64
  3
-----------     -     ----------
 72
   65
 73
    4
 40
9.25
 49
6
 49
-1.5
 49
0.25
 49
-1.5
  0
LTYPE
  2
double-dashed_dotted
 70
   64
  3
------   -----------   -   -----
 72
   65
 73
    6
 40
16.75
 49
6
 49
-1.5
 49
6
 49
-1.5
 49
0.25
 49
-1.5
  0
LTYPE
  2
dashed_double-dotted
 70
   64
  3
---------    -    -    ---------
 72
   65
 73
    6
 40
11
 49
6
 49
-1.5
 49
0.25
 49
-1.5
 49
0.25
 49
-1.5
  0
LTYPE
  2
double-dashed_double-dotted
 70
   64
  3
-----   ---------   -   -   ----
 72
   65
 73
    8
 40
18.5
 49
6
 49
-1.5
 49
6
 49
-1.5
 49
0.25
 49
-1.5
 49
0.25
 49
-1.5
  0
LTYPE
  2
dashed_triplicate-dotted
 70
   64
  3
-------    -    -    -    ------
 72
   65
 73
    8
 40
12.75
 49
6
 49
-1.5
 49
0.25
 49
-1.5
 49
0.25
 49
-1.5
 49
0.25
 49
-1.5
  0
LTYPE
  2
double-dashed_triplicate-dotted
 70
   64
  3
-----  ---------  -  -  -  -----
 72
   65
 73
   10
 40
20.25
 49
6
 49
-1.5
 49
6
 49
-1.5
 49
0.25
 49
-1.5
 49
0.25
 49
-1.5
 49
0.25
 49
-1.5
  0
LTYPE
  2
undefined
 70
   64
  3
--------------------------------
 72
   65
 73
    0
 40
0
  0
LTYPE
  2
_
 70
   64
  3
                                
 72
   65
 73
    0
 40
0
  0
LTYPE
  2
__18
 70
   64
  3
                                
 72
   65
 73
    0
 40
0
  0
LTYPE
  2
__19
 70
   64
  3
                                
 72
   65
 73
    0
 40
0
  0
LTYPE
  2
__20
 70
   64
  3
                                
 72
   65
 73
    0
 40
0
  0
LTYPE
  2
__21
 70
   64
  3
                                
 72
   65
 73
    0
 40
0
  0
LTYPE
  2
__22
 70
   64
  3
                                
 72
   65
 73
    0
 40
0
  0
LTYPE
  2
__23
 70
   64
  3
                                
 72
   65
 73
    0
 40
0
  0
LTYPE
  2
__24
 70
   64
  3
                                
 72
   65
 73
    0
 40
0
  0
LTYPE
  2
__25
 70
   64
  3
                                
 72
   65
 73
    0
 40
0
  0
LTYPE
  2
__26
 70
   64
  3
                                
 72
   65
 73
    0
 40
0
  0
LTYPE
  2
__27
 70
   64
  3
                                
 72
   65
 73
    0
 40
0
  0
LTYPE
  2
__28
 70
   64
  3
                                
 72
   65
 73
    0
 40
0
  0
LTYPE
  2
__29
 70
   64
  3
                                
 72
   65
 73
    0
 40
0
  0
LTYPE
  2
__30
 70
   64
  3
                                
 72
   65
 73
    0
 40
0
  0
LTYPE
  2
__31
 70
   64
  3
                                
 72
   65
 73
    0
 40
0
  0
LTYPE
  2
__32
 70
   64
  3
                                
 72
   65
 73
    0
 40
0
  0
ENDTAB
  0
TABLE
  2
STYLE
  5
3
100
AcDbSymbolTable
 70
     1
  0
STYLE
  5
10
100
AcDbSymbolTableRecord
100
AcDbTextStyleTableRecord
  2
STANDARD
 70
     0
 40
0.0
 41
1.0
 50
0.0
 71
     0
 42
0.2
  3
txt
  4
bigfont.shx
  0
STYLE
  5
26
100
AcDbSymbolTableRecord
100
AcDbTextStyleTableRecord
  2
TATEGAKI
 70
    68
 40
0.0
 41
1.0
 50
0.0
 71
     0
 42
1.0
  3
txt
  4
bigfont.shx
  0
ENDTAB
  0
TABLE
  2
LAYER
 70
    3
  0
LAYER
  2
_0-0_
 70
   64
 62
    7
  6
CONTINUOUS
  0
LAYER
  2
_0-3_
 70
   64
 62
    7
  6
CONTINUOUS
  0
LAYER
  2
ADD_LINE
 70
   64
 62
    7
  6
CONTINUOUS
  0
ENDTAB
  0
ENDSEC
  0
SECTION
  2
BLOCKS
  0
ENDSEC
  0
SECTION
  2
ENTITIES
  0
LINE
  8
_0-3_
  6
CONTINUOUS
 62
    7
 10
63.5
 20
115
 11
63.5
 21
165
  0
LINE
  8
_0-3_
  6
CONTINUOUS
 62
    7
 10
103.5
 20
115
 11
63.5
 21
115
  0
LINE
  8
_0-3_
  6
CONTINUOUS
 62
    7
 10
103.5
 20
125
 11
103.5
 21
115
  0
LINE
  8
_0-3_
  6
CONTINUOUS
 62
    7
 10
73.5
 20
125
 11
103.5
 21
125
  0
LINE
  8
_0-3_
  6
CONTINUOUS
 62
    7
 10
73.5
 20
135
 11
73.5
 21
125
  0
LINE
  8
_0-3_
  6
CONTINUOUS
 62
    7
 10
93.5
 20
135
 11
73.5
 21
135
  0
LINE
  8
_0-3_
  6
CONTINUOUS
 62
    7
 10
93.5
 20
145
 11
93.5
 21
135
  0
LINE
  8
_0-3_
  6
CONTINUOUS
 62
    7
 10
73.5
 20
145
 11
93.5
 21
145
  0
LINE
  8
_0-3_
  6
CONTINUOUS
 62
    7
 10
73.5
 20
155
 11
73.5
 21
145
  0
LINE
  8
_0-3_
  6
CONTINUOUS
 62
    7
 10
103.5
 20
155
 11
73.5
 21
155
  0
LINE
  8
_0-3_
  6
CONTINUOUS
 62
    7
 10
103.5
 20
165
 11
103.5
 21
155
  0
LINE
  8
_0-3_
  6
CONTINUOUS
 62
    7
 10
63.5
 20
165
 11
103.5
 21
165
  0
LINE
  8
_0-3_
  6
CONTINUOUS
 62
    7
 10
88.5
 20
105
 11
78.5
 21
105
  0
LINE
  8
_0-3_
  6
CONTINUOUS
 62
    7
 10
88.5
 20
55
 11
88.5
 21
105
  0
LINE
  8
_0-3_
  6
CONTINUOUS
 62
    7
 10
78.5
 20
55
 11
88.5
 21
55
  0
LINE
  8
_0-3_
  6
CONTINUOUS
 62
    7
 10
78.5
 20
105
 11
78.5
 21
55
  0
LINE
  8
_0-3_
  6
CONTINUOUS
 62
    7
 10
83.5
 20
30
 11
93.5
 21
45
  0
LINE
  8
_0-3_
  6
CONTINUOUS
 62
    7
 10
73.5
 20
45
 11
83.5
 21
30
  0
LINE
  8
_0-3_
  6
CONTINUOUS
 62
    7
 10
63.5
 20
45
 11
63.5
 21
-5
  0
LINE
  8
_0-3_
  6
CONTINUOUS
 62
    7
 10
73.5
 20
45
 11
63.5
 21
45
  0
LINE
  8
_0-3_
  6
CONTINUOUS
 62
    7
 10
103.5
 20
45
 11
93.5
 21
45
  0
LINE
  8
_0-3_
  6
CONTINUOUS
 62
    7
 10
103.5
 20
-5
 11
103.5
 21
45
  0
LINE
  8
_0-3_
  6
CONTINUOUS
 62
    7
 10
93.5
 20
-5
 11
103.5
 21
-5
  0
LINE
  8
_0-3_
  6
CONTINUOUS
 62
    7
 10
63.5
 20
-5
 11
73.5
 21
-5
  0
LINE
  8
_0-3_
  6
CONTINUOUS
 62
    7
 10
63.5
 20
-27.5
 11
63.5
 21
-52.5
  0
LINE
  8
_0-3_
  6
CONTINUOUS
 62
    7
 10
91
 20
-15
 11
76
 21
-15
  0
LINE
  8
_0-3_
  6
CONTINUOUS
 62
    7
 10
76
 20
-65
 11
91
 21
-65
  0
LINE
  8
_0-3_
  6
CONTINUOUS
 62
    7
 10
91
 20
-55
 11
76
 21
-55
  0
LINE
  8
_0-3_
  6
CONTINUOUS
 62
    7
 10
73.5
 20
-27.5
 11
73.5
 21
-52.5
  0
LINE
  8
_0-3_
  6
CONTINUOUS
 62
    7
 10
76
 20
-25
 11
91
 21
-25
  0
ARC
  8
_0-3_
  6
CONTINUOUS
 62
    7
 10
76
 20
-27.5
 40
12.5
 50
90
 51
180
  0
ARC
  8
_0-3_
  6
CONTINUOUS
 62
    7
 10
76
 20
-52.5
 40
12.5
 50
180
 51
270
  0
ARC
  8
_0-3_
  6
CONTINUOUS
 62
    7
 10
91
 20
-27.5
 40
12.5
 50
0
 51
90
  0
ARC
  8
_0-3_
  6
CONTINUOUS
 62
    7
 10
91
 20
-27.5
 40
2.5
 50
0
 51
90
  0
ARC
  8
_0-3_
  6
CONTINUOUS
 62
    7
 10
76
 20
-52.5
 40
2.5
 50
180
 51
270
  0
ARC
  8
_0-3_
  6
CONTINUOUS
 62
    7
 10
76
 20
-27.5
 40
2.5
 50
90
 51
180
  0
ARC
  8
_0-3_
  6
CONTINUOUS
 62
    7
 10
143.5
 20
210
 40
15
 50
318.18968510422138
 51
90
  0
ARC
  8
_0-3_
  6
CONTINUOUS
 62
    7
 10
143.5
 20
190
 40
15
 50
270
 51
41.81031489577861
  0
LINE
  8
_0-3_
  6
CONTINUOUS
 62
    7
 10
128.5
 20
195
 11
128.5
 21
185
  0
LINE
  8
_0-3_
  6
CONTINUOUS
 62
    7
 10
128.5
 20
215
 11
128.5
 21
205
  0
ARC
  8
_0-3_
  6
CONTINUOUS
 62
    7
 10
143.5
 20
190
 40
5
 50
270
 51
90
  0
ARC
  8
_0-3_
  6
CONTINUOUS
 62
    7
 10
143.5
 20
210
 40
5
 50
270
 51
90
  0
LINE
  8
_0-3_
  6
CONTINUOUS
 62
    7
 10
128.5
 20
185
 11
143.5
 21
185
  0
LINE
  8
_0-3_
  6
CONTINUOUS
 62
    7
 10
128.5
 20
215
 11
143.5
 21
215
  0
LINE
  8
_0-3_
  6
CONTINUOUS
 62
    7
 10
128.5
 20
205
 11
143.5
 21
205
  0
LINE
  8
_0-3_
  6
CONTINUOUS
 62
    7
 10
143.5
 20
195
 11
128.5
 21
195
  0
LINE
  8
_0-3_
  6
CONTINUOUS
 62
    7
 10
118.5
 20
175
 11
143.5
 21
175
  0
LINE
  8
_0-3_
  6
CONTINUOUS
 62
    7
 10
118.5
 20
225
 11
118.5
 21
175
  0
LINE
  8
_0-3_
  6
CONTINUOUS
 62
    7
 10
143.5
 20
225
 11
118.5
 21
225
  0
LINE
  8
_0-3_
  6
CONTINUOUS
 62
    7
 10
118.5
 20
115
 11
118.5
 21
165
  0
LINE
  8
_0-3_
  6
CONTINUOUS
 62
    7
 10
128.5
 20
115
 11
118.5
 21
115
  0
LINE
  8
_0-3_
  6
CONTINUOUS
 62
    7
 10
128.5
 20
135
 11
128.5
 21
115
  0
LINE
  8
_0-3_
  6
CONTINUOUS
 62
    7
 10
148.5
 20
135
 11
128.5
 21
135
  0
LINE
  8
_0-3_
  6
CONTINUOUS
 62
    7
 10
148.5
 20
145
 11
148.5
 21
135
  0
LINE
  8
_0-3_
  6
CONTINUOUS
 62
    7
 10
128.5
 20
145
 11
148.5
 21
145
  0
LINE
  8
_0-3_
  6
CONTINUOUS
 62
    7
 10
128.5
 20
155
 11
128.5
 21
145
  0
LINE
  8
_0-3_
  6
CONTINUOUS
 62
    7
 10
158.5
 20
155
 11
128.5
 21
155
  0
LINE
  8
_0-3_
  6
CONTINUOUS
 62
    7
 10
158.5
 20
165
 11
158.5
 21
155
  0
LINE
  8
_0-3_
  6
CONTINUOUS
 62
    7
 10
118.5
 20
165
 11
158.5
 21
165
  0
LINE
  8
_0-3_
  6
CONTINUOUS
 62
    7
 10
148.5
 20
95
 11
148.5
 21
70
  0
LINE
  8
_0-3_
  6
CONTINUOUS
 62
    7
 10
138.5
 20
70
 11
138.5
 21
95
  0
LINE
  8
_0-3_
  6
CONTINUOUS
 62
    7
 10
118.5
 20
70
 11
128.5
 21
70
  0
ARC
  8
_0-3_
  6
CONTINUOUS
 62
    7
 10
133.5
 20
70
 40
15
 50
180
 51
0
  0
ARC
  8
_0-3_
  6
CONTINUOUS
 62
    7
 10
133.5
 20
70
 40
5
 50
180
 51
0
  0
LINE
  8
_0-3_
  6
CONTINUOUS
 62
    7
 10
158.5
 20
95
 11
148.5
 21
95
  0
LINE
  8
_0-3_
  6
CONTINUOUS
 62
    7
 10
158.5
 20
105
 11
158.5
 21
95
  0
LINE
  8
_0-3_
  6
CONTINUOUS
 62
    7
 10
118.5
 20
105
 11
158.5
 21
105
  0
LINE
  8
_0-3_
  6
CONTINUOUS
 62
    7
 10
118.5
 20
95
 11
118.5
 21
105
  0
LINE
  8
_0-3_
  6
CONTINUOUS
 62
    7
 10
138.5
 20
95
 11
118.5
 21
95
  0
LINE
  8
_0-3_
  6
CONTINUOUS
 62
    7
 10
158.5
 20
45
 11
148.5
 21
45
  0
LINE
  8
_0-3_
  6
CONTINUOUS
 62
    7
 10
158.5
 20
-5
 11
158.5
 21
45
  0
LINE
  8
_0-3_
  6
CONTINUOUS
 62
    7
 10
148.5
 20
-5
 11
158.5
 21
-5
  0
LINE
  8
_0-3_
  6
CONTINUOUS
 62
    7
 10
118.5
 20
-5
 11
128.5
 21
-5
  0
LINE
  8
_0-3_
  6
CONTINUOUS
 62
    7
 10
118.5
 20
45
 11
128.5
 21
45
  0
LINE
  8
_0-3_
  6
CONTINUOUS
 62
    7
 10
118.5
 20
-5
 11
118.5
 21
45
  0
LINE
  8
_0-3_
  6
CONTINUOUS
 62
    7
 10
146
 20
-25
 11
128.5
 21
-25
  0
LINE
  8
_0-3_
  6
CONTINUOUS
 62
    7
 10
128.5
 20
-35
 11
146
 21
-35
  0
LINE
  8
_0-3_
  6
CONTINUOUS
 62
    7
 10
128.5
 20
-25
 11
128.5
 21
-35
  0
LINE
  8
_0-3_
  6
CONTINUOUS
 62
    7
 10
128.5
 20
-65
 11
128.5
 21
-45
  0
LINE
  8
_0-3_
  6
CONTINUOUS
 62
    7
 10
118.5
 20
-65
 11
128.5
 21
-65
  0
LINE
  8
_0-3_
  6
CONTINUOUS
 62
    7
 10
118.5
 20
-15
 11
118.5
 21
-65
  0
LINE
  8
_0-3_
  6
CONTINUOUS
 62
    7
 10
148.5
 20
-27.5
 11
148.5
 21
-32.5
  0
LINE
  8
_0-3_
  6
CONTINUOUS
 62
    7
 10
158.5
 20
-27.5
 11
158.5
 21
-32.5
  0
LINE
  8
_0-3_
  6
CONTINUOUS
 62
    7
 10
118.5
 20
-15
 11
146
 21
-15
  0
ARC
  8
_0-3_
  6
CONTINUOUS
 62
    7
 10
146
 20
-27.5
 40
12.5
 50
0
 51
90
  0
ARC
  8
_0-3_
  6
CONTINUOUS
 62
    7
 10
146
 20
-32.5
 40
2.5
 50
270
 51
0
  0
ARC
  8
_0-3_
  6
CONTINUOUS
 62
    7
 10
146
 20
-27.5
 40
2.5
 50
0
 51
90
  0
LINE
  8
_0-3_
  6
CONTINUOUS
 62
    7
 10
186
 20
225
 11
201
 21
225
  0
LINE
  8
_0-3_
  6
CONTINUOUS
 62
    7
 10
186
 20
175
 11
201
 21
175
  0
LINE
  8
_0-3_
  6
CONTINUOUS
 62
    7
 10
173.5
 20
212.5
 11
173.5
 21
187.5
  0
ARC
  8
_0-3_
  6
CONTINUOUS
 62
    7
 10
186
 20
187.5
 40
12.5
 50
180
 51
270
  0
ARC
  8
_0-3_
  6
CONTINUOUS
 62
    7
 10
186
 20
212.5
 40
12.5
 50
90
 51
180
  0
ARC
  8
_0-3_
  6
CONTINUOUS
 62
    7
 10
186
 20
187.5
 40
2.5
 50
180
 51
270
  0
ARC
  8
_0-3_
  6
CONTINUOUS
 62
    7
 10
186
 20
212.5
 40
2.5
 50
90
 51
180
  0
LINE
  8
_0-3_
  6
CONTINUOUS
 62
    7
 10
186
 20
215
 11
201
 21
215
  0
LINE
  8
_0-3_
  6
CONTINUOUS
 62
    7
 10
186
 20
185
 11
201
 21
185
  0
LINE
  8
_0-3_
  6
CONTINUOUS
 62
    7
 10
183.5
 20
212.5
 11
183.5
 21
187.5
  0
LINE
  8
_0-3_
  6
CONTINUOUS
 62
    7
 10
186
 20
115
 11
201
 21
115
  0
LINE
  8
_0-3_
  6
CONTINUOUS
 62
    7
 10
186
 20
125
 11
201
 21
125
  0
LINE
  8
_0-3_
  6
CONTINUOUS
 62
    7
 10
183.5
 20
152.5
 11
183.5
 21
127.5
  0
LINE
  8
_0-3_
  6
CONTINUOUS
 62
    7
 10
173.5
 20
152.5
 11
173.5
 21
127.5
  0
LINE
  8
_0-3_
  6
CONTINUOUS
 62
    7
 10
186
 20
155
 11
201
 21
155
  0
LINE
  8
_0-3_
  6
CONTINUOUS
 62
    7
 10
201
 20
165
 11
186
 21
165
  0
LINE
  8
_0-3_
  6
CONTINUOUS
 62
    7
 10
213.5
 20
150
 11
213.5
 21
152.5
  0
LINE
  8
_0-3_
  6
CONTINUOUS
 62
    7
 10
203.5
 20
150
 11
213.5
 21
150
  0
LINE
  8
_0-3_
  6
CONTINUOUS
 62
    7
 10
203.5
 20
152.5
 11
203.5
 21
150
  0
ARC
  8
_0-3_
  6
CONTINUOUS
 62
    7
 10
201
 20
152.5
 40
12.5
 50
0
 51
90
  0
ARC
  8
_0-3_
  6
CONTINUOUS
 62
    7
 10
201
 20
152.5
 40
2.5
 50
0
 51
90
  0
ARC
  8
_0-3_
  6
CONTINUOUS
 62
    7
 10
186
 20
152.5
 40
12.5
 50
90
 51
180
  0
ARC
  8
_0-3_
  6
CONTINUOUS
 62
    7
 10
186
 20
127.5
 40
12.5
 50
180
 51
270
  0
ARC
  8
_0-3_
  6
CONTINUOUS
 62
    7
 10
201
 20
127.5
 40
12.5
 50
270
 51
0
  0
ARC
  8
_0-3_
  6
CONTINUOUS
 62
    7
 10
201
 20
127.5
 40
2.5
 50
270
 51
0
  0
ARC
  8
_0-3_
  6
CONTINUOUS
 62
    7
 10
186
 20
127.5
 40
2.5
 50
180
 51
270
  0
ARC
  8
_0-3_
  6
CONTINUOUS
 62
    7
 10
186
 20
152.5
 40
2.5
 50
90
 51
180
  0
LINE
  8
_0-3_
  6
CONTINUOUS
 62
    7
 10
213.5
 20
7.5
 11
213.5
 21
32.5
  0
LINE
  8
_0-3_
  6
CONTINUOUS
 62
    7
 10
186
 20
-5
 11
201
 21
-5
  0
LINE
  8
_0-3_
  6
CONTINUOUS
 62
    7
 10
201
 20
5
 11
186
 21
5
  0
LINE
  8
_0-3_
  6
CONTINUOUS
 62
    7
 10
203.5
 20
32.5
 11
203.5
 21
7.5
  0
LINE
  8
_0-3_
  6
CONTINUOUS
 62
    7
 10
173.5
 20
32.5
 11
173.5
 21
7.5
  0
LINE
  8
_0-3_
  6
CONTINUOUS
 62
    7
 10
183.5
 20
32.5
 11
183.5
 21
7.5
  0
LINE
  8
_0-3_
  6
CONTINUOUS
 62
    7
 10
201
 20
35
 11
186
 21
35
  0
LINE
  8
_0-3_
  6
CONTINUOUS
 62
    7
 10
186
 20
45
 11
201
 21
45
  0
ARC
  8
_0-3_
  6
CONTINUOUS
 62
    7
 10
201
 20
7.5
 40
12.5
 50
270
 51
0
  0
ARC
  8
_0-3_
  6
CONTINUOUS
 62
    7
 10
186
 20
7.5
 40
12.5
 50
180
 51
270
  0
ARC
  8
_0-3_
  6
CONTINUOUS
 62
    7
 10
186
 20
7.5
 40
2.5
 50
180
 51
270
  0
ARC
  8
_0-3_
  6
CONTINUOUS
 62
    7
 10
201
 20
7.5
 40
2.5
 50
270
 51
0
  0
ARC
  8
_0-3_
  6
CONTINUOUS
 62
    7
 10
201
 20
32.5
 40
12.5
 50
0
 51
90
  0
ARC
  8
_0-3_
  6
CONTINUOUS
 62
    7
 10
201
 20
32.5
 40
2.5
 50
0
 51
90
  0
ARC
  8
_0-3_
  6
CONTINUOUS
 62
    7
 10
186
 20
32.5
 40
12.5
 50
90
 51
180
  0
ARC
  8
_0-3_
  6
CONTINUOUS
 62
    7
 10
186
 20
32.5
 40
2.5
 50
90
 51
180
  0
LINE
  8
_0-3_
  6
CONTINUOUS
 62
    7
 10
201
 20
-25
 11
186
 21
-25
  0
LINE
  8
_0-3_
  6
CONTINUOUS
 62
    7
 10
203.5
 20
-30
 11
203.5
 21
-27.5
  0
LINE
  8
_0-3_
  6
CONTINUOUS
 62
    7
 10
213.5
 20
-30
 11
203.5
 21
-30
  0
LINE
  8
_0-3_
  6
CONTINUOUS
 62
    7
 10
213.5
 20
-27.5
 11
213.5
 21
-30
  0
LINE
  8
_0-3_
  6
CONTINUOUS
 62
    7
 10
186
 20
-15
 11
201
 21
-15
  0
LINE
  8
_0-3_
  6
CONTINUOUS
 62
    7
 10
173.5
 20
-27.5
 11
173.5
 21
-32.5
  0
LINE
  8
_0-3_
  6
CONTINUOUS
 62
    7
 10
183.5
 20
-32.5
 11
183.5
 21
-27.5
  0
LINE
  8
_0-3_
  6
CONTINUOUS
 62
    7
 10
186
 20
-35
 11
201
 21
-35
  0
LINE
  8
_0-3_
  6
CONTINUOUS
 62
    7
 10
186
 20
-45
 11
201
 21
-45
  0
LINE
  8
_0-3_
  6
CONTINUOUS
 62
    7
 10
213.5
 20
-47.5
 11
213.5
 21
-52.5
  0
LINE
  8
_0-3_
  6
CONTINUOUS
 62
    7
 10
203.5
 20
-52.5
 11
203.5
 21
-47.5
  0
LINE
  8
_0-3_
  6
CONTINUOUS
 62
    7
 10
186
 20
-55
 11
201
 21
-55
  0
LINE
  8
_0-3_
  6
CONTINUOUS
 62
    7
 10
183.5
 20
-50
 11
183.5
 21
-52.5
  0
LINE
  8
_0-3_
  6
CONTINUOUS
 62
    7
 10
173.5
 20
-50
 11
183.5
 21
-50
  0
LINE
  8
_0-3_
  6
CONTINUOUS
 62
    7
 10
173.5
 20
-52.5
 11
173.5
 21
-50
  0
ARC
  8
_0-3_
  6
CONTINUOUS
 62
    7
 10
186
 20
-52.5
 40
2.5
 50
180
 51
270
  0
ARC
  8
_0-3_
  6
CONTINUOUS
 62
    7
 10
201
 20
-52.5
 40
2.5
 50
270
 51
0
  0
ARC
  8
_0-3_
  6
CONTINUOUS
 62
    7
 10
201
 20
-47.5
 40
12.5
 50
0
 51
90
  0
ARC
  8
_0-3_
  6
CONTINUOUS
 62
    7
 10
201
 20
-47.5
 40
2.5
 50
0
 51
90
  0
ARC
  8
_0-3_
  6
CONTINUOUS
 62
    7
 10
186
 20
-32.5
 40
12.5
 50
180
 51
270
  0
ARC
  8
_0-3_
  6
CONTINUOUS
 62
    7
 10
186
 20
-32.5
 40
2.5
 50
180
 51
270
  0
ARC
  8
_0-3_
  6
CONTINUOUS
 62
    7
 10
186
 20
-27.5
 40
12.5
 50
90
 51
180
  0
ARC
  8
_0-3_
  6
CONTINUOUS
 62
    7
 10
186
 20
-27.5
 40
2.5
 50
90
 51
180
  0
ARC
  8
_0-3_
  6
CONTINUOUS
 62
    7
 10
201
 20
-27.5
 40
12.5
 50
0
 51
90
  0
ARC
  8
_0-3_
  6
CONTINUOUS
 62
    7
 10
201
 20
-27.5
 40
2.5
 50
0
 51
90
  0
LINE
  8
_0-3_
  6
CONTINUOUS
 62
    7
 10
256
 20
175
 11
228.5
 21
175
  0
LINE
  8
_0-3_
  6
CONTINUOUS
 62
    7
 10
268.5
 20
212.5
 11
268.5
 21
187.5
  0
LINE
  8
_0-3_
  6
CONTINUOUS
 62
    7
 10
228.5
 20
225
 11
256
 21
225
  0
LINE
  8
_0-3_
  6
CONTINUOUS
 62
    7
 10
256
 20
215
 11
238.5
 21
215
  0
LINE
  8
_0-3_
  6
CONTINUOUS
 62
    7
 10
258.5
 20
187.5
 11
258.5
 21
212.5
  0
LINE
  8
_0-3_
  6
CONTINUOUS
 62
    7
 10
238.5
 20
185
 11
256
 21
185
  0
LINE
  8
_0-3_
  6
CONTINUOUS
 62
    7
 10
238.5
 20
215
 11
238.5
 21
185
  0
ARC
  8
_0-3_
  6
CONTINUOUS
 62
    7
 10
256
 20
187.5
 40
12.5
 50
270
 51
0
  0
ARC
  8
_0-3_
  6
CONTINUOUS
 62
    7
 10
256
 20
212.5
 40
12.5
 50
0
 51
90
  0
ARC
  8
_0-3_
  6
CONTINUOUS
 62
    7
 10
256
 20
212.5
 40
2.5
 50
0
 51
90
  0
ARC
  8
_0-3_
  6
CONTINUOUS
 62
    7
 10
256
 20
187.5
 40
2.5
 50
270
 51
0
  0
LINE
  8
_0-3_
  6
CONTINUOUS
 62
    7
 10
228.5
 20
225
 11
228.5
 21
175
  0
LINE
  8
_0-3_
  6
CONTINUOUS
 62
    7
 10
238.5
 20
165
 11
228.5
 21
165
  0
LINE
  8
_0-3_
  6
CONTINUOUS
 62
    7
 10
238.5
 20
145
 11
238.5
 21
165
  0
LINE
  8
_0-3_
  6
CONTINUOUS
 62
    7
 10
258.5
 20
145
 11
238.5
 21
145
  0
LINE
  8
_0-3_
  6
CONTINUOUS
 62
    7
 10
258.5
 20
165
 11
258.5
 21
145
  0
LINE
  8
_0-3_
  6
CONTINUOUS
 62
    7
 10
268.5
 20
165
 11
258.5
 21
165
  0
LINE
  8
_0-3_
  6
CONTINUOUS
 62
    7
 10
268.5
 20
115
 11
268.5
 21
165
  0
LINE
  8
_0-3_
  6
CONTINUOUS
 62
    7
 10
258.5
 20
115
 11
268.5
 21
115
  0
LINE
  8
_0-3_
  6
CONTINUOUS
 62
    7
 10
258.5
 20
135
 11
258.5
 21
115
  0
LINE
  8
_0-3_
  6
CONTINUOUS
 62
    7
 10
238.5
 20
135
 11
258.5
 21
135
  0
LINE
  8
_0-3_
  6
CONTINUOUS
 62
    7
 10
238.5
 20
115
 11
238.5
 21
135
  0
LINE
  8
_0-3_
  6
CONTINUOUS
 62
    7
 10
228.5
 20
115
 11
238.5
 21
115
  0
LINE
  8
_0-3_
  6
CONTINUOUS
 62
    7
 10
228.5
 20
165
 11
228.5
 21
115
  0
LINE
  8
_0-3_
  6
CONTINUOUS
 62
    7
 10
238.5
 20
105
 11
228.5
 21
105
  0
LINE
  8
_0-3_
  6
CONTINUOUS
 62
    7
 10
238.5
 20
65
 11
238.5
 21
105
  0
LINE
  8
_0-3_
  6
CONTINUOUS
 62
    7
 10
268.5
 20
65
 11
238.5
 21
65
  0
LINE
  8
_0-3_
  6
CONTINUOUS
 62
    7
 10
268.5
 20
55
 11
268.5
 21
65
  0
LINE
  8
_0-3_
  6
CONTINUOUS
 62
    7
 10
228.5
 20
55
 11
268.5
 21
55
  0
LINE
  8
_0-3_
  6
CONTINUOUS
 62
    7
 10
228.5
 20
105
 11
228.5
 21
55
  0
LINE
  8
_0-3_
  6
CONTINUOUS
 62
    7
 10
238.5
 20
25
 11
238.5
 21
35
  0
LINE
  8
_0-3_
  6
CONTINUOUS
 62
    7
 10
256
 20
25
 11
238.5
 21
25
  0
LINE
  8
_0-3_
  6
CONTINUOUS
 62
    7
 10
238.5
 20
15
 11
256
 21
15
  0
LINE
  8
_0-3_
  6
CONTINUOUS
 62
    7
 10
238.5
 20
-5
 11
238.5
 21
15
  0
LINE
  8
_0-3_
  6
CONTINUOUS
 62
    7
 10
228.5
 20
-5
 11
238.5
 21
-5
  0
LINE
  8
_0-3_
  6
CONTINUOUS
 62
    7
 10
228.5
 20
45
 11
228.5
 21
-5
  0
LINE
  8
_0-3_
  6
CONTINUOUS
 62
    7
 10
256
 20
45
 11
228.5
 21
45
  0
LINE
  8
_0-3_
  6
CONTINUOUS
 62
    7
 10
268.5
 20
32.5
 11
268.5
 21
27.5
  0
LINE
  8
_0-3_
  6
CONTINUOUS
 62
    7
 10
258.5
 20
32.5
 11
258.5
 21
27.5
  0
LINE
  8
_0-3_
  6
CONTINUOUS
 62
    7
 10
238.5
 20
35
 11
256
 21
35
  0
ARC
  8
_0-3_
  6
CONTINUOUS
 62
    7
 10
256
 20
27.5
 40
12.5
 50
270
 51
0
  0
ARC
  8
_0-3_
  6
CONTINUOUS
 62
    7
 10
256
 20
32.5
 40
12.5
 50
0
 51
90
  0
ARC
  8
_0-3_
  6
CONTINUOUS
 62
    7
 10
256
 20
27.5
 40
2.5
 50
270
 51
0
  0
ARC
  8
_0-3_
  6
CONTINUOUS
 62
    7
 10
256
 20
32.5
 40
2.5
 50
0
 51
90
  0
LINE
  8
_0-3_
  6
CONTINUOUS
 62
    7
 10
228.5
 20
-25
 11
228.5
 21
-15
  0
LINE
  8
_0-3_
  6
CONTINUOUS
 62
    7
 10
243.5
 20
-25
 11
228.5
 21
-25
  0
LINE
  8
_0-3_
  6
CONTINUOUS
 62
    7
 10
243.5
 20
-65
 11
243.5
 21
-25
  0
LINE
  8
_0-3_
  6
CONTINUOUS
 62
    7
 10
253.5
 20
-65
 11
243.5
 21
-65
  0
LINE
  8
_0-3_
  6
CONTINUOUS
 62
    7
 10
253.5
 20
-25
 11
253.5
 21
-65
  0
LINE
  8
_0-3_
  6
CONTINUOUS
 62
    7
 10
268.5
 20
-25
 11
253.5
 21
-25
  0
LINE
  8
_0-3_
  6
CONTINUOUS
 62
    7
 10
268.5
 20
-15
 11
268.5
 21
-25
  0
LINE
  8
_0-3_
  6
CONTINUOUS
 62
    7
 10
228.5
 20
-15
 11
268.5
 21
-15
  0
ARC
  8
_0-3_
  6
CONTINUOUS
 62
    7
 10
201
 20
212.5
 40
2.5
 50
0
 51
90
  0
ARC
  8
_0-3_
  6
CONTINUOUS
 62
    7
 10
201
 20
212.5
 40
12.5
 50
0
 51
90
  0
LINE
  8
_0-3_
  6
CONTINUOUS
 62
    7
 10
213.5
 20
212.5
 11
213.5
 21
210
  0
LINE
  8
_0-3_
  6
CONTINUOUS
 62
    7
 10
203.5
 20
210
 11
203.5
 21
212.5
  0
LINE
  8
_0-3_
  6
CONTINUOUS
 62
    7
 10
203.5
 20
210
 11
213.5
 21
210
  0
ARC
  8
_0-3_
  6
CONTINUOUS
 62
    7
 10
201
 20
187.5
 40
2.5
 50
270
 51
0
  0
ARC
  8
_0-3_
  6
CONTINUOUS
 62
    7
 10
201
 20
187.5
 40
12.5
 50
270
 51
0
  0
LINE
  8
_0-3_
  6
CONTINUOUS
 62
    7
 10
213.5
 20
190
 11
213.5
 21
187.5
  0
LINE
  8
_0-3_
  6
CONTINUOUS
 62
    7
 10
203.5
 20
190
 11
213.5
 21
190
  0
LINE
  8
_0-3_
  6
CONTINUOUS
 62
    7
 10
203.5
 20
187.5
 11
203.5
 21
190
  0
LINE
  8
_0-3_
  6
CONTINUOUS
 62
    7
 10
78.5
 20
225
 11
88.5
 21
225
  0
LINE
  8
_0-3_
  6
CONTINUOUS
 62
    7
 10
103.5
 20
175
 11
88.5
 21
225
  0
LINE
  8
_0-3_
  6
CONTINUOUS
 62
    7
 10
78.5
 20
225
 11
63.5
 21
175
  0
LINE
  8
_0-3_
  6
CONTINUOUS
 62
    7
 10
128.5
 20
-5
 11
128.5
 21
25
  0
LINE
  8
_0-3_
  6
CONTINUOUS
 62
    7
 10
148.5
 20
-5
 11
128.5
 21
25
  0
LINE
  8
_0-3_
  6
CONTINUOUS
 62
    7
 10
128.5
 20
45
 11
148.5
 21
15
  0
LINE
  8
_0-3_
  6
CONTINUOUS
 62
    7
 10
148.5
 20
45
 11
148.5
 21
15
  0
LINE
  8
_0-3_
  6
CONTINUOUS
 62
    7
 10
79.350012840274701
 20
20
 11
87.649987159725313
 21
20
  0
LINE
  8
_0-3_
  6
CONTINUOUS
 62
    7
 10
93.5
 20
28.775019260412037
 11
93.5
 21
-5
  0
LINE
  8
_0-3_
  6
CONTINUOUS
 62
    7
 10
87.649987159725313
 20
20
 11
93.5
 21
28.775019260412037
  0
LINE
  8
_0-3_
  6
CONTINUOUS
 62
    7
 10
73.5
 20
28.775019260412051
 11
79.350012840274701
 21
20
  0
LINE
  8
_0-3_
  6
CONTINUOUS
 62
    7
 10
73.5
 20
-5
 11
73.5
 21
28.775019260412051
  0
LINE
  8
_0-3_
  6
CONTINUOUS
 62
    7
 10
183.5
 20
71.25
 11
183.5
 21
55
  0
LINE
  8
_0-3_
  6
CONTINUOUS
 62
    7
 10
173.5
 20
105
 11
183.5
 21
105
  0
LINE
  8
_0-3_
  6
CONTINUOUS
 62
    7
 10
173.5
 20
55
 11
183.5
 21
55
  0
LINE
  8
_0-3_
  6
CONTINUOUS
 62
    7
 10
173.5
 20
105
 11
173.5
 21
55
  0
LINE
  8
_0-3_
  6
CONTINUOUS
 62
    7
 10
213.5
 20
55
 11
192.44736842105263
 21
81.31578947368422
  0
LINE
  8
_0-3_
  6
CONTINUOUS
 62
    7
 10
213.5
 20
105
 11
192.44736842105263
 21
81.31578947368422
  0
LINE
  8
_0-3_
  6
CONTINUOUS
 62
    7
 10
186.38125072243201
 20
74.491407062736045
 11
183.5
 21
71.25
  0
LINE
  8
_0-3_
  6
CONTINUOUS
 62
    7
 10
201.97437637262087
 20
55
 11
186.38125072243201
 21
74.491407062736045
  0
LINE
  8
_0-3_
  6
CONTINUOUS
 62
    7
 10
213.5
 20
55
 11
201.97437637262087
 21
55
  0
LINE
  8
_0-3_
  6
CONTINUOUS
 62
    7
 10
201.45840542120771
 20
105
 11
213.5
 21
105
  0
LINE
  8
_0-3_
  6
CONTINUOUS
 62
    7
 10
201.45840542120771
 20
105
 11
183.5
 21
84.796793901141342
  0
LINE
  8
_0-3_
  6
CONTINUOUS
 62
    7
 10
183.5
 20
105
 11
183.5
 21
84.796793901141342
  0
LINE
  8
_0-3_
  6
CONTINUOUS
 62
    7
 10
75.375
 20
181.25
 11
91.625
 21
181.25
  0
LINE
  8
_0-3_
  6
CONTINUOUS
 62
    7
 10
83.5
 20
208.33333333333334
 11
78
 21
190
  0
LINE
  8
_0-3_
  6
CONTINUOUS
 62
    7
 10
78
 20
190
 11
89
 21
190
  0
LINE
  8
_0-3_
  6
CONTINUOUS
 62
    7
 10
83.5
 20
208.33333333333334
 11
89
 21
190
  0
LINE
  8
_0-3_
  6
CONTINUOUS
 62
    7
 10
63.5
 20
175
 11
73.5
 21
175
  0
LINE
  8
_0-3_
  6
CONTINUOUS
 62
    7
 10
75.375
 20
181.25
 11
73.5
 21
175
  0
LINE
  8
_0-3_
  6
CONTINUOUS
 62
    7
 10
91.625
 20
181.25
 11
93.5
 21
175
  0
LINE
  8
_0-3_
  6
CONTINUOUS
 62
    7
 10
93.5
 20
175
 11
103.5
 21
175
  0
LINE
  8
_0-3_
  6
CONTINUOUS
 62
    7
 10
92.5
 20
-54.5
 11
86.500000000050989
 21
-51.500000000025494
  0
ARC
  8
_0-3_
  6
CONTINUOUS
 62
    7
 10
91
 20
-52.5
 40
2.5
 50
270
 51
306.86989764584405
  0
LINE
  8
_0-3_
  6
CONTINUOUS
 62
    7
 10
93.5
 20
-46.25
 11
93.5
 21
-27.5
  0
LINE
  8
_0-3_
  6
CONTINUOUS
 62
    7
 10
86.500000000050989
 20
-51.500000000025494
 11
90.000000000407979
 21
-44.500000000203983
  0
LINE
  8
_0-3_
  6
CONTINUOUS
 62
    7
 10
93.5
 20
-46.25
 11
90.000000000407979
 21
-44.500000000203983
  0
ARC
  8
_0-3_
  6
CONTINUOUS
 62
    7
 10
91
 20
-52.5
 40
12.5
 50
270
 51
328.30340087361077
  0
LINE
  8
_0-3_
  6
CONTINUOUS
 62
    7
 10
103.5
 20
-60
 11
101.63552872566004
 21
-59.067764362830019
  0
LINE
  8
_0-3_
  6
CONTINUOUS
 62
    7
 10
103.5
 20
-60
 11
107.00000000035699
 21
-53.000000000178488
  0
LINE
  8
_0-3_
  6
CONTINUOUS
 62
    7
 10
103.5
 20
-51.25
 11
103.5
 21
-27.5
  0
LINE
  8
_0-3_
  6
CONTINUOUS
 62
    7
 10
107.00000000035699
 20
-53.000000000178488
 11
103.5
 21
-51.25
  0
LINE
  8
_0-3_
  6
CONTINUOUS
 62
    7
 10
158.5
 20
-65
 11
148.38516480713452
 21
-44.770329614269002
  0
ARC
  8
_0-3_
  6
CONTINUOUS
 62
    7
 10
146
 20
-32.5
 40
12.5
 50
281.00024451568959
 51
0
  0
LINE
  8
_0-3_
  6
CONTINUOUS
 62
    7
 10
128.5
 20
-45
 11
137.31966011250105
 21
-45
  0
LINE
  8
_0-3_
  6
CONTINUOUS
 62
    7
 10
147.31966011250105
 20
-65
 11
158.5
 21
-65
  0
LINE
  8
_0-3_
  6
CONTINUOUS
 62
    7
 10
147.31966011250105
 20
-65
 11
137.31966011250105
 21
-45
  0
ARC
  8
_0-3_
  6
CONTINUOUS
 62
    7
 10
186
 20
-52.5
 40
12.5
 50
180
 51
270
  0
LINE
  8
_0-3_
  6
CONTINUOUS
 62
    7
 10
186
 20
-65
 11
201
 21
-65
  0
ARC
  8
_0-3_
  6
CONTINUOUS
 62
    7
 10
201
 20
-52.5
 40
12.5
 50
270
 51
0
  0
LINE
  8
_0-3_
  6
CONTINUOUS
 62
    7
 10
213.5
 20
140
 11
213.5
 21
127.5
  0
LINE
  8
_0-3_
  6
CONTINUOUS
 62
    7
 10
193.5
 20
140
 11
213.5
 21
140
  0
LINE
  8
_0-3_
  6
CONTINUOUS
 62
    7
 10
193.5
 20
130
 11
193.5
 21
140
  0
LINE
  8
_0-3_
  6
CONTINUOUS
 62
    7
 10
203.5
 20
130
 11
193.5
 21
130
  0
LINE
  8
_0-3_
  6
CONTINUOUS
 62
    7
 10
203.5
 20
127.5
 11
203.5
 21
130
  0
LINE
  8
_0-0_
  6
CONTINUOUS
 62
    7
 10
63.5
 20
55
 11
68.5
 21
55
  0
LINE
  8
_0-0_
  6
CONTINUOUS
 62
    7
 10
68.5
 20
55
 11
68.5
 21
60
  0
LINE
  8
_0-0_
  6
CONTINUOUS
 62
    7
 10
68.5
 20
60
 11
63.5
 21
60
  0
LINE
  8
_0-0_
  6
CONTINUOUS
 62
    7
 10
63.5
 20
60
 11
63.5
 21
55
  0
ENDSEC
  0
EOF
