<?xml version="1.0" encoding="UTF-8" standalone="no"?>
<svg
   xmlns:dc="http://purl.org/dc/elements/1.1/"
   xmlns:cc="http://creativecommons.org/ns#"
   xmlns:rdf="http://www.w3.org/1999/02/22-rdf-syntax-ns#"
   xmlns:svg="http://www.w3.org/2000/svg"
   xmlns="http://www.w3.org/2000/svg"
   xmlns:sodipodi="http://sodipodi.sourceforge.net/DTD/sodipodi-0.dtd"
   xmlns:inkscape="http://www.inkscape.org/namespaces/inkscape"
   version="1.1"
   viewBox="0 -158 1000 1000"
   id="svg6"
   sodipodi:docname="A_A4EPSCONB.svg"
   inkscape:version="0.92.3 (2405546, 2018-03-11)">
  <metadata
     id="metadata12">
    <rdf:RDF>
      <cc:Work
         rdf:about="">
        <dc:format>image/svg+xml</dc:format>
        <dc:type
           rdf:resource="http://purl.org/dc/dcmitype/StillImage" />
      </cc:Work>
    </rdf:RDF>
  </metadata>
  <defs
     id="defs10" />
  <sodipodi:namedview
     pagecolor="#ffffff"
     bordercolor="#666666"
     borderopacity="1"
     objecttolerance="10"
     gridtolerance="10"
     guidetolerance="10"
     inkscape:pageopacity="0"
     inkscape:pageshadow="2"
     inkscape:window-width="1803"
     inkscape:window-height="1121"
     id="namedview8"
     showgrid="false"
     inkscape:zoom="0.6675088"
     inkscape:cx="726.43722"
     inkscape:cy="566.18129"
     inkscape:window-x="2845"
     inkscape:window-y="99"
     inkscape:window-maximized="0"
     inkscape:current-layer="svg6" />
  <path
     style="fill:currentColor"
     d="m 235.516,102.852 v 7.08984 c 0,0.2041 0.1709,0.375 0.375,0.375 h 28.3477 c 0.2041,0 0.375,-0.1709 0.375,-0.375 V 102.852 c 0,-15.4453 12.5234,-27.9688 27.9727,-27.9688 h 14.1719 c 11.0859,0 21.123,6.54492 25.5947,16.6865 4.46451,10.1276 2.53759,21.934 -4.91038,30.1164 l -98.8455,65.8963 c -0.0549,0.0369 -0.0971,0.0866 -0.12518,0.14266 -0.0267,0.0512 -0.0418,0.10907 -0.0418,0.16984 v 28.3438 c 0,0.2041 0.1709,0.375 0.375,0.375 h 141.734 c 0.2041,0 0.375,-0.1709 0.375,-0.375 v -28.3438 c 0,-0.2041 -0.1709,-0.375 -0.375,-0.375 h -89.3936 l 64.8477,-43.2344 c 0.0119,-0.008 0.0231,-0.0165 0.0338,-0.0256 0.005,-0.005 0.0108,-0.009 0.016,-0.0144 16.9395,-16.0752 22.374,-40.8506 13.7197,-62.54 -8.65527,-21.6895 -29.6523,-35.9199 -53.0049,-35.9199 h -14.1719 c -15.1348,0 -29.6523,6.01172 -40.3555,16.7148 -10.7032,10.70308 -16.7148,25.2168 -16.7148,40.3516 z"
     id="path887" />
  <path
     style="fill:currentColor"
     d="m 426.855,357.973 c 0,31.5156 25.5508,57.0664 57.0664,57.0664 h 28.3477 c 31.5117,-0.008 57.0547,-25.5547 57.0547,-57.0664 0,-31.5156 -25.543,-57.0625 -57.0547,-57.0703 h -28.3477 c -7.76379,0 -15.4414,1.5843 -22.5676,4.65471 9.2922,-19.6637 29.1078,-32.2485 50.9153,-32.2485 h 42.5195 c 0.2041,0 0.375,-0.1709 0.375,-0.375 v -28.3477 c 0,-0.2041 -0.1709,-0.375 -0.375,-0.375 h -42.9584 -0.003 -3.8e-4 c -44.5547,0.11426 -81.5449,34.4521 -84.9707,78.877 0,0.0122 -9.8e-4,0.0243 -9.8e-4,0.0363 v 34.8484 z"
     id="path883" />
  <path
     style="fill:currentColor"
     d="m 317.387,613.465 c 22.9141,0 43.2842,-14.583 50.667,-36.2695 7.34677,-21.5712 0.23013,-45.4101 -17.7003,-59.423 10.9386,-13.9137 13.0233,-32.8525 5.34385,-48.8212 -7.7334,-16.0869 -24.0059,-26.3145 -41.8535,-26.3145 h -28.3438 c -17.8516,0 -34.1191,10.2275 -41.8535,26.3145 -7.67844,15.9687 -5.59478,34.9075 5.34385,48.8212 -17.9304,14.0129 -25.0471,37.8517 -17.7013,59.423 7.38379,21.6865 27.7539,36.2695 50.668,36.2695 z"
     id="path879" />
  <path
     style="fill:currentColor"
     d="m 519.355,442.637 h -42.5195 c -27.5977,0.008 -49.9648,22.3828 -49.9648,49.9805 0,27.5977 22.3672,49.9727 49.9648,49.9805 h 42.5195 c 6.85494,0 13.6332,-1.40878 19.9151,-4.13637 -4.99571,26.5845 -28.2266,45.9059 -55.3487,45.9059 h -42.5195 c -0.2041,0 -0.375,0.1709 -0.375,0.375 v 28.3477 c 0,0.2041 0.1709,0.375 0.375,0.375 h 42.5195 c 47.1758,0 85.418,-38.2422 85.418,-85.4141 v -35.4336 c 0,-27.6055 -22.3789,-49.9805 -49.9844,-49.9805 z"
     id="path877" />
  <path
     style="fill:currentColor"
     d="m 476.836,471.73 h 42.5195 c 11.5312,0.008 20.8789,9.35547 20.8789,20.8867 0,11.53123 -9.34766,20.8789 -20.8789,20.8867 H 476.836 c -11.5312,-0.008 -20.875,-9.35547 -20.875,-20.8867 0,-11.53123 9.34375,-20.8789 20.875,-20.8867 z"
     id="path873" />
  <path
     style="fill:currentColor"
     d="m 257.458,371.928 c -0.006,-0.008 -0.0124,-0.0167 -0.0191,-0.0245 -0.0621,-0.0743 -0.1496,-0.11857 -0.24121,-0.12992 -0.0713,-0.009 -0.14576,0.002 -0.21368,0.0359 l -25.568,12.7869 c -0.0158,0.007 -0.0312,0.0152 -0.0462,0.0246 -0.0818,0.0517 -0.13667,0.13169 -0.16033,0.21987 -0.0173,0.0637 -5e-4,0.13201 -5e-4,0.19744 0.009,0.0347 0.0238,0.0686 0.0436,0.10027 11.7529,18.6113 32.2314,29.9004 54.2471,29.9004 h 28.3438 c 31.5156,-0.008 57.0547,-25.5547 57.0547,-57.0664 0,-31.5156 -25.5391,-57.0625 -57.0547,-57.0703 h -38.6016 v -27.5938 h 66.9492 c 0.2041,0 0.375,-0.1709 0.375,-0.375 v -28.3477 c 0,-0.20411 -0.1709,-0.375 -0.375,-0.375 h -95.668 c -0.2041,0 -0.375,0.17089 -0.375,0.375 v 85.0391 c 0,0.2041 0.1709,0.375 0.375,0.375 h 67.3203 c 15.4453,0.004 27.9648,12.5273 27.9648,27.9727 0,15.4454 -12.5195,27.9658 -27.9648,27.9688 h -28.3438 c -11.0347,0 -21.4203,-5.19111 -28.0417,-14.0132 z"
     id="path867" />
  <path
     style="fill:currentColor"
     d="m 429.635,186.612 c 0.009,0.0348 0.0238,0.0686 0.0436,0.10027 11.7529,18.6123 32.2314,29.9014 54.2432,29.9014 h 28.3477 c 29.0225,0 53.4248,-21.7842 56.7051,-50.6221 3.24996,-28.614 -15.3194,-55.1253 -43.2374,-61.9003 l 29.3175,-29.3175 c 0.037,-0.0373 0.0645,-0.0811 0.0824,-0.12799 0.0174,-0.0428 0.0269,-0.0893 0.0261,-0.13764 l 8.5e-4,-28.3477 c 0,-0.2041 -0.17089,-0.375 -0.375,-0.375 h -99.2109 c -0.2041,0 -0.375,0.1709 -0.375,0.375 v 28.3477 c 0,0.2041 0.1709,0.375 0.375,0.375 h 55.7851 l -27.7069,27.7031 c -0.037,0.0373 -0.0645,0.0811 -0.0824,0.12798 -0.0174,0.0428 -0.0269,0.0893 -0.0261,0.13765 l -8.5e-4,28.3477 c 0,0.2041 0.1709,0.375 0.375,0.375 h 28.3477 c 15.4453,0.004 27.9648,12.5273 27.9648,27.9727 0,15.4454 -12.5195,27.9688 -27.9648,27.9727 H 483.922 c -11.0307,0 -21.4164,-5.19501 -28.0378,-14.0172 -0.006,-0.009 -0.0124,-0.0167 -0.0191,-0.0246 -0.0621,-0.0743 -0.14961,-0.11858 -0.24121,-0.12992 -0.0713,-0.009 -0.14576,0.002 -0.21369,0.0359 l -25.568,12.786 c -0.0158,0.007 -0.0312,0.0152 -0.0462,0.0246 -0.0818,0.0517 -0.13667,0.13169 -0.16033,0.21987 -0.0173,0.0637 -5e-4,0.13201 -5e-4,0.19744 z"
     id="path863" />
  <path
     style="fill:currentColor"
     d="m 317.387,535.512 c 13.4922,0 24.4297,10.9375 24.4297,24.4297 0,13.4883 -10.9375,24.4258 -24.4297,24.4258 h -35.4297 c -13.4922,0 -24.4297,-10.9375 -24.4297,-24.4258 0,-13.4922 10.9375,-24.4297 24.4297,-24.4297 z"
     id="path861" />
  <path
     style="fill:currentColor"
     d="m 257.527,740.648 v -28.3477 c 0.008,-23.2695 18.875,-42.1289 42.1445,-42.1289 23.2695,0 42.1367,18.8594 42.1445,42.1289 v 28.3477 c -0.008,23.2695 -18.875,42.1328 -42.1445,42.1328 -23.2695,0 -42.1367,-18.8633 -42.1445,-42.1328 z"
     id="path857" />
  <path
     style="fill:currentColor"
     d="m 370.914,712.301 c 0,-39.3438 -31.8984,-71.2373 -71.2422,-71.2373 -39.3438,0 -71.2422,31.8936 -71.2422,71.2373 v 28.3477 c 0,39.3438 31.8984,71.2422 71.2422,71.2422 39.3438,0 71.2422,-31.8984 71.2422,-71.2422 z"
     id="path851" />
  <path
     style="fill:currentColor"
     d="m 483.922,385.941 c -15.4453,-0.003 -27.9648,-12.5234 -27.9648,-27.9688 0,-15.4454 12.5195,-27.9688 27.9648,-27.9727 h 28.3477 c 15.4453,0.004 27.9648,12.5273 27.9648,27.9727 0,15.4454 -12.5195,27.9658 -27.9648,27.9688 z"
     id="path849" />
  <path
     style="fill:currentColor"
     d="M 143.103,471.73 58.4049,612.896 c -0.01733,0.0289 -0.03023,0.0593 -0.03891,0.0905 -0.0096,0.0328 -0.0148,0.0673 -0.0148,0.10282 0,0.0607 0.0151,0.11841 0.04169,0.1696 0.03063,0.0613 0.07799,0.11465 0.139954,0.15169 0.02888,0.0173 0.05934,0.0302 0.09054,0.0389 0.03278,0.01 0.0673,0.0148 0.102815,0.0148 h 33.0586 c 0.06067,0 0.118411,-0.0151 0.169599,-0.0417 0.06129,-0.0306 0.114648,-0.078 0.15169,-0.13995 l 80.328102,-133.883 c 0.0173,-0.0289 0.0302,-0.0593 0.0389,-0.0906 0.01,-0.0328 0.0148,-0.0673 0.0148,-0.10281 v -36.1953 c 0,-0.2041 -0.1709,-0.375 -0.375,-0.375 H 30.378889 c -0.204102,0 -0.375,0.1709 -0.375,0.375 v 28.3438 c 0,0.2041 0.170898,0.375 0.375,0.375 H 143.10289 Z"
     id="path843" />
  <path
     style="fill:currentColor"
     d="m 122.133,290.595 v 67.0026 H 67.6903 Z"
     id="path839" />
  <path
     style="fill:currentColor"
     d="m 30.3789,386.691 h 91.7539 v 27.9727 c 0,0.2041 0.1709,0.375 0.375,0.375 h 28.3438 c 0.2041,0 0.375,-0.1709 0.375,-0.375 V 386.691 h 35.0586 c 0.2041,0 0.375,-0.1709 0.375,-0.375 v -28.3438 c 0,-0.2041 -0.1709,-0.375 -0.375,-0.375 h -35.0586 v -113.012 c 0,-0.2041 -0.1709,-0.375 -0.375,-0.375 h -28.3438 c -0.0615,0 -0.12003,0.0155 -0.17174,0.0428 -0.045,0.0228 -0.0859,0.0549 -0.11928,0.0959 l -92.128896,113.387 c -0.02772,0.034 -0.0483,0.0718 -0.06197,0.11152 -0.01423,0.0392 -0.02202,0.0812 -0.02202,0.12481 V 386.316 c 0,0.2041 0.170898,0.375 0.375,0.375 z"
     id="path835" />
  <path
     style="fill:currentColor"
     d="m 87.0742,216.613 h 28.3438 c 0.2041,0 0.375,-0.1709 0.375,-0.375 V 46.16 c 0,-0.2041 -0.1709,-0.375 -0.375,-0.375 H 87.0742 c -0.204102,0 -0.375,0.1709 -0.375,0.375 v 170.078 c 0,0.2041 0.170898,0.375 0.375,0.375 z"
     id="path833" />
  <path
     style="fill:currentColor"
     d="m 313.844,506.414 h -28.3438 c -9.57812,-0.004 -17.3359,-7.76562 -17.3359,-17.3398 0,-9.57418 7.75781,-17.3359 17.3359,-17.3438 h 28.3438 c 9.57422,0.008 17.3359,7.76953 17.3359,17.3438 0,9.57427 -7.76172,17.3359 -17.3359,17.3398 z"
     id="path829" />
  <path
     style="fill:currentColor"
     d="m 30.0039,202.066 v 14.1719 c 0,0.2041 0.170898,0.375 0.375,0.375 h 14.1758 c 0.204102,0 0.375,-0.1709 0.375,-0.375 V 202.066 c 0,-0.2041 -0.170898,-0.375 -0.375,-0.375 H 30.3789 c -0.204102,0 -0.375,0.1709 -0.375,0.375 z"
     id="path2" />
</svg>
