<?xml version="1.0" encoding="UTF-8" standalone="no"?>
<svg
   xmlns:dc="http://purl.org/dc/elements/1.1/"
   xmlns:cc="http://creativecommons.org/ns#"
   xmlns:rdf="http://www.w3.org/1999/02/22-rdf-syntax-ns#"
   xmlns:svg="http://www.w3.org/2000/svg"
   xmlns="http://www.w3.org/2000/svg"
   xmlns:sodipodi="http://sodipodi.sourceforge.net/DTD/sodipodi-0.dtd"
   xmlns:inkscape="http://www.inkscape.org/namespaces/inkscape"
   version="1.1"
   viewBox="0 -158 1000 1000"
   id="svg6"
   sodipodi:docname="B_A4EPSCONB.svg"
   inkscape:version="0.92.3 (2405546, 2018-03-11)">
  <metadata
     id="metadata12">
    <rdf:RDF>
      <cc:Work
         rdf:about="">
        <dc:format>image/svg+xml</dc:format>
        <dc:type
           rdf:resource="http://purl.org/dc/dcmitype/StillImage" />
      </cc:Work>
    </rdf:RDF>
  </metadata>
  <defs
     id="defs10" />
  <sodipodi:namedview
     pagecolor="#ffffff"
     bordercolor="#666666"
     borderopacity="1"
     objecttolerance="10"
     gridtolerance="10"
     guidetolerance="10"
     inkscape:pageopacity="0"
     inkscape:pageshadow="2"
     inkscape:window-width="2560"
     inkscape:window-height="1377"
     id="namedview8"
     showgrid="false"
     inkscape:zoom="1.888"
     inkscape:cx="228.46516"
     inkscape:cy="303.25534"
     inkscape:window-x="2552"
     inkscape:window-y="-8"
     inkscape:window-maximized="1"
     inkscape:current-layer="svg6" />
  <path
     style="fill:currentColor"
     d="m 128.344,216.234 c 0,0.2041 0.1709,0.375 0.375,0.375 h 29.2197 c 0.01,0 0.0192,-0.001 0.0287,-0.001 0.0256,0 0.0513,-0.006 0.0768,-0.0135 0.0793,-0.0234 0.14552,-0.0722 0.19247,-0.13506 0.0482,-0.0631 0.0771,-0.1414 0.0771,-0.22529 0,-0.01 -0.001,-0.0192 -0.001,-0.0287 0,-0.0256 -0.006,-0.0513 -0.0135,-0.0768 l -49.6064,-170.078 c -0.0234,-0.0793 -0.0722,-0.14552 -0.13506,-0.19247 -0.0631,-0.0482 -0.1414,-0.0771 -0.22529,-0.0771 H 79.988499 c -0.0839,0 -0.162181,0.0289 -0.225293,0.0771 -0.06287,0.0469 -0.111673,0.11319 -0.135059,0.19247 l -49.6094,170.078 c -0.0073,0.0255 -0.01179,0.0512 -0.01352,0.0768 0,0.009 -0.0011,0.019 -0.0011,0.0287 0,0.0839 0.02887,0.16218 0.07706,0.22529 0.04694,0.0629 0.113188,0.11168 0.192467,0.13506 0.02546,0.007 0.05119,0.0118 0.07681,0.0135 0.0095,0 0.01903,0.001 0.02866,0.001 h 29.2188 c 0.204102,0 0.375,-0.1709 0.375,-0.375 0,-0.2041 -0.170898,-0.375 -0.375,-0.375 h -0.370581 l 8.05074,-27.5977 h 53.764707 l 8.05073,27.5977 h -0.37449 c -0.2041,0 -0.375,0.1709 -0.375,0.375 z"
     id="path887" />
  <path
     style="fill:currentColor"
     d="m 30.3789,244.207 c -0.204102,0 -0.375,0.1709 -0.375,0.375 V 414.66 c 0,0.2041 0.170898,0.375 0.375,0.375 h 70.8672 c 15.1348,0 29.6514,-6.01074 40.3555,-16.7158 10.6992,-10.7021 16.7119,-25.2158 16.7119,-40.3545 v -56.6914 c 0,-31.5195 -25.5479,-57.0664 -57.0674,-57.0664 H 30.3789 Z"
     id="path883" />
  <path
     style="fill:currentColor"
     d="M 59.1016,385.938 V 273.3 h 42.1445 c 15.4492,0 27.9727,12.5234 27.9727,27.9727 v 56.6914 c 0,7.41992 -2.94922,14.5352 -8.19531,19.7812 -5.24512,5.24219 -12.3574,8.19238 -19.7773,8.19238 h -42.1445 z"
     id="path881" />
  <path
     style="fill:currentColor"
     d="m 505.559,443.004 c 0,-0.2041 -0.1709,-0.375 -0.375,-0.375 h -28.3477 c -0.2041,0 -0.375,0.1709 -0.375,0.375 v 170.082 c 0,0.2041 0.1709,0.375 0.375,0.375 h 28.3477 c 0.2041,0 0.375,-0.1709 0.375,-0.375 z"
     id="path877" />
  <path
     style="fill:currentColor"
     d="m 286.693,717.989 69.9464,-76.3062 c 0.0286,-0.0313 0.0509,-0.0664 0.0668,-0.10382 0.0204,-0.0459 0.0318,-0.0964 0.0318,-0.14911 0,-0.0532 -0.0116,-0.10419 -0.0324,-0.15045 -0.0201,-0.0467 -0.05,-0.0899 -0.0897,-0.12592 -0.0313,-0.0286 -0.0664,-0.0509 -0.10381,-0.0668 -0.0459,-0.0204 -0.0964,-0.0318 -0.14912,-0.0318 h -35.4336 c -0.0532,0 -0.10418,0.0116 -0.15045,0.0324 -0.0467,0.0201 -0.0899,0.05 -0.12591,0.0897 l -63.126,68.8675 v -68.6146 c 0,-0.2041 -0.1709,-0.375 -0.375,-0.375 h -28.3477 c -0.20411,0 -0.375,0.1709 -0.375,0.375 v 170.07794 c 0,0.2041 0.17089,0.375 0.375,0.375 h 28.3477 c 0.2041,0 0.375,-0.1709 0.375,-0.375 v -61.6984 l 9.16258,-9.9969 53.94,71.9199 c 0.0373,0.0502 0.0856,0.0882 0.13939,0.11332 0.0489,0.0237 0.10334,0.0371 0.16041,0.0371 h 35.4336 c 0.0415,0 0.0816,-0.007 0.11917,-0.02 0.0372,-0.0122 0.0728,-0.0306 0.10544,-0.0552 0.0502,-0.0373 0.0882,-0.0856 0.11332,-0.13939 0.0237,-0.0489 0.0371,-0.10335 0.0371,-0.16042 0,-0.0415 -0.007,-0.0816 -0.02,-0.11917 -0.0122,-0.0372 -0.0306,-0.0728 -0.0552,-0.10544 z"
     id="path871" />
  <path
     style="fill:currentColor"
     d="m 30.0039,758.3594 c 0.0039,29.5586 23.9688,53.5195 53.5273,53.5195 29.5585,0 53.5195,-23.9609 53.5234,-53.5195 v -88.207 h 20.8838 c 0.2041,0 0.375,-0.1709 0.375,-0.375 v -28.3477 c 0,-0.2041 -0.1709,-0.375 -0.375,-0.375 H 44.5544 c -0.204102,0 -0.375,0.1709 -0.375,0.375 v 28.3477 c 0,0.2041 0.170898,0.375 0.375,0.375 h 63.4023 v 88.207 c 0,13.4883 -10.9375,24.4258 -24.4258,24.4258 -13.4922,0 -24.4258,-10.9375 -24.4297,-24.4258 v -3.54297 c 0,-0.2041 -0.170898,-0.375 -0.375,-0.375 H 30.3785 c -0.204102,0 -0.375,0.1709 -0.375,0.375 v 3.54297 z"
     id="path869" />
  <path
     style="fill:currentColor"
     d="m 306.758,216.609 c 20.3086,0 38.5986,-12.2881 46.2725,-31.0928 7.63165,-18.6832 3.26734,-40.1071 -11.02,-54.3213 14.2873,-14.2142 18.6507,-35.642 11.021,-54.3252 C 345.3567,58.0679 327.0667,45.7808 306.7581,45.7808 H 228.805 c -0.2041,0 -0.375,0.1709 -0.375,0.375 v 170.078 c 0,0.2041 0.1709,0.375 0.375,0.375 h 77.9531 z"
     id="path863" />
  <path
     style="fill:currentColor"
     d="M 257.527,116.645 V 74.8755 h 49.2305 c 11.5312,0.008 20.875,9.35547 20.875,20.8867 0,11.53123 -9.34375,20.8789 -20.875,20.8828 z"
     id="path861" />
  <path
     style="fill:currentColor"
     d="m 257.527,145.742 h 49.2305 c 11.5312,0.004 20.8789,9.35547 20.8789,20.8867 0,11.53123 -9.34766,20.8789 -20.8789,20.8828 H 257.527 Z"
     id="path855" />
  <path
     style="fill:currentColor"
     d="M 112.558,159.164 H 75.7621 L 94.16,96.0908 Z"
     id="path851" />
  <path
     style="fill:currentColor"
     d="m 129.219,553.223 v 10.2539 c 0,5.54102 -2.20215,10.8516 -6.11719,14.7705 -3.91699,3.91309 -9.22852,6.11621 -14.7695,6.11621 h -28.3438 c -11.5352,0 -20.8867,-9.35156 -20.8867,-20.8867 v -70.8633 c 0,-11.5352 9.35156,-20.8867 20.8867,-20.8867 h 28.3438 c 11.5352,0 20.8867,9.35156 20.8867,20.8867 v 7.08594 c 0,0.2041 0.1709,0.375 0.375,0.375 h 28.3447 c 0.2041,0 0.375,-0.1709 0.375,-0.375 v -7.08594 c 0,-27.6055 -22.376,-49.9844 -49.9814,-49.9844 h -28.3438 c -27.6055,0 -49.9844,22.3789 -49.9844,49.9844 v 70.8633 c 0,13.2559 5.2666,25.9688 14.6406,35.3428 9.37109,9.37598 22.0879,14.6416 35.3438,14.6416 h 28.3438 c 13.2559,0 25.9688,-5.26562 35.3438,-14.6406 9.375,-9.37598 14.6377,-22.0879 14.6377,-35.3438 v -35.4336 c 0,-0.2041 -0.1709,-0.375 -0.375,-0.375 h -56.6924 c -0.2041,0 -0.375,0.1709 -0.375,0.375 v 24.8047 c 0,0.2041 0.1709,0.375 0.375,0.375 h 27.9727 z"
     id="path847" />
  <path
     style="fill:currentColor"
     d="m 327.645,513.496 h -70.1172 v -70.4922 c 0,-0.2041 -0.1709,-0.375 -0.375,-0.375 h -28.3477 c -0.2041,0 -0.375,0.1709 -0.375,0.375 v 170.082 c 0,0.2041 0.1709,0.375 0.375,0.375 h 28.3477 c 0.2041,0 0.375,-0.1709 0.375,-0.375 v -70.4922 h 70.1172 v 70.4922 c 0,0.2041 0.1709,0.375 0.375,0.375 h 28.3438 c 0.2041,0 0.375,-0.1709 0.375,-0.375 v -170.082 c 0,-0.2041 -0.1709,-0.375 -0.375,-0.375 H 328.02 c -0.2041,0 -0.375,0.1709 -0.375,0.375 z"
     id="path843" />
  <path
     style="fill:currentColor"
     d="m 328.02,315.07 h -70.4922 v -41.7695 h 98.8359 c 0.2041,0 0.375,-0.1709 0.375,-0.375 v -28.3438 c 0,-0.2041 -0.1709,-0.375 -0.375,-0.375 h -127.559 c -0.2041,0 -0.375,0.1709 -0.375,0.375 v 170.078 c 0,0.2041 0.1709,0.375 0.375,0.375 h 127.559 c 0.2041,0 0.375,-0.1709 0.375,-0.375 V 386.313 c 0,-0.2041 -0.1709,-0.375 -0.375,-0.375 H 257.5278 V 344.1675 H 328.02 c 0.2041,0 0.375,-0.1709 0.375,-0.375 v -28.3477 c 0,-0.2041 -0.1709,-0.375 -0.375,-0.375 z"
     id="path839" />
  <path
     style="fill:currentColor"
     d="m 526.441,103.223 h 28.3477 c 0.2041,0 0.375,-0.1709 0.375,-0.375 v -7.08594 c 0,-27.6055 -22.375,-49.9805 -49.9805,-49.9805 h -28.3477 c -27.6016,0 -49.9805,22.375 -49.9805,49.9805 v 70.8672 c 0,13.2559 5.2666,25.9688 14.6406,35.3389 9.37207,9.37598 22.084,14.6416 35.3398,14.6416 h 28.3477 c 13.2559,0 25.9688,-5.26562 35.3438,-14.6406 9.37207,-9.37109 14.6367,-22.084 14.6367,-35.3398 v -7.08984 c 0,-0.2041 -0.1709,-0.375 -0.375,-0.375 h -28.3477 c -0.2041,0 -0.375,0.1709 -0.375,0.375 v 7.08984 c 0,11.5312 -9.34766,20.8828 -20.8828,20.8828 h -28.3477 c -11.5352,0 -20.8828,-9.35156 -20.8828,-20.8828 v -70.8672 c 0,-11.5352 9.34766,-20.8867 20.8828,-20.8867 h 28.3477 c 11.5352,0 20.8828,9.35156 20.8828,20.8867 v 7.08594 c 0,0.2041 0.1709,0.375 0.375,0.375 z"
     id="path835" />
  <path
     style="fill:currentColor"
     d="m 555.164,244.582 c 0,-0.2041 -0.1709,-0.375 -0.375,-0.375 H 427.23 c -0.2041,0 -0.375,0.1709 -0.375,0.375 V 414.66 c 0,0.2041 0.1709,0.375 0.375,0.375 h 28.3477 c 0.2041,0 0.375,-0.1709 0.375,-0.375 v -70.4922 h 70.4883 c 0.2041,0 0.375,-0.1709 0.375,-0.375 v -28.3477 c 0,-0.2041 -0.1709,-0.375 -0.375,-0.375 h -70.4883 v -41.7695 h 98.8359 c 0.2041,0 0.375,-0.1709 0.375,-0.375 v -28.3438 z"
     id="path833" />
  <path
     style="fill:currentColor"
     d="m 554.789,811.8828 c 0.2041,0 0.375,-0.1709 0.375,-0.375 V 783.164 c 0,-0.2041 -0.1709,-0.375 -0.375,-0.375 H 455.9531 V 641.43 c 0,-0.2041 -0.1709,-0.375 -0.375,-0.375 h -28.3477 c -0.2041,0 -0.375,0.1709 -0.375,0.375 v 170.078 c 0,0.2041 0.1709,0.375 0.375,0.375 h 127.559 z"
     id="path827" />
  <path
     style="fill:currentColor"
     d="m 426.855,598.91 v 14.1758 c 0,0.2041 0.1709,0.375 0.375,0.375 h 14.1719 c 0.2041,0 0.375,-0.1709 0.375,-0.375 V 598.91 c 0,-0.2041 -0.1709,-0.375 -0.375,-0.375 H 427.23 c -0.2041,0 -0.375,0.1709 -0.375,0.375 z"
     id="path2" />
</svg>
