<?xml version="1.0" encoding="UTF-8" standalone="no"?>
<svg
   xmlns:dc="http://purl.org/dc/elements/1.1/"
   xmlns:cc="http://creativecommons.org/ns#"
   xmlns:rdf="http://www.w3.org/1999/02/22-rdf-syntax-ns#"
   xmlns:svg="http://www.w3.org/2000/svg"
   xmlns="http://www.w3.org/2000/svg"
   xmlns:sodipodi="http://sodipodi.sourceforge.net/DTD/sodipodi-0.dtd"
   xmlns:inkscape="http://www.inkscape.org/namespaces/inkscape"
   version="1.1"
   viewBox="0 -158 1000 1000"
   id="svg6"
   sodipodi:docname="C_A4EPSCONB.svg"
   inkscape:version="0.92.3 (2405546, 2018-03-11)">
  <metadata
     id="metadata12">
    <rdf:RDF>
      <cc:Work
         rdf:about="">
        <dc:format>image/svg+xml</dc:format>
        <dc:type
           rdf:resource="http://purl.org/dc/dcmitype/StillImage" />
      </cc:Work>
    </rdf:RDF>
  </metadata>
  <defs
     id="defs10" />
  <sodipodi:namedview
     pagecolor="#ffffff"
     bordercolor="#666666"
     borderopacity="1"
     objecttolerance="10"
     gridtolerance="10"
     guidetolerance="10"
     inkscape:pageopacity="0"
     inkscape:pageshadow="2"
     inkscape:window-width="2560"
     inkscape:window-height="1377"
     id="namedview8"
     showgrid="false"
     inkscape:zoom="0.944"
     inkscape:cx="675.40412"
     inkscape:cy="363.3869"
     inkscape:window-x="2552"
     inkscape:window-y="-8"
     inkscape:window-maximized="1"
     inkscape:current-layer="svg6" />
  <path
     style="fill:currentColor"
     d="m 292.754,711.962 c -0.0535,-0.0269 -0.11107,-0.0394 -0.16797,-0.039 -0.0569,0 -0.11445,0.0121 -0.16797,0.039 -0.0369,0.0183 -0.0694,0.0423 -0.0971,0.0705 -0.0279,0.0276 -0.0517,0.0599 -0.0699,0.0965 l -24.7107,49.4213 -10.0139,-120.152 c 0,-0.0325 -0.01,-0.0634 -0.0206,-0.0924 -0.0521,-0.14505 -0.19243,-0.25136 -0.3534,-0.25136 h -28.3361 c -0.0142,0 -0.0284,9.8e-4 -0.0429,9.8e-4 -0.10526,0.009 -0.19794,0.0628 -0.26049,0.14084 -0.0391,0.0486 -0.0666,0.10674 -0.0777,0.16989 -0.005,0.0306 -0.005,0.0623 -0.005,0.0945 l 14.1758,170.078 c 0,0.0325 0.01,0.0634 0.0206,0.0924 0.0521,0.14506 0.19243,0.25136 0.3534,0.25136 h 28.3438 c 0.0693,0 0.13483,-0.0197 0.1911,-0.0538 0.0602,-0.0353 0.11107,-0.0873 0.14387,-0.15327 l 20.9267,-41.8496 20.9229,41.8496 c 0.0328,0.0659 0.0836,0.11799 0.14386,0.15327 0.0563,0.034 0.12177,0.0538 0.1911,0.0538 h 28.3477 c 0.16097,0 0.30129,-0.1063 0.3534,-0.25136 0.0107,-0.029 0.0178,-0.0599 0.0206,-0.0924 l 14.1719,-170.078 c 0,-0.0322 -0.005,-0.0639 -0.005,-0.0945 -0.0111,-0.0632 -0.0386,-0.12133 -0.0777,-0.16989 -0.0626,-0.078 -0.15524,-0.13173 -0.2605,-0.14084 -0.0144,0 -0.0287,-9.8e-4 -0.0428,-9.8e-4 h -28.3321 c -0.16098,0 -0.3013,0.10631 -0.35341,0.25137 -0.0107,0.029 -0.0178,0.0599 -0.0206,0.0924 l -10.0139,120.152 -24.7107,-49.4213 c -0.0182,-0.0366 -0.042,-0.069 -0.0699,-0.0965 -0.0277,-0.0281 -0.0602,-0.0521 -0.0971,-0.0705 z"
     id="path883" />
  <path
     style="fill:currentColor"
     d="m 426.855,549.305 c 0.004,35.4258 28.7266,64.1445 64.1562,64.1445 35.4258,0 64.1484,-28.7188 64.1523,-64.1445 V 443.004 c 0,-0.2041 -0.1709,-0.375 -0.375,-0.375 h -28.3477 c -0.2041,0 -0.375,0.1709 -0.375,0.375 v 106.301 c -0.008,19.3555 -15.6992,35.043 -35.0547,35.043 -19.3594,0 -35.0508,-15.6875 -35.0586,-35.043 V 443.004 c 0,-0.2041 -0.1709,-0.375 -0.375,-0.375 h -28.3477 c -0.2041,0 -0.375,0.1709 -0.375,0.375 v 106.301 z"
     id="path875" />
  <path
     style="fill:currentColor"
     d="M 327.645,161.744 257.4731,45.962 c -0.0352,-0.0583 -0.0847,-0.10361 -0.14163,-0.1341 -0.0534,-0.0296 -0.11439,-0.0466 -0.17868,-0.0466 h -28.3477 c -0.20411,0 -0.375,0.17089 -0.375,0.375 v 170.078 c 0,0.2041 0.17089,0.375 0.375,0.375 h 28.3477 c 0.2041,0 0.375,-0.1709 0.375,-0.375 v -115.588 l 70.1719,115.782 c 0.0352,0.0583 0.0847,0.1036 0.14162,0.13409 0.0534,0.0296 0.1144,0.0466 0.17869,0.0466 h 28.3438 c 0.2041,0 0.375,-0.1709 0.375,-0.375 v -170.078 c 0,-0.2041 -0.1709,-0.375 -0.375,-0.375 H 328.02 c -0.2041,0 -0.375,0.1709 -0.375,0.375 z"
     id="path873" />
  <path
     style="fill:currentColor"
     d="m 104.717,145.694 c 0.0576,-0.0314 0.10746,-0.0778 0.14248,-0.13727 l 24.3594,-41.7546 v 112.432 c 0,0.2041 0.1709,0.375 0.375,0.375 h 28.3447 c 0.20411,0 0.375,-0.1709 0.375,-0.375 v -170.078 c 0,-0.2041 -0.17089,-0.375 -0.375,-0.375 h -28.3447 c -0.0709,0 -0.13786,0.0206 -0.195,0.0562 -0.0519,0.0312 -0.0969,0.0752 -0.12921,0.13037 l -35.109403,60.1864 -35.1094,-60.1864 c -0.03232,-0.0552 -0.07729,-0.0991 -0.129218,-0.13037 -0.05714,-0.0355 -0.124063,-0.0562 -0.195,-0.0562 h -28.3477 c -0.204102,0 -0.375,0.1709 -0.375,0.375 v 170.078 c 0,0.2041 0.170898,0.375 0.375,0.375 h 28.3477 c 0.204102,0 0.375,-0.1709 0.375,-0.375 v -112.432 l 24.3594,41.7546 c 0.03503,0.0595 0.08494,0.10588 0.142485,0.13727 0.05412,0.0307 0.116216,0.0483 0.181734,0.0483 h 20.750002 c 0.0655,0 0.12761,-0.0176 0.18173,-0.0483 z"
     id="path869" />
  <path
     style="fill:currentColor"
     d="m 307.133,471.727 h 49.2305 c 0.2041,0 0.375,-0.1709 0.375,-0.375 v -28.3477 c 0,-0.2041 -0.1709,-0.375 -0.375,-0.375 h -127.559 c -0.2041,0 -0.375,0.1709 -0.375,0.375 v 28.3477 c 0,0.2041 0.1709,0.375 0.375,0.375 h 49.2305 v 141.359 c 0,0.2041 0.1709,0.375 0.375,0.375 h 28.3477 c 0.2041,0 0.375,-0.1709 0.375,-0.375 V 471.727 Z"
     id="path865" />
  <path
     style="fill:currentColor"
     d="m 108.557,811.8057 c 0.0629,-0.0469 0.11167,-0.11319 0.13506,-0.19247 l 49.6064,-170.078 c 0.007,-0.0255 0.0118,-0.0512 0.0135,-0.0768 0,-0.009 0.001,-0.019 0.001,-0.0287 0,-0.0839 -0.0289,-0.16218 -0.0771,-0.22529 -0.0469,-0.0629 -0.11318,-0.11167 -0.19246,-0.13506 -0.0255,-0.007 -0.0512,-0.0118 -0.0768,-0.0135 -0.009,0 -0.019,-10e-4 -0.0287,-10e-4 h -29.5283 c -0.0839,0 -0.16218,0.0289 -0.2253,0.0771 -0.0629,0.0469 -0.11167,0.11319 -0.13505,0.19247 L 94.159755,757.52629 60.266255,641.3243 c -0.02339,-0.0793 -0.0722,-0.14553 -0.135061,-0.19247 -0.06311,-0.0482 -0.141397,-0.0771 -0.225291,-0.0771 h -29.5273 c -0.0096,0 -0.01919,0.001 -0.02866,0.001 -0.02562,0 -0.05135,0.006 -0.07681,0.0135 -0.07928,0.0234 -0.145523,0.0722 -0.192468,0.13506 -0.04819,0.0631 -0.07706,0.1414 -0.07706,0.22529 0,0.01 0.0011,0.0192 0.0011,0.0287 0,0.0256 0.0062,0.0514 0.01352,0.0768 l 49.6094,170.078 c 0.02339,0.0793 0.0722,0.14553 0.135061,0.19247 0.06311,0.0482 0.141397,0.0771 0.225291,0.0771 H 108.3318 c 0.0839,0 0.16219,-0.0289 0.2253,-0.0771 z"
     id="path861" />
  <path
     style="fill:currentColor"
     d="m 489.846,753.5085 32.7257,58.1829 c 0.0354,0.0629 0.0872,0.11169 0.14715,0.14411 0.0537,0.0301 0.11518,0.0473 0.18,0.0473 h 31.8906 c 0.0297,0 0.0587,-0.004 0.0865,-0.0104 0.0334,-0.008 0.066,-0.02 0.0971,-0.0374 0.0629,-0.0354 0.11169,-0.0872 0.14411,-0.14715 0.0301,-0.0537 0.0473,-0.11518 0.0473,-0.18 0,-0.0297 -0.004,-0.0587 -0.0104,-0.0865 -0.008,-0.0334 -0.0201,-0.0661 -0.0374,-0.0971 l -48.598,-86.3952 48.5951,-83.3109 c 0.0181,-0.0311 0.0312,-0.064 0.0393,-0.0977 0.007,-0.0292 0.0115,-0.0596 0.0115,-0.0908 0,-0.0709 -0.0207,-0.13787 -0.0562,-0.19501 -0.0312,-0.0519 -0.0752,-0.0969 -0.13037,-0.12921 -0.0311,-0.0181 -0.064,-0.0311 -0.0977,-0.0393 -0.0292,-0.007 -0.0596,-0.0115 -0.0908,-0.0115 h -31.8906 c -0.0648,0 -0.12629,0.0172 -0.18,0.0473 -0.06,0.0324 -0.11173,0.0812 -0.14715,0.14411 l -31.5596,56.1137 -31.5635,-56.1137 c -0.0354,-0.0629 -0.0872,-0.11169 -0.14716,-0.14411 -0.0537,-0.0301 -0.11517,-0.0473 -0.17999,-0.0473 h -31.8906 c -0.0297,0 -0.0587,0.004 -0.0865,0.0104 -0.0334,0.008 -0.0661,0.02 -0.0971,0.0374 -0.0629,0.0354 -0.11169,0.0872 -0.14411,0.14715 -0.0301,0.0537 -0.0473,0.11518 -0.0473,0.18 0,0.0297 0.004,0.0587 0.0104,0.0865 0.008,0.0334 0.02,0.066 0.0374,0.0971 l 47.7327,84.8555 -47.7327,84.8555 c -0.0174,0.031 -0.0298,0.0637 -0.0374,0.0971 -0.007,0.0279 -0.0104,0.0568 -0.0104,0.0865 0,0.0648 0.0172,0.12628 0.0473,0.17999 0.0324,0.06 0.0812,0.11174 0.14411,0.14716 0.031,0.0174 0.0637,0.0298 0.0971,0.0374 0.0279,0.007 0.0568,0.0104 0.0865,0.0104 h 46.0625 c 0.2041,0 0.375,-0.1709 0.375,-0.375 v -10.6289 c 0,-0.2041 -0.1709,-0.375 -0.375,-0.375 h -10.8627 z"
     id="path857" />
  <path
     style="fill:currentColor"
     d="m 157.938,492.988 c 0.2041,0 0.375,-0.1709 0.375,-0.375 0,-27.6055 -22.376,-49.9844 -49.9814,-49.9844 H 79.9878 c -27.6055,0 -49.9844,22.3789 -49.9844,49.9844 0,27.6016 22.3789,49.9805 49.9844,49.9805 h 28.3438 c 11.5352,0 20.8867,9.35156 20.8867,20.8828 v 7.08984 c 0,3.6582 -1.45312,7.16797 -4.04199,9.75391 -2.58691,2.59082 -6.09668,4.04297 -9.75879,4.04297 h -42.5195 c -3.6582,0 -7.16797,-1.45312 -9.75391,-4.04199 -2.59082,-2.58691 -4.04297,-6.09668 -4.04297,-9.75488 v -7.08984 c 0,-0.2041 -0.170898,-0.375 -0.375,-0.375 h -28.3477 c -0.204102,0 -0.375,0.1709 -0.375,0.375 v 7.08984 c 0,11.373 4.52051,22.2852 12.5664,30.3271 8.04297,8.04785 18.9551,12.5674 30.3281,12.5674 h 42.5195 c 11.377,0 22.2891,-4.52051 30.3311,-12.5664 8.04785,-8.04297 12.5645,-18.9551 12.5645,-30.3281 v -7.08984 c 0,-27.6016 -22.376,-49.9805 -49.9814,-49.9805 h -28.3438 c -11.5312,-0.004 -20.8789,-9.35156 -20.8789,-20.8828 0,-11.53124 9.34766,-20.8828 20.8789,-20.8867 h 28.3438 c 11.5352,0 20.8867,9.35156 20.8867,20.8867 0,0.2041 0.1709,0.375 0.375,0.375 h 28.3447 z"
     id="path853" />
  <path
     style="fill:currentColor"
     d="m 522.907,414.981 c 0.0563,0.034 0.12177,0.0538 0.19109,0.0537 h 31.6914 c 0.0349,0 0.0688,-0.005 0.1011,-0.0143 0.0227,-0.006 0.0451,-0.0148 0.0669,-0.0257 0.0659,-0.0328 0.11799,-0.0837 0.15328,-0.14387 0.034,-0.0563 0.0538,-0.12177 0.0538,-0.1911 0,-0.0349 -0.005,-0.0688 -0.0143,-0.1011 -0.006,-0.0227 -0.0148,-0.0451 -0.0257,-0.0669 l -36.133,-72.27 c 23.8362,-6.8475 39.0686,-30.1634 35.7161,-54.7808 -3.37207,-24.7676 -24.5273,-43.2344 -49.5234,-43.2344 h -77.9531 c -0.2041,0 -0.375,0.17089 -0.375,0.375 v 170.078 c 0,0.2041 0.1709,0.375 0.375,0.375 h 28.3477 c 0.20411,0 0.375,-0.1709 0.375,-0.375 v -70.4922 h 31.4795 l 35.3301,70.6602 c 0.0328,0.0659 0.0837,0.11799 0.14387,0.15327 z"
     id="path851" />
  <path
     style="fill:currentColor"
     d="m 505.184,315.07 h -49.2305 v -41.7695 h 49.2305 c 11.5312,0.004 20.875,9.35547 20.875,20.8877 0,11.5303 -9.34375,20.8779 -20.875,20.8818 z"
     id="path847" />
  <path
     style="fill:currentColor"
     d="m 327.645,357.358 -13.6328,-6.81453 c -0.0527,-0.0265 -0.10927,-0.039 -0.1653,-0.039 -0.13819,0 -0.27301,0.0761 -0.33763,0.20598 l -11.3359,22.6758 c -0.0265,0.0527 -0.039,0.10927 -0.039,0.16531 0,0.13818 0.076,0.273 0.20598,0.33762 l 10e-4,6.3e-4 16.4556,8.23253 c -3.51819,2.47832 -7.72244,3.81568 -12.0389,3.81568 h -28.3477 c -11.5312,0 -20.8828,-9.35254 -20.8828,-20.8877 v -70.8623 c 0,-11.5361 9.35156,-20.8877 20.8828,-20.8877 h 28.3477 c 11.5352,0 20.8867,9.35156 20.8867,20.8877 v 63.17 z"
     id="path843" />
  <path
     style="fill:currentColor"
     d="m 356.298,371.687 c 0.29481,-2.19961 0.44004,-4.41666 0.44004,-6.63642 v -70.8623 c 0,-27.6064 -22.375,-49.9814 -49.9805,-49.9814 h -28.34769 c -27.6016,0 -49.98051,22.375 -49.98051,49.9814 v 70.8623 c 0,13.2598 5.26661,25.9727 14.64061,35.3428 9.37109,9.37598 22.084,14.6416 35.3398,14.6416 h 28.3477 c 15.3999,0 29.93349,-7.09904 39.4044,-19.2343 l 10.0331,5.01847 c 0.0527,0.0265 0.10927,0.039 0.1653,0.039 0.13819,0 0.27301,-0.0761 0.33762,-0.20598 l 11.33981,-22.6758 c 0.0265,-0.0527 0.039,-0.10927 0.039,-0.16531 0,-0.13818 -0.076,-0.273 -0.20598,-0.33762 z"
     id="path839" />
  <path
     style="fill:currentColor"
     d="M 108.332,315.07 H 59.1015 v -41.7695 h 49.2305 c 11.5312,0.004 20.8789,9.35547 20.8789,20.8877 0,11.5303 -9.34766,20.8779 -20.8789,20.8818 z"
     id="path837" />
  <path
     style="fill:currentColor"
     d="M 108.332,244.207 H 30.3789 c -0.204102,0 -0.375,0.1709 -0.375,0.375 V 414.66 c 0,0.2041 0.170898,0.375 0.375,0.375 h 28.3477 c 0.204102,0 0.375,-0.1709 0.375,-0.375 v -70.4922 h 49.2305 c 27.6055,0 49.9814,-22.3789 49.9814,-49.9795 0,-27.6064 -22.376,-49.9814 -49.9814,-49.9814 z"
     id="path831" />
  <path
     style="fill:currentColor"
     d="m 555.164,88.676 c 0,-11.377 -4.51953,-22.2891 -12.5625,-30.332 -8.04297,-8.0429 -18.9551,-12.5625 -30.332,-12.5625 H 469.75 c -11.377,0 -22.2842,4.51953 -30.332,12.5625 -8.04297,8.04297 -12.5625,18.9551 -12.5625,30.332 v 85.0391 c 0,11.377 4.51953,22.2842 12.5635,30.332 8.0459,8.04297 18.9541,12.5625 30.3311,12.5625 h 42.5195 c 11.377,0 22.2881,-4.51953 30.332,-12.5635 8.04297,-8.0459 12.5625,-18.9541 12.5625,-30.3311 V 88.6759 Z"
     id="path827" />
  <path
     style="fill:currentColor"
     d="m 526.066,88.676 v 85.0391 c 0,7.62109 -6.17578,13.7969 -13.7969,13.7969 h -42.5195 c -7.62109,0 -13.7969,-6.17578 -13.7969,-13.7969 V 88.676 c 0,-7.62109 6.17578,-13.8008 13.7969,-13.8008 h 42.5195 c 7.62109,0 13.7969,6.17969 13.7969,13.8008 z"
     id="path825" />
</svg>
