<?xml version="1.0" encoding="UTF-8" standalone="no"?>
<svg
   xmlns:dc="http://purl.org/dc/elements/1.1/"
   xmlns:cc="http://creativecommons.org/ns#"
   xmlns:rdf="http://www.w3.org/1999/02/22-rdf-syntax-ns#"
   xmlns:svg="http://www.w3.org/2000/svg"
   xmlns="http://www.w3.org/2000/svg"
   xmlns:sodipodi="http://sodipodi.sourceforge.net/DTD/sodipodi-0.dtd"
   xmlns:inkscape="http://www.inkscape.org/namespaces/inkscape"
   version="1.1"
   viewBox="0 -158 1000 1000"
   id="svg6"
   sodipodi:docname="D_A4EPSCONB.svg"
   inkscape:version="0.92.3 (2405546, 2018-03-11)">
  <metadata
     id="metadata12">
    <rdf:RDF>
      <cc:Work
         rdf:about="">
        <dc:format>image/svg+xml</dc:format>
        <dc:type
           rdf:resource="http://purl.org/dc/dcmitype/StillImage" />
      </cc:Work>
    </rdf:RDF>
  </metadata>
  <defs
     id="defs10" />
  <sodipodi:namedview
     pagecolor="#ffffff"
     bordercolor="#666666"
     borderopacity="1"
     objecttolerance="10"
     gridtolerance="10"
     guidetolerance="10"
     inkscape:pageopacity="0"
     inkscape:pageshadow="2"
     inkscape:window-width="2560"
     inkscape:window-height="1377"
     id="namedview8"
     showgrid="false"
     inkscape:zoom="0.944"
     inkscape:cx="-105.1748"
     inkscape:cy="303.4779"
     inkscape:window-x="2552"
     inkscape:window-y="-8"
     inkscape:window-maximized="1"
     inkscape:current-layer="svg6" />
  <path
     style="fill:currentColor"
     d="m 299.641,45.782 c -0.20312,0 -0.35937,0.20117 -0.34277,0.40527 l 3.54297,42.5195 c 0.009,0.10527 0.0628,0.19795 0.14083,0.2605 0.0486,0.0391 0.10674,0.0666 0.1699,0.0777 0.0253,0.005 0.0514,0.006 0.0779,0.006 h 21.2472 c 0.16097,0 0.3013,-0.1063 0.35341,-0.25136 0.0107,-0.029 0.0178,-0.0599 0.0206,-0.0924 l 3.54297,-42.5195 c 0,-0.0322 -0.005,-0.0639 -0.005,-0.0945 -0.0111,-0.0631 -0.0386,-0.12133 -0.0777,-0.16989 -0.0626,-0.078 -0.15523,-0.13173 -0.2605,-0.14084 -0.0144,0 -0.0287,-9.8e-4 -0.0428,-9.8e-4 h -28.3361 c -0.009,0 -0.018,10e-4 -0.0269,10e-4 z"
     id="path939" />
  <path
     style="fill:currentColor"
     d="m 257.121,45.782 c -0.20313,0 -0.35938,0.20117 -0.34277,0.40527 l 3.54297,42.5195 c 0.009,0.10527 0.0628,0.19795 0.14083,0.2605 0.0486,0.0391 0.10674,0.0666 0.1699,0.0777 0.0253,0.005 0.0514,0.006 0.0779,0.006 h 21.2472 c 0.16097,0 0.3013,-0.1063 0.35341,-0.25136 0.0107,-0.029 0.0178,-0.0599 0.0206,-0.0924 l 3.54297,-42.5195 c 0,-0.0322 -0.005,-0.0639 -0.005,-0.0945 -0.0111,-0.0631 -0.0386,-0.12133 -0.0777,-0.16989 -0.0626,-0.078 -0.15523,-0.13173 -0.2605,-0.14084 -0.0144,0 -0.0287,-9.8e-4 -0.0428,-9.8e-4 h -28.3361 c -0.009,0 -0.018,10e-4 -0.0269,10e-4 z"
     id="path937" />
  <path
     style="fill:currentColor"
     d="m 79.957,442.63 c -0.203125,0 -0.359375,0.20117 -0.342773,0.40527 l 3.54297,42.5195 c 0.0091,0.10527 0.06281,0.19795 0.140837,0.2605 0.04856,0.0391 0.106739,0.0666 0.169892,0.0777 0.02532,0.005 0.05138,0.006 0.07785,0.006 h 21.228704 c 0.0265,0 0.0525,-0.006 0.0778,-0.006 0.0632,-0.0111 0.12133,-0.0386 0.1699,-0.0777 0.078,-0.0625 0.13172,-0.15523 0.14083,-0.2605 l 3.54297,-42.5195 c 0.0166,-0.2041 -0.13964,-0.40527 -0.34277,-0.40527 l -0.004,2e-5 c -0.009,0 -0.0178,-10e-4 -0.0269,-10e-4 H 79.988211 c -0.009,0 -0.01798,10e-4 -0.02686,10e-4 z"
     id="path935" />
  <path
     style="fill:currentColor"
     d="m 30.3789,216.609 h 14.1758 c 0.204102,0 0.375,-0.1709 0.375,-0.375 v -14.1709 c 0,-0.2041 -0.170898,-0.375 -0.375,-0.375 H 30.3789 c -0.204102,0 -0.375,0.1709 -0.375,0.375 v 14.1709 c 0,0.2041 0.170898,0.375 0.375,0.375 z"
     id="path933" />
  <path
     style="fill:currentColor"
     d="m 228.43,202.063 v 14.1709 c 0,0.2041 0.1709,0.375 0.375,0.375 h 14.1758 c 0.2041,0 0.375,-0.1709 0.375,-0.375 V 202.063 c 0,-0.2041 -0.1709,-0.375 -0.375,-0.375 H 228.805 c -0.2041,0 -0.375,0.1709 -0.375,0.375 z"
     id="path927" />
  <path
     style="fill:currentColor"
     d="m 426.855,797.3359 v 14.1719 c 0,0.2041 0.1709,0.375 0.375,0.375 h 14.1719 c 0.2041,0 0.375,-0.1709 0.375,-0.375 v -14.1719 c 0,-0.2041 -0.1709,-0.375 -0.375,-0.375 H 427.23 c -0.2041,0 -0.375,0.1709 -0.375,0.375 z"
     id="path923" />
  <path
     style="fill:currentColor"
     d="m 228.43,797.3359 v 14.1719 c 0,0.2041 0.1709,0.375 0.375,0.375 h 14.1758 c 0.2041,0 0.375,-0.1709 0.375,-0.375 v -14.1719 c 0,-0.2041 -0.1709,-0.375 -0.375,-0.375 H 228.805 c -0.2041,0 -0.375,0.1709 -0.375,0.375 z"
     id="path919" />
  <path
     style="fill:currentColor"
     d="m 426.855,598.91 v 14.1758 c 0,0.2041 0.1709,0.375 0.375,0.375 h 14.1719 c 0.2041,0 0.375,-0.1709 0.375,-0.375 V 598.91 c 0,-0.2041 -0.1709,-0.375 -0.375,-0.375 H 427.23 c -0.2041,0 -0.375,0.1709 -0.375,0.375 z"
     id="path915" />
  <path
     style="fill:currentColor"
     d="m 228.43,598.91 v 14.1758 c 0,0.2041 0.1709,0.375 0.375,0.375 h 14.1758 c 0.2041,0 0.375,-0.1709 0.375,-0.375 V 598.91 c 0,-0.2041 -0.1709,-0.375 -0.375,-0.375 H 228.805 c -0.2041,0 -0.375,0.1709 -0.375,0.375 z"
     id="path911" />
  <path
     style="fill:currentColor"
     d="m 30.0039,598.91 v 14.1758 c 0,0.2041 0.170898,0.375 0.375,0.375 h 14.1758 c 0.204102,0 0.375,-0.1709 0.375,-0.375 V 598.91 c 0,-0.2041 -0.170898,-0.375 -0.375,-0.375 H 30.3789 c -0.204102,0 -0.375,0.1709 -0.375,0.375 z"
     id="path907" />
  <path
     style="fill:currentColor"
     d="m 471.584,802.6372 c -0.54964,2.22218 -0.0471,4.5727 1.36264,6.37944 1.41504,1.80957 3.58301,2.86621 5.88184,2.86621 h 3.42188 c 1.15918,0 2.30371,-0.26758 3.33984,-0.78613 l 11.7852,-5.89453 c 1.94257,-0.97129 3.36236,-2.73887 3.89689,-4.83879 0,-0.007 0.006,-0.0149 0.006,-0.0225 l 9.15625,-36.6289 c 0.55469,-2.22949 0.0527,-4.58984 -1.35742,-6.39941 -1.41406,-1.81445 -3.58691,-2.87109 -5.88184,-2.87109 h -13.7383 c -3.42578,0 -6.4082,2.33203 -7.23926,5.65137 l -10.6289,42.5195 c 0,0.008 -0.005,0.0166 -0.005,0.0248 z"
     id="path905" />
  <path
     style="fill:currentColor"
     d="m 278.035,711.922 h -49.2305 c -0.2041,0 -0.375,0.1709 -0.375,0.375 v 28.3477 c 0,0.2041 0.1709,0.375 0.375,0.375 h 49.2305 v 49.2305 c 0,0.2041 0.1709,0.375 0.375,0.375 h 28.3477 c 0.2041,0 0.375,-0.1709 0.375,-0.375 v -49.2305 h 49.2305 c 0.2041,0 0.375,-0.1709 0.375,-0.375 V 712.297 c 0,-0.2041 -0.1709,-0.375 -0.375,-0.375 h -49.2305 v -49.2305 c 0,-0.2041 -0.1709,-0.375 -0.375,-0.375 H 278.41 c -0.2041,0 -0.375,0.1709 -0.375,0.375 z"
     id="path899" />
  <path
     style="fill:currentColor"
     d="m 137.895,790.6233 c 0.0967,0 0.19336,-0.0359 0.26562,-0.10767 l 20.04391,-20.043 c 0.0718,-0.0723 0.10766,-0.16894 0.10766,-0.26562 0,-0.0967 -0.0359,-0.19336 -0.10766,-0.26563 l -43.4697,-43.4726 43.4697,-43.4688 c 0.0718,-0.0723 0.10766,-0.16894 0.10766,-0.26562 0,-0.0967 -0.0359,-0.19336 -0.10766,-0.26563 l -20.04391,-20.043 c -0.0723,-0.0718 -0.16894,-0.10766 -0.26562,-0.10766 -0.0967,0 -0.19336,0.0359 -0.26563,0.10766 l -28.92189,28.9219 v -49.918 c 0,-0.2041 -0.1709,-0.375 -0.375,-0.375 H 79.988675 c -0.204102,0 -0.375,0.1709 -0.375,0.375 v 49.918 l -28.9219,-28.9219 c -0.07227,-0.0718 -0.168945,-0.10766 -0.265625,-0.10766 -0.09668,0 -0.193359,0.0359 -0.265625,0.10766 l -20.0469,20.043 c -0.07178,0.0723 -0.107666,0.16895 -0.107666,0.26563 0,0.0967 0.03589,0.19336 0.107666,0.26562 l 43.4726,43.4688 -43.4726,43.4726 c -0.07178,0.0723 -0.107666,0.16895 -0.107666,0.26563 0,0.0967 0.03589,0.19336 0.107666,0.26562 l 20.0469,20.043 c 0.07227,0.0718 0.168945,0.10767 0.265625,0.10767 0.09668,0 0.193359,-0.0359 0.265625,-0.10767 l 28.9219,-28.9209 v 49.9131 c 0,0.20411 0.170898,0.375 0.375,0.375 h 28.343805 c 0.2041,0 0.375,-0.17089 0.375,-0.375 v -49.9131 l 28.92189,28.9209 c 0.0723,0.0718 0.16895,0.10767 0.26563,0.10767 z"
     id="path897" />
  <path
     style="fill:currentColor"
     d="m 328.139,442.649 c -0.0376,-0.013 -0.0777,-0.02 -0.11918,-0.02 h -33.9062 c -0.0664,0 -0.12924,0.0181 -0.18386,0.0495 -0.0572,0.0317 -0.10672,0.0784 -0.14133,0.13801 -30.4492,52.7412 -30.4492,117.716 0,170.457 0.0346,0.0597 0.0841,0.1063 0.14133,0.13801 0.0546,0.0314 0.11749,0.0495 0.18386,0.0495 h 33.9062 c 0.0415,0 0.0816,-0.007 0.11918,-0.02 0.0372,-0.0122 0.0728,-0.0306 0.10543,-0.0552 0.0502,-0.0373 0.0882,-0.0857 0.11332,-0.13939 0.0237,-0.0489 0.0371,-0.10334 0.0371,-0.16041 0,-0.0415 -0.007,-0.0816 -0.02,-0.11918 -0.0122,-0.0372 -0.0306,-0.0728 -0.0552,-0.10543 -37.6963,-50.2617 -37.6963,-119.371 0,-169.633 0.0246,-0.0326 0.0429,-0.0683 0.0552,-0.10543 0.013,-0.0376 0.02,-0.0777 0.02,-0.11918 0,-0.0571 -0.0134,-0.11155 -0.0371,-0.16041 -0.0251,-0.0537 -0.0631,-0.10205 -0.11332,-0.1394 -0.0326,-0.0246 -0.0683,-0.0429 -0.10543,-0.0552 z"
     id="path893" />
  <path
     style="fill:currentColor"
     d="m 455.223,612.967 c -0.013,0.0376 -0.02,0.0777 -0.02,0.11918 0,0.0571 0.0134,0.11154 0.0371,0.16041 0.0251,0.0537 0.0631,0.10205 0.11332,0.13939 0.0326,0.0246 0.0683,0.0429 0.10543,0.0552 0.0376,0.013 0.0777,0.02 0.11918,0.02 h 33.9062 c 0.0664,0 0.12924,-0.0181 0.18386,-0.0495 0.0572,-0.0317 0.10672,-0.0784 0.14133,-0.13801 30.4492,-52.7412 30.4492,-117.716 0,-170.457 -0.0346,-0.0597 -0.0841,-0.1063 -0.14133,-0.13801 -0.0546,-0.0314 -0.11749,-0.0495 -0.18386,-0.0495 h -33.9062 c -0.0415,0 -0.0816,0.007 -0.11918,0.02 -0.0372,0.0122 -0.0728,0.0306 -0.10543,0.0552 -0.0502,0.0374 -0.0882,0.0857 -0.11332,0.13939 -0.0237,0.0489 -0.0371,0.10335 -0.0371,0.16042 0,0.0415 0.007,0.0816 0.02,0.11917 0.0122,0.0372 0.0306,0.0728 0.0552,0.10544 37.6924,50.2617 37.6924,119.371 0,169.633 -0.0246,0.0326 -0.0429,0.0683 -0.0552,0.10543 z"
     id="path889" />
  <path
     style="fill:currentColor"
     d="m 526.066,357.965 c 0,3.82685 -0.78206,7.60832 -2.30081,11.1133 l -26.0773,-37.7649 13.4758,-11.0779 c 13.1504,-10.8096 18.6631,-28.373 14.0488,-44.7588 -4.61133,-16.3857 -18.4785,-28.4951 -35.3369,-30.8555 -16.8584,-2.36426 -33.5195,5.46973 -42.457,19.9551 -8.94141,14.4902 -8.46484,32.8896 1.21094,46.8984 l 9.90846,14.3528 -16.0266,13.1756 c -13.9932,11.5029 -19.25,30.5527 -13.1426,47.6035 6.1084,17.0518 22.2695,28.4287 40.3809,28.4287 h 28.3477 c 6.70148,0 13.3489,-1.1803 19.6382,-3.48854 l 2.29535,3.32643 c 0.0341,0.0493 0.0787,0.0879 0.12882,0.11494 0.0536,0.03 0.11504,0.0472 0.17977,0.0472 h 34.4492 c 0.0378,0 0.0745,-0.006 0.10909,-0.0167 0.0363,-0.0108 0.0713,-0.0272 0.10381,-0.0497 0.0493,-0.0341 0.0879,-0.0786 0.11493,-0.12881 0.03,-0.0537 0.0472,-0.11505 0.0472,-0.17978 0,-0.0378 -0.006,-0.0745 -0.0167,-0.10909 -0.0108,-0.0363 -0.0272,-0.0713 -0.0497,-0.1038 l -13.4966,-19.5483 c 8.75588,-10.3121 13.563,-23.3978 13.563,-36.9341 0,-0.2041 -0.1709,-0.375 -0.375,-0.375 h -28.3477 c -0.2041,0 -0.375,0.1709 -0.375,0.375 z"
     id="path885" />
  <path
     style="fill:currentColor"
     d="m 500.006,385.873 c -0.63493,0.0432 -1.27176,0.065 -1.90805,0.065 h -28.3477 c -5.82617,0 -11.0244,-3.65918 -12.9912,-9.14746 -1.96191,-5.4834 -0.26953,-11.6094 4.22949,-15.3096 l 14.1422,-11.6279 z"
     id="path883" />
  <path
     style="fill:currentColor"
     d="m 481.096,307.287 -8.52576,-12.3475 c -3.11035,-4.50293 -3.2666,-10.4238 -0.3877,-15.0859 2.875,-4.65918 8.23341,-7.17676 13.65621,-6.41895 5.42284,0.75977 9.88378,4.6543 11.36619,9.9248 1.48341,5.27051 -0.28906,10.9219 -4.52148,14.3975 z"
     id="path877" />
  <path
     style="fill:currentColor"
     d="m 228.718,415.025 c 0.0279,0.007 0.0568,0.0104 0.0865,0.0104 h 31.8906 c 0.0648,0 0.12629,-0.0172 0.18,-0.0473 0.06,-0.0324 0.11173,-0.0812 0.14715,-0.14411 l 95.668,-170.078 c 0.0174,-0.031 0.0298,-0.0637 0.0374,-0.0971 0.007,-0.0279 0.0104,-0.0568 0.0104,-0.0865 0,-0.0648 -0.0172,-0.12628 -0.0473,-0.17999 -0.0324,-0.06 -0.0812,-0.11174 -0.14411,-0.14716 -0.031,-0.0174 -0.0637,-0.0298 -0.0971,-0.0374 -0.0279,-0.007 -0.0568,-0.0104 -0.0865,-0.0104 h -31.8867 c -0.0648,0 -0.12628,0.0172 -0.17999,0.0473 -0.06,0.0324 -0.11174,0.0812 -0.14716,0.14412 l -95.6719,170.078 c -0.0174,0.031 -0.0298,0.0637 -0.0374,0.0971 -0.007,0.0279 -0.0104,0.0568 -0.0104,0.0865 0,0.0648 0.0172,0.12628 0.0473,0.17999 0.0324,0.06 0.0812,0.11174 0.14411,0.14716 0.031,0.0174 0.0637,0.0298 0.0971,0.0374 z"
     id="path873" />
  <path
     style="fill:currentColor"
     d="m 338.273,372.141 c 0,2.7207 -1.07812,5.3291 -3.00391,7.25391 -1.92188,1.92676 -4.5293,3.00781 -7.25,3.00781 -2.7207,0 -5.33203,-1.08203 -7.25391,-3.00684 -1.92676,-1.92676 -3.00391,-4.5332 -3.00391,-7.25488 0,-2.7207 1.07812,-5.33301 3.00391,-7.25781 1.9209,-1.92188 4.5332,-3.00391 7.25391,-3.00391 2.72071,0 5.32812,1.08105 7.25,3.00391 1.92578,1.9248 3.00391,4.53711 3.00391,7.25781 z"
     id="path869" />
  <path
     style="fill:currentColor"
     d="m 356.738,372.141 c 0,-7.61914 -3.02344,-14.9248 -8.40918,-20.3154 -5.38379,-5.3877 -12.6904,-8.41504 -20.3096,-8.41504 -7.6192,0 -14.9248,3.02734 -20.3125,8.41504 -5.38672,5.39062 -8.41016,12.6963 -8.41016,20.3154 0,7.6191 3.02344,14.9248 8.41016,20.3135 5.38672,5.38574 12.6934,8.41309 20.3125,8.41309 7.6191,0 14.9258,-3.02734 20.3096,-8.41406 5.38574,-5.38672 8.40918,-12.6934 8.40918,-20.3125 z"
     id="path867" />
  <path
     style="fill:currentColor"
     d="m 267.406,287.102 c 0,2.7207 -1.07715,5.3291 -3,7.25488 -1.9248,1.9248 -4.5332,3.00684 -7.25391,3.00684 -2.72071,0 -5.33203,-1.08203 -7.25391,-3.00684 -1.92285,-1.92578 -3.00391,-4.53418 -3,-7.25391 -0.004,-2.72266 1.07715,-5.33301 3,-7.25977 1.9209,-1.9248 4.53223,-3.00293 7.25391,-3.00293 2.7207,0 5.3291,1.07812 7.25391,3.00391 1.92188,1.9248 3,4.53711 3,7.25781 z"
     id="path861" />
  <path
     style="fill:currentColor"
     d="m 285.875,287.102 c 0,-7.61914 -3.02344,-14.9248 -8.41016,-20.3164 -5.38672,-5.38672 -12.6934,-8.41406 -20.3125,-8.41406 -7.6191,0 -14.9248,3.02734 -20.3125,8.41504 -5.38672,5.39062 -8.41016,12.6963 -8.41016,20.3154 0,7.61523 3.02344,14.9248 8.41016,20.3125 5.38672,5.38672 12.6934,8.41406 20.3125,8.41406 7.6191,0 14.9258,-3.02734 20.3125,-8.41406 5.38672,-5.3877 8.41016,-12.6973 8.41016,-20.3125 z"
     id="path859" />
  <path
     style="fill:currentColor"
     d="m 108.707,287.477 h 6.71094 c 7.62109,0 13.8008,6.17578 13.8008,13.7969 0,0.2041 0.1709,0.375 0.375,0.375 h 28.3447 c 0.2041,0 0.375,-0.1709 0.375,-0.375 0,-23.6914 -19.2041,-42.8945 -42.8955,-42.8945 H 108.707 v -13.7969 c 0,-0.2041 -0.1709,-0.375 -0.375,-0.375 H 79.9882 c -0.204102,0 -0.375,0.1709 -0.375,0.375 v 13.7969 h -6.71484 c -23.6875,0 -42.8945,19.2031 -42.8945,42.8945 0,23.6914 19.207,42.8945 42.8945,42.8945 h 6.71484 v 27.5977 h -6.71484 c -3.6582,0 -7.16797,-1.45605 -9.75391,-4.04297 -2.59082,-2.58984 -4.04297,-6.0957 -4.04297,-9.75781 0,-0.2041 -0.170898,-0.375 -0.375,-0.375 h -28.3477 c -0.204102,0 -0.375,0.1709 -0.375,0.375 0,11.377 4.52051,22.2891 12.5664,30.3311 8.04297,8.04785 18.9551,12.5635 30.3281,12.5635 h 6.71484 v 13.8008 c 0,0.2041 0.170898,0.375 0.375,0.375 h 28.3438 c 0.2041,0 0.375,-0.1709 0.375,-0.375 v -13.8008 h 6.71094 c 23.6914,0 42.8955,-19.2031 42.8955,-42.8945 0,-23.6875 -19.2041,-42.8945 -42.8955,-42.8945 h -6.71094 v -27.5938 z"
     id="path853" />
  <path
     style="fill:currentColor"
     d="m 79.6133,287.477 v 27.5938 h -6.71484 c -7.61719,-0.004 -13.7891,-6.17969 -13.7891,-13.7969 0,-7.61721 6.17188,-13.793 13.7891,-13.7969 z"
     id="path849" />
  <path
     style="fill:currentColor"
     d="m 108.707,344.168 h 6.71094 c 7.62109,0.004 13.793,6.17969 13.793,13.7969 0,7.61721 -6.17188,13.7969 -13.793,13.8008 H 108.707 Z"
     id="path845" />
  <path
     style="fill:currentColor"
     d="m 419.876,88.416 c -0.0519,0.0529 -0.0889,0.1212 -0.10199,0.19835 l -4.72656,28.3438 c 0,0.019 -0.005,0.038 -0.005,0.0568 l -3e-5,0.005 c 0,0.10411 0.0445,0.19958 0.11512,0.26813 0.053,0.0519 0.1212,0.0889 0.19836,0.10198 0.019,0 0.038,0.005 0.0568,0.005 l 0.005,3e-5 h 27.9048 l -4.59771,27.5977 h -28.0298 c -0.10411,0 -0.19958,0.0445 -0.26813,0.11512 -0.0519,0.053 -0.0889,0.1212 -0.10199,0.19835 l -4.72266,28.3477 c 0,0.019 -0.005,0.038 -0.005,0.0568 l -3e-5,0.005 c 0,0.1041 0.0445,0.19957 0.11512,0.26813 0.053,0.0519 0.1212,0.0889 0.19836,0.10198 0.019,0 0.038,0.005 0.0567,0.005 l 0.005,3e-5 h 27.9009 l -7.01319,42.083 c 0,0.019 -0.005,0.038 -0.005,0.0567 l -3e-5,0.005 c 0,0.10411 0.0445,0.19958 0.11512,0.26813 0.053,0.0519 0.1212,0.0889 0.19835,0.10199 0.019,0 0.038,0.005 0.0568,0.005 l 0.005,3e-5 h 28.3477 c 0.1041,0 0.19957,-0.0445 0.26813,-0.11512 0.0519,-0.053 0.0889,-0.1212 0.10198,-0.19836 l 7.0337,-42.2061 h 27.5869 l -7.01706,42.083 c 0,0.019 -0.005,0.038 -0.005,0.0568 l -3e-5,0.005 c 0,0.10411 0.0445,0.19958 0.11512,0.26813 0.0529,0.0519 0.1212,0.0889 0.19836,0.10198 0.019,0 0.038,0.005 0.0567,0.005 l 0.005,3e-5 h 28.3477 c 0.10411,0 0.19958,-0.0445 0.26813,-0.11513 0.0519,-0.053 0.0889,-0.12119 0.10199,-0.19835 l 7.0337,-42.2061 h 28.0298 c 0.10411,0 0.19958,-0.0445 0.26813,-0.11512 0.0519,-0.0529 0.0889,-0.1212 0.10198,-0.19836 l 4.72266,-28.3477 c 0,-0.019 0.005,-0.038 0.005,-0.0568 l 3e-5,-0.005 c 0,-0.10411 -0.0445,-0.19958 -0.11512,-0.26813 -0.053,-0.0519 -0.1212,-0.0889 -0.19836,-0.10199 -0.019,0 -0.038,-0.005 -0.0568,-0.005 l -0.005,-3e-5 h -27.9009 l 4.59771,-27.5977 h 28.0298 c 0.10411,0 0.19958,-0.0445 0.26813,-0.11512 0.0519,-0.053 0.0889,-0.1212 0.10198,-0.19835 l 4.72266,-28.3438 c 0,-0.019 0.005,-0.038 0.005,-0.0568 l 3e-5,-0.005 c 0,-0.10411 -0.0445,-0.19958 -0.11512,-0.26813 -0.053,-0.0519 -0.1212,-0.0889 -0.19836,-0.10198 -0.019,0 -0.038,-0.005 -0.0568,-0.005 l -0.005,-3e-5 h -27.9009 l 7.01319,-42.083 c 0,-0.019 0.005,-0.038 0.005,-0.0567 l 3e-5,-0.005 c 0,-0.10411 -0.0445,-0.19958 -0.11512,-0.26813 -0.053,-0.0519 -0.1212,-0.0889 -0.19835,-0.10199 -0.019,0 -0.038,-0.005 -0.0568,-0.005 l -0.005,-3e-5 h -28.3477 c -0.10411,0 -0.19958,0.0445 -0.26813,0.11512 -0.0519,0.0529 -0.0889,0.1212 -0.10199,0.19836 l -7.0337,42.2061 h -27.5869 l 7.01319,-42.083 c 0,-0.019 0.005,-0.038 0.005,-0.0568 l 3e-5,-0.005 c 0,-0.10411 -0.0445,-0.19958 -0.11512,-0.26813 -0.053,-0.0519 -0.1212,-0.0889 -0.19836,-0.10199 -0.019,0 -0.038,-0.005 -0.0568,-0.005 l -0.005,-3e-5 h -28.3438 c -0.10411,0 -0.19958,0.0445 -0.26813,0.11512 -0.0519,0.053 -0.0889,0.1212 -0.10199,0.19836 l -7.0337,42.2061 h -28.0298 c -0.10411,0 -0.19958,0.0445 -0.26813,0.11512 z"
     id="path843" />
  <path
     style="fill:currentColor"
     d="m 472.431,117.395 h 27.5869 l -4.60151,27.5977 h -27.5869 z"
     id="path839" />
  <path
     style="fill:currentColor"
     d="m 111.88,45.781 -0.005,-4e-5 h -35.423403 -0.02096 c -0.204102,0.006 -0.370117,0.18164 -0.364258,0.38574 l 3.54688,127.559 c 0,0.0447 0.01073,0.0874 0.02684,0.12664 0.05583,0.13798 0.192315,0.23762 0.348158,0.23762 h 0.01074 28.322303 c 0.2041,0.006 0.37988,-0.16015 0.38574,-0.36426 l 3.54297,-127.559 c 0.006,-0.2041 -0.16016,-0.38574 -0.36426,-0.38574 z"
     id="path829" />
  <path
     style="fill:currentColor"
     d="m 79.6133,194.973 v 14.1758 c 0,1.97852 0.786133,3.875 2.18457,5.27246 1.39746,1.40332 3.29785,2.18848 5.27637,2.18848 h 14.1719 c 1.97852,0 3.87891,-0.78613 5.27734,-2.1875 1.39844,-1.39844 2.18359,-3.29492 2.18359,-5.27344 V 194.973 c 0,-1.97852 -0.78613,-3.875 -2.18359,-5.27246 -1.39844,-1.40332 -3.29883,-2.18848 -5.27734,-2.18848 h -14.1719 c -1.97754,0 -3.87891,0.78613 -5.27539,2.1875 -1.39941,1.39844 -2.18555,3.29492 -2.18555,5.27344 z"
     id="path825" />
</svg>
