<?xml version="1.0" encoding="UTF-8" standalone="no"?>
<svg
   xmlns:dc="http://purl.org/dc/elements/1.1/"
   xmlns:cc="http://creativecommons.org/ns#"
   xmlns:rdf="http://www.w3.org/1999/02/22-rdf-syntax-ns#"
   xmlns:svg="http://www.w3.org/2000/svg"
   xmlns="http://www.w3.org/2000/svg"
   xmlns:sodipodi="http://sodipodi.sourceforge.net/DTD/sodipodi-0.dtd"
   xmlns:inkscape="http://www.inkscape.org/namespaces/inkscape"
   version="1.1"
   viewBox="0 -158 1000 1000"
   id="svg6"
   sodipodi:docname="E_A4EPSCONB.svg"
   inkscape:version="0.92.3 (2405546, 2018-03-11)">
  <metadata
     id="metadata12">
    <rdf:RDF>
      <cc:Work
         rdf:about="">
        <dc:format>image/svg+xml</dc:format>
        <dc:type
           rdf:resource="http://purl.org/dc/dcmitype/StillImage" />
      </cc:Work>
    </rdf:RDF>
  </metadata>
  <defs
     id="defs10" />
  <sodipodi:namedview
     pagecolor="#ffffff"
     bordercolor="#666666"
     borderopacity="1"
     objecttolerance="10"
     gridtolerance="10"
     guidetolerance="10"
     inkscape:pageopacity="0"
     inkscape:pageshadow="2"
     inkscape:window-width="2560"
     inkscape:window-height="1377"
     id="namedview8"
     showgrid="false"
     inkscape:zoom="1.3350176"
     inkscape:cx="280.50175"
     inkscape:cy="408.2809"
     inkscape:window-x="2552"
     inkscape:window-y="-8"
     inkscape:window-maximized="1"
     inkscape:current-layer="svg6" />
  <path
     style="fill:currentColor"
     d="m 228.43,605.773 v 7.3125 c 0,0.2041 0.1709,0.375 0.375,0.375 h 7.48828 c 0.2041,0 0.375,-0.1709 0.375,-0.375 v -7.3125 c 0,-0.2041 -0.1709,-0.375 -0.375,-0.375 H 228.805 c -0.2041,0 -0.375,0.1709 -0.375,0.375 z"
     id="path923" />
  <path
     style="fill:currentColor"
     d="m 30.3789,613.461 h 14.1758 c 0.204102,0 0.375,-0.1709 0.375,-0.375 v -14.1758 c 0,-0.2041 -0.170898,-0.375 -0.375,-0.375 H 30.3789 c -0.204102,0 -0.375,0.1709 -0.375,0.375 v 14.1758 c 0,0.2041 0.170898,0.375 0.375,0.375 z"
     id="path921" />
  <path
     style="fill:currentColor"
     d="m 427.23,811.8828 h 14.1719 c 0.2041,0 0.375,-0.1709 0.375,-0.375 v -14.1719 c 0,-0.2041 -0.1709,-0.375 -0.375,-0.375 H 427.23 c -0.2041,0 -0.375,0.1709 -0.375,0.375 v 14.1719 c 0,0.2041 0.1709,0.375 0.375,0.375 z"
     id="path917" />
  <path
     style="fill:currentColor"
     d="m 228.805,811.8828 h 14.1758 c 0.2041,0 0.375,-0.1709 0.375,-0.375 v -14.1719 c 0,-0.2041 -0.1709,-0.375 -0.375,-0.375 H 228.805 c -0.2041,0 -0.375,0.1709 -0.375,0.375 v 14.1719 c 0,0.2041 0.1709,0.375 0.375,0.375 z"
     id="path913" />
  <path
     style="fill:currentColor"
     d="m 427.23,415.035 h 14.1719 c 0.2041,0 0.375,-0.1709 0.375,-0.375 v -14.1758 c 0,-0.2041 -0.1709,-0.375 -0.375,-0.375 H 427.23 c -0.2041,0 -0.375,0.1709 -0.375,0.375 V 414.66 c 0,0.2041 0.1709,0.375 0.375,0.375 z"
     id="path909" />
  <path
     style="fill:currentColor"
     d="m 228.805,415.035 h 14.1758 c 0.2041,0 0.375,-0.1709 0.375,-0.375 v -14.1758 c 0,-0.2041 -0.1709,-0.375 -0.375,-0.375 H 228.805 c -0.2041,0 -0.375,0.1709 -0.375,0.375 V 414.66 c 0,0.2041 0.1709,0.375 0.375,0.375 z"
     id="path905" />
  <path
     style="fill:currentColor"
     d="m 30.3789,415.035 h 14.1758 c 0.204102,0 0.375,-0.1709 0.375,-0.375 v -14.1758 c 0,-0.2041 -0.170898,-0.375 -0.375,-0.375 H 30.3789 c -0.204102,0 -0.375,0.1709 -0.375,0.375 V 414.66 c 0,0.2041 0.170898,0.375 0.375,0.375 z"
     id="path901" />
  <path
     style="fill:currentColor"
     d="m 228.805,216.609 h 14.1758 c 0.2041,0 0.375,-0.1709 0.375,-0.375 v -14.1709 c 0,-0.2041 -0.1709,-0.375 -0.375,-0.375 H 228.805 c -0.2041,0 -0.375,0.1709 -0.375,0.375 v 14.1709 c 0,0.2041 0.1709,0.375 0.375,0.375 z"
     id="path897" />
  <path
     style="fill:currentColor"
     d="m 30.3789,216.609 h 14.1758 c 0.204102,0 0.375,-0.1709 0.375,-0.375 v -14.1709 c 0,-0.2041 -0.170898,-0.375 -0.375,-0.375 H 30.3789 c -0.204102,0 -0.375,0.1709 -0.375,0.375 v 14.1709 c 0,0.2041 0.170898,0.375 0.375,0.375 z"
     id="path893" />
  <path
     style="fill:currentColor"
     d="m 427.144,641.065 c -0.0334,0.008 -0.0661,0.02 -0.0971,0.0374 -0.0629,0.0354 -0.11169,0.0872 -0.14411,0.14715 -0.0301,0.0537 -0.0473,0.11518 -0.0473,0.18 0,0.0297 0.004,0.0587 0.0104,0.0865 0.008,0.0334 0.02,0.0661 0.0374,0.0971 l 95.668,170.078 c 0.0354,0.0629 0.0872,0.11169 0.14715,0.14411 0.0537,0.0301 0.11518,0.0473 0.18,0.0473 h 31.8906 c 0.0297,0 0.0587,-0.004 0.0865,-0.0104 0.0334,-0.008 0.0661,-0.02 0.0971,-0.0374 0.0629,-0.0354 0.11169,-0.0872 0.14411,-0.14715 0.0301,-0.0537 0.0473,-0.11518 0.0473,-0.17999 0,-0.0297 -0.004,-0.0587 -0.0104,-0.0865 -0.008,-0.0333 -0.02,-0.066 -0.0374,-0.0971 l -95.668,-170.078 c -0.0354,-0.0629 -0.0872,-0.1117 -0.14716,-0.14412 -0.0537,-0.0301 -0.11517,-0.0473 -0.17999,-0.0473 h -31.8906 c -0.0297,0 -0.0587,0.004 -0.0865,0.0104 z"
     id="path889" />
  <path
     style="fill:currentColor"
     d="m 257.152,811.8828 h 70.8672 c 0.2041,0 0.375,-0.1709 0.375,-0.375 V 783.164 c 0,-0.2041 -0.1709,-0.375 -0.375,-0.375 H 285.8747 V 670.152 h 42.1445 c 0.2041,0 0.375,-0.1709 0.375,-0.375 v -28.3477 c 0,-0.2041 -0.1709,-0.375 -0.375,-0.375 H 257.152 c -0.2041,0 -0.375,0.1709 -0.375,0.375 v 170.078 c 0,0.2041 0.1709,0.375 0.375,0.375 z"
     id="path885" />
  <path
     style="fill:currentColor"
     d="m 132.762,744.1885 c -0.004,3.70215 -3.00781,6.70605 -6.71094,6.70605 -3.70703,0 -6.71094,-3.00391 -6.71094,-6.70605 v -57.4033 c 0,-1.77344 -1.4375,-3.21094 -3.21094,-3.21094 h -12.0469 c -1.77344,0 -3.21094,1.4375 -3.21094,3.21094 v 2.22774 c -8.72644,-3.33771 -18.545,-2.22395 -26.3115,3.01249 -7.91504,5.33887 -12.665,14.2637 -12.665,23.8145 v 28.3486 c 0,10.4326 5.66016,20.0459 14.7832,25.1084 9.05969,5.03025 20.1177,4.78879 28.945,-0.62205 11.0595,5.91759 24.4124,5.61608 35.1976,-0.80568 10.8486,-6.4541 17.4932,-18.1475 17.4932,-30.7676 v -60.2383 c 0,-19.7773 -16.0322,-35.8086 -35.8057,-35.8086 h -56.6943 c -19.7744,0 -35.8096,16.0312 -35.8096,35.8086 v 99.2148 c 0,9.49414 3.77344,18.6006 10.4883,25.3203 6.71582,6.71484 15.8223,10.4844 25.3213,10.4844 h 77.9521 c 0.2041,0 0.375,-0.1709 0.375,-0.375 V 790.25 c 0,-0.20411 -0.1709,-0.375 -0.375,-0.375 h -77.9521 c -7.62207,0 -13.7979,-6.17969 -13.7979,-13.7969 v -99.2148 c 0,-7.62109 6.17578,-13.7969 13.7979,-13.7969 h 53.1514 c 7.61719,0 13.7969,6.17578 13.7969,13.7969 v 67.3252 z"
     id="path881" />
  <path
     style="fill:currentColor"
     d="m 95.5781,750.8984 h -6.37891 c -2.92578,0 -5.29297,-2.37109 -5.29297,-5.29297 v -31.1836 c 0,-1.4043 0.558594,-2.75 1.55078,-3.74219 0.992186,-0.99219 2.33789,-1.55078 3.74219,-1.55078 h 6.37891 c 1.4043,0 2.75,0.55859 3.74219,1.55078 0.99219,0.99219 1.55078,2.33789 1.55078,3.74219 v 31.1836 c 0,2.92188 -2.37109,5.29297 -5.29297,5.29297 z"
     id="path877" />
  <path
     style="fill:currentColor"
     d="m 498.098,584.363 h -14.1758 c -1.97852,0 -3.875,0.78613 -5.27246,2.18457 -1.40332,1.39746 -2.18848,3.29785 -2.18848,5.27637 v 14.1719 c 0,1.98242 0.78613,3.87891 2.1875,5.27734 1.39844,1.39746 3.29492,2.1875 5.27344,2.1875 h 14.1758 c 4.12109,0 7.46094,-3.34375 7.46094,-7.46484 v -14.1719 c 0,-4.12109 -3.33984,-7.46094 -7.46094,-7.46094 z"
     id="path871" />
  <path
     style="fill:currentColor"
     d="m 476.461,556.391 v 14.1758 c 0,0.2041 0.1709,0.375 0.375,0.375 h 28.3477 c 0.2041,0 0.375,-0.1709 0.375,-0.375 V 556.391 c 0,-2.21973 1.09863,-4.29492 2.93066,-5.5459 0.005,-0.004 0.0104,-0.007 0.0154,-0.0111 l 24.8274,-16.9225 c 18.125,-12.3506 26.0752,-35.0713 19.6123,-56.0293 -6.46289,-20.9541 -25.8301,-35.2529 -47.7607,-35.2529 h -28.3477 c -27.6016,0 -49.9805,22.3789 -49.9805,49.9844 0,0.2041 0.1709,0.375 0.375,0.375 h 28.3477 c 0.20411,0 0.375,-0.1709 0.375,-0.375 0,-11.5352 9.34766,-20.8867 20.8828,-20.8867 h 28.3477 c 9.16309,0 17.2568,5.97461 19.958,14.7314 2.70117,8.75684 -0.62109,18.251 -8.19629,23.4121 l -24.8428,16.9336 c -9.78711,6.66699 -15.6416,17.7441 -15.6416,29.5869 z"
     id="path867" />
  <path
     style="fill:currentColor"
     d="m 30.3789,570.941 h 127.56 c 0.2041,0 0.375,-0.1709 0.375,-0.375 v -28.3477 c 0,-0.2041 -0.1709,-0.375 -0.375,-0.375 h -127.56 c -0.204102,0 -0.375,0.1709 -0.375,0.375 v 28.3477 c 0,0.2041 0.170898,0.375 0.375,0.375 z"
     id="path865" />
  <path
     style="fill:currentColor"
     d="m 30.0039,485.523 v 28.3477 c 0,0.2041 0.170898,0.375 0.375,0.375 h 127.56 c 0.2041,0 0.375,-0.1709 0.375,-0.375 V 485.523 c 0,-0.2041 -0.1709,-0.375 -0.375,-0.375 h -127.56 c -0.204102,0 -0.375,0.1709 -0.375,0.375 z"
     id="path859" />
  <path
     style="fill:currentColor"
     d="m 256.887,442.738 -20.043,20.0469 c -0.0718,0.0723 -0.10767,0.16895 -0.10767,0.26563 0,0.0967 0.0359,0.19335 0.10767,0.26562 l 64.7266,64.7266 -64.7266,64.7305 c -0.0718,0.0723 -0.10767,0.16895 -0.10767,0.26563 0,0.0967 0.0359,0.19335 0.10767,0.26562 l 20.043,20.0469 c 0.0723,0.0718 0.16894,0.10767 0.26562,0.10767 0.0967,0 0.19336,-0.0359 0.26563,-0.10767 l 85.0391,-85.043 c 0.0718,-0.0723 0.10767,-0.16894 0.10767,-0.26562 0,-0.0967 -0.0359,-0.19336 -0.10767,-0.26563 l -85.0391,-85.0391 c -0.0723,-0.0718 -0.16895,-0.10767 -0.26563,-0.10767 -0.0967,0 -0.19335,0.0359 -0.26562,0.10767 z"
     id="path855" />
  <path
     style="fill:currentColor"
     d="m 526.18,244.316 -85.043,85.0391 c -0.0718,0.0723 -0.10767,0.16895 -0.10767,0.26563 0,0.0967 0.0359,0.19335 0.10767,0.26562 l 85.043,85.0391 c 0.0723,0.0718 0.16894,0.10767 0.26562,0.10767 0.0967,0 0.19336,-0.0359 0.26563,-0.10767 l 20.043,-20.0469 c 0.0718,-0.0723 0.10767,-0.16894 0.10767,-0.26562 0,-0.0967 -0.0359,-0.19336 -0.10767,-0.26563 l -64.7305,-64.7266 64.7305,-64.7305 c 0.0718,-0.0723 0.10767,-0.16894 0.10767,-0.26562 0,-0.0967 -0.0359,-0.19336 -0.10767,-0.26563 l -20.043,-20.043 c -0.0723,-0.0718 -0.16895,-0.10767 -0.26563,-0.10767 -0.0967,0 -0.19335,0.0359 -0.26562,0.10767 z"
     id="path853" />
  <path
     style="fill:currentColor"
     d="m 273.159,405.786 c -0.55067,2.22006 -0.0474,4.57462 1.36199,6.37914 1.41504,1.80859 3.58203,2.87012 5.88184,2.87012 h 3.42188 c 1.16016,0 2.30371,-0.27148 3.33984,-0.79004 l 11.7852,-5.89062 c 1.94128,-0.97064 3.36048,-2.73653 3.89582,-4.83943 0,-0.008 0.007,-0.0171 0.007,-0.0258 l 9.15625,-36.6289 c 0.55468,-2.22461 0.0576,-4.58984 -1.35742,-6.40039 -1.41504,-1.80859 -3.58594,-2.87012 -5.88184,-2.87012 h -13.7383 c -3.42188,0 -6.4082,2.33203 -7.23926,5.65137 l -10.6289,42.5234 c 0,0.007 -0.005,0.0142 -0.005,0.0213 z"
     id="path849" />
  <path
     style="fill:currentColor"
     d="m 306.758,286.727 h -14.1719 c -4.12109,0 -7.46094,3.33984 -7.46094,7.46191 v 14.1709 c 0,4.12109 3.33984,7.46094 7.46094,7.46094 h 14.1719 c 1.97852,0 3.87793,-0.78516 5.27734,-2.18359 1.39844,-1.39941 2.18359,-3.29883 2.18359,-5.27734 v -14.1709 c 0,-4.12207 -3.33984,-7.46191 -7.46094,-7.46191 z"
     id="path843" />
  <path
     style="fill:currentColor"
     d="M 108.332,357.59 H 94.1601 c -4.12109,0 -7.46094,3.34375 -7.46094,7.46094 v 14.1758 c 0,4.12109 3.33984,7.46191 7.46094,7.46191 h 14.1719 c 1.97852,0 3.87793,-0.78613 5.27734,-2.18555 1.39746,-1.40234 2.18359,-3.29785 2.18359,-5.27637 v -14.1758 c 0,-1.97852 -0.78613,-3.875 -2.18359,-5.27246 -1.39844,-1.40332 -3.29883,-2.18848 -5.27734,-2.18848 z"
     id="path839" />
  <path
     style="fill:currentColor"
     d="M 108.332,286.727 H 94.1601 c -4.12109,0 -7.46094,3.33984 -7.46094,7.46191 v 14.1709 c 0,4.12109 3.33984,7.46094 7.46094,7.46094 h 14.1719 c 1.97852,0 3.87793,-0.78516 5.27734,-2.18359 1.39844,-1.39941 2.18359,-3.29883 2.18359,-5.27734 v -14.1709 c 0,-4.12207 -3.33984,-7.46191 -7.46094,-7.46191 z"
     id="path835" />
  <path
     style="fill:currentColor"
     d="m 555.117,45.976 c -0.0324,-0.06 -0.0812,-0.11173 -0.14411,-0.14715 -0.031,-0.0174 -0.0637,-0.0298 -0.0971,-0.0374 -0.0279,-0.007 -0.0568,-0.0104 -0.0865,-0.0104 h -31.8906 c -0.0648,0 -0.12629,0.0172 -0.18,0.0473 -0.06,0.0324 -0.11173,0.0812 -0.14715,0.14411 l -95.668,170.078 c -0.0174,0.031 -0.0298,0.0637 -0.0374,0.0971 -0.007,0.0279 -0.0104,0.0568 -0.0104,0.0865 0,0.0648 0.0172,0.12629 0.0473,0.18 0.0324,0.06 0.0812,0.11173 0.14411,0.14715 0.031,0.0174 0.0637,0.0298 0.0971,0.0374 0.0279,0.007 0.0568,0.0104 0.0865,0.0104 h 31.8906 c 0.0648,0 0.12629,-0.0172 0.18,-0.0473 0.06,-0.0324 0.11173,-0.0812 0.14715,-0.14411 l 95.668,-170.078 c 0.0174,-0.031 0.0298,-0.0637 0.0374,-0.0971 0.007,-0.0279 0.0104,-0.0568 0.0104,-0.0865 0,-0.0648 -0.0172,-0.12628 -0.0473,-0.17999 z"
     id="path833" />
  <path
     style="fill:currentColor"
     d="m 299.672,187.512 h -14.1719 c -1.98242,0 -3.87891,0.78613 -5.27734,2.1875 -1.39746,1.39844 -2.1875,3.29492 -2.1875,5.27344 v 14.1758 c 0,1.97852 0.79004,3.875 2.1875,5.27246 1.39844,1.40234 3.29492,2.18848 5.27734,2.18848 h 14.1719 c 4.12109,0 7.46094,-3.33887 7.46094,-7.46094 v -14.1758 c 0,-4.12109 -3.33984,-7.46094 -7.46094,-7.46094 z"
     id="path827" />
  <path
     style="fill:currentColor"
     d="m 30.3789,145.742 h 127.56 c 0.2041,0 0.375,-0.1709 0.375,-0.375 v -28.3477 c 0,-0.2041 -0.1709,-0.375 -0.375,-0.375 h -127.56 c -0.204102,0 -0.375,0.1709 -0.375,0.375 v 28.3477 c 0,0.2041 0.170898,0.375 0.375,0.375 z"
     id="path825" />
</svg>
