<?xml version="1.0" encoding="UTF-8" standalone="no"?>
<svg
   xmlns:dc="http://purl.org/dc/elements/1.1/"
   xmlns:cc="http://creativecommons.org/ns#"
   xmlns:rdf="http://www.w3.org/1999/02/22-rdf-syntax-ns#"
   xmlns:svg="http://www.w3.org/2000/svg"
   xmlns="http://www.w3.org/2000/svg"
   xmlns:sodipodi="http://sodipodi.sourceforge.net/DTD/sodipodi-0.dtd"
   xmlns:inkscape="http://www.inkscape.org/namespaces/inkscape"
   version="1.1"
   viewBox="0 -158 1000 1000"
   id="svg6"
   sodipodi:docname="F_A4EPSCONB.svg"
   inkscape:version="0.92.3 (2405546, 2018-03-11)">
  <metadata
     id="metadata12">
    <rdf:RDF>
      <cc:Work
         rdf:about="">
        <dc:format>image/svg+xml</dc:format>
        <dc:type
           rdf:resource="http://purl.org/dc/dcmitype/StillImage" />
      </cc:Work>
    </rdf:RDF>
  </metadata>
  <defs
     id="defs10" />
  <sodipodi:namedview
     pagecolor="#ffffff"
     bordercolor="#666666"
     borderopacity="1"
     objecttolerance="10"
     gridtolerance="10"
     guidetolerance="10"
     inkscape:pageopacity="0"
     inkscape:pageshadow="2"
     inkscape:window-width="2560"
     inkscape:window-height="1377"
     id="namedview8"
     showgrid="false"
     inkscape:zoom="0.944"
     inkscape:cx="619.72175"
     inkscape:cy="489.45846"
     inkscape:window-x="2552"
     inkscape:window-y="-8"
     inkscape:window-maximized="1"
     inkscape:current-layer="svg6" />
  <path
     style="fill:currentColor"
     d="m 30.3789,216.609 h 14.1758 c 0.204102,0 0.375,-0.1709 0.375,-0.375 v -14.1709 c 0,-0.2041 -0.170898,-0.375 -0.375,-0.375 H 30.3789 c -0.204102,0 -0.375,0.1709 -0.375,0.375 v 14.1709 c 0,0.2041 0.170898,0.375 0.375,0.375 z"
     id="path887" />
  <path
     style="fill:currentColor"
     d="m 273.378,782.7891 83.2299,-71.3438 c 0.0462,-0.0398 0.0804,-0.0891 0.10196,-0.14278 0.0186,-0.0441 0.0289,-0.0922 0.0289,-0.14238 v -41.3828 c 0,-0.2041 -0.1709,-0.375 -0.375,-0.375 h -127.559 c -0.2041,0 -0.375,0.1709 -0.375,0.375 v 28.3477 c 0,0.20411 0.1709,0.375 0.375,0.375 h 98.2005 l -98.4446,84.3789 c -0.0462,0.0398 -0.0804,0.0891 -0.10196,0.14279 -0.0186,0.0441 -0.0289,0.0922 -0.0289,0.14237 v 28.3438 c 0,0.2041 0.1709,0.375 0.375,0.375 h 127.559 c 0.2041,0 0.375,-0.1709 0.375,-0.375 v -28.3438 c 0,-0.2041 -0.1709,-0.375 -0.375,-0.375 h -82.9857 z"
     id="path881" />
  <path
     style="fill:currentColor"
     d="m 130.719,698.5 h 27.2193 c 0.2041,0 0.375,-0.1709 0.375,-0.375 v -28.3477 c 0,-0.2041 -0.1709,-0.375 -0.375,-0.375 h -45.4775 c -0.0765,0 -0.14833,0.024 -0.20825,0.0648 -0.0555,0.0365 -0.10179,0.0878 -0.13159,0.15105 l -25.046903,53.4313 -25.0459,-53.4313 c -0.0298,-0.0633 -0.07613,-0.11451 -0.131596,-0.15105 -0.05992,-0.0408 -0.131752,-0.0648 -0.208248,-0.0648 h -31.3096 c -0.02616,0 -0.05178,0.008 -0.07656,0.008 -0.02807,0.006 -0.0558,0.0145 -0.08262,0.027 -0.06328,0.0298 -0.114513,0.0761 -0.15105,0.13159 -0.04076,0.0599 -0.06477,0.13175 -0.06477,0.20825 0,0.0262 0.0081,0.0518 0.0081,0.0766 0.0056,0.0281 0.01454,0.0558 0.02702,0.0826 l 40.9683,87.3916 -8.21443,17.5166 c -2.27051,4.84863 -7.1377,7.94434 -12.4922,7.94434 h -19.9219 c -0.204102,0 -0.375,0.1709 -0.375,0.375 v 28.3438 c 0,0.2041 0.170898,0.375 0.375,0.375 h 19.9219 c 16.6377,0 31.7773,-9.61914 38.8398,-24.6885 z"
     id="path879" />
  <path
     style="fill:currentColor"
     d="m 30.3789,613.461 h 14.1758 c 0.204102,0 0.375,-0.1709 0.375,-0.375 v -14.1758 c 0,-0.2041 -0.170898,-0.375 -0.375,-0.375 H 30.3789 c -0.204102,0 -0.375,0.1709 -0.375,0.375 v 14.1758 c 0,0.2041 0.170898,0.375 0.375,0.375 z"
     id="path877" />
  <path
     style="fill:currentColor"
     d="m 228.805,415.035 h 17.7188 c 0.2041,0 0.375,-0.1709 0.375,-0.375 v -14.1758 c 0,-0.2041 -0.1709,-0.375 -0.375,-0.375 H 228.805 c -0.2041,0 -0.375,0.1709 -0.375,0.375 V 414.66 c 0,0.2041 0.1709,0.375 0.375,0.375 z"
     id="path873" />
  <path
     style="fill:currentColor"
     d="m 84.91,528.043 c -3.45697,5.26218 -5.29672,11.4191 -5.29672,17.7187 v 35.4336 c 0,1.74902 -1.42188,3.16797 -3.17188,3.16797 H 62.2695 c -0.204102,0 -0.375,0.1709 -0.375,0.375 v 28.3477 c 0,0.2041 0.170898,0.375 0.375,0.375 h 14.1719 c 8.56055,0 16.7656,-3.40332 22.8164,-9.45312 6.05078,-6.05078 9.44922,-14.2559 9.44922,-22.8125 v -35.4336 c 0,-1.75 1.41797,-3.16797 3.16797,-3.16797 h 14.1758 c 0.2041,0 0.375,-0.1709 0.375,-0.375 v -28.3477 c 0,-0.2041 -0.1709,-0.375 -0.375,-0.375 h -14.1758 c -1.75,0 -3.16797,-1.41797 -3.16797,-3.16797 v -35.4336 c 0,-8.55566 -3.39844,-16.7617 -9.44922,-22.8125 -6.05078,-6.0498 -14.2559,-9.45312 -22.8164,-9.45312 H 62.2695 c -0.204102,0 -0.375,0.1709 -0.375,0.375 v 28.3477 c 0,0.2041 0.170898,0.375 0.375,0.375 h 14.1719 c 1.75,0 3.17188,1.41992 3.17188,3.16797 v 35.4336 c 0,6.29959 1.83974,12.4565 5.29672,17.7149 z"
     id="path867" />
  <path
     style="fill:currentColor"
     d="m 301.832,329.621 c 3.45616,-5.26218 5.30066,-11.4191 5.30066,-17.7187 v -35.4336 c 0,-1.75 1.41797,-3.16797 3.16797,-3.16797 h 14.1758 c 0.2041,0 0.375,-0.1709 0.375,-0.375 v -28.3438 c 0,-0.2041 -0.1709,-0.375 -0.375,-0.375 h -14.1758 c -8.55664,0 -16.7617,3.39844 -22.8125,9.44922 -6.0498,6.05078 -9.45312,14.2559 -9.45312,22.8125 v 35.4336 c 0,1.75 -1.41797,3.16797 -3.16797,3.16797 h -14.1719 c -0.2041,0 -0.375,0.1709 -0.375,0.375 v 28.3477 c 0,0.2041 0.1709,0.375 0.375,0.375 h 14.1719 c 1.75,0 3.16797,1.41797 3.16797,3.16797 v 35.4336 c 0,8.55664 3.40332,16.7656 9.45312,22.8164 6.05078,6.05078 14.2559,9.44922 22.8125,9.44922 h 14.1758 c 0.2041,0 0.375,-0.1709 0.375,-0.375 v -28.3467 c 0,-0.2041 -0.1709,-0.375 -0.375,-0.375 h -14.1758 c -1.75,0 -3.16797,-1.41895 -3.16797,-3.16895 v -35.4336 c 0,-6.29959 -1.8445,-12.4565 -5.30066,-17.7149 z"
     id="path863" />
  <path
     style="fill:currentColor"
     d="m 335.371,124.374 c 0.005,-0.005 0.01,-0.01 0.0144,-0.0149 l 17.6848,-17.6887 c 0.005,-0.005 0.0104,-0.009 0.0155,-0.0145 0.14356,-0.14453 0.14356,-0.38672 0,-0.53125 l -60.2344,-60.2344 c -0.0723,-0.0718 -0.16894,-0.10767 -0.26562,-0.10767 -0.0967,0 -0.19336,0.0359 -0.26563,0.10767 l -60.2383,60.2344 c -0.0718,0.0723 -0.10766,0.16894 -0.10766,0.26562 0,0.0967 0.0359,0.19336 0.10766,0.26563 l 17.7188,17.7188 c 0.0723,0.0718 0.16895,0.10767 0.26563,0.10767 0.0967,0 0.19336,-0.0359 0.26562,-0.10767 l 42.2539,-42.2539 42.2539,42.2539 6.7e-4,1.8e-4 c 0.14458,0.14313 0.38644,-1.8e-4 0.53058,-1.8e-4 z"
     id="path859" />
  <path
     style="fill:currentColor"
     d="m 228.805,216.609 h 14.1758 c 0.2041,0 0.375,-0.1709 0.375,-0.375 v -14.1709 c 0,-0.2041 -0.1709,-0.375 -0.375,-0.375 H 228.805 c -0.2041,0 -0.375,0.1709 -0.375,0.375 v 14.1709 c 0,0.2041 0.1709,0.375 0.375,0.375 z"
     id="path857" />
  <path
     style="fill:currentColor"
     d="m 427.23,415.035 h 14.1719 c 0.2041,0 0.375,-0.1709 0.375,-0.375 v -14.1758 c 0,-0.2041 -0.1709,-0.375 -0.375,-0.375 H 427.23 c -0.2041,0 -0.375,0.1709 -0.375,0.375 V 414.66 c 0,0.2041 0.1709,0.375 0.375,0.375 z"
     id="path853" />
  <path
     style="fill:currentColor"
     d="m 228.805,613.461 h 14.1758 c 0.2041,0 0.375,-0.1709 0.375,-0.375 v -14.1758 c 0,-0.2041 -0.1709,-0.375 -0.375,-0.375 H 228.805 c -0.2041,0 -0.375,0.1709 -0.375,0.375 v 14.1758 c 0,0.2041 0.1709,0.375 0.375,0.375 z"
     id="path849" />
  <path
     style="fill:currentColor"
     d="m 356.167,542.331 c 0,-0.0145 -0.006,-0.029 -0.006,-0.0435 -2.2057,-13.2955 -10.5307,-24.7863 -22.4846,-31.0191 -11.9541,-6.23032 -26.1364,-6.48217 -38.3013,-0.67658 -0.006,0 -0.0114,0.008 -0.0171,0.008 l -18.0859,8.63574 c -0.005,0 -0.0103,0.008 -0.0153,0.008 -4.27131,2.03451 -9.28802,1.73938 -13.2914,-0.7871 -4.00879,-2.52832 -6.43848,-6.93262 -6.43848,-11.6709 l -2.4e-4,-0.0134 c 0,-0.0257 -0.004,-0.0517 -0.0105,-0.0775 -0.0225,-0.0896 -0.0771,-0.164 -0.1485,-0.21417 -0.0614,-0.0439 -0.13604,-0.07 -0.21576,-0.07 l -0.0133,2.4e-4 c -0.0257,0 -0.0517,0.004 -0.0775,0.0105 l -27.7773,6.94531 c -0.0814,0.0204 -0.1502,0.0674 -0.19974,0.12928 -0.0584,0.0726 -0.0904,0.16619 -0.0835,0.26319 0,0.0145 0.006,0.029 0.006,0.0435 2.2057,13.2955 10.5346,24.7863 22.4876,31.0181 11.9512,6.23132 26.1375,6.48315 38.2985,0.67847 0.006,0 0.0113,-0.008 0.0169,-0.008 l 18.0898,-8.63672 c 0.005,0 0.0103,-0.008 0.0153,-0.008 4.27131,-2.03451 9.28802,-1.73938 13.2914,0.78709 4.00488,2.52539 6.43848,6.93359 6.43848,11.6709 l 2.5e-4,0.0134 c 0,0.0257 0.004,0.0517 0.0105,0.0775 0.0225,0.0896 0.0771,0.16399 0.1485,0.21416 0.0614,0.0439 0.13604,0.07 0.21576,0.07 l 0.0134,-2.5e-4 c 0.0257,0 0.0517,-0.004 0.0775,-0.0105 l 27.7734,-6.94531 c 0.0813,-0.0204 0.15021,-0.0673 0.19974,-0.12927 0.0584,-0.0726 0.0904,-0.1662 0.0835,-0.2632 z"
     id="path843" />
  <path
     style="fill:currentColor"
     d="m 505.184,244.207 h -28.3477 c -0.2041,0 -0.375,0.1709 -0.375,0.375 V 414.66 c 0,0.2041 0.1709,0.375 0.375,0.375 h 28.3477 c 0.2041,0 0.375,-0.1709 0.375,-0.375 V 244.582 c 0,-0.2041 -0.1709,-0.375 -0.375,-0.375 z"
     id="path839" />
  <path
     style="fill:currentColor"
     d="m 30.3789,415.035 h 14.1758 c 0.204102,0 0.375,-0.1709 0.375,-0.375 v -14.1758 c 0,-0.2041 -0.170898,-0.375 -0.375,-0.375 H 30.3789 c -0.204102,0 -0.375,0.1709 -0.375,0.375 V 414.66 c 0,0.2041 0.170898,0.375 0.375,0.375 z"
     id="path837" />
  <path
     style="fill:currentColor"
     d="m 93.9691,287.423 c 0.05627,0.034 0.121765,0.0538 0.191092,0.0538 h 21.257798 c 0.0349,0 0.0689,-0.005 0.10122,-0.0143 0.006,0 0.0113,-0.005 0.0169,-0.005 0.0729,-0.0242 0.13357,-0.0697 0.17752,-0.12725 0.0495,-0.0636 0.0793,-0.14302 0.0793,-0.22822 0,-0.0349 -0.005,-0.0689 -0.0143,-0.10121 0,-0.006 -0.005,-0.0113 -0.005,-0.0169 l -14.1719,-42.5195 c -0.0242,-0.0729 -0.0697,-0.13357 -0.12726,-0.17752 -0.0636,-0.0495 -0.14302,-0.0793 -0.22821,-0.0793 H 72.898392 c -0.0349,0 -0.06883,0.005 -0.1011,0.0143 -0.02275,0.006 -0.04514,0.0148 -0.06687,0.0257 -0.06593,0.0328 -0.117991,0.0837 -0.153277,0.14387 -0.03404,0.0563 -0.05375,0.12177 -0.05375,0.19109 0,0.0349 0.005,0.0688 0.0143,0.1011 0.0063,0.0227 0.01481,0.0451 0.02574,0.0669 l 21.2617,42.5195 c 0.03279,0.0659 0.08366,0.11799 0.143869,0.15328 z"
     id="path833" />
  <path
     style="fill:currentColor"
     d="m 427.23,216.609 h 127.559 c 0.2041,0 0.375,-0.1709 0.375,-0.375 v -28.3477 c 0,-0.2041 -0.1709,-0.375 -0.375,-0.375 H 427.23 c -0.2041,0 -0.375,0.1709 -0.375,0.375 v 28.3477 c 0,0.2041 0.1709,0.375 0.375,0.375 z"
     id="path829" />
  <path
     style="fill:currentColor"
     d="m 58.7266,45.781 c -0.204102,0 -0.375,0.1709 -0.375,0.375 v 28.3438 c 0,0.2041 0.170898,0.375 0.375,0.375 h 42.1445 v 112.637 H 58.7266 c -0.204102,0 -0.375,0.1709 -0.375,0.375 v 28.3477 c 0,0.2041 0.170898,0.375 0.375,0.375 h 70.8672 c 0.2041,0 0.375,-0.1709 0.375,-0.375 V 46.1565 c 0,-0.2041 -0.1709,-0.375 -0.375,-0.375 H 58.7266 Z"
     id="path2" />
</svg>
