<?xml version="1.0" encoding="UTF-8" standalone="no"?>
<svg
   xmlns:dc="http://purl.org/dc/elements/1.1/"
   xmlns:cc="http://creativecommons.org/ns#"
   xmlns:rdf="http://www.w3.org/1999/02/22-rdf-syntax-ns#"
   xmlns:svg="http://www.w3.org/2000/svg"
   xmlns="http://www.w3.org/2000/svg"
   xmlns:sodipodi="http://sodipodi.sourceforge.net/DTD/sodipodi-0.dtd"
   xmlns:inkscape="http://www.inkscape.org/namespaces/inkscape"
   version="1.1"
   viewBox="0 -158 1000 1000"
   id="svg6"
   sodipodi:docname="G_A4EPSCONB.svg"
   inkscape:version="0.92.3 (2405546, 2018-03-11)">
  <metadata
     id="metadata12">
    <rdf:RDF>
      <cc:Work
         rdf:about="">
        <dc:format>image/svg+xml</dc:format>
        <dc:type
           rdf:resource="http://purl.org/dc/dcmitype/StillImage" />
      </cc:Work>
    </rdf:RDF>
  </metadata>
  <defs
     id="defs10" />
  <sodipodi:namedview
     pagecolor="#ffffff"
     bordercolor="#666666"
     borderopacity="1"
     objecttolerance="10"
     gridtolerance="10"
     guidetolerance="10"
     inkscape:pageopacity="0"
     inkscape:pageshadow="2"
     inkscape:window-width="2560"
     inkscape:window-height="1377"
     id="namedview8"
     showgrid="false"
     inkscape:zoom="1.3350176"
     inkscape:cx="412.78245"
     inkscape:cy="234.70378"
     inkscape:window-x="2552"
     inkscape:window-y="-8"
     inkscape:window-maximized="1"
     inkscape:current-layer="svg6" />
  <path
     style="fill:currentColor"
     d="m 228.43,322.531 v 49.6094 c 0,11.377 4.51953,22.2842 12.5635,30.332 8.0459,8.04297 18.9541,12.5625 30.3311,12.5625 h 42.5195 c 11.377,0 22.29,-4.51953 30.332,-12.5625 8.04688,-8.04688 12.5625,-18.9551 12.5625,-30.332 0,-0.2041 -0.1709,-0.375 -0.375,-0.375 h -28.3438 c -0.2041,0 -0.375,0.1709 -0.375,0.375 0,3.6582 -1.45605,7.16797 -4.04297,9.75391 -2.58984,2.59082 -6.0957,4.04395 -9.75781,4.04395 h -42.5195 c -7.62109,0 -13.7969,-6.17676 -13.7969,-13.7979 v -13.8008 h 98.8359 c 0.2041,0 0.375,-0.1709 0.375,-0.375 v -35.4336 c 0,-27.6016 -22.375,-49.9805 -49.9805,-49.9805 h -28.3477 c -27.6016,0 -49.9805,22.3789 -49.9805,49.9805 z"
     id="path895" />
  <path
     style="fill:currentColor"
     d="m 455.203,670.152 v 98.8359 c 0,23.6914 19.2031,42.8945 42.8945,42.8945 h 56.6914 c 0.2041,0 0.375,-0.1709 0.375,-0.375 v -28.3438 c 0,-0.2041 -0.1709,-0.375 -0.375,-0.375 h -56.6914 c -7.62109,0 -13.8008,-6.17969 -13.8008,-13.8008 v -127.559 c 0,-0.2041 -0.1709,-0.375 -0.375,-0.375 h -56.6914 c -0.2041,0 -0.375,0.1709 -0.375,0.375 v 28.3477 c 0,0.2041 0.1709,0.375 0.375,0.375 h 27.9727 z"
     id="path893" />
  <path
     style="fill:currentColor"
     d="m 426.855,159.539 c 0,31.5195 25.5508,57.0703 57.0664,57.0703 h 24.8047 c 17.9619,0 34.8779,-8.45801 45.6553,-22.8301 0.0499,-0.0661 0.0739,-0.14483 0.0739,-0.22314 0,-0.11476 -0.0516,-0.22872 -0.14915,-0.30127 l -22.6797,-17.0078 c -0.0661,-0.0499 -0.14483,-0.074 -0.22314,-0.074 -0.11475,0 -0.22871,0.0516 -0.30127,0.14915 -5.28125,7.04688 -13.5723,11.1895 -22.376,11.1895 h -24.8047 c -15.4453,0 -27.9688,-12.5234 -27.9688,-27.9727 v -28.3438 c 0,-15.4492 12.5234,-27.9727 27.9688,-27.9727 h 24.8047 c 8.80371,0 17.0947,4.14355 22.376,11.1904 0.0726,0.0975 0.18652,0.14915 0.30127,0.14915 0.0783,0 0.157,-0.024 0.22314,-0.074 l 22.6797,-17.0088 c 0.0975,-0.0726 0.14915,-0.18652 0.14915,-0.30128 0,-0.0783 -0.024,-0.15699 -0.0739,-0.22314 -10.7773,-14.3721 -27.6934,-22.8301 -45.6553,-22.8301 h -24.8047 c -31.5156,0 -57.0664,25.5508 -57.0664,57.0703 v 28.3438 z"
     id="path887" />
  <path
     style="fill:currentColor"
     d="m 257.527,515.778 v -72.7739 c 0,-0.2041 -0.1709,-0.375 -0.375,-0.375 h -28.3477 c -0.2041,0 -0.375,0.1709 -0.375,0.375 v 170.082 c 0,0.2041 0.1709,0.375 0.375,0.375 h 28.3477 c 0.2041,0 0.375,-0.1709 0.375,-0.375 v -56.6953 c 0,-7.62012 6.17578,-13.7969 13.7969,-13.7969 h 42.5195 c 7.62109,0 13.8008,6.17676 13.8008,13.7969 v 56.6953 c 0,0.2041 0.1709,0.375 0.375,0.375 h 28.3438 c 0.2041,0 0.375,-0.1709 0.375,-0.375 v -56.6953 c 0,-23.6875 -19.2031,-42.8945 -42.8945,-42.8945 H 271.324 c -4.69459,0 -9.35562,0.77192 -13.7969,2.28166 z"
     id="path883" />
  <path
     style="fill:currentColor"
     d="m 257.527,329.246 v -6.71484 c 0,-11.5312 9.35156,-20.8828 20.8828,-20.8828 h 28.3477 c 5.54102,0 10.8516,2.19922 14.7695,6.11719 3.91406,3.91699 6.11719,9.22852 6.11719,14.7656 v 6.71484 h -70.1172 z"
     id="path881" />
  <path
     style="fill:currentColor"
     d="m 476.461,514.246 v 56.3203 c 0,11.373 4.51953,22.2852 12.5625,30.3281 8.04688,8.0459 18.9551,12.5664 30.332,12.5664 h 35.4336 c 0.2041,0 0.375,-0.1709 0.375,-0.375 v -28.3477 c 0,-0.2041 -0.1709,-0.375 -0.375,-0.375 h -35.4336 c -3.6582,0 -7.16797,-1.45312 -9.75391,-4.04199 -2.59082,-2.58691 -4.04297,-6.09668 -4.04297,-9.75488 v -85.043 c 0,-0.2041 -0.1709,-0.375 -0.375,-0.375 h -77.9531 c -0.2041,0 -0.375,0.1709 -0.375,0.375 v 28.3477 c 0,0.2041 0.1709,0.375 0.375,0.375 h 49.2305 z"
     id="path877" />
  <path
     style="fill:currentColor"
     d="m 286.031,740.645 70.5977,-70.6016 c 0.037,-0.0373 0.0645,-0.0811 0.0824,-0.12798 0.0173,-0.0428 0.0269,-0.0893 0.0261,-0.13764 0,-0.0484 -0.01,-0.0949 -0.0261,-0.13764 -0.0179,-0.0469 -0.0454,-0.0907 -0.0824,-0.12799 -0.0373,-0.037 -0.0811,-0.0645 -0.12798,-0.0824 -0.0428,-0.0173 -0.0893,-0.0269 -0.13765,-0.0261 h -40.0859 c -0.0484,0 -0.0948,0.01 -0.13763,0.0261 -0.0469,0.0179 -0.0907,0.0454 -0.12799,0.0824 l -58.4844,58.4844 v -86.5664 c 0,-0.2041 -0.1709,-0.375 -0.375,-0.375 h -28.3477 c -0.2041,0 -0.375,0.1709 -0.375,0.375 v 170.078 c 0,0.2041 0.1709,0.375 0.375,0.375 h 28.3477 c 0.2041,0 0.375,-0.1709 0.375,-0.375 v -42.3633 l 7.92578,-7.92485 50.5586,50.5537 c 0.0373,0.037 0.0811,0.0645 0.12798,0.0824 0.0428,0.0173 0.0893,0.0269 0.13764,0.0261 h 40.0859 c 0.0484,0 0.0949,-0.01 0.13764,-0.0261 0.0469,-0.0179 0.0907,-0.0454 0.12799,-0.0824 0.037,-0.0373 0.0645,-0.0811 0.0824,-0.12798 0.0173,-0.0428 0.0269,-0.0893 0.0261,-0.13765 0,-0.0484 -0.01,-0.0948 -0.0261,-0.13763 -0.0179,-0.0469 -0.0454,-0.0907 -0.0824,-0.12799 z"
     id="path871" />
  <path
     style="fill:currentColor"
     d="m 122.883,740.645 v -27.9727 h 35.0557 c 0.2041,0 0.375,-0.1709 0.375,-0.375 v -28.3477 c 0,-0.2041 -0.1709,-0.375 -0.375,-0.375 H 94.1604 c -0.204102,0 -0.375,0.1709 -0.375,0.375 v 56.6953 c 0,23.2734 -18.8672,42.1445 -42.1445,42.1445 H 30.3792 c -0.204102,0 -0.375,0.1709 -0.375,0.375 v 28.3438 c 0,0.2041 0.170898,0.375 0.375,0.375 h 21.2617 c 39.3438,0 71.2422,-31.8945 71.2422,-71.2383 z"
     id="path867" />
  <path
     style="fill:currentColor"
     d="m 93.7852,662.691 c 0,4.12109 3.33984,7.46094 7.46094,7.46094 h 14.1719 c 4.12109,0 7.46484,-3.33984 7.46484,-7.46094 v -14.1758 c 0,-1.97852 -0.79004,-3.875 -2.1875,-5.27246 -1.39844,-1.40234 -3.29492,-2.18848 -5.27734,-2.18848 h -14.1719 c -1.97852,0 -3.875,0.78613 -5.27734,2.1875 -1.39844,1.39844 -2.18359,3.29492 -2.18359,5.27344 v 14.1758 z"
     id="path865" />
  <path
     style="fill:currentColor"
     d="m 476.461,464.266 c 0,1.97852 0.78613,3.87891 2.1875,5.27734 1.39844,1.39844 3.29492,2.18359 5.27344,2.18359 h 14.1758 c 1.97852,0 3.87402,-0.78516 5.27637,-2.18359 1.40039,-1.39941 2.18457,-3.29883 2.18457,-5.27734 v -14.1719 c 0,-1.98242 -0.78418,-3.87793 -2.18457,-5.27734 -1.40137,-1.39746 -3.29785,-2.1875 -5.27637,-2.1875 h -14.1758 c -1.97852,0 -3.875,0.79004 -5.27246,2.1875 -1.40234,1.39844 -2.18848,3.29492 -2.18848,5.27734 z"
     id="path861" />
  <path
     style="fill:currentColor"
     d="m 129.219,480.344 c -4.44488,-1.50977 -9.10605,-2.28083 -13.8008,-2.28083 H 72.8987 c -23.6836,0.0107 -42.8789,19.21 -42.8789,42.8936 0,23.6836 19.1953,42.8867 42.8789,42.8945 h 42.5195 c 4.69379,0 9.35584,-0.76834 13.8008,-2.27791 v 8.99276 c 0,3.6582 -1.45312,7.16797 -4.04199,9.75391 -2.58691,2.59082 -6.09668,4.04297 -9.75879,4.04297 h -42.5195 c -3.6582,0 -7.16797,-1.45312 -9.75391,-4.04199 -2.59082,-2.58691 -4.04297,-6.09668 -4.04297,-9.75488 0,-0.2041 -0.170898,-0.375 -0.375,-0.375 h -28.3477 c -0.204102,0 -0.375,0.1709 -0.375,0.375 0,11.373 4.52051,22.2852 12.5664,30.3271 8.04297,8.04785 18.9551,12.5674 30.3281,12.5674 h 42.5195 c 11.377,0 22.2891,-4.52051 30.3311,-12.5664 8.04785,-8.04297 12.5645,-18.9551 12.5645,-30.3281 v -99.2148 c 0,-0.2041 -0.1709,-0.375 -0.375,-0.375 h -28.3447 c -0.2041,0 -0.375,0.1709 -0.375,0.375 v 8.99274 z"
     id="path855" />
  <path
     style="fill:currentColor"
     d="M 115.418,534.758 H 72.8985 c -7.61719,0 -13.7969,-6.17969 -13.7969,-13.8008 0,-7.62111 6.17969,-13.7969 13.7969,-13.7969 h 42.5195 c 7.62109,0 13.8008,6.17578 13.8008,13.7969 0,7.62112 -6.17969,13.8008 -13.8008,13.8008 z"
     id="path853" />
  <path
     style="fill:currentColor"
     d="m 129.594,415.035 h 28.3447 c 0.2041,0 0.375,-0.1709 0.375,-0.375 V 244.582 c 0,-0.2041 -0.1709,-0.375 -0.375,-0.375 H 129.594 c -0.2041,0 -0.375,0.1709 -0.375,0.375 v 67.9739 c -6.54817,-3.00868 -13.6716,-4.57157 -20.8867,-4.57157 H 79.9885 c -27.6055,0 -49.9844,22.3789 -49.9844,49.9805 0,27.6055 22.3789,49.9844 49.9844,49.9844 h 28.3438 c 7.21475,0 14.3379,-1.56182 20.8867,-4.57469 v 11.2856 c 0,0.2041 0.1709,0.375 0.375,0.375 z"
     id="path849" />
  <path
     style="fill:currentColor"
     d="M 108.332,378.852 H 79.9882 c -11.5312,-0.004 -20.8789,-9.35547 -20.8789,-20.8867 0,-11.53123 9.34766,-20.8789 20.8789,-20.8828 h 28.3438 c 11.5312,0.004 20.8789,9.35156 20.8789,20.8828 0,11.53124 -9.34766,20.8828 -20.8789,20.8867 z"
     id="path843" />
  <path
     style="fill:currentColor"
     d="m 158.313,216.234 v -77.9531 c 0,-39.3438 -31.8955,-71.2422 -71.2393,-71.2422 H 44.5542 c -0.204102,0 -0.375,0.1709 -0.375,0.375 v 28.3477 c 0,0.2041 0.170898,0.375 0.375,0.375 h 42.5195 c 11.7088,0 22.8785,4.87248 30.8416,13.4219 H 79.9878 c -27.6055,0 -49.9844,22.3789 -49.9844,49.9805 0,27.6064 22.3789,49.9844 49.9844,49.9844 h 28.3438 c 7.21475,0 14.3379,-1.56275 20.8867,-4.57476 v 11.2857 c 0,0.2041 0.1709,0.375 0.375,0.375 h 28.3447 c 0.2041,0 0.375,-0.1709 0.375,-0.375 z"
     id="path839" />
  <path
     style="fill:currentColor"
     d="m 257.527,216.234 v -11.2857 c 6.54887,3.01202 13.6728,4.57476 20.8828,4.57476 h 28.3477 c 27.6055,0 49.9805,-22.3779 49.9805,-49.9844 0,-27.6016 -22.375,-49.9805 -49.9805,-49.9805 h -28.3477 c -7.21,0 -14.3339,1.56275 -20.8828,4.57476 v -67.9771 c 0,-0.2041 -0.1709,-0.375 -0.375,-0.375 h -28.3477 c -0.2041,0 -0.375,0.1709 -0.375,0.375 v 170.078 c 0,0.2041 0.1709,0.375 0.375,0.375 h 28.3477 c 0.2041,0 0.375,-0.1709 0.375,-0.375 z"
     id="path835" />
  <path
     style="fill:currentColor"
     d="M 108.332,180.426 H 79.9882 c -11.5312,-0.004 -20.8789,-9.35547 -20.8789,-20.8867 0,-11.53123 9.34766,-20.8789 20.8789,-20.8828 h 28.3438 c 11.5312,0.004 20.8789,9.35156 20.8789,20.8828 0,11.53124 -9.34766,20.8828 -20.8789,20.8867 z"
     id="path833" />
  <path
     style="fill:currentColor"
     d="m 278.41,180.426 c -11.5312,-0.004 -20.875,-9.35547 -20.875,-20.8867 0,-11.53123 9.34375,-20.8789 20.875,-20.8828 h 28.3477 c 11.5312,0.004 20.8789,9.35156 20.8789,20.8828 0,11.53124 -9.34766,20.8828 -20.8789,20.8867 z"
     id="path829" />
  <path
     style="fill:currentColor"
     d="m 462.289,329.996 v 84.6641 c 0,0.2041 0.1709,0.375 0.375,0.375 h 28.3477 c 0.2041,0 0.375,-0.1709 0.375,-0.375 V 329.996 h 63.4023 c 0.2041,0 0.375,-0.1709 0.375,-0.375 v -28.3477 c 0,-0.2041 -0.1709,-0.375 -0.375,-0.375 h -63.4023 v -13.7969 c 0,-3.66211 1.45312,-7.17285 4.03906,-9.75781 2.58887,-2.58594 6.09961,-4.04297 9.75781,-4.04297 h 49.6055 c 0.2041,0 0.375,-0.1709 0.375,-0.375 v -28.3438 c 0,-0.2041 -0.1709,-0.375 -0.375,-0.375 h -49.6055 c -11.377,0 -22.2891,4.51562 -30.332,12.5625 -8.04297,8.04297 -12.5625,18.9551 -12.5625,30.332 v 13.7969 h -35.0586 c -0.2041,0 -0.375,0.1709 -0.375,0.375 v 28.3477 c 0,0.2041 0.1709,0.375 0.375,0.375 h 35.0586 z"
     id="path2" />
</svg>
