<?xml version="1.0" encoding="UTF-8" standalone="no"?>
<svg
   xmlns:dc="http://purl.org/dc/elements/1.1/"
   xmlns:cc="http://creativecommons.org/ns#"
   xmlns:rdf="http://www.w3.org/1999/02/22-rdf-syntax-ns#"
   xmlns:svg="http://www.w3.org/2000/svg"
   xmlns="http://www.w3.org/2000/svg"
   xmlns:sodipodi="http://sodipodi.sourceforge.net/DTD/sodipodi-0.dtd"
   xmlns:inkscape="http://www.inkscape.org/namespaces/inkscape"
   version="1.1"
   viewBox="0 -158 1000 1000"
   id="svg6"
   sodipodi:docname="I_A4EPSCONB.svg"
   inkscape:version="0.92.3 (2405546, 2018-03-11)">
  <metadata
     id="metadata12">
    <rdf:RDF>
      <cc:Work
         rdf:about="">
        <dc:format>image/svg+xml</dc:format>
        <dc:type
           rdf:resource="http://purl.org/dc/dcmitype/StillImage" />
      </cc:Work>
    </rdf:RDF>
  </metadata>
  <defs
     id="defs10" />
  <sodipodi:namedview
     pagecolor="#ffffff"
     bordercolor="#666666"
     borderopacity="1"
     objecttolerance="10"
     gridtolerance="10"
     guidetolerance="10"
     inkscape:pageopacity="0"
     inkscape:pageshadow="2"
     inkscape:window-width="2560"
     inkscape:window-height="1377"
     id="namedview8"
     showgrid="false"
     inkscape:zoom="0.944"
     inkscape:cx="-36.775774"
     inkscape:cy="461.59604"
     inkscape:window-x="2552"
     inkscape:window-y="-8"
     inkscape:window-maximized="1"
     inkscape:current-layer="svg6" />
  <path
     style="fill:currentColor"
     d="m 505.184,442.629 h -28.3477 c -27.5977,0.0117 -49.9648,22.3867 -49.9648,49.9844 0,27.5977 22.3672,49.9727 49.9648,49.9805 h 28.3477 c 6.85589,0 13.6333,-1.41243 19.9151,-4.14027 -4.99567,26.5883 -28.2266,45.9098 -55.3487,45.9098 h -28.3477 c -0.2041,0 -0.375,0.1709 -0.375,0.375 v 28.3477 c 0,0.2041 0.1709,0.375 0.375,0.375 h 28.3477 c 47.1719,0 85.4141,-38.2422 85.4141,-85.418 v -35.4297 c 0,-27.6055 -22.375,-49.9844 -49.9805,-49.9844 z"
     id="path895" />
  <path
     style="fill:currentColor"
     d="m 463.452,782.7891 91.6283,-112.775 c 0.0277,-0.034 0.0483,-0.0718 0.062,-0.11151 0.0142,-0.0392 0.022,-0.0813 0.022,-0.12482 v -28.3477 c 0,-0.2041 -0.17089,-0.375 -0.375,-0.375 h -127.559 c -0.2041,0 -0.375,0.1709 -0.375,0.375 v 28.3477 c 0,0.2041 0.1709,0.375 0.375,0.375 h 91.3373 l -91.62832,112.775 c -0.0277,0.034 -0.0483,0.0718 -0.062,0.11152 -0.0142,0.0392 -0.022,0.0812 -0.022,0.12481 v 28.3438 c 0,0.2041 0.1709,0.375 0.375,0.375 h 127.559 c 0.2041,0 0.375,-0.1709 0.375,-0.375 v -28.3438 c 0,-0.2041 -0.1709,-0.375 -0.375,-0.375 z"
     id="path891" />
  <path
     style="fill:currentColor"
     d="m 79.6133,729.72 v 81.7882 c 0,0.2041 0.170898,0.375 0.375,0.375 h 28.3438 c 0.2041,0 0.375,-0.1709 0.375,-0.375 V 729.72 l 49.5586,-88.1063 c 0.0174,-0.031 0.0298,-0.0637 0.0374,-0.0971 0.007,-0.0279 0.0104,-0.0568 0.0104,-0.0865 0,-0.0648 -0.0172,-0.12629 -0.0473,-0.18 -0.0324,-0.06 -0.0812,-0.11173 -0.14411,-0.14715 -0.031,-0.0174 -0.0637,-0.0298 -0.0971,-0.0374 -0.0279,-0.007 -0.0568,-0.0104 -0.0865,-0.0104 h -31.8877 c -0.0648,0 -0.12628,0.0172 -0.17999,0.0473 -0.06,0.0324 -0.11174,0.0812 -0.14716,0.14411 l -31.563498,56.1137 -31.5635,-56.1137 c -0.03542,-0.0629 -0.08718,-0.11169 -0.147154,-0.14411 -0.05371,-0.0301 -0.115177,-0.0473 -0.179994,-0.0473 h -31.8906 c -0.02968,0 -0.05866,0.004 -0.08652,0.0104 -0.03336,0.008 -0.06605,0.02 -0.09708,0.0374 -0.06293,0.0354 -0.111691,0.0872 -0.144111,0.14715 -0.03006,0.0537 -0.0473,0.11518 -0.0473,0.18 0,0.0297 0.0036,0.0587 0.01042,0.0865 0.0077,0.0334 0.02004,0.0661 0.03743,0.0971 z"
     id="path887" />
  <path
     style="fill:currentColor"
     d="m 505.184,513.496 h -28.3477 c -11.5312,-0.004 -20.875,-9.35156 -20.875,-20.8828 0,-11.53124 9.34375,-20.8828 20.875,-20.8867 h 28.3477 c 11.5312,0.004 20.875,9.35547 20.875,20.8867 0,11.53123 -9.34375,20.8789 -20.875,20.8828 z"
     id="path885" />
  <path
     style="fill:currentColor"
     d="m 90.6091,613.407 c 0.06021,-0.0353 0.111079,-0.0873 0.14387,-0.15328 l 67.5205,-135.043 c 0.0109,-0.0217 0.0195,-0.0441 0.0257,-0.0669 0.009,-0.0323 0.0143,-0.0662 0.0143,-0.10111 v -35.0391 c 0,-0.2041 -0.1709,-0.375 -0.375,-0.375 H 30.378509 c -0.204102,0 -0.375,0.1709 -0.375,0.375 v 28.3477 c 0,0.20411 0.170898,0.375 0.375,0.375 h 98.608401 l -70.595701,141.191 c -0.01092,0.0217 -0.01947,0.0441 -0.02574,0.0669 -0.0093,0.0323 -0.0143,0.0662 -0.0143,0.1011 0,0.0693 0.01972,0.13482 0.05375,0.19109 0.03529,0.0602 0.08734,0.11108 0.153277,0.14387 0.02173,0.0109 0.04412,0.0195 0.06686,0.0257 0.03227,0.009 0.0662,0.0143 0.101103,0.0143 h 31.6914 c 0.06933,0 0.134822,-0.0197 0.191091,-0.0538 z"
     id="path881" />
  <path
     style="fill:currentColor"
     d="m 461.354,305.55 c 9.29213,-19.6603 29.1078,-32.249 50.9154,-32.249 h 28.3477 c 0.2041,0 0.375,-0.1709 0.375,-0.375 v -28.3438 c 0,-0.2041 -0.1709,-0.375 -0.375,-0.375 h -28.3477 c -47.1719,0 -85.4141,38.2383 -85.4141,85.4141 v 28.3438 c 0,31.5195 25.5508,57.0703 57.0664,57.0703 h 14.1758 c 30.2242,-0.007 54.9574,-23.5097 56.9281,-53.2385 0.084,-0.0693 0.13831,-0.17381 0.13831,-0.28889 v -3.54297 c 0,-0.0316 -0.004,-0.0624 -0.0118,-0.0919 -0.0496,-31.4695 -25.5736,-56.9667 -57.0546,-56.9745 h -14.1758 c -7.76386,0 -15.4415,1.58433 -22.5678,4.65134 z"
     id="path877" />
  <path
     style="fill:currentColor"
     d="m 498.098,329.996 c 15.4453,0.004 27.9658,12.5244 27.9658,27.9688 0,15.4453 -12.5205,27.9688 -27.9658,27.9736 h -14.1758 c -15.4453,-0.005 -27.9648,-12.5283 -27.9648,-27.9736 0,-15.4443 12.5195,-27.9648 27.9648,-27.9688 z"
     id="path871" />
  <path
     style="fill:currentColor"
     d="m 278.41,415.035 h 21.2617 c 31.5117,-0.008 57.0547,-25.5547 57.0547,-57.0703 0,-31.5117 -25.543,-57.0586 -57.0547,-57.0664 H 275.242 v -27.5977 h 63.4062 c 0.2041,0 0.375,-0.1709 0.375,-0.375 v -28.3438 c 0,-0.2041 -0.1709,-0.375 -0.375,-0.375 h -92.125 c -0.2041,0 -0.375,0.1709 -0.375,0.375 v 85.0391 c 0,0.2041 0.1709,0.375 0.375,0.375 h 53.1484 c 15.4453,0.004 27.9648,12.5244 27.9648,27.9688 0,15.4453 -12.5195,27.9688 -27.9648,27.9736 h -21.2617 c -9.47461,0 -18.3018,-4.7959 -23.4629,-12.7441 -0.0622,-0.096 -0.16334,-0.15391 -0.27032,-0.16694 -0.0514,-0.006 -0.10439,-0.002 -0.15534,0.0133 -0.0229,0.007 -0.0453,0.0162 -0.0669,0.0278 l -25.4152,12.7057 -0.008,0.004 c -0.006,0 -0.0124,0.01 -0.0185,0.01 -0.0347,0.0199 -0.0651,0.0449 -0.0907,0.0736 -0.0917,0.1025 -0.12319,0.25264 -0.0729,0.38515 0.007,0.0181 0.0151,0.0358 0.0249,0.053 10.1641,17.7686 29.0654,28.7354 49.5361,28.7354 z"
     id="path867" />
  <path
     style="fill:currentColor"
     d="m 277.567,187.512 54.9731,-40.7217 c 0.009,-0.007 0.0182,-0.0142 0.0267,-0.0218 18.5044,-15.3525 25.4043,-40.6614 17.2429,-63.2819 -8.15918,-22.626 -29.6279,-37.7051 -53.6807,-37.7051 h -7.08594 c -31.5195,0 -57.0703,25.5508 -57.0703,57.0664 0,0.2041 0.1709,0.375 0.375,0.375 h 28.3477 c 0.20411,0 0.375,-0.1709 0.375,-0.375 0,-15.4492 12.5234,-27.9727 27.9727,-27.9727 h 7.08594 c 11.6719,0 22.1172,7.25 26.2031,18.1855 4.07972,10.9294 0.95179,23.241 -7.85224,30.8972 l -85.8987,63.6272 c -0.0551,0.041 -0.0957,0.0952 -0.1207,0.15529 -0.0197,0.0452 -0.0307,0.0948 -0.0307,0.14646 v 28.3477 c 0,0.20411 0.17089,0.375 0.375,0.375 h 127.559 c 0.2041,0 0.375,-0.17089 0.375,-0.375 v -28.3477 c 0,-0.2041 -0.1709,-0.375 -0.375,-0.375 h -78.7964 z"
     id="path863" />
  <path
     style="fill:currentColor"
     d="m 452.881,174.643 -25.4154,12.7097 -0.008,0.004 c -0.006,0 -0.0124,0.01 -0.0185,0.01 -0.0347,0.0199 -0.0651,0.0449 -0.0907,0.0736 -0.0917,0.10251 -0.12319,0.25265 -0.0729,0.38515 0.007,0.0181 0.0151,0.0358 0.0249,0.053 10.1641,17.7686 29.0654,28.7314 49.5361,28.7314 h 21.2617 c 29.0225,0 53.4209,-21.7842 56.7012,-50.6221 3.25384,-28.614 -15.3155,-55.1291 -43.2335,-61.9042 l 29.3175,-29.3175 c 0.037,-0.0373 0.0645,-0.0811 0.0824,-0.12798 0.0173,-0.0428 0.0269,-0.0893 0.0261,-0.13765 l 8.6e-4,-28.3438 c 0,-0.2041 -0.1709,-0.375 -0.375,-0.375 h -85.0391 c -0.2041,0 -0.375,0.1709 -0.375,0.375 v 28.3438 c 0,0.20411 0.1709,0.375 0.375,0.375 h 48.6992 l -27.707,27.707 c -0.037,0.0373 -0.0645,0.0811 -0.0824,0.12799 -0.0174,0.0428 -0.0269,0.0893 -0.0261,0.13764 l -8.6e-4,28.3477 c 0,0.2041 0.1709,0.375 0.375,0.375 h 21.2617 c 15.4453,0.004 27.9658,12.5234 27.9658,27.9688 0,15.4492 -12.5205,27.9688 -27.9658,27.9727 h -21.2617 c -9.47461,0 -18.3057,-4.79492 -23.4629,-12.7432 -0.0305,-0.0468 -0.0704,-0.0846 -0.11576,-0.11257 -0.0956,-0.0591 -0.21629,-0.075 -0.32578,-0.0358 -0.0173,0.006 -0.0343,0.0136 -0.0508,0.0225 z"
     id="path859" />
  <path
     style="fill:currentColor"
     d="m 100.871,299.372 v 58.2177 H 64.4857 Z"
     id="path855" />
  <path
     style="fill:currentColor"
     d="m 100.871,386.688 v 27.9717 c 0,0.2041 0.1709,0.375 0.375,0.375 h 28.3477 c 0.2041,0 0.375,-0.1709 0.375,-0.375 V 386.688 h 27.9697 c 0.2041,0 0.375,-0.1709 0.375,-0.375 v -28.3486 c 0,-0.2041 -0.1709,-0.375 -0.375,-0.375 h -27.9697 v -113.008 c 0,-0.2041 -0.1709,-0.375 -0.375,-0.375 H 101.246 c -0.06,0 -0.11712,0.0148 -0.16788,0.0408 -0.0602,0.0295 -0.11294,0.0751 -0.15048,0.13498 l -70.8672,113.383 c -0.02005,0.0325 -0.03449,0.067 -0.04359,0.10256 -0.0085,0.0309 -0.01305,0.0634 -0.01305,0.0967 V 386.313 c 0,0.2041 0.170898,0.375 0.375,0.375 z"
     id="path851" />
  <path
     style="fill:currentColor"
     d="m 228.43,705.211 v 42.5195 c 0,35.4297 28.7227,64.1523 64.1562,64.1523 35.4297,0 64.1523,-28.7227 64.1523,-64.1523 V 705.211 c 0,-35.4336 -28.7227,-64.1562 -64.1523,-64.1562 -35.4336,0 -64.1562,28.7227 -64.1562,64.1562 z"
     id="path847" />
  <path
     style="fill:currentColor"
     d="m 327.645,705.211 v 42.5195 c 0,19.3633 -15.6992,35.0586 -35.0586,35.0586 -19.3633,0 -35.0586,-15.6953 -35.0586,-35.0586 V 705.211 c 0,-19.3633 15.6953,-35.0586 35.0586,-35.0586 19.3594,0 35.0586,15.6953 35.0586,35.0586 z"
     id="path845" />
  <path
     style="fill:currentColor"
     d="m 285.5,506.41 c -9.57812,-0.004 -17.3359,-7.76562 -17.3359,-17.3398 0,-9.57812 7.75781,-17.3398 17.3359,-17.3438 h 14.1719 c 9.57422,0.004 17.3359,7.76562 17.3359,17.3438 0,9.57422 -7.76172,17.3359 -17.3359,17.3398 z"
     id="path841" />
  <path
     style="fill:currentColor"
     d="m 281.957,535.508 h 21.2578 c 13.4922,0 24.4297,10.9336 24.4297,24.4258 0,13.4922 -10.9375,24.4297 -24.4297,24.4297 H 281.957 c -13.4922,0 -24.4297,-10.9375 -24.4297,-24.4297 0,-13.4922 10.9375,-24.4258 24.4297,-24.4258 z"
     id="path837" />
  <path
     style="fill:currentColor"
     d="m 281.957,613.461 h 21.2578 c 22.9102,0 43.2842,-14.583 50.668,-36.2734 7.34191,-21.5674 0.22911,-45.4062 -17.7013,-59.4191 10.9386,-13.9146 13.0194,-32.8515 5.33996,-48.8251 -7.73438,-16.083 -24.002,-26.3145 -41.8496,-26.3145 h -14.1719 c -17.8516,0 -34.1191,10.2314 -41.8535,26.3145 -7.67845,15.9736 -5.59478,34.9104 5.34386,48.8251 -17.9304,14.0129 -25.0471,37.8517 -17.7013,59.4191 7.38379,21.6904 27.7539,36.2734 50.668,36.2734 z"
     id="path831" />
  <path
     style="fill:currentColor"
     d="m 79.9883,216.609 h 28.3438 c 0.2041,0 0.375,-0.1709 0.375,-0.375 V 46.156 c 0,-0.2041 -0.1709,-0.375 -0.375,-0.375 H 79.9883 c -0.204102,0 -0.375,0.1709 -0.375,0.375 v 170.078 c 0,0.2041 0.170898,0.375 0.375,0.375 z"
     id="path829" />
  <path
     style="fill:currentColor"
     d="m 30.0039,202.063 v 14.1709 c 0,0.2041 0.170898,0.375 0.375,0.375 h 14.1758 c 0.204102,0 0.375,-0.1709 0.375,-0.375 V 202.063 c 0,-0.2041 -0.170898,-0.375 -0.375,-0.375 H 30.3789 c -0.204102,0 -0.375,0.1709 -0.375,0.375 z"
     id="path2" />
</svg>
