<?xml version="1.0" encoding="UTF-8" standalone="no"?>
<svg
   xmlns:dc="http://purl.org/dc/elements/1.1/"
   xmlns:cc="http://creativecommons.org/ns#"
   xmlns:rdf="http://www.w3.org/1999/02/22-rdf-syntax-ns#"
   xmlns:svg="http://www.w3.org/2000/svg"
   xmlns="http://www.w3.org/2000/svg"
   xmlns:sodipodi="http://sodipodi.sourceforge.net/DTD/sodipodi-0.dtd"
   xmlns:inkscape="http://www.inkscape.org/namespaces/inkscape"
   version="1.1"
   viewBox="0 -158 1000 1000"
   id="svg6"
   sodipodi:docname="J_A4EPSCONB.svg"
   inkscape:version="0.92.3 (2405546, 2018-03-11)">
  <metadata
     id="metadata12">
    <rdf:RDF>
      <cc:Work
         rdf:about="">
        <dc:format>image/svg+xml</dc:format>
        <dc:type
           rdf:resource="http://purl.org/dc/dcmitype/StillImage" />
      </cc:Work>
    </rdf:RDF>
  </metadata>
  <defs
     id="defs10" />
  <sodipodi:namedview
     pagecolor="#ffffff"
     bordercolor="#666666"
     borderopacity="1"
     objecttolerance="10"
     gridtolerance="10"
     guidetolerance="10"
     inkscape:pageopacity="0"
     inkscape:pageshadow="2"
     inkscape:window-width="2560"
     inkscape:window-height="1377"
     id="namedview8"
     showgrid="false"
     inkscape:zoom="0.944"
     inkscape:cx="748.6988"
     inkscape:cy="568.26648"
     inkscape:window-x="2552"
     inkscape:window-y="-8"
     inkscape:window-maximized="1"
     inkscape:current-layer="svg6" />
  <path
     style="fill:currentColor"
     d="m 400.605,285.379 v 6.71094 c 0,3.70703 -3.00391,6.71094 -6.71094,6.71094 h -42.5195 c -1.7793,0 -3.48926,-0.70703 -4.74609,-1.96484 -1.25781,-1.25684 -1.96484,-2.9668 -1.96484,-4.74609 v -70.8672 c 0,-1.7793 0.70703,-3.48438 1.96484,-4.74219 1.25781,-1.2627 2.9668,-1.96875 4.74609,-1.96875 h 42.5195 c 3.70703,0 6.71094,3.00391 6.71094,6.71094 v 7.09082 c 0,0.2041 0.1709,0.375 0.375,0.375 h 28.3477 c 0.2041,0 0.375,-0.1709 0.375,-0.375 v -7.09082 c 0,-19.7734 -16.0312,-35.8086 -35.8086,-35.8086 h -42.5195 c -9.49805,0 -18.6055,3.77344 -25.3203,10.4883 -6.71484,6.71582 -10.4883,15.8262 -10.4883,25.3203 v 70.8672 c 0,9.49805 3.77344,18.6055 10.4883,25.3203 6.71486,6.7148 15.8223,10.4883 25.3203,10.4883 h 42.5195 c 9.49805,0 18.6055,-3.77344 25.3203,-10.4883 6.7148,-6.71486 10.4883,-15.8223 10.4883,-25.3203 v -35.4336 c 0,-0.2041 -0.1709,-0.375 -0.375,-0.375 h -56.6953 c -0.2041,0 -0.375,0.1709 -0.375,0.375 v 28.3477 c 0,0.2041 0.1709,0.375 0.375,0.375 h 27.9727 z"
     id="path931" />
  <path
     style="fill:currentColor"
     d="m 393.895,838.13281 c 9.49805,0 18.6045,-3.76953 25.3203,-10.4854 6.71387,-6.71777 10.4883,-15.8252 10.4883,-25.3193 v -14.1758 c 0,-19.7773 -16.0312,-35.8086 -35.8086,-35.8086 h -42.5195 c -1.7793,0 -3.48926,-0.70703 -4.74609,-1.96484 -1.25781,-1.25684 -1.96484,-2.9668 -1.96484,-4.74609 v -14.1719 c 0,-3.70703 3.00391,-6.71094 6.71094,-6.71094 h 42.5195 c 3.70703,0 6.71094,3.00391 6.71094,6.71094 v 7.08594 c 0,0.2041 0.1709,0.375 0.375,0.375 h 28.3477 c 0.2041,0 0.375,-0.1709 0.375,-0.375 v -7.08594 c 0,-9.49707 -3.77344,-18.6055 -10.4883,-25.3203 -6.71486,-6.7148 -15.8223,-10.4883 -25.3203,-10.4883 h -42.5195 c -9.49805,0 -18.6055,3.77344 -25.3203,10.4883 -6.7148,6.71486 -10.4883,15.8232 -10.4883,25.3203 v 14.1719 c 0,19.7773 16.0312,35.8086 35.8086,35.8086 h 42.5195 c 3.70703,0 6.71094,3.00391 6.71094,6.71094 v 14.1758 c 0,3.70312 -3.00391,6.71094 -6.71094,6.71094 h -42.5195 c -3.70703,0 -6.71094,-3.00781 -6.71094,-6.71094 v -7.08984 c 0,-0.2041 -0.1709,-0.375 -0.375,-0.375 h -28.3477 c -0.2041,0 -0.375,0.1709 -0.375,0.375 v 7.08984 c 0,9.49414 3.77344,18.6006 10.4883,25.3203 6.71582,6.71484 15.8223,10.4844 25.3203,10.4844 h 42.5195 z"
     id="path925" />
  <path
     style="fill:currentColor"
     d="m 241.539,838.07906 c 0.0563,0.034 0.12176,0.0538 0.19109,0.0537 h 31.6914 c 0.0349,0 0.0688,-0.005 0.1011,-0.0143 0.0228,-0.006 0.0451,-0.0148 0.0669,-0.0257 0.0659,-0.0328 0.11799,-0.0836 0.15328,-0.14386 0.034,-0.0563 0.0537,-0.12177 0.0537,-0.1911 0,-0.0349 -0.005,-0.0688 -0.0143,-0.1011 -0.006,-0.0227 -0.0148,-0.0451 -0.0257,-0.0669 l -28.4524,-56.9049 c 16.5742,-3.45436 28.4925,-18.0722 28.4925,-35.0522 v -14.17189 c 0,-9.49707 -3.77246,-18.6055 -10.4883,-25.3203 -6.71484,-6.71484 -15.8223,-10.4883 -25.3203,-10.4883 h -77.9531 c -0.2041,0 -0.375,0.17089 -0.375,0.375 v 141.73 c 0,0.2041 0.1709,0.375 0.375,0.375 h 28.3477 c 0.20411,0 0.375,-0.1709 0.375,-0.375 V 781.4408 h 24.3936 l 28.2441,56.48441 c 0.0328,0.0659 0.0837,0.11799 0.14387,0.15327 z"
     id="path921" />
  <path
     style="fill:currentColor"
     d="m 117.891,798.5498 v -67.0889 c 0,-19.7773 -16.0312,-35.8086 -35.8086,-35.8086 H 39.5638 c -9.49902,0 -18.6064,3.77344 -25.3213,10.4883 -6.7149,6.71486 -10.4883,15.8232 -10.4883,25.3203 v 70.8672 c 0,9.49414 3.77344,18.6006 10.4883,25.3203 6.71582,6.71484 15.8223,10.4844 25.3213,10.4844 h 42.5186 c 12.3005,0 23.7334,-6.31252 30.2859,-16.6989 l 4.97968,2.488 c 0.18262,0.0908 0.41211,0.0146 0.50391,-0.16797 0.004,-0.007 0.007,-0.0148 0.0102,-0.0223 l 9.91171,-19.8215 c 0.0265,-0.0527 0.039,-0.10927 0.039,-0.1653 0,-0.13819 -0.076,-0.27301 -0.20598,-0.33763 z"
     id="path917" />
  <path
     style="fill:currentColor"
     d="m 78.915,779.4805 -9.92188,19.8438 c -0.02648,0.0527 -0.03899,0.10927 -0.03899,0.1653 0,0.13819 0.07605,0.27301 0.205978,0.33763 l 16.4366,8.21829 c -1.05347,0.64605 -2.26904,0.99363 -3.5147,0.99363 h -42.5186 c -3.70801,0 -6.71191,-3.00781 -6.71191,-6.71094 v -70.8672 c 0,-3.70703 3.00391,-6.71094 6.71191,-6.71094 h 42.5186 c 3.70703,0 6.71094,3.00391 6.71094,6.71094 v 52.5419 l -9.375,-4.68935 c -0.05268,-0.0265 -0.109271,-0.039 -0.165304,-0.039 -0.138188,0 -0.273007,0.0761 -0.337626,0.20597 z"
     id="path915" />
  <path
     style="fill:currentColor"
     d="m 88.9693,157.762 c 0.05793,0.0369 0.126213,0.0585 0.198679,0.0585 h 28.347701 c 0.0121,0 0.0242,-0.002 0.036,-0.002 0.0238,0 0.0477,-0.007 0.0714,-0.0138 0.0897,-0.0268 0.16234,-0.0858 0.20911,-0.16069 0.0369,-0.0579 0.0585,-0.12621 0.0585,-0.19868 0,-0.0121 -0.002,-0.0242 -0.002,-0.036 0,-0.0239 -0.007,-0.0477 -0.0138,-0.0714 L 75.355394,15.60393 c -0.02679,-0.0897 -0.08583,-0.16234 -0.160696,-0.20911 -0.05793,-0.0369 -0.126213,-0.0585 -0.198679,-0.0585 h -28.3477 c -0.07247,0 -0.140749,0.0215 -0.19868,0.0585 -0.07487,0.0468 -0.133907,0.11937 -0.160695,0.20911 L 3.7696037,157.33805 c -0.00709,0.0236 -0.011652,0.0475 -0.01384,0.0714 0,0.0119 -0.00178,0.0239 -0.00178,0.036 0,0.0725 0.021544,0.14075 0.05847,0.19868 0.04677,0.0749 0.119365,0.13391 0.209108,0.1607 0.02364,0.007 0.047537,0.0117 0.071387,0.0138 0.011875,0 0.023896,0.002 0.036035,0.002 H 32.476684 c 0.07247,0 0.140749,-0.0215 0.19868,-0.0585 0.07487,-0.0468 0.133907,-0.11936 0.160695,-0.20911 l 5.23612,-17.4512 h 45.5043 l 5.23227,17.4512 c 0.02679,0.0897 0.08583,0.16234 0.160696,0.20911 z"
     id="path911" />
  <path
     style="fill:currentColor"
     d="M 75.91,114.551 H 45.7385 L 60.8242,64.2626 Z"
     id="path909" />
  <path
     style="fill:currentColor"
     d="m 344.664,412.151 v -56.2794 c 0,-0.2041 -0.1709,-0.375 -0.375,-0.375 h -28.3477 c -0.2041,0 -0.375,0.1709 -0.375,0.375 v 141.73 c 0,0.2041 0.1709,0.375 0.375,0.375 h 28.3477 c 0.2041,0 0.375,-0.1709 0.375,-0.375 v -45.9201 l 7.77385,-8.74837 43.9254,54.9028 c 0.0367,0.0457 0.0828,0.0806 0.13345,0.10398 0.0486,0.0234 0.1028,0.0366 0.15952,0.0366 h 32.6719 c 0.0361,0 0.0712,-0.005 0.1045,-0.0153 0.0463,-0.013 0.0906,-0.0351 0.12987,-0.0667 0.0457,-0.0367 0.0806,-0.0827 0.10398,-0.13344 0.0234,-0.0486 0.0367,-0.1028 0.0367,-0.15953 0,-0.0361 -0.005,-0.0712 -0.0153,-0.1045 -0.013,-0.0463 -0.0351,-0.0906 -0.0667,-0.12987 l -59.4822,-74.3469 59.4695,-66.9002 c 0.0312,-0.0351 0.0545,-0.0749 0.07,-0.11699 0.016,-0.0412 0.0247,-0.0858 0.0247,-0.13203 0,-0.0579 -0.0137,-0.11305 -0.0381,-0.16243 -0.0207,-0.0438 -0.05,-0.0841 -0.0879,-0.11785 -0.0351,-0.0312 -0.0749,-0.0545 -0.11699,-0.07 -0.0412,-0.0159 -0.0858,-0.0247 -0.13204,-0.0247 h -34.1367 c -0.0579,0 -0.11304,0.0137 -0.16243,0.0381 -0.0438,0.0207 -0.0841,0.05 -0.11784,0.0879 z"
     id="path905" />
  <path
     style="fill:currentColor"
     d="m 32.8516,573.181 15.8945,23.8437 c 0.03693,0.0549 0.0866,0.0971 0.14266,0.12518 0.05125,0.0267 0.109072,0.0418 0.16984,0.0418 h 23.5273 c 0.06077,0 0.118594,-0.0152 0.169842,-0.0418 0.05606,-0.0281 0.105734,-0.0703 0.142658,-0.12518 L 88.7929,573.181 v 94.4989 c 0,0.2041 0.170898,0.375 0.375,0.375 h 28.3477 c 0.2041,0 0.375,-0.1709 0.375,-0.375 v -141.73 c 0,-0.2041 -0.1709,-0.375 -0.375,-0.375 H 89.1679 c -0.06077,0 -0.118594,0.0152 -0.169842,0.0418 -0.05606,0.0281 -0.105734,0.0703 -0.142658,0.12517 l -28.0313,42.0508 -28.0351,-42.0508 c -0.03693,-0.0549 -0.0866,-0.0971 -0.14266,-0.12517 -0.05125,-0.0267 -0.109072,-0.0418 -0.16984,-0.0418 H 4.1288 c -0.204102,0 -0.375,0.1709 -0.375,0.375 v 141.73 c 0,0.2041 0.170898,0.375 0.375,0.375 h 28.3477 c 0.204102,0 0.375,-0.1709 0.375,-0.375 V 573.181 Z"
     id="path903" />
  <path
     style="fill:currentColor"
     d="m 244.699,609.749 -56.0039,-84.0078 c -0.0369,-0.0549 -0.0866,-0.0971 -0.14266,-0.12518 -0.0512,-0.0267 -0.10907,-0.0418 -0.16984,-0.0418 h -28.3477 c -0.2041,0 -0.375,0.1709 -0.375,0.375 v 141.73 c 0,0.2041 0.1709,0.375 0.375,0.375 h 28.3477 c 0.2041,0 0.375,-0.1709 0.375,-0.375 v -83.7998 l 56.0039,84.0078 c 0.0369,0.0549 0.0866,0.0971 0.14266,0.12517 0.0513,0.0267 0.10907,0.0418 0.16984,0.0418 h 28.3477 c 0.2041,0 0.375,-0.1709 0.375,-0.375 v -141.73 c 0,-0.2041 -0.1709,-0.375 -0.375,-0.375 H 245.074 c -0.2041,0 -0.375,0.1709 -0.375,0.375 z"
     id="path901" />
  <path
     style="fill:currentColor"
     d="m 400.98,114.551 c -0.2041,0 -0.375,0.1709 -0.375,0.375 v 7.08594 c 0,3.70703 -3.00391,6.71094 -6.71094,6.71094 h -42.5195 c -1.7793,0 -3.48926,-0.70703 -4.74609,-1.96484 -1.25781,-1.25684 -1.96484,-2.9668 -1.96484,-4.74609 v -70.8672 c 0,-1.7793 0.70606,-3.48535 1.96484,-4.74707 1.25684,-1.25684 2.9668,-1.96387 4.74609,-1.96387 h 42.5195 c 3.70703,0 6.71094,3.00391 6.71094,6.71094 v 7.08594 c 0,0.2041 0.1709,0.375 0.375,0.375 h 28.3477 c 0.2041,0 0.375,-0.1709 0.375,-0.375 v -7.08594 c 0,-9.49805 -3.77344,-18.6055 -10.4883,-25.3203 -6.71486,-6.7148 -15.8223,-10.4883 -25.3203,-10.4883 h -42.5195 c -9.49805,0 -18.6055,3.77344 -25.3203,10.4883 -6.7148,6.71486 -10.4883,15.8223 -10.4883,25.3203 v 70.8672 c 0,9.49805 3.77344,18.6055 10.4883,25.3203 6.71486,6.7148 15.8223,10.4883 25.3203,10.4883 h 42.5195 c 19.7773,0 35.8086,-16.0312 35.8086,-35.8086 v -7.08594 c 0,-0.2041 -0.1709,-0.375 -0.375,-0.375 H 400.98 Z"
     id="path897" />
  <path
     style="fill:currentColor"
     d="m 585.605,696.027 c 0,-0.2041 -0.1709,-0.375 -0.375,-0.375 H 471.847 c -0.2041,0 -0.375,0.1709 -0.375,0.375 v 28.3477 c 0,0.2041 0.1709,0.375 0.375,0.375 h 42.1445 v 113.008 c 0,0.2041 0.1709,0.375 0.375,0.375 h 28.3438 c 0.2041,0 0.375,-0.1709 0.375,-0.375 v -113.008 h 42.1445 c 0.2041,0 0.375,-0.1709 0.375,-0.375 V 696.027 Z"
     id="path893" />
  <path
     style="fill:currentColor"
     d="m 549.801,554.668 c 1.7793,0 3.48438,0.70996 4.74219,1.96875 1.2627,1.25781 1.96875,2.9668 1.96875,4.74609 v 14.1719 c 0,3.70703 -3.00391,6.71094 -6.71094,6.71094 h -49.2344 v -27.5977 h 49.2344 z"
     id="path887" />
  <path
     style="fill:currentColor"
     d="m 585.605,561.383 c 0,-19.7764 -16.0312,-35.8086 -35.8047,-35.8086 h -77.9531 c -0.2041,0 -0.375,0.1709 -0.375,0.375 v 141.73 c 0,0.2041 0.1709,0.375 0.375,0.375 h 28.3438 c 0.2041,0 0.375,-0.1709 0.375,-0.375 V 611.363 h 49.2344 c 9.49414,0 18.6055,-3.77344 25.3203,-10.4883 6.71484,-6.71582 10.4844,-15.8223 10.4844,-25.3203 v -14.1719 z"
     id="path885" />
  <path
     style="fill:currentColor"
     d="m 471.473,497.602 c 0,0.2041 0.1709,0.375 0.375,0.375 h 113.383 c 0.2041,0 0.375,-0.1709 0.375,-0.375 v -28.3477 c 0,-0.2041 -0.1709,-0.375 -0.375,-0.375 h -84.6641 v -113.008 c 0,-0.2041 -0.1709,-0.375 -0.375,-0.375 h -28.3438 c -0.2041,0 -0.375,0.1709 -0.375,0.375 v 141.73 z"
     id="path879" />
  <path
     style="fill:currentColor"
     d="m 471.473,327.523 c 0,0.2041 0.1709,0.375 0.375,0.375 h 28.3438 c 0.2041,0 0.375,-0.1709 0.375,-0.375 v -56.3164 h 55.9453 v 56.3164 c 0,0.2041 0.1709,0.375 0.375,0.375 h 28.3438 c 0.2041,0 0.375,-0.1709 0.375,-0.375 V 185.789 c 0,-0.2041 -0.1709,-0.375 -0.375,-0.375 h -28.3438 c -0.2041,0 -0.375,0.1709 -0.375,0.375 v 56.3203 H 500.5668 V 185.789 c 0,-0.2041 -0.1709,-0.375 -0.375,-0.375 H 471.848 c -0.2041,0 -0.375,0.1709 -0.375,0.375 z"
     id="path875" />
  <path
     style="fill:currentColor"
     d="M 500.566,128.723 V 44.4339 h 49.2344 c 1.7793,0 3.48438,0.70703 4.74219,1.96484 1.2627,1.26172 1.96875,2.9668 1.96875,4.74609 v 70.8672 c 0,1.7793 -0.70703,3.48828 -1.96777,4.74609 -1.25879,1.25879 -2.96387,1.96484 -4.74316,1.96484 h -49.2344 z"
     id="path873" />
  <path
     style="fill:currentColor"
     d="m 471.848,15.336 c -0.2041,0 -0.375,0.1709 -0.375,0.375 v 141.734 c 0,0.2041 0.1709,0.375 0.375,0.375 h 77.9531 c 19.7734,0 35.8047,-16.0312 35.8047,-35.8086 V 51.1442 c 0,-9.49805 -3.76953,-18.6045 -10.4844,-25.3203 -6.71484,-6.71484 -15.8262,-10.4883 -25.3203,-10.4883 H 471.848 Z"
     id="path869" />
  <path
     style="fill:currentColor"
     d="m 351.375,525.574 c -9.49805,0 -18.6055,3.77051 -25.3203,10.4883 -6.71484,6.71484 -10.4883,15.8223 -10.4883,25.3203 v 70.8633 c 0,9.49805 3.77441,18.6055 10.4883,25.3193 6.71484,6.71973 15.8223,10.4893 25.3203,10.4893 h 42.5195 c 9.49805,0 18.6055,-3.77051 25.3203,-10.4883 6.71484,-6.71484 10.4883,-15.8223 10.4883,-25.3203 v -70.8633 c 0,-19.7764 -16.0312,-35.8086 -35.8086,-35.8086 z"
     id="path865" />
  <path
     style="fill:currentColor"
     d="m 393.895,554.668 c 3.70703,0 6.71094,3.00781 6.71094,6.71484 v 70.8633 c 0,3.70703 -3.00391,6.71484 -6.71094,6.71484 h -42.5195 c -3.70703,0 -6.71094,-3.00781 -6.71094,-6.71484 v -70.8633 c 0,-1.7793 0.70703,-3.48926 1.96484,-4.74609 1.25781,-1.25879 2.9668,-1.96875 4.74609,-1.96875 h 42.5195 z"
     id="path861" />
  <path
     style="fill:currentColor"
     d="m 244.699,745.6328 c 0,1.7793 -0.70703,3.48926 -1.96484,4.74609 -1.25684,1.25781 -2.9668,1.96484 -4.74609,1.96484 h -49.2305 v -27.5938 h 49.2305 c 3.70703,0 6.71094,3.00391 6.71094,6.71094 v 14.1719 z"
     id="path855" />
  <path
     style="fill:currentColor"
     d="m 159.66,384.215 c 0,0.2041 0.1709,0.375 0.375,0.375 h 56.3203 v 70.4922 c 0,7.62109 -6.17969,13.7969 -13.8008,13.7969 -7.62111,0 -13.7969,-6.17578 -13.7969,-13.7969 0,-0.2041 -0.1709,-0.375 -0.375,-0.375 h -28.3477 c -0.2041,0 -0.375,0.1709 -0.375,0.375 0,23.6914 19.207,42.8945 42.8945,42.8945 23.6914,0 42.8945,-19.2031 42.8945,-42.8945 V 384.59 h 27.9727 c 0.2041,0 0.375,-0.1709 0.375,-0.375 v -28.3438 c 0,-0.2041 -0.1709,-0.375 -0.375,-0.375 h -113.387 c -0.2041,0 -0.375,0.1709 -0.375,0.375 v 28.3438 z"
     id="path853" />
  <path
     style="fill:currentColor"
     d="m 273.797,185.789 c 0,-0.2041 -0.1709,-0.375 -0.375,-0.375 H 160.035 c -0.2041,0 -0.375,0.1709 -0.375,0.375 v 141.734 c 0,0.2041 0.1709,0.375 0.375,0.375 h 28.3477 c 0.2041,0 0.375,-0.1709 0.375,-0.375 v -56.3164 h 56.3164 c 0.2041,0 0.375,-0.1709 0.375,-0.375 v -28.3477 c 0,-0.2041 -0.1709,-0.375 -0.375,-0.375 h -56.3164 v -27.5977 h 84.6641 c 0.2041,0 0.375,-0.1709 0.375,-0.375 v -28.3477 z"
     id="path849" />
  <path
     style="fill:currentColor"
     d="m 160.035,15.336 c -0.2041,0 -0.375,0.1709 -0.375,0.375 v 141.734 c 0,0.2041 0.1709,0.375 0.375,0.375 h 70.8672 c 16.9131,0 32.251,-9.94238 39.1592,-25.3818 6.85879,-15.3416 4.12652,-33.2621 -6.96659,-45.8603 11.0931,-12.5944 13.8254,-30.5188 6.96659,-45.8565 C 263.1532,25.278 247.8153,15.3357 230.9022,15.3357 H 160.035 Z"
     id="path843" />
  <path
     style="fill:currentColor"
     d="M 230.902,72.031 H 188.7575 V 44.4333 h 42.1445 c 7.61719,0.005 13.793,6.17969 13.793,13.7969 0,7.62109 -6.17578,13.7969 -13.793,13.8008 z"
     id="path841" />
  <path
     style="fill:currentColor"
     d="m 230.902,128.723 h -42.1445 v -27.5977 h 42.1445 c 7.62109,0 13.7969,6.17969 13.7969,13.8008 0,7.62111 -6.17578,13.7969 -13.7969,13.7969 z"
     id="path837" />
  <path
     style="fill:currentColor"
     d="m 46.2734,497.602 c 0,0.2041 0.170898,0.375 0.375,0.375 h 28.3477 c 0.204102,0 0.375,-0.1709 0.375,-0.375 v -141.73 c 0,-0.2041 -0.170898,-0.375 -0.375,-0.375 H 46.6484 c -0.204102,0 -0.375,0.1709 -0.375,0.375 z"
     id="path831" />
  <path
     style="fill:currentColor"
     d="m 117.891,185.789 c 0,-0.2041 -0.1709,-0.375 -0.375,-0.375 H 4.129 c -0.204102,0 -0.375,0.1709 -0.375,0.375 v 141.734 c 0,0.2041 0.170898,0.375 0.375,0.375 h 113.387 c 0.2041,0 0.375,-0.1709 0.375,-0.375 v -28.3477 c 0,-0.2041 -0.1709,-0.375 -0.375,-0.375 H 32.8519 v -27.5938 h 56.3164 c 0.204102,0 0.375,-0.1709 0.375,-0.375 v -28.3477 c 0,-0.2041 -0.170898,-0.375 -0.375,-0.375 H 32.8519 v -27.5977 h 84.6641 c 0.2041,0 0.375,-0.1709 0.375,-0.375 v -28.3477 z"
     id="path829" />
  <path
     style="fill:currentColor"
     d="m 3.75391,483.43 v 14.1719 c 0,0.2041 0.170898,0.375 0.375,0.375 h 14.1758 c 0.204102,0 0.375,-0.1709 0.375,-0.375 V 483.43 c 0,-0.2041 -0.170898,-0.375 -0.375,-0.375 H 4.12891 c -0.204102,0 -0.375,0.1709 -0.375,0.375 z"
     id="path2" />
</svg>
