<?xml version="1.0" encoding="UTF-8" standalone="no"?>
<svg
   xmlns:dc="http://purl.org/dc/elements/1.1/"
   xmlns:cc="http://creativecommons.org/ns#"
   xmlns:rdf="http://www.w3.org/1999/02/22-rdf-syntax-ns#"
   xmlns:svg="http://www.w3.org/2000/svg"
   xmlns="http://www.w3.org/2000/svg"
   xmlns:sodipodi="http://sodipodi.sourceforge.net/DTD/sodipodi-0.dtd"
   xmlns:inkscape="http://www.inkscape.org/namespaces/inkscape"
   version="1.1"
   viewBox="0 -158 1000 1000"
   id="svg6"
   sodipodi:docname="K_A4EPSCONB.svg"
   inkscape:version="0.92.3 (2405546, 2018-03-11)">
  <metadata
     id="metadata12">
    <rdf:RDF>
      <cc:Work
         rdf:about="">
        <dc:format>image/svg+xml</dc:format>
        <dc:type
           rdf:resource="http://purl.org/dc/dcmitype/StillImage" />
      </cc:Work>
    </rdf:RDF>
  </metadata>
  <defs
     id="defs10" />
  <sodipodi:namedview
     pagecolor="#ffffff"
     bordercolor="#666666"
     borderopacity="1"
     objecttolerance="10"
     gridtolerance="10"
     guidetolerance="10"
     inkscape:pageopacity="0"
     inkscape:pageshadow="2"
     inkscape:window-width="2560"
     inkscape:window-height="1377"
     id="namedview8"
     showgrid="false"
     inkscape:zoom="2.6700352"
     inkscape:cx="230.054"
     inkscape:cy="876.26663"
     inkscape:window-x="2552"
     inkscape:window-y="-8"
     inkscape:window-maximized="1"
     inkscape:current-layer="svg6" />
  <path
     style="fill:currentColor"
     d="m 372.81,64.989 c -0.056,-0.0296 -0.1167,-0.0434 -0.17676,-0.0428 -0.0601,0 -0.1208,0.0132 -0.17676,0.0428 -0.0333,0.0179 -0.0628,0.0404 -0.0882,0.0663 -0.0258,0.0254 -0.0482,0.0548 -0.0661,0.088 l -19.1102,35.836 -8.52866,-85.2943 c -0.0156,-0.19075 -0.17966,-0.34538 -0.3738,-0.34538 h -28.3477 c -0.0127,0 -0.0253,0.002 -0.0378,0.002 -0.16991,0 -0.30484,0.14561 -0.33209,0.31204 -0.003,0.0199 -0.005,0.0403 -0.005,0.061 0,0.0145 0.003,0.0288 0.003,0.0429 l 14.1706,141.717 c 0,0.015 0.006,0.0299 0.006,0.0444 0.0143,0.0698 0.0485,0.13234 0.0957,0.18208 0.0688,0.0728 0.16578,0.11886 0.27172,0.11886 h 28.3477 c 0.0693,0 0.13482,-0.0197 0.19109,-0.0538 0.0602,-0.0353 0.11108,-0.0874 0.14387,-0.15328 l 13.837,-27.6777 13.8408,27.6777 c 0.0328,0.0659 0.0837,0.11799 0.14387,0.15328 0.0563,0.034 0.12176,0.0538 0.19109,0.0538 h 28.3438 c 0.19414,0 0.35824,-0.15462 0.37379,-0.34536 4.72501,-47.241 9.45002,-94.482 14.1751,-141.723 0,-0.0122 0.002,-0.0246 0.002,-0.0371 0,-0.10594 -0.046,-0.20293 -0.11886,-0.27172 -0.0498,-0.0472 -0.1123,-0.0813 -0.18209,-0.0957 -0.024,-0.005 -0.0488,-0.008 -0.074,-0.008 h -28.3477 c -0.19415,0 -0.35825,0.15462 -0.3738,0.34537 l -8.52868,85.2945 -19.1141,-35.8361 c -0.0179,-0.0332 -0.0403,-0.0626 -0.0661,-0.088 -0.0254,-0.0259 -0.0549,-0.0484 -0.0882,-0.0663 z"
     id="path913" />
  <path
     style="fill:currentColor"
     d="M 67.5352,603.527 H 39.7168 l 27.8184,-34.0006 z"
     id="path907" />
  <path
     style="fill:currentColor"
     d="m 370.069,582.266 36.7683,-56.1113 c 0.0194,-0.0293 0.0339,-0.0606 0.0438,-0.0929 0.0115,-0.0355 0.0177,-0.0732 0.0177,-0.11217 0,-0.0679 -0.0189,-0.13219 -0.0517,-0.18769 -0.0283,-0.0495 -0.068,-0.0931 -0.1182,-0.12579 -0.0293,-0.0194 -0.0606,-0.0339 -0.0929,-0.0438 -0.0355,-0.0115 -0.0732,-0.0177 -0.11217,-0.0177 h -33.8906 c -0.0657,0 -0.12804,0.0177 -0.18229,0.0486 -0.0517,0.0284 -0.0973,0.0693 -0.13118,0.12133 l -49.7383,75.9102 c -8.63477,13.1816 -9.34766,30.0352 -1.86035,43.8994 7.49121,13.8633 21.9814,22.501 37.7402,22.501 h 28.3477 c 23.6758,-0.0156 42.8633,-19.2148 42.8633,-42.8945 0,-23.6758 -19.1875,-42.8789 -42.8633,-42.8945 h -16.74 z"
     id="path901" />
  <path
     style="fill:currentColor"
     d="m 219.295,781.4414 -36.7684,56.1152 c -0.0179,0.0272 -0.0317,0.0561 -0.0415,0.0859 -0.013,0.0376 -0.02,0.0777 -0.02,0.11921 0,0.0657 0.0177,0.12804 0.0486,0.18229 0.0284,0.0517 0.0693,0.0973 0.12133,0.13118 0.0272,0.0179 0.0561,0.0317 0.0859,0.0415 0.0376,0.013 0.0777,0.02 0.11921,0.02 h 33.8906 c 0.0657,0 0.12804,-0.0177 0.18229,-0.0486 0.0517,-0.0284 0.0973,-0.0693 0.13118,-0.12132 l 49.7383,-75.9102 c 8.63379,-13.1816 9.34766,-30.0361 1.85645,-43.8984 -7.4873,-13.8643 -21.9775,-22.5059 -37.7363,-22.5059 h -28.3477 c -23.6797,0.0156 -42.8711,19.2148 -42.8711,42.8945 0,23.6797 19.1914,42.8828 42.8711,42.8945 h 16.74 z"
     id="path897" />
  <path
     style="fill:currentColor"
     d="m 160.035,497.977 h 14.1758 c 0.2041,0 0.375,-0.1709 0.375,-0.375 v -14.1719 c 0,-0.2041 -0.1709,-0.375 -0.375,-0.375 H 160.035 c -0.2041,0 -0.375,0.1709 -0.375,0.375 v 14.1719 c 0,0.2041 0.1709,0.375 0.375,0.375 z"
     id="path895" />
  <path
     style="fill:currentColor"
     d="m 237.136,214.512 -77.3775,84.4111 c -0.0286,0.0313 -0.0509,0.0665 -0.0668,0.10382 -0.0204,0.0459 -0.0318,0.0964 -0.0318,0.14911 v 28.3477 c 0,0.2041 0.1709,0.375 0.375,0.375 h 113.387 c 0.2041,0 0.375,-0.1709 0.375,-0.375 v -28.3477 c 0,-0.2041 -0.1709,-0.375 -0.375,-0.375 h -77.1012 l 77.3775,-84.4111 c 0.0286,-0.0313 0.0509,-0.0665 0.0668,-0.10382 0.0204,-0.0459 0.0318,-0.0964 0.0318,-0.14911 v -28.3438 c 0,-0.2041 -0.1709,-0.375 -0.375,-0.375 h -113.387 c -0.2041,0 -0.375,0.1709 -0.375,0.375 v 28.3438 c 0,0.2041 0.1709,0.375 0.375,0.375 z"
     id="path887" />
  <path
     style="fill:currentColor"
     d="m 518.285,157.445 v -10.6289 c 0,-0.2041 -0.1709,-0.375 -0.375,-0.375 h -7.41444 l 18.0434,-31.3807 24.4795,42.5712 c 0.0355,0.0621 0.087,0.11012 0.14668,0.142 0.0534,0.0295 0.11429,0.0465 0.17851,0.0465 h 31.8906 c 0.034,0 0.067,-0.005 0.0985,-0.0136 0.0303,-0.008 0.0599,-0.0201 0.0881,-0.0362 0.0621,-0.0355 0.11012,-0.087 0.142,-0.14668 0.0295,-0.0534 0.0465,-0.11429 0.0465,-0.17851 0,-0.034 -0.005,-0.067 -0.0136,-0.0985 -0.008,-0.0303 -0.0201,-0.0599 -0.0362,-0.088 l -40.6427,-70.6807 40.6427,-70.6768 c 0.0162,-0.0282 0.0282,-0.0578 0.0362,-0.088 0.009,-0.0315 0.0136,-0.0645 0.0136,-0.0985 0,-0.0642 -0.0169,-0.12516 -0.0465,-0.17852 -0.0319,-0.0596 -0.0799,-0.11119 -0.142,-0.14668 -0.0282,-0.0162 -0.0578,-0.0282 -0.088,-0.0362 -0.0315,-0.009 -0.0645,-0.0136 -0.0985,-0.0136 h -31.8906 c -0.0642,0 -0.12516,0.0169 -0.17851,0.0465 -0.0596,0.0319 -0.1112,0.0799 -0.14668,0.14201 l -24.4795,42.5673 -24.4756,-42.5673 c -0.0355,-0.0621 -0.087,-0.11012 -0.14668,-0.14201 -0.0534,-0.0295 -0.11429,-0.0465 -0.17852,-0.0465 h -31.8906 c -0.034,0 -0.067,0.005 -0.0985,0.0136 -0.0303,0.008 -0.0599,0.0201 -0.0881,0.0362 -0.0621,0.0355 -0.11012,0.0871 -0.142,0.14667 -0.0296,0.0534 -0.0465,0.1143 -0.0465,0.17852 0,0.034 0.005,0.067 0.0136,0.0985 0.008,0.0303 0.0201,0.0599 0.0362,0.088 l 40.6388,70.6768 -40.6388,70.6807 c -0.0162,0.0282 -0.0282,0.0578 -0.0362,0.088 -0.009,0.0315 -0.0136,0.0645 -0.0136,0.0985 0,0.0642 0.0169,0.12516 0.0465,0.17852 0.0319,0.0596 0.0799,0.11119 0.142,0.14667 0.0282,0.0162 0.0578,0.0282 0.088,0.0362 0.0315,0.009 0.0645,0.0136 0.0985,0.0136 h 46.06251 c 0.2041,0 0.375,-0.1709 0.375,-0.375 z"
     id="path883" />
  <path
     style="fill:currentColor"
     d="m 478.934,355.496 c -0.2041,0 -0.375,0.1709 -0.375,0.375 v 28.3477 c 0,0.2041 0.1709,0.375 0.375,0.375 h 55.622 l -34.5986,27.6768 c -0.0457,0.0367 -0.0806,0.0828 -0.10398,0.13345 -0.0234,0.0486 -0.0366,0.1028 -0.0366,0.15952 v 28.3467 c 0,0.2041 0.17089,0.375 0.375,0.375 h 42.5234 c 7.61719,0.004 13.7891,6.17969 13.7891,13.7969 0,7.61721 -6.17188,13.793 -13.7891,13.8008 h -35.4336 c -1.7793,0 -3.48828,-0.70996 -4.74609,-1.96875 -1.25879,-1.25781 -1.96875,-2.96289 -1.96875,-4.74609 l -2.5e-4,-0.0134 c 0,-0.0257 -0.004,-0.0517 -0.0105,-0.0775 -0.0225,-0.0896 -0.0771,-0.164 -0.1485,-0.21417 -0.0614,-0.0439 -0.13603,-0.07 -0.21575,-0.07 l -0.0134,2.4e-4 c -0.0257,0 -0.0517,0.004 -0.0775,0.0105 l -27.6641,6.91797 c -0.13521,0.034 -0.23589,0.14108 -0.27076,0.26866 -0.0148,0.0538 -0.007,0.11136 -0.007,0.16884 3.33594,16.7539 18.041,28.8174 35.1221,28.8174 h 35.4336 c 23.6875,0 42.8945,-19.2031 42.8945,-42.8945 0,-23.3353 -18.6402,-42.3215 -41.8411,-42.8809 l 34.6106,-27.6894 c 0.0457,-0.0367 0.0806,-0.0828 0.10398,-0.13345 0.0234,-0.0486 0.0366,-0.1028 0.0367,-0.15952 v -28.3477 c 0,-0.2041 -0.1709,-0.375 -0.375,-0.375 h -99.2109 z"
     id="path881" />
  <path
     style="fill:currentColor"
     d="m 471.473,554.297 c 0,0.2041 0.1709,0.375 0.375,0.375 h 77.3467 l -56.4238,112.84 c -0.0109,0.0217 -0.0195,0.0441 -0.0257,0.0669 -0.009,0.0323 -0.0143,0.0662 -0.0143,0.1011 0,0.0693 0.0197,0.13482 0.0537,0.19109 0.0353,0.0602 0.0874,0.11108 0.15328,0.14387 0.0217,0.0109 0.0441,0.0195 0.0669,0.0257 0.0323,0.009 0.0662,0.0143 0.1011,0.0143 h 35.4336 c 0.0693,0 0.13482,-0.0197 0.19109,-0.0538 0.0602,-0.0353 0.11108,-0.0873 0.14387,-0.15327 l 56.6953,-113.383 c 0.0109,-0.0217 0.0195,-0.0441 0.0257,-0.0669 0.009,-0.0323 0.0143,-0.0662 0.0143,-0.1011 v -28.3477 c 0,-0.2041 -0.1709,-0.375 -0.375,-0.375 h -113.387 c -0.2041,0 -0.375,0.1709 -0.375,0.375 v 28.3477 z"
     id="path875" />
  <path
     style="fill:currentColor"
     d="m 315.941,497.977 h 113.387 c 0.2041,0 0.375,-0.1709 0.375,-0.375 v -28.3438 c 0,-0.2041 -0.1709,-0.375 -0.375,-0.375 h -62.6569 l 51.5991,-38.6974 c 0.0273,-0.0189 0.0524,-0.0416 0.0743,-0.0682 7.34375,-8.94238 11.3584,-20.1553 11.3584,-31.7266 0,-11.377 -4.51953,-22.2881 -12.5635,-30.332 -8.0459,-8.04297 -18.9541,-12.5625 -30.3311,-12.5625 h -21.2617 c -24.887,0 -45.9781,18.3077 -49.4816,42.9433 -0.005,0.0261 -0.006,0.0524 -0.006,0.0783 0,0.0765 0.0269,0.14937 0.0698,0.20986 0.0502,0.0714 0.12458,0.12595 0.21413,0.14845 l 27.8555,6.96484 c 0.0258,0.006 0.0517,0.01 0.0775,0.0105 l 0.0134,2.4e-4 c 0.0797,0 0.15437,-0.0261 0.21576,-0.07 0.0714,-0.0502 0.12599,-0.12459 0.1485,-0.21417 0.006,-0.0258 0.01,-0.0517 0.0105,-0.0775 l 2.4e-4,-0.0133 c 0,-11.5352 9.34766,-20.8828 20.8828,-20.8828 h 21.2617 c 5.93652,0 11.2109,3.79883 13.0898,9.43457 1.87793,5.63281 -0.0615,11.8389 -4.80957,15.4023 l -79.3721,59.5273 c -0.0502,0.0373 -0.0882,0.0856 -0.11332,0.13939 -0.0237,0.0489 -0.0371,0.10334 -0.0371,0.16041 v 28.3438 c 0,0.20411 0.1709,0.375 0.375,0.375 z"
     id="path873" />
  <path
     style="fill:currentColor"
     d="m 386.809,611.363 c 7.60891,0.0162 13.7695,6.18783 13.7695,13.7969 0,7.60938 -6.16113,13.7852 -13.7705,13.8008 h -28.3457 -0.001 c -7.60891,-0.0162 -13.7695,-6.19174 -13.7695,-13.8008 0,-7.60938 6.16016,-13.7812 13.7705,-13.7969 h 28.3457 z"
     id="path867" />
  <path
     style="fill:currentColor"
     d="m 202.555,752.3477 c -7.62109,0 -13.7969,-6.17969 -13.7969,-13.8008 0,-7.62111 6.17578,-13.7969 13.7969,-13.7969 h 28.3477 c 7.62109,0 13.7969,6.17578 13.7969,13.7969 0,7.62112 -6.17578,13.8008 -13.7969,13.8008 z"
     id="path865" />
  <path
     style="fill:currentColor"
     d="m 231.277,355.871 c 0,-0.2041 -0.1709,-0.375 -0.375,-0.375 h -28.3477 c -0.2041,0 -0.375,0.1709 -0.375,0.375 v 141.73 c 0,0.2041 0.1709,0.375 0.375,0.375 h 28.3477 c 0.2041,0 0.375,-0.1709 0.375,-0.375 z"
     id="path861" />
  <path
     style="fill:currentColor"
     d="m 259.625,525.949 c 0,-0.2041 -0.1709,-0.375 -0.375,-0.375 h -99.2148 c -0.2041,0 -0.375,0.1709 -0.375,0.375 v 85.0391 c 0,0.2041 0.1709,0.375 0.375,0.375 h 70.8662 0.001 c 7.60891,0.0162 13.7695,6.18783 13.7695,13.7969 0,7.60938 -6.16113,13.7852 -13.7705,13.8008 h -35.4326 c -3.70703,0 -6.71094,-3.00391 -6.71094,-6.71094 0,-0.004 -2.4e-4,-0.009 -2.4e-4,-0.0133 0,-0.0257 -0.004,-0.0517 -0.0105,-0.0775 -0.0225,-0.0896 -0.0771,-0.164 -0.1485,-0.21417 -0.0614,-0.0439 -0.13604,-0.07 -0.21576,-0.07 -0.004,0 -0.009,2.4e-4 -0.0134,2.4e-4 -0.0257,0 -0.0517,0.004 -0.0775,0.0105 l -27.6641,6.91406 c -0.13521,0.034 -0.2359,0.14108 -0.27076,0.26866 -0.0148,0.0538 -0.007,0.11136 -0.007,0.16884 3.33203,16.7539 18.0371,28.8174 35.1182,28.8174 h 35.4336 c 23.6797,-0.0156 42.8672,-19.2148 42.8672,-42.8945 0,-23.6758 -19.1875,-42.8789 -42.8672,-42.8945 h -42.1445 v -27.5938 h 70.4922 c 0.2041,0 0.375,-0.1709 0.375,-0.375 v -28.3477 z"
     id="path857" />
  <path
     style="fill:currentColor"
     d="m 159.999,15.342 c -0.0238,0 -0.0478,0.007 -0.0714,0.0138 -0.0897,0.0268 -0.16233,0.0858 -0.2091,0.1607 -0.0369,0.0579 -0.0585,0.12621 -0.0585,0.19868 0,0.0121 0.002,0.0242 0.002,0.036 0,0.0238 0.007,0.0477 0.0138,0.0714 l 42.5195,141.73 c 0.0268,0.0897 0.0858,0.16233 0.1607,0.20911 0.0579,0.0369 0.12621,0.0585 0.19868,0.0585 h 28.3477 c 0.0725,0 0.14075,-0.0215 0.19868,-0.0585 0.0749,-0.0468 0.1339,-0.11936 0.16069,-0.2091 l 42.5195,-141.73 c 0.007,-0.0236 0.0116,-0.0475 0.0138,-0.0714 0,-0.0119 0.002,-0.0239 0.002,-0.036 0,-0.0725 -0.0215,-0.14074 -0.0585,-0.19868 -0.0468,-0.0749 -0.11937,-0.1339 -0.20911,-0.16069 -0.0236,-0.007 -0.0475,-0.0116 -0.0714,-0.0138 -0.0119,0 -0.0239,-0.002 -0.036,-0.002 h -28.3477 c -0.0725,0 -0.14075,0.0216 -0.19868,0.0585 -0.0749,0.0468 -0.13391,0.11937 -0.1607,0.20911 l -27.9844,93.2903 -27.9883,-93.2903 c -0.0268,-0.0897 -0.0858,-0.16233 -0.16069,-0.20911 -0.0579,-0.0369 -0.12622,-0.0585 -0.19868,-0.0585 h -28.3477 c -0.0121,0 -0.0242,0.002 -0.036,0.002 z"
     id="path853" />
  <path
     style="fill:currentColor"
     d="m 46.6484,809.0391 c -7.61719,0 -13.7969,-6.17969 -13.7969,-13.7969 0,-7.62109 6.17969,-13.8008 13.7969,-13.8008 h 28.3477 c 7.62109,0 13.7969,6.17969 13.7969,13.8008 0,7.61719 -6.17578,13.7969 -13.7969,13.7969 z"
     id="path851" />
  <path
     style="fill:currentColor"
     d="m 53.7383,752.3477 c -7.62109,0 -13.7998,-6.17969 -13.7998,-13.8008 0,-7.62111 6.17871,-13.7969 13.7998,-13.7969 h 14.1719 c 7.62109,0 13.7969,6.17578 13.7969,13.7969 0,7.62112 -6.17578,13.8008 -13.7969,13.8008 z"
     id="path847" />
  <path
     style="fill:currentColor"
     d="m 53.7383,695.652 c -16.0068,0 -30.6826,8.91406 -38.0635,23.1162 -7.32873,14.1057 -6.25399,31.0941 2.76628,44.1574 -13.4125,11.708 -18.2065,30.5033 -12.0114,47.2195 6.23438,16.8232 22.2764,27.9912 40.2188,27.9912 h 28.3477 c 17.9424,0 33.9893,-11.168 40.2227,-27.9912 6.19509,-16.7163 1.40108,-35.5116 -12.0152,-47.2195 9.02411,-13.0633 10.0988,-30.0517 2.77011,-44.1574 -7.38086,-14.2021 -22.0566,-23.1162 -38.0635,-23.1162 h -14.1719 z"
     id="path841" />
  <path
     style="fill:currentColor"
     d="m 32.8516,412.563 c 0,-15.4502 12.5234,-27.9697 27.9727,-27.9697 15.4493,0 27.9688,12.5195 27.9688,27.9697 v 28.3467 c 0,15.4492 -12.5195,27.9727 -27.9688,27.9727 -15.4493,0 -27.9727,-12.5234 -27.9727,-27.9727 z"
     id="path839" />
  <path
     style="fill:currentColor"
     d="m 3.75391,440.91 c 0.00781,31.5117 25.5547,57.0547 57.0703,57.0547 31.5117,0 57.0586,-25.543 57.0664,-57.0547 v -28.3467 c -0.008,-31.5127 -25.5547,-57.0557 -57.0664,-57.0557 -31.5156,0 -57.0625,25.543 -57.0703,57.0557 z"
     id="path833" />
  <path
     style="fill:currentColor"
     d="m 96.6328,603.527 v -77.5781 c 0,-0.2041 -0.170898,-0.375 -0.375,-0.375 H 67.9101 c -0.05553,0 -0.108608,0.0127 -0.156452,0.0352 -0.05063,0.0229 -0.09667,0.0572 -0.133587,0.10252 l -63.7812,77.9531 c -0.027894,0.034 -0.048671,0.0717 -0.062533,0.11136 -0.014494,0.0395 -0.02243,0.082 -0.022428,0.12594 v 28.3477 c 0,0.2041 0.170898,0.375 0.375,0.375 h 63.4062 v 35.0547 c 0,0.2041 0.170898,0.375 0.375,0.375 h 28.3477 c 0.204102,0 0.375,-0.1709 0.375,-0.375 v -35.0547 h 20.8828 c 0.2041,0 0.375,-0.1709 0.375,-0.375 v -28.3477 c 0,-0.2041 -0.1709,-0.375 -0.375,-0.375 z"
     id="path831" />
  <path
     style="fill:currentColor"
     d="m 32.6677,185.472 c -0.05627,-0.034 -0.121765,-0.0538 -0.191092,-0.0538 h -28.3477 c -0.0349,0 -0.068829,0.005 -0.1011,0.0143 -0.022745,0.006 -0.045139,0.0148 -0.066869,0.0257 -0.065934,0.0328 -0.117991,0.0837 -0.153277,0.14387 -0.034038,0.0563 -0.053755,0.12177 -0.053754,0.1911 0,0.0349 0.005,0.0688 0.014302,0.1011 0.00627,0.0227 0.014815,0.0451 0.025737,0.0669 l 42.4795,84.959 v 56.6035 c 0,0.20411 0.170898,0.375 0.375,0.375 h 28.3477 c 0.204102,0 0.375,-0.17089 0.375,-0.375 v -56.6035 l 42.479503,-84.959 c 0.0109,-0.0217 0.0195,-0.0441 0.0257,-0.0669 0.009,-0.0323 0.0143,-0.0662 0.0143,-0.1011 0,-0.0693 -0.0197,-0.13483 -0.0538,-0.19109 -0.0353,-0.0602 -0.0873,-0.11108 -0.15327,-0.14387 -0.0217,-0.0109 -0.0441,-0.0195 -0.0669,-0.0257 -0.0323,-0.009 -0.0662,-0.0143 -0.1011,-0.0143 H 89.167987 c -0.06933,0 -0.134822,0.0197 -0.191091,0.0538 -0.06021,0.0353 -0.111079,0.0873 -0.14387,0.15328 l -28.0088,56.0215 -28.0127,-56.0215 c -0.03279,-0.0659 -0.08366,-0.11799 -0.143869,-0.15328 z"
     id="path827" />
  <path
     style="fill:currentColor"
     d="m 4.12891,15.34 c -0.204102,0 -0.375,0.1709 -0.375,0.375 v 85.0391 c 0.00781,31.5117 25.5547,57.0547 57.0703,57.0547 31.5117,0 57.0586,-25.543 57.0664,-57.0547 V 15.715 c 0,-0.2041 -0.1709,-0.375 -0.375,-0.375 h -28.3477 c -0.204102,0 -0.375,0.1709 -0.375,0.375 v 85.0391 c 0,15.4453 -12.5195,27.9688 -27.9688,27.9688 -15.4493,0 -27.9727,-12.5234 -27.9727,-27.9688 V 15.715 c 0,-0.2041 -0.170898,-0.375 -0.375,-0.375 H 4.12871 Z"
     id="path825" />
</svg>
